<?xml version="1.0" encoding="UTF-8" standalone="no"?>
<!-- Created with Inkscape (http://www.inkscape.org/) -->

<svg
   xmlns:dc="http://purl.org/dc/elements/1.1/"
   xmlns:cc="http://creativecommons.org/ns#"
   xmlns:rdf="http://www.w3.org/1999/02/22-rdf-syntax-ns#"
   xmlns:svg="http://www.w3.org/2000/svg"
   xmlns="http://www.w3.org/2000/svg"
   xmlns:sodipodi="http://sodipodi.sourceforge.net/DTD/sodipodi-0.dtd"
   xmlns:inkscape="http://www.inkscape.org/namespaces/inkscape"
   version="1.1"
   width="512"
   height="512"
   viewBox="0 0 512 512"
   id="svg3222"
   xml:space="preserve"
   inkscape:version="0.48.3.1 r9886"
   sodipodi:docname="antikobpae.svg"><sodipodi:namedview
   pagecolor="#ffffff"
   bordercolor="#666666"
   borderopacity="1"
   objecttolerance="10"
   gridtolerance="10"
   guidetolerance="10"
   inkscape:pageopacity="0"
   inkscape:pageshadow="2"
   inkscape:window-width="640"
   inkscape:window-height="480"
   id="namedview6"
   showgrid="false"
   inkscape:zoom="0.65186406"
   inkscape:cx="189.96176"
   inkscape:cy="228.87075"
   inkscape:window-x="124"
   inkscape:window-y="260"
   inkscape:window-maximized="0"
   inkscape:current-layer="svg3222" /><metadata
   id="metadata3229"><rdf:RDF><cc:Work
       rdf:about=""><dc:format>image/svg+xml</dc:format><dc:type
         rdf:resource="http://purl.org/dc/dcmitype/StillImage" /><dc:title /></cc:Work></rdf:RDF></metadata><defs
   id="defs3227" />

<path
   style="fill:#000000"
   d="M 16.996832,499.79107 C 2.8760906,491.45852 4.2348129,485.85963 25.662108,464.08237 48.492736,440.87899 51.07405,426.96731 51.07405,327.125 l 0,-111.1306 36.567163,0 c 28.441157,0 33.519877,-2.90956 22.854477,-13.09278 -26.513274,-25.31458 -16.284495,-52.37095 19.79894,-52.37095 34.57795,0 37.64707,-4.28112 51.98722,-72.515331 10.95505,-52.126874 41.81785,-73.3093012 93.97036,-64.495719 23.84899,4.030362 59.88386,8.338956 80.07719,9.574752 53.07832,3.248092 63.87303,19.573206 71.09855,107.523638 6.38593,77.72953 6.87648,78.71718 43.59711,87.7626 50.4642,12.43079 46.71983,28.62489 -8.57045,37.06641 l -45.70893,6.97881 0,83.46272 c 0,122.37191 -9.71291,131.89113 -134.91797,132.22735 -54.63726,0.14601 -122.48058,5.09619 -150.76302,10.99893 -28.28244,5.90258 -61.749802,12.94295 -74.371972,15.64511 -12.622224,2.70228 -30.485272,0.46602 -39.695886,-4.96887 z M 185.45492,451.501 l 48.67666,-23.2456 -44.90715,0 c -79.18595,0 -118.717217,-59.01409 -87.42738,-130.51565 12.99996,-29.70663 25.39246,-40.09184 54.47296,-45.6489 l 37.64451,-7.19374 -31.97488,-12.48469 c -17.5863,-6.86656 -47.15418,-10.35756 -65.706635,-7.75763 l -33.731763,4.72691 0,98.29304 c 0,86.1347 2.120239,96.6131 17.140904,84.71074 13.694827,-10.85195 20.676074,-10.78115 34.725884,0.35207 15.51932,12.29752 13.84137,17.67919 -14.28408,45.81148 l -31.869059,31.87698 34.281699,-7.83967 c 18.85497,-4.31179 56.18616,-18.30016 82.95833,-31.08522 z m 110.08216,-23.642 c 8.87464,-22.0811 8.70845,-111.69816 -0.26589,-143.67325 -4.16595,-14.84224 -15.72277,-24.5489 -29.22827,-24.5489 -20.29824,0 -20.69978,1.56409 -4.39802,17.12891 28.01724,26.7505 33.31752,65.86485 13.94844,102.93566 -16.92867,32.40013 -14.89677,65.41588 4.02581,65.41588 4.94008,0 12.10341,-7.76618 15.9183,-17.2583 z M 223.1537,401.47486 c 21.20078,0 47.06187,-53.11242 38.25584,-78.56775 l -8.67745,-25.0831 -6.81424,26.24394 c -10.01372,38.56677 -38.01111,51.77921 -75.3244,35.54668 -26.6244,-11.58249 -29.85042,-17.98189 -23.74885,-47.11026 6.19032,-29.55265 4.87759,-31.97734 -10.65111,-19.67227 -28.3533,22.4673 -17.23192,88.69331 17.72566,105.55381 15.71249,7.57842 35.41649,11.37372 43.78684,8.43395 8.37022,-2.93977 19.82182,-5.345 25.44771,-5.345 z M 205.78,343.1216 c -11.5888,-8.09087 -17.41047,-20.36528 -12.93691,-27.27653 4.75606,-7.34744 1.01588,-12.56577 -9.00705,-12.56577 -9.42749,0 -20.45806,5.12483 -24.51259,11.38852 -10.70754,16.54188 16.36143,43.16457 43.88794,43.16457 22.63097,0 22.74058,-0.62704 2.56861,-14.71079 z m 150.61773,-12.66497 c 3.61603,-5.58621 9.78563,-17.84289 3.39817,-21.61206 -6.38742,-3.76917 -2.91097,15.12511 -11.61361,11.69075 -31.6583,-12.49344 -1.58037,25.05479 8.21544,9.92131 z m -128.20148,-48.9986 c -3.88436,-6.00078 -18.3291,-10.83543 -32.09934,-10.74354 -20.35456,0.13642 -21.83134,2.14503 -7.89604,10.74354 22.51308,13.89135 48.98712,13.89135 39.99538,0 z"
   id="path2996"
   inkscape:connector-curvature="0"
   sodipodi:nodetypes="csscssssssssscscsscccssscsscsssscsccccssssccsscsssssssccsssccsscccsc" /></svg>