<?xml version="1.0" encoding="UTF-8" standalone="no"?>
<!-- Created with Inkscape (http://www.inkscape.org/) -->

<svg
   xmlns:dc="http://purl.org/dc/elements/1.1/"
   xmlns:cc="http://creativecommons.org/ns#"
   xmlns:rdf="http://www.w3.org/1999/02/22-rdf-syntax-ns#"
   xmlns:svg="http://www.w3.org/2000/svg"
   xmlns="http://www.w3.org/2000/svg"
   xmlns:sodipodi="http://sodipodi.sourceforge.net/DTD/sodipodi-0.dtd"
   xmlns:inkscape="http://www.inkscape.org/namespaces/inkscape"
   version="1.1"
   width="512"
   height="512"
   viewBox="0 0 512 512"
   id="svg3222"
   xml:space="preserve"
   inkscape:version="0.48.3.1 r9886"
   sodipodi:docname="eole.svg"><sodipodi:namedview
   pagecolor="#ffffff"
   bordercolor="#666666"
   borderopacity="1"
   objecttolerance="10"
   gridtolerance="10"
   guidetolerance="10"
   inkscape:pageopacity="0"
   inkscape:pageshadow="2"
   inkscape:window-width="640"
   inkscape:window-height="480"
   id="namedview6"
   showgrid="false"
   inkscape:zoom="0.65186406"
   inkscape:cx="208.25569"
   inkscape:cy="251.02559"
   inkscape:window-x="437"
   inkscape:window-y="133"
   inkscape:window-maximized="0"
   inkscape:current-layer="svg3222" /><metadata
   id="metadata3229"><rdf:RDF><cc:Work
       rdf:about=""><dc:format>image/svg+xml</dc:format><dc:type
         rdf:resource="http://purl.org/dc/dcmitype/StillImage" /><dc:title /></cc:Work></rdf:RDF></metadata><defs
   id="defs3227" />

<path
   d="M 196.60845,501.11518 C 118.3016,483.59516 112.83197,481.9498 112.8855,475.92952 c 0.0491,-5.54577 76.57985,-70.88173 83.02649,-70.88173 4.44225,0 5.83625,2.55197 5.87477,10.75494 0.0753,16.02079 8.39886,42.6927 20.22309,64.80254 5.77122,10.79135 10.49311,20.791 10.49311,22.22134 0,3.59062 -15.49977,2.85161 -35.89451,-1.71143 z m 111.06557,-85.84379 c -33.36195,-10.31916 -54.55256,-21.74755 -61.49575,-33.16551 -4.4865,-7.37803 -10.96641,-12.844 -18.25563,-15.39916 -15.76122,-5.52487 -35.68838,-20.84884 -43.02616,-33.08699 -3.39976,-5.67022 -9.71494,-20.39179 -14.03375,-32.71458 -7.35864,-20.99635 -7.64645,-24.72756 -4.57715,-59.34482 3.23586,-36.49621 3.43759,-37.13778 16.79905,-53.42487 43.76214,-53.34453 70.60034,-65.09254 154.45095,-67.60853 26.65111,-0.79968 28.59916,-0.43842 37.39635,6.93449 8.92605,7.48097 9.05037,7.99161 3.25405,13.36503 -3.31463,3.07277 -10.04998,6.43404 -14.96743,7.46946 -4.91747,1.03545 -13.11797,4.37801 -18.22341,7.42791 -5.1054,3.04991 -12.40616,5.54527 -16.22395,5.54527 -10.9148,0 -22.94085,4.70614 -32.48288,12.71142 -5.10784,4.2853 -12.77376,7.41375 -18.33449,7.48234 -7.75655,0.0953 -12.7405,3.73011 -26.46386,19.29862 -22.4725,25.49399 -26.82079,36.78787 -25.10504,65.20589 1.85351,30.69938 10.58577,44.77266 44.79351,72.19128 l 26.96849,21.61606 36.40319,-1.26415 c 43.88836,-1.52411 69.56491,-8.81536 91.91823,-26.10162 29.43298,-22.76113 39.91896,-48.43652 30.41585,-74.47467 -10.55549,-28.92169 -30.90829,-42.17346 -64.77226,-42.17346 -32.56449,0 -63.5967,20.15051 -69.38682,45.05587 -1.79364,7.71502 -0.45714,10.61815 8.25227,17.92491 5.71586,4.79535 12.04918,8.71883 14.07401,8.71883 7.12158,0 17.97339,-11.73982 15.44856,-16.71265 -7.54622,-14.86254 1.27884,-22.2601 15.24045,-12.77532 17.21691,11.69618 11.07038,47.21554 -10.84811,62.68847 -8.89614,6.28006 -13.02839,7.29445 -24.53868,6.02365 -27.61192,-3.04857 -53.6435,-39.88095 -54.25478,-76.76576 l -0.31311,-18.89966 22.03592,-20.64857 c 43.06922,-40.35763 77.10035,-48.46779 119.53742,-28.48769 49.7798,23.43722 65.30974,38.60259 73.83216,72.09863 4.49025,17.64823 4.46677,17.77258 -7.31551,38.79555 -6.50113,11.59984 -11.88773,24.50574 -11.97024,28.67985 -0.42711,21.60244 -22.77605,48.08121 -60.77113,72.00101 -37.02299,23.30784 -81.18155,31.79762 -113.46026,21.81347 z M 19.814804,386.2557 C 18.72679,384.76092 16.005388,368.9374 13.767212,351.09232 11.529075,333.24722 8.29472,314.54215 6.5797726,309.52546 4.8647992,304.50879 3.4616618,300.08352 3.4616618,299.6915 c 0,-0.39199 6.2218626,1.37589 13.8262972,3.92855 12.31257,4.1331 17.955274,4.22933 51.538856,0.8787 30.817838,-3.0747 38.211695,-3.08494 40.443055,-0.0562 1.84306,2.50187 6.20269,3.06684 13.4132,1.7382 18.15534,-3.3454 11.98132,2.67046 -19.08735,18.59841 -28.70664,14.71704 -60.114115,38.13174 -74.767677,55.74031 -3.869286,4.64961 -7.925265,7.23082 -9.013239,5.73596 z m 22.63939,-162.32604 c -1.338307,-1.81669 -5.232907,-15.69058 -8.654609,-30.83084 -3.421754,-15.14027 -8.117401,-33.00608 -10.434805,-39.70176 -2.675892,-7.73142 -3.021866,-13.16457 -0.948065,-14.88846 3.039876,-2.52703 77.723015,29.7252 91.703605,39.6026 9.48503,6.70125 6.41794,10.29234 -19.258174,22.54832 -13.656203,6.51848 -28.538603,15.16411 -33.071931,19.21252 -8.883637,7.93333 -15.463711,9.31411 -19.336021,4.05762 z M 173.93381,113.36262 c -11.03292,-9.97185 -40.53063,-46.959371 -50.33352,-63.113667 -11.13733,-18.353413 -9.89319,-22.98214 7.20153,-26.792349 7.9908,-1.78103 24.94577,-7.052071 37.67773,-11.713383 12.73193,-4.6613374 24.65596,-7.6937762 26.49779,-6.7387653 2.03088,1.0530076 2.51641,10.9809753 1.23375,25.2257863 -1.21559,13.499547 -0.32681,34.467027 2.0902,49.301298 6.62425,40.65887 6.70446,40.02338 -5.17541,41.00105 -7.69781,0.63346 -12.57374,-1.18812 -19.19207,-7.16997 z"
   id="path3077"
   style="fill:#fece13"
   inkscape:connector-curvature="0" /></svg>