<?xml version="1.0" standalone="no"?>
<!DOCTYPE svg PUBLIC "-//W3C//DTD SVG 1.1//EN" "http://www.w3.org/Graphics/SVG/1.1/DTD/svg11.dtd" >
<svg xmlns="http://www.w3.org/2000/svg">
<metadata>
This is a custom SVG webfont generated by Font Squirrel.
Copyright   : Generated by Fontographer 35
</metadata>
<defs>
<font id="CarefreeNormal" horiz-adv-x="966" >
<font-face units-per-em="2048" ascent="1638" descent="-410" />
<missing-glyph horiz-adv-x="337" />
<glyph unicode=" "  horiz-adv-x="337" />
<glyph unicode="&#x09;" horiz-adv-x="337" />
<glyph unicode="&#xa0;" horiz-adv-x="337" />
<glyph unicode="!" horiz-adv-x="565" d="M-45 0q0 43 35 109.5t67 66.5q57 0 58 -74q0 -68 -29 -113.5t-78 -45.5q-53 0 -53 57zM102 307q0 39 43 113l533 903l29 45q25 35 51 35q57 0 57 -47q0 -41 -24 -82l-533 -903q-16 -33 -31 -64q-29 -49 -65 -49q-60 0 -60 49z" />
<glyph unicode="&#x22;" horiz-adv-x="630" d="M303 944q0 55 39 190.5t82 251.5q20 53 72 54q18 0 33.5 -16.5t11.5 -37.5q-31 -184 -111 -403q-12 -31 -33.5 -53.5t-44.5 -22.5q-18 0 -33.5 10.5t-15.5 26.5zM682 950q0 55 39 190.5t82 252.5q20 53 71 53q18 0 34 -16.5t12 -36.5q-31 -184 -111 -404 q-12 -31 -33.5 -53.5t-44.5 -22.5q-18 0 -33.5 10.5t-15.5 26.5z" />
<glyph unicode="#" horiz-adv-x="1409" d="M223 412l37 67h281l264 492h-313l16 67h328l184 351h84l-186 -351h272l182 332h86l-184 -332h227l-26 -67h-232l-260 -492h326q-4 2 -21 -33q-4 -10 -16 -34h-342l-221 -422h-86l223 422h-268l-224 -410l-80 4l213 406h-264zM629 479h270l260 492h-270z" />
<glyph unicode="$" horiz-adv-x="935" d="M-53 217q0 57 43 111.5t106 91.5q31 10 51 10q51 0 52 -31q0 -20 -37 -45q-41 -20 -62.5 -51t-21.5 -65q0 -39 19.5 -71t47.5 -38l242 420q-100 113 -100 225q0 143 138 248.5t316 105.5q14 18 45 65.5t52 47.5q43 0 43 -22q0 -35 -43 -91q86 -8 132 -48t46 -97 q0 -98 -117 -186q-133 -100 -350 -135l-49 -82q115 -135 114 -269q0 -137 -110.5 -225t-274.5 -88h-32q-12 2 -19 2q-25 -47 -31 -57q-25 -39 -51 -39q-37 0 -37 24q0 14 11 37q18 33 26 51q-80 43 -114.5 93.5t-34.5 107.5zM225 113q6 -2 22.5 -4.5t39.5 -2.5 q96 0 158.5 71t62.5 159t-72 131zM401 774q0 -63 50 -112q16 16 16 38q-4 23 -4 33q0 20 12 32.5t57 25.5l146 241q-109 -18 -193 -96t-84 -162zM629 807q8 -2 26 -2q72 0 159 62.5t87 115.5q0 29 -26.5 47.5t-83.5 18.5z" />
<glyph unicode="%" horiz-adv-x="1081" d="M55 31q0 27 25 65q57 125 235 336q125 147 344 387q236 256 293 326q18 18 76 88q35 41 53 41q59 -20 54 -64q0 -41 -62 -110q-53 -59 -106 -117q-76 -76 -211 -221q-197 -211 -281 -307q-143 -164 -201 -246q-49 -78 -96 -154q-43 -55 -98 -55q-25 0 -25 31zM70 766 q0 119 140 306.5t228 187.5q33 4 33 -37l-4 -29q41 0 61.5 -26.5t20.5 -73.5q0 -135 -107 -301q-117 -180 -233 -181q-68 0 -103.5 42t-35.5 112zM166 768q0 -55 43 -74q55 -18 150.5 126.5t95.5 246.5q0 78 -68 78q-33 10 -127 -136.5t-94 -240.5zM549 139q0 119 140 306.5 t229 187.5q33 4 32 -37l-4 -29q41 0 61.5 -26.5t20.5 -73.5q0 -135 -106 -301q-117 -180 -234 -180q-68 0 -103.5 41.5t-35.5 111.5zM645 141q0 -55 43 -73q55 -18 150.5 126t95.5 246q0 78 -68 78q-33 10 -127 -136.5t-94 -240.5z" />
<glyph unicode="&#x26;" horiz-adv-x="1353" d="M51 315q0 150 99 277q113 145 333 231q0 266 99 396q80 104 209 104q66 0 119 -53t53 -133q0 -86 -72 -172q-86 -104 -262 -191l80 -436q47 59 74.5 117.5t39.5 124.5q-49 8 -75 16q-53 16 -54 66q0 37 29 50t82 13q18 0 47 -1t68 -3h38q18 4 25 4q29 0 104.5 12.5 t112.5 12.5q49 0 78 -19.5t29 -68.5q0 -35 -62 -35q-18 0 -64 2t-53 2q-53 0 -98 -7.5t-94 -27.5q-12 -86 -68.5 -200.5t-126.5 -186.5q39 -61 80 -87t92 -26q18 0 48 6q70 14 83 15q61 0 62 -47q0 -37 -58.5 -72t-148.5 -35q-72 0 -129 28.5t-125 104.5q-51 -49 -117 -80 q-82 -39 -168 -39q-125 0 -217 100.5t-92 237.5zM211 330q0 -109 72 -166q57 -45 131 -45q55 0 101 24.5t81 65.5l-96 516q-150 -72 -226 -188q-63 -98 -63 -207zM612 870q104 43 166 119q53 66 53 129q0 76 -73 76q-68 0 -107 -100.5t-39 -223.5z" />
<glyph unicode="'" horiz-adv-x="321" d="M356 1038q-2 25 31 58q68 57 119 145q45 78 59 145q10 66 70 66q25 0 42 -20.5t17 -61.5q0 -96 -108.5 -233.5t-182.5 -137.5q-47 0 -47 39z" />
<glyph unicode="(" horiz-adv-x="774" d="M127 -186q0 23 5 53.5t13 52.5q0 408 172 768q133 276 365 522q86 92 334 306q35 29 57 28q35 4 35 -35q0 -31 -27 -57q-362 -326 -577 -735q-199 -377 -262 -797q0 -86 -15 -125q-20 -53 -65 -53q-18 0 -26.5 19.5t-8.5 52.5z" />
<glyph unicode=")" horiz-adv-x="774" d="M-170 -238q0 39 57 93q229 193 432 503q184 287 295 586t111 508q0 41 18.5 65.5t40.5 24.5q39 0 39 -59q0 -319 -123 -643q-102 -270 -280 -529q-131 -188 -307 -374q-111 -113 -133 -134q-82 -72 -125 -61q-25 0 -25 20z" />
<glyph unicode="*" horiz-adv-x="886" d="M371 1290q6 35 37 35q35 0 106 -45q41 -29 82 -55q6 10 15.5 102t66.5 92q43 0 43 -61q0 -37 -13.5 -84t-29.5 -80q6 -10 27 -10q27 0 69 14q113 37 129 37q33 0 33 -25q0 -55 -96 -88q-76 -27 -146 -26q10 -35 92 -123q35 -37 35 -58q0 -14 -11 -26t-30 -12 q-45 0 -95 59t-73 129q-27 -6 -65 -68q-78 -119 -111 -110q-43 6 -43 45q0 45 54.5 110.5t101.5 85.5q-37 43 -125 93q-61 34 -53 69z" />
<glyph unicode="+" horiz-adv-x="1153" d="M223 473q0 25 23.5 33t70.5 8h45h291l84 336q10 41 29.5 72.5t42.5 31.5q29 0 29 -71q0 -29 -7 -52l-79 -317h303q43 2 59 2q57 0 57 -37q0 -31 -32.5 -40t-83.5 -9h-39h-287l-80 -328q-14 -57 -20 -69q-16 -37 -51 -37q-14 0 -22.5 21.5t-8.5 45.5q0 14 4 39l80 328 h-273q-61 0 -98 8t-37 35z" />
<glyph unicode="," horiz-adv-x="450" d="M-158 -268q-4 27 29 59q68 55 119 143q45 78 59 146q10 68 70 67q59 0 59 -84q0 -94 -109.5 -232t-181.5 -138q-45 0 -45 39z" />
<glyph unicode="-" horiz-adv-x="681" d="M82 403v113h532v-113h-532z" />
<glyph unicode="." horiz-adv-x="450" d="M55 -20q0 45 34 111.5t69 66.5q51 0 51 -76q0 -49 -38 -104.5t-75 -55.5q-41 1 -41 58z" />
<glyph unicode="/" horiz-adv-x="694" d="M-184 -92q-4 33 39 76q98 168 290 424q139 184 336 432q209 264 260 338q55 74 113 147q90 106 135 107q27 0 44.5 -24t17.5 -42q0 -12 -148 -188q-127 -147 -297 -359.5t-346 -456.5q-193 -266 -276 -411q-20 -35 -41 -72q-20 -31 -45 -33q-41 0 -61.5 16.5t-20.5 45.5z " />
<glyph unicode="0" horiz-adv-x="661" d="M10 289q0 326 221 590q195 233 357 233q41 0 41 -80q61 -27 85.5 -83t24.5 -132q0 -295 -192 -541q-182 -233 -375 -233q-88 0 -129 78q-33 62 -33 168zM139 285q0 -59 16.5 -92t59.5 -33q125 0 270 237q137 225 138 387q0 70 -27 119t-80 49q-100 0 -235 -225 q-142 -235 -142 -442z" />
<glyph unicode="1" horiz-adv-x="499" d="M37 113q0 27 20 75q14 35 56 119q72 156 159 316q66 119 164 280q-209 -121 -248 -121q-35 0 -43 41q-10 37 97 86q133 61 145 74q74 57 124 83t83 26q51 0 51 -43q0 -23 -16 -50q-74 -123 -217 -383q-152 -274 -219 -407q-45 -90 -52 -100q-29 -47 -53 -48 q-18 0 -34.5 12.5t-16.5 39.5z" />
<glyph unicode="2" horiz-adv-x="741" d="M-84 100q0 41 51 93q106 106 301 260q160 127 361 272q80 55 80 137q0 41 -27 65.5t-86 24.5q-55 0 -121.5 -48t-136.5 -97q-61 0 -62 35q0 57 117 133q131 84 271 84q80 0 129 -53.5t49 -118.5q0 -106 -101 -193q-76 -70 -233 -184q-203 -147 -250 -184 q-127 -100 -162 -164q63 20 154.5 38.5t152.5 18.5q63 0 97.5 -16.5t34.5 -55.5q0 -53 -27 -53q-4 0 -51 6t-92 6q-66 0 -133.5 -11t-168.5 -46q-37 -14 -71 -14q-76 -1 -76 65z" />
<glyph unicode="3" horiz-adv-x="677" d="M-37 233q0 51 24.5 86t75.5 35q27 0 36.5 -14t9.5 -41v-39q0 -49 12 -67q20 -31 82 -31q94 0 192 129q92 121 92 213v18q-4 8 -4 10q-14 49 -38.5 70t-53.5 21q-20 0 -50 -8.5t-38 -8.5q-16 0 -28.5 19.5t-12.5 36.5q0 37 78 67l127 45q51 29 78.5 64.5t27.5 64.5 q0 63 -73 64q-37 0 -117 -42t-104 -42q-39 0 -39 26q0 45 102 103.5t203 58.5q70 0 115 -40t55 -111q0 -68 -55.5 -129.5t-159.5 -112.5q104 -47 104 -170q0 -164 -150.5 -316.5t-295.5 -152.5q-78 0 -136.5 51t-58.5 143z" />
<glyph unicode="4" horiz-adv-x="741" d="M14 465q0 66 147.5 225.5t313.5 286.5q182 139 260 139q29 0 50.5 -15.5t21.5 -39.5q0 -37 -82 -158q-51 -76 -80 -129l-96 -178q51 10 84 10q90 0 76 -57q-10 -45 -49 -55.5t-160 -10.5q-84 -139 -129 -282q-53 -168 -97 -168q-63 0 -63 63q0 66 57 193q43 88 86 178 q-74 0 -172 -23.5t-119 -23.5q-49 0 -49 45zM178 549q27 6 92.5 13t149.5 18q45 102 108 211q76 121 101 161q-63 -27 -189 -135q-137 -121 -262 -268z" />
<glyph unicode="5" horiz-adv-x="694" d="M-23 242q0 70 26 124t60 54q33 0 45.5 -14.5t12.5 -40.5q0 -25 -2 -39q-10 -70 -10 -74q0 -35 14 -56.5t55 -33.5q16 -4 27 -4q88 0 190.5 133t102.5 244q0 43 -28 78.5t-71 35.5q-47 0 -118.5 -40t-90.5 -40q-25 0 -45 18.5t-20 47.5q0 37 68.5 133t177.5 215 q-25 20 -27 35q0 33 135 53.5t240 20.5q51 0 76.5 -19.5t25.5 -46.5q0 -43 -47 -43l-274 -31q-35 -18 -78 -63q-8 -8 -148 -180q109 39 183 39q92 0 133 -46.5t41 -126.5q0 -190 -146 -354q-152 -172 -348 -172q-82 0 -121 56.5t-39 136.5z" />
<glyph unicode="6" horiz-adv-x="708" d="M-14 281q0 168 137 360q117 164 278.5 286t243.5 122q41 0 41 -33q0 -39 -41 -64q-143 -80 -248 -166q-80 -68 -139 -141q76 33 107 43q63 20 114 21q76 0 117 -39q49 -47 49 -154q0 -193 -176 -350q-154 -137 -276 -137q-92 0 -149.5 71.5t-57.5 180.5zM96 313 q0 -72 30 -120t99 -48q98 -8 199.5 126.5t101.5 246.5q0 43 -21.5 68.5t-68.5 25.5q-53 0 -115.5 -18.5t-158.5 -77.5q-27 -31 -46.5 -88.5t-19.5 -114.5z" />
<glyph unicode="7" horiz-adv-x="612" d="M-10 43q0 59 137 260q111 162 289 377q166 201 246 272q-74 -16 -203 -35.5t-199 -19.5q-43 0 -70.5 4t-27.5 35q0 55 156.5 60t310.5 53q51 14 73 14q43 0 64.5 -17.5t21.5 -44.5q4 -31 -30 -65q-178 -168 -351.5 -402.5t-261.5 -420.5q-23 -63 -59 -84q-23 -12 -70 -13 q-26 0 -26 27z" />
<glyph unicode="8" horiz-adv-x="694" d="M-63 256q0 109 98 223q111 129 319 230q-92 61 -92 165q0 98 93.5 176t232.5 78q84 0 132 -42t48 -105q0 -76 -59 -150q-70 -84 -193 -137q61 -41 89 -94t28 -117q0 -152 -150.5 -294t-308.5 -142q-102 0 -169.5 59.5t-67.5 149.5zM88 264q0 -43 42 -74.5t93 -31.5 q104 0 194.5 102t90.5 219q0 100 -88 166q-145 -80 -238.5 -188.5t-93.5 -192.5zM385 903q0 -70 82 -129q84 43 125 91t41 89q0 35 -26.5 59.5t-63.5 24.5q-68 0 -113 -43t-45 -92z" />
<glyph unicode="9" horiz-adv-x="661" d="M86 670q0 172 166 329q156 147 295 148q96 0 148.5 -56.5t52.5 -150.5q0 -133 -101.5 -325.5t-275.5 -389.5q-51 -63 -116 -112.5t-110 -49.5q-6 0 -17 6.5t-13 16.5q0 27 59 82q49 45 100 90q55 55 118 145.5t75 128.5q-39 -33 -93.5 -54t-105.5 -21q-78 0 -130 59.5 t-52 153.5zM201 678q0 -47 28.5 -76t75.5 -29q57 0 120.5 29t123.5 76q27 45 48 118.5t21 133.5q0 59 -24.5 92t-77.5 27q-109 -8 -212 -135t-103 -236z" />
<glyph unicode=":" horiz-adv-x="450" d="M25 8q0 41 33.5 102.5t66.5 61.5q53 0 53 -78q0 -47 -39 -102t-73 -51q-41 -1 -41 67zM233 535q0 47 34 107t69 60q51 0 51 -75q0 -59 -32.5 -106.5t-78.5 -47.5q-43 1 -43 62z" />
<glyph unicode=";" horiz-adv-x="450" d="M-160 -266q0 27 31 57q68 55 119 143q45 78 59 146q10 66 70 65q25 0 42 -20.5t17 -61.5q0 -94 -109.5 -232t-181.5 -138q-47 0 -47 41zM233 514q0 45 35 109.5t68 64.5q51 0 51 -74q0 -47 -36 -102t-72 -55q-46 0 -46 57z" />
<glyph unicode="&#x3c;" horiz-adv-x="1046" d="M242 483l4 13q4 18 22.5 37.5t63.5 44.5l678 307q18 10 40.5 18t39.5 8q33 0 32 -30q-8 -14 -14 -21q-23 -25 -57 -29l-715 -335l545 -406q18 -16 22 -45q0 -45 -33 -45q-12 0 -39.5 11.5t-33.5 23.5l-506 395q-49 20 -49 53z" />
<glyph unicode="=" horiz-adv-x="1261" d="M236 252q0 25 41.5 41t105.5 16h692q109 0 109 -45q0 -18 -35 -28.5t-90 -10.5h-694q-80 0 -104.5 5.5t-24.5 21.5zM336 676q0 25 42 41t105 16h693q109 0 108 -45q0 -18 -35 -28.5t-90 -10.5h-694q-80 0 -104.5 5.5t-24.5 21.5z" />
<glyph unicode="&#x3e;" horiz-adv-x="1046" d="M221 -8q8 14 15 20q23 25 57 29l715 336l-545 405q-18 16 -23 45q0 45 33 45q12 0 40 -11t34 -23l506 -396q49 -20 49 -53l-4 -12q-4 -18 -22.5 -38t-63.5 -44l-678 -307q-18 -10 -41 -18.5t-39 -8.5q-33 0 -33 31z" />
<glyph unicode="?" horiz-adv-x="790" d="M152 4q0 41 33.5 103.5t66.5 64.5q55 0 55 -72q0 -63 -30.5 -111t-77.5 -48t-47 63zM250 432q0 68 67 166q57 84 166 193q168 119 271 194q193 143 192 260q0 43 -25.5 68.5t-82.5 25.5q-109 0 -215 -82q-111 -92 -220 -182q-16 0 -28.5 11.5t-12.5 35.5q0 80 166 198 t291 118q100 0 162.5 -54.5t62.5 -144.5q0 -125 -133 -254q-18 -18 -270 -215q-164 -129 -205 -221q-33 -68 -61 -105q-43 -57 -84 -57t-41 45z" />
<glyph unicode="@" horiz-adv-x="1761" d="M246 332q0 264 215 538q197 252 489.5 422t530.5 170q176 0 286.5 -102.5t110.5 -282.5q0 -80 -74 -276q-90 -240 -209 -391q-156 -199 -329 -199q-72 0 -72 88q0 20 7 59t14.5 72t30 102.5t28.5 102.5q-143 -158 -318.5 -271.5t-293.5 -113.5q-57 0 -89 33.5t-32 91.5 q0 135 127 325q135 203 325 336q219 154 434 154h35q39 45 72 45q12 0 29 -47l6 -25q0 -8 -6.5 -19t-10.5 -22q-2 0 -69.5 -190.5t-128.5 -366.5q-70 -203 -70 -221q0 -23 13.5 -38t29.5 -15q96 0 264 241q184 266 185 506q0 152 -76 248q-86 109 -246 109q-213 0 -487 -176 q-264 -170 -449 -412q-197 -258 -196 -467q0 -127 85 -202t209 -75q76 0 162 28t162 83q18 14 39 29q31 20 49 20q14 0 29 -10q25 -18 24 -47q-14 -12 -24 -21q-33 -25 -68 -43q-238 -121 -407 -120q-156 0 -246 96t-90 254zM621 440q0 -92 90 -92q150 0 426 252 q285 260 284 424q0 43 -21.5 68.5t-62.5 25.5q-154 0 -428 -239q-288 -253 -288 -439z" />
<glyph unicode="A" d="M-94 18q0 68 139 295q57 92 117 187q-63 -27 -99 -40.5t-59 -13.5q-37 -4 -37 37q0 49 125 101q98 39 199 78q186 283 414 536q238 266 319 266q57 0 57 -73q-8 -76 -98 -340q-61 -178 -80 -244l53 8q86 0 86 -47q0 -31 -43 -52.5t-129 -21.5q-74 -276 -96 -493t-65 -217 q-37 0 -52.5 37.5t-15.5 111.5q0 86 23 209q10 59 77 336l-403 -113q-125 -193 -230.5 -387t-170.5 -194q-31 -1 -31 34zM451 709l323 82q14 66 107 325q39 109 39 141q-76 -43 -246 -249q-147 -178 -223 -299z" />
<glyph unicode="B" d="M-68 37q0 55 39 158l45 112q82 197 285 549q193 334 264 418q-35 -6 -153 -57q-55 -25 -76 -25q-35 6 -35 41t204 126t308 91q115 0 192.5 -59.5t77.5 -151.5q0 -119 -144 -240.5t-343 -175.5q123 -29 188.5 -112.5t65.5 -200.5q0 -166 -189.5 -344t-384.5 -178 q-61 0 -118.5 14t-108.5 47q0 -45 -15 -77q-12 -24 -35 -24q-7 0 -15 3q-52 16 -52 86zM80 145q0 -20 53 -37.5t121 -17.5q178 0 332 166q143 156 143 311q0 84 -80 140.5t-153 56.5q-14 0 -43 -2t-39 -2q-33 0 -43 14q-63 -125 -127 -248q-82 -168 -164 -381zM451 903 q129 0 315 111q205 121 205 231q0 8 -4 29q-12 37 -47 53t-84 16q-84 0 -158 -36q14 -8 14 -25q0 -25 -43 -84q-149 -209 -198 -295z" />
<glyph unicode="C" horiz-adv-x="903" d="M10 209q0 94 36 208.5t116 260.5q117 244 342 485q252 268 411 269q61 0 104.5 -49.5t43.5 -118.5q0 -98 -66.5 -216t-173.5 -225q-20 -20 -38.5 -28.5t-39.5 -8.5q-55 0 -55 52q0 20 12.5 40.5t38.5 41.5q119 90 187 196q59 92 59 160t-59 67q-88 0 -236 -143 q-115 -113 -252 -299q-121 -166 -166 -256q-63 -123 -95 -227.5t-32 -177.5q0 -88 37 -135.5t99 -47.5q98 0 215 90q129 100 243 289q20 27 43 43.5t39 16.5q12 0 13 -15q0 -20 -13 -45q-123 -229 -293 -360q-156 -121 -294 -121q-102 0 -164 63.5t-62 190.5z" />
<glyph unicode="D" horiz-adv-x="999" d="M-4 61q0 55 27 138q8 25 40 108q57 152 179 393q129 254 258 510q-55 -72 -105 -71q-49 4 -49 43q0 29 133 125q158 113 287 112q143 0 242 -78q111 -86 110 -233q0 -205 -166 -481.5t-393 -468.5q-246 -207 -446 -207q-49 0 -83 31.5t-34 78.5zM129 104q0 -47 37 -47 q29 0 76 21.5t96 50.5q233 143 441 455.5t208 541.5q0 90 -50 138.5t-134 48.5q-41 0 -84 -14.5t-90 -41.5q14 0 14 -14q0 -37 -133 -303q-125 -248 -248 -494q-133 -276 -133 -342z" />
<glyph unicode="E" horiz-adv-x="854" d="M-29 113q0 12 13 49q76 205 185.5 430t217.5 391l143 213q33 53 50 94q-16 0 -30.5 16.5t-14.5 28.5q0 23 28.5 45.5t98.5 38.5q100 18 254.5 36t250.5 18q74 0 99 -19q16 -12 12 -33q0 -51 -102 -63q-37 -4 -95 -4q-70 0 -208 -16.5t-179 -30.5q29 0 29 -17 q0 -18 -123 -190q-86 -119 -149 -230l356 50q86 0 86 -46q0 -27 -47 -47t-137 -20t-185 -19q-98 -23 -137 -30q-123 -242 -166 -334q-70 -154 -92 -231q76 39 212 76.5t208 37.5q63 0 97 -9t34 -48q0 -20 -2 -25q-10 -23 -189 -41q-119 -12 -231 -71q-131 -59 -213 -60 q-74 1 -74 60z" />
<glyph unicode="F" horiz-adv-x="854" d="M-20 106q0 25 10 63t26 89q29 92 156 326q104 193 236 411q78 131 157 262q-43 0 -43 43q0 66 191.5 117t367.5 51q80 0 123 -9t43 -46q0 -49 -27.5 -58t-119.5 -9q-78 0 -164 -10.5t-211 -45.5q-88 -115 -158.5 -223.5t-115.5 -196.5q86 14 185 32t171 18q23 0 38 -19.5 t15 -44.5q0 -49 -53 -49q-68 0 -217 -27q-111 -20 -219 -39q-47 -76 -121 -237q-88 -190 -121 -311q-8 -41 -16 -80q-18 -63 -80 -64q-53 0 -53 57z" />
<glyph unicode="G" horiz-adv-x="870" d="M25 352q0 139 110 346q86 162 203 301q84 106 164 189q111 115 209 182q119 82 209 82q92 0 133 -47t41 -125q0 -162 -156 -348q-141 -170 -221 -170q-23 0 -44.5 15.5t-21.5 35.5q141 141 246 258q115 127 115 236q0 66 -56 65q-61 0 -155 -67q-109 -78 -252 -240 q-164 -186 -283 -389q-125 -213 -125 -324q0 -10 4 -30q12 -49 40 -71t67 -22q82 0 205 88q78 55 155 134q68 59 103 59q31 0 30 -41q0 -45 -36 -98q-63 -100 -158 -279q-109 -201 -148 -301q-27 -88 -51 -176q-23 -51 -61 -51q-72 0 -72 59q0 27 12.5 69t26.5 83 q16 74 125 270q100 182 100 213q-160 -147 -274 -147q-74 0 -129 65t-55 176z" />
<glyph unicode="H" horiz-adv-x="999" d="M-33 49q8 90 58 217q59 141 120 283q-57 -35 -77 -35q-35 0 -35 51q0 59 98 90q39 10 78 23q43 82 227 397q127 219 193 377q14 39 31.5 56.5t37.5 17.5q18 0 31.5 -20.5t13.5 -47.5q0 -57 -77 -209q-55 -109 -156.5 -285t-122.5 -223l436 113q33 59 113 190 q150 244 174.5 303.5t53 86t57.5 26.5q37 0 36 -57q0 -53 -114 -254q-98 -172 -176 -279q14 0 40.5 4.5t36.5 4.5q51 0 52 -56q0 -51 -64.5 -56t-128.5 -9q-74 -147 -110 -226q-66 -137 -111 -251q-55 -139 -70 -218q-16 -72 -57 -71q-25 0 -44 25.5t-19 66.5q0 12 8 45 q33 123 116 305q41 88 142 291q-98 -18 -244 -63q-104 -33 -207 -66q-131 -293 -145 -328q-51 -131 -66 -219q-6 -41 -27.5 -62.5t-50.5 -21.5q-53 0 -53 59q0 11 2 25z" />
<glyph unicode="I" horiz-adv-x="483" d="M-8 94l8 51q0 94 98 299q74 152 217 390q90 150 217 344q53 94 114 167.5t95 73.5q55 0 56 -43q0 -25 -15.5 -56.5t-40.5 -62.5q-156 -213 -313 -473q-190 -311 -266 -510q-25 -61 -39 -151t-74 -90q-57 0 -57 61z" />
<glyph unicode="J" horiz-adv-x="919" d="M-16 272q0 135 71 297q80 178 203 285q55 47 82 47q20 0 20 -29q0 -51 -53 -114q-94 -111 -141 -227.5t-47 -213.5q0 -80 27.5 -126t78.5 -46q78 0 172 101q84 90 152 221q115 231 231 463q152 307 172 377q-47 0 -123 -23q-172 -51 -192 -51q-58 0 -58 47q0 62 190 116 q200 56 376 56q109 0 159 -10t50 -56q0 -63 -258 -63q-94 -270 -199 -494q-156 -334 -322 -530q-211 -250 -413 -250q-88 0 -133 61.5t-45 161.5z" />
<glyph unicode="K" horiz-adv-x="999" d="M-33 63q0 111 78 287q53 121 164 312q37 57 160 241q88 131 143 230q74 129 117 253q37 104 84 105h4q31 0 31 -57q0 -55 -101 -256q-49 -98 -98 -195q147 92 250 154q176 106 252 145q125 63 174 64q49 0 49 -39q0 -23 -17.5 -46.5t-46.5 -35.5q-137 -45 -229 -92 q-135 -70 -352 -230q-29 -92 -56.5 -278.5t-27.5 -315.5q0 -59 8 -95t27 -36q51 0 164.5 142.5t129.5 142.5q20 0 21 -35q0 -59 -115 -203q-129 -162 -235 -162q-59 0 -92 60.5t-33 175.5t32.5 294t63.5 343q-72 -121 -141 -242q-113 -195 -195 -354q-100 -195 -100 -244 q0 -51 -20.5 -79.5t-47.5 -28.5q-45 -1 -45 75z" />
<glyph unicode="L" horiz-adv-x="661" d="M-88 94q0 57 37 148.5t100 208.5q80 162 281 452q168 242 332 451q29 41 69 41q39 0 39 -43q0 -16 -12 -45q-49 -92 -142.5 -217t-183.5 -242q-100 -135 -158 -236q-86 -152 -129 -235q-72 -137 -82 -199q125 33 252 66q82 18 129 18q41 0 63.5 -17.5t22.5 -41.5 q0 -23 -21.5 -40.5t-57.5 -17.5q-127 0 -286 -56t-198 -56q-55 0 -55 61z" />
<glyph unicode="M" horiz-adv-x="1224" d="M-92 -39q0 35 33 102q43 82 59 115q90 195 229 430q158 266 303 457q121 158 136 174q80 98 123 137q59 53 100 54q55 0 55 -52q2 -12 -10 -55q-174 -352 -268 -563q-102 -229 -103 -340q37 55 142 205l151 217q90 129 141 207q160 233 267 337q90 88 141 89 q23 0 34 -15.5t11 -40.5q0 -78 -111 -272q-143 -252 -147 -260q-45 -90 -107 -223q-76 -164 -118 -283q-57 -158 -66 -236l2 -69q0 -51 -2 -64q-8 -47 -47 -47q-12 0 -18 2q-66 8 -66 113q0 88 41 225q35 117 74 195q74 162 143 299q51 100 123 229q43 78 121 213 q-82 -82 -223 -272q-115 -154 -240 -340q-16 -25 -182 -275q-33 -49 -67 -71.5t-62 -22.5q-29 0 -46.5 21.5t-17.5 56.5q0 129 43 268q37 123 117 281q59 113 92 180q43 88 53 111q-74 -59 -217 -287q-121 -193 -258 -447q-121 -225 -186 -364q-27 -53 -51 -107 q-29 -53 -78 -53q-43 0 -43 41z" />
<glyph unicode="N" horiz-adv-x="1081" d="M-37 18q0 72 84 250l66 135q113 225 299 525q195 311 297 426q55 63 94 63q43 0 43 -45q0 -18 -8 -33q-84 -180 -144 -573q-49 -328 -49 -524q20 47 96 209q63 133 97 211q63 135 110 229q57 117 128 246t136.5 236.5t120.5 107.5h3q30 0 30 -41q0 -29 -82 -172 q-16 -29 -174 -295q-115 -195 -158 -279q-49 -92 -104 -229l-139 -352q-27 -53 -63 -87t-68 -34q-27 0 -44.5 28.5t-17.5 92.5q0 233 46 498.5t100 533.5q-176 -272 -310 -512q-139 -252 -207 -424q-25 -68 -49 -133q-45 -109 -96 -109q-37 6 -37 51z" />
<glyph unicode="O" d="M14 238q0 229 230 569q209 309 450 500q-39 0 -92 -25q-127 -57 -137 -57q-14 0 -24.5 10t-10.5 27q0 55 123 108t256 53q147 0 226 -76.5t79 -220.5q0 -207 -174 -489q-158 -256 -382 -454.5t-363 -198.5q-82 0 -131.5 60.5t-49.5 193.5zM152 240q0 -127 90 -127 q82 0 262 176q188 184 325 407q160 260 160 445q0 78 -31 121q-39 55 -129 55q-29 0 -46 -4t-25 -6q23 -4 18 -21q0 -31 -84 -119l-143 -151q-172 -188 -284.5 -412.5t-112.5 -363.5z" />
<glyph unicode="P" horiz-adv-x="952" d="M27 49l6 47q20 84 94 246q31 66 131 270q-37 37 -37 82q0 43 47 43q18 0 54 -12q61 119 96 190q72 143 98 213q-47 -20 -70.5 -29t-37.5 -9q-18 0 -33 16t-15 37q0 39 74 88q57 39 146 76q6 49 31.5 76.5t54.5 27.5q45 0 45 -47l-2 -10q123 53 221 53q113 0 180.5 -61.5 t67.5 -167.5q0 -246 -236 -435q-221 -176 -473 -176q-59 0 -115 13l-209 -517q-23 -86 -73 -86q-45 0 -45 72zM420 694q41 -6 82 -6q215 0 416 191q178 170 178 282q-12 129 -172 129q-100 0 -246 -49q-29 -61 -100 -219q-113 -250 -158 -328z" />
<glyph unicode="Q" d="M16 242q0 223 230 557q195 283 448 508q-6 -2 -131 -58q-70 -31 -96 -30q-33 0 -33 38q0 55 142.5 109.5t275.5 54.5q143 0 209 -88q53 -72 53 -190q0 -117 -63 -275q-49 -119 -131 -256q-92 -145 -181 -252q-94 -115 -207 -215q29 -156 99.5 -266t150.5 -110 q29 0 80 33.5t72 33.5q45 0 41 -35q0 -47 -82 -95t-148 -48q-115 0 -199.5 114.5t-109.5 290.5q-80 -51 -140 -73.5t-110 -22.5q-90 0 -130 74t-40 201zM145 291q0 -184 95 -185q66 0 163 87q-59 158 -133 157q-27 0 -52.5 -13t-72.5 -46zM193 420q86 31 137 31q49 0 88 -33 t82 -144q61 31 168 172q53 70 170 248q59 94 100 207q49 133 49 227q0 88 -45 140q-51 57 -156 57l-28 -2q20 -27 18 -47q0 -33 -71 -92q-53 -45 -76 -72q-90 -113 -178 -225q-96 -127 -156 -230q-71 -122 -102 -237z" />
<glyph unicode="R" horiz-adv-x="952" d="M-18 49q0 55 82.5 234.5t193.5 361.5q-6 35 -9 53.5t-3 32.5q0 31 19.5 45.5t72.5 14.5q78 127 137 231q70 121 90 172q-12 -6 -51 -29q-25 -14 -35 -14q-8 0 -18 14.5t-10 28.5q0 49 178 160q0 35 21.5 58.5t49.5 23.5q41 0 41 -50q109 41 203 41q119 0 182 -90 q51 -72 52 -163q0 -205 -209 -363t-473 -158h-68q-29 6 -41 9q45 -117 125 -291q94 -203 150 -291q14 -27 14 -51q0 -27 -13.5 -42.5t-33.5 -15.5q-35 0 -64 45q-57 92 -138 276.5t-105 239.5q-31 -63 -111 -237t-98 -232q-29 -74 -76 -73q-23 0 -39 18t-16 41zM451 758 q244 0 436 135t192 285q0 63 -41 101t-116 38q-90 0 -228 -76q0 -29 -81.5 -182.5t-161.5 -300.5z" />
<glyph unicode="S" horiz-adv-x="854" d="M-12 262q0 84 65.5 153.5t136.5 69.5q31 0 48.5 -10t19.5 -26q0 -37 -65 -62q-45 -16 -67 -44t-22 -64q0 -53 45.5 -96.5t114.5 -43.5q12 -2 37 -2q113 0 195 66.5t82 142.5q0 111 -158 316q-76 102 -76 227q0 186 174 362q190 193 440 193q70 0 118 -41t48 -103 q0 -135 -190 -299q-172 -147 -256 -147q-94 0 -90 43q0 43 90 70q127 31 235 141q100 102 101 180q0 55 -66 55q-115 0 -282 -122q-201 -145 -201 -320q0 -66 160 -338q74 -125 73 -237q0 -139 -166 -226q-131 -68 -258 -67q-141 0 -219 71q-67 64 -67 158z" />
<glyph unicode="T" d="M156 72q0 98 129 352q66 131 268 475q174 297 221 391q-117 -12 -221 -38.5t-207 -53.5q-61 0 -61 49q0 37 67.5 66.5t147.5 40.5q233 66 516 94q197 20 370 20q55 0 83 -16t28 -39q0 -70 -270 -84q-109 -6 -324 -6q4 -6 4 -25q0 -35 -49 -106q-74 -109 -84 -127 q-86 -158 -172 -313q-119 -217 -182 -353q-94 -199 -129 -336q-10 -47 -29.5 -68.5t-44.5 -21.5t-43 29t-18 70z" />
<glyph unicode="U" horiz-adv-x="1128" d="M16 162q0 170 144 452q117 227 299 480q162 221 250 292q59 45 92 46q12 0 23.5 -9.5t9.5 -33.5q0 -39 -27 -66q-100 -100 -254 -317q-166 -233 -279 -449q-133 -252 -133 -371q0 -57 37 -57q63 0 273 254q88 109 407 524q260 340 367 447q43 43 80 43q49 0 49 -54 q0 -39 -31 -69q-127 -139 -331 -576.5t-204 -578.5q0 -16 3 -23l4 -35q0 -63 -52 -63q-31 0 -56 29.5t-25 85.5q0 78 49 215q37 100 118 278q41 90 138 281q-229 -299 -381 -494q-170 -219 -248 -297q-109 -109 -199 -108q-55 0 -89 46t-34 128z" />
<glyph unicode="V" horiz-adv-x="903" d="M162 117q0 236 53 477q41 190 123 416q63 164 129 329q12 43 45 69t66 26q43 0 43 -41q0 -20 -9 -39q-84 -190 -137 -336q-86 -233 -137 -449q-63 -270 -64 -489q109 184 220 369q170 283 305 487q176 268 297 403q63 72 110 72q31 0 31 -39q0 -16 -6 -38.5t-37 -59.5 q-88 -111 -265 -369t-333 -504q-172 -272 -225 -385q-23 -51 -48.5 -74.5t-56.5 -23.5q-104 0 -104 199z" />
<glyph unicode="W" horiz-adv-x="1210" d="M47 14q0 70 29 205l37 168q88 311 235 666q158 381 213 381q51 0 51 -64q-6 -76 -100 -280q-152 -332 -188 -428q-111 -289 -146 -533q49 49 139 197q35 57 172 288q111 186 173 273q16 29 39.5 44t48.5 15q43 0 43 -43l-2 -16q-72 -184 -113 -360.5t-41 -299.5 q0 -51 8 -82q63 88 203 365q190 379 260 504q160 289 278 422q35 43 82 43q51 0 52 -35q0 -20 -21 -41q-119 -141 -274 -404q-117 -199 -267 -489q-125 -244 -200 -414q-63 -139 -154 -139q-47 0 -75.5 46t-28.5 142q0 72 37 252l28 135q-61 -76 -248 -401 q-121 -213 -213 -213q-57 0 -57 96z" />
<glyph unicode="X" horiz-adv-x="935" d="M-184 14q0 61 155 250q90 109 299 338q176 193 197 236q0 207 -14.5 350t-49.5 215q-10 18 -10 39q0 27 19.5 42t46.5 15q47 0 57 -47q25 -82 43 -195q27 -225 37 -305q150 145 244 236q176 168 305 248q29 18 45 18q43 0 43 -49q0 -51 -39 -82q-86 -70 -180 -152 q-84 -74 -205 -184l-213 -196q0 -139 38 -383t79 -484q0 -53 -62 -53q-51 0 -71 49q-27 84 -62 334t-35 424q-80 -80 -276 -307q-184 -213 -256 -308q-61 -84 -109 -83q-26 -1 -26 34z" />
<glyph unicode="Y" horiz-adv-x="886" d="M139 575q0 217 231.5 531.5t368.5 314.5q59 0 60 -49q0 -41 -74 -82q-139 -88 -260 -252q-100 -135 -159 -269q-50 -114 -49 -159q0 -8 1 -14q8 -20 31 -21q94 0 385 312q260 279 438 532q31 51 70 51q61 0 61 -69q0 -39 -33 -78q-211 -246 -458.5 -674t-331.5 -682 q-18 -59 -70 -59q-25 0 -40 15.5t-15 49.5q0 82 125 330t274 471q-109 -109 -217 -215q-131 -113 -239 -113q-45 0 -72 30.5t-27 98.5z" />
<glyph unicode="Z" horiz-adv-x="837" d="M-106 106q0 102 200 351q174 215 447 481q246 240 458 416q-217 -25 -434 -47q-53 0 -109.5 26.5t-56.5 55.5q0 18 15.5 31.5t36.5 13.5q8 0 51 -12.5t86 -12.5q82 0 276.5 35t243.5 35q55 0 78.5 -15.5t23.5 -42.5q0 -23 -16 -47t-33 -35q-346 -279 -690 -641 q-313 -332 -471 -569q102 0 331.5 84t282.5 84q35 0 55.5 -16.5t20.5 -38.5q0 -27 -26.5 -45.5t-83.5 -18.5q-289 -84 -576 -166q-49 0 -79.5 26.5t-30.5 67.5z" />
<glyph unicode="[" horiz-adv-x="823" d="M160 -174q0 106 104.5 424.5t241.5 648.5q150 358 268 553q29 43 74 43q14 0 54 -4t52 -4q23 0 78 22.5t84 22.5q18 0 31 -6q27 -14 27 -41q0 -74 -189 -103q-82 -12 -147 -12q-35 -96 -180.5 -432t-227.5 -555q-119 -324 -139 -496q111 94 203 95q55 0 55 -45 q0 -37 -43 -56q-150 -66 -215 -139q-35 -35 -68 -35q-63 0 -63 119z" />
<glyph unicode="\" horiz-adv-x="827" d="M453 1382q0 10 19.5 18.5t41.5 8.5q16 0 32.5 -12.5t16.5 -28.5q12 -170 27 -340q25 -319 51.5 -650t24.5 -337q0 -55 -62 -55q-53 0 -53 37z" />
<glyph unicode="]" horiz-adv-x="823" d="M-199 -211q0 74 189 102q82 12 147 13q35 96 180.5 432t227.5 555q119 324 139 495q-111 -94 -203 -94q-55 0 -55 45q0 37 43 56q150 66 215 139q35 35 68 35q63 0 63 -119q0 -106 -104.5 -424.5t-241.5 -648.5q-150 -358 -268 -553q-29 -43 -74 -43q-14 0 -54 4t-53 4 q-23 0 -78 -22.5t-83 -22.5q-18 0 -31 6q-27 14 -27 41z" />
<glyph unicode="^" horiz-adv-x="1024" d="M348 903q0 55 254 280.5t301 225.5q37 0 148.5 -218t111.5 -257q0 -33 -20.5 -48.5t-38.5 -13.5q-39 0 -131 210t-96 210q-12 0 -124 -103.5t-218 -203.5q-121 -109 -146 -108q-12 0 -26.5 8t-14.5 18z" />
<glyph unicode="_" horiz-adv-x="1007" d="M0 -129h1016v-129h-1016v129z" />
<glyph unicode="`" horiz-adv-x="532" d="M268 1077q0 25 16.5 36t30.5 11q23 0 39 -28q2 -4 119 -156q41 -53 41 -78q0 -29 -35 -28q-39 0 -104 90q-51 70 -84 108q-23 20 -23 45z" />
<glyph unicode="a" horiz-adv-x="565" d="M6 201q0 158 133 350q143 207 285 207q49 0 77.5 -21.5t28.5 -62.5q0 -31 -14 -62q12 -8 12 -28q0 -41 -63.5 -178.5t-63.5 -184.5q0 -68 49.5 -92.5t49.5 -65.5q0 -18 -16.5 -28t-43.5 -10q-49 0 -86 34q-45 43 -45 115q0 12 5 34.5t8 33.5q-102 -172 -209 -172 q-95 0 -107 131zM119 246q0 -41 26 -53q5 -2 10 -2q43 0 111 106l185 299q-14 53 -56 53q-72 0 -174 -154.5t-102 -248.5z" />
<glyph unicode="b" horiz-adv-x="595" d="M-33 94q8 57 99 234l213 397q141 270 237 485q33 72 70 106t67 34q23 0 35 -14.5t12 -35.5q0 -37 -206 -380l-156 -258q31 25 74 45t77 20q43 0 68 -24.5t25 -79.5q0 -160 -141.5 -354.5t-254.5 -194.5q-63 0 -106 55q-8 -31 -35 -55.5t-51 -24.5q-27 4 -27 45zM113 209 q31 -37 63 -37q72 0 184.5 142.5t112.5 244.5q0 66 -43 66t-115 -80q-41 -47 -106 -142q-49 -98 -96 -194z" />
<glyph unicode="c" horiz-adv-x="595" d="M10 205q0 186 160 379q150 180 264 180q66 0 66 -102q0 -72 -50.5 -144t-93.5 -72q-33 0 -32 31q0 16 59 92q29 37 29 56q0 27 -19 26q-51 0 -166 -155q-121 -164 -121 -254q0 -80 64 -80q55 0 129 55q82 61 152 170q23 43 57 43q27 0 31 -29q0 -78 -136 -202 q-145 -135 -258 -136q-74 0 -104.5 36t-30.5 106z" />
<glyph unicode="d" horiz-adv-x="565" d="M-8 236q0 160 112 323q125 180 273 180q51 0 74 -30l211 387q47 88 96 178q47 76 84 76q53 0 53 -58q0 -29 -29.5 -75t-58.5 -89q-84 -137 -145 -249q-98 -180 -158 -328q-76 -188 -76 -293q0 -76 39 -113q29 -29 29 -51q0 -35 -50 -35q-53 0 -91 52.5t-38 119.5l5 43 q-39 -100 -101 -155q-53 -49 -106 -49q-55 0 -89 48t-34 118zM94 268q0 -29 7.5 -44t27.5 -15q72 0 195 229q72 143 96 191l-55 8q-94 0 -182.5 -127t-88.5 -242z" />
<glyph unicode="e" horiz-adv-x="595" d="M-10 242q0 88 53 192q45 90 102 146q82 86 143.5 121.5t102.5 35.5q39 0 63.5 -24.5t24.5 -59.5q0 -66 -69 -157q-51 -70 -119 -125q-31 -31 -88 -60q-41 -20 -90 -37q0 -49 21.5 -72.5t60.5 -23.5q63 0 156 61.5t165 147.5q33 39 49 39q20 0 21 -29q0 -72 -150 -192 q-160 -129 -286 -129q-63 0 -111.5 48t-48.5 118zM129 387q68 0 158 78t90 131q0 25 -25 29q-33 0 -78 -45q-35 -33 -78.5 -91.5t-66.5 -101.5z" />
<glyph unicode="f" horiz-adv-x="548" d="M-150 -340q0 63 14.5 132t39.5 145q45 137 145 364q41 92 47 119q-8 -2 -20 -2q-33 0 -33 22q0 27 41 74t109 98q94 176 141 260q78 139 161 269.5t150 212.5q25 31 53.5 46t53.5 15q43 0 43 -41q0 -31 -37 -67q-90 -90 -213 -276.5t-207 -352.5q53 25 100 41 q74 25 129 24q47 0 81 -22.5t38 -54.5q0 -18 -25.5 -37t-48.5 -19q-8 0 -51 23q-23 12 -47 12q-39 0 -125 -27.5t-131 -68.5q74 -25 109 -109q29 -70 28 -164q0 -403 -164 -624q-125 -168 -260 -168q-49 0 -85 50t-36 126zM-49 -291q0 -45 16.5 -68.5t36.5 -23.5 q84 0 184 184q115 209 115 459q0 76 -18.5 127t-59.5 64q-59 -121 -166.5 -404t-107.5 -338z" />
<glyph unicode="g" horiz-adv-x="661" d="M-279 -414q0 104 129.5 237.5t342.5 239.5q33 49 45 74q20 41 20 72q-45 -49 -88 -72.5t-82 -23.5q-82 0 -82 98q0 129 158 344q168 227 303 227q49 0 77.5 -30.5t28.5 -75.5q0 -31 -9 -56.5t-32 -54.5q35 0 31 -18q-66 -102 -119 -191q-61 -100 -73 -178q102 78 180 176 q63 80 127 162q20 0 20 -29q0 -72 -108 -206q-127 -158 -299 -248q-70 -152 -129 -256q-86 -152 -158 -226q-92 -94 -182 -94q-101 0 -101 129zM-178 -383q0 -16 14 -28.5t33 -12.5q55 0 137 129q70 117 139 232q-72 0 -197.5 -124t-125.5 -196zM109 254q0 -47 36 -47 q37 0 84 45q55 51 125 168q-35 6 -35 16q33 37 71 81t61 95l6 21q0 33 -33 33q-57 0 -182 -154q-133 -164 -133 -258z" />
<glyph unicode="h" horiz-adv-x="677" d="M-29 104q0 47 70 205q57 127 113 230q150 270 317 645q78 174 139 174q55 0 56 -55q0 -37 -89.5 -191t-179.5 -307q-109 -188 -139 -273q96 96 182 148q72 43 117 43q49 0 49 -41q0 -12 -10 -37q-92 -145 -137 -217q-82 -133 -82 -174q0 -29 26 -29q43 0 80 39 q4 4 113 172q37 51 66 51q16 0 16 -18q0 -84 -109 -221q-121 -152 -231 -152q-37 0 -54.5 25.5t-17.5 68.5q0 72 47 176.5t123 213.5q-236 -184 -340 -443q-37 -88 -80 -88q-45 0 -45 55z" />
<glyph unicode="i" horiz-adv-x="290" d="M-33 129q0 102 94 283q80 154 181 282q10 12 25.5 24.5t33.5 12.5q33 -4 33 -39q0 -31 -27 -63q-55 -66 -143 -251t-101 -255q-12 -66 -50 -66h-5q-16 0 -28.5 22.5t-12.5 49.5zM365 975q0 47 49 100t86 53q45 0 45 -51q0 -49 -50.5 -101t-86.5 -52q-43 0 -43 51z" />
<glyph unicode="j" horiz-adv-x="483" d="M-530 -446q0 63 43 145t116 156q51 51 150.5 108t204.5 117q14 33 157 354q78 178 133 260q25 33 62 33q49 0 49 -41q0 -18 -14 -41l-103 -172q-68 -121 -139 -295q82 57 137 119q47 51 88 123q18 39 58 39q39 0 39 -35q0 -12 -15 -37q-41 -82 -139 -176 q-115 -113 -248 -178q-86 -197 -112 -250q-74 -147 -150 -229q-94 -102 -190 -103q-127 1 -127 103zM-428 -414q0 -37 41 -37q66 0 178.5 167t112.5 235q-115 -45 -228 -174q-104 -121 -104 -191zM412 961q4 43 54 97t83 54q45 0 45 -47q0 -51 -49 -104.5t-86 -53.5 q-47 1 -47 54z" />
<glyph unicode="k" horiz-adv-x="774" d="M-39 135l6 27q152 371 365 715q244 395 426 509q39 25 76 29q70 0 69 -94q0 -125 -143 -307q-176 -221 -502 -434l-80 -160q78 96 213 190.5t201 94.5q39 0 39 -39q0 -29 -86 -62q-68 -27 -109 -55q-37 -84 -56.5 -153.5t-19.5 -114.5q0 -53 19.5 -79t54.5 -26 q123 0 260 227q4 18 18.5 29.5t30.5 11.5q23 0 23 -24q0 -72 -121 -209q-135 -152 -250 -152q-61 0 -97 59.5t-36 147.5q0 35 4 76t8 78q-45 -45 -101 -131t-93 -160q-12 -20 -30.5 -32.5t-37.5 -12.5q-51 0 -51 51zM338 725q78 59 123 98q61 53 151 144q70 70 129.5 154.5 t59.5 125.5q0 27 -27 27q-74 0 -242 -238q-131 -184 -194 -311z" />
<glyph unicode="l" horiz-adv-x="466" d="M23 190q0 27 10 68q104 356 319 711q201 330 357 434q47 29 77 29q33 0 51.5 -26t18.5 -67q0 -160 -231 -458q-209 -270 -432 -445q-66 -143 -66 -192q0 -37 18 -37q35 0 103.5 74.5t89.5 138.5q18 41 45 41q14 0 25.5 -11.5t11.5 -31.5q0 -74 -127 -201t-195 -127 q-75 0 -75 100zM291 645q147 109 309 342q156 223 156 309q0 29 -23 29q-51 0 -217 -249t-225 -431z" />
<glyph unicode="m" horiz-adv-x="774" d="M-49 96q25 152 144.5 382.5t178.5 230.5q43 0 43 -25q0 -16 -63 -119q-45 -70 -61 -114q84 76 169 153q70 57 121 58q41 0 41 -25t-47 -86q-53 -70 -57 -84q39 29 125 106q133 121 196 121q31 0 43.5 -10t12.5 -29q-96 -129 -168 -233q-80 -117 -80 -201q0 -39 39 -88 q20 -27 20 -39q0 -25 -18.5 -43t-42.5 -18q-39 0 -71 58.5t-32 125.5q0 57 24 120.5t81 145.5q-127 -104 -203 -227q-109 -176 -137 -176q-35 0 -35 45q0 57 51 170q45 100 97 172q-90 -55 -166 -168q-68 -102 -107 -219q-11 -45 -47 -45h-6q-45 0 -45 61z" />
<glyph unicode="n" horiz-adv-x="548" d="M-31 117q0 45 68 176q33 63 76 143q141 258 178 258q45 0 45 -37q0 -31 -39 -96q-29 -47 -55 -94q14 14 120 115q117 113 187 112q49 0 53 -26q0 -25 -39 -80q-121 -170 -127 -185q-33 -66 -55 -127q-29 -82 -29 -137q0 -37 13 -63q27 -55 26 -72q0 -41 -37 -41t-71.5 49 t-34.5 117q0 76 33 178q25 80 57 144q-94 -66 -168 -179q-125 -193 -170 -192q-35 0 -31 37z" />
<glyph unicode="o" horiz-adv-x="499" d="M2 201q0 172 133 364q143 209 301 209q39 0 57.5 -28.5t18.5 -75.5q0 -158 -135 -377q-141 -229 -264 -230q-55 0 -83 36t-28 102zM104 262q0 -76 50 -76q39 0 83 47.5t70 137.5q-33 0 -28 18q0 20 38 70q61 78 70 90q23 37 27 72q0 41 -37 41q-55 0 -164 -151t-109 -249 z" />
<glyph unicode="p" horiz-adv-x="565" d="M-295 -510q0 74 86 274q53 125 168 353q51 102 104 205q115 223 232 446q41 70 76 70q45 0 45 -33q0 -25 -27 -74q-12 -25 -51 -86q82 66 151 66q90 0 91 -111q0 -121 -138 -311q-154 -213 -295 -213q-53 0 -84 37q-111 -225 -192.5 -444.5t-132.5 -219.5q-33 0 -33 41z M96 193q23 -23 58 -23q90 0 200.5 152.5t110.5 244.5q0 45 -29 45q-63 0 -150.5 -107t-189.5 -312z" />
<glyph unicode="q" horiz-adv-x="548" d="M-4 -559q0 59 49 194q37 100 111 271q59 135 118 272q-49 -59 -95 -89t-79 -30q-39 0 -61.5 35t-22.5 94q0 180 164 383q158 195 271 195q41 0 67.5 -24.5t26.5 -61.5q0 -27 -13 -51q45 -8 46 -37q0 -25 -29 -77t-33 -64q-119 -252 -211 -461q-125 -283 -176 -441 l-25 -98q-23 -63 -71 -63q-37 0 -37 53zM127 240q0 -55 37 -56q31 0 72 41q51 51 102 146q-10 8 -10 20q2 18 51 73.5t57 84.5l6 59q0 53 -30 54q-49 0 -164 -156q-121 -166 -121 -266z" />
<glyph unicode="r" horiz-adv-x="661" d="M-86 66q0 82 152.5 362.5t224.5 280.5q27 0 31 -19q0 -18 -82 -135q-45 -63 -62 -104l193 172q121 102 166 102q41 0 41 -27q0 -25 -29 -53q-59 -51 -87 -86t-24 -53q2 -20 33 -21q35 0 75 17.5t66 46.5q25 20 39 20q29 4 29 -30q0 -43 -95.5 -105.5t-164.5 -62.5 q-47 0 -74 22.5t-27 73.5q0 20 3 33q-88 -88 -172 -205q-90 -125 -101 -182q-12 -41 -37.5 -64.5t-54.5 -23.5q-43 0 -43 41z" />
<glyph unicode="s" horiz-adv-x="548" d="M-37 229q0 68 31 124.5t74 56.5q23 0 22 -21q0 -16 -10 -35q-27 -43 -27 -82q0 -53 29 -98t63 -45q92 0 93 76q0 39 -20.5 85t-55.5 97q-31 59 -31 115q0 117 106.5 203t229.5 86q74 0 112.5 -33t38.5 -84q0 -76 -69 -137q-78 -70 -195 -70q-27 0 -44 11t-15 28 q0 31 76 43q59 6 94 36.5t35 65.5q0 45 -58 45q-78 0 -142 -56t-64 -128q0 -37 46 -135t46 -182q0 -74 -43 -118t-140 -44q-90 0 -136 56t-46 140z" />
<glyph unicode="t" horiz-adv-x="532" d="M47 217q0 98 72 260q53 119 123 232q-43 -16 -66 -17q-47 0 -47 49q0 39 58.5 53.5t119.5 28.5q102 166 153.5 224.5t92.5 58.5h5q25 0 26 -37q0 -33 -43 -92q-63 -88 -74 -107q49 12 90 20.5t76 8.5q61 0 61 -29q8 -55 -86 -67q-164 -23 -221 -45q-111 -203 -170 -355 q-49 -123 -49 -180q0 -45 35 -45q41 0 107.5 68.5t109.5 156.5q16 37 41 37q33 4 33 -37q0 -86 -114 -207.5t-208 -121.5q-51 0 -88 38.5t-37 104.5z" />
<glyph unicode="u" horiz-adv-x="565" d="M-14 203q0 113 107.5 286t180.5 173q47 0 48 -23q0 -20 -84 -131q-96 -127 -125 -217q-12 -43 -13 -66q0 -31 15 -30q35 0 112 102q86 115 144 252q23 51 46 75.5t42 24.5q47 0 47 -65q0 -33 -23 -68q-51 -78 -72.5 -139.5t-21.5 -112.5q0 -43 17.5 -74.5t44.5 -44.5 q55 -27 55 -63q0 -33 -70 -33q-66 0 -106.5 45t-40.5 117l2 31q-61 -84 -110.5 -123t-90.5 -39q-43 0 -73.5 33t-30.5 90z" />
<glyph unicode="v" horiz-adv-x="595" d="M-33 213q0 80 80 231l115 218q10 41 45 40q41 0 41 -43q0 -39 -86 -206.5t-86 -212.5q0 -29 20 -31q39 0 107.5 83t103.5 175l-6 37q0 90 49 155q43 57 88 58q41 0 41 -58q0 -63 -76 -192q16 -10 37 -10q33 0 70 26.5t78 55.5q31 0 30 -45q0 -57 -60 -98.5t-122 -41.5 q-39 0 -82 17q-51 -104 -145 -199q-92 -93 -147 -93q-7 0 -13 1q-39 8 -60.5 45t-21.5 88z" />
<glyph unicode="w" horiz-adv-x="823" d="M-6 160q0 92 110 289q119 211 201 210q49 0 49 -36q0 -14 -4 -23q-10 -23 -43 -51q-45 -45 -114 -146q-76 -109 -76 -145q0 -16 12 -16q3 -1 7 -1q48 0 159 132l156 192q51 59 98 60q39 0 39 -37q0 -20 -23 -56q-45 -66 -88 -153q-51 -106 -51 -154q0 -33 25 -32 q37 0 140 167.5t103 235.5q6 57 32 93t54 40q47 0 47 -70q0 -102 -147 -337q-162 -258 -277 -259q-90 0 -90 99q0 78 58 192q-184 -274 -308 -274q-69 0 -69 80z" />
<glyph unicode="x" horiz-adv-x="548" d="M-115 82q0 47 135 182q90 88 125 123q0 172 3.5 247t44.5 75q57 0 57 -76q0 -18 -4 -70.5t-4 -62.5q20 27 55 63q88 92 108.5 119t53.5 27q39 0 39 -33q0 -27 -150 -180q-82 -84 -106 -125q-4 -27 -7.5 -46.5t-3.5 -45.5q0 -72 37 -72q33 0 85.5 56t97.5 140q23 33 51 33 q27 0 28 -26q8 -49 -113.5 -198t-191.5 -149q-43 0 -61.5 62.5t-18.5 148.5q-59 -80 -125 -147q-76 -78 -97 -78h-1q-23 4 -31 12.5t-6 20.5z" />
<glyph unicode="y" horiz-adv-x="724" d="M-258 -387q0 121 160 260q150 129 356 207q35 63 72 129q49 90 73 162q-78 -115 -178 -195t-159 -80q-31 0 -48.5 30t-17.5 67q0 102 147 290q141 180 185 181q35 0 35 -46q0 -20 -124 -166.5t-124 -199.5q0 -23 18 -23q39 0 150 119l196 221q109 121 138 121 q53 0 53 -53q0 -18 -60 -123q-154 -270 -178 -336q84 59 136.5 111.5t89.5 113.5q27 51 55 52q16 0 24.5 -11.5t8.5 -31.5q0 -53 -132 -179q-143 -137 -264 -184q-111 -311 -252 -477q-117 -137 -215 -137q-68 0 -106.5 51t-38.5 127zM-145 -371q0 -80 61 -80q37 0 84 48 q61 61 123.5 192t85.5 178q-154 -76 -262 -192q-92 -99 -92 -146z" />
<glyph unicode="z" horiz-adv-x="466" d="M-70 111q0 94 166 266q78 80 275 252q-43 -6 -99.5 -13.5t-78.5 -7.5q-96 0 -97 70q0 18 13.5 25.5t40.5 7.5q76 0 148.5 3t172.5 9q70 0 70 -45q0 -27 -102.5 -123t-202.5 -190q-119 -113 -140 -156q74 23 152 22q53 0 88 -13t35 -40q0 -35 -13.5 -48t-42.5 -13 q-6 0 -56 7t-77 7q-39 0 -135 -43q-47 -20 -76 -20q-41 0 -41 43z" />
<glyph unicode="{" horiz-adv-x="903" d="M258 629q0 27 250 137q131 57 170 88q76 53 191.5 255t209.5 290q158 145 385 145q49 0 75 -9t26 -36q0 -31 -17.5 -42t-50.5 -11h-35q-18 0 -37 2q-43 0 -84 -9t-84 -36q-143 -86 -229 -240q-147 -262 -158 -276q-47 -59 -187 -146.5t-232 -111.5q68 -41 101.5 -108.5 t33.5 -143.5q0 -72 -49 -176q-57 -121 -113 -240q0 -57 44 -107.5t95 -50.5q20 0 42 5.5t48 11.5q35 0 35 -23q0 -20 -35 -45.5t-73 -25.5q-123 0 -191 43q-82 53 -82 168q0 68 83 223t83 217q0 70 -107.5 142.5t-107.5 109.5z" />
<glyph unicode="|" horiz-adv-x="352" d="M117 8q0 23 90 379q37 145 168 649q45 172 90 346q6 33 31.5 52.5t54.5 19.5q12 0 25.5 -15.5t13.5 -33.5q-47 -180 -92 -358q-86 -336 -170 -670l-95 -369q-8 -31 -59 -31q-23 0 -40 8.5t-17 22.5z" />
<glyph unicode="}" horiz-adv-x="903" d="M-406 -209q0 31 17.5 42t50.5 11h35q18 0 37 -2q43 0 84 9.5t84 35.5q143 86 229 240q147 262 158 276q47 59 187 146.5t233 112.5q-68 41 -102 108.5t-34 142.5q0 72 52.5 183.5t109.5 232.5q0 57 -44 107.5t-95 50.5q-20 0 -51 -8.5t-39 -8.5q-35 0 -35 23q0 20 35 46 t74 26q123 0 190 -43q82 -53 82 -168q0 -68 -83 -223.5t-83 -217.5q0 -70 107.5 -142.5t107.5 -108.5q0 -27 -250 -138q-131 -57 -170 -88q-76 -53 -188 -250q-119 -207 -213 -295q-158 -145 -385 -145q-49 0 -75 9t-26 36z" />
<glyph unicode="~" horiz-adv-x="1130" d="M268 711q0 57 141.5 153.5t233.5 96.5q39 0 150.5 -103.5t167.5 -103.5q90 0 160.5 121.5t113.5 121.5q27 0 27 -49q0 -94 -93 -188q-104 -106 -235 -107q-102 0 -187 101.5t-139 101.5q-27 0 -141.5 -90t-157.5 -90q-41 0 -41 35z" />
<glyph unicode="&#xa1;" horiz-adv-x="565" d="M-45 -299q0 41 25 82l532 903q14 31 31 64q29 49 65 49q59 0 60 -49q0 -39 -43 -113l-533 -903l-29 -45q-25 -35 -51 -35q-57 0 -57 47zM655 954q0 68 29 114t78 46q53 0 53 -57q0 -43 -35 -109.5t-67 -66.5q-58 -1 -58 73z" />
<glyph unicode="&#xa2;" horiz-adv-x="661" d="M27 389q0 125 110 273q141 190 379 241q27 68 41 90.5t39 22.5q47 0 43 -27q0 -14 -8 -29.5t-51 -72.5q74 -37 73 -125q0 -61 -53 -122.5t-92 -61.5q-31 0 -31 28q0 25 23 39q68 51 67 111q0 35 -35 35q-27 0 -139 -201q-16 -29 -135 -252q72 0 151.5 38t139.5 107 q27 37 51 33q39 0 39 -41q0 -63 -146.5 -150t-242.5 -87q-29 0 -41 4q-39 -82 -78 -162q-35 -63 -68 -64q-23 6 -22 31q0 33 43 113l45 82q-102 41 -102 147zM145 414q0 -59 48 -60q68 135 133 248q78 133 110 189q-111 -43 -205 -173q-86 -118 -86 -204z" />
<glyph unicode="&#xa3;" horiz-adv-x="983" d="M-68 18q0 53 68 78q100 35 201 174q90 125 153 295q-6 0 -82 -10q-31 -4 -57 -4q-33 0 -39 2q-31 8 -31 43q0 41 24 53.5t75 12.5h61q37 0 60.5 3t54.5 13q258 518 473 518q59 0 97 -16.5t38 -40.5q0 -43 -67 -43l-37 4q-125 0 -238 -150q-49 -66 -137 -241q53 6 143 28 q41 10 60 11q39 0 70.5 -19.5t31.5 -42.5q0 -25 -24.5 -41t-55.5 -16q-10 0 -30.5 4t-32.5 4q-39 0 -95.5 -11.5t-132.5 -29.5q-12 -78 -82.5 -214t-142.5 -220q6 2 164 39q119 29 184 28q106 0 107 -55q0 -59 -111 -59q-137 0 -330 -62q-262 -84 -272 -86q-31 -6 -49.5 9 t-18.5 42z" />
<glyph unicode="&#xa4;" horiz-adv-x="997" d="M113 76l4 18q0 14 49 35l72 59q-23 49 -23 111q0 31 8 81t19 103q20 80 60 149.5t91 119.5l-61 84q-23 29 -23 49l4 18q16 31 58 31q41 0 41 -53l41 -72q70 43 139.5 66.5t136.5 23.5q72 0 124 -21.5t87 -68.5l88 72q10 29 19.5 37t29.5 8q14 0 31.5 -19.5t17.5 -34.5 q-6 -37 -53 -36l-106 -84q35 -63 34 -158q0 -59 -12 -121q-51 -168 -158 -268l46 -58q23 -35 22 -53q-8 -45 -49 -45t-41 57l-35 56q-66 -59 -137.5 -90t-140.5 -31q-74 0 -131.5 21.5t-81.5 66.5l-72 -39q-14 -29 -26.5 -37t-32.5 -8q-12 0 -25.5 9.5t-13.5 21.5zM299 348 q0 -96 43 -155q51 -72 154 -72q147 0 272 121q113 111 154 264l8 88q0 100 -47 166q-55 76 -154 76q-164 0 -278 -117q-98 -100 -134 -250q-8 -35 -13 -63.5t-5 -57.5z" />
<glyph unicode="&#xa5;" horiz-adv-x="886" d="M-16 291q0 25 29.5 28t72.5 3h25q66 0 108.5 5t102.5 27l32 49q-2 0 -98 -10q-39 -4 -72 -4q-43 0 -65.5 10.5t-22.5 36.5q0 33 19.5 40t68.5 7q43 -2 68 -2q49 0 94 7.5t90 27.5q0 12 6.5 21.5t24.5 27.5q0 137 -18.5 286.5t-45.5 229.5q-6 16 -6 31q0 39 41 39t62 -39 q23 -55 45 -174t35 -244q123 150 245 301q190 219 254 219q23 0 37 -18t14 -43q0 -29 -18 -41q-72 -57 -168 -160q-53 -55 -177 -201.5t-171 -201.5q14 2 41 6t39 4q61 0 96 -15.5t35 -43.5q0 -37 -53 -37h-39q-20 0 -43 2q-51 0 -83 -6t-73 -23l-33 -49h45q23 0 45 2 q51 0 78 -10t27 -41q0 -41 -45 -41q-10 0 -47 2t-66 2q-41 0 -117 -10q-70 -121 -139 -240q-98 -154 -149 -153q-45 0 -45 45q0 33 56 128t132 187q-49 0 -103.5 -9t-113.5 -20q-57 1 -57 62z" />
<glyph unicode="&#xa7;" horiz-adv-x="1019" d="M94 170q0 51 19.5 86t48.5 35q31 0 31 -53q-14 -37 -15 -64q0 -70 66.5 -104.5t171.5 -34.5q156 0 342 145.5t186 257.5q0 59 -43 90t-119 31q-109 -27 -211 -45t-200 -18q-66 0 -113 32.5t-47 87.5q0 90 137 261q0 8 -4 26.5t-4 26.5q0 231 195 379q172 131 391 131 q78 0 179 -62.5t101 -109.5q0 -23 -12 -35t-47 -12q-51 59 -107 100q-63 47 -151 47q-154 0 -306.5 -136t-152.5 -265q0 -82 133 -82q41 0 103 18q150 45 237 45q109 0 171.5 -48t62.5 -136q0 -98 -117 -246q4 -12 4 -53q0 -215 -236 -373q-211 -141 -430 -141 q-115 0 -189.5 57.5t-74.5 161.5zM309 657q0 -80 137 -79q53 0 190.5 28.5t203.5 28.5q84 0 139 -49q31 35 49.5 74.5t18.5 87.5q0 61 -44.5 99t-117.5 38q-31 0 -185 -47q-80 -25 -141 -25q-39 0 -88 6t-59 12q-51 -39 -77 -84t-26 -90z" />
<glyph unicode="&#xa8;" horiz-adv-x="694" d="M145 965q0 47 53.5 98t88.5 51q41 0 41 -45q0 -37 -53.5 -93t-88.5 -56q-41 0 -41 45zM369 963q0 47 53 98t88 51q41 0 41 -45q0 -37 -53.5 -93t-87.5 -56q-41 0 -41 45z" />
<glyph unicode="&#xa9;" horiz-adv-x="1515" d="M129 629q0 336 198.5 546.5t495.5 210.5q279 0 498 -194q244 -215 244 -547q0 -324 -242 -514q-209 -164 -485 -164q-270 0 -476 166q-233 189 -233 496zM242 629q0 -279 211 -434q178 -131 417 -132q219 0 394 158q188 172 188 424q0 274 -168 455q-176 190 -461 190 q-258 0 -419.5 -180t-161.5 -481zM494 414q0 55 19 122.5t65 149.5q66 139 200 279q150 154 244 153q47 0 79 -35.5t32 -87.5q0 -61 -37 -128.5t-103 -135.5q-31 -29 -65 -29q-55 0 -62 56q0 20 9.5 37.5t31.5 33.5q59 45 91 92.5t32 79.5l-2 7q-66 0 -186 -150 q-98 -123 -148 -217q-66 -137 -65 -211q0 -68 45 -68t107.5 52.5t117.5 142.5q14 23 38 35t36 10q35 0 35 -37q0 -23 -11 -41q-72 -135 -172 -211q-92 -70 -178 -69q-70 0 -111.5 42t-41.5 128z" />
<glyph unicode="&#xaa;" horiz-adv-x="354" d="M307 903v49h338v-49h-338zM352 1116q0 92 79 205t161 113q31 0 50.5 -15.5t19.5 -42.5l-7 -30l4 -19q0 -20 -34.5 -96t-34.5 -103q0 -37 26.5 -51t26.5 -37q0 -31 -45 -30q-41 0 -60.5 27.5t-19.5 64.5l6 39l19 -8q-57 -98 -123 -99q-68 0 -68 82zM434 1141q0 -16 6 -19 q25 -6 60 49q47 82 94 166q-6 16 -19 17q-37 0 -89 -81t-52 -132z" />
<glyph unicode="&#xab;" horiz-adv-x="595" d="M86 444q0 43 68.5 122t109.5 79q59 0 60 -43q0 -23 -57.5 -74t-57.5 -61q0 -23 35 -88q18 -35 18 -55q0 -25 -16.5 -41.5t-38.5 -16.5q-33 0 -88 90q-33 53 -33 88zM324 440q0 43 68.5 122t109.5 79q59 0 59 -43q0 -23 -57.5 -74t-57.5 -61q0 -23 35 -88q18 -35 19 -56 q0 -25 -16.5 -41t-39.5 -16q-33 0 -88 90q-32 53 -32 88z" />
<glyph unicode="&#xac;" horiz-adv-x="1087" d="M227 571q0 31 17.5 56.5t46.5 25.5h796q8 0 21.5 -19.5t13.5 -33.5q-23 -121 -39 -180q-51 -182 -108 -182q-16 0 -30.5 12t-14.5 33q0 29 39 151q12 41 41 121q-96 -4 -217 -8t-258 -4q-158 0 -233 5t-75 23z" />
<glyph unicode="&#xad;" horiz-adv-x="808" d="M283 555q0 23 26.5 55.5t57.5 32.5l397 41q18 0 27.5 -18.5t9.5 -44.5q-2 -23 -31 -46.5t-55 -23.5l-389 -41q-25 0 -34 15.5t-9 29.5z" />
<glyph unicode="&#xae;" horiz-adv-x="1515" d="M113 709q0 293 190 495q203 215 520 215q309 -27 500 -202q209 -193 209 -508q0 -322 -211 -523.5t-530 -201.5q-301 0 -496 223q-182 209 -182 502zM209 709q0 -268 188 -453q180 -176 410 -176q238 0 414 158q199 178 198 471q0 289 -207 465q-176 150 -389 149 q-244 0 -422 -166q-192 -178 -192 -448zM453 362q0 33 44 132.5t107 201.5l-6 41q0 29 13.5 46.5t50.5 17.5q37 59 73 121q2 -4 4 -7q35 23 35 25q-10 -2 -16 -2q-12 0 -29.5 19.5t-17.5 35.5q0 23 21.5 45.5t78.5 59.5q6 27 25.5 42t42.5 15q25 0 41 -18q51 14 94 14 q80 0 125 -61q35 -47 35 -109q0 -125 -129.5 -221t-290.5 -96q43 -98 63 -144q39 -80 68 -125q12 -20 12 -43q0 -31 -16.5 -47t-40.5 -16q-16 0 -30.5 8t-31.5 31q-25 41 -54.5 104.5t-53.5 122.5q-37 -78 -49 -106q-27 -59 -37.5 -89t-31 -45.5t-38.5 -15.5q-25 0 -43 18 t-18 45zM793 786q109 14 186.5 73t77.5 124q0 47 -56 47q-41 0 -100 -35q-10 -27 -43 -88q-22 -41 -65 -121z" />
<glyph unicode="&#xb2;" horiz-adv-x="407" d="M47 909q0 25 31 60q59 59 166 141q80 61 200 152q39 27 39 67q0 39 -51 39q-29 0 -65.5 -26.5t-75.5 -53.5q-45 0 -45 29q0 33 67 78q78 51 156 51q49 0 79 -32t30 -73q0 -61 -60 -114q-16 -16 -225 -170q-78 -57 -111 -96q29 8 72 16t72 8q84 0 84 -49q0 -41 -27 -41 q-2 0 -26.5 4t-51.5 4q-35 0 -69.5 -7t-92.5 -26q-23 -8 -43 -8q-53 0 -53 47z" />
<glyph unicode="&#xb3;" horiz-adv-x="372" d="M25 989q0 33 15 54.5t50 21.5q23 0 29 -10.5t6 -30.5q0 -37 4 -51.5t37 -14.5q53 0 106.5 76t38.5 117q-14 45 -41 41t-51 -8q-10 0 -20.5 14t-10.5 27q0 23 45 43q55 20 74 28q53 31 53 64q4 23 -30 22q-18 0 -63.5 -23.5t-57.5 -23.5q-33 0 -33 25q0 29 59.5 64.5 t118.5 35.5q43 0 72 -24.5t33 -67.5q0 -76 -107 -135q45 -33 45 -94q0 -92 -86 -180.5t-170 -88.5q-47 0 -81.5 31t-34.5 88z" />
<glyph unicode="&#xb4;" horiz-adv-x="532" d="M254 834q0 51 90 153.5t127 102.5q43 0 43 -35q0 -18 -14 -39q-88 -113 -115 -144q-63 -70 -98 -69q-33 0 -33 31z" />
<glyph unicode="&#xb7;" horiz-adv-x="612" d="M170 436q0 47 33 109.5t67 62.5q53 0 54 -80q0 -49 -38 -103t-73 -50q-43 0 -43 61z" />
<glyph unicode="&#x2219;" horiz-adv-x="612" d="M170 436q0 47 33 109.5t67 62.5q53 0 54 -80q0 -49 -38 -103t-73 -50q-43 0 -43 61z" />
<glyph unicode="&#xb8;" horiz-adv-x="321" d="M-80 -403q0 18 55.5 73.5t57.5 75.5q4 33 -46 46t-50 30q0 18 69 94q49 53 74 84h49q-37 -37 -51.5 -61.5t-14.5 -51.5q51 -27 52 -77q0 -66 -69 -145t-109 -79q-17 1 -17 11z" />
<glyph unicode="&#xb9;" horiz-adv-x="274" d="M29 897q-2 16 15 54t26 59q27 53 80 151q47 84 79 144q-78 -47 -106 -50q-27 0 -35 31q-4 18 31 39q51 29 104 59q37 31 70 46.5t51 15.5q39 0 39 -33q0 -18 -10 -35q-35 -57 -119 -209q-92 -168 -120 -222t-32 -60q-18 -27 -34 -27q-39 0 -39 37z" />
<glyph unicode="&#xba;" horiz-adv-x="337" d="M258 887v65h338v-65h-338zM356 1096q0 98 79 211.5t169 113.5q27 0 40 -17.5t13 -49.5q0 -90 -79.5 -216t-151.5 -126q-33 0 -51.5 22.5t-18.5 61.5zM432 1130q0 -31 17 -30q18 0 38.5 20.5t32.5 61.5q-18 6 -12 22q2 12 22 39q33 43 42.5 56.5t9.5 27.5q0 12 -11 12 q-29 0 -84 -80t-55 -129z" />
<glyph unicode="&#xbb;" horiz-adv-x="595" d="M63 305q0 23 57.5 74t57.5 61q0 23 -35 88q-18 35 -18 56q0 25 16.5 41t38.5 16q33 0 88 -90q33 -53 33 -88q0 -43 -68.5 -122t-109.5 -79q-60 0 -60 43zM301 301q0 23 57.5 74t57.5 61q0 23 -35 88q-18 35 -19 56q0 25 16.5 41t39.5 16q33 0 88 -90q33 -53 33 -88 q0 -43 -69 -122t-110 -79q-59 0 -59 43z" />
<glyph unicode="&#xbc;" horiz-adv-x="1187" d="M111 897q-2 16 15 54t26 59q27 53 80 151q47 84 79 144q-78 -47 -106 -50q-27 0 -35 31q-4 18 31 39q51 29 104 59q37 31 70 46.5t51 15.5q39 0 39 -33q0 -18 -10 -35q-35 -57 -119 -209q-92 -168 -120 -222t-32 -60q-18 -27 -34 -27q-39 0 -39 37zM72 41q-2 35 39 76 q123 211 233 385q63 100 236 356q76 113 202 299q55 74 113 148q90 106 135 106q27 0 44.5 -23.5t17.5 -41.5q0 -12 -147.5 -184.5t-362.5 -510.5q-168 -262 -342 -567q-20 -37 -41 -69.5t-45 -34.5q-41 0 -61.5 16t-20.5 45zM664 246q0 59 169 214t236 155q20 0 35.5 -11.5 t15.5 -29.5q0 -23 -30.5 -70t-61.5 -92l-43 -80l29 2q31 0 44 -10t7 -35q-6 -27 -30.5 -35t-88.5 -8q-49 -84 -82 -190q-18 -57 -47 -58q-45 0 -45 45q0 39 37 121q16 35 35 72q-35 0 -82 -12.5t-61 -12.5q-37 0 -37 35zM791 308l98 12q20 41 47 90q4 8 47 78 q-88 -61 -192 -180z" />
<glyph unicode="&#xbd;" horiz-adv-x="1218" d="M610 80q0 25 31 60q59 59 166 141q80 61 200 152q39 27 39 67q0 39 -51 39q-29 0 -65.5 -26.5t-75.5 -53.5q-45 0 -45 29q0 33 67 78q78 51 156 51q49 0 79 -32t30 -73q0 -61 -60 -114q-16 -16 -225 -170q-78 -57 -111 -96q29 8 72 16t72 8q84 0 84 -49q0 -41 -27 -41 q-2 0 -26.5 4t-51.5 4q-35 0 -69.5 -7t-92.5 -26q-23 -8 -43 -8q-53 0 -53 47zM142 856q-2 16 15 54t26 59q27 53 80 151q47 84 79 144q-78 -47 -106 -50q-27 0 -35 31q-4 18 31 39q51 29 104 59q37 31 70 46.5t51 15.5q39 0 39 -33q0 -18 -10 -35q-35 -57 -119 -209 q-92 -168 -120 -222t-32 -60q-18 -27 -34 -27q-39 0 -39 37zM72 41q-2 35 39 76q123 211 233 385q63 100 236 356q76 113 202 299q55 74 113 148q90 106 135 106q27 0 44.5 -23.5t17.5 -41.5q0 -12 -147.5 -184.5t-362.5 -510.5q-168 -262 -342 -567q-20 -37 -41 -69.5 t-45 -34.5q-41 0 -61.5 16t-20.5 45z" />
<glyph unicode="&#xbe;" horiz-adv-x="1218" d="M86 928q0 33 15 54.5t50 21.5q23 0 29 -10.5t6 -30.5q0 -37 4 -51.5t37 -14.5q53 0 106.5 76t38.5 117q-14 45 -41 41t-51 -8q-10 0 -20.5 14t-10.5 27q0 23 45 43q55 20 74 28q53 31 53 64q4 23 -30 22q-18 0 -63.5 -23.5t-57.5 -23.5q-33 0 -33 25q0 29 59.5 64.5 t118.5 35.5q43 0 72 -24.5t33 -67.5q0 -76 -107 -135q45 -33 45 -94q0 -92 -86 -180.5t-170 -88.5q-47 0 -81.5 31t-34.5 88zM72 41q-2 35 39 76q123 211 233 385q63 100 236 356q76 113 202 299q55 74 113 148q90 106 135 106q27 0 44.5 -23.5t17.5 -41.5 q0 -12 -147.5 -184.5t-362.5 -510.5q-168 -262 -342 -567q-20 -37 -41 -69.5t-45 -34.5q-41 0 -61.5 16t-20.5 45zM643 235q0 59 169 214t236 155q20 0 35.5 -11.5t15.5 -29.5q0 -23 -30.5 -70t-61.5 -92l-43 -80l29 2q31 0 44 -10t7 -35q-6 -27 -30.5 -35t-88.5 -8 q-49 -84 -82 -190q-18 -57 -47 -58q-45 0 -45 45q0 39 37 121q16 35 35 72q-35 0 -82 -12.5t-61 -12.5q-37 0 -37 35zM770 297l98 12q20 41 47 90q4 8 47 78q-88 -61 -192 -180z" />
<glyph unicode="&#xbf;" horiz-adv-x="790" d="M49 -150q0 125 133 254q18 18 271 215q164 129 204 222q33 68 62 104q43 57 84 57t41 -45q0 -68 -68 -165q-57 -84 -166 -193q-168 -119 -270 -195q-193 -143 -193 -260q0 -43 26 -68.5t83 -25.5q109 0 215 82q109 92 219 182q16 0 28.5 -11t12.5 -36q0 -80 -166 -197.5 t-291 -117.5q-100 0 -162.5 54t-62.5 144zM786 989q0 63 31 111.5t78 48.5t47 -64q0 -41 -34 -103t-66 -64q-56 -1 -56 71z" />
<glyph unicode="&#xc0;" d="M-94 18q0 68 139 295q57 92 117 187q-63 -27 -99 -40.5t-59 -13.5q-37 -4 -37 37q0 49 125 101q98 39 199 78q186 283 414 536q238 266 319 266q57 0 57 -73q-8 -76 -98 -340q-61 -178 -80 -244l53 8q86 0 86 -47q0 -31 -43 -52.5t-129 -21.5q-74 -276 -96 -493t-65 -217 q-37 0 -52.5 37.5t-15.5 111.5q0 86 23 209q10 59 77 336l-403 -113q-125 -193 -230.5 -387t-170.5 -194q-31 -1 -31 34zM451 709l323 82q14 66 107 325q39 109 39 141q-76 -43 -246 -249q-147 -178 -223 -299zM790 1773q0 25 16.5 36t30.5 11q23 0 39 -28q2 -4 119 -156 q41 -53 41 -78q0 -29 -35 -28q-39 0 -104 90q-51 70 -84 108q-23 20 -23 45z" />
<glyph unicode="&#xc1;" d="M-94 18q0 68 139 295q57 92 117 187q-63 -27 -99 -40.5t-59 -13.5q-37 -4 -37 37q0 49 125 101q98 39 199 78q186 283 414 536q238 266 319 266q57 0 57 -73q-8 -76 -98 -340q-61 -178 -80 -244l53 8q86 0 86 -47q0 -31 -43 -52.5t-129 -21.5q-74 -276 -96 -493t-65 -217 q-37 0 -52.5 37.5t-15.5 111.5q0 86 23 209q10 59 77 336l-403 -113q-125 -193 -230.5 -387t-170.5 -194q-31 -1 -31 34zM451 709l323 82q14 66 107 325q39 109 39 141q-76 -43 -246 -249q-147 -178 -223 -299zM1032 1530q0 51 90 153.5t127 102.5q43 0 43 -35 q0 -18 -14 -39q-88 -113 -115 -144q-63 -70 -98 -69q-33 0 -33 31z" />
<glyph unicode="&#xc2;" d="M-94 18q0 68 139 295q57 92 117 187q-63 -27 -99 -40.5t-59 -13.5q-37 -4 -37 37q0 49 125 101q98 39 199 78q186 283 414 536q238 266 319 266q57 0 57 -73q-8 -76 -98 -340q-61 -178 -80 -244l53 8q86 0 86 -47q0 -31 -43 -52.5t-129 -21.5q-74 -276 -96 -493t-65 -217 q-37 0 -52.5 37.5t-15.5 111.5q0 86 23 209q10 59 77 336l-403 -113q-125 -193 -230.5 -387t-170.5 -194q-31 -1 -31 34zM451 709l323 82q14 66 107 325q39 109 39 141q-76 -43 -246 -249q-147 -178 -223 -299zM909 1591q0 39 53 82q63 51 144 52q33 0 84 -63.5t51 -108.5 t-47 -46q-23 0 -62.5 49.5t-58.5 55.5q-4 0 -70 -35q-35 -18 -53 -18q-41 -1 -41 32z" />
<glyph unicode="&#xc3;" d="M-94 18q0 68 139 295q57 92 117 187q-63 -27 -99 -40.5t-59 -13.5q-37 -4 -37 37q0 49 125 101q98 39 199 78q186 283 414 536q238 266 319 266q57 0 57 -73q-8 -76 -98 -340q-61 -178 -80 -244l53 8q86 0 86 -47q0 -31 -43 -52.5t-129 -21.5q-74 -276 -96 -493t-65 -217 q-37 0 -52.5 37.5t-15.5 111.5q0 86 23 209q10 59 77 336l-403 -113q-125 -193 -230.5 -387t-170.5 -194q-31 -1 -31 34zM451 709l323 82q14 66 107 325q39 109 39 141q-76 -43 -246 -249q-147 -178 -223 -299zM825 1635q0 49 32 76.5t73 27.5h22q18 -4 40 -8t120 -64 q49 -29 72 -28q18 2 56 33.5t52 31.5q20 0 21 -39q0 -47 -35 -87t-92 -40q-53 0 -115 48q-70 45 -86 55q-41 25 -61 24q-14 0 -29.5 -33.5t-38.5 -33.5q-31 0 -31 37z" />
<glyph unicode="&#xc4;" d="M-94 18q0 68 139 295q57 92 117 187q-63 -27 -99 -40.5t-59 -13.5q-37 -4 -37 37q0 49 125 101q98 39 199 78q186 283 414 536q238 266 319 266q57 0 57 -73q-8 -76 -98 -340q-61 -178 -80 -244l53 8q86 0 86 -47q0 -31 -43 -52.5t-129 -21.5q-74 -276 -96 -493t-65 -217 q-37 0 -52.5 37.5t-15.5 111.5q0 86 23 209q10 59 77 336l-403 -113q-125 -193 -230.5 -387t-170.5 -194q-31 -1 -31 34zM451 709l323 82q14 66 107 325q39 109 39 141q-76 -43 -246 -249q-147 -178 -223 -299zM893 1569q0 47 53.5 98t88.5 51q41 0 41 -45q0 -37 -53.5 -93 t-88.5 -56q-41 0 -41 45zM1117 1567q0 47 53 98t88 51q41 0 41 -45q0 -37 -53.5 -93t-87.5 -56q-41 0 -41 45z" />
<glyph unicode="&#xc5;" d="M-94 18q0 68 139 295q57 92 117 187q-63 -27 -99 -40.5t-59 -13.5q-37 -4 -37 37q0 49 125 101q98 39 199 78q186 283 414 536q238 266 319 266q57 0 57 -73q-8 -76 -98 -340q-61 -178 -80 -244l53 8q86 0 86 -47q0 -31 -43 -52.5t-129 -21.5q-74 -276 -96 -493t-65 -217 q-37 0 -52.5 37.5t-15.5 111.5q0 86 23 209q10 59 77 336l-403 -113q-125 -193 -230.5 -387t-170.5 -194q-31 -1 -31 34zM451 709l323 82q14 66 107 325q39 109 39 141q-76 -43 -246 -249q-147 -178 -223 -299zM1004 1605q0 29 13.5 59.5t43.5 71.5q39 51 81 77t81 26 q35 0 56.5 -19.5t21.5 -54.5q0 -57 -62 -125q-45 -49 -89 -73.5t-81 -24.5q-65 0 -65 63zM1076 1634q0 -25 24 -25q20 0 40 14.5t34 33.5q31 41 31 69q0 27 -23 27q-29 0 -72 -49q-34 -41 -34 -70z" />
<glyph unicode="&#xc6;" horiz-adv-x="1370" d="M-168 86q0 47 88 160q51 68 181 214t157 185q-35 0 -80 -4t-55 -4q-43 0 -43 41q0 57 84 63q195 14 207 17q59 51 157 141q12 10 193 176q127 115 182 166q-57 29 -57 49q-8 70 477 133q289 35 371 45q49 6 77.5 -11t32.5 -46q0 -25 -22.5 -41t-71.5 -16 q-106 0 -236.5 -16.5t-248.5 -30.5q20 -8 20 -33q0 -41 -115 -207q-96 -137 -131 -197q104 14 225.5 32t161.5 18q29 0 42.5 -10.5t13.5 -26.5q-4 -27 -31 -51.5t-57 -24.5l-418 -49q-43 -74 -125 -248t-149 -332q121 39 256 74q176 45 249 45q49 0 67.5 -16.5t18.5 -38.5 q0 -45 -303 -99q-170 -31 -225 -63q-84 -45 -135 -45q-63 0 -64 63q0 78 97 293q80 178 168 334q-94 -10 -190.5 -28.5t-180.5 -34.5q-236 -291 -469 -582q-16 -25 -34.5 -36t-39.5 -11q-45 0 -45 53zM565 791q141 20 162 24q78 16 127 39q35 59 184 285q59 88 74 118 q-47 -41 -167 -127t-191 -147q-113 -94 -189 -192z" />
<glyph unicode="&#xc7;" horiz-adv-x="903" d="M10 209q0 94 36 208.5t116 260.5q117 244 342 485q252 268 411 269q61 0 104.5 -49.5t43.5 -118.5q0 -98 -66.5 -216t-173.5 -225q-20 -20 -38.5 -28.5t-39.5 -8.5q-55 0 -55 52q0 20 12.5 40.5t38.5 41.5q119 90 187 196q59 92 59 160t-59 67q-88 0 -236 -143 q-115 -113 -252 -299q-121 -166 -166 -256q-63 -123 -95 -227.5t-32 -177.5q0 -88 37 -135.5t99 -47.5q98 0 215 90q129 100 243 289q20 27 43 43.5t39 16.5q12 0 13 -15q0 -20 -13 -45q-123 -229 -293 -360q-156 -121 -294 -121q-102 0 -164 63.5t-62 190.5zM84 -434 q0 18 55.5 73.5t57.5 75.5q4 33 -46 46t-50 30q0 18 69 94q49 53 74 84h49q-37 -37 -51.5 -61.5t-14.5 -51.5q51 -27 52 -77q0 -66 -69 -145t-109 -79q-17 1 -17 11z" />
<glyph unicode="&#xc8;" horiz-adv-x="854" d="M-29 113q0 12 13 49q76 205 185.5 430t217.5 391l143 213q33 53 50 94q-16 0 -30.5 16.5t-14.5 28.5q0 23 28.5 45.5t98.5 38.5q100 18 254.5 36t250.5 18q74 0 99 -19q16 -12 12 -33q0 -51 -102 -63q-37 -4 -95 -4q-70 0 -208 -16.5t-179 -30.5q29 0 29 -17 q0 -18 -123 -190q-86 -119 -149 -230l356 50q86 0 86 -46q0 -27 -47 -47t-137 -20t-185 -19q-98 -23 -137 -30q-123 -242 -166 -334q-70 -154 -92 -231q76 39 212 76.5t208 37.5q63 0 97 -9t34 -48q0 -20 -2 -25q-10 -23 -189 -41q-119 -12 -231 -71q-131 -59 -213 -60 q-74 1 -74 60zM749 1784q0 25 16.5 36t30.5 11q23 0 39 -28q2 -4 119 -156q41 -53 41 -78q0 -29 -35 -28q-39 0 -104 90q-51 70 -84 108q-23 20 -23 45z" />
<glyph unicode="&#xc9;" horiz-adv-x="854" d="M-29 113q0 12 13 49q76 205 185.5 430t217.5 391l143 213q33 53 50 94q-16 0 -30.5 16.5t-14.5 28.5q0 23 28.5 45.5t98.5 38.5q100 18 254.5 36t250.5 18q74 0 99 -19q16 -12 12 -33q0 -51 -102 -63q-37 -4 -95 -4q-70 0 -208 -16.5t-179 -30.5q29 0 29 -17 q0 -18 -123 -190q-86 -119 -149 -230l356 50q86 0 86 -46q0 -27 -47 -47t-137 -20t-185 -19q-98 -23 -137 -30q-123 -242 -166 -334q-70 -154 -92 -231q76 39 212 76.5t208 37.5q63 0 97 -9t34 -48q0 -20 -2 -25q-10 -23 -189 -41q-119 -12 -231 -71q-131 -59 -213 -60 q-74 1 -74 60zM930 1582q0 51 90 153.5t127 102.5q43 0 43 -35q0 -18 -14 -39q-88 -113 -115 -144q-63 -70 -98 -69q-33 0 -33 31z" />
<glyph unicode="&#xca;" horiz-adv-x="854" d="M-29 113q0 12 13 49q76 205 185.5 430t217.5 391l143 213q33 53 50 94q-16 0 -30.5 16.5t-14.5 28.5q0 23 28.5 45.5t98.5 38.5q100 18 254.5 36t250.5 18q74 0 99 -19q16 -12 12 -33q0 -51 -102 -63q-37 -4 -95 -4q-70 0 -208 -16.5t-179 -30.5q29 0 29 -17 q0 -18 -123 -190q-86 -119 -149 -230l356 50q86 0 86 -46q0 -27 -47 -47t-137 -20t-185 -19q-98 -23 -137 -30q-123 -242 -166 -334q-70 -154 -92 -231q76 39 212 76.5t208 37.5q63 0 97 -9t34 -48q0 -20 -2 -25q-10 -23 -189 -41q-119 -12 -231 -71q-131 -59 -213 -60 q-74 1 -74 60zM786 1652q0 39 53 82q63 51 144 52q33 0 84 -63.5t51 -108.5t-47 -46q-23 0 -62.5 49.5t-58.5 55.5q-4 0 -70 -35q-35 -18 -53 -18q-41 -1 -41 32z" />
<glyph unicode="&#xcb;" horiz-adv-x="854" d="M-29 113q0 12 13 49q76 205 185.5 430t217.5 391l143 213q33 53 50 94q-16 0 -30.5 16.5t-14.5 28.5q0 23 28.5 45.5t98.5 38.5q100 18 254.5 36t250.5 18q74 0 99 -19q16 -12 12 -33q0 -51 -102 -63q-37 -4 -95 -4q-70 0 -208 -16.5t-179 -30.5q29 0 29 -17 q0 -18 -123 -190q-86 -119 -149 -230l356 50q86 0 86 -46q0 -27 -47 -47t-137 -20t-185 -19q-98 -23 -137 -30q-123 -242 -166 -334q-70 -154 -92 -231q76 39 212 76.5t208 37.5q63 0 97 -9t34 -48q0 -20 -2 -25q-10 -23 -189 -41q-119 -12 -231 -71q-131 -59 -213 -60 q-74 1 -74 60zM811 1600q0 47 53.5 98t88.5 51q41 0 41 -45q0 -37 -53.5 -93t-88.5 -56q-41 0 -41 45zM1035 1598q0 47 53 98t88 51q41 0 41 -45q0 -37 -53.5 -93t-87.5 -56q-41 0 -41 45z" />
<glyph unicode="&#xcc;" horiz-adv-x="483" d="M-8 94l8 51q0 94 98 299q74 152 217 390q90 150 217 344q53 94 114 167.5t95 73.5q55 0 56 -43q0 -25 -15.5 -56.5t-40.5 -62.5q-156 -213 -313 -473q-190 -311 -266 -510q-25 -61 -39 -151t-74 -90q-57 0 -57 61zM493 1743q0 25 16.5 36t30.5 11q23 0 39 -28 q2 -4 119 -156q41 -53 41 -78q0 -29 -35 -28q-39 0 -104 90q-51 70 -84 108q-23 20 -23 45z" />
<glyph unicode="&#xcd;" horiz-adv-x="483" d="M-8 94l8 51q0 94 98 299q74 152 217 390q90 150 217 344q53 94 114 167.5t95 73.5q55 0 56 -43q0 -25 -15.5 -56.5t-40.5 -62.5q-156 -213 -313 -473q-190 -311 -266 -510q-25 -61 -39 -151t-74 -90q-57 0 -57 61zM766 1510q0 51 90 153.5t127 102.5q43 0 43 -35 q0 -18 -14 -39q-88 -113 -115 -144q-63 -70 -98 -69q-33 0 -33 31z" />
<glyph unicode="&#xce;" horiz-adv-x="483" d="M-8 94l8 51q0 94 98 299q74 152 217 390q90 150 217 344q53 94 114 167.5t95 73.5q55 0 56 -43q0 -25 -15.5 -56.5t-40.5 -62.5q-156 -213 -313 -473q-190 -311 -266 -510q-25 -61 -39 -151t-74 -90q-57 0 -57 61zM622 1529q0 39 53 82q63 51 144 52q33 0 84 -63.5 t51 -108.5t-47 -46q-23 0 -62.5 49.5t-58.5 55.5q-4 0 -70 -35q-35 -18 -53 -18q-41 -1 -41 32z" />
<glyph unicode="&#xcf;" horiz-adv-x="483" d="M-8 94l8 51q0 94 98 299q74 152 217 390q90 150 217 344q53 94 114 167.5t95 73.5q55 0 56 -43q0 -25 -15.5 -56.5t-40.5 -62.5q-156 -213 -313 -473q-190 -311 -266 -510q-25 -61 -39 -151t-74 -90q-57 0 -57 61zM606 1518q0 47 53.5 98t88.5 51q41 0 41 -45 q0 -37 -53.5 -93t-88.5 -56q-41 0 -41 45zM830 1516q0 47 53 98t88 51q41 0 41 -45q0 -37 -53.5 -93t-87.5 -56q-41 0 -41 45z" />
<glyph unicode="&#xd1;" horiz-adv-x="1081" d="M-37 18q0 72 84 250l66 135q113 225 299 525q195 311 297 426q55 63 94 63q43 0 43 -45q0 -18 -8 -33q-84 -180 -144 -573q-49 -328 -49 -524q20 47 96 209q63 133 97 211q63 135 110 229q57 117 128 246t136.5 236.5t120.5 107.5h3q30 0 30 -41q0 -29 -82 -172 q-16 -29 -174 -295q-115 -195 -158 -279q-49 -92 -104 -229l-139 -352q-27 -53 -63 -87t-68 -34q-27 0 -44.5 28.5t-17.5 92.5q0 233 46 498.5t100 533.5q-176 -272 -310 -512q-139 -252 -207 -424q-25 -68 -49 -133q-45 -109 -96 -109q-37 6 -37 51zM825 1614q0 49 32 76.5 t73 27.5h22q18 -4 40 -8t120 -64q49 -29 72 -28q18 2 56 33.5t52 31.5q20 0 21 -39q0 -47 -35 -87t-92 -40q-53 0 -115 48q-70 45 -86 55q-41 25 -61 24q-14 0 -29.5 -33.5t-38.5 -33.5q-31 0 -31 37z" />
<glyph unicode="&#xd2;" d="M14 238q0 229 230 569q209 309 450 500q-39 0 -92 -25q-127 -57 -137 -57q-14 0 -24.5 10t-10.5 27q0 55 123 108t256 53q147 0 226 -76.5t79 -220.5q0 -207 -174 -489q-158 -256 -382 -454.5t-363 -198.5q-82 0 -131.5 60.5t-49.5 193.5zM152 240q0 -127 90 -127 q82 0 262 176q188 184 325 407q160 260 160 445q0 78 -31 121q-39 55 -129 55q-29 0 -46 -4t-25 -6q23 -4 18 -21q0 -31 -84 -119l-143 -151q-172 -188 -284.5 -412.5t-112.5 -363.5zM596 1722q0 25 16.5 36t30.5 11q23 0 39 -28q2 -4 119 -156q41 -53 41 -78q0 -29 -35 -28 q-39 0 -104 90q-51 70 -84 108q-23 20 -23 45z" />
<glyph unicode="&#xd3;" d="M14 238q0 229 230 569q209 309 450 500q-39 0 -92 -25q-127 -57 -137 -57q-14 0 -24.5 10t-10.5 27q0 55 123 108t256 53q147 0 226 -76.5t79 -220.5q0 -207 -174 -489q-158 -256 -382 -454.5t-363 -198.5q-82 0 -131.5 60.5t-49.5 193.5zM152 240q0 -127 90 -127 q82 0 262 176q188 184 325 407q160 260 160 445q0 78 -31 121q-39 55 -129 55q-29 0 -46 -4t-25 -6q23 -4 18 -21q0 -31 -84 -119l-143 -151q-172 -188 -284.5 -412.5t-112.5 -363.5zM858 1510q0 51 90 153.5t127 102.5q43 0 43 -35q0 -18 -14 -39q-88 -113 -115 -144 q-63 -70 -98 -69q-33 0 -33 31z" />
<glyph unicode="&#xd4;" d="M14 238q0 229 230 569q209 309 450 500q-39 0 -92 -25q-127 -57 -137 -57q-14 0 -24.5 10t-10.5 27q0 55 123 108t256 53q147 0 226 -76.5t79 -220.5q0 -207 -174 -489q-158 -256 -382 -454.5t-363 -198.5q-82 0 -131.5 60.5t-49.5 193.5zM152 240q0 -127 90 -127 q82 0 262 176q188 184 325 407q160 260 160 445q0 78 -31 121q-39 55 -129 55q-29 0 -46 -4t-25 -6q23 -4 18 -21q0 -31 -84 -119l-143 -151q-172 -188 -284.5 -412.5t-112.5 -363.5zM715 1570q0 39 53 82q63 51 144 52q33 0 84 -63.5t51 -108.5t-47 -46q-23 0 -62.5 49.5 t-58.5 55.5q-4 0 -70 -35q-35 -18 -53 -18q-41 -1 -41 32z" />
<glyph unicode="&#xd5;" d="M14 238q0 229 230 569q209 309 450 500q-39 0 -92 -25q-127 -57 -137 -57q-14 0 -24.5 10t-10.5 27q0 55 123 108t256 53q147 0 226 -76.5t79 -220.5q0 -207 -174 -489q-158 -256 -382 -454.5t-363 -198.5q-82 0 -131.5 60.5t-49.5 193.5zM152 240q0 -127 90 -127 q82 0 262 176q188 184 325 407q160 260 160 445q0 78 -31 121q-39 55 -129 55q-29 0 -46 -4t-25 -6q23 -4 18 -21q0 -31 -84 -119l-143 -151q-172 -188 -284.5 -412.5t-112.5 -363.5zM641 1573q0 49 32 76.5t73 27.5h22q18 -4 40 -8t120 -64q49 -29 72 -28q18 2 56 33.5 t52 31.5q20 0 21 -39q0 -47 -35 -87t-92 -40q-53 0 -115 48q-70 45 -86 55q-41 25 -61 24q-14 0 -29.5 -33.5t-38.5 -33.5q-31 0 -31 37z" />
<glyph unicode="&#xd6;" d="M14 238q0 229 230 569q209 309 450 500q-39 0 -92 -25q-127 -57 -137 -57q-14 0 -24.5 10t-10.5 27q0 55 123 108t256 53q147 0 226 -76.5t79 -220.5q0 -207 -174 -489q-158 -256 -382 -454.5t-363 -198.5q-82 0 -131.5 60.5t-49.5 193.5zM152 240q0 -127 90 -127 q82 0 262 176q188 184 325 407q160 260 160 445q0 78 -31 121q-39 55 -129 55q-29 0 -46 -4t-25 -6q23 -4 18 -21q0 -31 -84 -119l-143 -151q-172 -188 -284.5 -412.5t-112.5 -363.5zM708 1549q0 47 53.5 98t88.5 51q41 0 41 -45q0 -37 -53.5 -93t-88.5 -56q-41 0 -41 45z M932 1547q0 47 53 98t88 51q41 0 41 -45q0 -37 -53.5 -93t-87.5 -56q-41 0 -41 45z" />
<glyph unicode="&#xd8;" d="M4 4q-2 35 39 76q-29 61 -29 158q0 229 230 569q209 309 450 500q-39 0 -92 -25q-127 -57 -137 -57q-14 0 -24.5 10t-10.5 27q0 55 123 108t256 53q115 0 186 -45q25 29 46.5 43.5t43.5 14.5q27 0 44.5 -23.5t17.5 -42.5q0 -18 -6 -27q-25 -27 -58 -65q31 -66 31 -152 q0 -207 -174 -489q-158 -256 -382 -454.5t-363 -198.5h-33q-16 6 -23 8q-27 -47 -53 -49q-41 0 -61.5 16t-20.5 45zM152 254q98 147 262 362q98 131 263 343t210 278l39 55q-39 25 -97 25q-29 0 -46 -4t-25 -6q23 -4 18 -21q0 -31 -84 -119l-143 -151 q-170 -186 -283.5 -404.5t-113.5 -357.5zM213 117l29 -4q82 0 262 176q188 184 325 407q160 260 160 445v24q-184 -217 -399 -503q-240 -322 -377 -545z" />
<glyph unicode="&#xd9;" horiz-adv-x="1128" d="M16 162q0 170 144 452q117 227 299 480q162 221 250 292q59 45 92 46q12 0 23.5 -9.5t9.5 -33.5q0 -39 -27 -66q-100 -100 -254 -317q-166 -233 -279 -449q-133 -252 -133 -371q0 -57 37 -57q63 0 273 254q88 109 407 524q260 340 367 447q43 43 80 43q49 0 49 -54 q0 -39 -31 -69q-127 -139 -331 -576.5t-204 -578.5q0 -16 3 -23l4 -35q0 -63 -52 -63q-31 0 -56 29.5t-25 85.5q0 78 49 215q37 100 118 278q41 90 138 281q-229 -299 -381 -494q-170 -219 -248 -297q-109 -109 -199 -108q-55 0 -89 46t-34 128zM780 1712q0 25 16.5 36 t30.5 11q23 0 39 -28q2 -4 119 -156q41 -53 41 -78q0 -29 -35 -28q-39 0 -104 90q-51 70 -84 108q-23 20 -23 45z" />
<glyph unicode="&#xda;" horiz-adv-x="1128" d="M16 162q0 170 144 452q117 227 299 480q162 221 250 292q59 45 92 46q12 0 23.5 -9.5t9.5 -33.5q0 -39 -27 -66q-100 -100 -254 -317q-166 -233 -279 -449q-133 -252 -133 -371q0 -57 37 -57q63 0 273 254q88 109 407 524q260 340 367 447q43 43 80 43q49 0 49 -54 q0 -39 -31 -69q-127 -139 -331 -576.5t-204 -578.5q0 -16 3 -23l4 -35q0 -63 -52 -63q-31 0 -56 29.5t-25 85.5q0 78 49 215q37 100 118 278q41 90 138 281q-229 -299 -381 -494q-170 -219 -248 -297q-109 -109 -199 -108q-55 0 -89 46t-34 128zM1042 1500q0 51 90 153.5 t127 102.5q43 0 43 -35q0 -18 -14 -39q-88 -113 -115 -144q-63 -70 -98 -69q-33 0 -33 31z" />
<glyph unicode="&#xdb;" horiz-adv-x="1128" d="M16 162q0 170 144 452q117 227 299 480q162 221 250 292q59 45 92 46q12 0 23.5 -9.5t9.5 -33.5q0 -39 -27 -66q-100 -100 -254 -317q-166 -233 -279 -449q-133 -252 -133 -371q0 -57 37 -57q63 0 273 254q88 109 407 524q260 340 367 447q43 43 80 43q49 0 49 -54 q0 -39 -31 -69q-127 -139 -331 -576.5t-204 -578.5q0 -16 3 -23l4 -35q0 -63 -52 -63q-31 0 -56 29.5t-25 85.5q0 78 49 215q37 100 118 278q41 90 138 281q-229 -299 -381 -494q-170 -219 -248 -297q-109 -109 -199 -108q-55 0 -89 46t-34 128zM930 1560q0 39 53 82 q63 51 144 52q33 0 84 -63.5t51 -108.5t-47 -46q-23 0 -62.5 49.5t-58.5 55.5q-4 0 -70 -35q-35 -18 -53 -18q-41 -1 -41 32z" />
<glyph unicode="&#xdc;" horiz-adv-x="1128" d="M16 162q0 170 144 452q117 227 299 480q162 221 250 292q59 45 92 46q12 0 23.5 -9.5t9.5 -33.5q0 -39 -27 -66q-100 -100 -254 -317q-166 -233 -279 -449q-133 -252 -133 -371q0 -57 37 -57q63 0 273 254q88 109 407 524q260 340 367 447q43 43 80 43q49 0 49 -54 q0 -39 -31 -69q-127 -139 -331 -576.5t-204 -578.5q0 -16 3 -23l4 -35q0 -63 -52 -63q-31 0 -56 29.5t-25 85.5q0 78 49 215q37 100 118 278q41 90 138 281q-229 -299 -381 -494q-170 -219 -248 -297q-109 -109 -199 -108q-55 0 -89 46t-34 128zM903 1528q0 47 53.5 98 t88.5 51q41 0 41 -45q0 -37 -53.5 -93t-88.5 -56q-41 0 -41 45zM1127 1526q0 47 53 98t88 51q41 0 41 -45q0 -37 -53.5 -93t-87.5 -56q-41 0 -41 45z" />
<glyph unicode="&#xdd;" horiz-adv-x="886" d="M139 575q0 217 231.5 531.5t368.5 314.5q59 0 60 -49q0 -41 -74 -82q-139 -88 -260 -252q-100 -135 -159 -269q-50 -114 -49 -159q0 -8 1 -14q8 -20 31 -21q94 0 385 312q260 279 438 532q31 51 70 51q61 0 61 -69q0 -39 -33 -78q-211 -246 -458.5 -674t-331.5 -682 q-18 -59 -70 -59q-25 0 -40 15.5t-15 49.5q0 82 125 330t274 471q-109 -109 -217 -215q-131 -113 -239 -113q-45 0 -72 30.5t-27 98.5zM920 1489q0 51 90 153.5t127 102.5q43 0 43 -35q0 -18 -14 -39q-88 -113 -115 -144q-63 -70 -98 -69q-33 0 -33 31z" />
<glyph unicode="&#xdf;" horiz-adv-x="595" d="M-37 150q0 20 3 31.5t18 43.5l354 840q66 156 158 283q127 174 231 174q49 0 78 -33t29 -82q0 -106 -115 -297q-86 -143 -133 -190q-86 -84 -97 -97q-43 -53 -43 -112q-4 -43 -4 -68t9 -47q25 16 63 20q59 0 55 -34q0 -39 -86 -66q37 -74 37 -156q0 -100 -69 -192 q-76 -100 -162 -100q-47 0 -79 33.5t-32 91.5q0 111 96.5 227.5t96.5 144.5q0 16 -11.5 65.5t-11.5 82.5q0 47 32 101t107 122q70 59 154 205.5t84 218.5q0 37 -31 43q-51 8 -176 -227q-98 -184 -237 -521q-125 -301 -201 -510q-27 -70 -70 -69q-20 0 -33.5 19.5t-13.5 54.5 zM274 233q0 -41 33 -40q63 0 84 77q12 47 12 166q-43 -8 -86 -80t-43 -123z" />
<glyph unicode="&#xe0;" horiz-adv-x="565" d="M6 201q0 158 133 350q143 207 285 207q49 0 77.5 -21.5t28.5 -62.5q0 -31 -14 -62q12 -8 12 -28q0 -41 -63.5 -178.5t-63.5 -184.5q0 -68 49.5 -92.5t49.5 -65.5q0 -18 -16.5 -28t-43.5 -10q-49 0 -86 34q-45 43 -45 115q0 12 5 34.5t8 33.5q-102 -172 -209 -172 q-95 0 -107 131zM119 246q0 -41 26 -53q5 -2 10 -2q43 0 111 106l185 299q-14 53 -56 53q-72 0 -174 -154.5t-102 -248.5zM207 1077q0 25 16.5 36t30.5 11q23 0 39 -28q2 -4 119 -156q41 -53 41 -78q0 -29 -35 -28q-39 0 -104 90q-51 70 -84 108q-23 20 -23 45z" />
<glyph unicode="&#xe1;" horiz-adv-x="565" d="M6 201q0 158 133 350q143 207 285 207q49 0 77.5 -21.5t28.5 -62.5q0 -31 -14 -62q12 -8 12 -28q0 -41 -63.5 -178.5t-63.5 -184.5q0 -68 49.5 -92.5t49.5 -65.5q0 -18 -16.5 -28t-43.5 -10q-49 0 -86 34q-45 43 -45 115q0 12 5 34.5t8 33.5q-102 -172 -209 -172 q-95 0 -107 131zM119 246q0 -41 26 -53q5 -2 10 -2q43 0 111 106l185 299q-14 53 -56 53q-72 0 -174 -154.5t-102 -248.5zM397 834q0 51 90 153.5t127 102.5q43 0 43 -35q0 -18 -14 -39q-88 -113 -115 -144q-63 -70 -98 -69q-33 0 -33 31z" />
<glyph unicode="&#xe2;" horiz-adv-x="565" d="M6 201q0 158 133 350q143 207 285 207q49 0 77.5 -21.5t28.5 -62.5q0 -31 -14 -62q12 -8 12 -28q0 -41 -63.5 -178.5t-63.5 -184.5q0 -68 49.5 -92.5t49.5 -65.5q0 -18 -16.5 -28t-43.5 -10q-49 0 -86 34q-45 43 -45 115q0 12 5 34.5t8 33.5q-102 -172 -209 -172 q-95 0 -107 131zM119 246q0 -41 26 -53q5 -2 10 -2q43 0 111 106l185 299q-14 53 -56 53q-72 0 -174 -154.5t-102 -248.5zM305 874q0 39 53 82q63 51 144 52q33 0 84 -63.5t51 -108.5t-47 -46q-23 0 -62.5 49.5t-58.5 55.5q-4 0 -70 -35q-35 -18 -53 -18q-41 -1 -41 32z" />
<glyph unicode="&#xe3;" horiz-adv-x="565" d="M6 201q0 158 133 350q143 207 285 207q49 0 77.5 -21.5t28.5 -62.5q0 -31 -14 -62q12 -8 12 -28q0 -41 -63.5 -178.5t-63.5 -184.5q0 -68 49.5 -92.5t49.5 -65.5q0 -18 -16.5 -28t-43.5 -10q-49 0 -86 34q-45 43 -45 115q0 12 5 34.5t8 33.5q-102 -172 -209 -172 q-95 0 -107 131zM119 246q0 -41 26 -53q5 -2 10 -2q43 0 111 106l185 299q-14 53 -56 53q-72 0 -174 -154.5t-102 -248.5zM190 938q0 49 32 76.5t73 27.5h22q18 -4 40 -8t120 -64q49 -29 72 -28q18 2 56 33.5t52 31.5q20 0 21 -39q0 -47 -35 -87t-92 -40q-53 0 -115 48 q-70 45 -86 55q-41 25 -61 24q-14 0 -29.5 -33.5t-38.5 -33.5q-31 0 -31 37z" />
<glyph unicode="&#xe4;" horiz-adv-x="565" d="M6 201q0 158 133 350q143 207 285 207q49 0 77.5 -21.5t28.5 -62.5q0 -31 -14 -62q12 -8 12 -28q0 -41 -63.5 -178.5t-63.5 -184.5q0 -68 49.5 -92.5t49.5 -65.5q0 -18 -16.5 -28t-43.5 -10q-49 0 -86 34q-45 43 -45 115q0 12 5 34.5t8 33.5q-102 -172 -209 -172 q-95 0 -107 131zM119 246q0 -41 26 -53q5 -2 10 -2q43 0 111 106l185 299q-14 53 -56 53q-72 0 -174 -154.5t-102 -248.5zM237 863q0 47 53.5 98t88.5 51q41 0 41 -45q0 -37 -53.5 -93t-88.5 -56q-41 0 -41 45zM461 861q0 47 53 98t88 51q41 0 41 -45q0 -37 -53.5 -93 t-87.5 -56q-41 0 -41 45z" />
<glyph unicode="&#xe5;" horiz-adv-x="565" d="M6 201q0 158 133 350q143 207 285 207q49 0 77.5 -21.5t28.5 -62.5q0 -31 -14 -62q12 -8 12 -28q0 -41 -63.5 -178.5t-63.5 -184.5q0 -68 49.5 -92.5t49.5 -65.5q0 -18 -16.5 -28t-43.5 -10q-49 0 -86 34q-45 43 -45 115q0 12 5 34.5t8 33.5q-102 -172 -209 -172 q-95 0 -107 131zM119 246q0 -41 26 -53q5 -2 10 -2q43 0 111 106l185 299q-14 53 -56 53q-72 0 -174 -154.5t-102 -248.5zM410 888q0 29 13.5 59.5t43.5 71.5q39 51 81 77t81 26q35 0 56.5 -19.5t21.5 -54.5q0 -57 -62 -125q-45 -49 -89 -73.5t-81 -24.5q-65 0 -65 63z M482 917q0 -25 24 -25q20 0 40 14.5t34 33.5q31 41 31 69q0 27 -23 27q-29 0 -72 -49q-34 -41 -34 -70z" />
<glyph unicode="&#xe6;" horiz-adv-x="823" d="M-49 225q0 133 108 221q98 80 213 80q55 0 99 -26q27 41 26 98q0 35 -14 57.5t-45 22.5q-23 0 -64 -16q-92 -37 -110 -37q-25 0 -35 20q-23 43 74.5 94.5t167.5 51.5q55 0 92 -28t37 -85q51 55 95 80.5t79 25.5q43 0 66.5 -34.5t23.5 -92.5q0 -55 -21.5 -112.5 t-64.5 -93.5q-49 -49 -101.5 -75t-107.5 -26l-49 4q-6 -27 -10 -51v-27q0 -100 67 -100q55 0 127 60q80 66 137 167q33 49 70 54q31 0 27 -31q0 -78 -131 -213q-145 -150 -271 -150q-74 0 -108 58q-16 27 -37 104q-37 -78 -97.5 -121t-123.5 -43q-119 0 -119 164zM51 238 q0 -68 58 -68q49 0 104 57q66 70 109 193q-29 27 -68 26q-74 0 -138.5 -76.5t-64.5 -131.5zM467 451l22 -5q72 0 127 76q49 68 50 127q0 33 -21 33l-16 -4q-29 -14 -86 -88q-66 -84 -76 -139z" />
<glyph unicode="&#xe7;" horiz-adv-x="595" d="M10 205q0 186 160 379q150 180 264 180q66 0 66 -102q0 -72 -50.5 -144t-93.5 -72q-33 0 -32 31q0 16 59 92q29 37 29 56q0 27 -19 26q-51 0 -166 -155q-121 -164 -121 -254q0 -80 64 -80q55 0 129 55q82 61 152 170q23 43 57 43q27 0 31 -29q0 -78 -136 -202 q-145 -135 -258 -136q-74 0 -104.5 36t-30.5 106zM-29 -311q0 18 55.5 73.5t57.5 75.5q4 33 -46 46t-50 30q0 18 69 94q49 53 74 84h49q-37 -37 -51.5 -61.5t-14.5 -51.5q51 -27 52 -77q0 -66 -69 -145t-109 -79q-17 1 -17 11z" />
<glyph unicode="&#xe8;" horiz-adv-x="595" d="M-10 242q0 88 53 192q45 90 102 146q82 86 143.5 121.5t102.5 35.5q39 0 63.5 -24.5t24.5 -59.5q0 -66 -69 -157q-51 -70 -119 -125q-31 -31 -88 -60q-41 -20 -90 -37q0 -49 21.5 -72.5t60.5 -23.5q63 0 156 61.5t165 147.5q33 39 49 39q20 0 21 -29q0 -72 -150 -192 q-160 -129 -286 -129q-63 0 -111.5 48t-48.5 118zM129 387q68 0 158 78t90 131q0 25 -25 29q-33 0 -78 -45q-35 -33 -78.5 -91.5t-66.5 -101.5zM155 1077q0 25 16.5 36t30.5 11q23 0 39 -28q2 -4 119 -156q41 -53 41 -78q0 -29 -35 -28q-39 0 -104 90q-51 70 -84 108 q-23 20 -23 45z" />
<glyph unicode="&#xe9;" horiz-adv-x="595" d="M-10 242q0 88 53 192q45 90 102 146q82 86 143.5 121.5t102.5 35.5q39 0 63.5 -24.5t24.5 -59.5q0 -66 -69 -157q-51 -70 -119 -125q-31 -31 -88 -60q-41 -20 -90 -37q0 -49 21.5 -72.5t60.5 -23.5q63 0 156 61.5t165 147.5q33 39 49 39q20 0 21 -29q0 -72 -150 -192 q-160 -129 -286 -129q-63 0 -111.5 48t-48.5 118zM129 387q68 0 158 78t90 131q0 25 -25 29q-33 0 -78 -45q-35 -33 -78.5 -91.5t-66.5 -101.5zM377 834q0 51 90 153.5t127 102.5q43 0 43 -35q0 -18 -14 -39q-88 -113 -115 -144q-63 -70 -98 -69q-33 0 -33 31z" />
<glyph unicode="&#xea;" horiz-adv-x="595" d="M-10 242q0 88 53 192q45 90 102 146q82 86 143.5 121.5t102.5 35.5q39 0 63.5 -24.5t24.5 -59.5q0 -66 -69 -157q-51 -70 -119 -125q-31 -31 -88 -60q-41 -20 -90 -37q0 -49 21.5 -72.5t60.5 -23.5q63 0 156 61.5t165 147.5q33 39 49 39q20 0 21 -29q0 -72 -150 -192 q-160 -129 -286 -129q-63 0 -111.5 48t-48.5 118zM129 387q68 0 158 78t90 131q0 25 -25 29q-33 0 -78 -45q-35 -33 -78.5 -91.5t-66.5 -101.5zM233 854q0 39 53 82q63 51 144 52q33 0 84 -63.5t51 -108.5t-47 -46q-23 0 -62.5 49.5t-58.5 55.5q-4 0 -70 -35 q-35 -18 -53 -18q-41 -1 -41 32z" />
<glyph unicode="&#xeb;" horiz-adv-x="595" d="M-10 242q0 88 53 192q45 90 102 146q82 86 143.5 121.5t102.5 35.5q39 0 63.5 -24.5t24.5 -59.5q0 -66 -69 -157q-51 -70 -119 -125q-31 -31 -88 -60q-41 -20 -90 -37q0 -49 21.5 -72.5t60.5 -23.5q63 0 156 61.5t165 147.5q33 39 49 39q20 0 21 -29q0 -72 -150 -192 q-160 -129 -286 -129q-63 0 -111.5 48t-48.5 118zM129 387q68 0 158 78t90 131q0 25 -25 29q-33 0 -78 -45q-35 -33 -78.5 -91.5t-66.5 -101.5zM196 832q0 47 53.5 98t88.5 51q41 0 41 -45q0 -37 -53.5 -93t-88.5 -56q-41 0 -41 45zM420 830q0 47 53 98t88 51q41 0 41 -45 q0 -37 -53.5 -93t-87.5 -56q-41 0 -41 45z" />
<glyph unicode="&#xec;" horiz-adv-x="290" d="M-33 129q0 102 94 283q80 154 181 282q10 12 25.5 24.5t33.5 12.5q33 -4 33 -39q0 -31 -27 -63q-55 -66 -143 -251t-100.5 -255t-55.5 -66q-16 0 -28.5 22.5t-12.5 49.5zM63 1067q0 25 16.5 36t30.5 11q23 0 39 -28q2 -4 119 -156q41 -53 41 -78q0 -29 -35 -28 q-39 0 -104 90q-51 70 -84 108q-23 20 -23 45z" />
<glyph unicode="&#xed;" horiz-adv-x="290" d="M-33 129q0 102 94 283q80 154 181 282q10 12 25.5 24.5t33.5 12.5q33 -4 33 -39q0 -31 -27 -63q-55 -66 -143 -251t-100.5 -255t-55.5 -66q-16 0 -28.5 22.5t-12.5 49.5zM305 834q0 51 90 153.5t127 102.5q43 0 43 -35q0 -18 -14 -39q-88 -113 -115 -144q-63 -70 -98 -69 q-33 0 -33 31z" />
<glyph unicode="&#xee;" horiz-adv-x="290" d="M-33 129q0 102 94 283q80 154 181 282q10 12 25.5 24.5t33.5 12.5q33 -4 33 -39q0 -31 -27 -63q-55 -66 -143 -251t-100.5 -255t-55.5 -66q-16 0 -28.5 22.5t-12.5 49.5zM172 864q0 39 53 82q63 51 144 52q33 0 84 -63.5t51 -108.5t-47 -46q-23 0 -62.5 49.5t-58.5 55.5 q-4 0 -70 -35q-35 -18 -53 -18q-41 -1 -41 32z" />
<glyph unicode="&#xef;" horiz-adv-x="290" d="M-33 129q0 102 94 283q80 154 181 282q10 12 25.5 24.5t33.5 12.5q33 -4 33 -39q0 -31 -27 -63q-55 -66 -143 -251t-100.5 -255t-55.5 -66q-16 0 -28.5 22.5t-12.5 49.5zM135 852q0 47 53.5 98t88.5 51q41 0 41 -45q0 -37 -53.5 -93t-88.5 -56q-41 0 -41 45zM359 850 q0 47 53 98t88 51q41 0 41 -45q0 -37 -53.5 -93t-87.5 -56q-41 0 -41 45z" />
<glyph unicode="&#xf1;" horiz-adv-x="548" d="M-31 117q0 45 68 176q33 63 76 143q141 258 178 258q45 0 45 -37q0 -31 -39 -96q-29 -47 -55 -94q14 14 120 115q117 113 187 112q49 0 53 -26q0 -25 -39 -80q-121 -170 -127 -185q-33 -66 -55 -127q-29 -82 -29 -137q0 -37 13 -63q27 -55 26 -72q0 -41 -37 -41t-71.5 49 t-34.5 117q0 76 33 178q25 80 57 144q-94 -66 -168 -179q-125 -193 -170 -192q-35 0 -31 37zM210 887q0 49 32 76.5t73 27.5h22q18 -4 40 -8t120 -64q49 -29 72 -28q18 2 56 33.5t52 31.5q20 0 21 -39q0 -47 -35 -87t-92 -40q-53 0 -115 48q-70 45 -86 55q-41 25 -61 24 q-14 0 -29.5 -33.5t-38.5 -33.5q-31 0 -31 37z" />
<glyph unicode="&#xf2;" horiz-adv-x="499" d="M2 201q0 172 133 364q143 209 301 209q39 0 57.5 -28.5t18.5 -75.5q0 -158 -135 -377q-141 -229 -264 -230q-55 0 -83 36t-28 102zM104 262q0 -76 50 -76q39 0 83 47.5t70 137.5q-33 0 -28 18q0 20 38 70q61 78 70 90q23 37 27 72q0 41 -37 41q-55 0 -164 -151t-109 -249 zM186 1077q0 25 16.5 36t30.5 11q23 0 39 -28q2 -4 119 -156q41 -53 41 -78q0 -29 -35 -28q-39 0 -104 90q-51 70 -84 108q-23 20 -23 45z" />
<glyph unicode="&#xf3;" horiz-adv-x="499" d="M2 201q0 172 133 364q143 209 301 209q39 0 57.5 -28.5t18.5 -75.5q0 -158 -135 -377q-141 -229 -264 -230q-55 0 -83 36t-28 102zM104 262q0 -76 50 -76q39 0 83 47.5t70 137.5q-33 0 -28 18q0 20 38 70q61 78 70 90q23 37 27 72q0 41 -37 41q-55 0 -164 -151t-109 -249 zM397 854q0 51 90 153.5t127 102.5q43 0 43 -35q0 -18 -14 -39q-88 -113 -115 -144q-63 -70 -98 -69q-33 0 -33 31z" />
<glyph unicode="&#xf4;" horiz-adv-x="499" d="M2 201q0 172 133 364q143 209 301 209q39 0 57.5 -28.5t18.5 -75.5q0 -158 -135 -377q-141 -229 -264 -230q-55 0 -83 36t-28 102zM104 262q0 -76 50 -76q39 0 83 47.5t70 137.5q-33 0 -28 18q0 20 38 70q61 78 70 90q23 37 27 72q0 41 -37 41q-55 0 -164 -151t-109 -249 zM284 884q0 39 53 82q63 51 144 52q33 0 84 -63.5t51 -108.5t-47 -46q-23 0 -62.5 49.5t-58.5 55.5q-4 0 -70 -35q-35 -18 -53 -18q-41 -1 -41 32z" />
<glyph unicode="&#xf5;" horiz-adv-x="499" d="M2 201q0 172 133 364q143 209 301 209q39 0 57.5 -28.5t18.5 -75.5q0 -158 -135 -377q-141 -229 -264 -230q-55 0 -83 36t-28 102zM104 262q0 -76 50 -76q39 0 83 47.5t70 137.5q-33 0 -28 18q0 20 38 70q61 78 70 90q23 37 27 72q0 41 -37 41q-55 0 -164 -151t-109 -249 zM190 949q0 49 32 76.5t73 27.5h22q18 -4 40 -8t120 -64q49 -29 72 -28q18 2 56 33.5t52 31.5q20 0 21 -39q0 -47 -35 -87t-92 -40q-53 0 -115 48q-70 45 -86 55q-41 25 -61 24q-14 0 -29.5 -33.5t-38.5 -33.5q-31 0 -31 37z" />
<glyph unicode="&#xf6;" horiz-adv-x="499" d="M2 201q0 172 133 364q143 209 301 209q39 0 57.5 -28.5t18.5 -75.5q0 -158 -135 -377q-141 -229 -264 -230q-55 0 -83 36t-28 102zM104 262q0 -76 50 -76q39 0 83 47.5t70 137.5q-33 0 -28 18q0 20 38 70q61 78 70 90q23 37 27 72q0 41 -37 41q-55 0 -164 -151t-109 -249 zM237 873q0 47 53.5 98t88.5 51q41 0 41 -45q0 -37 -53.5 -93t-88.5 -56q-41 0 -41 45zM461 871q0 47 53 98t88 51q41 0 41 -45q0 -37 -53.5 -93t-87.5 -56q-41 0 -41 45z" />
<glyph unicode="&#xf8;" horiz-adv-x="499" d="M-23 78q-2 27 31 67l-6 56q0 172 133 364q143 209 301 209q33 0 53 -26q31 25 56 24q27 0 26 -24q-6 -31 -6 -41q-2 -14 -10 -25l-45 -49q-20 -168 -148 -363q-135 -207 -249 -207l-43 7q-18 -31 -23 -37q-12 -14 -29 -17q-20 0 -30.5 12.5t-10.5 49.5zM104 262 q88 104 138 170q29 39 88 127l69 96l-22 7q-55 0 -164 -151t-109 -249zM160 186q39 4 76 45q45 51 69 134q4 14 4 20q-4 6 -6 6q-27 0 -98 -102z" />
<glyph unicode="&#xf9;" horiz-adv-x="565" d="M-14 203q0 113 107.5 286t180.5 173q47 0 48 -23q0 -20 -84 -131q-96 -127 -125 -217q-12 -43 -13 -66q0 -31 15 -30q35 0 112 102q86 115 144 252q23 51 46 75.5t42 24.5q47 0 47 -65q0 -33 -23 -68q-51 -78 -72.5 -139.5t-21.5 -112.5q0 -43 17.5 -74.5t44.5 -44.5 q55 -27 55 -63q0 -33 -70 -33q-66 0 -106.5 45t-40.5 117l2 31q-61 -84 -110.5 -123t-90.5 -39q-43 0 -73.5 33t-30.5 90zM166 1036q0 25 16.5 36t30.5 11q23 0 39 -28q2 -4 119 -156q41 -53 41 -78q0 -29 -35 -28q-39 0 -104 90q-51 70 -84 108q-23 20 -23 45z" />
<glyph unicode="&#xfa;" horiz-adv-x="565" d="M-14 203q0 113 107.5 286t180.5 173q47 0 48 -23q0 -20 -84 -131q-96 -127 -125 -217q-12 -43 -13 -66q0 -31 15 -30q35 0 112 102q86 115 144 252q23 51 46 75.5t42 24.5q47 0 47 -65q0 -33 -23 -68q-51 -78 -72.5 -139.5t-21.5 -112.5q0 -43 17.5 -74.5t44.5 -44.5 q55 -27 55 -63q0 -33 -70 -33q-66 0 -106.5 45t-40.5 117l2 31q-61 -84 -110.5 -123t-90.5 -39q-43 0 -73.5 33t-30.5 90zM367 834q0 51 90 153.5t127 102.5q43 0 43 -35q0 -18 -14 -39q-88 -113 -115 -144q-63 -70 -98 -69q-33 0 -33 31z" />
<glyph unicode="&#xfb;" horiz-adv-x="565" d="M-14 203q0 113 107.5 286t180.5 173q47 0 48 -23q0 -20 -84 -131q-96 -127 -125 -217q-12 -43 -13 -66q0 -31 15 -30q35 0 112 102q86 115 144 252q23 51 46 75.5t42 24.5q47 0 47 -65q0 -33 -23 -68q-51 -78 -72.5 -139.5t-21.5 -112.5q0 -43 17.5 -74.5t44.5 -44.5 q55 -27 55 -63q0 -33 -70 -33q-66 0 -106.5 45t-40.5 117l2 31q-61 -84 -110.5 -123t-90.5 -39q-43 0 -73.5 33t-30.5 90zM223 843q0 39 53 82q63 51 144 52q33 0 84 -63.5t51 -108.5t-47 -46q-23 0 -62.5 49.5t-58.5 55.5q-4 0 -70 -35q-35 -18 -53 -18q-41 -1 -41 32z" />
<glyph unicode="&#xfc;" horiz-adv-x="565" d="M-14 203q0 113 107.5 286t180.5 173q47 0 48 -23q0 -20 -84 -131q-96 -127 -125 -217q-12 -43 -13 -66q0 -31 15 -30q35 0 112 102q86 115 144 252q23 51 46 75.5t42 24.5q47 0 47 -65q0 -33 -23 -68q-51 -78 -72.5 -139.5t-21.5 -112.5q0 -43 17.5 -74.5t44.5 -44.5 q55 -27 55 -63q0 -33 -70 -33q-66 0 -106.5 45t-40.5 117l2 31q-61 -84 -110.5 -123t-90.5 -39q-43 0 -73.5 33t-30.5 90zM196 791q0 47 53.5 98t88.5 51q41 0 41 -45q0 -37 -53.5 -93t-88.5 -56q-41 0 -41 45zM420 789q0 47 53 98t88 51q41 0 41 -45q0 -37 -53.5 -93 t-87.5 -56q-41 0 -41 45z" />
<glyph unicode="&#xfd;" horiz-adv-x="724" d="M-258 -387q0 121 160 260q150 129 356 207q35 63 72 129q49 90 73 162q-78 -115 -178 -195t-159 -80q-31 0 -48.5 30t-17.5 67q0 102 147 290q141 180 185 181q35 0 35 -46q0 -20 -124 -166.5t-124 -199.5q0 -23 18 -23q39 0 150 119l196 221q109 121 138 121 q53 0 53 -53q0 -18 -60 -123q-154 -270 -178 -336q84 59 136.5 111.5t89.5 113.5q27 51 55 52q16 0 24.5 -11.5t8.5 -31.5q0 -53 -132 -179q-143 -137 -264 -184q-111 -311 -252 -477q-117 -137 -215 -137q-68 0 -106.5 51t-38.5 127zM-145 -371q0 -80 61 -80q37 0 84 48 q61 61 123.5 192t85.5 178q-154 -76 -262 -192q-92 -99 -92 -146zM459 814q0 51 90 153.5t127 102.5q43 0 43 -35q0 -18 -14 -39q-88 -113 -115 -144q-63 -70 -98 -69q-33 0 -33 31z" />
<glyph unicode="&#xff;" horiz-adv-x="724" d="M-258 -387q0 121 160 260q150 129 356 207q35 63 72 129q49 90 73 162q-78 -115 -178 -195t-159 -80q-31 0 -48.5 30t-17.5 67q0 102 147 290q141 180 185 181q35 0 35 -46q0 -20 -124 -166.5t-124 -199.5q0 -23 18 -23q39 0 150 119l196 221q109 121 138 121 q53 0 53 -53q0 -18 -60 -123q-154 -270 -178 -336q84 59 136.5 111.5t89.5 113.5q27 51 55 52q16 0 24.5 -11.5t8.5 -31.5q0 -53 -132 -179q-143 -137 -264 -184q-111 -311 -252 -477q-117 -137 -215 -137q-68 0 -106.5 51t-38.5 127zM-145 -371q0 -80 61 -80q37 0 84 48 q61 61 123.5 192t85.5 178q-154 -76 -262 -192q-92 -99 -92 -146zM329 801q0 47 53.5 98t88.5 51q41 0 41 -45q0 -37 -53.5 -93t-88.5 -56q-41 0 -41 45zM553 799q0 47 53 98t88 51q41 0 41 -45q0 -37 -53.5 -93t-87.5 -56q-41 0 -41 45z" />
<glyph unicode="&#x131;" horiz-adv-x="290" d="M-33 129q0 102 94 283q80 154 181 282q10 12 25.5 24.5t33.5 12.5q33 -4 33 -39q0 -31 -27 -63q-55 -66 -143 -251t-100.5 -255t-55.5 -66q-16 0 -28.5 22.5t-12.5 49.5z" />
<glyph unicode="&#x160;" horiz-adv-x="854" d="M-12 262q0 84 65.5 153.5t136.5 69.5q31 0 48.5 -10t19.5 -26q0 -37 -65 -62q-45 -16 -67 -44t-22 -64q0 -53 45.5 -96.5t114.5 -43.5q12 -2 37 -2q113 0 195 66.5t82 142.5q0 111 -158 316q-76 102 -76 227q0 186 174 362q190 193 440 193q70 0 118 -41t48 -103 q0 -135 -190 -299q-172 -147 -256 -147q-94 0 -90 43q0 43 90 70q127 31 235 141q100 102 101 180q0 55 -66 55q-115 0 -282 -122q-201 -145 -201 -320q0 -66 160 -338q74 -125 73 -237q0 -139 -166 -226q-131 -68 -258 -67q-141 0 -219 71q-67 64 -67 158zM821 1688 q0 45 47 45q23 0 63 -49.5t58 -55.5q4 0 70 35q35 18 53 18q41 0 41 -32q0 -39 -53 -82q-63 -51 -144 -51q-33 0 -84 63.5t-51 108.5z" />
<glyph unicode="&#x161;" horiz-adv-x="548" d="M-37 229q0 68 31 124.5t74 56.5q23 0 22 -21q0 -16 -10 -35q-27 -43 -27 -82q0 -53 29 -98t63 -45q92 0 93 76q0 39 -20.5 85t-55.5 97q-31 59 -31 115q0 117 106.5 203t229.5 86q74 0 112.5 -33t38.5 -84q0 -76 -69 -137q-78 -70 -195 -70q-27 0 -44 11t-15 28 q0 31 76 43q59 6 94 36.5t35 65.5q0 45 -58 45q-78 0 -142 -56t-64 -128q0 -37 46 -135t46 -182q0 -74 -43 -118t-140 -44q-90 0 -136 56t-46 140zM350 1022q0 45 47 45q23 0 63 -49.5t58 -55.5q4 0 70 35q35 18 53 18q41 0 41 -32q0 -39 -53 -82q-63 -51 -144 -51 q-33 0 -84 63.5t-51 108.5z" />
<glyph unicode="&#x178;" horiz-adv-x="886" d="M139 575q0 217 231.5 531.5t368.5 314.5q59 0 60 -49q0 -41 -74 -82q-139 -88 -260 -252q-100 -135 -159 -269q-50 -114 -49 -159q0 -8 1 -14q8 -20 31 -21q94 0 385 312q260 279 438 532q31 51 70 51q61 0 61 -69q0 -39 -33 -78q-211 -246 -458.5 -674t-331.5 -682 q-18 -59 -70 -59q-25 0 -40 15.5t-15 49.5q0 82 125 330t274 471q-109 -109 -217 -215q-131 -113 -239 -113q-45 0 -72 30.5t-27 98.5z" />
<glyph unicode="&#x192;" horiz-adv-x="708" d="M-432 -307q0 49 94 49q121 0 225 108q90 94 205 310q123 242 246 485q-35 -10 -62 -10q-68 0 -67 59q0 23 90 43q55 12 104 21q104 186 209 375q141 207 355 206q61 0 87.5 -10t26.5 -55q0 -31 -24.5 -37t-87.5 -6q-27 0 -64 -1t-67 -20q-72 -43 -148 -166 q-35 -57 -125 -237q37 4 89.5 14t70.5 10q66 0 66 -40q0 -45 -74 -58q-150 -23 -234 -55q-25 -51 -149 -287q-86 -164 -125 -246q-152 -305 -281 -415q-117 -100 -282 -101q-35 0 -56.5 19.5t-21.5 44.5z" />
<glyph unicode="&#x2c6;" horiz-adv-x="628" d="M223 915q0 39 53 82q63 51 144 52q33 0 84 -63.5t51 -108.5t-47 -46q-23 0 -62.5 49.5t-58.5 55.5q-4 0 -70 -35q-35 -18 -53 -18q-41 -1 -41 32z" />
<glyph unicode="&#x2c7;" horiz-adv-x="628" d="M227 1350q0 45 47 45q23 0 63 -49.5t58 -55.5q4 0 70 35q35 18 53 18q41 0 41 -32q0 -39 -53 -82q-63 -51 -144 -51q-33 0 -84 63.5t-51 108.5z" />
<glyph unicode="&#x2da;" horiz-adv-x="565" d="M297 868q0 29 13.5 59.5t43.5 71.5q39 51 81 77t81 26q35 0 56.5 -19.5t21.5 -54.5q0 -57 -62 -125q-45 -49 -89 -73.5t-81 -24.5q-65 0 -65 63zM369 897q0 -25 24 -25q20 0 40 14.5t34 33.5q31 41 31 69q0 27 -23 27q-29 0 -72 -49q-34 -41 -34 -70z" />
<glyph unicode="&#x2dc;" horiz-adv-x="823" d="M190 969q0 49 32 76.5t73 27.5h22q18 -4 40 -8t120 -64q49 -29 72 -28q18 2 56 33.5t52 31.5q20 0 21 -39q0 -47 -35 -87t-92 -40q-53 0 -115 48q-70 45 -86 55q-41 25 -61 24q-14 0 -29.5 -33.5t-38.5 -33.5q-31 0 -31 37z" />
<glyph unicode="&#x2000;" horiz-adv-x="919" />
<glyph unicode="&#x2001;" horiz-adv-x="1839" />
<glyph unicode="&#x2002;" horiz-adv-x="919" />
<glyph unicode="&#x2003;" horiz-adv-x="1839" />
<glyph unicode="&#x2004;" horiz-adv-x="612" />
<glyph unicode="&#x2005;" horiz-adv-x="458" />
<glyph unicode="&#x2006;" horiz-adv-x="305" />
<glyph unicode="&#x2007;" horiz-adv-x="305" />
<glyph unicode="&#x2008;" horiz-adv-x="229" />
<glyph unicode="&#x2009;" horiz-adv-x="366" />
<glyph unicode="&#x200a;" horiz-adv-x="100" />
<glyph unicode="&#x2010;" horiz-adv-x="681" d="M82 403v113h532v-113h-532z" />
<glyph unicode="&#x2011;" horiz-adv-x="681" d="M82 403v113h532v-113h-532z" />
<glyph unicode="&#x2012;" horiz-adv-x="681" d="M82 403v113h532v-113h-532z" />
<glyph unicode="&#x2013;" horiz-adv-x="1032" d="M0 387v129h1032v-129h-1032z" />
<glyph unicode="&#x2014;" horiz-adv-x="2048" d="M0 403v129h2032v-129h-2032z" />
<glyph unicode="&#x2018;" horiz-adv-x="321" d="M240 1079q0 96 105.5 246t172.5 150q45 0 45 -43q-2 -14 -9 -31t-22 -31q-59 -57 -98 -119q-53 -84 -64.5 -167t-62.5 -83q-25 0 -46 22.5t-21 55.5z" />
<glyph unicode="&#x2019;" horiz-adv-x="321" d="M356 1038q-2 25 31 58q63 53 117 166q90 190 131 190q25 0 42 -20.5t17 -61.5q0 -96 -108.5 -233.5t-182.5 -137.5q-47 0 -47 39z" />
<glyph unicode="&#x201c;" horiz-adv-x="466" d="M199 1079q0 96 105.5 246t172.5 150q45 0 45 -43q-2 -14 -9 -31t-21 -31q-59 -57 -99 -119q-53 -84 -64.5 -167t-62.5 -83q-25 0 -46 22.5t-21 55.5zM432 1090q0 96 105.5 245.5t173.5 149.5q45 0 45 -43q-2 -14 -9.5 -30.5t-21.5 -31.5q-59 -57 -98 -118 q-53 -84 -64.5 -167t-62.5 -83q-25 0 -46.5 22.5t-21.5 55.5z" />
<glyph unicode="&#x201d;" horiz-adv-x="483" d="M289 1036q-2 25 30 58q63 53 117 166q90 190 131 190q25 0 42.5 -20.5t17.5 -61.5q0 -96 -108.5 -233.5t-182.5 -137.5q-47 0 -47 39zM537 1036q-2 25 30 58q63 53 117 166q90 190 131 190q25 0 42 -20.5t17 -61.5q0 -96 -108.5 -233.5t-181.5 -137.5q-47 0 -47 39z" />
<glyph unicode="&#x202f;" horiz-adv-x="366" />
<glyph unicode="&#x205f;" horiz-adv-x="458" />
<glyph unicode="&#x2122;" horiz-adv-x="1689" d="M121 633q0 82 170 381q72 125 145 252q-53 -8 -111.5 -25.5t-68.5 -17.5q-27 0 -45 16t-18 43t43 53.5t98 34.5q96 27 229 44.5t266 17.5q47 0 69 -18.5t22 -41.5q0 -35 -95.5 -56.5t-203.5 -21.5q-12 14 -23 31q-2 -8 -2 -16q0 -20 -29 -66q-47 -76 -49 -78 q-94 -170 -143 -264q-94 -178 -121 -278q-10 -43 -27.5 -58.5t-42.5 -15.5q-23 0 -43 24.5t-20 59.5zM612 567q0 20 17.5 58.5t34.5 72.5q55 115 129 240q90 154 168 256q100 127 153 174q43 39 70 39q25 0 42 -14.5t19 -42.5l-8 -39q-12 -37 -45 -103q-100 -199 -113 -227 l140 201q90 133 161 198q55 51 86 52q27 0 41.5 -17.5t14.5 -44.5q0 -45 -62 -156q-43 -76 -84 -149q-57 -117 -90 -195q-59 -141 -65 -200l2 -35q0 -96 -56 -96q-12 0 -46 4t-34 90q0 53 21.5 128t44.5 118l37 75l-127 -186q-23 -35 -48.5 -51.5t-47.5 -16.5q-63 6 -64 76 q0 72 23.5 151t64.5 165q27 45 41 73q29 53 41 84l47 -37q-59 -47 -188 -272q-106 -184 -168 -319q-33 -70 -49.5 -88.5t-48.5 -18.5q-29 0 -41.5 14t-12.5 39z" />
<glyph unicode="&#x2215;" horiz-adv-x="1218" d="M72 41q-2 35 39 76q123 211 233 385q63 100 236 356q76 113 202 299q55 74 113 148q90 106 135 106q27 0 44.5 -23.5t17.5 -41.5q0 -12 -147.5 -184.5t-362.5 -510.5q-168 -262 -342 -567q-20 -37 -41 -69.5t-45 -34.5q-41 0 -61.5 16t-20.5 45z" />
<glyph unicode="&#xe000;" horiz-adv-x="710" d="M0 710h710v-710h-710v710z" />
<glyph unicode="&#xf001;" horiz-adv-x="407" d="M29 266q0 59 169 214t236 155q20 0 35.5 -11.5t15.5 -29.5q0 -23 -30.5 -70t-61.5 -92l-43 -80l29 2q31 0 44 -10t7 -35q-6 -27 -30.5 -35t-88.5 -8q-49 -84 -82 -190q-18 -57 -47 -58q-45 0 -45 45q0 39 37 121q16 35 35 72q-35 0 -82 -12.5t-61 -12.5q-37 0 -37 35z M156 328l98 12q20 41 47 90q4 8 47 78q-88 -61 -192 -180z" />
</font>
</defs>
</svg>
