<?xml version="1.0" standalone="no"?>
<!DOCTYPE svg PUBLIC "-//W3C//DTD SVG 1.1//EN" "http://www.w3.org/Graphics/SVG/1.1/DTD/svg11.dtd" >
<svg xmlns="http://www.w3.org/2000/svg">
<metadata>
This is a custom SVG webfont generated by Font Squirrel.
Designer    : Siripatsorn Sirilai
Foundry     : Siripatsorn Sirilai
</metadata>
<defs>
<font id="PahntoRegular" horiz-adv-x="0" >
<font-face units-per-em="2048" ascent="1638" descent="-410" />
<missing-glyph horiz-adv-x="706" />
<glyph unicode="A&#x300;" horiz-adv-x="877" d="M110 26q-1 42 0 82v76q1 76 9.5 149.5t25.5 147t49 153.5q14 36 29.5 67t34 59t42 52.5t53.5 48.5q15 12 35.5 13t39.5 4q6 1 11 1q12 0 24 -6q17 -9 32 -24.5t28 -36.5t23.5 -41.5t17.5 -38.5l11 -27q50 -130 77.5 -265.5t38.5 -274.5q3 -32 9 -63q3 -18 3 -36 q0 -13 -2 -27q-6 -15 -16 -23t-21 -8t-22.5 6.5t-18.5 20.5q-6 15 -6 28q3 18 14 27.5t24 10t24.5 -7.5t16.5 -26q1 0 1 -1q0 -2 1 -3l-76 -15q2 23 -1 44t-5 44q-2 33 -3 66t-5 65q0 3 0.5 -1t1 -9t0.5 -8.5t0 -1.5q-10 88 -26.5 173t-40.5 170q-3 9 -8.5 29.5t-13.5 45.5 t-18.5 51.5t-22 48.5t-25 36.5t-26.5 15.5h-8q-30 0 -56 -20q-29 -23 -52 -56t-39.5 -69.5t-26.5 -61.5q-30 -75 -51 -155.5t-34 -160.5q-4 -26 -4.5 -53.5t-4.5 -53.5q0 -3 0 1v11v11q0 4 0 1q-2 -46 -2 -91t-2 -92zM136 205q42 -13 87 -18t90 -6h36l54 1q45 2 89 1h32 q22 0 48 1.5t48.5 6t31.5 13.5q12 15 12 30q0 17 -11 28q-10 10 -26 11h-2l-30 -12q-2 -2 0.5 -1.5t6 3t8 5t6.5 4.5q3 2 -2.5 -0.5t-9.5 -3.5l-35 -6q-17 -3 -24.5 -4.5t-14 -2.5t-16 -2t-30.5 -3q-51 -5 -101 -6t-101 -3q-35 0 -69 -1h-11q-28 0 -58 4zM208.5 1185.5 q-3.5 15.5 5 23.5t24 6t35.5 -22l133 -172q17 -35 8.5 -42.5t-34.5 15.5l-152 162q-16 14 -19.5 29.5z" />
<glyph unicode="A&#x301;" horiz-adv-x="877" d="M110 26q-1 42 0 82v76q1 76 9.5 149.5t25.5 147t49 153.5q14 36 29.5 67t34 59t42 52.5t53.5 48.5q15 12 35.5 13t39.5 4q6 1 11 1q12 0 24 -6q17 -9 32 -24.5t28 -36.5t23.5 -41.5t17.5 -38.5l11 -27q50 -130 77.5 -265.5t38.5 -274.5q3 -32 9 -63q3 -18 3 -36 q0 -13 -2 -27q-6 -15 -16 -23t-21 -8t-22.5 6.5t-18.5 20.5q-6 15 -6 28q3 18 14 27.5t24 10t24.5 -7.5t16.5 -26q1 0 1 -1q0 -2 1 -3l-76 -15q2 23 -1 44t-5 44q-2 33 -3 66t-5 65q0 3 0.5 -1t1 -9t0.5 -8.5t0 -1.5q-10 88 -26.5 173t-40.5 170q-3 9 -8.5 29.5t-13.5 45.5 t-18.5 51.5t-22 48.5t-25 36.5t-26.5 15.5h-8q-30 0 -56 -20q-29 -23 -52 -56t-39.5 -69.5t-26.5 -61.5q-30 -75 -51 -155.5t-34 -160.5q-4 -26 -4.5 -53.5t-4.5 -53.5q0 -3 0 1v11v11q0 4 0 1q-2 -46 -2 -91t-2 -92zM136 205q42 -13 87 -18t90 -6h36l54 1q45 2 89 1h32 q22 0 48 1.5t48.5 6t31.5 13.5q12 15 12 30q0 17 -11 28q-10 10 -26 11h-2l-30 -12q-2 -2 0.5 -1.5t6 3t8 5t6.5 4.5q3 2 -2.5 -0.5t-9.5 -3.5l-35 -6q-17 -3 -24.5 -4.5t-14 -2.5t-16 -2t-30.5 -3q-51 -5 -101 -6t-101 -3q-35 0 -69 -1h-11q-28 0 -58 4zM401 999 q-10 7 4 34l131 178q15 18 30 21t24.5 -5t9.5 -22.5t-17 -28.5l-149 -166q-23 -18 -33 -11z" />
<glyph unicode="A&#x303;" horiz-adv-x="877" d="M110 26q-1 42 0 82v76q1 76 9.5 149.5t25.5 147t49 153.5q14 36 29.5 67t34 59t42 52.5t53.5 48.5q15 12 35.5 13t39.5 4q6 1 11 1q12 0 24 -6q17 -9 32 -24.5t28 -36.5t23.5 -41.5t17.5 -38.5l11 -27q50 -130 77.5 -265.5t38.5 -274.5q3 -32 9 -63q3 -18 3 -36 q0 -13 -2 -27q-6 -15 -16 -23t-21 -8t-22.5 6.5t-18.5 20.5q-6 15 -6 28q3 18 14 27.5t24 10t24.5 -7.5t16.5 -26q1 0 1 -1q0 -2 1 -3l-76 -15q2 23 -1 44t-5 44q-2 33 -3 66t-5 65q0 3 0.5 -1t1 -9t0.5 -8.5t0 -1.5q-10 88 -26.5 173t-40.5 170q-3 9 -8.5 29.5t-13.5 45.5 t-18.5 51.5t-22 48.5t-25 36.5t-26.5 15.5h-8q-30 0 -56 -20q-29 -23 -52 -56t-39.5 -69.5t-26.5 -61.5q-30 -75 -51 -155.5t-34 -160.5q-4 -26 -4.5 -53.5t-4.5 -53.5q0 -3 0 1v11v11q0 4 0 1q-2 -46 -2 -91t-2 -92zM136 205q42 -13 87 -18t90 -6h36l54 1q45 2 89 1h32 q22 0 48 1.5t48.5 6t31.5 13.5q12 15 12 30q0 17 -11 28q-10 10 -26 11h-2l-30 -12q-2 -2 0.5 -1.5t6 3t8 5t6.5 4.5q3 2 -2.5 -0.5t-9.5 -3.5l-35 -6q-17 -3 -24.5 -4.5t-14 -2.5t-16 -2t-30.5 -3q-51 -5 -101 -6t-101 -3q-35 0 -69 -1h-11q-28 0 -58 4zM217 1027 q22 20 43.5 31t45 14.5t48 1t52.5 -8.5q18 -3 36 -9t36 -5q13 2 25 6t24 7q3 2 6 3.5t5 3.5q16 13 32 12t26 -11t11 -26t-12 -32q-11 -11 -25.5 -15.5t-28.5 -7.5q-20 -4 -40 -7t-40 1q-31 6 -58 15t-53 14t-52.5 2t-56.5 -22z" />
<glyph unicode="E&#x300;" horiz-adv-x="754" d="M7 601v10q0 34 6 66q7 37 30 69q8 11 23 19.5t32.5 15.5t34.5 11.5t29 6.5q73 16 150 16q2 -1 4 -1q80 0 155 -15q13 -3 25 -8t24 -11t24.5 -11.5t25.5 -7.5l-27 -5q2 2 4 2q17 6 31 2t22 -14q7 -9 7 -23q0 -16 -13 -30q-19 -12 -36.5 -10t-34 9.5t-33.5 17.5t-35 14 q-21 5 -51 9q-32 5 -66 7q-29 2 -58 2h-12q-36 0 -70 -5t-61.5 -13.5t-44.5 -23.5q-11 -10 -15.5 -35.5t-4 -59.5t4 -71.5t8.5 -72.5t9.5 -62.5t7.5 -40.5q5 -30 12 -69t17 -79.5t24 -77t34 -60.5q6 -7 18.5 -10t27 -4.5t27.5 -1.5t19 -1q34 -2 67 -2l45 1q56 2 110 16 l11 -38q-31 -9 -62.5 -14t-63.5 -8q-38 -4 -78 -5h-27q-26 0 -53 1q-36 2 -58.5 14t-37.5 31.5t-25 46t-20 57.5q-7 23 -13 45t-10 45q-8 32 -13 56t-9 45.5t-8 45.5t-9 56l-13 75q-6 39 -7 78zM72 270q-3 7 -3 13q0 13 14 19q25 14 53 23.5t57.5 16.5t59 12.5t57.5 11.5h3 q19 0 30 -10q14 -13 14 -29q0 -12 -8 -23q-9 -13 -30 -17q-38 -2 -77 -4t-78 -9q-2 0 1.5 0.5t8.5 1t8.5 1t1.5 0.5q-8 -2 -20.5 -4.5t-26.5 -5.5t-27 -5q-8 -1 -14 0h-7l14 35l2 -3l-31 -26q0 2 -2 2zM252.5 1183.5q-3.5 15.5 5 23.5t24 6t35.5 -22l133 -172 q17 -35 8.5 -42.5t-34.5 15.5l-152 162q-16 14 -19.5 29.5z" />
<glyph unicode="E&#x301;" horiz-adv-x="754" d="M7 601v10q0 34 6 66q7 37 30 69q8 11 23 19.5t32.5 15.5t34.5 11.5t29 6.5q73 16 150 16q2 -1 4 -1q80 0 155 -15q13 -3 25 -8t24 -11t24.5 -11.5t25.5 -7.5l-27 -5q2 2 4 2q17 6 31 2t22 -14q7 -9 7 -23q0 -16 -13 -30q-19 -12 -36.5 -10t-34 9.5t-33.5 17.5t-35 14 q-21 5 -51 9q-32 5 -66 7q-29 2 -58 2h-12q-36 0 -70 -5t-61.5 -13.5t-44.5 -23.5q-11 -10 -15.5 -35.5t-4 -59.5t4 -71.5t8.5 -72.5t9.5 -62.5t7.5 -40.5q5 -30 12 -69t17 -79.5t24 -77t34 -60.5q6 -7 18.5 -10t27 -4.5t27.5 -1.5t19 -1q34 -2 67 -2l45 1q56 2 110 16 l11 -38q-31 -9 -62.5 -14t-63.5 -8q-38 -4 -78 -5h-27q-26 0 -53 1q-36 2 -58.5 14t-37.5 31.5t-25 46t-20 57.5q-7 23 -13 45t-10 45q-8 32 -13 56t-9 45.5t-8 45.5t-9 56l-13 75q-6 39 -7 78zM72 270q-3 7 -3 13q0 13 14 19q25 14 53 23.5t57.5 16.5t59 12.5t57.5 11.5h3 q19 0 30 -10q14 -13 14 -29q0 -12 -8 -23q-9 -13 -30 -17q-38 -2 -77 -4t-78 -9q-2 0 1.5 0.5t8.5 1t8.5 1t1.5 0.5q-8 -2 -20.5 -4.5t-26.5 -5.5t-27 -5q-8 -1 -14 0h-7l14 35l2 -3l-31 -26q0 2 -2 2zM278 999q-10 7 4 34l131 178q15 18 30 21t24.5 -5t9.5 -22.5t-17 -28.5 l-149 -166q-23 -18 -33 -11z" />
<glyph unicode="I&#x300;" horiz-adv-x="553" d="M87 8l2 39q2 0 18 2t35 4q21 3 48 5q6 3 -3 2.5t-21 -2t-21 -2.5t-3 -1q83 8 165 14.5t165 11.5q18 -5 26 -17q8 -11 8 -22q-1 -14 -11 -26q-10 -11 -27 -14q-54 2 -109 2l-81 -1q-26 -1 -52 -1q-69 0 -139 6zM87 781l2 39q2 0 18 2t35 4q21 3 48 5q6 3 -3 2.5t-21 -2 t-21 -2.5t-3 -1q83 8 165 14.5t165 11.5q18 -4 26 -16q8 -11 8 -23q-1 -14 -11 -26q-10 -11 -27 -14q-54 2 -109 2l-81 -1q-26 -1 -52 -1q-69 0 -139 6zM231 800q3 18 14 28t24 10h2q12 0 22 -8q12 -8 17 -26v-91q0 -147 5 -297q3 -94 3 -188q0 -101 -4 -201l-39 -2 q-11 195 -24 387.5t-20 387.5zM177.5 1229.5q-3.5 15.5 5 23.5t24 6t35.5 -22l133 -172q17 -35 8.5 -42.5t-34.5 15.5l-152 162q-16 14 -19.5 29.5z" />
<glyph unicode="I&#x301;" horiz-adv-x="592" d="M112 8l2 39q2 0 18 2t35 4q21 3 48 5q6 3 -3 2.5t-21 -2t-21 -2.5t-3 -1q83 8 165 14.5t165 11.5q18 -5 26 -17q8 -11 8 -22q-1 -14 -11 -26q-10 -11 -27 -14q-54 2 -109 2l-81 -1q-26 -1 -52 -1q-69 0 -139 6zM112 781l2 39q2 0 18 2t35 4q21 3 48 5q6 3 -3 2.5t-21 -2 t-21 -2.5t-3 -1q83 8 165 14.5t165 11.5q18 -4 26 -16q8 -11 8 -23q-1 -14 -11 -26q-10 -11 -27 -14q-54 2 -109 2l-81 -1q-26 -1 -52 -1q-69 0 -139 6zM256 800q3 18 14 28t24 10h2q12 0 22 -8q12 -8 17 -26v-91q0 -147 5 -297q3 -94 3 -188q0 -101 -4 -201l-39 -2 q-11 195 -24 387.5t-20 387.5zM316 999q-10 7 4 34l131 178q15 18 30 21t24.5 -5t9.5 -22.5t-17 -28.5l-149 -166q-23 -18 -33 -11z" />
<glyph unicode="O&#x300;" horiz-adv-x="944" d="M74 483q12 86 51 166q22 46 65 84t95 63q53 25 107 35q29 5 54 5q23 0 45 -4q78 -12 142.5 -44t112.5 -80.5t78 -113t39 -141.5q3 -24 2 -48q0 -53 -13 -107q-20 -78 -64 -143.5t-110.5 -108t-151.5 -46.5h-17l-67 6q-42 8 -84 19q-16 9 -22 22t-3.5 25.5t13.5 21.5t29 9 q35 -10 65 -20.5t60 -15.5t61.5 0t69.5 27q59 34 98 93t56 127q12 50 12 101q1 19 -1 39q-6 71 -39 129q-25 47 -64.5 85.5t-88.5 63.5q-48 24 -103 34q-25 4 -51 5q-30 0 -60 -6q-100 -21 -161 -84t-83 -163q-10 -45 -10 -94v-21q2 -61 21.5 -118t55.5 -104t91 -74 q28 -14 58.5 -23.5t59.5 -17.5l-12 -41l-124 41q-88 40 -138 106t-68 146q-11 47 -11 96q0 34 5 69zM323.5 1229.5q-3.5 15.5 5 23.5t24 6t35.5 -22l133 -172q17 -35 8.5 -42.5t-34.5 15.5l-152 162q-16 14 -19.5 29.5z" />
<glyph unicode="O&#x301;" horiz-adv-x="950" d="M74 483q12 86 51 166q22 46 65 84t95 63q53 25 107 35q29 5 54 5q23 0 45 -4q78 -12 142.5 -44t112.5 -80.5t78 -113t39 -141.5q3 -24 2 -48q0 -53 -13 -107q-20 -78 -64 -143.5t-110.5 -108t-151.5 -46.5h-17l-67 6q-42 8 -84 19q-16 9 -22 22t-3.5 25.5t13.5 21.5t29 9 q35 -10 65 -20.5t60 -15.5t61.5 0t69.5 27q59 34 98 93t56 127q12 50 12 101q1 19 -1 39q-6 71 -39 129q-25 47 -64.5 85.5t-88.5 63.5q-48 24 -103 34q-25 4 -51 5q-30 0 -60 -6q-100 -21 -161 -84t-83 -163q-10 -45 -10 -94v-21q2 -61 21.5 -118t55.5 -104t91 -74 q28 -14 58.5 -23.5t59.5 -17.5l-12 -41l-124 41q-88 40 -138 106t-68 146q-11 47 -11 96q0 34 5 69zM489 999q-10 7 4 34l131 178q15 18 30 21t24.5 -5t9.5 -22.5t-17 -28.5l-149 -166q-23 -18 -33 -11z" />
<glyph unicode="O&#x303;" horiz-adv-x="938" d="M74 483q12 86 51 166q22 46 65 84t95 63q53 25 107 35q29 5 54 5q23 0 45 -4q78 -12 142.5 -44t112.5 -80.5t78 -113t39 -141.5q3 -24 2 -48q0 -53 -13 -107q-20 -78 -64 -143.5t-110.5 -108t-151.5 -46.5h-17l-67 6q-42 8 -84 19q-16 9 -22 22t-3.5 25.5t13.5 21.5t29 9 q35 -10 65 -20.5t60 -15.5t61.5 0t69.5 27q59 34 98 93t56 127q12 50 12 101q1 19 -1 39q-6 71 -39 129q-25 47 -64.5 85.5t-88.5 63.5q-48 24 -103 34q-25 4 -51 5q-30 0 -60 -6q-100 -21 -161 -84t-83 -163q-10 -45 -10 -94v-21q2 -61 21.5 -118t55.5 -104t91 -74 q28 -14 58.5 -23.5t59.5 -17.5l-12 -41l-124 41q-88 40 -138 106t-68 146q-11 47 -11 96q0 34 5 69zM283 1027q22 20 43.5 31t45 14.5t48 1t52.5 -8.5q18 -3 36 -9t36 -5q13 2 25 6t24 7q3 2 6 3.5t5 3.5q16 13 32 12t26 -11t11 -26t-12 -32q-11 -11 -25.5 -15.5t-28.5 -7.5 q-20 -4 -40 -7t-40 1q-31 6 -58 15t-53 14t-52.5 2t-56.5 -22z" />
<glyph unicode="U&#x300;" horiz-adv-x="764" d="M92 607q0 119 2 234l39 2q2 -81 4 -166.5t11 -166.5q4 -41 10 -84.5t15.5 -87t24 -84.5t36.5 -78q16 -27 29.5 -43t28.5 -26.5t34 -18.5t47 -20q29 -12 55.5 -8t49.5 18t42 35.5t32 45.5q22 40 32 84q10 43 14 89q3 35 2 72v20q-1 46 -2 90q-1 40 -1 81.5t-1 83.5 t-4 83.5t-10 80.5q-2 21 7.5 33.5t23.5 15.5q4 1 8 1q9 1 19 -5q14 -8 20 -28q13 -74 13 -154q-1 -9 -1 -17q-2 -89 -1 -172q0 -48 -0.5 -99t-6 -101.5t-18.5 -99t-38 -91.5q-31 -52 -71.5 -82.5t-86.5 -39.5q-18 -4 -37 -4q-27 0 -57 8q-50 14 -99 50q-35 26 -60 64 t-42 80.5t-27.5 87t-17.5 83.5q-19 112 -19 228q1 3 1 6zM268.5 1229.5q-3.5 15.5 5 23.5t24 6t35.5 -22l133 -172q17 -35 8.5 -42.5t-34.5 15.5l-152 162q-16 14 -19.5 29.5z" />
<glyph unicode="U&#x301;" horiz-adv-x="813" d="M92 607q0 119 2 234l39 2q2 -81 4 -166.5t11 -166.5q4 -41 10 -84.5t15.5 -87t24 -84.5t36.5 -78q16 -27 29.5 -43t28.5 -26.5t34 -18.5t47 -20q29 -12 55.5 -8t49.5 18t42 35.5t32 45.5q22 40 32 84q10 43 14 89q3 35 2 72v20q-1 46 -2 90q-1 40 -1 81.5t-1 83.5 t-4 83.5t-10 80.5q-2 21 7.5 33.5t23.5 15.5q4 1 8 1q9 1 19 -5q14 -8 20 -28q13 -74 13 -154q-1 -9 -1 -17q-2 -89 -1 -172q0 -48 -0.5 -99t-6 -101.5t-18.5 -99t-38 -91.5q-31 -52 -71.5 -82.5t-86.5 -39.5q-18 -4 -37 -4q-27 0 -57 8q-50 14 -99 50q-35 26 -60 64 t-42 80.5t-27.5 87t-17.5 83.5q-19 112 -19 228q1 3 1 6zM317 999q-10 7 4 34l131 178q15 18 30 21t24.5 -5t9.5 -22.5t-17 -28.5l-149 -166q-23 -18 -33 -11z" />
<glyph unicode="Y&#x301;" horiz-adv-x="799" d="M97 822l31 26q11 -14 18 -29t12 -31t9 -33t9 -33l-2 6t-1.5 5t0.5 1q7 -11 10.5 -23.5t8.5 -24.5q17 -36 36 -71.5t39 -70.5q7 -11 18.5 -28.5t25.5 -35.5t29 -31.5t29 -14.5q13 -2 29 10.5t31 30t27 35t18 25.5q26 38 52 82.5t39 89.5q6 20 10.5 40.5t9.5 41t12.5 39.5 t18.5 37q14 12 28 13h2q14 0 23 -8q10 -7 14 -21q2 -6 2 -12q0 -9 -4 -19q-19 -29 -26.5 -64t-18.5 -68q-21 -60 -58.5 -117t-84.5 -116q-23 -29 -54.5 -53.5t-70.5 -26.5q-12 -1 -24.5 4.5t-24.5 14t-22 18t-17 17.5q-50 60 -86.5 129.5t-61.5 144.5q-5 15 -7.5 31 t-5.5 31.5t-7.5 30.5t-14.5 28zM349 40q6 23 5 53t-1 53q0 67 -3 132q-1 25 -1 50q0 41 3 82l39 2q8 -54 13.5 -108.5t11.5 -110.5q5 -38 10 -81q4 -24 4 -48q0 -17 -2 -33q-5 -15 -15 -23t-21.5 -8t-22.5 6.5t-18 20.5q0 1 -1 1q-2 18 5.5 30.5t19.5 17.5t25.5 0.5 t24.5 -19.5v-1zM368 999q-10 7 4 34l131 178q15 18 30 21t24.5 -5t9.5 -22.5t-17 -28.5l-149 -166q-23 -18 -33 -11z" />
<glyph unicode="a&#x300;" horiz-adv-x="713" d="M59 328q6 35 16.5 70t27.5 66.5t41 58.5t58 46q26 16 58 22q25 5 51 5h13q32 -2 62 -10.5t57 -22.5q19 -10 39 -23t37 -29.5t31 -35.5t21 -40q15 -42 15.5 -92t1.5 -101t8.5 -97.5t37.5 -80.5l-56 8q8 4 16.5 7.5t16.5 6.5q20 7 35 1q14 -7 20 -19q4 -7 4 -16 q0 -6 -2 -12q-4 -16 -22 -26l-29 -11q-15 -3 -25 0t-21 14q-29 35 -41 84t-15.5 102.5t-3.5 107t-4 97.5q-8 21 -27 42t-44.5 39t-55.5 29.5t-60 13.5h-9q-41 0 -71 -16q-34 -18 -58.5 -49t-40 -71t-21.5 -81q-4 -27 -3 -57.5t10 -59.5t24.5 -54.5t39.5 -43.5q37 -27 86 -33 q16 -2 32 -2q32 0 64 8q47 12 86 41t56 73l32 -37q-35 -72 -88.5 -108.5t-112.5 -42.5q-13 -1 -25 -1q-45 0 -91 17q-58 22 -100.5 66t-63.5 107q-13 38 -13 81q0 28 6 59zM152.5 948.5q-3.5 15.5 5 23.5t24 6t35.5 -22l133 -172q17 -35 8.5 -42.5t-34.5 15.5l-152 162 q-16 14 -19.5 29.5z" />
<glyph unicode="a&#x301;" horiz-adv-x="713" d="M59 328q6 35 16.5 70t27.5 66.5t41 58.5t58 46q26 16 58 22q25 5 51 5h13q32 -2 62 -10.5t57 -22.5q19 -10 39 -23t37 -29.5t31 -35.5t21 -40q15 -42 15.5 -92t1.5 -101t8.5 -97.5t37.5 -80.5l-56 8q8 4 16.5 7.5t16.5 6.5q20 7 35 1q14 -7 20 -19q4 -7 4 -16 q0 -6 -2 -12q-4 -16 -22 -26l-29 -11q-15 -3 -25 0t-21 14q-29 35 -41 84t-15.5 102.5t-3.5 107t-4 97.5q-8 21 -27 42t-44.5 39t-55.5 29.5t-60 13.5h-9q-41 0 -71 -16q-34 -18 -58.5 -49t-40 -71t-21.5 -81q-4 -27 -3 -57.5t10 -59.5t24.5 -54.5t39.5 -43.5q37 -27 86 -33 q16 -2 32 -2q32 0 64 8q47 12 86 41t56 73l32 -37q-35 -72 -88.5 -108.5t-112.5 -42.5q-13 -1 -25 -1q-45 0 -91 17q-58 22 -100.5 66t-63.5 107q-13 38 -13 81q0 28 6 59zM335 718q-10 7 4 34l131 178q15 18 30 21t24.5 -5t9.5 -22.5t-17 -28.5l-149 -166q-23 -18 -33 -11z " />
<glyph unicode="a&#x303;" horiz-adv-x="711" d="M59 328q6 35 16.5 70t27.5 66.5t41 58.5t58 46q26 16 58 22q25 5 51 5h13q32 -2 62 -10.5t57 -22.5q19 -10 39 -23t37 -29.5t31 -35.5t21 -40q15 -42 15.5 -92t1.5 -101t8.5 -97.5t37.5 -80.5l-56 8q8 4 16.5 7.5t16.5 6.5q20 7 35 1q14 -7 20 -19q4 -7 4 -16 q0 -6 -2 -12q-4 -16 -22 -26l-29 -11q-15 -3 -25 0t-21 14q-29 35 -41 84t-15.5 102.5t-3.5 107t-4 97.5q-8 21 -27 42t-44.5 39t-55.5 29.5t-60 13.5h-9q-41 0 -71 -16q-34 -18 -58.5 -49t-40 -71t-21.5 -81q-4 -27 -3 -57.5t10 -59.5t24.5 -54.5t39.5 -43.5q37 -27 86 -33 q16 -2 32 -2q32 0 64 8q47 12 86 41t56 73l32 -37q-35 -72 -88.5 -108.5t-112.5 -42.5q-13 -1 -25 -1q-45 0 -91 17q-58 22 -100.5 66t-63.5 107q-13 38 -13 81q0 28 6 59zM212 750q22 20 43.5 31t45 14.5t48 1t52.5 -8.5q18 -3 36 -9t36 -5q13 2 25 6t24 7q3 2 6 3.5t5 3.5 q16 13 32 12t26 -11t11 -26t-12 -32q-11 -11 -25.5 -15.5t-28.5 -7.5q-20 -4 -40 -7t-40 1q-31 6 -58 15t-53 14t-52.5 2t-56.5 -22z" />
<glyph unicode="e&#x300;" horiz-adv-x="750" d="M75 406q15 50 45 93t76 71q39 24 82 32q22 4 44 3q22 0 42 -3q42 -7 81 -27t69 -53q17 -25 32 -56t25.5 -64.5t14.5 -66.5q2 -14 2 -27q0 -18 -3 -34q-4 -18 -16 -24.5t-28 -7t-34 1.5t-33 1q-91 -7 -184 -10t-187 -3l2 39q56 3 108.5 8.5t104.5 10.5t104.5 8.5 t108.5 3.5q-8 36 -15.5 72.5t-22 68.5t-40.5 57t-72 38q-33 10 -61 10q-22 0 -42 -6q-45 -14 -77 -47.5t-49 -81.5q-18 -49 -22 -99q-1 -11 -1 -22q0 -39 10 -76q12 -48 40.5 -82t72.5 -48q20 -6 44 -7q29 0 63 10q31 8 55 24.5t47 35.5q17 6 31 2t21.5 -14t7 -24.5 t-12.5 -28.5q-30 -23 -59.5 -40t-67.5 -29q-45 -15 -84 -15q-15 0 -29 2q-51 8 -90 34.5t-65.5 68.5t-40.5 92q-13 48 -13 100q0 57 16 109zM152.5 948.5q-3.5 15.5 5 23.5t24 6t35.5 -22l133 -172q17 -35 8.5 -42.5t-34.5 15.5l-152 162q-16 14 -19.5 29.5z" />
<glyph unicode="e&#x301;" horiz-adv-x="723" d="M75 406q15 50 45 93t76 71q39 24 82 32q22 4 44 3q22 0 42 -3q42 -7 81 -27t69 -53q17 -25 32 -56t25.5 -64.5t14.5 -66.5q2 -14 2 -27q0 -18 -3 -34q-4 -18 -16 -24.5t-28 -7t-34 1.5t-33 1q-91 -7 -184 -10t-187 -3l2 39q56 3 108.5 8.5t104.5 10.5t104.5 8.5 t108.5 3.5q-8 36 -15.5 72.5t-22 68.5t-40.5 57t-72 38q-33 10 -61 10q-22 0 -42 -6q-45 -14 -77 -47.5t-49 -81.5q-18 -49 -22 -99q-1 -11 -1 -22q0 -39 10 -76q12 -48 40.5 -82t72.5 -48q20 -6 44 -7q29 0 63 10q31 8 55 24.5t47 35.5q17 6 31 2t21.5 -14t7 -24.5 t-12.5 -28.5q-30 -23 -59.5 -40t-67.5 -29q-45 -15 -84 -15q-15 0 -29 2q-51 8 -90 34.5t-65.5 68.5t-40.5 92q-13 48 -13 100q0 57 16 109zM335 718q-10 7 4 34l131 178q15 18 30 21t24.5 -5t9.5 -22.5t-17 -28.5l-149 -166q-23 -18 -33 -11z" />
<glyph unicode="i&#x300;" horiz-adv-x="332" d="M129 678q0 12 8 18t18.5 6t18.5 -6t8 -18l8 -631q-2 -14 -10 -20.5t-17 -5t-17.5 7.5t-10.5 18zM-46.5 1019.5q-3.5 15.5 5 23.5t24 6t35.5 -22l133 -172q17 -35 8.5 -42.5t-34.5 15.5l-152 162q-16 14 -19.5 29.5z" />
<glyph unicode="i&#x301;" horiz-adv-x="332" d="M129 678q0 12 8 18t18.5 6t18.5 -6t8 -18l8 -631q-2 -14 -10 -20.5t-17 -5t-17.5 7.5t-10.5 18zM170 795q-10 7 4 34l131 178q15 18 30 21t24.5 -5t9.5 -22.5t-17 -28.5l-149 -166q-23 -18 -33 -11z" />
<glyph unicode="o&#x300;" horiz-adv-x="698" d="M26 319q2 46 19 90.5t47 79.5q25 29 58 50.5t69.5 36t75.5 21t77 6.5q64 -1 113.5 -23.5t84 -60t54 -86.5t23.5 -103q1 -14 1 -29q0 -40 -8 -81q-11 -56 -37 -107q-20 -39 -60.5 -59.5t-88.5 -30.5t-96.5 -12t-84.5 -3q-21 2 -30.5 14.5t-9 26.5t11.5 25.5t32 12.5 q29 -1 67 -1h7q34 0 68 6q37 6 70 19t53 42q16 23 22.5 48t8.5 52q2 25 2 49q0 20 -1 38q-3 44 -17.5 82t-43 67.5t-75.5 44.5q-38 12 -78 12h-19q-50 -4 -95 -22.5t-82 -50t-59 -72.5q-21 -41 -25 -89q0 -7 -1 -14q0 -42 19 -87q26 -61 74 -91.5t108 -49.5l25 -5 q15 -3 25 -8l-14 -38q-4 2 -5 2q-60 5 -112.5 29.5t-91.5 63.5t-61 91q-20 48 -20 104v10zM211.5 948.5q-3.5 15.5 5 23.5t24 6t35.5 -22l133 -172q17 -35 8.5 -42.5t-34.5 15.5l-152 162q-16 14 -19.5 29.5z" />
<glyph unicode="o&#x301;" horiz-adv-x="700" d="M26 319q2 46 19 90.5t47 79.5q25 29 58 50.5t69.5 36t75.5 21t77 6.5q64 -1 113.5 -23.5t84 -60t54 -86.5t23.5 -103q1 -14 1 -29q0 -40 -8 -81q-11 -56 -37 -107q-20 -39 -60.5 -59.5t-88.5 -30.5t-96.5 -12t-84.5 -3q-21 2 -30.5 14.5t-9 26.5t11.5 25.5t32 12.5 q29 -1 67 -1h7q34 0 68 6q37 6 70 19t53 42q16 23 22.5 48t8.5 52q2 25 2 49q0 20 -1 38q-3 44 -17.5 82t-43 67.5t-75.5 44.5q-38 12 -78 12h-19q-50 -4 -95 -22.5t-82 -50t-59 -72.5q-21 -41 -25 -89q0 -7 -1 -14q0 -42 19 -87q26 -61 74 -91.5t108 -49.5l25 -5 q15 -3 25 -8l-14 -38q-4 2 -5 2q-60 5 -112.5 29.5t-91.5 63.5t-61 91q-20 48 -20 104v10zM335 718q-10 7 4 34l131 178q15 18 30 21t24.5 -5t9.5 -22.5t-17 -28.5l-149 -166q-23 -18 -33 -11z" />
<glyph unicode="o&#x303;" horiz-adv-x="705" d="M26 319q2 46 19 90.5t47 79.5q25 29 58 50.5t69.5 36t75.5 21t77 6.5q64 -1 113.5 -23.5t84 -60t54 -86.5t23.5 -103q1 -14 1 -29q0 -40 -8 -81q-11 -56 -37 -107q-20 -39 -60.5 -59.5t-88.5 -30.5t-96.5 -12t-84.5 -3q-21 2 -30.5 14.5t-9 26.5t11.5 25.5t32 12.5 q29 -1 67 -1h7q34 0 68 6q37 6 70 19t53 42q16 23 22.5 48t8.5 52q2 25 2 49q0 20 -1 38q-3 44 -17.5 82t-43 67.5t-75.5 44.5q-38 12 -78 12h-19q-50 -4 -95 -22.5t-82 -50t-59 -72.5q-21 -41 -25 -89q0 -7 -1 -14q0 -42 19 -87q26 -61 74 -91.5t108 -49.5l25 -5 q15 -3 25 -8l-14 -38q-4 2 -5 2q-60 5 -112.5 29.5t-91.5 63.5t-61 91q-20 48 -20 104v10zM152 750q22 20 43.5 31t45 14.5t48 1t52.5 -8.5q18 -3 36 -9t36 -5q13 2 25 6t24 7q3 2 6 3.5t5 3.5q16 13 32 12t26 -11t11 -26t-12 -32q-11 -11 -25.5 -15.5t-28.5 -7.5 q-20 -4 -40 -7t-40 1q-31 6 -58 15t-53 14t-52.5 2t-56.5 -22z" />
<glyph unicode="u&#x300;" horiz-adv-x="643" d="M54 416v49q0 48 1 96l39 2q2 -69 5 -139t20 -139q5 -21 12.5 -43t18 -42.5t25 -38.5t32.5 -31q19 -13 29 -17t16.5 -5.5t13.5 -2.5t20 -7q1 -1 -1.5 0t-5.5 1.5t-6 1.5t-1 0q30 -10 55 2t51 28t48.5 38.5t37.5 48.5q12 20 17.5 39.5t8 39.5t3.5 40.5t4 41.5q7 45 12 88 q3 27 3 55q0 17 -1 33l67 -6q-7 -41 -7 -82t-2 -83q0 -5 0 2t0.5 17t0.5 17t0 2l-4 -274q0 -26 -1.5 -56.5t3.5 -58.5q-2 -27 -20 -39q-9 -5 -18 -5q-11 0 -25 7q-2 2 -4 2q-13 13 -15 27.5t4.5 25t20 16t30.5 0.5l5 -3l-56 -48q-5 29 -5 71t2.5 85.5t5 82.5t3.5 62 q2 59 3 119.5t12 117.5q3 15 13 23t20 8q1 0 1 1q10 0 19 -7q10 -7 14 -22q0 -29 -1 -48.5t-3 -38t-5.5 -41.5t-8.5 -57q-1 -5 -0.5 -10.5t-1.5 -10.5q-1 -2 -1 1t0.5 7t0.5 7t0 1q-3 -36 -6 -63t-10 -52t-19.5 -49t-34.5 -54q-17 -22 -39 -40t-46 -31q-23 -12 -49 -25.5 t-53 -15.5q-13 -1 -26.5 3.5t-26.5 8.5q-41 14 -71 34.5t-51 48.5t-34.5 63t-22.5 78q-14 71 -15 143zM152.5 948.5q-3.5 15.5 5 23.5t24 6t35.5 -22l133 -172q17 -35 8.5 -42.5t-34.5 15.5l-152 162q-16 14 -19.5 29.5z" />
<glyph unicode="u&#x301;" horiz-adv-x="637" d="M54 416v49q0 48 1 96l39 2q2 -69 5 -139t20 -139q5 -21 12.5 -43t18 -42.5t25 -38.5t32.5 -31q19 -13 29 -17t16.5 -5.5t13.5 -2.5t20 -7q1 -1 -1.5 0t-5.5 1.5t-6 1.5t-1 0q30 -10 55 2t51 28t48.5 38.5t37.5 48.5q12 20 17.5 39.5t8 39.5t3.5 40.5t4 41.5q7 45 12 88 q3 27 3 55q0 17 -1 33l67 -6q-7 -41 -7 -82t-2 -83q0 -5 0 2t0.5 17t0.5 17t0 2l-4 -274q0 -26 -1.5 -56.5t3.5 -58.5q-2 -27 -20 -39q-9 -5 -18 -5q-11 0 -25 7q-2 2 -4 2q-13 13 -15 27.5t4.5 25t20 16t30.5 0.5l5 -3l-56 -48q-5 29 -5 71t2.5 85.5t5 82.5t3.5 62 q2 59 3 119.5t12 117.5q3 15 13 23t20 8q1 0 1 1q10 0 19 -7q10 -7 14 -22q0 -29 -1 -48.5t-3 -38t-5.5 -41.5t-8.5 -57q-1 -5 -0.5 -10.5t-1.5 -10.5q-1 -2 -1 1t0.5 7t0.5 7t0 1q-3 -36 -6 -63t-10 -52t-19.5 -49t-34.5 -54q-17 -22 -39 -40t-46 -31q-23 -12 -49 -25.5 t-53 -15.5q-13 -1 -26.5 3.5t-26.5 8.5q-41 14 -71 34.5t-51 48.5t-34.5 63t-22.5 78q-14 71 -15 143zM290 718q-10 7 4 34l131 178q15 18 30 21t24.5 -5t9.5 -22.5t-17 -28.5l-149 -166q-23 -18 -33 -11z" />
<glyph unicode="y&#x301;" horiz-adv-x="629" d="M24 572l2 4q8 13 19.5 19.5t23 5t21 -10t13.5 -24.5q6 -29 12.5 -59t11.5 -60q0 -3 -1 1.5t-2 10.5l-3 10q-1 4 -1 1q20 -86 55 -162.5t82 -151.5q1 -3 -1 1t-5.5 9.5t-6 9.5t-0.5 1q19 -30 38.5 -58.5t42.5 -56.5l-31 -26q-59 58 -100.5 117t-72 122.5t-53 132 t-43.5 144.5q19 -2 37 -5l36 -6l-2 -4q-12 -14 -26 -17t-25 3t-17 19q-5 8 -5 19q0 5 1 11zM93 -308q-2 5 -2 10q0 9 5 18q6 14 26 21q2 0 -7 -5.5t-17 -16.5q-1 -1 0 1t1 3l51 94l60 108q43 81 86.5 163.5t80 168t64.5 173t42 179.5l39 -4q-2 -24 -2.5 -48.5t-4.5 -48.5 q-13 -81 -39.5 -159.5t-59.5 -155t-70.5 -151t-73.5 -147.5l-54 -111q-3 -7 -10 -25.5t-17 -38.5t-22 -36.5t-25 -19.5q-6 -1 -12 -1q-12 0 -22 6q-13 9 -17 23zM245 718q-10 7 4 34l131 178q15 18 30 21t24.5 -5t9.5 -22.5t-17 -28.5l-149 -166q-23 -18 -33 -11z" />
<glyph unicode="I&#x303;" horiz-adv-x="623" d="M112 8l2 39q2 0 18 2t35 4q21 3 48 5q6 3 -3 2.5t-21 -2t-21 -2.5t-3 -1q83 8 165 14.5t165 11.5q18 -5 26 -17q8 -11 8 -22q-1 -14 -11 -26q-10 -11 -27 -14q-54 2 -109 2l-81 -1q-26 -1 -52 -1q-69 0 -139 6zM112 781l2 39q2 0 18 2t35 4q21 3 48 5q6 3 -3 2.5t-21 -2 t-21 -2.5t-3 -1q83 8 165 14.5t165 11.5q18 -4 26 -16q8 -11 8 -23q-1 -14 -11 -26q-10 -11 -27 -14q-54 2 -109 2l-81 -1q-26 -1 -52 -1q-69 0 -139 6zM256 800q3 18 14 28t24 10h2q12 0 22 -8q12 -8 17 -26v-91q0 -147 5 -297q3 -94 3 -188q0 -101 -4 -201l-39 -2 q-11 195 -24 387.5t-20 387.5zM123 1023q15 24 39.5 36.5t54 15.5t61.5 -2t60 -17q13 -6 34.5 -11.5t44 -6.5t43 2t32.5 16q20 16 34.5 5t2.5 -24q-23 -24 -49.5 -32.5t-55 -7.5t-57.5 8.5t-53 15.5q-17 6 -37.5 11t-41 6t-38.5 -5t-33 -24q-20 -21 -34.5 -9.5t-6.5 23.5z " />
<glyph unicode="i&#x303;" horiz-adv-x="522" d="M192 678q0 12 8 18t18.5 6t18.5 -6t8 -18l8 -631q-2 -14 -10 -20.5t-17 -5t-17.5 7.5t-10.5 18zM24 791q15 24 39.5 36.5t54 15.5t61.5 -2t60 -17q13 -6 34.5 -11.5t44 -6.5t43 2t32.5 16q20 16 34.5 5t2.5 -24q-23 -24 -49.5 -32.5t-55 -7.5t-57.5 8.5t-53 15.5 q-17 6 -37.5 11t-41 6t-38.5 -5t-33 -24q-20 -21 -34.5 -9.5t-6.5 23.5z" />
<glyph unicode="U&#x303;" horiz-adv-x="856" d="M92 607q0 119 2 234l39 2q2 -81 4 -166.5t11 -166.5q4 -41 10 -84.5t15.5 -87t24 -84.5t36.5 -78q16 -27 29.5 -43t28.5 -26.5t34 -18.5t47 -20q29 -12 55.5 -8t49.5 18t42 35.5t32 45.5q22 40 32 84q10 43 14 89q3 35 2 72v20q-1 46 -2 90q-1 40 -1 81.5t-1 83.5 t-4 83.5t-10 80.5q-2 21 7.5 33.5t23.5 15.5q4 1 8 1q9 1 19 -5q14 -8 20 -28q13 -74 13 -154q-1 -9 -1 -17q-2 -89 -1 -172q0 -48 -0.5 -99t-6 -101.5t-18.5 -99t-38 -91.5q-31 -52 -71.5 -82.5t-86.5 -39.5q-18 -4 -37 -4q-27 0 -57 8q-50 14 -99 50q-35 26 -60 64 t-42 80.5t-27.5 87t-17.5 83.5q-19 112 -19 228q1 3 1 6zM194 1008q15 24 39.5 36.5t54 15.5t61.5 -2t60 -17q13 -6 34.5 -11.5t44 -6.5t43 2t32.5 16q20 16 34.5 5t2.5 -24q-23 -24 -49.5 -32.5t-55 -7.5t-57.5 8.5t-53 15.5q-17 6 -37.5 11t-41 6t-38.5 -5t-33 -24 q-20 -21 -34.5 -9.5t-6.5 23.5z" />
<glyph unicode="u&#x303;" horiz-adv-x="688" d="M54 416v49q0 48 1 96l39 2q2 -69 5 -139t20 -139q5 -21 12.5 -43t18 -42.5t25 -38.5t32.5 -31q19 -13 29 -17t16.5 -5.5t13.5 -2.5t20 -7q1 -1 -1.5 0t-5.5 1.5t-6 1.5t-1 0q30 -10 55 2t51 28t48.5 38.5t37.5 48.5q12 20 17.5 39.5t8 39.5t3.5 40.5t4 41.5q7 45 12 88 q3 27 3 55q0 17 -1 33l67 -6q-7 -41 -7 -82t-2 -83q0 -5 0 2t0.5 17t0.5 17t0 2l-4 -274q0 -26 -1.5 -56.5t3.5 -58.5q-2 -27 -20 -39q-9 -5 -18 -5q-11 0 -25 7q-2 2 -4 2q-13 13 -15 27.5t4.5 25t20 16t30.5 0.5l5 -3l-56 -48q-5 29 -5 71t2.5 85.5t5 82.5t3.5 62 q2 59 3 119.5t12 117.5q3 15 13 23t20 8q1 0 1 1q10 0 19 -7q10 -7 14 -22q0 -29 -1 -48.5t-3 -38t-5.5 -41.5t-8.5 -57q-1 -5 -0.5 -10.5t-1.5 -10.5q-1 -2 -1 1t0.5 7t0.5 7t0 1q-3 -36 -6 -63t-10 -52t-19.5 -49t-34.5 -54q-17 -22 -39 -40t-46 -31q-23 -12 -49 -25.5 t-53 -15.5q-13 -1 -26.5 3.5t-26.5 8.5q-41 14 -71 34.5t-51 48.5t-34.5 63t-22.5 78q-14 71 -15 143zM90 791q15 24 39.5 36.5t54 15.5t61.5 -2t60 -17q13 -6 34.5 -11.5t44 -6.5t43 2t32.5 16q20 16 34.5 5t2.5 -24q-23 -24 -49.5 -32.5t-55 -7.5t-57.5 8.5t-53 15.5 q-17 6 -37.5 11t-41 6t-38.5 -5t-33 -24q-20 -21 -34.5 -9.5t-6.5 23.5z" />
<glyph unicode="A&#x323;" horiz-adv-x="877" d="M110 26q-1 42 0 82v76q1 76 9.5 149.5t25.5 147t49 153.5q14 36 29.5 67t34 59t42 52.5t53.5 48.5q15 12 35.5 13t39.5 4q6 1 11 1q12 0 24 -6q17 -9 32 -24.5t28 -36.5t23.5 -41.5t17.5 -38.5l11 -27q50 -130 77.5 -265.5t38.5 -274.5q3 -32 9 -63q3 -18 3 -36 q0 -13 -2 -27q-6 -15 -16 -23t-21 -8t-22.5 6.5t-18.5 20.5q-6 15 -6 28q3 18 14 27.5t24 10t24.5 -7.5t16.5 -26q1 0 1 -1q0 -2 1 -3l-76 -15q2 23 -1 44t-5 44q-2 33 -3 66t-5 65q0 3 0.5 -1t1 -9t0.5 -8.5t0 -1.5q-10 88 -26.5 173t-40.5 170q-3 9 -8.5 29.5t-13.5 45.5 t-18.5 51.5t-22 48.5t-25 36.5t-26.5 15.5h-8q-30 0 -56 -20q-29 -23 -52 -56t-39.5 -69.5t-26.5 -61.5q-30 -75 -51 -155.5t-34 -160.5q-4 -26 -4.5 -53.5t-4.5 -53.5q0 -3 0 1v11v11q0 4 0 1q-2 -46 -2 -91t-2 -92zM136 205q42 -13 87 -18t90 -6h36l54 1q45 2 89 1h32 q22 0 48 1.5t48.5 6t31.5 13.5q12 15 12 30q0 17 -11 28q-10 10 -26 11h-2l-30 -12q-2 -2 0.5 -1.5t6 3t8 5t6.5 4.5q3 2 -2.5 -0.5t-9.5 -3.5l-35 -6q-17 -3 -24.5 -4.5t-14 -2.5t-16 -2t-30.5 -3q-51 -5 -101 -6t-101 -3q-35 0 -69 -1h-11q-28 0 -58 4zM393 -152 q0 19 15 34.5t36 15.5q18 0 34.5 -15.5t16.5 -34.5q0 -20 -16.5 -35.5t-34.5 -15.5q-21 0 -36 15.5t-15 35.5z" />
<glyph unicode="a&#x323;" horiz-adv-x="731" d="M59 328q6 35 16.5 70t27.5 66.5t41 58.5t58 46q26 16 58 22q25 5 51 5h13q32 -2 62 -10.5t57 -22.5q19 -10 39 -23t37 -29.5t31 -35.5t21 -40q15 -42 15.5 -92t1.5 -101t8.5 -97.5t37.5 -80.5l-56 8q8 4 16.5 7.5t16.5 6.5q20 7 35 1q14 -7 20 -19q4 -7 4 -16 q0 -6 -2 -12q-4 -16 -22 -26l-29 -11q-15 -3 -25 0t-21 14q-29 35 -41 84t-15.5 102.5t-3.5 107t-4 97.5q-8 21 -27 42t-44.5 39t-55.5 29.5t-60 13.5h-9q-41 0 -71 -16q-34 -18 -58.5 -49t-40 -71t-21.5 -81q-4 -27 -3 -57.5t10 -59.5t24.5 -54.5t39.5 -43.5q37 -27 86 -33 q16 -2 32 -2q32 0 64 8q47 12 86 41t56 73l32 -37q-35 -72 -88.5 -108.5t-112.5 -42.5q-13 -1 -25 -1q-45 0 -91 17q-58 22 -100.5 66t-63.5 107q-13 38 -13 81q0 28 6 59zM320 -152q0 19 15 34.5t36 15.5q18 0 34.5 -15.5t16.5 -34.5q0 -20 -16.5 -35.5t-34.5 -15.5 q-21 0 -36 15.5t-15 35.5z" />
<glyph unicode="A&#x309;" horiz-adv-x="801" d="M110 26q-1 42 0 82v76q1 76 9.5 149.5t25.5 147t49 153.5q14 36 29.5 67t34 59t42 52.5t53.5 48.5q15 12 35.5 13t39.5 4q6 1 11 1q12 0 24 -6q17 -9 32 -24.5t28 -36.5t23.5 -41.5t17.5 -38.5l11 -27q50 -130 77.5 -265.5t38.5 -274.5q3 -32 9 -63q3 -18 3 -36 q0 -13 -2 -27q-6 -15 -16 -23t-21 -8t-22.5 6.5t-18.5 20.5q-6 15 -6 28q3 18 14 27.5t24 10t24.5 -7.5t16.5 -26q1 0 1 -1q0 -2 1 -3l-76 -15q2 23 -1 44t-5 44q-2 33 -3 66t-5 65q0 3 0.5 -1t1 -9t0.5 -8.5t0 -1.5q-10 88 -26.5 173t-40.5 170q-3 9 -8.5 29.5t-13.5 45.5 t-18.5 51.5t-22 48.5t-25 36.5t-26.5 15.5h-8q-30 0 -56 -20q-29 -23 -52 -56t-39.5 -69.5t-26.5 -61.5q-30 -75 -51 -155.5t-34 -160.5q-4 -26 -4.5 -53.5t-4.5 -53.5q0 -3 0 1v11v11q0 4 0 1q-2 -46 -2 -91t-2 -92zM136 205q42 -13 87 -18t90 -6h36l54 1q45 2 89 1h32 q22 0 48 1.5t48.5 6t31.5 13.5q12 15 12 30q0 17 -11 28q-10 10 -26 11h-2l-30 -12q-2 -2 0.5 -1.5t6 3t8 5t6.5 4.5q3 2 -2.5 -0.5t-9.5 -3.5l-35 -6q-17 -3 -24.5 -4.5t-14 -2.5t-16 -2t-30.5 -3q-51 -5 -101 -6t-101 -3q-35 0 -69 -1h-11q-28 0 -58 4zM282 1177 q12 21 40.5 40t81.5 19q48 0 81.5 -28.5t33.5 -83.5q0 -31 -12 -58.5t-28.5 -49t-33 -38t-26.5 -24.5t-18.5 -7t-13.5 7t-4 15t9 16q39 30 63.5 61t24.5 76q0 53 -27.5 65.5t-50.5 12.5q-28 0 -45.5 -6.5t-28 -15.5t-14.5 -16l-4 -7q-14 -15 -26.5 -3.5t-1.5 25.5z" />
<glyph unicode="a&#x309;" horiz-adv-x="731" d="M59 328q6 35 16.5 70t27.5 66.5t41 58.5t58 46q26 16 58 22q25 5 51 5h13q32 -2 62 -10.5t57 -22.5q19 -10 39 -23t37 -29.5t31 -35.5t21 -40q15 -42 15.5 -92t1.5 -101t8.5 -97.5t37.5 -80.5l-56 8q8 4 16.5 7.5t16.5 6.5q20 7 35 1q14 -7 20 -19q4 -7 4 -16 q0 -6 -2 -12q-4 -16 -22 -26l-29 -11q-15 -3 -25 0t-21 14q-29 35 -41 84t-15.5 102.5t-3.5 107t-4 97.5q-8 21 -27 42t-44.5 39t-55.5 29.5t-60 13.5h-9q-41 0 -71 -16q-34 -18 -58.5 -49t-40 -71t-21.5 -81q-4 -27 -3 -57.5t10 -59.5t24.5 -54.5t39.5 -43.5q37 -27 86 -33 q16 -2 32 -2q32 0 64 8q47 12 86 41t56 73l32 -37q-35 -72 -88.5 -108.5t-112.5 -42.5q-13 -1 -25 -1q-45 0 -91 17q-58 22 -100.5 66t-63.5 107q-13 38 -13 81q0 28 6 59zM246 903q12 21 40.5 40t81.5 19q48 0 81.5 -28.5t33.5 -83.5q0 -31 -12 -58.5t-28.5 -49t-33 -38 t-26.5 -24.5t-18.5 -7t-13.5 7t-4 15t9 16q39 30 63.5 61t24.5 76q0 53 -27.5 65.5t-50.5 12.5q-28 0 -45.5 -6.5t-28 -15.5t-14.5 -16l-4 -7q-14 -15 -26.5 -3.5t-1.5 25.5z" />
<glyph unicode="&#xc2;&#x301;" horiz-adv-x="877" d="M110 26q-1 42 0 82v76q1 76 9.5 149.5t25.5 147t49 153.5q14 36 29.5 67t34 59t42 52.5t53.5 48.5q15 12 35.5 13t39.5 4q6 1 11 1q12 0 24 -6q17 -9 32 -24.5t28 -36.5t23.5 -41.5t17.5 -38.5l11 -27q50 -130 77.5 -265.5t38.5 -274.5q3 -32 9 -63q3 -18 3 -36 q0 -13 -2 -27q-6 -15 -16 -23t-21 -8t-22.5 6.5t-18.5 20.5q-6 15 -6 28q3 18 14 27.5t24 10t24.5 -7.5t16.5 -26q1 0 1 -1q0 -2 1 -3l-76 -15q2 23 -1 44t-5 44q-2 33 -3 66t-5 65q0 3 0.5 -1t1 -9t0.5 -8.5t0 -1.5q-10 88 -26.5 173t-40.5 170q-3 9 -8.5 29.5t-13.5 45.5 t-18.5 51.5t-22 48.5t-25 36.5t-26.5 15.5h-8q-30 0 -56 -20q-29 -23 -52 -56t-39.5 -69.5t-26.5 -61.5q-30 -75 -51 -155.5t-34 -160.5q-4 -26 -4.5 -53.5t-4.5 -53.5q0 -3 0 1v11v11q0 4 0 1q-2 -46 -2 -91t-2 -92zM136 205q42 -13 87 -18t90 -6h36l54 1q45 2 89 1h32 q22 0 48 1.5t48.5 6t31.5 13.5q12 15 12 30q0 17 -11 28q-10 10 -26 11h-2l-30 -12q-2 -2 0.5 -1.5t6 3t8 5t6.5 4.5q3 2 -2.5 -0.5t-9.5 -3.5l-35 -6q-17 -3 -24.5 -4.5t-14 -2.5t-16 -2t-30.5 -3q-51 -5 -101 -6t-101 -3q-35 0 -69 -1h-11q-28 0 -58 4zM234 947 q14 20 31.5 37t34.5 34q14 14 29 27t30 25q9 7 20.5 16t22.5 11q28 5 55.5 -8.5t53 -33.5t50 -40t47.5 -28q15 -11 19.5 -24.5t-0.5 -25.5t-17.5 -19.5t-30.5 -5.5q-21 8 -39.5 27t-35.5 34q-18 16 -29 26.5t-19.5 17t-18 10.5t-24.5 9q-26 -19 -51 -38.5t-51 -39.5 q-6 -5 -13.5 -11t-14.5 -11q-8 -6 -16 -13zM533 1147q-10 7 4 34l131 178q15 18 30 21t24.5 -5t9.5 -22.5t-17 -28.5l-149 -166q-23 -18 -33 -11z" />
<glyph unicode="&#xe2;&#x301;" horiz-adv-x="731" d="M59 328q6 35 16.5 70t27.5 66.5t41 58.5t58 46q26 16 58 22q25 5 51 5h13q32 -2 62 -10.5t57 -22.5q19 -10 39 -23t37 -29.5t31 -35.5t21 -40q15 -42 15.5 -92t1.5 -101t8.5 -97.5t37.5 -80.5l-56 8q8 4 16.5 7.5t16.5 6.5q20 7 35 1q14 -7 20 -19q4 -7 4 -16 q0 -6 -2 -12q-4 -16 -22 -26l-29 -11q-15 -3 -25 0t-21 14q-29 35 -41 84t-15.5 102.5t-3.5 107t-4 97.5q-8 21 -27 42t-44.5 39t-55.5 29.5t-60 13.5h-9q-41 0 -71 -16q-34 -18 -58.5 -49t-40 -71t-21.5 -81q-4 -27 -3 -57.5t10 -59.5t24.5 -54.5t39.5 -43.5q37 -27 86 -33 q16 -2 32 -2q32 0 64 8q47 12 86 41t56 73l32 -37q-35 -72 -88.5 -108.5t-112.5 -42.5q-13 -1 -25 -1q-45 0 -91 17q-58 22 -100.5 66t-63.5 107q-13 38 -13 81q0 28 6 59zM171 752q14 20 31.5 37t34.5 34q14 14 29 27t30 25q9 7 20.5 16t22.5 11q28 5 55.5 -8.5t53 -33.5 t50 -40t47.5 -28q15 -11 19.5 -24.5t-0.5 -25.5t-17.5 -19.5t-30.5 -5.5q-21 8 -39.5 27t-35.5 34q-18 16 -29 26.5t-19.5 17t-18 10.5t-24.5 9q-26 -19 -51 -38.5t-51 -39.5q-6 -5 -13.5 -11t-14.5 -11q-8 -6 -16 -13zM508 939q-10 7 4 34l131 178q15 18 30 21t24.5 -5 t9.5 -22.5t-17 -28.5l-149 -166q-23 -18 -33 -11z" />
<glyph unicode="&#xc2;&#x300;" horiz-adv-x="877" d="M110 26q-1 42 0 82v76q1 76 9.5 149.5t25.5 147t49 153.5q14 36 29.5 67t34 59t42 52.5t53.5 48.5q15 12 35.5 13t39.5 4q6 1 11 1q12 0 24 -6q17 -9 32 -24.5t28 -36.5t23.5 -41.5t17.5 -38.5l11 -27q50 -130 77.5 -265.5t38.5 -274.5q3 -32 9 -63q3 -18 3 -36 q0 -13 -2 -27q-6 -15 -16 -23t-21 -8t-22.5 6.5t-18.5 20.5q-6 15 -6 28q3 18 14 27.5t24 10t24.5 -7.5t16.5 -26q1 0 1 -1q0 -2 1 -3l-76 -15q2 23 -1 44t-5 44q-2 33 -3 66t-5 65q0 3 0.5 -1t1 -9t0.5 -8.5t0 -1.5q-10 88 -26.5 173t-40.5 170q-3 9 -8.5 29.5t-13.5 45.5 t-18.5 51.5t-22 48.5t-25 36.5t-26.5 15.5h-8q-30 0 -56 -20q-29 -23 -52 -56t-39.5 -69.5t-26.5 -61.5q-30 -75 -51 -155.5t-34 -160.5q-4 -26 -4.5 -53.5t-4.5 -53.5q0 -3 0 1v11v11q0 4 0 1q-2 -46 -2 -91t-2 -92zM136 205q42 -13 87 -18t90 -6h36l54 1q45 2 89 1h32 q22 0 48 1.5t48.5 6t31.5 13.5q12 15 12 30q0 17 -11 28q-10 10 -26 11h-2l-30 -12q-2 -2 0.5 -1.5t6 3t8 5t6.5 4.5q3 2 -2.5 -0.5t-9.5 -3.5l-35 -6q-17 -3 -24.5 -4.5t-14 -2.5t-16 -2t-30.5 -3q-51 -5 -101 -6t-101 -3q-35 0 -69 -1h-11q-28 0 -58 4zM234 947 q14 20 31.5 37t34.5 34q14 14 29 27t30 25q9 7 20.5 16t22.5 11q28 5 55.5 -8.5t53 -33.5t50 -40t47.5 -28q15 -11 19.5 -24.5t-0.5 -25.5t-17.5 -19.5t-30.5 -5.5q-21 8 -39.5 27t-35.5 34q-18 16 -29 26.5t-19.5 17t-18 10.5t-24.5 9q-26 -19 -51 -38.5t-51 -39.5 q-6 -5 -13.5 -11t-14.5 -11q-8 -6 -16 -13zM387.5 1324.5q-3.5 15.5 5 23.5t24 6t35.5 -22l133 -172q17 -35 8.5 -42.5t-34.5 15.5l-152 162q-16 14 -19.5 29.5z" />
<glyph unicode="&#xe2;&#x300;" horiz-adv-x="731" d="M59 328q6 35 16.5 70t27.5 66.5t41 58.5t58 46q26 16 58 22q25 5 51 5h13q32 -2 62 -10.5t57 -22.5q19 -10 39 -23t37 -29.5t31 -35.5t21 -40q15 -42 15.5 -92t1.5 -101t8.5 -97.5t37.5 -80.5l-56 8q8 4 16.5 7.5t16.5 6.5q20 7 35 1q14 -7 20 -19q4 -7 4 -16 q0 -6 -2 -12q-4 -16 -22 -26l-29 -11q-15 -3 -25 0t-21 14q-29 35 -41 84t-15.5 102.5t-3.5 107t-4 97.5q-8 21 -27 42t-44.5 39t-55.5 29.5t-60 13.5h-9q-41 0 -71 -16q-34 -18 -58.5 -49t-40 -71t-21.5 -81q-4 -27 -3 -57.5t10 -59.5t24.5 -54.5t39.5 -43.5q37 -27 86 -33 q16 -2 32 -2q32 0 64 8q47 12 86 41t56 73l32 -37q-35 -72 -88.5 -108.5t-112.5 -42.5q-13 -1 -25 -1q-45 0 -91 17q-58 22 -100.5 66t-63.5 107q-13 38 -13 81q0 28 6 59zM166 752q14 20 31.5 37t34.5 34q14 14 29 27t30 25q9 7 20.5 16t22.5 11q28 5 55.5 -8.5t53 -33.5 t50 -40t47.5 -28q15 -11 19.5 -24.5t-0.5 -25.5t-17.5 -19.5t-30.5 -5.5q-21 8 -39.5 27t-35.5 34q-18 16 -29 26.5t-19.5 17t-18 10.5t-24.5 9q-26 -19 -51 -38.5t-51 -39.5q-6 -5 -13.5 -11t-14.5 -11q-8 -6 -16 -13zM330.5 1104.5q-3.5 15.5 5 23.5t24 6t35.5 -22 l133 -172q17 -35 8.5 -42.5t-34.5 15.5l-152 162q-16 14 -19.5 29.5z" />
<glyph unicode="&#xc2;&#x309;" horiz-adv-x="877" d="M110 26q-1 42 0 82v76q1 76 9.5 149.5t25.5 147t49 153.5q14 36 29.5 67t34 59t42 52.5t53.5 48.5q15 12 35.5 13t39.5 4q6 1 11 1q12 0 24 -6q17 -9 32 -24.5t28 -36.5t23.5 -41.5t17.5 -38.5l11 -27q50 -130 77.5 -265.5t38.5 -274.5q3 -32 9 -63q3 -18 3 -36 q0 -13 -2 -27q-6 -15 -16 -23t-21 -8t-22.5 6.5t-18.5 20.5q-6 15 -6 28q3 18 14 27.5t24 10t24.5 -7.5t16.5 -26q1 0 1 -1q0 -2 1 -3l-76 -15q2 23 -1 44t-5 44q-2 33 -3 66t-5 65q0 3 0.5 -1t1 -9t0.5 -8.5t0 -1.5q-10 88 -26.5 173t-40.5 170q-3 9 -8.5 29.5t-13.5 45.5 t-18.5 51.5t-22 48.5t-25 36.5t-26.5 15.5h-8q-30 0 -56 -20q-29 -23 -52 -56t-39.5 -69.5t-26.5 -61.5q-30 -75 -51 -155.5t-34 -160.5q-4 -26 -4.5 -53.5t-4.5 -53.5q0 -3 0 1v11v11q0 4 0 1q-2 -46 -2 -91t-2 -92zM136 205q42 -13 87 -18t90 -6h36l54 1q45 2 89 1h32 q22 0 48 1.5t48.5 6t31.5 13.5q12 15 12 30q0 17 -11 28q-10 10 -26 11h-2l-30 -12q-2 -2 0.5 -1.5t6 3t8 5t6.5 4.5q3 2 -2.5 -0.5t-9.5 -3.5l-35 -6q-17 -3 -24.5 -4.5t-14 -2.5t-16 -2t-30.5 -3q-51 -5 -101 -6t-101 -3q-35 0 -69 -1h-11q-28 0 -58 4zM234 947 q14 20 31.5 37t34.5 34q14 14 29 27t30 25q9 7 20.5 16t22.5 11q28 5 55.5 -8.5t53 -33.5t50 -40t47.5 -28q15 -11 19.5 -24.5t-0.5 -25.5t-17.5 -19.5t-30.5 -5.5q-21 8 -39.5 27t-35.5 34q-18 16 -29 26.5t-19.5 17t-18 10.5t-24.5 9q-26 -19 -51 -38.5t-51 -39.5 q-6 -5 -13.5 -11t-14.5 -11q-8 -6 -16 -13zM450 1353q12 21 40.5 40t81.5 19q48 0 81.5 -28.5t33.5 -83.5q0 -31 -12 -58.5t-28.5 -49t-33 -38t-26.5 -24.5t-18.5 -7t-13.5 7t-4 15t9 16q39 30 63.5 61t24.5 76q0 53 -27.5 65.5t-50.5 12.5q-28 0 -45.5 -6.5t-28 -15.5 t-14.5 -16l-4 -7q-14 -15 -26.5 -3.5t-1.5 25.5z" />
<glyph unicode="&#xe2;&#x309;" horiz-adv-x="731" d="M59 328q6 35 16.5 70t27.5 66.5t41 58.5t58 46q26 16 58 22q25 5 51 5h13q32 -2 62 -10.5t57 -22.5q19 -10 39 -23t37 -29.5t31 -35.5t21 -40q15 -42 15.5 -92t1.5 -101t8.5 -97.5t37.5 -80.5l-56 8q8 4 16.5 7.5t16.5 6.5q20 7 35 1q14 -7 20 -19q4 -7 4 -16 q0 -6 -2 -12q-4 -16 -22 -26l-29 -11q-15 -3 -25 0t-21 14q-29 35 -41 84t-15.5 102.5t-3.5 107t-4 97.5q-8 21 -27 42t-44.5 39t-55.5 29.5t-60 13.5h-9q-41 0 -71 -16q-34 -18 -58.5 -49t-40 -71t-21.5 -81q-4 -27 -3 -57.5t10 -59.5t24.5 -54.5t39.5 -43.5q37 -27 86 -33 q16 -2 32 -2q32 0 64 8q47 12 86 41t56 73l32 -37q-35 -72 -88.5 -108.5t-112.5 -42.5q-13 -1 -25 -1q-45 0 -91 17q-58 22 -100.5 66t-63.5 107q-13 38 -13 81q0 28 6 59zM171 752q14 20 31.5 37t34.5 34q14 14 29 27t30 25q9 7 20.5 16t22.5 11q28 5 55.5 -8.5t53 -33.5 t50 -40t47.5 -28q15 -11 19.5 -24.5t-0.5 -25.5t-17.5 -19.5t-30.5 -5.5q-21 8 -39.5 27t-35.5 34q-18 16 -29 26.5t-19.5 17t-18 10.5t-24.5 9q-26 -19 -51 -38.5t-51 -39.5q-6 -5 -13.5 -11t-14.5 -11q-8 -6 -16 -13zM384 1095q12 21 40.5 40t81.5 19q48 0 81.5 -28.5 t33.5 -83.5q0 -31 -12 -58.5t-28.5 -49t-33 -38t-26.5 -24.5t-18.5 -7t-13.5 7t-4 15t9 16q39 30 63.5 61t24.5 76q0 53 -27.5 65.5t-50.5 12.5q-28 0 -45.5 -6.5t-28 -15.5t-14.5 -16l-4 -7q-14 -15 -26.5 -3.5t-1.5 25.5z" />
<glyph unicode="&#xc2;&#x303;" horiz-adv-x="877" d="M110 26q-1 42 0 82v76q1 76 9.5 149.5t25.5 147t49 153.5q14 36 29.5 67t34 59t42 52.5t53.5 48.5q15 12 35.5 13t39.5 4q6 1 11 1q12 0 24 -6q17 -9 32 -24.5t28 -36.5t23.5 -41.5t17.5 -38.5l11 -27q50 -130 77.5 -265.5t38.5 -274.5q3 -32 9 -63q3 -18 3 -36 q0 -13 -2 -27q-6 -15 -16 -23t-21 -8t-22.5 6.5t-18.5 20.5q-6 15 -6 28q3 18 14 27.5t24 10t24.5 -7.5t16.5 -26q1 0 1 -1q0 -2 1 -3l-76 -15q2 23 -1 44t-5 44q-2 33 -3 66t-5 65q0 3 0.5 -1t1 -9t0.5 -8.5t0 -1.5q-10 88 -26.5 173t-40.5 170q-3 9 -8.5 29.5t-13.5 45.5 t-18.5 51.5t-22 48.5t-25 36.5t-26.5 15.5h-8q-30 0 -56 -20q-29 -23 -52 -56t-39.5 -69.5t-26.5 -61.5q-30 -75 -51 -155.5t-34 -160.5q-4 -26 -4.5 -53.5t-4.5 -53.5q0 -3 0 1v11v11q0 4 0 1q-2 -46 -2 -91t-2 -92zM136 205q42 -13 87 -18t90 -6h36l54 1q45 2 89 1h32 q22 0 48 1.5t48.5 6t31.5 13.5q12 15 12 30q0 17 -11 28q-10 10 -26 11h-2l-30 -12q-2 -2 0.5 -1.5t6 3t8 5t6.5 4.5q3 2 -2.5 -0.5t-9.5 -3.5l-35 -6q-17 -3 -24.5 -4.5t-14 -2.5t-16 -2t-30.5 -3q-51 -5 -101 -6t-101 -3q-35 0 -69 -1h-11q-28 0 -58 4zM234 947 q14 20 31.5 37t34.5 34q14 14 29 27t30 25q9 7 20.5 16t22.5 11q28 5 55.5 -8.5t53 -33.5t50 -40t47.5 -28q15 -11 19.5 -24.5t-0.5 -25.5t-17.5 -19.5t-30.5 -5.5q-21 8 -39.5 27t-35.5 34q-18 16 -29 26.5t-19.5 17t-18 10.5t-24.5 9q-26 -19 -51 -38.5t-51 -39.5 q-6 -5 -13.5 -11t-14.5 -11q-8 -6 -16 -13zM248 1203q22 20 43.5 31t45 14.5t48 1t52.5 -8.5q18 -3 36 -9t36 -5q13 2 25 6t24 7q3 2 6 3.5t5 3.5q16 13 32 12t26 -11t11 -26t-12 -32q-11 -11 -25.5 -15.5t-28.5 -7.5q-20 -4 -40 -7t-40 1q-31 6 -58 15t-53 14t-52.5 2 t-56.5 -22z" />
<glyph unicode="&#xe2;&#x303;" horiz-adv-x="731" d="M59 328q6 35 16.5 70t27.5 66.5t41 58.5t58 46q26 16 58 22q25 5 51 5h13q32 -2 62 -10.5t57 -22.5q19 -10 39 -23t37 -29.5t31 -35.5t21 -40q15 -42 15.5 -92t1.5 -101t8.5 -97.5t37.5 -80.5l-56 8q8 4 16.5 7.5t16.5 6.5q20 7 35 1q14 -7 20 -19q4 -7 4 -16 q0 -6 -2 -12q-4 -16 -22 -26l-29 -11q-15 -3 -25 0t-21 14q-29 35 -41 84t-15.5 102.5t-3.5 107t-4 97.5q-8 21 -27 42t-44.5 39t-55.5 29.5t-60 13.5h-9q-41 0 -71 -16q-34 -18 -58.5 -49t-40 -71t-21.5 -81q-4 -27 -3 -57.5t10 -59.5t24.5 -54.5t39.5 -43.5q37 -27 86 -33 q16 -2 32 -2q32 0 64 8q47 12 86 41t56 73l32 -37q-35 -72 -88.5 -108.5t-112.5 -42.5q-13 -1 -25 -1q-45 0 -91 17q-58 22 -100.5 66t-63.5 107q-13 38 -13 81q0 28 6 59zM171 752q14 20 31.5 37t34.5 34q14 14 29 27t30 25q9 7 20.5 16t22.5 11q28 5 55.5 -8.5t53 -33.5 t50 -40t47.5 -28q15 -11 19.5 -24.5t-0.5 -25.5t-17.5 -19.5t-30.5 -5.5q-21 8 -39.5 27t-35.5 34q-18 16 -29 26.5t-19.5 17t-18 10.5t-24.5 9q-26 -19 -51 -38.5t-51 -39.5q-6 -5 -13.5 -11t-14.5 -11q-8 -6 -16 -13zM187 985q22 20 43.5 31t45 14.5t48 1t52.5 -8.5 q18 -3 36 -9t36 -5q13 2 25 6t24 7q3 2 6 3.5t5 3.5q16 13 32 12t26 -11t11 -26t-12 -32q-11 -11 -25.5 -15.5t-28.5 -7.5q-20 -4 -40 -7t-40 1q-31 6 -58 15t-53 14t-52.5 2t-56.5 -22z" />
<glyph unicode="&#xc2;&#x323;" horiz-adv-x="877" d="M110 26q-1 42 0 82v76q1 76 9.5 149.5t25.5 147t49 153.5q14 36 29.5 67t34 59t42 52.5t53.5 48.5q15 12 35.5 13t39.5 4q6 1 11 1q12 0 24 -6q17 -9 32 -24.5t28 -36.5t23.5 -41.5t17.5 -38.5l11 -27q50 -130 77.5 -265.5t38.5 -274.5q3 -32 9 -63q3 -18 3 -36 q0 -13 -2 -27q-6 -15 -16 -23t-21 -8t-22.5 6.5t-18.5 20.5q-6 15 -6 28q3 18 14 27.5t24 10t24.5 -7.5t16.5 -26q1 0 1 -1q0 -2 1 -3l-76 -15q2 23 -1 44t-5 44q-2 33 -3 66t-5 65q0 3 0.5 -1t1 -9t0.5 -8.5t0 -1.5q-10 88 -26.5 173t-40.5 170q-3 9 -8.5 29.5t-13.5 45.5 t-18.5 51.5t-22 48.5t-25 36.5t-26.5 15.5h-8q-30 0 -56 -20q-29 -23 -52 -56t-39.5 -69.5t-26.5 -61.5q-30 -75 -51 -155.5t-34 -160.5q-4 -26 -4.5 -53.5t-4.5 -53.5q0 -3 0 1v11v11q0 4 0 1q-2 -46 -2 -91t-2 -92zM136 205q42 -13 87 -18t90 -6h36l54 1q45 2 89 1h32 q22 0 48 1.5t48.5 6t31.5 13.5q12 15 12 30q0 17 -11 28q-10 10 -26 11h-2l-30 -12q-2 -2 0.5 -1.5t6 3t8 5t6.5 4.5q3 2 -2.5 -0.5t-9.5 -3.5l-35 -6q-17 -3 -24.5 -4.5t-14 -2.5t-16 -2t-30.5 -3q-51 -5 -101 -6t-101 -3q-35 0 -69 -1h-11q-28 0 -58 4zM393 -152 q0 19 15 34.5t36 15.5q18 0 34.5 -15.5t16.5 -34.5q0 -20 -16.5 -35.5t-34.5 -15.5q-21 0 -36 15.5t-15 35.5zM234 947q14 20 31.5 37t34.5 34q14 14 29 27t30 25q9 7 20.5 16t22.5 11q28 5 55.5 -8.5t53 -33.5t50 -40t47.5 -28q15 -11 19.5 -24.5t-0.5 -25.5t-17.5 -19.5 t-30.5 -5.5q-21 8 -39.5 27t-35.5 34q-18 16 -29 26.5t-19.5 17t-18 10.5t-24.5 9q-26 -19 -51 -38.5t-51 -39.5q-6 -5 -13.5 -11t-14.5 -11q-8 -6 -16 -13z" />
<glyph unicode="&#xe2;&#x323;" horiz-adv-x="731" d="M59 328q6 35 16.5 70t27.5 66.5t41 58.5t58 46q26 16 58 22q25 5 51 5h13q32 -2 62 -10.5t57 -22.5q19 -10 39 -23t37 -29.5t31 -35.5t21 -40q15 -42 15.5 -92t1.5 -101t8.5 -97.5t37.5 -80.5l-56 8q8 4 16.5 7.5t16.5 6.5q20 7 35 1q14 -7 20 -19q4 -7 4 -16 q0 -6 -2 -12q-4 -16 -22 -26l-29 -11q-15 -3 -25 0t-21 14q-29 35 -41 84t-15.5 102.5t-3.5 107t-4 97.5q-8 21 -27 42t-44.5 39t-55.5 29.5t-60 13.5h-9q-41 0 -71 -16q-34 -18 -58.5 -49t-40 -71t-21.5 -81q-4 -27 -3 -57.5t10 -59.5t24.5 -54.5t39.5 -43.5q37 -27 86 -33 q16 -2 32 -2q32 0 64 8q47 12 86 41t56 73l32 -37q-35 -72 -88.5 -108.5t-112.5 -42.5q-13 -1 -25 -1q-45 0 -91 17q-58 22 -100.5 66t-63.5 107q-13 38 -13 81q0 28 6 59zM320 -152q0 19 15 34.5t36 15.5q18 0 34.5 -15.5t16.5 -34.5q0 -20 -16.5 -35.5t-34.5 -15.5 q-21 0 -36 15.5t-15 35.5zM171 752q14 20 31.5 37t34.5 34q14 14 29 27t30 25q9 7 20.5 16t22.5 11q28 5 55.5 -8.5t53 -33.5t50 -40t47.5 -28q15 -11 19.5 -24.5t-0.5 -25.5t-17.5 -19.5t-30.5 -5.5q-21 8 -39.5 27t-35.5 34q-18 16 -29 26.5t-19.5 17t-18 10.5t-24.5 9 q-26 -19 -51 -38.5t-51 -39.5q-6 -5 -13.5 -11t-14.5 -11q-8 -6 -16 -13z" />
<glyph unicode="&#x102;&#x301;" horiz-adv-x="944" d="M151 26q-1 42 0 82v76q1 76 9.5 149.5t25.5 147t49 153.5q14 36 29.5 67t34 59t42 52.5t53.5 48.5q15 12 35.5 13t39.5 4q6 1 11 1q12 0 24 -6q17 -9 32 -24.5t28 -36.5t23.5 -41.5t17.5 -38.5l11 -27q50 -130 77.5 -265.5t38.5 -274.5q3 -32 9 -63q3 -18 3 -36 q0 -13 -2 -27q-6 -15 -16 -23t-21 -8t-22.5 6.5t-18.5 20.5q-6 15 -6 28q3 18 14 27.5t24 10t24.5 -7.5t16.5 -26q1 0 1 -1q0 -2 1 -3l-76 -15q2 23 -1 44t-5 44q-2 33 -3 66t-5 65q0 3 0.5 -1t1 -9t0.5 -8.5t0 -1.5q-10 88 -26.5 173t-40.5 170q-3 9 -8.5 29.5t-13.5 45.5 t-18.5 51.5t-22 48.5t-25 36.5t-26.5 15.5h-8q-30 0 -56 -20q-29 -23 -52 -56t-39.5 -69.5t-26.5 -61.5q-30 -75 -51 -155.5t-34 -160.5q-4 -26 -4.5 -53.5t-4.5 -53.5q0 -3 0 1v11v11q0 4 0 1q-2 -46 -2 -91t-2 -92zM177 205q42 -13 87 -18t90 -6h36l54 1q45 2 89 1h32 q22 0 48 1.5t48.5 6t31.5 13.5q12 15 12 30q0 17 -11 28q-10 10 -26 11h-2l-30 -12q-2 -2 0.5 -1.5t6 3t8 5t6.5 4.5q3 2 -2.5 -0.5t-9.5 -3.5l-35 -6q-17 -3 -24.5 -4.5t-14 -2.5t-16 -2t-30.5 -3q-51 -5 -101 -6t-101 -3q-35 0 -69 -1h-11q-28 0 -58 4zM255 1135l38 14 q9 -25 15.5 -47t16.5 -41t26.5 -34.5t45.5 -25.5q25 -9 50.5 -10t48 6t41 22.5t29.5 39.5q8 16 12.5 32.5t9.5 32.5q5 12 6 22q0 2 1 6.5t0 2.5q0 -10 -2 -15q-1 -2 -0.5 2t0.5 6q4 21 17 30t27 7.5t25 -13.5t10 -33q1 -67 -30 -112.5t-78.5 -69t-103 -24.5t-102 21 t-76.5 67t-27 114zM457 1147q-10 7 4 34l131 178q15 18 30 21t24.5 -5t9.5 -22.5t-17 -28.5l-149 -166q-23 -18 -33 -11z" />
<glyph unicode="&#x103;&#x301;" horiz-adv-x="731" d="M59 328q6 35 16.5 70t27.5 66.5t41 58.5t58 46q26 16 58 22q25 5 51 5h13q32 -2 62 -10.5t57 -22.5q19 -10 39 -23t37 -29.5t31 -35.5t21 -40q15 -42 15.5 -92t1.5 -101t8.5 -97.5t37.5 -80.5l-56 8q8 4 16.5 7.5t16.5 6.5q20 7 35 1q14 -7 20 -19q4 -7 4 -16 q0 -6 -2 -12q-4 -16 -22 -26l-29 -11q-15 -3 -25 0t-21 14q-29 35 -41 84t-15.5 102.5t-3.5 107t-4 97.5q-8 21 -27 42t-44.5 39t-55.5 29.5t-60 13.5h-9q-41 0 -71 -16q-34 -18 -58.5 -49t-40 -71t-21.5 -81q-4 -27 -3 -57.5t10 -59.5t24.5 -54.5t39.5 -43.5q37 -27 86 -33 q16 -2 32 -2q32 0 64 8q47 12 86 41t56 73l32 -37q-35 -72 -88.5 -108.5t-112.5 -42.5q-13 -1 -25 -1q-45 0 -91 17q-58 22 -100.5 66t-63.5 107q-13 38 -13 81q0 28 6 59zM115 889l38 14q9 -25 15.5 -47t16.5 -41t26.5 -34.5t45.5 -25.5q25 -9 50.5 -10t48 6t41 22.5 t29.5 39.5q8 16 12.5 32.5t9.5 32.5q5 12 6 22q0 2 1 6.5t0 2.5q0 -10 -2 -15q-1 -2 -0.5 2t0.5 6q4 21 17 30t27 7.5t25 -13.5t10 -33q1 -67 -30 -112.5t-78.5 -69t-103 -24.5t-102 21t-76.5 67t-27 114zM322 864q-10 7 4 34l131 178q15 18 30 21t24.5 -5t9.5 -22.5 t-17 -28.5l-149 -166q-23 -18 -33 -11z" />
<glyph unicode="&#x102;&#x300;" horiz-adv-x="944" d="M151 26q-1 42 0 82v76q1 76 9.5 149.5t25.5 147t49 153.5q14 36 29.5 67t34 59t42 52.5t53.5 48.5q15 12 35.5 13t39.5 4q6 1 11 1q12 0 24 -6q17 -9 32 -24.5t28 -36.5t23.5 -41.5t17.5 -38.5l11 -27q50 -130 77.5 -265.5t38.5 -274.5q3 -32 9 -63q3 -18 3 -36 q0 -13 -2 -27q-6 -15 -16 -23t-21 -8t-22.5 6.5t-18.5 20.5q-6 15 -6 28q3 18 14 27.5t24 10t24.5 -7.5t16.5 -26q1 0 1 -1q0 -2 1 -3l-76 -15q2 23 -1 44t-5 44q-2 33 -3 66t-5 65q0 3 0.5 -1t1 -9t0.5 -8.5t0 -1.5q-10 88 -26.5 173t-40.5 170q-3 9 -8.5 29.5t-13.5 45.5 t-18.5 51.5t-22 48.5t-25 36.5t-26.5 15.5h-8q-30 0 -56 -20q-29 -23 -52 -56t-39.5 -69.5t-26.5 -61.5q-30 -75 -51 -155.5t-34 -160.5q-4 -26 -4.5 -53.5t-4.5 -53.5q0 -3 0 1v11v11q0 4 0 1q-2 -46 -2 -91t-2 -92zM177 205q42 -13 87 -18t90 -6h36l54 1q45 2 89 1h32 q22 0 48 1.5t48.5 6t31.5 13.5q12 15 12 30q0 17 -11 28q-10 10 -26 11h-2l-30 -12q-2 -2 0.5 -1.5t6 3t8 5t6.5 4.5q3 2 -2.5 -0.5t-9.5 -3.5l-35 -6q-17 -3 -24.5 -4.5t-14 -2.5t-16 -2t-30.5 -3q-51 -5 -101 -6t-101 -3q-35 0 -69 -1h-11q-28 0 -58 4zM228 1135l38 14 q9 -25 15.5 -47t16.5 -41t26.5 -34.5t45.5 -25.5q25 -9 50.5 -10t48 6t41 22.5t29.5 39.5q8 16 12.5 32.5t9.5 32.5q5 12 6 22q0 2 1 6.5t0 2.5q0 -10 -2 -15q-1 -2 -0.5 2t0.5 6q4 21 17 30t27 7.5t25 -13.5t10 -33q1 -67 -30 -112.5t-78.5 -69t-103 -24.5t-102 21 t-76.5 67t-27 114zM218.5 1382.5q-3.5 15.5 5 23.5t24 6t35.5 -22l133 -172q17 -35 8.5 -42.5t-34.5 15.5l-152 162q-16 14 -19.5 29.5z" />
<glyph unicode="&#x103;&#x300;" horiz-adv-x="731" d="M59 328q6 35 16.5 70t27.5 66.5t41 58.5t58 46q26 16 58 22q25 5 51 5h13q32 -2 62 -10.5t57 -22.5q19 -10 39 -23t37 -29.5t31 -35.5t21 -40q15 -42 15.5 -92t1.5 -101t8.5 -97.5t37.5 -80.5l-56 8q8 4 16.5 7.5t16.5 6.5q20 7 35 1q14 -7 20 -19q4 -7 4 -16 q0 -6 -2 -12q-4 -16 -22 -26l-29 -11q-15 -3 -25 0t-21 14q-29 35 -41 84t-15.5 102.5t-3.5 107t-4 97.5q-8 21 -27 42t-44.5 39t-55.5 29.5t-60 13.5h-9q-41 0 -71 -16q-34 -18 -58.5 -49t-40 -71t-21.5 -81q-4 -27 -3 -57.5t10 -59.5t24.5 -54.5t39.5 -43.5q37 -27 86 -33 q16 -2 32 -2q32 0 64 8q47 12 86 41t56 73l32 -37q-35 -72 -88.5 -108.5t-112.5 -42.5q-13 -1 -25 -1q-45 0 -91 17q-58 22 -100.5 66t-63.5 107q-13 38 -13 81q0 28 6 59zM153 853l38 14q9 -25 15.5 -47t16.5 -41t26.5 -34.5t45.5 -25.5q25 -9 50.5 -10t48 6t41 22.5 t29.5 39.5q8 16 12.5 32.5t9.5 32.5q5 12 6 22q0 2 1 6.5t0 2.5q0 -10 -2 -15q-1 -2 -0.5 2t0.5 6q4 21 17 30t27 7.5t25 -13.5t10 -33q1 -67 -30 -112.5t-78.5 -69t-103 -24.5t-102 21t-76.5 67t-27 114zM152.5 1093.5q-3.5 15.5 5 23.5t24 6t35.5 -22l133 -172 q17 -35 8.5 -42.5t-34.5 15.5l-152 162q-16 14 -19.5 29.5z" />
<glyph unicode="&#x102;&#x309;" horiz-adv-x="944" d="M151 26q-1 42 0 82v76q1 76 9.5 149.5t25.5 147t49 153.5q14 36 29.5 67t34 59t42 52.5t53.5 48.5q15 12 35.5 13t39.5 4q6 1 11 1q12 0 24 -6q17 -9 32 -24.5t28 -36.5t23.5 -41.5t17.5 -38.5l11 -27q50 -130 77.5 -265.5t38.5 -274.5q3 -32 9 -63q3 -18 3 -36 q0 -13 -2 -27q-6 -15 -16 -23t-21 -8t-22.5 6.5t-18.5 20.5q-6 15 -6 28q3 18 14 27.5t24 10t24.5 -7.5t16.5 -26q1 0 1 -1q0 -2 1 -3l-76 -15q2 23 -1 44t-5 44q-2 33 -3 66t-5 65q0 3 0.5 -1t1 -9t0.5 -8.5t0 -1.5q-10 88 -26.5 173t-40.5 170q-3 9 -8.5 29.5t-13.5 45.5 t-18.5 51.5t-22 48.5t-25 36.5t-26.5 15.5h-8q-30 0 -56 -20q-29 -23 -52 -56t-39.5 -69.5t-26.5 -61.5q-30 -75 -51 -155.5t-34 -160.5q-4 -26 -4.5 -53.5t-4.5 -53.5q0 -3 0 1v11v11q0 4 0 1q-2 -46 -2 -91t-2 -92zM177 205q42 -13 87 -18t90 -6h36l54 1q45 2 89 1h32 q22 0 48 1.5t48.5 6t31.5 13.5q12 15 12 30q0 17 -11 28q-10 10 -26 11h-2l-30 -12q-2 -2 0.5 -1.5t6 3t8 5t6.5 4.5q3 2 -2.5 -0.5t-9.5 -3.5l-35 -6q-17 -3 -24.5 -4.5t-14 -2.5t-16 -2t-30.5 -3q-51 -5 -101 -6t-101 -3q-35 0 -69 -1h-11q-28 0 -58 4zM228 1135l38 14 q9 -25 15.5 -47t16.5 -41t26.5 -34.5t45.5 -25.5q25 -9 50.5 -10t48 6t41 22.5t29.5 39.5q8 16 12.5 32.5t9.5 32.5q5 12 6 22q0 2 1 6.5t0 2.5q0 -10 -2 -15q-1 -2 -0.5 2t0.5 6q4 21 17 30t27 7.5t25 -13.5t10 -33q1 -67 -30 -112.5t-78.5 -69t-103 -24.5t-102 21 t-76.5 67t-27 114zM307 1354q12 21 40.5 40t81.5 19q48 0 81.5 -28.5t33.5 -83.5q0 -31 -12 -58.5t-28.5 -49t-33 -38t-26.5 -24.5t-18.5 -7t-13.5 7t-4 15t9 16q39 30 63.5 61t24.5 76q0 53 -27.5 65.5t-50.5 12.5q-28 0 -45.5 -6.5t-28 -15.5t-14.5 -16l-4 -7 q-14 -15 -26.5 -3.5t-1.5 25.5z" />
<glyph unicode="&#x103;&#x309;" horiz-adv-x="731" d="M59 328q6 35 16.5 70t27.5 66.5t41 58.5t58 46q26 16 58 22q25 5 51 5h13q32 -2 62 -10.5t57 -22.5q19 -10 39 -23t37 -29.5t31 -35.5t21 -40q15 -42 15.5 -92t1.5 -101t8.5 -97.5t37.5 -80.5l-56 8q8 4 16.5 7.5t16.5 6.5q20 7 35 1q14 -7 20 -19q4 -7 4 -16 q0 -6 -2 -12q-4 -16 -22 -26l-29 -11q-15 -3 -25 0t-21 14q-29 35 -41 84t-15.5 102.5t-3.5 107t-4 97.5q-8 21 -27 42t-44.5 39t-55.5 29.5t-60 13.5h-9q-41 0 -71 -16q-34 -18 -58.5 -49t-40 -71t-21.5 -81q-4 -27 -3 -57.5t10 -59.5t24.5 -54.5t39.5 -43.5q37 -27 86 -33 q16 -2 32 -2q32 0 64 8q47 12 86 41t56 73l32 -37q-35 -72 -88.5 -108.5t-112.5 -42.5q-13 -1 -25 -1q-45 0 -91 17q-58 22 -100.5 66t-63.5 107q-13 38 -13 81q0 28 6 59zM121 853l38 14q9 -25 15.5 -47t16.5 -41t26.5 -34.5t45.5 -25.5q25 -9 50.5 -10t48 6t41 22.5 t29.5 39.5q8 16 12.5 32.5t9.5 32.5q5 12 6 22q0 2 1 6.5t0 2.5q0 -10 -2 -15q-1 -2 -0.5 2t0.5 6q4 21 17 30t27 7.5t25 -13.5t10 -33q1 -67 -30 -112.5t-78.5 -69t-103 -24.5t-102 21t-76.5 67t-27 114zM218 1095q12 21 40.5 40t81.5 19q48 0 81.5 -28.5t33.5 -83.5 q0 -31 -12 -58.5t-28.5 -49t-33 -38t-26.5 -24.5t-18.5 -7t-13.5 7t-4 15t9 16q39 30 63.5 61t24.5 76q0 53 -27.5 65.5t-50.5 12.5q-28 0 -45.5 -6.5t-28 -15.5t-14.5 -16l-4 -7q-14 -15 -26.5 -3.5t-1.5 25.5z" />
<glyph unicode="&#x102;&#x303;" horiz-adv-x="877" d="M151 26q-1 42 0 82v76q1 76 9.5 149.5t25.5 147t49 153.5q14 36 29.5 67t34 59t42 52.5t53.5 48.5q15 12 35.5 13t39.5 4q6 1 11 1q12 0 24 -6q17 -9 32 -24.5t28 -36.5t23.5 -41.5t17.5 -38.5l11 -27q50 -130 77.5 -265.5t38.5 -274.5q3 -32 9 -63q3 -18 3 -36 q0 -13 -2 -27q-6 -15 -16 -23t-21 -8t-22.5 6.5t-18.5 20.5q-6 15 -6 28q3 18 14 27.5t24 10t24.5 -7.5t16.5 -26q1 0 1 -1q0 -2 1 -3l-76 -15q2 23 -1 44t-5 44q-2 33 -3 66t-5 65q0 3 0.5 -1t1 -9t0.5 -8.5t0 -1.5q-10 88 -26.5 173t-40.5 170q-3 9 -8.5 29.5t-13.5 45.5 t-18.5 51.5t-22 48.5t-25 36.5t-26.5 15.5h-8q-30 0 -56 -20q-29 -23 -52 -56t-39.5 -69.5t-26.5 -61.5q-30 -75 -51 -155.5t-34 -160.5q-4 -26 -4.5 -53.5t-4.5 -53.5q0 -3 0 1v11v11q0 4 0 1q-2 -46 -2 -91t-2 -92zM177 205q42 -13 87 -18t90 -6h36l54 1q45 2 89 1h32 q22 0 48 1.5t48.5 6t31.5 13.5q12 15 12 30q0 17 -11 28q-10 10 -26 11h-2l-30 -12q-2 -2 0.5 -1.5t6 3t8 5t6.5 4.5q3 2 -2.5 -0.5t-9.5 -3.5l-35 -6q-17 -3 -24.5 -4.5t-14 -2.5t-16 -2t-30.5 -3q-51 -5 -101 -6t-101 -3q-35 0 -69 -1h-11q-28 0 -58 4zM228 1119l38 14 q9 -25 15.5 -47t16.5 -41t26.5 -34.5t45.5 -25.5q25 -9 50.5 -10t48 6t41 22.5t29.5 39.5q8 16 12.5 32.5t9.5 32.5q5 12 6 22q0 2 1 6.5t0 2.5q0 -10 -2 -15q-1 -2 -0.5 2t0.5 6q4 21 17 30t27 7.5t25 -13.5t10 -33q1 -67 -30 -112.5t-78.5 -69t-103 -24.5t-102 21 t-76.5 67t-27 114zM246 1234q22 20 43.5 31t45 14.5t48 1t52.5 -8.5q18 -3 36 -9t36 -5q13 2 25 6t24 7q3 2 6 3.5t5 3.5q16 13 32 12t26 -11t11 -26t-12 -32q-11 -11 -25.5 -15.5t-28.5 -7.5q-20 -4 -40 -7t-40 1q-31 6 -58 15t-53 14t-52.5 2t-56.5 -22z" />
<glyph unicode="&#x103;&#x303;" horiz-adv-x="731" d="M59 328q6 35 16.5 70t27.5 66.5t41 58.5t58 46q26 16 58 22q25 5 51 5h13q32 -2 62 -10.5t57 -22.5q19 -10 39 -23t37 -29.5t31 -35.5t21 -40q15 -42 15.5 -92t1.5 -101t8.5 -97.5t37.5 -80.5l-56 8q8 4 16.5 7.5t16.5 6.5q20 7 35 1q14 -7 20 -19q4 -7 4 -16 q0 -6 -2 -12q-4 -16 -22 -26l-29 -11q-15 -3 -25 0t-21 14q-29 35 -41 84t-15.5 102.5t-3.5 107t-4 97.5q-8 21 -27 42t-44.5 39t-55.5 29.5t-60 13.5h-9q-41 0 -71 -16q-34 -18 -58.5 -49t-40 -71t-21.5 -81q-4 -27 -3 -57.5t10 -59.5t24.5 -54.5t39.5 -43.5q37 -27 86 -33 q16 -2 32 -2q32 0 64 8q47 12 86 41t56 73l32 -37q-35 -72 -88.5 -108.5t-112.5 -42.5q-13 -1 -25 -1q-45 0 -91 17q-58 22 -100.5 66t-63.5 107q-13 38 -13 81q0 28 6 59zM121 882l38 14q9 -25 15.5 -47t16.5 -41t26.5 -34.5t45.5 -25.5q25 -9 50.5 -10t48 6t41 22.5 t29.5 39.5q8 16 12.5 32.5t9.5 32.5q5 12 6 22q0 2 1 6.5t0 2.5q0 -10 -2 -15q-1 -2 -0.5 2t0.5 6q4 21 17 30t27 7.5t25 -13.5t10 -33q1 -67 -30 -112.5t-78.5 -69t-103 -24.5t-102 21t-76.5 67t-27 114zM127 985q22 20 43.5 31t45 14.5t48 1t52.5 -8.5q18 -3 36 -9t36 -5 q13 2 25 6t24 7q3 2 6 3.5t5 3.5q16 13 32 12t26 -11t11 -26t-12 -32q-11 -11 -25.5 -15.5t-28.5 -7.5q-20 -4 -40 -7t-40 1q-31 6 -58 15t-53 14t-52.5 2t-56.5 -22z" />
<glyph unicode="&#x102;&#x323;" horiz-adv-x="877" d="M110 26q-1 42 0 82v76q1 76 9.5 149.5t25.5 147t49 153.5q14 36 29.5 67t34 59t42 52.5t53.5 48.5q15 12 35.5 13t39.5 4q6 1 11 1q12 0 24 -6q17 -9 32 -24.5t28 -36.5t23.5 -41.5t17.5 -38.5l11 -27q50 -130 77.5 -265.5t38.5 -274.5q3 -32 9 -63q3 -18 3 -36 q0 -13 -2 -27q-6 -15 -16 -23t-21 -8t-22.5 6.5t-18.5 20.5q-6 15 -6 28q3 18 14 27.5t24 10t24.5 -7.5t16.5 -26q1 0 1 -1q0 -2 1 -3l-76 -15q2 23 -1 44t-5 44q-2 33 -3 66t-5 65q0 3 0.5 -1t1 -9t0.5 -8.5t0 -1.5q-10 88 -26.5 173t-40.5 170q-3 9 -8.5 29.5t-13.5 45.5 t-18.5 51.5t-22 48.5t-25 36.5t-26.5 15.5h-8q-30 0 -56 -20q-29 -23 -52 -56t-39.5 -69.5t-26.5 -61.5q-30 -75 -51 -155.5t-34 -160.5q-4 -26 -4.5 -53.5t-4.5 -53.5q0 -3 0 1v11v11q0 4 0 1q-2 -46 -2 -91t-2 -92zM136 205q42 -13 87 -18t90 -6h36l54 1q45 2 89 1h32 q22 0 48 1.5t48.5 6t31.5 13.5q12 15 12 30q0 17 -11 28q-10 10 -26 11h-2l-30 -12q-2 -2 0.5 -1.5t6 3t8 5t6.5 4.5q3 2 -2.5 -0.5t-9.5 -3.5l-35 -6q-17 -3 -24.5 -4.5t-14 -2.5t-16 -2t-30.5 -3q-51 -5 -101 -6t-101 -3q-35 0 -69 -1h-11q-28 0 -58 4zM393 -152 q0 19 15 34.5t36 15.5q18 0 34.5 -15.5t16.5 -34.5q0 -20 -16.5 -35.5t-34.5 -15.5q-21 0 -36 15.5t-15 35.5zM185 1161l38 14q9 -25 15.5 -47t16.5 -41t26.5 -34.5t45.5 -25.5q25 -9 50.5 -10t48 6t41 22.5t29.5 39.5q8 16 12.5 32.5t9.5 32.5q5 12 6 22q0 2 1 6.5t0 2.5 q0 -10 -2 -15q-1 -2 -0.5 2t0.5 6q4 21 17 30t27 7.5t25 -13.5t10 -33q1 -67 -30 -112.5t-78.5 -69t-103 -24.5t-102 21t-76.5 67t-27 114z" />
<glyph unicode="&#x103;&#x323;" horiz-adv-x="731" d="M59 328q6 35 16.5 70t27.5 66.5t41 58.5t58 46q26 16 58 22q25 5 51 5h13q32 -2 62 -10.5t57 -22.5q19 -10 39 -23t37 -29.5t31 -35.5t21 -40q15 -42 15.5 -92t1.5 -101t8.5 -97.5t37.5 -80.5l-56 8q8 4 16.5 7.5t16.5 6.5q20 7 35 1q14 -7 20 -19q4 -7 4 -16 q0 -6 -2 -12q-4 -16 -22 -26l-29 -11q-15 -3 -25 0t-21 14q-29 35 -41 84t-15.5 102.5t-3.5 107t-4 97.5q-8 21 -27 42t-44.5 39t-55.5 29.5t-60 13.5h-9q-41 0 -71 -16q-34 -18 -58.5 -49t-40 -71t-21.5 -81q-4 -27 -3 -57.5t10 -59.5t24.5 -54.5t39.5 -43.5q37 -27 86 -33 q16 -2 32 -2q32 0 64 8q47 12 86 41t56 73l32 -37q-35 -72 -88.5 -108.5t-112.5 -42.5q-13 -1 -25 -1q-45 0 -91 17q-58 22 -100.5 66t-63.5 107q-13 38 -13 81q0 28 6 59zM289 -152q0 19 15 34.5t36 15.5q18 0 34.5 -15.5t16.5 -34.5q0 -20 -16.5 -35.5t-34.5 -15.5 q-21 0 -36 15.5t-15 35.5zM121 909l38 14q9 -25 15.5 -47t16.5 -41t26.5 -34.5t45.5 -25.5q25 -9 50.5 -10t48 6t41 22.5t29.5 39.5q8 16 12.5 32.5t9.5 32.5q5 12 6 22q0 2 1 6.5t0 2.5q0 -10 -2 -15q-1 -2 -0.5 2t0.5 6q4 21 17 30t27 7.5t25 -13.5t10 -33 q1 -67 -30 -112.5t-78.5 -69t-103 -24.5t-102 21t-76.5 67t-27 114z" />
<glyph unicode="E&#x323;" horiz-adv-x="754" d="M7 601v10q0 34 6 66q7 37 30 69q8 11 23 19.5t32.5 15.5t34.5 11.5t29 6.5q73 16 150 16q2 -1 4 -1q80 0 155 -15q13 -3 25 -8t24 -11t24.5 -11.5t25.5 -7.5l-27 -5q2 2 4 2q17 6 31 2t22 -14q7 -9 7 -23q0 -16 -13 -30q-19 -12 -36.5 -10t-34 9.5t-33.5 17.5t-35 14 q-21 5 -51 9q-32 5 -66 7q-29 2 -58 2h-12q-36 0 -70 -5t-61.5 -13.5t-44.5 -23.5q-11 -10 -15.5 -35.5t-4 -59.5t4 -71.5t8.5 -72.5t9.5 -62.5t7.5 -40.5q5 -30 12 -69t17 -79.5t24 -77t34 -60.5q6 -7 18.5 -10t27 -4.5t27.5 -1.5t19 -1q34 -2 67 -2l45 1q56 2 110 16 l11 -38q-31 -9 -62.5 -14t-63.5 -8q-38 -4 -78 -5h-27q-26 0 -53 1q-36 2 -58.5 14t-37.5 31.5t-25 46t-20 57.5q-7 23 -13 45t-10 45q-8 32 -13 56t-9 45.5t-8 45.5t-9 56l-13 75q-6 39 -7 78zM72 270q-3 7 -3 13q0 13 14 19q25 14 53 23.5t57.5 16.5t59 12.5t57.5 11.5h3 q19 0 30 -10q14 -13 14 -29q0 -12 -8 -23q-9 -13 -30 -17q-38 -2 -77 -4t-78 -9q-2 0 1.5 0.5t8.5 1t8.5 1t1.5 0.5q-8 -2 -20.5 -4.5t-26.5 -5.5t-27 -5q-8 -1 -14 0h-7l14 35l2 -3l-31 -26q0 2 -2 2zM286 -152q0 19 15 34.5t36 15.5q18 0 34.5 -15.5t16.5 -34.5 q0 -20 -16.5 -35.5t-34.5 -15.5q-21 0 -36 15.5t-15 35.5z" />
<glyph unicode="e&#x323;" horiz-adv-x="793" d="M75 406q15 50 45 93t76 71q39 24 82 32q22 4 44 3q22 0 42 -3q42 -7 81 -27t69 -53q17 -25 32 -56t25.5 -64.5t14.5 -66.5q2 -14 2 -27q0 -18 -3 -34q-4 -18 -16 -24.5t-28 -7t-34 1.5t-33 1q-91 -7 -184 -10t-187 -3l2 39q56 3 108.5 8.5t104.5 10.5t104.5 8.5 t108.5 3.5q-8 36 -15.5 72.5t-22 68.5t-40.5 57t-72 38q-33 10 -61 10q-22 0 -42 -6q-45 -14 -77 -47.5t-49 -81.5q-18 -49 -22 -99q-1 -11 -1 -22q0 -39 10 -76q12 -48 40.5 -82t72.5 -48q20 -6 44 -7q29 0 63 10q31 8 55 24.5t47 35.5q17 6 31 2t21.5 -14t7 -24.5 t-12.5 -28.5q-30 -23 -59.5 -40t-67.5 -29q-45 -15 -84 -15q-15 0 -29 2q-51 8 -90 34.5t-65.5 68.5t-40.5 92q-13 48 -13 100q0 57 16 109zM289 -152q0 19 15 34.5t36 15.5q18 0 34.5 -15.5t16.5 -34.5q0 -20 -16.5 -35.5t-34.5 -15.5q-21 0 -36 15.5t-15 35.5z" />
<glyph unicode="E&#x309;" horiz-adv-x="754" d="M7 601v10q0 34 6 66q7 37 30 69q8 11 23 19.5t32.5 15.5t34.5 11.5t29 6.5q73 16 150 16q2 -1 4 -1q80 0 155 -15q13 -3 25 -8t24 -11t24.5 -11.5t25.5 -7.5l-27 -5q2 2 4 2q17 6 31 2t22 -14q7 -9 7 -23q0 -16 -13 -30q-19 -12 -36.5 -10t-34 9.5t-33.5 17.5t-35 14 q-21 5 -51 9q-32 5 -66 7q-29 2 -58 2h-12q-36 0 -70 -5t-61.5 -13.5t-44.5 -23.5q-11 -10 -15.5 -35.5t-4 -59.5t4 -71.5t8.5 -72.5t9.5 -62.5t7.5 -40.5q5 -30 12 -69t17 -79.5t24 -77t34 -60.5q6 -7 18.5 -10t27 -4.5t27.5 -1.5t19 -1q34 -2 67 -2l45 1q56 2 110 16 l11 -38q-31 -9 -62.5 -14t-63.5 -8q-38 -4 -78 -5h-27q-26 0 -53 1q-36 2 -58.5 14t-37.5 31.5t-25 46t-20 57.5q-7 23 -13 45t-10 45q-8 32 -13 56t-9 45.5t-8 45.5t-9 56l-13 75q-6 39 -7 78zM72 270q-3 7 -3 13q0 13 14 19q25 14 53 23.5t57.5 16.5t59 12.5t57.5 11.5h3 q19 0 30 -10q14 -13 14 -29q0 -12 -8 -23q-9 -13 -30 -17q-38 -2 -77 -4t-78 -9q-2 0 1.5 0.5t8.5 1t8.5 1t1.5 0.5q-8 -2 -20.5 -4.5t-26.5 -5.5t-27 -5q-8 -1 -14 0h-7l14 35l2 -3l-31 -26q0 2 -2 2zM233 1177q12 21 40.5 40t81.5 19q48 0 81.5 -28.5t33.5 -83.5 q0 -31 -12 -58.5t-28.5 -49t-33 -38t-26.5 -24.5t-18.5 -7t-13.5 7t-4 15t9 16q39 30 63.5 61t24.5 76q0 53 -27.5 65.5t-50.5 12.5q-28 0 -45.5 -6.5t-28 -15.5t-14.5 -16l-4 -7q-14 -15 -26.5 -3.5t-1.5 25.5z" />
<glyph unicode="e&#x309;" horiz-adv-x="793" d="M75 406q15 50 45 93t76 71q39 24 82 32q22 4 44 3q22 0 42 -3q42 -7 81 -27t69 -53q17 -25 32 -56t25.5 -64.5t14.5 -66.5q2 -14 2 -27q0 -18 -3 -34q-4 -18 -16 -24.5t-28 -7t-34 1.5t-33 1q-91 -7 -184 -10t-187 -3l2 39q56 3 108.5 8.5t104.5 10.5t104.5 8.5 t108.5 3.5q-8 36 -15.5 72.5t-22 68.5t-40.5 57t-72 38q-33 10 -61 10q-22 0 -42 -6q-45 -14 -77 -47.5t-49 -81.5q-18 -49 -22 -99q-1 -11 -1 -22q0 -39 10 -76q12 -48 40.5 -82t72.5 -48q20 -6 44 -7q29 0 63 10q31 8 55 24.5t47 35.5q17 6 31 2t21.5 -14t7 -24.5 t-12.5 -28.5q-30 -23 -59.5 -40t-67.5 -29q-45 -15 -84 -15q-15 0 -29 2q-51 8 -90 34.5t-65.5 68.5t-40.5 92q-13 48 -13 100q0 57 16 109zM218.903 909.812q12.0957 20.2012 40.8232 38.4785q28.7285 18.2773 82.1523 18.2773q48.3828 0 82.1514 -27.416 q33.7676 -27.416 33.7676 -80.3252q0 -29.8213 -12.0957 -56.2754t-28.7285 -47.1367q-16.6318 -20.6826 -33.2637 -36.5547q-16.6318 -15.873 -26.7119 -23.5684q-10.0801 -7.69629 -18.6475 -6.73438q-8.56836 0.961914 -13.6084 6.73438 q-5.04004 5.77148 -4.03125 14.4297q1.00781 8.65723 9.07129 15.3916q39.3125 28.8584 64.0078 58.6797q24.6963 29.8213 24.6963 73.1104q0 50.9844 -27.7197 63.0098q-27.7207 12.0244 -50.9043 12.0244q-28.2236 0 -45.8633 -6.25293 q-17.6406 -6.25293 -28.2246 -14.9102q-10.584 -8.6582 -14.6152 -15.3916l-4.03223 -6.73438q-14.1123 -14.4297 -26.7119 -3.36719q-12.5996 11.0635 -1.51172 24.5312z" />
<glyph unicode="E&#x303;" horiz-adv-x="754" d="M7 601v10q0 34 6 66q7 37 30 69q8 11 23 19.5t32.5 15.5t34.5 11.5t29 6.5q73 16 150 16q2 -1 4 -1q80 0 155 -15q13 -3 25 -8t24 -11t24.5 -11.5t25.5 -7.5l-27 -5q2 2 4 2q17 6 31 2t22 -14q7 -9 7 -23q0 -16 -13 -30q-19 -12 -36.5 -10t-34 9.5t-33.5 17.5t-35 14 q-21 5 -51 9q-32 5 -66 7q-29 2 -58 2h-12q-36 0 -70 -5t-61.5 -13.5t-44.5 -23.5q-11 -10 -15.5 -35.5t-4 -59.5t4 -71.5t8.5 -72.5t9.5 -62.5t7.5 -40.5q5 -30 12 -69t17 -79.5t24 -77t34 -60.5q6 -7 18.5 -10t27 -4.5t27.5 -1.5t19 -1q34 -2 67 -2l45 1q56 2 110 16 l11 -38q-31 -9 -62.5 -14t-63.5 -8q-38 -4 -78 -5h-27q-26 0 -53 1q-36 2 -58.5 14t-37.5 31.5t-25 46t-20 57.5q-7 23 -13 45t-10 45q-8 32 -13 56t-9 45.5t-8 45.5t-9 56l-13 75q-6 39 -7 78zM72 270q-3 7 -3 13q0 13 14 19q25 14 53 23.5t57.5 16.5t59 12.5t57.5 11.5h3 q19 0 30 -10q14 -13 14 -29q0 -12 -8 -23q-9 -13 -30 -17q-38 -2 -77 -4t-78 -9q-2 0 1.5 0.5t8.5 1t8.5 1t1.5 0.5q-8 -2 -20.5 -4.5t-26.5 -5.5t-27 -5q-8 -1 -14 0h-7l14 35l2 -3l-31 -26q0 2 -2 2zM148 967q22 20 43.5 31t45 14.5t48 1t52.5 -8.5q18 -3 36 -9t36 -5 q13 2 25 6t24 7q3 2 6 3.5t5 3.5q16 13 32 12t26 -11t11 -26t-12 -32q-11 -11 -25.5 -15.5t-28.5 -7.5q-20 -4 -40 -7t-40 1q-31 6 -58 15t-53 14t-52.5 2t-56.5 -22z" />
<glyph unicode="e&#x303;" horiz-adv-x="793" d="M75 406q15 50 45 93t76 71q39 24 82 32q22 4 44 3q22 0 42 -3q42 -7 81 -27t69 -53q17 -25 32 -56t25.5 -64.5t14.5 -66.5q2 -14 2 -27q0 -18 -3 -34q-4 -18 -16 -24.5t-28 -7t-34 1.5t-33 1q-91 -7 -184 -10t-187 -3l2 39q56 3 108.5 8.5t104.5 10.5t104.5 8.5 t108.5 3.5q-8 36 -15.5 72.5t-22 68.5t-40.5 57t-72 38q-33 10 -61 10q-22 0 -42 -6q-45 -14 -77 -47.5t-49 -81.5q-18 -49 -22 -99q-1 -11 -1 -22q0 -39 10 -76q12 -48 40.5 -82t72.5 -48q20 -6 44 -7q29 0 63 10q31 8 55 24.5t47 35.5q17 6 31 2t21.5 -14t7 -24.5 t-12.5 -28.5q-30 -23 -59.5 -40t-67.5 -29q-45 -15 -84 -15q-15 0 -29 2q-51 8 -90 34.5t-65.5 68.5t-40.5 92q-13 48 -13 100q0 57 16 109zM152 750q22 20 43.5 31t45 14.5t48 1t52.5 -8.5q18 -3 36 -9t36 -5q13 2 25 6t24 7q3 2 6 3.5t5 3.5q16 13 32 12t26 -11t11 -26 t-12 -32q-11 -11 -25.5 -15.5t-28.5 -7.5q-20 -4 -40 -7t-40 1q-31 6 -58 15t-53 14t-52.5 2t-56.5 -22z" />
<glyph unicode="&#xca;&#x301;" horiz-adv-x="754" d="M7 601v10q0 34 6 66q7 37 30 69q8 11 23 19.5t32.5 15.5t34.5 11.5t29 6.5q73 16 150 16q2 -1 4 -1q80 0 155 -15q13 -3 25 -8t24 -11t24.5 -11.5t25.5 -7.5l-27 -5q2 2 4 2q17 6 31 2t22 -14q7 -9 7 -23q0 -16 -13 -30q-19 -12 -36.5 -10t-34 9.5t-33.5 17.5t-35 14 q-21 5 -51 9q-32 5 -66 7q-29 2 -58 2h-12q-36 0 -70 -5t-61.5 -13.5t-44.5 -23.5q-11 -10 -15.5 -35.5t-4 -59.5t4 -71.5t8.5 -72.5t9.5 -62.5t7.5 -40.5q5 -30 12 -69t17 -79.5t24 -77t34 -60.5q6 -7 18.5 -10t27 -4.5t27.5 -1.5t19 -1q34 -2 67 -2l45 1q56 2 110 16 l11 -38q-31 -9 -62.5 -14t-63.5 -8q-38 -4 -78 -5h-27q-26 0 -53 1q-36 2 -58.5 14t-37.5 31.5t-25 46t-20 57.5q-7 23 -13 45t-10 45q-8 32 -13 56t-9 45.5t-8 45.5t-9 56l-13 75q-6 39 -7 78zM72 270q-3 7 -3 13q0 13 14 19q25 14 53 23.5t57.5 16.5t59 12.5t57.5 11.5h3 q19 0 30 -10q14 -13 14 -29q0 -12 -8 -23q-9 -13 -30 -17q-38 -2 -77 -4t-78 -9q-2 0 1.5 0.5t8.5 1t8.5 1t1.5 0.5q-8 -2 -20.5 -4.5t-26.5 -5.5t-27 -5q-8 -1 -14 0h-7l14 35l2 -3l-31 -26q0 2 -2 2zM165 947q14 20 31.5 37t34.5 34q14 14 29 27t30 25q9 7 20.5 16 t22.5 11q28 5 55.5 -8.5t53 -33.5t50 -40t47.5 -28q15 -11 19.5 -24.5t-0.5 -25.5t-17.5 -19.5t-30.5 -5.5q-21 8 -39.5 27t-35.5 34q-18 16 -29 26.5t-19.5 17t-18 10.5t-24.5 9q-26 -19 -51 -38.5t-51 -39.5q-6 -5 -13.5 -11t-14.5 -11q-8 -6 -16 -13zM481 1147 q-10 7 4 34l131 178q15 18 30 21t24.5 -5t9.5 -22.5t-17 -28.5l-149 -166q-23 -18 -33 -11z" />
<glyph unicode="&#xea;&#x301;" horiz-adv-x="793" d="M75 406q15 50 45 93t76 71q39 24 82 32q22 4 44 3q22 0 42 -3q42 -7 81 -27t69 -53q17 -25 32 -56t25.5 -64.5t14.5 -66.5q2 -14 2 -27q0 -18 -3 -34q-4 -18 -16 -24.5t-28 -7t-34 1.5t-33 1q-91 -7 -184 -10t-187 -3l2 39q56 3 108.5 8.5t104.5 10.5t104.5 8.5 t108.5 3.5q-8 36 -15.5 72.5t-22 68.5t-40.5 57t-72 38q-33 10 -61 10q-22 0 -42 -6q-45 -14 -77 -47.5t-49 -81.5q-18 -49 -22 -99q-1 -11 -1 -22q0 -39 10 -76q12 -48 40.5 -82t72.5 -48q20 -6 44 -7q29 0 63 10q31 8 55 24.5t47 35.5q17 6 31 2t21.5 -14t7 -24.5 t-12.5 -28.5q-30 -23 -59.5 -40t-67.5 -29q-45 -15 -84 -15q-15 0 -29 2q-51 8 -90 34.5t-65.5 68.5t-40.5 92q-13 48 -13 100q0 57 16 109zM178 752q14 20 31.5 37t34.5 34q14 14 29 27t30 25q9 7 20.5 16t22.5 11q28 5 55.5 -8.5t53 -33.5t50 -40t47.5 -28 q15 -11 19.5 -24.5t-0.5 -25.5t-17.5 -19.5t-30.5 -5.5q-21 8 -39.5 27t-35.5 34q-18 16 -29 26.5t-19.5 17t-18 10.5t-24.5 9q-26 -19 -51 -38.5t-51 -39.5q-6 -5 -13.5 -11t-14.5 -11q-8 -6 -16 -13zM517 901q-10 7 4 34l131 178q15 18 30 21t24.5 -5t9.5 -22.5t-17 -28.5 l-149 -166q-23 -18 -33 -11z" />
<glyph unicode="&#xca;&#x300;" horiz-adv-x="754" d="M7 601v10q0 34 6 66q7 37 30 69q8 11 23 19.5t32.5 15.5t34.5 11.5t29 6.5q73 16 150 16q2 -1 4 -1q80 0 155 -15q13 -3 25 -8t24 -11t24.5 -11.5t25.5 -7.5l-27 -5q2 2 4 2q17 6 31 2t22 -14q7 -9 7 -23q0 -16 -13 -30q-19 -12 -36.5 -10t-34 9.5t-33.5 17.5t-35 14 q-21 5 -51 9q-32 5 -66 7q-29 2 -58 2h-12q-36 0 -70 -5t-61.5 -13.5t-44.5 -23.5q-11 -10 -15.5 -35.5t-4 -59.5t4 -71.5t8.5 -72.5t9.5 -62.5t7.5 -40.5q5 -30 12 -69t17 -79.5t24 -77t34 -60.5q6 -7 18.5 -10t27 -4.5t27.5 -1.5t19 -1q34 -2 67 -2l45 1q56 2 110 16 l11 -38q-31 -9 -62.5 -14t-63.5 -8q-38 -4 -78 -5h-27q-26 0 -53 1q-36 2 -58.5 14t-37.5 31.5t-25 46t-20 57.5q-7 23 -13 45t-10 45q-8 32 -13 56t-9 45.5t-8 45.5t-9 56l-13 75q-6 39 -7 78zM72 270q-3 7 -3 13q0 13 14 19q25 14 53 23.5t57.5 16.5t59 12.5t57.5 11.5h3 q19 0 30 -10q14 -13 14 -29q0 -12 -8 -23q-9 -13 -30 -17q-38 -2 -77 -4t-78 -9q-2 0 1.5 0.5t8.5 1t8.5 1t1.5 0.5q-8 -2 -20.5 -4.5t-26.5 -5.5t-27 -5q-8 -1 -14 0h-7l14 35l2 -3l-31 -26q0 2 -2 2zM183 947q14 20 31.5 37t34.5 34q14 14 29 27t30 25q9 7 20.5 16 t22.5 11q28 5 55.5 -8.5t53 -33.5t50 -40t47.5 -28q15 -11 19.5 -24.5t-0.5 -25.5t-17.5 -19.5t-30.5 -5.5q-21 8 -39.5 27t-35.5 34q-18 16 -29 26.5t-19.5 17t-18 10.5t-24.5 9q-26 -19 -51 -38.5t-51 -39.5q-6 -5 -13.5 -11t-14.5 -11q-8 -6 -16 -13zM370.5 1270.5 q-3.5 15.5 5 23.5t24 6t35.5 -22l133 -172q17 -35 8.5 -42.5t-34.5 15.5l-152 162q-16 14 -19.5 29.5z" />
<glyph unicode="&#xea;&#x300;" horiz-adv-x="793" d="M75 406q15 50 45 93t76 71q39 24 82 32q22 4 44 3q22 0 42 -3q42 -7 81 -27t69 -53q17 -25 32 -56t25.5 -64.5t14.5 -66.5q2 -14 2 -27q0 -18 -3 -34q-4 -18 -16 -24.5t-28 -7t-34 1.5t-33 1q-91 -7 -184 -10t-187 -3l2 39q56 3 108.5 8.5t104.5 10.5t104.5 8.5 t108.5 3.5q-8 36 -15.5 72.5t-22 68.5t-40.5 57t-72 38q-33 10 -61 10q-22 0 -42 -6q-45 -14 -77 -47.5t-49 -81.5q-18 -49 -22 -99q-1 -11 -1 -22q0 -39 10 -76q12 -48 40.5 -82t72.5 -48q20 -6 44 -7q29 0 63 10q31 8 55 24.5t47 35.5q17 6 31 2t21.5 -14t7 -24.5 t-12.5 -28.5q-30 -23 -59.5 -40t-67.5 -29q-45 -15 -84 -15q-15 0 -29 2q-51 8 -90 34.5t-65.5 68.5t-40.5 92q-13 48 -13 100q0 57 16 109zM141 752q14 20 31.5 37t34.5 34q14 14 29 27t30 25q9 7 20.5 16t22.5 11q28 5 55.5 -8.5t53 -33.5t50 -40t47.5 -28 q15 -11 19.5 -24.5t-0.5 -25.5t-17.5 -19.5t-30.5 -5.5q-21 8 -39.5 27t-35.5 34q-18 16 -29 26.5t-19.5 17t-18 10.5t-24.5 9q-26 -19 -51 -38.5t-51 -39.5q-6 -5 -13.5 -11t-14.5 -11q-8 -6 -16 -13zM374.5 1052.5q-3.5 15.5 5 23.5t24 6t35.5 -22l133 -172 q17 -35 8.5 -42.5t-34.5 15.5l-152 162q-16 14 -19.5 29.5z" />
<glyph unicode="&#xca;&#x309;" horiz-adv-x="754" d="M7 601v10q0 34 6 66q7 37 30 69q8 11 23 19.5t32.5 15.5t34.5 11.5t29 6.5q73 16 150 16q2 -1 4 -1q80 0 155 -15q13 -3 25 -8t24 -11t24.5 -11.5t25.5 -7.5l-27 -5q2 2 4 2q17 6 31 2t22 -14q7 -9 7 -23q0 -16 -13 -30q-19 -12 -36.5 -10t-34 9.5t-33.5 17.5t-35 14 q-21 5 -51 9q-32 5 -66 7q-29 2 -58 2h-12q-36 0 -70 -5t-61.5 -13.5t-44.5 -23.5q-11 -10 -15.5 -35.5t-4 -59.5t4 -71.5t8.5 -72.5t9.5 -62.5t7.5 -40.5q5 -30 12 -69t17 -79.5t24 -77t34 -60.5q6 -7 18.5 -10t27 -4.5t27.5 -1.5t19 -1q34 -2 67 -2l45 1q56 2 110 16 l11 -38q-31 -9 -62.5 -14t-63.5 -8q-38 -4 -78 -5h-27q-26 0 -53 1q-36 2 -58.5 14t-37.5 31.5t-25 46t-20 57.5q-7 23 -13 45t-10 45q-8 32 -13 56t-9 45.5t-8 45.5t-9 56l-13 75q-6 39 -7 78zM72 270q-3 7 -3 13q0 13 14 19q25 14 53 23.5t57.5 16.5t59 12.5t57.5 11.5h3 q19 0 30 -10q14 -13 14 -29q0 -12 -8 -23q-9 -13 -30 -17q-38 -2 -77 -4t-78 -9q-2 0 1.5 0.5t8.5 1t8.5 1t1.5 0.5q-8 -2 -20.5 -4.5t-26.5 -5.5t-27 -5q-8 -1 -14 0h-7l14 35l2 -3l-31 -26q0 2 -2 2zM182 947q14 20 31.5 37t34.5 34q14 14 29 27t30 25q9 7 20.5 16 t22.5 11q28 5 55.5 -8.5t53 -33.5t50 -40t47.5 -28q15 -11 19.5 -24.5t-0.5 -25.5t-17.5 -19.5t-30.5 -5.5q-21 8 -39.5 27t-35.5 34q-18 16 -29 26.5t-19.5 17t-18 10.5t-24.5 9q-26 -19 -51 -38.5t-51 -39.5q-6 -5 -13.5 -11t-14.5 -11q-8 -6 -16 -13zM372 1362 q12 21 40.5 40t81.5 19q48 0 81.5 -28.5t33.5 -83.5q0 -31 -12 -58.5t-28.5 -49t-33 -38t-26.5 -24.5t-18.5 -7t-13.5 7t-4 15t9 16q39 30 63.5 61t24.5 76q0 53 -27.5 65.5t-50.5 12.5q-28 0 -45.5 -6.5t-28 -15.5t-14.5 -16l-4 -7q-14 -15 -26.5 -3.5t-1.5 25.5z" />
<glyph unicode="&#xea;&#x309;" horiz-adv-x="793" d="M75 406q15 50 45 93t76 71q39 24 82 32q22 4 44 3q22 0 42 -3q42 -7 81 -27t69 -53q17 -25 32 -56t25.5 -64.5t14.5 -66.5q2 -14 2 -27q0 -18 -3 -34q-4 -18 -16 -24.5t-28 -7t-34 1.5t-33 1q-91 -7 -184 -10t-187 -3l2 39q56 3 108.5 8.5t104.5 10.5t104.5 8.5 t108.5 3.5q-8 36 -15.5 72.5t-22 68.5t-40.5 57t-72 38q-33 10 -61 10q-22 0 -42 -6q-45 -14 -77 -47.5t-49 -81.5q-18 -49 -22 -99q-1 -11 -1 -22q0 -39 10 -76q12 -48 40.5 -82t72.5 -48q20 -6 44 -7q29 0 63 10q31 8 55 24.5t47 35.5q17 6 31 2t21.5 -14t7 -24.5 t-12.5 -28.5q-30 -23 -59.5 -40t-67.5 -29q-45 -15 -84 -15q-15 0 -29 2q-51 8 -90 34.5t-65.5 68.5t-40.5 92q-13 48 -13 100q0 57 16 109zM141 752q14 20 31.5 37t34.5 34q14 14 29 27t30 25q9 7 20.5 16t22.5 11q28 5 55.5 -8.5t53 -33.5t50 -40t47.5 -28 q15 -11 19.5 -24.5t-0.5 -25.5t-17.5 -19.5t-30.5 -5.5q-21 8 -39.5 27t-35.5 34q-18 16 -29 26.5t-19.5 17t-18 10.5t-24.5 9q-26 -19 -51 -38.5t-51 -39.5q-6 -5 -13.5 -11t-14.5 -11q-8 -6 -16 -13zM340 1138q12 21 40.5 40t81.5 19q48 0 81.5 -28.5t33.5 -83.5 q0 -31 -12 -58.5t-28.5 -49t-33 -38t-26.5 -24.5t-18.5 -7t-13.5 7t-4 15t9 16q39 30 63.5 61t24.5 76q0 53 -27.5 65.5t-50.5 12.5q-28 0 -45.5 -6.5t-28 -15.5t-14.5 -16l-4 -7q-14 -15 -26.5 -3.5t-1.5 25.5z" />
<glyph unicode="&#xca;&#x303;" horiz-adv-x="754" d="M7 601v10q0 34 6 66q7 37 30 69q8 11 23 19.5t32.5 15.5t34.5 11.5t29 6.5q73 16 150 16q2 -1 4 -1q80 0 155 -15q13 -3 25 -8t24 -11t24.5 -11.5t25.5 -7.5l-27 -5q2 2 4 2q17 6 31 2t22 -14q7 -9 7 -23q0 -16 -13 -30q-19 -12 -36.5 -10t-34 9.5t-33.5 17.5t-35 14 q-21 5 -51 9q-32 5 -66 7q-29 2 -58 2h-12q-36 0 -70 -5t-61.5 -13.5t-44.5 -23.5q-11 -10 -15.5 -35.5t-4 -59.5t4 -71.5t8.5 -72.5t9.5 -62.5t7.5 -40.5q5 -30 12 -69t17 -79.5t24 -77t34 -60.5q6 -7 18.5 -10t27 -4.5t27.5 -1.5t19 -1q34 -2 67 -2l45 1q56 2 110 16 l11 -38q-31 -9 -62.5 -14t-63.5 -8q-38 -4 -78 -5h-27q-26 0 -53 1q-36 2 -58.5 14t-37.5 31.5t-25 46t-20 57.5q-7 23 -13 45t-10 45q-8 32 -13 56t-9 45.5t-8 45.5t-9 56l-13 75q-6 39 -7 78zM72 270q-3 7 -3 13q0 13 14 19q25 14 53 23.5t57.5 16.5t59 12.5t57.5 11.5h3 q19 0 30 -10q14 -13 14 -29q0 -12 -8 -23q-9 -13 -30 -17q-38 -2 -77 -4t-78 -9q-2 0 1.5 0.5t8.5 1t8.5 1t1.5 0.5q-8 -2 -20.5 -4.5t-26.5 -5.5t-27 -5q-8 -1 -14 0h-7l14 35l2 -3l-31 -26q0 2 -2 2zM169 937q14 20 31.5 37t34.5 34q14 14 29 27t30 25q9 7 20.5 16 t22.5 11q28 5 55.5 -8.5t53 -33.5t50 -40t47.5 -28q15 -11 19.5 -24.5t-0.5 -25.5t-17.5 -19.5t-30.5 -5.5q-21 8 -39.5 27t-35.5 34q-18 16 -29 26.5t-19.5 17t-18 10.5t-24.5 9q-26 -19 -51 -38.5t-51 -39.5q-6 -5 -13.5 -11t-14.5 -11q-8 -6 -16 -13zM159 1160 q22 20 43.5 31t45 14.5t48 1t52.5 -8.5q18 -3 36 -9t36 -5q13 2 25 6t24 7q3 2 6 3.5t5 3.5q16 13 32 12t26 -11t11 -26t-12 -32q-11 -11 -25.5 -15.5t-28.5 -7.5q-20 -4 -40 -7t-40 1q-31 6 -58 15t-53 14t-52.5 2t-56.5 -22z" />
<glyph unicode="&#xea;&#x303;" horiz-adv-x="793" d="M75 406q15 50 45 93t76 71q39 24 82 32q22 4 44 3q22 0 42 -3q42 -7 81 -27t69 -53q17 -25 32 -56t25.5 -64.5t14.5 -66.5q2 -14 2 -27q0 -18 -3 -34q-4 -18 -16 -24.5t-28 -7t-34 1.5t-33 1q-91 -7 -184 -10t-187 -3l2 39q56 3 108.5 8.5t104.5 10.5t104.5 8.5 t108.5 3.5q-8 36 -15.5 72.5t-22 68.5t-40.5 57t-72 38q-33 10 -61 10q-22 0 -42 -6q-45 -14 -77 -47.5t-49 -81.5q-18 -49 -22 -99q-1 -11 -1 -22q0 -39 10 -76q12 -48 40.5 -82t72.5 -48q20 -6 44 -7q29 0 63 10q31 8 55 24.5t47 35.5q17 6 31 2t21.5 -14t7 -24.5 t-12.5 -28.5q-30 -23 -59.5 -40t-67.5 -29q-45 -15 -84 -15q-15 0 -29 2q-51 8 -90 34.5t-65.5 68.5t-40.5 92q-13 48 -13 100q0 57 16 109zM154 752q14 20 31.5 37t34.5 34q14 14 29 27t30 25q9 7 20.5 16t22.5 11q28 5 55.5 -8.5t53 -33.5t50 -40t47.5 -28 q15 -11 19.5 -24.5t-0.5 -25.5t-17.5 -19.5t-30.5 -5.5q-21 8 -39.5 27t-35.5 34q-18 16 -29 26.5t-19.5 17t-18 10.5t-24.5 9q-26 -19 -51 -38.5t-51 -39.5q-6 -5 -13.5 -11t-14.5 -11q-8 -6 -16 -13zM156 985q22 20 43.5 31t45 14.5t48 1t52.5 -8.5q18 -3 36 -9t36 -5 q13 2 25 6t24 7q3 2 6 3.5t5 3.5q16 13 32 12t26 -11t11 -26t-12 -32q-11 -11 -25.5 -15.5t-28.5 -7.5q-20 -4 -40 -7t-40 1q-31 6 -58 15t-53 14t-52.5 2t-56.5 -22z" />
<glyph unicode="&#xca;&#x323;" horiz-adv-x="754" d="M7 601v10q0 34 6 66q7 37 30 69q8 11 23 19.5t32.5 15.5t34.5 11.5t29 6.5q73 16 150 16q2 -1 4 -1q80 0 155 -15q13 -3 25 -8t24 -11t24.5 -11.5t25.5 -7.5l-27 -5q2 2 4 2q17 6 31 2t22 -14q7 -9 7 -23q0 -16 -13 -30q-19 -12 -36.5 -10t-34 9.5t-33.5 17.5t-35 14 q-21 5 -51 9q-32 5 -66 7q-29 2 -58 2h-12q-36 0 -70 -5t-61.5 -13.5t-44.5 -23.5q-11 -10 -15.5 -35.5t-4 -59.5t4 -71.5t8.5 -72.5t9.5 -62.5t7.5 -40.5q5 -30 12 -69t17 -79.5t24 -77t34 -60.5q6 -7 18.5 -10t27 -4.5t27.5 -1.5t19 -1q34 -2 67 -2l45 1q56 2 110 16 l11 -38q-31 -9 -62.5 -14t-63.5 -8q-38 -4 -78 -5h-27q-26 0 -53 1q-36 2 -58.5 14t-37.5 31.5t-25 46t-20 57.5q-7 23 -13 45t-10 45q-8 32 -13 56t-9 45.5t-8 45.5t-9 56l-13 75q-6 39 -7 78zM72 270q-3 7 -3 13q0 13 14 19q25 14 53 23.5t57.5 16.5t59 12.5t57.5 11.5h3 q19 0 30 -10q14 -13 14 -29q0 -12 -8 -23q-9 -13 -30 -17q-38 -2 -77 -4t-78 -9q-2 0 1.5 0.5t8.5 1t8.5 1t1.5 0.5q-8 -2 -20.5 -4.5t-26.5 -5.5t-27 -5q-8 -1 -14 0h-7l14 35l2 -3l-31 -26q0 2 -2 2zM286 -152q0 19 15 34.5t36 15.5q18 0 34.5 -15.5t16.5 -34.5 q0 -20 -16.5 -35.5t-34.5 -15.5q-21 0 -36 15.5t-15 35.5zM182 947q14 20 31.5 37t34.5 34q14 14 29 27t30 25q9 7 20.5 16t22.5 11q28 5 55.5 -8.5t53 -33.5t50 -40t47.5 -28q15 -11 19.5 -24.5t-0.5 -25.5t-17.5 -19.5t-30.5 -5.5q-21 8 -39.5 27t-35.5 34 q-18 16 -29 26.5t-19.5 17t-18 10.5t-24.5 9q-26 -19 -51 -38.5t-51 -39.5q-6 -5 -13.5 -11t-14.5 -11q-8 -6 -16 -13z" />
<glyph unicode="&#xea;&#x323;" horiz-adv-x="793" d="M75 406q15 50 45 93t76 71q39 24 82 32q22 4 44 3q22 0 42 -3q42 -7 81 -27t69 -53q17 -25 32 -56t25.5 -64.5t14.5 -66.5q2 -14 2 -27q0 -18 -3 -34q-4 -18 -16 -24.5t-28 -7t-34 1.5t-33 1q-91 -7 -184 -10t-187 -3l2 39q56 3 108.5 8.5t104.5 10.5t104.5 8.5 t108.5 3.5q-8 36 -15.5 72.5t-22 68.5t-40.5 57t-72 38q-33 10 -61 10q-22 0 -42 -6q-45 -14 -77 -47.5t-49 -81.5q-18 -49 -22 -99q-1 -11 -1 -22q0 -39 10 -76q12 -48 40.5 -82t72.5 -48q20 -6 44 -7q29 0 63 10q31 8 55 24.5t47 35.5q17 6 31 2t21.5 -14t7 -24.5 t-12.5 -28.5q-30 -23 -59.5 -40t-67.5 -29q-45 -15 -84 -15q-15 0 -29 2q-51 8 -90 34.5t-65.5 68.5t-40.5 92q-13 48 -13 100q0 57 16 109zM273 -152q0 19 15 34.5t36 15.5q18 0 34.5 -15.5t16.5 -34.5q0 -20 -16.5 -35.5t-34.5 -15.5q-21 0 -36 15.5t-15 35.5zM151 752 q14 20 31.5 37t34.5 34q14 14 29 27t30 25q9 7 20.5 16t22.5 11q28 5 55.5 -8.5t53 -33.5t50 -40t47.5 -28q15 -11 19.5 -24.5t-0.5 -25.5t-17.5 -19.5t-30.5 -5.5q-21 8 -39.5 27t-35.5 34q-18 16 -29 26.5t-19.5 17t-18 10.5t-24.5 9q-26 -19 -51 -38.5t-51 -39.5 q-6 -5 -13.5 -11t-14.5 -11q-8 -6 -16 -13z" />
<glyph unicode="I&#x309;" horiz-adv-x="594" d="M112 8l2 39q2 0 18 2t35 4q21 3 48 5q6 3 -3 2.5t-21 -2t-21 -2.5t-3 -1q83 8 165 14.5t165 11.5q18 -5 26 -17q8 -11 8 -22q-1 -14 -11 -26q-10 -11 -27 -14q-54 2 -109 2l-81 -1q-26 -1 -52 -1q-69 0 -139 6zM112 781l2 39q2 0 18 2t35 4q21 3 48 5q6 3 -3 2.5t-21 -2 t-21 -2.5t-3 -1q83 8 165 14.5t165 11.5q18 -4 26 -16q8 -11 8 -23q-1 -14 -11 -26q-10 -11 -27 -14q-54 2 -109 2l-81 -1q-26 -1 -52 -1q-69 0 -139 6zM256 800q3 18 14 28t24 10h2q12 0 22 -8q12 -8 17 -26v-91q0 -147 5 -297q3 -94 3 -188q0 -101 -4 -201l-39 -2 q-11 195 -24 387.5t-20 387.5zM208 1177q12 21 40.5 40t81.5 19q48 0 81.5 -28.5t33.5 -83.5q0 -31 -12 -58.5t-28.5 -49t-33 -38t-26.5 -24.5t-18.5 -7t-13.5 7t-4 15t9 16q39 30 63.5 61t24.5 76q0 53 -27.5 65.5t-50.5 12.5q-28 0 -45.5 -6.5t-28 -15.5t-14.5 -16l-4 -7 q-14 -15 -26.5 -3.5t-1.5 25.5z" />
<glyph unicode="i&#x309;" horiz-adv-x="332" d="M129 678q0 12 8 18t18.5 6t18.5 -6t8 -18l8 -631q-2 -14 -10 -20.5t-17 -5t-17.5 7.5t-10.5 18zM53 1008q12 21 40.5 40t81.5 19q48 0 81.5 -28.5t33.5 -83.5q0 -31 -12 -58.5t-28.5 -49t-33 -38t-26.5 -24.5t-18.5 -7t-13.5 7t-4 15t9 16q39 30 63.5 61t24.5 76 q0 53 -27.5 65.5t-50.5 12.5q-28 0 -45.5 -6.5t-28 -15.5t-14.5 -16l-4 -7q-14 -15 -26.5 -3.5t-1.5 25.5z" />
<glyph unicode="I&#x323;" horiz-adv-x="524" d="M69 8l2 39q2 0 18 2t35 4q21 3 48 5q6 3 -3 2.5t-21 -2t-21 -2.5t-3 -1q83 8 165 14.5t165 11.5q18 -5 26 -17q8 -11 8 -22q-1 -14 -11 -26q-10 -11 -27 -14q-54 2 -109 2l-81 -1q-26 -1 -52 -1q-69 0 -139 6zM69 781l2 39q2 0 18 2t35 4q21 3 48 5q6 3 -3 2.5t-21 -2 t-21 -2.5t-3 -1q83 8 165 14.5t165 11.5q18 -4 26 -16q8 -11 8 -23q-1 -14 -11 -26q-10 -11 -27 -14q-54 2 -109 2l-81 -1q-26 -1 -52 -1q-69 0 -139 6zM213 800q3 18 14 28t24 10h2q12 0 22 -8q12 -8 17 -26v-91q0 -147 5 -297q3 -94 3 -188q0 -101 -4 -201l-39 -2 q-11 195 -24 387.5t-20 387.5zM213 -152q0 19 15 34.5t36 15.5q18 0 34.5 -15.5t16.5 -34.5q0 -20 -16.5 -35.5t-34.5 -15.5q-21 0 -36 15.5t-15 35.5z" />
<glyph unicode="i&#x323;" horiz-adv-x="332" d="M130 754q4 20 15 34.5t27 20.5q5 2 10 2q11 0 21 -9l-14 -38q-2 0 -6 1.5t-6 3t1.5 1.5h17.5q3 0 1 -2.5t-5.5 -5t-6.5 -5.5t-1 -5t3 4.5t3 4.5q3 -2 0.5 -5.5t-3.5 -6.5q-1 -2 -1 -8t0 -3t-0.5 6.5t1.5 5.5t3 -4.5t-1 -5.5q-3 2 -3.5 5.5t-2.5 6.5l-2 -1l-2 -4 q0 -4 0.5 -8t-1.5 -8q0 -2 -0.5 1.5t-1.5 5.5q-5 5 -7 9.5t-7 9.5q-2 18 5.5 30.5t19.5 17.5t25.5 0.5t24.5 -19.5q2 -2 -1.5 3t-5.5 7q-1 2 1 -2t4 -6l9 -14q6 -8 6 -24q0 -9 -2 -15q-4 -21 -18 -32t-31.5 -12.5t-35 6.5t-27.5 24q-6 10 -6 23q-1 5 0 10zM147 557 q3 14 13 22q10 9 24 9h1q14 0 28 -10q14 -16 14 -35q0 -15 -3 -42v-9q0 -6 -0.5 -11t-1 -7.5t-1.5 0.5v8v10q0 4 0.5 6t0.5 -1l-3 -65l-4 -114q-1 -36 -2.5 -76t-3 -81.5t-3.5 -82t-4 -76.5l-39 -2q-3 50 -5 104.5t-3 110t-2 110t-3 104.5q-1 17 -2 35t0 35q0 9 0.5 17.5 t0.5 16.5q0 1 -0.5 3t-0.5 1q2 -2 4 -7t0 -3q-6 12 -6 22q0 4 1 8zM121 -152q0 19 15 34.5t36 15.5q18 0 34.5 -15.5t16.5 -34.5q0 -20 -16.5 -35.5t-34.5 -15.5q-21 0 -36 15.5t-15 35.5z" />
<glyph unicode="O&#x323;" horiz-adv-x="944" d="M74 483q12 86 51 166q22 46 65 84t95 63q53 25 107 35q29 5 54 5q23 0 45 -4q78 -12 142.5 -44t112.5 -80.5t78 -113t39 -141.5q3 -24 2 -48q0 -53 -13 -107q-20 -78 -64 -143.5t-110.5 -108t-151.5 -46.5h-17l-67 6q-42 8 -84 19q-16 9 -22 22t-3.5 25.5t13.5 21.5t29 9 q35 -10 65 -20.5t60 -15.5t61.5 0t69.5 27q59 34 98 93t56 127q12 50 12 101q1 19 -1 39q-6 71 -39 129q-25 47 -64.5 85.5t-88.5 63.5q-48 24 -103 34q-25 4 -51 5q-30 0 -60 -6q-100 -21 -161 -84t-83 -163q-10 -45 -10 -94v-21q2 -61 21.5 -118t55.5 -104t91 -74 q28 -14 58.5 -23.5t59.5 -17.5l-12 -41l-124 41q-88 40 -138 106t-68 146q-11 47 -11 96q0 34 5 69zM393 -152q0 19 15 34.5t36 15.5q18 0 34.5 -15.5t16.5 -34.5q0 -20 -16.5 -35.5t-34.5 -15.5q-21 0 -36 15.5t-15 35.5z" />
<glyph unicode="o&#x323;" horiz-adv-x="750" d="M26 319q2 46 19 90.5t47 79.5q25 29 58 50.5t69.5 36t75.5 21t77 6.5q64 -1 113.5 -23.5t84 -60t54 -86.5t23.5 -103q1 -14 1 -29q0 -40 -8 -81q-11 -56 -37 -107q-20 -39 -60.5 -59.5t-88.5 -30.5t-96.5 -12t-84.5 -3q-21 2 -30.5 14.5t-9 26.5t11.5 25.5t32 12.5 q29 -1 67 -1h7q34 0 68 6q37 6 70 19t53 42q16 23 22.5 48t8.5 52q2 25 2 49q0 20 -1 38q-3 44 -17.5 82t-43 67.5t-75.5 44.5q-38 12 -78 12h-19q-50 -4 -95 -22.5t-82 -50t-59 -72.5q-21 -41 -25 -89q0 -7 -1 -14q0 -42 19 -87q26 -61 74 -91.5t108 -49.5l25 -5 q15 -3 25 -8l-14 -38q-4 2 -5 2q-60 5 -112.5 29.5t-91.5 63.5t-61 91q-20 48 -20 104v10zM291 -152q0 19 15 34.5t36 15.5q18 0 34.5 -15.5t16.5 -34.5q0 -20 -16.5 -35.5t-34.5 -15.5q-21 0 -36 15.5t-15 35.5z" />
<glyph unicode="O&#x309;" horiz-adv-x="985" d="M74 483q12 86 51 166q22 46 65 84t95 63q53 25 107 35q29 5 54 5q23 0 45 -4q78 -12 142.5 -44t112.5 -80.5t78 -113t39 -141.5q3 -24 2 -48q0 -53 -13 -107q-20 -78 -64 -143.5t-110.5 -108t-151.5 -46.5h-17l-67 6q-42 8 -84 19q-16 9 -22 22t-3.5 25.5t13.5 21.5t29 9 q35 -10 65 -20.5t60 -15.5t61.5 0t69.5 27q59 34 98 93t56 127q12 50 12 101q1 19 -1 39q-6 71 -39 129q-25 47 -64.5 85.5t-88.5 63.5q-48 24 -103 34q-25 4 -51 5q-30 0 -60 -6q-100 -21 -161 -84t-83 -163q-10 -45 -10 -94v-21q2 -61 21.5 -118t55.5 -104t91 -74 q28 -14 58.5 -23.5t59.5 -17.5l-12 -41l-124 41q-88 40 -138 106t-68 146q-11 47 -11 96q0 34 5 69zM351 1177q12 21 40.5 40t81.5 19q48 0 81.5 -28.5t33.5 -83.5q0 -31 -12 -58.5t-28.5 -49t-33 -38t-26.5 -24.5t-18.5 -7t-13.5 7t-4 15t9 16q39 30 63.5 61t24.5 76 q0 53 -27.5 65.5t-50.5 12.5q-28 0 -45.5 -6.5t-28 -15.5t-14.5 -16l-4 -7q-14 -15 -26.5 -3.5t-1.5 25.5z" />
<glyph unicode="o&#x309;" horiz-adv-x="750" d="M26 319q2 46 19 90.5t47 79.5q25 29 58 50.5t69.5 36t75.5 21t77 6.5q64 -1 113.5 -23.5t84 -60t54 -86.5t23.5 -103q1 -14 1 -29q0 -40 -8 -81q-11 -56 -37 -107q-20 -39 -60.5 -59.5t-88.5 -30.5t-96.5 -12t-84.5 -3q-21 2 -30.5 14.5t-9 26.5t11.5 25.5t32 12.5 q29 -1 67 -1h7q34 0 68 6q37 6 70 19t53 42q16 23 22.5 48t8.5 52q2 25 2 49q0 20 -1 38q-3 44 -17.5 82t-43 67.5t-75.5 44.5q-38 12 -78 12h-19q-50 -4 -95 -22.5t-82 -50t-59 -72.5q-21 -41 -25 -89q0 -7 -1 -14q0 -42 19 -87q26 -61 74 -91.5t108 -49.5l25 -5 q15 -3 25 -8l-14 -38q-4 2 -5 2q-60 5 -112.5 29.5t-91.5 63.5t-61 91q-20 48 -20 104v10zM211 903q12 21 40.5 40t81.5 19q48 0 81.5 -28.5t33.5 -83.5q0 -31 -12 -58.5t-28.5 -49t-33 -38t-26.5 -24.5t-18.5 -7t-13.5 7t-4 15t9 16q39 30 63.5 61t24.5 76q0 53 -27.5 65.5 t-50.5 12.5q-28 0 -45.5 -6.5t-28 -15.5t-14.5 -16l-4 -7q-14 -15 -26.5 -3.5t-1.5 25.5z" />
<glyph unicode="&#xd4;&#x301;" horiz-adv-x="1008" d="M74 483q12 86 51 166q22 46 65 84t95 63q53 25 107 35q29 5 54 5q23 0 45 -4q78 -12 142.5 -44t112.5 -80.5t78 -113t39 -141.5q3 -24 2 -48q0 -53 -13 -107q-20 -78 -64 -143.5t-110.5 -108t-151.5 -46.5h-17l-67 6q-42 8 -84 19q-16 9 -22 22t-3.5 25.5t13.5 21.5t29 9 q35 -10 65 -20.5t60 -15.5t61.5 0t69.5 27q59 34 98 93t56 127q12 50 12 101q1 19 -1 39q-6 71 -39 129q-25 47 -64.5 85.5t-88.5 63.5q-48 24 -103 34q-25 4 -51 5q-30 0 -60 -6q-100 -21 -161 -84t-83 -163q-10 -45 -10 -94v-21q2 -61 21.5 -118t55.5 -104t91 -74 q28 -14 58.5 -23.5t59.5 -17.5l-12 -41l-124 41q-88 40 -138 106t-68 146q-11 47 -11 96q0 34 5 69zM288 975q14 20 31.5 37t34.5 34q14 14 29 27t30 25q9 7 20.5 16t22.5 11q28 5 55.5 -8.5t53 -33.5t50 -40t47.5 -28q15 -11 19.5 -24.5t-0.5 -25.5t-17.5 -19.5t-30.5 -5.5 q-21 8 -39.5 27t-35.5 34q-18 16 -29 26.5t-19.5 17t-18 10.5t-24.5 9q-26 -19 -51 -38.5t-51 -39.5q-6 -5 -13.5 -11t-14.5 -11q-8 -6 -16 -13zM633 1151q-10 7 4 34l131 178q15 18 30 21t24.5 -5t9.5 -22.5t-17 -28.5l-149 -166q-23 -18 -33 -11z" />
<glyph unicode="&#xf4;&#x301;" horiz-adv-x="817" d="M26 319q2 46 19 90.5t47 79.5q25 29 58 50.5t69.5 36t75.5 21t77 6.5q64 -1 113.5 -23.5t84 -60t54 -86.5t23.5 -103q1 -14 1 -29q0 -40 -8 -81q-11 -56 -37 -107q-20 -39 -60.5 -59.5t-88.5 -30.5t-96.5 -12t-84.5 -3q-21 2 -30.5 14.5t-9 26.5t11.5 25.5t32 12.5 q29 -1 67 -1h7q34 0 68 6q37 6 70 19t53 42q16 23 22.5 48t8.5 52q2 25 2 49q0 20 -1 38q-3 44 -17.5 82t-43 67.5t-75.5 44.5q-38 12 -78 12h-19q-50 -4 -95 -22.5t-82 -50t-59 -72.5q-21 -41 -25 -89q0 -7 -1 -14q0 -42 19 -87q26 -61 74 -91.5t108 -49.5l25 -5 q15 -3 25 -8l-14 -38q-4 2 -5 2q-60 5 -112.5 29.5t-91.5 63.5t-61 91q-20 48 -20 104v10zM190 752q14 20 31.5 37t34.5 34q14 14 29 27t30 25q9 7 20.5 16t22.5 11q28 5 55.5 -8.5t53 -33.5t50 -40t47.5 -28q15 -11 19.5 -24.5t-0.5 -25.5t-17.5 -19.5t-30.5 -5.5 q-21 8 -39.5 27t-35.5 34q-18 16 -29 26.5t-19.5 17t-18 10.5t-24.5 9q-26 -19 -51 -38.5t-51 -39.5q-6 -5 -13.5 -11t-14.5 -11q-8 -6 -16 -13zM491 915q-10 7 4 34l131 178q15 18 30 21t24.5 -5t9.5 -22.5t-17 -28.5l-149 -166q-23 -18 -33 -11z" />
<glyph unicode="&#xd4;&#x300;" horiz-adv-x="963" d="M74 483q12 86 51 166q22 46 65 84t95 63q53 25 107 35q29 5 54 5q23 0 45 -4q78 -12 142.5 -44t112.5 -80.5t78 -113t39 -141.5q3 -24 2 -48q0 -53 -13 -107q-20 -78 -64 -143.5t-110.5 -108t-151.5 -46.5h-17l-67 6q-42 8 -84 19q-16 9 -22 22t-3.5 25.5t13.5 21.5t29 9 q35 -10 65 -20.5t60 -15.5t61.5 0t69.5 27q59 34 98 93t56 127q12 50 12 101q1 19 -1 39q-6 71 -39 129q-25 47 -64.5 85.5t-88.5 63.5q-48 24 -103 34q-25 4 -51 5q-30 0 -60 -6q-100 -21 -161 -84t-83 -163q-10 -45 -10 -94v-21q2 -61 21.5 -118t55.5 -104t91 -74 q28 -14 58.5 -23.5t59.5 -17.5l-12 -41l-124 41q-88 40 -138 106t-68 146q-11 47 -11 96q0 34 5 69zM278 975q14 20 31.5 37t34.5 34q14 14 29 27t30 25q9 7 20.5 16t22.5 11q28 5 55.5 -8.5t53 -33.5t50 -40t47.5 -28q15 -11 19.5 -24.5t-0.5 -25.5t-17.5 -19.5t-30.5 -5.5 q-21 8 -39.5 27t-35.5 34q-18 16 -29 26.5t-19.5 17t-18 10.5t-24.5 9q-26 -19 -51 -38.5t-51 -39.5q-6 -5 -13.5 -11t-14.5 -11q-8 -6 -16 -13zM456.5 1318.5q-3.5 15.5 5 23.5t24 6t35.5 -22l133 -172q17 -35 8.5 -42.5t-34.5 15.5l-152 162q-16 14 -19.5 29.5z" />
<glyph unicode="&#xf4;&#x300;" horiz-adv-x="739" d="M26 319q2 46 19 90.5t47 79.5q25 29 58 50.5t69.5 36t75.5 21t77 6.5q64 -1 113.5 -23.5t84 -60t54 -86.5t23.5 -103q1 -14 1 -29q0 -40 -8 -81q-11 -56 -37 -107q-20 -39 -60.5 -59.5t-88.5 -30.5t-96.5 -12t-84.5 -3q-21 2 -30.5 14.5t-9 26.5t11.5 25.5t32 12.5 q29 -1 67 -1h7q34 0 68 6q37 6 70 19t53 42q16 23 22.5 48t8.5 52q2 25 2 49q0 20 -1 38q-3 44 -17.5 82t-43 67.5t-75.5 44.5q-38 12 -78 12h-19q-50 -4 -95 -22.5t-82 -50t-59 -72.5q-21 -41 -25 -89q0 -7 -1 -14q0 -42 19 -87q26 -61 74 -91.5t108 -49.5l25 -5 q15 -3 25 -8l-14 -38q-4 2 -5 2q-60 5 -112.5 29.5t-91.5 63.5t-61 91q-20 48 -20 104v10zM141 752q14 20 31.5 37t34.5 34q14 14 29 27t30 25q9 7 20.5 16t22.5 11q28 5 55.5 -8.5t53 -33.5t50 -40t47.5 -28q15 -11 19.5 -24.5t-0.5 -25.5t-17.5 -19.5t-30.5 -5.5 q-21 8 -39.5 27t-35.5 34q-18 16 -29 26.5t-19.5 17t-18 10.5t-24.5 9q-26 -19 -51 -38.5t-51 -39.5q-6 -5 -13.5 -11t-14.5 -11q-8 -6 -16 -13zM312.5 1111.5q-3.5 15.5 5 23.5t24 6t35.5 -22l133 -172q17 -35 8.5 -42.5t-34.5 15.5l-152 162q-16 14 -19.5 29.5z" />
<glyph unicode="&#xd4;&#x309;" horiz-adv-x="995" d="M74 483q12 86 51 166q22 46 65 84t95 63q53 25 107 35q29 5 54 5q23 0 45 -4q78 -12 142.5 -44t112.5 -80.5t78 -113t39 -141.5q3 -24 2 -48q0 -53 -13 -107q-20 -78 -64 -143.5t-110.5 -108t-151.5 -46.5h-17l-67 6q-42 8 -84 19q-16 9 -22 22t-3.5 25.5t13.5 21.5t29 9 q35 -10 65 -20.5t60 -15.5t61.5 0t69.5 27q59 34 98 93t56 127q12 50 12 101q1 19 -1 39q-6 71 -39 129q-25 47 -64.5 85.5t-88.5 63.5q-48 24 -103 34q-25 4 -51 5q-30 0 -60 -6q-100 -21 -161 -84t-83 -163q-10 -45 -10 -94v-21q2 -61 21.5 -118t55.5 -104t91 -74 q28 -14 58.5 -23.5t59.5 -17.5l-12 -41l-124 41q-88 40 -138 106t-68 146q-11 47 -11 96q0 34 5 69zM299 947q14 20 31.5 37t34.5 34q14 14 29 27t30 25q9 7 20.5 16t22.5 11q28 5 55.5 -8.5t53 -33.5t50 -40t47.5 -28q15 -11 19.5 -24.5t-0.5 -25.5t-17.5 -19.5t-30.5 -5.5 q-21 8 -39.5 27t-35.5 34q-18 16 -29 26.5t-19.5 17t-18 10.5t-24.5 9q-26 -19 -51 -38.5t-51 -39.5q-6 -5 -13.5 -11t-14.5 -11q-8 -6 -16 -13zM507 1339q12 21 40.5 40t81.5 19q48 0 81.5 -28.5t33.5 -83.5q0 -31 -12 -58.5t-28.5 -49t-33 -38t-26.5 -24.5t-18.5 -7 t-13.5 7t-4 15t9 16q39 30 63.5 61t24.5 76q0 53 -27.5 65.5t-50.5 12.5q-28 0 -45.5 -6.5t-28 -15.5t-14.5 -16l-4 -7q-14 -15 -26.5 -3.5t-1.5 25.5z" />
<glyph unicode="&#xf4;&#x309;" horiz-adv-x="805" d="M26 319q2 46 19 90.5t47 79.5q25 29 58 50.5t69.5 36t75.5 21t77 6.5q64 -1 113.5 -23.5t84 -60t54 -86.5t23.5 -103q1 -14 1 -29q0 -40 -8 -81q-11 -56 -37 -107q-20 -39 -60.5 -59.5t-88.5 -30.5t-96.5 -12t-84.5 -3q-21 2 -30.5 14.5t-9 26.5t11.5 25.5t32 12.5 q29 -1 67 -1h7q34 0 68 6q37 6 70 19t53 42q16 23 22.5 48t8.5 52q2 25 2 49q0 20 -1 38q-3 44 -17.5 82t-43 67.5t-75.5 44.5q-38 12 -78 12h-19q-50 -4 -95 -22.5t-82 -50t-59 -72.5q-21 -41 -25 -89q0 -7 -1 -14q0 -42 19 -87q26 -61 74 -91.5t108 -49.5l25 -5 q15 -3 25 -8l-14 -38q-4 2 -5 2q-60 5 -112.5 29.5t-91.5 63.5t-61 91q-20 48 -20 104v10zM141 752q14 20 31.5 37t34.5 34q14 14 29 27t30 25q9 7 20.5 16t22.5 11q28 5 55.5 -8.5t53 -33.5t50 -40t47.5 -28q15 -11 19.5 -24.5t-0.5 -25.5t-17.5 -19.5t-30.5 -5.5 q-21 8 -39.5 27t-35.5 34q-18 16 -29 26.5t-19.5 17t-18 10.5t-24.5 9q-26 -19 -51 -38.5t-51 -39.5q-6 -5 -13.5 -11t-14.5 -11q-8 -6 -16 -13zM356 1092q12 21 40.5 40t81.5 19q48 0 81.5 -28.5t33.5 -83.5q0 -31 -12 -58.5t-28.5 -49t-33 -38t-26.5 -24.5t-18.5 -7 t-13.5 7t-4 15t9 16q39 30 63.5 61t24.5 76q0 53 -27.5 65.5t-50.5 12.5q-28 0 -45.5 -6.5t-28 -15.5t-14.5 -16l-4 -7q-14 -15 -26.5 -3.5t-1.5 25.5z" />
<glyph unicode="&#xd4;&#x303;" horiz-adv-x="969" d="M74 483q12 86 51 166q22 46 65 84t95 63q53 25 107 35q29 5 54 5q23 0 45 -4q78 -12 142.5 -44t112.5 -80.5t78 -113t39 -141.5q3 -24 2 -48q0 -53 -13 -107q-20 -78 -64 -143.5t-110.5 -108t-151.5 -46.5h-17l-67 6q-42 8 -84 19q-16 9 -22 22t-3.5 25.5t13.5 21.5t29 9 q35 -10 65 -20.5t60 -15.5t61.5 0t69.5 27q59 34 98 93t56 127q12 50 12 101q1 19 -1 39q-6 71 -39 129q-25 47 -64.5 85.5t-88.5 63.5q-48 24 -103 34q-25 4 -51 5q-30 0 -60 -6q-100 -21 -161 -84t-83 -163q-10 -45 -10 -94v-21q2 -61 21.5 -118t55.5 -104t91 -74 q28 -14 58.5 -23.5t59.5 -17.5l-12 -41l-124 41q-88 40 -138 106t-68 146q-11 47 -11 96q0 34 5 69zM266 950q14 20 31.5 37t34.5 34q14 14 29 27t30 25q9 7 20.5 16t22.5 11q28 5 55.5 -8.5t53 -33.5t50 -40t47.5 -28q15 -11 19.5 -24.5t-0.5 -25.5t-17.5 -19.5t-30.5 -5.5 q-21 8 -39.5 27t-35.5 34q-18 16 -29 26.5t-19.5 17t-18 10.5t-24.5 9q-26 -19 -51 -38.5t-51 -39.5q-6 -5 -13.5 -11t-14.5 -11q-8 -6 -16 -13zM275 1203q22 20 43.5 31t45 14.5t48 1t52.5 -8.5q18 -3 36 -9t36 -5q13 2 25 6t24 7q3 2 6 3.5t5 3.5q16 13 32 12t26 -11 t11 -26t-12 -32q-11 -11 -25.5 -15.5t-28.5 -7.5q-20 -4 -40 -7t-40 1q-31 6 -58 15t-53 14t-52.5 2t-56.5 -22z" />
<glyph unicode="&#xf4;&#x303;" horiz-adv-x="707" d="M26 319q2 46 19 90.5t47 79.5q25 29 58 50.5t69.5 36t75.5 21t77 6.5q64 -1 113.5 -23.5t84 -60t54 -86.5t23.5 -103q1 -14 1 -29q0 -40 -8 -81q-11 -56 -37 -107q-20 -39 -60.5 -59.5t-88.5 -30.5t-96.5 -12t-84.5 -3q-21 2 -30.5 14.5t-9 26.5t11.5 25.5t32 12.5 q29 -1 67 -1h7q34 0 68 6q37 6 70 19t53 42q16 23 22.5 48t8.5 52q2 25 2 49q0 20 -1 38q-3 44 -17.5 82t-43 67.5t-75.5 44.5q-38 12 -78 12h-19q-50 -4 -95 -22.5t-82 -50t-59 -72.5q-21 -41 -25 -89q0 -7 -1 -14q0 -42 19 -87q26 -61 74 -91.5t108 -49.5l25 -5 q15 -3 25 -8l-14 -38q-4 2 -5 2q-60 5 -112.5 29.5t-91.5 63.5t-61 91q-20 48 -20 104v10zM141 752q14 20 31.5 37t34.5 34q14 14 29 27t30 25q9 7 20.5 16t22.5 11q28 5 55.5 -8.5t53 -33.5t50 -40t47.5 -28q15 -11 19.5 -24.5t-0.5 -25.5t-17.5 -19.5t-30.5 -5.5 q-21 8 -39.5 27t-35.5 34q-18 16 -29 26.5t-19.5 17t-18 10.5t-24.5 9q-26 -19 -51 -38.5t-51 -39.5q-6 -5 -13.5 -11t-14.5 -11q-8 -6 -16 -13zM156 985q22 20 43.5 31t45 14.5t48 1t52.5 -8.5q18 -3 36 -9t36 -5q13 2 25 6t24 7q3 2 6 3.5t5 3.5q16 13 32 12t26 -11 t11 -26t-12 -32q-11 -11 -25.5 -15.5t-28.5 -7.5q-20 -4 -40 -7t-40 1q-31 6 -58 15t-53 14t-52.5 2t-56.5 -22z" />
<glyph unicode="&#xd4;&#x323;" horiz-adv-x="952" d="M74 483q12 86 51 166q22 46 65 84t95 63q53 25 107 35q29 5 54 5q23 0 45 -4q78 -12 142.5 -44t112.5 -80.5t78 -113t39 -141.5q3 -24 2 -48q0 -53 -13 -107q-20 -78 -64 -143.5t-110.5 -108t-151.5 -46.5h-17l-67 6q-42 8 -84 19q-16 9 -22 22t-3.5 25.5t13.5 21.5t29 9 q35 -10 65 -20.5t60 -15.5t61.5 0t69.5 27q59 34 98 93t56 127q12 50 12 101q1 19 -1 39q-6 71 -39 129q-25 47 -64.5 85.5t-88.5 63.5q-48 24 -103 34q-25 4 -51 5q-30 0 -60 -6q-100 -21 -161 -84t-83 -163q-10 -45 -10 -94v-21q2 -61 21.5 -118t55.5 -104t91 -74 q28 -14 58.5 -23.5t59.5 -17.5l-12 -41l-124 41q-88 40 -138 106t-68 146q-11 47 -11 96q0 34 5 69zM398 -152q0 19 15 34.5t36 15.5q18 0 34.5 -15.5t16.5 -34.5q0 -20 -16.5 -35.5t-34.5 -15.5q-21 0 -36 15.5t-15 35.5zM286 947q14 20 31.5 37t34.5 34q14 14 29 27t30 25 q9 7 20.5 16t22.5 11q28 5 55.5 -8.5t53 -33.5t50 -40t47.5 -28q15 -11 19.5 -24.5t-0.5 -25.5t-17.5 -19.5t-30.5 -5.5q-21 8 -39.5 27t-35.5 34q-18 16 -29 26.5t-19.5 17t-18 10.5t-24.5 9q-26 -19 -51 -38.5t-51 -39.5q-6 -5 -13.5 -11t-14.5 -11q-8 -6 -16 -13z" />
<glyph unicode="&#xf4;&#x323;" horiz-adv-x="764" d="M26 319q2 46 19 90.5t47 79.5q25 29 58 50.5t69.5 36t75.5 21t77 6.5q64 -1 113.5 -23.5t84 -60t54 -86.5t23.5 -103q1 -14 1 -29q0 -40 -8 -81q-11 -56 -37 -107q-20 -39 -60.5 -59.5t-88.5 -30.5t-96.5 -12t-84.5 -3q-21 2 -30.5 14.5t-9 26.5t11.5 25.5t32 12.5 q29 -1 67 -1h7q34 0 68 6q37 6 70 19t53 42q16 23 22.5 48t8.5 52q2 25 2 49q0 20 -1 38q-3 44 -17.5 82t-43 67.5t-75.5 44.5q-38 12 -78 12h-19q-50 -4 -95 -22.5t-82 -50t-59 -72.5q-21 -41 -25 -89q0 -7 -1 -14q0 -42 19 -87q26 -61 74 -91.5t108 -49.5l25 -5 q15 -3 25 -8l-14 -38q-4 2 -5 2q-60 5 -112.5 29.5t-91.5 63.5t-61 91q-20 48 -20 104v10zM279 -164q0 19 15 34.5t36 15.5q18 0 34.5 -15.5t16.5 -34.5q0 -20 -16.5 -35.5t-34.5 -15.5q-21 0 -36 15.5t-15 35.5zM142 752q14 20 31.5 37t34.5 34q14 14 29 27t30 25 q9 7 20.5 16t22.5 11q28 5 55.5 -8.5t53 -33.5t50 -40t47.5 -28q15 -11 19.5 -24.5t-0.5 -25.5t-17.5 -19.5t-30.5 -5.5q-21 8 -39.5 27t-35.5 34q-18 16 -29 26.5t-19.5 17t-18 10.5t-24.5 9q-26 -19 -51 -38.5t-51 -39.5q-6 -5 -13.5 -11t-14.5 -11q-8 -6 -16 -13z" />
<glyph unicode="&#x1a0;&#x301;" horiz-adv-x="1110" d="M55 477q0 123 36 220.5t99.5 167t150.5 106.5t191 37q99 0 186 -30t154 -91q37 14 57.5 44t31.5 58q12 35 16 72q-6 16 1 27.5t19.5 15.5t23.5 -1t13 -20q2 -47 -10 -90q-10 -37 -35.5 -76.5t-77.5 -68.5q60 -68 93.5 -162t29.5 -207q-4 -123 -49 -212t-115.5 -148.5 t-159.5 -89t-182 -29.5q-79 0 -163 29.5t-153 89t-113 149.5t-44 209zM113 477q0 -115 43 -194.5t106.5 -131t137 -75t135.5 -23.5q75 0 153 22.5t141.5 74t103.5 132t44 197.5q-4 117 -40 206t-94.5 148.5t-138 89t-172.5 29.5q-83 0 -160 -29.5t-134.5 -89t-91 -148.5 t-33.5 -208zM457 1083q-10 7 4 34l131 178q15 18 30 21t24.5 -5t9.5 -22.5t-17 -28.5l-149 -166q-23 -18 -33 -11z" />
<glyph unicode="&#x1a1;&#x301;" horiz-adv-x="872" d="M78 338q0 88 26.5 159.5t73.5 121t111.5 76t140.5 26.5q74 0 135.5 -18.5t110.5 -65.5q33 12 52.5 31.5t30.5 44t16 51.5t9 51q-4 16 18.5 17.5t24.5 -15.5q0 -18 -4 -49t-16 -61.5t-35.5 -58t-60.5 -42.5q43 -49 67.5 -117.5t22.5 -148.5q-4 -88 -38 -153.5t-87 -108.5 t-121 -64.5t-137 -19.5q-58 2 -118 23.5t-109.5 64.5t-81 106.5t-31.5 149.5zM135 338q0 -80 30 -135.5t75 -91t97 -52t95 -16.5q55 0 109.5 17.5t98.5 53.5t72.5 92t32.5 134q-8 164 -96 248t-219 82q-59 0 -112.5 -20.5t-93.5 -62.5t-64.5 -103.5t-24.5 -145.5zM413 849 q-10 7 4 34l131 178q15 18 30 21t24.5 -5t9.5 -22.5t-17 -28.5l-149 -166q-23 -18 -33 -11z" />
<glyph unicode="&#x1a0;&#x300;" horiz-adv-x="1110" d="M55 477q0 123 36 220.5t99.5 167t150.5 106.5t191 37q99 0 186 -30t154 -91q37 14 57.5 44t31.5 58q12 35 16 72q-6 16 1 27.5t19.5 15.5t23.5 -1t13 -20q2 -47 -10 -90q-10 -37 -35.5 -76.5t-77.5 -68.5q60 -68 93.5 -162t29.5 -207q-4 -123 -49 -212t-115.5 -148.5 t-159.5 -89t-182 -29.5q-79 0 -163 29.5t-153 89t-113 149.5t-44 209zM113 477q0 -115 43 -194.5t106.5 -131t137 -75t135.5 -23.5q75 0 153 22.5t141.5 74t103.5 132t44 197.5q-4 117 -40 206t-94.5 148.5t-138 89t-172.5 29.5q-83 0 -160 -29.5t-134.5 -89t-91 -148.5 t-33.5 -208zM447.5 1369.5q-3.5 15.5 5 23.5t24 6t35.5 -22l133 -172q17 -35 8.5 -42.5t-34.5 15.5l-152 162q-16 14 -19.5 29.5z" />
<glyph unicode="&#x1a1;&#x300;" horiz-adv-x="872" d="M78 338q0 88 26.5 159.5t73.5 121t111.5 76t140.5 26.5q74 0 135.5 -18.5t110.5 -65.5q33 12 52.5 31.5t30.5 44t16 51.5t9 51q-4 16 18.5 17.5t24.5 -15.5q0 -18 -4 -49t-16 -61.5t-35.5 -58t-60.5 -42.5q43 -49 67.5 -117.5t22.5 -148.5q-4 -88 -38 -153.5t-87 -108.5 t-121 -64.5t-137 -19.5q-58 2 -118 23.5t-109.5 64.5t-81 106.5t-31.5 149.5zM135 338q0 -80 30 -135.5t75 -91t97 -52t95 -16.5q55 0 109.5 17.5t98.5 53.5t72.5 92t32.5 134q-8 164 -96 248t-219 82q-59 0 -112.5 -20.5t-93.5 -62.5t-64.5 -103.5t-24.5 -145.5z M328.5 988.5q-3.5 15.5 5 23.5t24 6t35.5 -22l133 -172q17 -35 8.5 -42.5t-34.5 15.5l-152 162q-16 14 -19.5 29.5z" />
<glyph unicode="&#x1a0;&#x309;" horiz-adv-x="1110" d="M55 477q0 123 36 220.5t99.5 167t150.5 106.5t191 37q99 0 186 -30t154 -91q37 14 57.5 44t31.5 58q12 35 16 72q-6 16 1 27.5t19.5 15.5t23.5 -1t13 -20q2 -47 -10 -90q-10 -37 -35.5 -76.5t-77.5 -68.5q60 -68 93.5 -162t29.5 -207q-4 -123 -49 -212t-115.5 -148.5 t-159.5 -89t-182 -29.5q-79 0 -163 29.5t-153 89t-113 149.5t-44 209zM113 477q0 -115 43 -194.5t106.5 -131t137 -75t135.5 -23.5q75 0 153 22.5t141.5 74t103.5 132t44 197.5q-4 117 -40 206t-94.5 148.5t-138 89t-172.5 29.5q-83 0 -160 -29.5t-134.5 -89t-91 -148.5 t-33.5 -208zM437 1319q12 21 40.5 40t81.5 19q48 0 81.5 -28.5t33.5 -83.5q0 -31 -12 -58.5t-28.5 -49t-33 -38t-26.5 -24.5t-18.5 -7t-13.5 7t-4 15t9 16q39 30 63.5 61t24.5 76q0 53 -27.5 65.5t-50.5 12.5q-28 0 -45.5 -6.5t-28 -15.5t-14.5 -16l-4 -7 q-14 -15 -26.5 -3.5t-1.5 25.5z" />
<glyph unicode="&#x1a1;&#x309;" horiz-adv-x="872" d="M78 338q0 88 26.5 159.5t73.5 121t111.5 76t140.5 26.5q74 0 135.5 -18.5t110.5 -65.5q33 12 52.5 31.5t30.5 44t16 51.5t9 51q-4 16 18.5 17.5t24.5 -15.5q0 -18 -4 -49t-16 -61.5t-35.5 -58t-60.5 -42.5q43 -49 67.5 -117.5t22.5 -148.5q-4 -88 -38 -153.5t-87 -108.5 t-121 -64.5t-137 -19.5q-58 2 -118 23.5t-109.5 64.5t-81 106.5t-31.5 149.5zM135 338q0 -80 30 -135.5t75 -91t97 -52t95 -16.5q55 0 109.5 17.5t98.5 53.5t72.5 92t32.5 134q-8 164 -96 248t-219 82q-59 0 -112.5 -20.5t-93.5 -62.5t-64.5 -103.5t-24.5 -145.5zM308 1064 q12 21 40.5 40t81.5 19q48 0 81.5 -28.5t33.5 -83.5q0 -31 -12 -58.5t-28.5 -49t-33 -38t-26.5 -24.5t-18.5 -7t-13.5 7t-4 15t9 16q39 30 63.5 61t24.5 76q0 53 -27.5 65.5t-50.5 12.5q-28 0 -45.5 -6.5t-28 -15.5t-14.5 -16l-4 -7q-14 -15 -26.5 -3.5t-1.5 25.5z" />
<glyph unicode="&#x1a0;&#x303;" horiz-adv-x="1110" d="M55 477q0 123 36 220.5t99.5 167t150.5 106.5t191 37q99 0 186 -30t154 -91q37 14 57.5 44t31.5 58q12 35 16 72q-6 16 1 27.5t19.5 15.5t23.5 -1t13 -20q2 -47 -10 -90q-10 -37 -35.5 -76.5t-77.5 -68.5q60 -68 93.5 -162t29.5 -207q-4 -123 -49 -212t-115.5 -148.5 t-159.5 -89t-182 -29.5q-79 0 -163 29.5t-153 89t-113 149.5t-44 209zM113 477q0 -115 43 -194.5t106.5 -131t137 -75t135.5 -23.5q75 0 153 22.5t141.5 74t103.5 132t44 197.5q-4 117 -40 206t-94.5 148.5t-138 89t-172.5 29.5q-83 0 -160 -29.5t-134.5 -89t-91 -148.5 t-33.5 -208zM365 1147q22 20 43.5 31t45 14.5t48 1t52.5 -8.5q18 -3 36 -9t36 -5q13 2 25 6t24 7q3 2 6 3.5t5 3.5q16 13 32 12t26 -11t11 -26t-12 -32q-11 -11 -25.5 -15.5t-28.5 -7.5q-20 -4 -40 -7t-40 1q-31 6 -58 15t-53 14t-52.5 2t-56.5 -22z" />
<glyph unicode="&#x1a1;&#x303;" horiz-adv-x="872" d="M78 338q0 88 26.5 159.5t73.5 121t111.5 76t140.5 26.5q74 0 135.5 -18.5t110.5 -65.5q33 12 52.5 31.5t30.5 44t16 51.5t9 51q-4 16 18.5 17.5t24.5 -15.5q0 -18 -4 -49t-16 -61.5t-35.5 -58t-60.5 -42.5q43 -49 67.5 -117.5t22.5 -148.5q-4 -88 -38 -153.5t-87 -108.5 t-121 -64.5t-137 -19.5q-58 2 -118 23.5t-109.5 64.5t-81 106.5t-31.5 149.5zM135 338q0 -80 30 -135.5t75 -91t97 -52t95 -16.5q55 0 109.5 17.5t98.5 53.5t72.5 92t32.5 134q-8 164 -96 248t-219 82q-59 0 -112.5 -20.5t-93.5 -62.5t-64.5 -103.5t-24.5 -145.5zM275 850 q22 20 43.5 31t45 14.5t48 1t52.5 -8.5q18 -3 36 -9t36 -5q13 2 25 6t24 7q3 2 6 3.5t5 3.5q16 13 32 12t26 -11t11 -26t-12 -32q-11 -11 -25.5 -15.5t-28.5 -7.5q-20 -4 -40 -7t-40 1q-31 6 -58 15t-53 14t-52.5 2t-56.5 -22z" />
<glyph unicode="&#x1a0;&#x323;" horiz-adv-x="1110" d="M55 477q0 123 36 220.5t99.5 167t150.5 106.5t191 37q99 0 186 -30t154 -91q37 14 57.5 44t31.5 58q12 35 16 72q-6 16 1 27.5t19.5 15.5t23.5 -1t13 -20q2 -47 -10 -90q-10 -37 -35.5 -76.5t-77.5 -68.5q60 -68 93.5 -162t29.5 -207q-4 -123 -49 -212t-115.5 -148.5 t-159.5 -89t-182 -29.5q-79 0 -163 29.5t-153 89t-113 149.5t-44 209zM113 477q0 -115 43 -194.5t106.5 -131t137 -75t135.5 -23.5q75 0 153 22.5t141.5 74t103.5 132t44 197.5q-4 117 -40 206t-94.5 148.5t-138 89t-172.5 29.5q-83 0 -160 -29.5t-134.5 -89t-91 -148.5 t-33.5 -208zM510 -152q0 19 15 34.5t36 15.5q18 0 34.5 -15.5t16.5 -34.5q0 -20 -16.5 -35.5t-34.5 -15.5q-21 0 -36 15.5t-15 35.5z" />
<glyph unicode="&#x1a1;&#x323;" horiz-adv-x="872" d="M78 338q0 88 26.5 159.5t73.5 121t111.5 76t140.5 26.5q74 0 135.5 -18.5t110.5 -65.5q33 12 52.5 31.5t30.5 44t16 51.5t9 51q-4 16 18.5 17.5t24.5 -15.5q0 -18 -4 -49t-16 -61.5t-35.5 -58t-60.5 -42.5q43 -49 67.5 -117.5t22.5 -148.5q-4 -88 -38 -153.5t-87 -108.5 t-121 -64.5t-137 -19.5q-58 2 -118 23.5t-109.5 64.5t-81 106.5t-31.5 149.5zM135 338q0 -80 30 -135.5t75 -91t97 -52t95 -16.5q55 0 109.5 17.5t98.5 53.5t72.5 92t32.5 134q-8 164 -96 248t-219 82q-59 0 -112.5 -20.5t-93.5 -62.5t-64.5 -103.5t-24.5 -145.5zM391 -152 q0 19 15 34.5t36 15.5q18 0 34.5 -15.5t16.5 -34.5q0 -20 -16.5 -35.5t-34.5 -15.5q-21 0 -36 15.5t-15 35.5z" />
<glyph unicode="U&#x323;" horiz-adv-x="852" d="M92 607q0 119 2 234l39 2q2 -81 4 -166.5t11 -166.5q4 -41 10 -84.5t15.5 -87t24 -84.5t36.5 -78q16 -27 29.5 -43t28.5 -26.5t34 -18.5t47 -20q29 -12 55.5 -8t49.5 18t42 35.5t32 45.5q22 40 32 84q10 43 14 89q3 35 2 72v20q-1 46 -2 90q-1 40 -1 81.5t-1 83.5 t-4 83.5t-10 80.5q-2 21 7.5 33.5t23.5 15.5q4 1 8 1q9 1 19 -5q14 -8 20 -28q13 -74 13 -154q-1 -9 -1 -17q-2 -89 -1 -172q0 -48 -0.5 -99t-6 -101.5t-18.5 -99t-38 -91.5q-31 -52 -71.5 -82.5t-86.5 -39.5q-18 -4 -37 -4q-27 0 -57 8q-50 14 -99 50q-35 26 -60 64 t-42 80.5t-27.5 87t-17.5 83.5q-19 112 -19 228q1 3 1 6zM339 -152q0 19 15 34.5t36 15.5q18 0 34.5 -15.5t16.5 -34.5q0 -20 -16.5 -35.5t-34.5 -15.5q-21 0 -36 15.5t-15 35.5z" />
<glyph unicode="u&#x323;" horiz-adv-x="662" d="M54 416v49q0 48 1 96l39 2q2 -69 5 -139t20 -139q5 -21 12.5 -43t18 -42.5t25 -38.5t32.5 -31q19 -13 29 -17t16.5 -5.5t13.5 -2.5t20 -7q1 -1 -1.5 0t-5.5 1.5t-6 1.5t-1 0q30 -10 55 2t51 28t48.5 38.5t37.5 48.5q12 20 17.5 39.5t8 39.5t3.5 40.5t4 41.5q7 45 12 88 q3 27 3 55q0 17 -1 33l67 -6q-7 -41 -7 -82t-2 -83q0 -5 0 2t0.5 17t0.5 17t0 2l-4 -274q0 -26 -1.5 -56.5t3.5 -58.5q-2 -27 -20 -39q-9 -5 -18 -5q-11 0 -25 7q-2 2 -4 2q-13 13 -15 27.5t4.5 25t20 16t30.5 0.5l5 -3l-56 -48q-5 29 -5 71t2.5 85.5t5 82.5t3.5 62 q2 59 3 119.5t12 117.5q3 15 13 23t20 8q1 0 1 1q10 0 19 -7q10 -7 14 -22q0 -29 -1 -48.5t-3 -38t-5.5 -41.5t-8.5 -57q-1 -5 -0.5 -10.5t-1.5 -10.5q-1 -2 -1 1t0.5 7t0.5 7t0 1q-3 -36 -6 -63t-10 -52t-19.5 -49t-34.5 -54q-17 -22 -39 -40t-46 -31q-23 -12 -49 -25.5 t-53 -15.5q-13 -1 -26.5 3.5t-26.5 8.5q-41 14 -71 34.5t-51 48.5t-34.5 63t-22.5 78q-14 71 -15 143zM271 -152q0 19 15 34.5t36 15.5q18 0 34.5 -15.5t16.5 -34.5q0 -20 -16.5 -35.5t-34.5 -15.5q-21 0 -36 15.5t-15 35.5z" />
<glyph unicode="U&#x309;" horiz-adv-x="817" d="M92 607q0 119 2 234l39 2q2 -81 4 -166.5t11 -166.5q4 -41 10 -84.5t15.5 -87t24 -84.5t36.5 -78q16 -27 29.5 -43t28.5 -26.5t34 -18.5t47 -20q29 -12 55.5 -8t49.5 18t42 35.5t32 45.5q22 40 32 84q10 43 14 89q3 35 2 72v20q-1 46 -2 90q-1 40 -1 81.5t-1 83.5 t-4 83.5t-10 80.5q-2 21 7.5 33.5t23.5 15.5q4 1 8 1q9 1 19 -5q14 -8 20 -28q13 -74 13 -154q-1 -9 -1 -17q-2 -89 -1 -172q0 -48 -0.5 -99t-6 -101.5t-18.5 -99t-38 -91.5q-31 -52 -71.5 -82.5t-86.5 -39.5q-18 -4 -37 -4q-27 0 -57 8q-50 14 -99 50q-35 26 -60 64 t-42 80.5t-27.5 87t-17.5 83.5q-19 112 -19 228q1 3 1 6zM282 1177q12 21 40.5 40t81.5 19q48 0 81.5 -28.5t33.5 -83.5q0 -31 -12 -58.5t-28.5 -49t-33 -38t-26.5 -24.5t-18.5 -7t-13.5 7t-4 15t9 16q39 30 63.5 61t24.5 76q0 53 -27.5 65.5t-50.5 12.5q-28 0 -45.5 -6.5 t-28 -15.5t-14.5 -16l-4 -7q-14 -15 -26.5 -3.5t-1.5 25.5z" />
<glyph unicode="u&#x309;" horiz-adv-x="643" d="M54 416v49q0 48 1 96l39 2q2 -69 5 -139t20 -139q5 -21 12.5 -43t18 -42.5t25 -38.5t32.5 -31q19 -13 29 -17t16.5 -5.5t13.5 -2.5t20 -7q1 -1 -1.5 0t-5.5 1.5t-6 1.5t-1 0q30 -10 55 2t51 28t48.5 38.5t37.5 48.5q12 20 17.5 39.5t8 39.5t3.5 40.5t4 41.5q7 45 12 88 q3 27 3 55q0 17 -1 33l67 -6q-7 -41 -7 -82t-2 -83q0 -5 0 2t0.5 17t0.5 17t0 2l-4 -274q0 -26 -1.5 -56.5t3.5 -58.5q-2 -27 -20 -39q-9 -5 -18 -5q-11 0 -25 7q-2 2 -4 2q-13 13 -15 27.5t4.5 25t20 16t30.5 0.5l5 -3l-56 -48q-5 29 -5 71t2.5 85.5t5 82.5t3.5 62 q2 59 3 119.5t12 117.5q3 15 13 23t20 8q1 0 1 1q10 0 19 -7q10 -7 14 -22q0 -29 -1 -48.5t-3 -38t-5.5 -41.5t-8.5 -57q-1 -5 -0.5 -10.5t-1.5 -10.5q-1 -2 -1 1t0.5 7t0.5 7t0 1q-3 -36 -6 -63t-10 -52t-19.5 -49t-34.5 -54q-17 -22 -39 -40t-46 -31q-23 -12 -49 -25.5 t-53 -15.5q-13 -1 -26.5 3.5t-26.5 8.5q-41 14 -71 34.5t-51 48.5t-34.5 63t-22.5 78q-14 71 -15 143zM171 903q12 21 40.5 40t81.5 19q48 0 81.5 -28.5t33.5 -83.5q0 -31 -12 -58.5t-28.5 -49t-33 -38t-26.5 -24.5t-18.5 -7t-13.5 7t-4 15t9 16q39 30 63.5 61t24.5 76 q0 53 -27.5 65.5t-50.5 12.5q-28 0 -45.5 -6.5t-28 -15.5t-14.5 -16l-4 -7q-14 -15 -26.5 -3.5t-1.5 25.5z" />
<glyph unicode="&#x1af;&#x301;" horiz-adv-x="1051" d="M133 352q2 142 3 245t2 176t2 119t3 71q0 12 7.5 17t16.5 4t17.5 -7t8.5 -16l-11 -533q-4 -63 10.5 -130t53.5 -122t107.5 -90t170.5 -33q101 2 161 38t92 91.5t41 123t9 134.5l-2 535q0 12 7.5 17t16.5 5t17 -5t8 -15v-88q33 10 56 33q20 20 36.5 54t12.5 91 q-2 14 6 21.5t18.5 5.5t19.5 -12.5t9 -30.5q0 -72 -24.5 -114t-53.5 -65q-34 -26 -75 -38l8 -805q0 -13 -8.5 -21t-18.5 -9t-19.5 6t-11.5 26q5 41 7 71q2 27 0 48.5t-13 19.5q-28 -72 -97 -117t-210 -47q-110 -2 -184 33t-118 87t-62.5 112.5t-18.5 113.5zM474 1083 q-10 7 4 34l131 178q15 18 30 21t24.5 -5t9.5 -22.5t-17 -28.5l-149 -166q-23 -18 -33 -11z" />
<glyph unicode="&#x1b0;&#x301;" horiz-adv-x="905" d="M131 244q4 198 5 301.5t5 140.5q0 8 7.5 11t15.5 3t15 -4t7 -12l-8 -387q-2 -41 8.5 -86t39 -84t78.5 -63.5t130 -22.5q78 0 123 24.5t68.5 61.5t30 84t6.5 94v385q0 17 20 17t23 -17v-51q30 16 55 43q22 23 39.5 58.5t21.5 88.5q-2 19 6.5 25t18.5 4t18 -10t8 -21 q-2 -71 -29.5 -119.5t-58 -76t-55 -37.5t-20.5 -4l6 -576q0 -8 -7.5 -14t-16.5 -6t-16 5t-9 17v50q-2 18 -4.5 33.5t-6.5 15.5q-10 -25 -26.5 -46.5t-43 -37t-64.5 -24.5t-93 -9q-86 0 -142.5 24.5t-91 61.5t-49 80t-14.5 80zM354 804q-10 7 4 34l131 178q15 18 30 21 t24.5 -5t9.5 -22.5t-17 -28.5l-149 -166q-23 -18 -33 -11z" />
<glyph unicode="&#x1af;&#x300;" horiz-adv-x="1051" d="M133 352q2 142 3 245t2 176t2 119t3 71q0 12 7.5 17t16.5 4t17.5 -7t8.5 -16l-11 -533q-4 -63 10.5 -130t53.5 -122t107.5 -90t170.5 -33q101 2 161 38t92 91.5t41 123t9 134.5l-2 535q0 12 7.5 17t16.5 5t17 -5t8 -15v-88q33 10 56 33q20 20 36.5 54t12.5 91 q-2 14 6 21.5t18.5 5.5t19.5 -12.5t9 -30.5q0 -72 -24.5 -114t-53.5 -65q-34 -26 -75 -38l8 -805q0 -13 -8.5 -21t-18.5 -9t-19.5 6t-11.5 26q5 41 7 71q2 27 0 48.5t-13 19.5q-28 -72 -97 -117t-210 -47q-110 -2 -184 33t-118 87t-62.5 112.5t-18.5 113.5zM378.5 1267.5 q-3.5 15.5 5 23.5t24 6t35.5 -22l133 -172q17 -35 8.5 -42.5t-34.5 15.5l-152 162q-16 14 -19.5 29.5z" />
<glyph unicode="&#x1b0;&#x300;" horiz-adv-x="905" d="M131 244q4 198 5 301.5t5 140.5q0 8 7.5 11t15.5 3t15 -4t7 -12l-8 -387q-2 -41 8.5 -86t39 -84t78.5 -63.5t130 -22.5q78 0 123 24.5t68.5 61.5t30 84t6.5 94v385q0 17 20 17t23 -17v-51q30 16 55 43q22 23 39.5 58.5t21.5 88.5q-2 19 6.5 25t18.5 4t18 -10t8 -21 q-2 -71 -29.5 -119.5t-58 -76t-55 -37.5t-20.5 -4l6 -576q0 -8 -7.5 -14t-16.5 -6t-16 5t-9 17v50q-2 18 -4.5 33.5t-6.5 15.5q-10 -25 -26.5 -46.5t-43 -37t-64.5 -24.5t-93 -9q-86 0 -142.5 24.5t-91 61.5t-49 80t-14.5 80zM292.5 988.5q-3.5 15.5 5 23.5t24 6t35.5 -22 l133 -172q17 -35 8.5 -42.5t-34.5 15.5l-152 162q-16 14 -19.5 29.5z" />
<glyph unicode="&#x1af;&#x309;" horiz-adv-x="1051" d="M133 352q2 142 3 245t2 176t2 119t3 71q0 12 7.5 17t16.5 4t17.5 -7t8.5 -16l-11 -533q-4 -63 10.5 -130t53.5 -122t107.5 -90t170.5 -33q101 2 161 38t92 91.5t41 123t9 134.5l-2 535q0 12 7.5 17t16.5 5t17 -5t8 -15v-88q33 10 56 33q20 20 36.5 54t12.5 91 q-2 14 6 21.5t18.5 5.5t19.5 -12.5t9 -30.5q0 -72 -24.5 -114t-53.5 -65q-34 -26 -75 -38l8 -805q0 -13 -8.5 -21t-18.5 -9t-19.5 6t-11.5 26q5 41 7 71q2 27 0 48.5t-13 19.5q-28 -72 -97 -117t-210 -47q-110 -2 -184 33t-118 87t-62.5 112.5t-18.5 113.5zM365 1275 q12 21 40.5 40t81.5 19q48 0 81.5 -28.5t33.5 -83.5q0 -31 -12 -58.5t-28.5 -49t-33 -38t-26.5 -24.5t-18.5 -7t-13.5 7t-4 15t9 16q39 30 63.5 61t24.5 76q0 53 -27.5 65.5t-50.5 12.5q-28 0 -45.5 -6.5t-28 -15.5t-14.5 -16l-4 -7q-14 -15 -26.5 -3.5t-1.5 25.5z" />
<glyph unicode="&#x1b0;&#x309;" horiz-adv-x="905" d="M131 244q4 198 5 301.5t5 140.5q0 8 7.5 11t15.5 3t15 -4t7 -12l-8 -387q-2 -41 8.5 -86t39 -84t78.5 -63.5t130 -22.5q78 0 123 24.5t68.5 61.5t30 84t6.5 94v385q0 17 20 17t23 -17v-51q30 16 55 43q22 23 39.5 58.5t21.5 88.5q-2 19 6.5 25t18.5 4t18 -10t8 -21 q-2 -71 -29.5 -119.5t-58 -76t-55 -37.5t-20.5 -4l6 -576q0 -8 -7.5 -14t-16.5 -6t-16 5t-9 17v50q-2 18 -4.5 33.5t-6.5 15.5q-10 -25 -26.5 -46.5t-43 -37t-64.5 -24.5t-93 -9q-86 0 -142.5 24.5t-91 61.5t-49 80t-14.5 80zM300 1026q12 21 40.5 40t81.5 19 q48 0 81.5 -28.5t33.5 -83.5q0 -31 -12 -58.5t-28.5 -49t-33 -38t-26.5 -24.5t-18.5 -7t-13.5 7t-4 15t9 16q39 30 63.5 61t24.5 76q0 53 -27.5 65.5t-50.5 12.5q-28 0 -45.5 -6.5t-28 -15.5t-14.5 -16l-4 -7q-14 -15 -26.5 -3.5t-1.5 25.5z" />
<glyph unicode="&#x1af;&#x303;" horiz-adv-x="1051" d="M133 352q2 142 3 245t2 176t2 119t3 71q0 12 7.5 17t16.5 4t17.5 -7t8.5 -16l-11 -533q-4 -63 10.5 -130t53.5 -122t107.5 -90t170.5 -33q101 2 161 38t92 91.5t41 123t9 134.5l-2 535q0 12 7.5 17t16.5 5t17 -5t8 -15v-88q33 10 56 33q20 20 36.5 54t12.5 91 q-2 14 6 21.5t18.5 5.5t19.5 -12.5t9 -30.5q0 -72 -24.5 -114t-53.5 -65q-34 -26 -75 -38l8 -805q0 -13 -8.5 -21t-18.5 -9t-19.5 6t-11.5 26q5 41 7 71q2 27 0 48.5t-13 19.5q-28 -72 -97 -117t-210 -47q-110 -2 -184 33t-118 87t-62.5 112.5t-18.5 113.5zM334 1129 q22 20 43.5 31t45 14.5t48 1t52.5 -8.5q18 -3 36 -9t36 -5q13 2 25 6t24 7q3 2 6 3.5t5 3.5q16 13 32 12t26 -11t11 -26t-12 -32q-11 -11 -25.5 -15.5t-28.5 -7.5q-20 -4 -40 -7t-40 1q-31 6 -58 15t-53 14t-52.5 2t-56.5 -22z" />
<glyph unicode="&#x1b0;&#x303;" horiz-adv-x="905" d="M131 244q4 198 5 301.5t5 140.5q0 8 7.5 11t15.5 3t15 -4t7 -12l-8 -387q-2 -41 8.5 -86t39 -84t78.5 -63.5t130 -22.5q78 0 123 24.5t68.5 61.5t30 84t6.5 94v385q0 17 20 17t23 -17v-51q30 16 55 43q22 23 39.5 58.5t21.5 88.5q-2 19 6.5 25t18.5 4t18 -10t8 -21 q-2 -71 -29.5 -119.5t-58 -76t-55 -37.5t-20.5 -4l6 -576q0 -8 -7.5 -14t-16.5 -6t-16 5t-9 17v50q-2 18 -4.5 33.5t-6.5 15.5q-10 -25 -26.5 -46.5t-43 -37t-64.5 -24.5t-93 -9q-86 0 -142.5 24.5t-91 61.5t-49 80t-14.5 80zM252 827q22 20 43.5 31t45 14.5t48 1t52.5 -8.5 q18 -3 36 -9t36 -5q13 2 25 6t24 7q3 2 6 3.5t5 3.5q16 13 32 12t26 -11t11 -26t-12 -32q-11 -11 -25.5 -15.5t-28.5 -7.5q-20 -4 -40 -7t-40 1q-31 6 -58 15t-53 14t-52.5 2t-56.5 -22z" />
<glyph unicode="&#x1af;&#x323;" horiz-adv-x="1051" d="M133 352q2 142 3 245t2 176t2 119t3 71q0 12 7.5 17t16.5 4t17.5 -7t8.5 -16l-11 -533q-4 -63 10.5 -130t53.5 -122t107.5 -90t170.5 -33q101 2 161 38t92 91.5t41 123t9 134.5l-2 535q0 12 7.5 17t16.5 5t17 -5t8 -15v-88q33 10 56 33q20 20 36.5 54t12.5 91 q-2 14 6 21.5t18.5 5.5t19.5 -12.5t9 -30.5q0 -72 -24.5 -114t-53.5 -65q-34 -26 -75 -38l8 -805q0 -13 -8.5 -21t-18.5 -9t-19.5 6t-11.5 26q5 41 7 71q2 27 0 48.5t-13 19.5q-28 -72 -97 -117t-210 -47q-110 -2 -184 33t-118 87t-62.5 112.5t-18.5 113.5zM440 -152 q0 19 15 34.5t36 15.5q18 0 34.5 -15.5t16.5 -34.5q0 -20 -16.5 -35.5t-34.5 -15.5q-21 0 -36 15.5t-15 35.5z" />
<glyph unicode="&#x1b0;&#x323;" horiz-adv-x="905" d="M131 244q4 198 5 301.5t5 140.5q0 8 7.5 11t15.5 3t15 -4t7 -12l-8 -387q-2 -41 8.5 -86t39 -84t78.5 -63.5t130 -22.5q78 0 123 24.5t68.5 61.5t30 84t6.5 94v385q0 17 20 17t23 -17v-51q30 16 55 43q22 23 39.5 58.5t21.5 88.5q-2 19 6.5 25t18.5 4t18 -10t8 -21 q-2 -71 -29.5 -119.5t-58 -76t-55 -37.5t-20.5 -4l6 -576q0 -8 -7.5 -14t-16.5 -6t-16 5t-9 17v50q-2 18 -4.5 33.5t-6.5 15.5q-10 -25 -26.5 -46.5t-43 -37t-64.5 -24.5t-93 -9q-86 0 -142.5 24.5t-91 61.5t-49 80t-14.5 80zM362 -152q0 19 15 34.5t36 15.5 q18 0 34.5 -15.5t16.5 -34.5q0 -20 -16.5 -35.5t-34.5 -15.5q-21 0 -36 15.5t-15 35.5z" />
<glyph unicode="Y&#x300;" horiz-adv-x="799" d="M97 822l31 26q11 -14 18 -29t12 -31t9 -33t9 -33l-2 6t-1.5 5t0.5 1q7 -11 10.5 -23.5t8.5 -24.5q17 -36 36 -71.5t39 -70.5q7 -11 18.5 -28.5t25.5 -35.5t29 -31.5t29 -14.5q13 -2 29 10.5t31 30t27 35t18 25.5q26 38 52 82.5t39 89.5q6 20 10.5 40.5t9.5 41t12.5 39.5 t18.5 37q14 12 28 13h2q14 0 23 -8q10 -7 14 -21q2 -6 2 -12q0 -9 -4 -19q-19 -29 -26.5 -64t-18.5 -68q-21 -60 -58.5 -117t-84.5 -116q-23 -29 -54.5 -53.5t-70.5 -26.5q-12 -1 -24.5 4.5t-24.5 14t-22 18t-17 17.5q-50 60 -86.5 129.5t-61.5 144.5q-5 15 -7.5 31 t-5.5 31.5t-7.5 30.5t-14.5 28zM349 40q6 23 5 53t-1 53q0 67 -3 132q-1 25 -1 50q0 41 3 82l39 2q8 -54 13.5 -108.5t11.5 -110.5q5 -38 10 -81q4 -24 4 -48q0 -17 -2 -33q-5 -15 -15 -23t-21.5 -8t-22.5 6.5t-18 20.5q0 1 -1 1q-2 18 5.5 30.5t19.5 17.5t25.5 0.5 t24.5 -19.5v-1zM260.5 1229.5q-3.5 15.5 5 23.5t24 6t35.5 -22l133 -172q17 -35 8.5 -42.5t-34.5 15.5l-152 162q-16 14 -19.5 29.5z" />
<glyph unicode="y&#x300;" horiz-adv-x="709" d="M24 572l2 4q8 13 19.5 19.5t23 5t21 -10t13.5 -24.5q6 -29 12.5 -59t11.5 -60q0 -3 -1 1.5t-2 10.5l-3 10q-1 4 -1 1q20 -86 55 -162.5t82 -151.5q1 -3 -1 1t-5.5 9.5t-6 9.5t-0.5 1q19 -30 38.5 -58.5t42.5 -56.5l-31 -26q-59 58 -100.5 117t-72 122.5t-53 132 t-43.5 144.5q19 -2 37 -5l36 -6l-2 -4q-12 -14 -26 -17t-25 3t-17 19q-5 8 -5 19q0 5 1 11zM93 -308q-2 5 -2 10q0 9 5 18q6 14 26 21q2 0 -7 -5.5t-17 -16.5q-1 -1 0 1t1 3l51 94l60 108q43 81 86.5 163.5t80 168t64.5 173t42 179.5l39 -4q-2 -24 -2.5 -48.5t-4.5 -48.5 q-13 -81 -39.5 -159.5t-59.5 -155t-70.5 -151t-73.5 -147.5l-54 -111q-3 -7 -10 -25.5t-17 -38.5t-22 -36.5t-25 -19.5q-6 -1 -12 -1q-12 0 -22 6q-13 9 -17 23zM152.5 948.5q-3.5 15.5 5 23.5t24 6t35.5 -22l133 -172q17 -35 8.5 -42.5t-34.5 15.5l-152 162 q-16 14 -19.5 29.5z" />
<glyph unicode="Y&#x323;" horiz-adv-x="799" d="M97 822l31 26q11 -14 18 -29t12 -31t9 -33t9 -33l-2 6t-1.5 5t0.5 1q7 -11 10.5 -23.5t8.5 -24.5q17 -36 36 -71.5t39 -70.5q7 -11 18.5 -28.5t25.5 -35.5t29 -31.5t29 -14.5q13 -2 29 10.5t31 30t27 35t18 25.5q26 38 52 82.5t39 89.5q6 20 10.5 40.5t9.5 41t12.5 39.5 t18.5 37q14 12 28 13h2q14 0 23 -8q10 -7 14 -21q2 -6 2 -12q0 -9 -4 -19q-19 -29 -26.5 -64t-18.5 -68q-21 -60 -58.5 -117t-84.5 -116q-23 -29 -54.5 -53.5t-70.5 -26.5q-12 -1 -24.5 4.5t-24.5 14t-22 18t-17 17.5q-50 60 -86.5 129.5t-61.5 144.5q-5 15 -7.5 31 t-5.5 31.5t-7.5 30.5t-14.5 28zM349 40q6 23 5 53t-1 53q0 67 -3 132q-1 25 -1 50q0 41 3 82l39 2q8 -54 13.5 -108.5t11.5 -110.5q5 -38 10 -81q4 -24 4 -48q0 -17 -2 -33q-5 -15 -15 -23t-21.5 -8t-22.5 6.5t-18 20.5q0 1 -1 1q-2 18 5.5 30.5t19.5 17.5t25.5 0.5 t24.5 -19.5v-1zM332 -129q0 19 15 34.5t36 15.5q18 0 34.5 -15.5t16.5 -34.5q0 -20 -16.5 -35.5t-34.5 -15.5q-21 0 -36 15.5t-15 35.5z" />
<glyph unicode="y&#x323;" horiz-adv-x="612" d="M24 572l2 4q8 13 19.5 19.5t23 5t21 -10t13.5 -24.5q6 -29 12.5 -59t11.5 -60q0 -3 -1 1.5t-2 10.5l-3 10q-1 4 -1 1q20 -86 55 -162.5t82 -151.5q1 -3 -1 1t-5.5 9.5t-6 9.5t-0.5 1q19 -30 38.5 -58.5t42.5 -56.5l-31 -26q-59 58 -100.5 117t-72 122.5t-53 132 t-43.5 144.5q19 -2 37 -5l36 -6l-2 -4q-12 -14 -26 -17t-25 3t-17 19q-5 8 -5 19q0 5 1 11zM93 -308q-2 5 -2 10q0 9 5 18q6 14 26 21q2 0 -7 -5.5t-17 -16.5q-1 -1 0 1t1 3l51 94l60 108q43 81 86.5 163.5t80 168t64.5 173t42 179.5l39 -4q-2 -24 -2.5 -48.5t-4.5 -48.5 q-13 -81 -39.5 -159.5t-59.5 -155t-70.5 -151t-73.5 -147.5l-54 -111q-3 -7 -10 -25.5t-17 -38.5t-22 -36.5t-25 -19.5q-6 -1 -12 -1q-12 0 -22 6q-13 9 -17 23zM379 -309q0 19 15 34.5t36 15.5q18 0 34.5 -15.5t16.5 -34.5q0 -20 -16.5 -35.5t-34.5 -15.5q-21 0 -36 15.5 t-15 35.5z" />
<glyph unicode="Y&#x309;" horiz-adv-x="799" d="M97 822l31 26q11 -14 18 -29t12 -31t9 -33t9 -33l-2 6t-1.5 5t0.5 1q7 -11 10.5 -23.5t8.5 -24.5q17 -36 36 -71.5t39 -70.5q7 -11 18.5 -28.5t25.5 -35.5t29 -31.5t29 -14.5q13 -2 29 10.5t31 30t27 35t18 25.5q26 38 52 82.5t39 89.5q6 20 10.5 40.5t9.5 41t12.5 39.5 t18.5 37q14 12 28 13h2q14 0 23 -8q10 -7 14 -21q2 -6 2 -12q0 -9 -4 -19q-19 -29 -26.5 -64t-18.5 -68q-21 -60 -58.5 -117t-84.5 -116q-23 -29 -54.5 -53.5t-70.5 -26.5q-12 -1 -24.5 4.5t-24.5 14t-22 18t-17 17.5q-50 60 -86.5 129.5t-61.5 144.5q-5 15 -7.5 31 t-5.5 31.5t-7.5 30.5t-14.5 28zM349 40q6 23 5 53t-1 53q0 67 -3 132q-1 25 -1 50q0 41 3 82l39 2q8 -54 13.5 -108.5t11.5 -110.5q5 -38 10 -81q4 -24 4 -48q0 -17 -2 -33q-5 -15 -15 -23t-21.5 -8t-22.5 6.5t-18 20.5q0 1 -1 1q-2 18 5.5 30.5t19.5 17.5t25.5 0.5 t24.5 -19.5v-1zM282 1177q12 21 40.5 40t81.5 19q48 0 81.5 -28.5t33.5 -83.5q0 -31 -12 -58.5t-28.5 -49t-33 -38t-26.5 -24.5t-18.5 -7t-13.5 7t-4 15t9 16q39 30 63.5 61t24.5 76q0 53 -27.5 65.5t-50.5 12.5q-28 0 -45.5 -6.5t-28 -15.5t-14.5 -16l-4 -7 q-14 -15 -26.5 -3.5t-1.5 25.5z" />
<glyph unicode="y&#x309;" horiz-adv-x="709" d="M24 572l2 4q8 13 19.5 19.5t23 5t21 -10t13.5 -24.5q6 -29 12.5 -59t11.5 -60q0 -3 -1 1.5t-2 10.5l-3 10q-1 4 -1 1q20 -86 55 -162.5t82 -151.5q1 -3 -1 1t-5.5 9.5t-6 9.5t-0.5 1q19 -30 38.5 -58.5t42.5 -56.5l-31 -26q-59 58 -100.5 117t-72 122.5t-53 132 t-43.5 144.5q19 -2 37 -5l36 -6l-2 -4q-12 -14 -26 -17t-25 3t-17 19q-5 8 -5 19q0 5 1 11zM93 -308q-2 5 -2 10q0 9 5 18q6 14 26 21q2 0 -7 -5.5t-17 -16.5q-1 -1 0 1t1 3l51 94l60 108q43 81 86.5 163.5t80 168t64.5 173t42 179.5l39 -4q-2 -24 -2.5 -48.5t-4.5 -48.5 q-13 -81 -39.5 -159.5t-59.5 -155t-70.5 -151t-73.5 -147.5l-54 -111q-3 -7 -10 -25.5t-17 -38.5t-22 -36.5t-25 -19.5q-6 -1 -12 -1q-12 0 -22 6q-13 9 -17 23zM188 903q12 21 40.5 40t81.5 19q48 0 81.5 -28.5t33.5 -83.5q0 -31 -12 -58.5t-28.5 -49t-33 -38t-26.5 -24.5 t-18.5 -7t-13.5 7t-4 15t9 16q39 30 63.5 61t24.5 76q0 53 -27.5 65.5t-50.5 12.5q-28 0 -45.5 -6.5t-28 -15.5t-14.5 -16l-4 -7q-14 -15 -26.5 -3.5t-1.5 25.5z" />
<glyph unicode="Y&#x303;" horiz-adv-x="799" d="M97 822l31 26q11 -14 18 -29t12 -31t9 -33t9 -33l-2 6t-1.5 5t0.5 1q7 -11 10.5 -23.5t8.5 -24.5q17 -36 36 -71.5t39 -70.5q7 -11 18.5 -28.5t25.5 -35.5t29 -31.5t29 -14.5q13 -2 29 10.5t31 30t27 35t18 25.5q26 38 52 82.5t39 89.5q6 20 10.5 40.5t9.5 41t12.5 39.5 t18.5 37q14 12 28 13h2q14 0 23 -8q10 -7 14 -21q2 -6 2 -12q0 -9 -4 -19q-19 -29 -26.5 -64t-18.5 -68q-21 -60 -58.5 -117t-84.5 -116q-23 -29 -54.5 -53.5t-70.5 -26.5q-12 -1 -24.5 4.5t-24.5 14t-22 18t-17 17.5q-50 60 -86.5 129.5t-61.5 144.5q-5 15 -7.5 31 t-5.5 31.5t-7.5 30.5t-14.5 28zM349 40q6 23 5 53t-1 53q0 67 -3 132q-1 25 -1 50q0 41 3 82l39 2q8 -54 13.5 -108.5t11.5 -110.5q5 -38 10 -81q4 -24 4 -48q0 -17 -2 -33q-5 -15 -15 -23t-21.5 -8t-22.5 6.5t-18 20.5q0 1 -1 1q-2 18 5.5 30.5t19.5 17.5t25.5 0.5 t24.5 -19.5v-1zM207 967q22 20 43.5 31t45 14.5t48 1t52.5 -8.5q18 -3 36 -9t36 -5q13 2 25 6t24 7q3 2 6 3.5t5 3.5q16 13 32 12t26 -11t11 -26t-12 -32q-11 -11 -25.5 -15.5t-28.5 -7.5q-20 -4 -40 -7t-40 1q-31 6 -58 15t-53 14t-52.5 2t-56.5 -22z" />
<glyph unicode="y&#x303;" horiz-adv-x="635" d="M24 572l2 4q8 13 19.5 19.5t23 5t21 -10t13.5 -24.5q6 -29 12.5 -59t11.5 -60q0 -3 -1 1.5t-2 10.5l-3 10q-1 4 -1 1q20 -86 55 -162.5t82 -151.5q1 -3 -1 1t-5.5 9.5t-6 9.5t-0.5 1q19 -30 38.5 -58.5t42.5 -56.5l-31 -26q-59 58 -100.5 117t-72 122.5t-53 132 t-43.5 144.5q19 -2 37 -5l36 -6l-2 -4q-12 -14 -26 -17t-25 3t-17 19q-5 8 -5 19q0 5 1 11zM93 -308q-2 5 -2 10q0 9 5 18q6 14 26 21q2 0 -7 -5.5t-17 -16.5q-1 -1 0 1t1 3l51 94l60 108q43 81 86.5 163.5t80 168t64.5 173t42 179.5l39 -4q-2 -24 -2.5 -48.5t-4.5 -48.5 q-13 -81 -39.5 -159.5t-59.5 -155t-70.5 -151t-73.5 -147.5l-54 -111q-3 -7 -10 -25.5t-17 -38.5t-22 -36.5t-25 -19.5q-6 -1 -12 -1q-12 0 -22 6q-13 9 -17 23zM100 750q22 20 43.5 31t45 14.5t48 1t52.5 -8.5q18 -3 36 -9t36 -5q13 2 25 6t24 7q3 2 6 3.5t5 3.5 q16 13 32 12t26 -11t11 -26t-12 -32q-11 -11 -25.5 -15.5t-28.5 -7.5q-20 -4 -40 -7t-40 1q-31 6 -58 15t-53 14t-52.5 2t-56.5 -22z" />
<glyph unicode="&#xe4f;&#x22;" horiz-adv-x="922" d="M97 260q0 25 8 48.5t25.5 43.5t45.5 34.5t67 21.5q-35 44 -49.5 81t-14.5 69q0 36 15.5 65t41 49t57.5 31t65 11q27 0 53.5 -8.5t47.5 -26t35.5 -45t17.5 -66.5q38 61 78.5 85t84.5 24q31 0 60.5 -14.5t52 -39t36 -56.5t13.5 -67q0 -23 -7 -47t-23 -46.5t-42 -42 t-63 -32.5q32 -33 46 -65t14 -61q0 -34 -16.5 -64t-43 -52.5t-61 -35.5t-70.5 -13q-49 0 -91.5 29t-61.5 98q-38 -48 -75 -67.5t-77 -19.5q-33 0 -63.5 14.5t-54 39.5t-37.5 57.5t-14 67.5zM145 269q0 -24 10.5 -48t27.5 -43.5t40 -31.5t49 -12q33 0 66 20.5t64 69.5 q2 6 9 10.5t14.5 5.5t13.5 -2t6 -10q16 -72 53 -102.5t80 -30.5q25 0 50 10t44.5 27.5t31.5 41t12 50.5q0 16 -10 31.5t-22.5 30.5t-22.5 30.5t-10 32.5q0 10 13 17q69 24 99 60.5t30 78.5q0 27 -11.5 52t-30.5 44t-42.5 30.5t-48.5 11.5q-37 0 -70.5 -25.5t-56.5 -88.5 q-8 -21 -24 -21q-12 0 -17.5 5t-5.5 10q-2 44 -14 75t-30 50.5t-41 28.5t-47 9t-48 -9t-43 -25.5t-30.5 -39t-11.5 -50.5q0 -57 62 -125q8 -4 10 -11.5t-0.5 -15.5t-8.5 -15t-12 -9q-66 -14 -96.5 -47t-30.5 -70zM338 1006q0 25 4.5 38.5t10.5 15.5q13 -4 30.5 -15 t33.5 -32.5t27.5 -55t11.5 -82.5q0 -33 -10 -53t-15 -22q-7 0 -17.5 3.5t-21.5 16t-22.5 36.5t-20.5 65q-6 26 -8.5 47t-2.5 38zM339 353q0 48 24.5 80.5t69.5 36.5q30 2 52.5 -6.5t38 -24t23.5 -34.5t8 -38q0 -15 -5.5 -33.5t-19 -34.5t-36 -27t-55.5 -11q-20 0 -38 6.5 t-32 18.5t-22 29t-8 38zM373 958q0 -37 12 -61.5t26 -40.5q3 8 5.5 18t2.5 21q0 21 -5.5 39.5t-12.5 32.5t-14 22.5t-10 8.5q-2 -11 -3 -21t-1 -19zM384 361q0 -22 19.5 -37t41.5 -15q19 0 31 5.5t19 14.5t10 19t3 19q0 8 -5 18t-12.5 18.5t-17.5 14t-20 5.5 q-29 0 -49 -16.5t-20 -45.5zM521 876q0 45 11.5 77t27 53t32.5 32.5t28 15.5q15 -5 15 -50q0 -17 -2.5 -38t-8.5 -47q-8 -38 -18.5 -61t-21.5 -35.5t-21 -16.5t-16 -4q-7 2 -16.5 21t-9.5 53zM555 897q0 -23 10 -41q14 15 24.5 41t10.5 65q0 8 -0.5 15.5t-1.5 15.5 q-7 0 -14.5 -10.5t-14 -25.5t-10.5 -31.5t-4 -28.5z" />
<glyph unicode="&#xe24;&#xe32;" horiz-adv-x="1133" d="M18 532q0 23 18 59t56 69.5t97.5 58t143.5 24.5q76 0 126.5 -13.5t83.5 -35t52 -49.5t30 -57q4 34 19.5 64t42 52.5t62 35t80.5 12.5q87 0 132.5 -33.5t65 -89t21.5 -127.5t2 -148v-176q0 -78 0.5 -142.5t0 -119t-1 -104.5t-2.5 -100t-5 -105q-4 -12 -14 -12 q-7 0 -12.5 4.5t-5.5 9.5q0 71 -0.5 167t-1 199.5t-1.5 205.5t-2.5 185.5t-3 139.5t-2.5 67q-5 32 -18.5 59.5t-34.5 47.5t-49 31.5t-61 11.5q-172 0 -173 -228q0 -128 0.5 -244.5t-1.5 -231.5l-7 -406q0 -12 -5.5 -18.5t-13.5 -6.5q-6 0 -11 5.5t-7 17.5q6 231 6 408 q0 152 -3 262.5t-13.5 187.5t-29.5 124t-50.5 73t-77.5 35t-110 9q-80 0 -132.5 -21t-84.5 -49t-46 -56t-18 -41l152 -47q5 -4 7 -17t2 -33q0 -24 -2.5 -55t-5.5 -65t-6 -69t-5 -67q17 15 36.5 22t39.5 7q22 0 42 -8t35.5 -22.5t25 -34t9.5 -42.5q0 -27 -10 -48.5 t-26.5 -36.5t-38 -23t-44.5 -8q-52 5 -82 35t-30 75q0 10 1 25t4 48t8.5 91.5t13.5 156.5q1 7 1 13v11q0 13 -12.5 22.5t-31 16t-40.5 11t-40.5 9t-31 10t-12.5 12.5zM193 106q0 -36 23 -58.5t56 -22.5q35 0 60.5 23.5t29.5 62.5q0 17 -7.5 31.5t-20 25t-28.5 16.5t-34 6 q-36 0 -57.5 -25.5t-21.5 -58.5z" />
<glyph unicode="&#xe26;&#xe32;" horiz-adv-x="1133" d="M27 117q0 13 5.5 31.5t19 35.5t36 28t55.5 9q26 -1 49.5 -10t36.5 -31q5 65 5.5 118t-3.5 95q-6 83 -14 88q-20 11 -48.5 18.5t-54 13.5t-43.5 13t-18 17q1 25 25 62.5t69 71.5t110 56.5t149 18.5q101 -8 151 -43q49 -35 72 -99q12 46 47 84q52 58 153 58q57 0 96 -15.5 t63.5 -43t37.5 -65t18.5 -81.5t6 -93.5t0.5 -99.5v-124q0 -67 -0.5 -138t-1.5 -142t-2 -135.5t-2 -118t-3 -89.5q0 -6 -6 -10.5t-12 -4.5q-14 0 -14 17q0 35 1 94t1 131v218v154v102v64q0 25 0.5 39t0.5 26q1 71 -14 136q-13 63 -51 107q-37 43 -112 43q-172 0 -185 -186 q4 -100 5 -195.5t-1 -191.5v-150q0 -57 -1 -121.5t-1 -122.5v-153q-2 -12 -15.5 -14.5t-21.5 12.5v139q0 54 1 115t1 116v138q3 159 4 273t-17.5 188.5t-64.5 110.5t-137 38q-86 2 -144 -19.5t-94 -50.5t-52.5 -57.5t-18.5 -40.5l152 -45q10 -4 13 -58q3 -53 3 -121 q0 -34 -1 -67t-3 -66l-6 -96q-2 -30 -16 -49.5t-33 -31t-39 -15.5t-33 -2q-54 4 -80 36.5t-24 80.5zM55 123q-2 -39 19.5 -64.5t56.5 -29.5q19 -2 34 3.5t26 16t18 24.5t10 29q5 33 -15.5 61t-56.5 32q-34 4 -61 -16.5t-31 -55.5z" />
<glyph unicode="&#xfb01;" horiz-adv-x="537" d="M6 436.5q0 20.5 17 24.5l32 8q15 4 31 5t33 1q2 55 1 124t11 129t46 101t104 41q32 0 58 -6t43 -23.5t28.5 -49t15.5 -84.5q2 -19 -5 -27t-18.5 -8t-20.5 6t-11 16q-4 49 -10.5 75t-16.5 37t-25.5 13t-37.5 2q-35 0 -56.5 -23.5t-32 -67.5t-14.5 -107.5t-4 -145.5 q47 0 83 -4t38 -20q2 -9 0 -15q-4 -14 -25 -12q-20 2 -29.5 3t-17.5 1h-18h-33l12 -405q-6 -27 -29.5 -24t-23.5 19l-14 406q-25 -2 -36 -2t-17.5 -1t-13.5 -3t-23 -4q-21 0 -21 20.5zM369 33l12 534q0 13 7 19t16.5 6t17.5 -6t8 -19l-10 -534q-2 -15 -9.5 -21t-15.5 -5 t-16 7t-10 19z" />
<glyph unicode="&#xfb02;" horiz-adv-x="571" d="M6 436.5q0 20.5 17 24.5q79 14 96 14q2 55 1 124t11 129t46 101t87 45.5t77 -6t41 -28t28 -49.5q22 -60 20 -154q0 -10 5 -13t11 -0.5t11 10.5t4 19l-2 332q2 12 9 18.5t16.5 6.5t16.5 -6.5t7 -18.5l6 -950q-2 -12 -9 -18.5t-16.5 -6.5t-16.5 6.5t-7 18.5l-4 512 q-23 -3 -44 6t-30 35q-8 21 -7 48.5t1 55.5t-4.5 55t-22.5 48q-26 32 -67 29t-62.5 -26.5t-32 -67.5t-14.5 -107.5t-4 -145.5q125 0 121 -24q2 -9 0 -15q-2 -15 -123 -8l12 -405q-6 -27 -29.5 -24t-23.5 19l-14 406q-25 -2 -49.5 -5t-40.5 -5q-21 0 -21 20.5z" />
<glyph unicode="MALIDesign&#x28;c&#x29;" horiz-adv-x="1927" d="M-1175 46q0 4 4 7.5t10 3.5t11 -5t9 -12.5t7 -15.5t4 -14v-49q5 31 14 50.5t21 30.5t27 14.5t33 3.5q54 0 76 -32t22 -107v-148q-4 -7 -13 -7q-10 0 -10 7l-1 150q-1 23 -3 44t-9 37t-22 25.5t-42 9.5q-24 0 -39 -16t-24 -41.5t-13.5 -56.5t-6.5 -60.5t-2 -54t-1 -36.5 q0 -11 -13 -11q-12 0 -12 12l-6 229l-4 12q-2 4 -9.5 15t-7.5 15zM-906 41q1 6 13 6q10 0 10 -6l1 -150q1 -23 3 -44t9 -37t22 -25.5t42 -9.5q23 0 38.5 16t24.5 41.5t13.5 56.5t6 60.5t2 53.5t1.5 37q0 11 12 11q13 0 13 -12l6 -229q0 -5 3 -11l8 -12q3 -6 6.5 -11t3.5 -8 q0 -11 -13 -11t-21.5 17t-10.5 30v49q-5 -32 -14 -51t-21.5 -30t-28 -14.5t-32.5 -3.5q-52 0 -74.5 32t-22.5 107v148zM-619 -105q0 27 8.5 55t26 50.5t45 37t66.5 14.5q18 0 39 -5.5t40 -16.5t31.5 -27t12.5 -37q0 -7 -12 -7q-5 0 -10 2.5t-6 9.5v-1q-14 30 -39 44t-56 14 t-54 -11.5t-38 -30.5t-22.5 -43t-7.5 -48t6.5 -45.5t20.5 -37.5t36.5 -25.5t54.5 -9.5q45 0 66.5 15t31 32.5t13 32.5t13.5 15q11 0 11 -13q0 -11 -7 -29t-23 -35.5t-42 -30t-63 -12.5q-39 0 -66 12.5t-44 32.5t-24.5 45.5t-7.5 52.5zM-264 -145q0 20 0.5 54.5t1.5 75 t3 81.5t4.5 74.5t7 55t9.5 21.5q6 0 10.5 -3.5t4.5 -9.5l-14 -241q2 11 9 24.5t19.5 25.5t31 20t44.5 8q41 -1 63.5 -18.5t33 -53.5t12.5 -91t2 -130q0 -9 -10 -9q-13 0 -13 13q0 66 -2 115.5t-11 82.5t-26.5 49.5t-48.5 16.5q-42 0 -63.5 -26t-31 -66t-10 -87.5t-0.5 -90.5 q0 -6 -7 -6q-5 0 -10 2.5t-6 4.5q-3 51 -3 108zM68 -63q0 43 16.5 80.5t45 65.5t68 44t84.5 16q41 0 76.5 -13.5t62 -37.5t41.5 -57t15 -71q0 -24 -5 -50t-16 -47.5t-27.5 -35.5t-38.5 -14q-20 0 -31.5 6.5t-19.5 27.5q-10 -16 -27.5 -22.5t-37.5 -6.5q-34 0 -55 10.5 t-33 27t-16 36.5t-4 38q0 8 3.5 27.5t14.5 39.5t31.5 35.5t53.5 15.5q26 0 45 -10t36 -33l4 27q3 7 11 7q13 0 13 -8q-3 -10 -6.5 -29t-6.5 -41.5t-5 -47.5t-2 -47q0 -20 9.5 -26.5t18.5 -6.5q19 0 32.5 14.5t21.5 34.5t11.5 42t3.5 36q0 34 -13 63t-36 50t-55 33t-71 12 q-41 0 -75 -14.5t-59.5 -40t-39.5 -59t-14 -72.5q0 -40 14.5 -74t40.5 -58.5t62.5 -38.5t81.5 -14q18 0 43.5 3.5t37.5 9.5q8 -3 8 -10q0 -6 -9.5 -10.5t-23.5 -7.5t-29 -4t-27 -1q-49 0 -90 15t-70.5 42.5t-46 65.5t-16.5 83zM161 635q5 15 18.5 36.5t39 41t65.5 33 t99 13.5q19 0 35 -4t28 -9t19 -10t8 -8q0 -9 -4 -21t-19 -25.5t-44 -27t-78 -24.5q-32 -8 -57 -10.5t-45 -2.5q-58 0 -65 18zM168 955q7 18 63 18q19 0 43.5 -2.5t55.5 -10.5q46 -10 73.5 -22.5t42.5 -25.5t20 -25t5 -20q-4 -8 -25.5 -19.5t-63.5 -11.5q-54 0 -93 13.5 t-64.5 32.5t-39 39t-17.5 34zM186 -63q0 -15 3 -32.5t12 -31.5t25.5 -23.5t43.5 -9.5q19 0 31.5 4t20.5 15t13 29.5t8 47.5v31q-1 16 -8 29t-17 22t-22 13.5t-23 4.5q-31 0 -48.5 -16t-26 -35t-10.5 -34.5t-2 -13.5zM236 663q13 -2 24 -3.5t22 -1.5q45 0 75.5 14.5 t48.5 31.5l-29 9q-5 1 -9.5 1.5t-9.5 0.5q-24 0 -46 -6.5t-39 -15.5t-27 -17.5t-10 -12.5zM242 929q0 -8 13 -17.5t31 -17t38 -12.5t34 -5q15 0 26.5 3.5t21.5 8.5q-20 16 -50 28.5t-81 12.5h-16q-8 0 -17 -1zM553 -120q0 16 11 16t11 -11q0 -37 11 -61.5t29.5 -39.5 t42.5 -21t50 -6q31 0 52.5 8t34.5 20t18.5 26.5t5.5 27.5q0 52 -30 75t-78 23q-11 0 -11 11q0 7 7 8q55 7 78.5 30.5t23.5 57.5q0 27 -22 50.5t-68 23.5q-45 0 -70.5 -25.5t-25.5 -68.5q0 -1 0.5 -4t1.5 -8q-2 -12 -12 -12q-6 0 -7 7l-1 1q-2 11 -3.5 18t-1.5 11 q0 22 9.5 41t26 32.5t37.5 21.5t45 8q22 0 42 -7.5t36 -21t25.5 -32.5t9.5 -41q0 -12 -3 -25.5t-10.5 -26t-20 -22.5t-31.5 -15q22 -5 36 -16.5t22 -26.5t11.5 -32t3.5 -32t-6 -33t-21 -34.5t-39 -27.5t-60 -11q-32 0 -61 6.5t-51 22.5t-35 44t-13 71zM555 628 q0 30 9.5 58.5t30.5 52t54.5 41t81.5 25.5v6q-42 48 -59.5 89t-17.5 81q0 42 17 77t45.5 60.5t66.5 39.5t81 14q33 0 65.5 -9.5t58.5 -30.5t43.5 -54.5t21.5 -80.5q47 74 95.5 102.5t101.5 28.5q37 0 72 -17.5t62 -46.5t43.5 -67t16.5 -78q0 -29 -8.5 -58.5t-27.5 -56.5 t-50.5 -50.5t-76.5 -39.5q38 -39 55.5 -77.5t17.5 -74.5q0 -41 -20 -77t-52.5 -62.5t-73.5 -42t-82 -15.5q-29 0 -57 8t-53 26t-44.5 47t-30.5 71q-48 -58 -91.5 -81t-91.5 -23q-39 0 -76 18t-65 48t-45 68.5t-17 80.5zM609 625q0 -29 12.5 -57.5t33.5 -52t49 -38t58 -14.5 q39 0 79 25t77 83q4 19 28 19q23 0 23 -14q20 -86 64 -122.5t96 -36.5q30 0 59.5 12t53 33t38.5 49t15 60q0 70 -76 137q-3 7 -3 13t3.5 12t12.5 9q82 30 118.5 73t36.5 94q0 33 -13.5 62.5t-36 52.5t-51.5 36.5t-59 13.5q-45 0 -84.5 -31t-67.5 -106q-9 -25 -28 -25 q-14 0 -21 5.5t-7 12.5q-3 54 -17.5 91t-36 60.5t-49 34t-56.5 10.5t-57 -10.5t-51 -30t-37 -47t-14 -61.5q0 -67 74 -150q12 -6 12 -20q0 -15 -7 -25.5t-18 -15.5q-79 -17 -116 -56.5t-37 -84.5zM846 739q0 28 7 53.5t21 45t34.5 31t47.5 11.5h9q4 0 9 -1q4 1 8 1h8 q25 0 46 -11.5t36.5 -29.5t24 -40t8.5 -43q0 -18 -6.5 -40.5t-22.5 -41.5t-42.5 -32t-66.5 -13q-24 0 -46 7.5t-38.5 22t-26.5 34.5t-10 46zM885 1512q0 58 18 66q14 -5 35.5 -18t41 -38.5t33.5 -65.5t14 -100q0 -20 -4 -36t-9 -28t-10 -18.5t-8 -7.5q-9 0 -21 4t-25.5 19 t-27 43.5t-24.5 78.5q-8 32 -10.5 56.5t-2.5 44.5zM896 -124q0 38 12 66.5t32 47.5t45 28.5t52 9.5t57.5 -6.5t58.5 -37.5q-1 5 -1.5 11.5t-0.5 14.5q0 12 0.5 30.5t2 47t4.5 68t7 92.5q0 10 12 10q9 0 12 -9q-10 -122 -11 -209t-1 -153q0 -42 3 -74t14 -50l10 -9q0 -5 2 -7 q0 -9 -12 -9q-9 0 -16 9l-8 9q-9 11 -10 19l-2 10q-32 -29 -64.5 -41.5t-58.5 -12.5q-18 0 -42 7t-45.5 23.5t-36.5 44.5t-15 70zM900 749q0 -25 22 -43.5t49 -18.5q24 0 39 7t24 17.5t12 22.5t3 22t-5.5 22t-14.5 22t-21 16.5t-25 6.5q-2 0 -4.5 -0.5t-4.5 -0.5 q-3 0 -5.5 0.5t-5.5 0.5q-27 0 -45 -21.5t-18 -52.5zM921 -124q0 -35 13.5 -58.5t32 -37.5t39 -19.5t35.5 -5.5q19 0 38.5 6t35.5 17.5t26.5 28.5t10.5 38q0 15 0.5 30.5t0.5 41.5q0 24 -10.5 40t-27 26t-36 14.5t-36.5 4.5q-24 0 -46 -7t-39 -22t-27 -39t-10 -58zM926 1456 q0 -45 14.5 -75t31.5 -48l9 29q1 5 1.5 9.5t0.5 9.5q0 24 -6.5 46t-15.5 39t-17.5 27t-12.5 10q-2 -13 -3.5 -24.5t-1.5 -22.5zM1104 1357q0 54 13.5 92.5t32.5 64t39 39t34 18.5q18 -8 18 -63q0 -19 -2.5 -43.5t-10.5 -55.5q-10 -46 -22.5 -73.5t-25.5 -42.5t-25 -20 t-20 -5q-8 4 -19.5 25.5t-11.5 63.5zM1145 1381q0 -15 3.5 -26.5t8.5 -21.5q16 20 28.5 50t12.5 80v17q0 8 -1 17q-8 0 -17.5 -13t-17 -31t-12.5 -38t-5 -34zM1249 -124q0 38 12 66.5t32 47.5t45 28.5t52 9.5t57.5 -6.5t58.5 -37.5q-1 5 -1.5 11.5t-0.5 14.5q0 12 0.5 30.5 t2 47t4.5 68t7 92.5q0 10 12 10q9 0 12 -9q-10 -122 -11 -209t-1 -153q0 -42 3 -74t14 -50l10 -9q0 -5 2 -7q0 -9 -12 -9q-9 0 -16 9l-8 9q-9 11 -10 19l-2 10q-32 -29 -64.5 -41.5t-58.5 -12.5q-18 0 -42 7t-45.5 23.5t-36.5 44.5t-15 70zM1274 -124q0 -35 13.5 -58.5 t32 -37.5t39 -19.5t35.5 -5.5q19 0 38.5 6t35.5 17.5t26.5 28.5t10.5 38q0 15 0.5 30.5t0.5 41.5q0 24 -10.5 40t-27 26t-36 14.5t-36.5 4.5q-24 0 -46 -7t-39 -22t-27 -39t-10 -58zM1549 728q0 -9 4 -21t19 -25.5t43.5 -27t78.5 -24.5q32 -8 56.5 -10.5t44.5 -2.5 q58 0 66 18q-5 14 -18 35.5t-38.5 41t-65.5 33.5t-100 14q-20 0 -36 -4t-28 -9t-18.5 -10t-7.5 -8zM1551 867q4 -8 25.5 -19.5t63.5 -11.5q54 0 92.5 13.5t64 32.5t39 39t18.5 34q-8 18 -63 18q-19 0 -43.5 -2.5t-55.5 -10.5q-46 -10 -73.5 -22.5t-42.5 -25.5t-20 -25 t-5 -20zM1603 -123q0 16 6 40.5t21 46.5t40.5 38t63.5 16q29 0 51.5 -10.5t44.5 -37.5l3 34q1 5 5.5 7.5t9.5 2.5q6 0 11 -2t5 -6q-5 -14 -7.5 -38t-3 -53.5t-0.5 -61.5v-62q0 -15 4.5 -27t26.5 -12q9 -5 9 -11q0 -5 -5 -10q-5 -1 -8 -1h-8q-20 0 -29.5 8.5t-11.5 28.5 q-15 -23 -40.5 -32.5t-57.5 -9.5q-42 0 -67.5 15.5t-39.5 38.5t-18.5 49.5t-4.5 48.5zM1616 704l29 9q5 1 9.5 1.5t9.5 0.5q24 0 46 -6.5t39 -15.5t27 -17.5t10 -12.5q-13 -2 -24.5 -3.5t-22.5 -1.5q-45 0 -75 14.5t-48 31.5zM1616 889q20 16 50 28.5t80 12.5h16q9 0 18 -1 q0 -8 -13 -17.5t-31 -17t-38 -12.5t-34 -5q-15 0 -26.5 3.5t-21.5 8.5zM1627 -124q0 -20 4 -42t15.5 -41t32 -31.5t52.5 -12.5q26 0 44.5 5.5t30.5 19.5t17.5 39t5.5 63l-2 41q-3 19 -12.5 34.5t-22.5 25.5t-28 15.5t-29 5.5q-32 0 -52.5 -15t-33 -35t-17.5 -40.5t-5 -31.5z M1949 106q0 19 14 32.5t31 13.5q10 0 21 -6q22 -13 22 -39q0 -19 -13 -31.5t-31 -12.5q-20 0 -32 14.5t-12 28.5zM1969 -263l6 267q0 12 12 12q13 0 13 -12l-5 -267q-3 -14 -13 -14q-11 0 -13 14zM2110 200q1 13 14 13q11 0 11 -13l3 -475q-3 -12 -14 -12t-11 12zM2202 6 q1 10 11 10q8 0 11 -9q18 -68 34 -112.5t30.5 -71.5t26.5 -40t23 -18q5 1 11 10.5t15 36t22.5 73.5t32.5 122q5 11 14 11q10 0 10 -10q-6 -29 -11.5 -58t-19 -74t-39 -115t-71.5 -181q-8 -12 -18 -12t-10 8q0 4 1 5q16 40 26.5 67t17 45t9 28t2.5 16q0 7 -12 15.5t-31 34 t-41.5 76.5t-43.5 143zM2450 -239q0 8 7 15.5t16 7.5q5 0 11 -3q11 -8 11 -20q0 -8 -6.5 -15.5t-15.5 -7.5t-16 8t-7 15zM2582 -127q0 27 8.5 55.5t26 51t45 37t66.5 14.5q18 0 39 -6t40 -17t31.5 -27t12.5 -36q0 -7 -12 -7q-5 0 -10 2.5t-6 9.5v-1q-14 30 -39 43.5 t-56 13.5t-54 -11t-38 -30t-22.5 -43t-7.5 -49q0 -23 6.5 -44.5t20.5 -38t36.5 -26t54.5 -9.5q33 0 53.5 11t32.5 25t17 27.5t7 18.5q3 14 14 14t11 -14q0 -11 -7 -29t-23 -35t-42 -29.5t-63 -12.5q-39 0 -66 12t-44 32t-24.5 45.5t-7.5 52.5zM2913 -135q0 76 37.5 119.5 t112.5 43.5q29 0 55.5 -10t47 -29.5t32.5 -49t12 -68.5q0 -40 -11.5 -68t-32 -45t-48 -25t-59.5 -8q-24 0 -49.5 7t-47 23t-35.5 43t-14 67zM2938 -135q0 -33 11 -55t28.5 -35t39 -18.5t42.5 -5.5q25 0 48.5 6t40.5 19t27.5 34t10.5 52q0 38 -10.5 65.5t-28 45t-39.5 25.5 t-45 8q-61 0 -93 -34.5t-32 -106.5zM3262 3q0 11 13 11q12 0 20 -16.5t12 -30.5v-48q6 33 13.5 53t17 30.5t22 14t28.5 3.5q36 0 56 -30t24 -76q7 46 22.5 77t54.5 31q37 0 56.5 -19t28.5 -51t10 -74.5t1 -88.5q0 -26 -2 -48.5t-10 -22.5q-10 0 -10.5 9.5t-0.5 22.5 q0 20 1 45t1 52q0 28 -2.5 56t-10.5 50.5t-22.5 36t-38.5 13.5q-15 0 -25.5 -12.5t-18 -33.5t-11.5 -47t-6.5 -53t-3 -52t-0.5 -44v-34q-3 -8 -13 -8q-9 0 -10.5 5.5t-1.5 19.5q0 10 0.5 23t0.5 29q0 31 -2 66.5t-9.5 66t-22 51t-38.5 20.5q-19 0 -32 -16.5t-21.5 -42.5 t-12.5 -58t-6.5 -62t-3 -54.5t-1.5 -36.5q0 -10 -12 -10q-13 0 -13 10l-3 235q0 8 -9 18.5t-9 19.5z" />
<glyph unicode=" "  horiz-adv-x="706" />
<glyph unicode="&#x09;" horiz-adv-x="706" />
<glyph unicode="&#xa0;" horiz-adv-x="706" />
<glyph unicode="!" horiz-adv-x="317" d="M93.5 67.5q3.5 19.5 14.5 34t27 20.5t31 -7l-14 -38q-2 0 -6 1.5t-6 3t1.5 2t17.5 -0.5q3 0 1 -2.5t-5.5 -5t-6.5 -5.5t-1 -5t3 4.5t3 4.5q3 -2 0.5 -5.5t-3.5 -6.5q-1 -2 -1 -8t0 -3t-0.5 6.5t1.5 5.5t3 -4.5t-1 -5.5q-3 2 -3.5 5.5t-2.5 6.5l-2 -1l-2 -4q0 -4 0.5 -8 t-1.5 -8q0 -2 -0.5 1.5t-1.5 5.5q-5 5 -7 9.5t-7 9.5q-2 18 5.5 30.5t19.5 17.5t25.5 0.5t24.5 -19.5q2 -2 -1.5 3t-5.5 7q-1 2 1 -2t4 -6l9 -14q5 -7 5.5 -19t-1.5 -20q-4 -21 -18 -32t-31.5 -12.5t-35 6.5t-27.5 24q-9 14 -5.5 33.5zM122 810q3 18 14 27.5t24 10 t24.5 -7.5t16.5 -26q-4 -110 -9.5 -219t-9.5 -220q-2 -46 -4.5 -91t0.5 -92l-39 -8q-13 72 -13.5 145t-0.5 146q0 85 -0.5 168t-2.5 167z" />
<glyph unicode="&#x22;" horiz-adv-x="444" d="M91 947q3 18 14 27.5t24 10t24.5 -7.5t16.5 -26q-2 -28 -4 -60.5t-4.5 -66t-5.5 -66t-7 -60.5h-39q-5 27 -7.5 59t-4 65t-3 65.5t-4.5 59.5zM251 947q3 18 14 27.5t24 10t24.5 -7.5t16.5 -26q-2 -28 -4 -60.5t-4.5 -66t-5.5 -66t-7 -60.5h-39q-5 27 -7.5 59t-4 65 t-3 65.5t-4.5 59.5z" />
<glyph unicode="#" horiz-adv-x="737" d="M146 307l2 39q29 4 56 10.5t56 8.5q70 6 140.5 8.5t140.5 5.5q18 -5 26 -16.5t7.5 -24.5t-10 -24t-27.5 -14q-59 3 -118 6.5t-119 2.5q-38 -1 -76.5 -2.5t-77.5 0.5zM176 527l2 39q29 4 56 10.5t56 8.5q70 6 140.5 8.5t140.5 5.5q18 -5 26 -16.5t7.5 -24.5t-10 -24 t-27.5 -14q-59 3 -118 6.5t-119 2.5q-38 -1 -76.5 -2.5t-77.5 0.5zM211 152q0 20 3.5 38t5.5 37q1 3 0.5 -3t-2.5 -9q-2 -2 -1 3t1 7q1 10 1.5 20t0.5 20l3 41q7 60 17.5 118.5t18.5 118.5q6 42 10 81.5t12 80.5q2 11 1.5 20.5t2.5 20.5q10 16 23.5 21.5t25.5 2t20.5 -15.5 t7.5 -30q-1 -3 -1.5 -8.5t-0.5 -8.5t0 -1v14q0 3 0 1v-5q0 -4 -0.5 -8t-0.5 -7q-2 -8 -5 -19t-5 -19q-9 -30 -13 -61t-11 -63q-17 -80 -30.5 -159.5t-27.5 -160.5q-3 -18 -8.5 -35.5t-8.5 -35.5zM401 152q0 20 3.5 38t5.5 37q1 3 0.5 -3t-2.5 -9q-2 -2 -1 3t1 7q1 10 1.5 20 t0.5 20l3 41q7 60 17.5 118.5t18.5 118.5q6 42 10 81.5t12 80.5q2 11 1.5 20.5t2.5 20.5q10 16 23.5 21.5t25.5 2t20.5 -15.5t7.5 -30q-1 -3 -1.5 -8.5t-0.5 -8.5t0 -1v14q0 3 0 1v-5q0 -4 -0.5 -8t-0.5 -7q-2 -8 -5 -19t-5 -19q-9 -30 -13 -61t-11 -63 q-17 -80 -30.5 -159.5t-27.5 -160.5q-3 -18 -8.5 -35.5t-8.5 -35.5z" />
<glyph unicode="$" horiz-adv-x="782" d="M70 585q5 50 33.5 107t71 105.5t96.5 81t110 32.5q48 1 87 -10.5t74 -48.5q41 -43 63.5 -99t32 -116.5t10 -123t-2.5 -118.5q0 -2 0 -0.5t0.5 5.5t0.5 8v6q0 4 0 -3.5t-1 -11.5q-1 -21 -12.5 -32t-25.5 -11.5t-26.5 9t-14.5 30.5q2 45 5 89t-2 89q0 2 0 -1.5t0.5 -8 t0.5 -8t0 -1.5q-3 32 -8 65.5t-13.5 66t-22.5 62.5t-36 55t-50.5 35t-60.5 5q-3 0 -15 -3l-28 -5q-15 -3 -28.5 -7.5t-19.5 -9.5q-21 -17 -49 -47.5t-52 -69.5t-40 -84.5t-14 -92.5q2 -38 18 -72.5t42 -63t59.5 -49t69.5 -29.5q35 -8 72.5 -9.5t72.5 -6.5q21 -3 46.5 -14 t47.5 -28.5t35 -40.5t9 -50q-3 -19 -15 -35.5t-29 -29t-36 -22t-35 -14.5q-38 -12 -85.5 -16.5t-97 -1t-95 16.5t-78.5 36q-8 6 -12 15.5t-9 17.5l35 20q13 -21 40.5 -34t63.5 -19t76 -6t77.5 5.5t68.5 16t48 24.5q11 10 19 23t18 24q3 4 -2 -4t-8 -12v2v3q-3 12 -9 19 q-9 12 -19 21t-25 15q-22 10 -46 13.5t-48 5t-48.5 2.5t-48.5 7q-55 13 -101 40.5t-78.5 69t-47.5 97t-8 124.5zM346 247q0 134 1 270q1 121 -1 240.5t4 239.5q4 21 17 30t27 7.5t25 -13.5t10 -33q-2 -12 -1.5 -24.5t-3.5 -24.5q-1 -5 -1 2.5t1 17t1.5 16.5t0.5 2 q-11 -251 -18.5 -499.5t-18.5 -499.5l-39 -2q-4 137 -4 271z" />
<glyph unicode="%" horiz-adv-x="985" d="M153.5 706q1.5 31 25.5 59q16 13 32 12t26 -11t11 -26t-12 -32q-2 -2 -5.5 -6t-1.5 -2q5 8 10 12q4 4 -1.5 -5.5t-6.5 -15.5q0 -2 0.5 -4t0.5 -4q12 -23 25.5 -40.5t40.5 -24.5q13 -3 28 -1t26.5 9t18 19t2.5 28q-5 21 -18.5 36.5t-32 23t-39.5 7t-40 -11.5 q-13 -7 -21 -20.5t-9 -28.5q0 -6 2.5 -17t5 -20t3 -13.5t-2.5 0.5l-3 3l-14 -38q-16 5 -25 24.5t-11.5 43t1 45.5t12.5 33q8 10 15.5 20.5t18.5 15.5q39 19 81.5 18t76 -20t52 -54.5t8.5 -84.5q-5 -25 -19 -39.5t-33 -28.5q-28 -21 -60.5 -21.5t-62.5 12t-55 36.5t-38 52.5 t-11.5 59.5zM288 36q27 38 44.5 80.5t34.5 85.5q42 104 81 208t81 207q20 48 41 93.5t44 90.5q0 1 9.5 17t19 33.5t15 28t-0.5 -0.5l51 -51q4 3 11 9t5 2q-12 -14 -26 -17t-25 3t-17.5 18.5t-3.5 30.5q5 8 9.5 14t12.5 11q15 6 27.5 3.5t20.5 -10t10 -20.5t-3 -28 q-70 -117 -126.5 -236t-108.5 -247q-18 -44 -36 -90t-38 -91t-44.5 -88t-54.5 -80zM543.5 234q1.5 31 25.5 59q16 13 32 12t26 -11t11 -26t-12 -32q-2 -2 -5.5 -6t-1.5 -2q5 8 10 12q4 4 -1.5 -5.5t-6.5 -15.5q0 -2 0.5 -4t0.5 -4q12 -23 25.5 -40.5t40.5 -24.5q13 -3 28 -1 t26.5 9t18 19t2.5 28q-5 21 -18.5 36.5t-32 23t-39.5 7t-40 -11.5q-13 -7 -21 -20.5t-9 -28.5q0 -6 2.5 -17t5 -20t3 -13.5t-2.5 0.5l-3 3l-14 -38q-16 5 -25 24.5t-11.5 43t1 45.5t12.5 33q8 10 15.5 20.5t18.5 15.5q39 19 81.5 18t76 -20t52 -54.5t8.5 -84.5 q-5 -25 -19 -39.5t-33 -28.5q-28 -20 -60.5 -21t-62.5 11.5t-55 36.5t-38 52.5t-11.5 59.5z" />
<glyph unicode="&#x26;" horiz-adv-x="829" d="M90.5 288.5q0.5 51.5 19.5 97t61 72.5q23 15 50.5 27.5t54.5 26t52 29.5t43 38q29 35 27 70.5t-23 59t-55.5 29.5t-69.5 -17q-14 -10 -23 -22.5t-17 -27.5q-15 -30 -10.5 -59t19.5 -56t36 -52t39 -46q66 -76 136.5 -143t149.5 -129q26 -20 52.5 -43t55.5 -39l48 -23 q4 -2 12.5 -4t4.5 -2q-3 0 -8.5 0.5t-10 1t-7 1t0.5 1.5q18 1 30 -7.5t15.5 -20.5t-2 -25.5t-21.5 -23.5q-21 -7 -52.5 7.5t-64 36t-60.5 44.5t-42 34q-31 25 -60.5 50.5t-58.5 53.5l-118 123q-34 38 -71 80t-61 87.5t-28.5 94.5t25.5 102q11 18 25 35.5t32 26.5 q36 17 77 20t76.5 -10t60.5 -42t30 -75q2 -15 -1 -32t-6 -32q-6 -38 -29 -63t-55 -44t-68 -34.5t-67.5 -34t-54 -43t-27.5 -60.5q-4 -29 -1 -54.5t9 -52.5q5 -13 7 -15.5t-5 10.5q9 -22 17.5 -39.5t18.5 -33t24 -29.5t35 -27q38 -24 80.5 -29t83.5 5.5t77.5 34t63.5 56.5 q16 20 25 35.5t14.5 31.5t10 34t11.5 43q3 16 3 32q0 3 -1 4l38 14q9 -23 4.5 -54t-16 -62t-26.5 -59t-26 -46q-20 -34 -57 -60t-75 -42q-42 -17 -85.5 -20t-85 7.5t-79 33t-66.5 57.5t-45 85t-15.5 101.5z" />
<glyph unicode="'" horiz-adv-x="236" d="M68 806q3 18 14 27.5t24 10t24.5 -7.5t16.5 -26q-4 -61 -4.5 -122t-8.5 -122l-39 -2q-10 61 -15.5 121.5t-11.5 120.5z" />
<glyph unicode="(" horiz-adv-x="489" d="M90.5 357q-4.5 69 3.5 137.5t30 133.5q15 43 29.5 73t32 56t38.5 52.5t49 62.5q14 12 28.5 12.5t24.5 -7t14 -21.5t-2 -31q-29 -35 -50 -58.5t-37.5 -46t-31 -49.5t-30.5 -69q-29 -77 -35 -156.5t5.5 -158.5t38.5 -155.5t64 -147.5q17 -31 36 -60t37 -59l-35 -20 q-24 35 -44 63t-37 55t-33.5 57.5t-32.5 69.5q-26 62 -42 130t-20.5 137z" />
<glyph unicode=")" horiz-adv-x="489" d="M97 868q5 14 18 22t30.5 7t34.5 -13q34 -37 60.5 -64t48 -53.5t39.5 -57t37 -75.5q27 -66 37 -135.5t4.5 -139.5t-25.5 -138t-52 -132q-21 -40 -40.5 -71t-41.5 -59t-46 -56.5t-54 -64.5l-43 21q23 31 46.5 60.5t43.5 61.5q45 72 78.5 149.5t48 157.5t7 160.5 t-43.5 159.5q-20 43 -37.5 70.5t-38 51t-46.5 47t-62 59.5q-8 18 -3 32z" />
<glyph unicode="*" horiz-adv-x="600" d="M112.5 754.5q1.5 14.5 10 23.5t22.5 11.5t30 -6.5q72 -78 143 -156t139 -160l-26 -29q-81 69 -156 142.5t-153 144.5q-11 15 -9.5 29.5zM135 476q69 81 142 156t144 153q15 10 29.5 9t24 -9.5t12 -22.5t-6.5 -30q-78 -72 -156 -143t-160 -140zM258 800q3 18 14 27.5 t24 10t24.5 -7.5t16.5 -26q-5 -106 -9.5 -211.5t-14.5 -211.5l-39 -2q-9 106 -10 210.5t-6 210.5z" />
<glyph unicode="+" horiz-adv-x="635" d="M111.5 409q-0.5 13 7.5 24.5t26 16.5q10 0 34.5 -0.5t56.5 -1t70 -2t75 -3t71 -3.5t59 -4l2 -39q-91 -10 -182 -18t-182 -8q-18 3 -27.5 14t-10 24zM280 582q3 18 14 27.5t24 10t24.5 -7.5t16.5 -26q0 -10 -0.5 -34.5t-1 -56.5t-2 -70t-3 -75t-3.5 -71t-4 -59l-39 -2 q-10 91 -18 182t-8 182z" />
<glyph unicode="," horiz-adv-x="352" d="M28 -63q-2 21 7.5 33.5t23.5 15.5t27.5 -4.5t19.5 -27.5q1 -5 -1 -1.5t-5 9.5t-4.5 11t1.5 1q11 -7 22.5 -8t24.5 1q24 4 40 15.5t27.5 28.5t18.5 37t13 40l1 5v6q-3 11 -10.5 16.5t-16 5.5t-16.5 -5.5t-11 -15.5q-5 -20 14 -28q3 -2 9.5 -1.5t12.5 1.5q7 1 15 2l27 -20 q-9 -24 -34.5 -28.5t-50.5 5.5t-41 32.5t-6 53.5q19 58 78 61q16 2 34.5 -4.5t29.5 -18.5q24 -27 26 -62.5t-11.5 -70t-39.5 -65t-58.5 -49t-69.5 -20.5t-71 20q-11 6 -16.5 10.5t-9.5 18.5z" />
<glyph unicode="-" horiz-adv-x="594" d="M103 408l2 39q3 1 65 11t175 15q12 0 14 0.5t-12 -0.5q-3 1 3 1h8q35 5 60.5 7t58.5 -5q18 -5 26 -16.5t7.5 -24.5t-10 -24t-27.5 -14q-32 6 -78 9t-97.5 4t-102.5 0t-92 -2z" />
<glyph unicode="." horiz-adv-x="352" d="M109.5 65.5q3.5 19.5 14.5 34t27 20.5t31 -7l-14 -38q-2 0 -6 1.5t-6 3t1.5 2t17.5 -0.5q3 0 1 -2.5t-5.5 -5t-6.5 -5.5t-1 -5t3 4.5t3 4.5q3 -2 0.5 -5.5t-3.5 -6.5q-1 -2 -1 -8t0 -3t-0.5 6.5t1.5 5.5t3 -4.5t-1 -5.5q-3 2 -3.5 5.5t-2.5 6.5l-2 -1l-2 -4q0 -4 0.5 -8 t-1.5 -8q0 -2 -0.5 1.5t-1.5 5.5q-5 5 -7 9.5t-7 9.5q-2 18 5.5 30.5t19.5 17.5t25.5 0.5t24.5 -19.5q2 -2 -1.5 3t-5.5 7q-1 2 1 -2t4 -6l9 -14q5 -7 5.5 -19t-1.5 -20q-4 -21 -18 -32t-31.5 -12.5t-35 6.5t-27.5 24q-9 14 -5.5 33.5z" />
<glyph unicode="/" horiz-adv-x="604" d="M103 -7q2 26 9.5 50.5t12.5 50.5q20 117 51.5 227t67.5 222q29 90 58 177.5t62 175.5q11 26 18.5 51t21.5 48q-1 -2 -1.5 -6t-0.5 -2q3 18 14 27.5t24 10t24.5 -7.5t16.5 -26q0 -21 -9 -34t-17 -31q-23 -54 -44.5 -108t-41.5 -108q-59 -155 -110.5 -311t-89.5 -318 q-5 -23 -14 -45.5t-13 -46.5z" />
<glyph unicode="0" horiz-adv-x="717" d="M25 374q1 38 6.5 72t13.5 58q15 42 36.5 86.5t51.5 83t68.5 66.5t88.5 39q61 13 118 -1t106 -46.5t86.5 -80.5t59 -103.5t23.5 -114.5t-19 -114q-12 -36 -29.5 -74t-40 -74.5t-51 -68.5t-61.5 -55.5t-71 -36t-81 -9.5q-18 2 -28 12.5t-11.5 23t6 25t24.5 18.5 q37 -7 72.5 5.5t66.5 38t58 61t47 74t33 77.5t17 71q7 60 -16.5 117.5t-62.5 101.5q-12 14 -28.5 29.5t-35.5 28.5t-39 22.5t-39 12.5q-23 4 -45.5 5t-44.5 -4q-53 -14 -94 -52t-69.5 -88t-44 -106t-17.5 -105q-2 -57 13.5 -114t56.5 -100q23 -23 50 -41.5t56 -32.5 q11 -5 22.5 -9t22.5 -7q12 -4 24 -7l18 -36q-11 -5 -27 -8.5t-41 2.5t-61.5 25t-88.5 59q-29 21 -48 52t-30.5 67.5t-16.5 76.5t-4 78z" />
<glyph unicode="1" horiz-adv-x="528" d="M152 562q1 38 7.5 67t18.5 54t30 49t44 51q9 8 16.5 9t17.5 -2q13 -8 25.5 -14t23.5 -17q19 -19 25.5 -47t10.5 -54q15 -97 23.5 -192.5t12.5 -193.5q0 -5 1 -22.5t2 -42t1.5 -52.5t-0.5 -54t-4 -46.5t-8 -29.5q-12 -14 -26 -17t-25 3t-17.5 18.5t-3.5 30.5q1 2 2.5 6.5 t2 6.5t0 -1t-3.5 -16q0 -1 0 2.5t1 9t2 12.5t1 13q2 19 2 38.5t1 38.5q2 90 2.5 179t-7.5 179q-1 13 -3.5 42t-8 61t-15.5 59.5t-26 38.5q-40 -37 -60.5 -76.5t-25.5 -94.5z" />
<glyph unicode="2" horiz-adv-x="653" d="M52 506.5q-1 52.5 4 103.5t22 97q7 18 18.5 33t22.5 30q15 21 40.5 36.5t55.5 25.5t60 14t53 1q40 -5 74 -10t71 -23q50 -24 84 -70t49.5 -102t12.5 -115.5t-26 -108.5q-29 -63 -70 -115t-104 -87q-33 -18 -68 -32.5t-69 -31t-65.5 -37t-57.5 -50.5q1 -1 1 -3 q-8 6 -16 11.5t-16 11.5q51 -12 104 -10.5t105 3.5q4 0 -2.5 -0.5t-14.5 -0.5h-14q-7 0 -3 0q35 4 70 5.5t70 5.5q11 2 22.5 4t22.5 4q5 1 9.5 5t5.5 0q1 -3 -4 -3t-7 -2l-6 -11q0 -2 -1 -5.5t-1 -1.5q0 5 -1 9l-2 8q-2 21 7.5 33.5t23.5 15.5t27.5 -4.5t19.5 -27.5 q4 -31 -0.5 -49.5t-18 -29t-35.5 -15t-53 -7.5q-49 -5 -98.5 -7t-99.5 -2q-18 0 -44.5 -1t-51.5 2.5t-45.5 14.5t-26.5 36q-6 23 10.5 46t41.5 43.5t52 36.5t42 24q19 10 39.5 18.5t40.5 16.5t40 16.5t38 19.5q46 29 85.5 77.5t62 105.5t22.5 117.5t-31 113.5 q-21 35 -53.5 57.5t-71 33.5t-80 10.5t-79.5 -12.5t-69.5 -35.5t-50.5 -58.5t-25 -84t-6 -102t3.5 -104t3.5 -90l-39 -2q-2 48 -5.5 100t-4.5 104.5z" />
<glyph unicode="3" horiz-adv-x="678" d="M49 435q1 61 10.5 116t37.5 109q19 38 52 66t74 45.5t86.5 25t91 4.5t87 -17t73.5 -39q21 -16 33 -51.5t17 -76t4.5 -80t-4.5 -63.5q-5 -32 -19 -58.5t-35 -50.5q-23 -26 -41.5 -43t-38 -30t-42.5 -23.5t-54 -21.5q-10 -3 -20.5 -4t-20.5 -6l20 34q1 -1 1 -4 q-10 8 -19.5 14.5t-19.5 13.5q20 3 35 5.5t29 3.5t29.5 0t36.5 -5q42 -8 79 -33t56.5 -58.5t15 -71.5t-46.5 -74t-88 -50.5t-92.5 -11.5t-92.5 21t-89 47q-15 11 -25.5 26.5t-21.5 29.5q-15 21 -18 50t-3 55q3 18 14 27.5t24 10t24.5 -8t16.5 -26.5v-1q-1 -21 -12.5 -32 t-25.5 -11.5t-26.5 9t-14.5 30.5v2q3 18 14 27.5t24 10t24.5 -8t16.5 -26.5q0 -18 1 -33t9 -35q18 -40 55 -61.5t80.5 -26.5t87 5.5t73.5 34.5q20 15 23 30.5t-5 29t-24 25t-34.5 20.5t-37 14.5t-30.5 6.5q-20 2 -36.5 -2.5t-36.5 -7.5q-12 2 -18.5 7t-12.5 16q0 2 -1 3 q-1 13 2 20.5t13 15.5q13 8 24.5 8.5t25.5 4.5q46 14 84 35.5t66 62.5q18 27 30 67.5t14.5 84t-6 83t-32.5 64.5q-16 17 -42.5 27t-59 13t-67 1t-67 -9t-59.5 -18t-43 -25q-27 -23 -44 -53.5t-27.5 -64.5t-15 -69.5t-6.5 -68.5z" />
<glyph unicode="4" horiz-adv-x="653" d="M3 250q1 14 3.5 26.5t4.5 26.5q12 66 29.5 141t46.5 146t73 130.5t108 94.5q18 9 41 18t47.5 13.5t49 3t44.5 -13.5q46 -27 73 -75t30 -112q2 -36 5.5 -72t1.5 -72q-8 -125 -25 -253t-29 -253l-39 4q6 88 16.5 181t15.5 181q3 37 5 73.5t1 73.5q0 24 -1.5 53.5t-5.5 60.5 t-11.5 60t-19.5 52q-17 33 -39 46t-46 12t-49 -13.5t-48 -31t-43 -39.5t-35 -40q-30 -39 -51 -81t-35.5 -87t-24 -91.5t-16.5 -94.5q-2 -17 -5.5 -35t-4.5 -36q-1 -26 24 -40.5t64 -20.5t86 -6.5t90.5 2.5t78 7t48.5 6q27 4 50 10.5t47 18.5l30 16q2 2 6 4.5t2 0.5 q-2 -3 -5 -7t-6 -7.5t-5 -5.5t-1 1q11 18 26.5 22t28 -2t18.5 -20.5t-1 -34.5q-8 -16 -31 -28.5t-51 -21.5t-55.5 -14.5t-43.5 -7.5q-30 -4 -59.5 -6t-60.5 -4q-25 -1 -61 -2t-75 1t-77.5 8.5t-68.5 22.5t-48 42.5t-17 68.5z" />
<glyph unicode="5" horiz-adv-x="686" d="M47.5 284.5q-1.5 14.5 7.5 30.5h1q17 15 35 13.5t31 -21.5q8 -21 6.5 -41t2.5 -41q5 -27 21 -50t38 -41.5t47.5 -31.5t49.5 -20q27 -8 59.5 -8t65.5 6.5t63 20.5t52 35t33 49.5t5 63.5q-8 51 -31.5 93.5t-58.5 75t-79 53.5t-92 30q-16 3 -31.5 4.5t-32.5 3.5 q-9 1 -26 0.5t-35 1t-34.5 7t-23.5 18.5q-12 21 -16 61.5t0 83t18 78.5t38 48q44 21 91 24t94 2q29 0 46 -0.5t31 -1.5t30.5 -2t45.5 -2l-2 -39q-37 -1 -62 -0.5t-47.5 0.5t-47.5 -1t-62 -4q-11 -1 -25.5 -2.5t-29 -5t-27.5 -10t-20 -17.5q-8 -11 -11 -35t-3 -51t2 -52.5 t5 -38.5q20 -5 40 -3.5t40 -0.5q51 -4 101.5 -15t96.5 -35q41 -21 77.5 -56t62 -78.5t37 -92t4.5 -96.5q-6 -38 -27.5 -70.5t-51.5 -56.5q-48 -38 -108.5 -54t-121.5 -10t-117 33.5t-96 74.5q-24 28 -34.5 54t-15 48t-5 38.5t-3.5 26.5l64 -19v-1q-16 -9 -30.5 -7.5 t-23.5 10.5t-10.5 23.5z" />
<glyph unicode="6" horiz-adv-x="711" d="M18.5 357.5q-1.5 42.5 3 89.5t15.5 95.5t28.5 92.5t41.5 80t55 58q29 20 67.5 32t81.5 14.5t86.5 -4t81 -22.5t67 -41.5t43.5 -60.5q17 -41 24.5 -82.5t9.5 -83.5t1 -85l-2 -86q-1 -21 -12.5 -32t-25.5 -11.5t-26.5 9t-14.5 30.5q1 35 4 75t2.5 81t-6.5 80.5t-22 72.5 q-18 36 -58 58.5t-87.5 30t-95 0t-79.5 -30.5q-27 -19 -47 -50.5t-34 -69.5t-22.5 -80t-12.5 -82.5t-3.5 -76.5t4.5 -62q7 -39 22 -82t39 -75q29 -38 76 -60t100 -28t105.5 4.5t91.5 38.5q5 4 3.5 12.5t-7 18.5t-13.5 20t-14 16q-10 11 -22 19t-25 14q-24 12 -64.5 22.5 t-84 14t-83 -3.5t-60.5 -31q-6 -7 -8.5 -16.5t-6.5 -18.5l-36 18q5 11 8 23t11 21q17 20 43.5 32t58 17t65.5 5t66.5 -5t61 -13t49.5 -18q16 -8 29.5 -18t27.5 -20q15 -9 30 -28.5t22.5 -42t5 -45t-21.5 -37.5q-29 -23 -69 -37.5t-84 -19.5t-89.5 -1t-86 18t-74 37t-52.5 57 q-19 33 -29 51t-16.5 34.5t-12 37t-14.5 57.5q-8 31 -9.5 73.5z" />
<glyph unicode="7" horiz-adv-x="653" d="M2 771q10 26 45 45.5t93 34.5q46 12 103 20.5t115.5 10.5t115 -5.5t101.5 -26.5q20 -8 39 -21.5t28 -33.5q8 -17 10.5 -37t2 -40t-3 -40t-3.5 -38q-2 -32 -5 -70t-10.5 -75.5t-22 -72t-38.5 -58.5q-16 -16 -32.5 -28.5t-36.5 -23.5q-16 -8 -31.5 -14.5t-30 -14t-26.5 -18 t-21 -27.5q-18 -35 -24.5 -75.5t-13.5 -78.5q-2 -16 -0.5 -33t-8.5 -31q-14 -16 -29.5 -17.5t-27 7t-15.5 24t7 33.5q2 2 -0.5 -3t-4.5 -7q-1 -2 0.5 3t0.5 3q0 -10 -2 -15q0 -1 0 2v6q0 5 0.5 9.5t0.5 8.5q1 15 4 28t6 28q8 39 16.5 78t30.5 73q17 26 37 40.5t41.5 25 t44.5 20t46 26.5q27 19 42.5 50.5t23.5 67t11 71.5t6 65q3 31 7 63t-7 61q-5 13 -25.5 22t-45 14.5t-48 8.5t-35.5 3q-80 5 -163.5 0t-160.5 -31q-6 -2 -17 -5.5t-22.5 -9.5t-19.5 -13.5t-8 -17.5q0 -11 6 -22.5t14.5 -22t18 -20t15.5 -16.5l-31 -26q-42 43 -57 76.5 t-5 59.5z" />
<glyph unicode="8" horiz-adv-x="701" d="M49 556.5q0 29.5 5.5 58.5t16.5 54q25 59 75 97t109 53.5t120.5 6.5t111.5 -44q56 -40 83 -88t32 -97.5t-9.5 -97t-41.5 -88t-64 -69.5t-78 -41q-21 -6 -52 -20t-60.5 -33t-51 -43t-22.5 -49q-1 -31 15.5 -50t41 -27t53 -5.5t52 15t36 34t6.5 52.5q-4 20 -14 38t-27 30 q-15 12 -25.5 15t-29.5 8q-18 10 -23.5 25t-0.5 28t19 20.5t34 1.5q32 -11 56.5 -25t46.5 -40q14 -16 22 -35t14 -40q13 -43 4.5 -78.5t-32.5 -61.5t-58.5 -41t-73.5 -17.5t-77.5 9t-70.5 38.5q-10 9 -19 22.5t-11 26.5q-11 52 0 88.5t36.5 63t62.5 47t79 41.5q16 8 36 19 t35 20q52 31 86.5 80.5t37.5 103.5t-32.5 105t-122.5 84q-60 10 -110 -4t-85 -45t-53 -75t-16 -94q7 -48 26 -78t47.5 -49t66.5 -31.5t83 -25.5q20 -6 40.5 -9.5t39.5 -11.5l-14 -38q-9 4 -17.5 3.5t-17.5 -1.5l-18 -4q-9 -1 -18 1q-36 9 -78 20.5t-80 28.5t-67.5 42.5 t-42.5 63.5q-8 25 -12 54t-4 58.5z" />
<glyph unicode="9" horiz-adv-x="688" d="M62 561q8 60 37 114.5t77 93t113 54.5t145 -1q53 -12 94.5 -44.5t71 -78.5t45.5 -102.5t18 -115.5q1 -23 -3 -51.5t-11.5 -57.5t-17 -56.5t-20.5 -47.5q-33 -59 -64 -98.5t-68 -67t-83.5 -48t-110.5 -41.5q-38 -12 -83.5 -13t-82.5 19q-4 2 -11 6.5t-3 2.5q10 -3 13 -4.5 t2.5 -1.5t-4 0.5t-5.5 0.5q-16 9 -22 22t-3.5 25.5t13.5 21.5t29 9q10 -2 23 -9q6 -4 13 -7q22 -6 48 -5.5t51.5 6t49.5 14t43 17.5q65 30 114 78.5t77 108.5t34 128t-15 137q-8 26 -20 55.5t-29.5 56.5t-41 47.5t-53.5 29.5q-44 12 -85 7.5t-76 -22.5t-62.5 -47t-44 -65 t-20.5 -77.5t8 -83.5q14 -51 43.5 -86.5t68.5 -56.5t84.5 -28t91.5 -1.5t89 23.5t78 47l29 -29q-47 -52 -115 -79.5t-139.5 -29t-138.5 24.5t-112 80q-39 47 -53 106.5t-6 119.5z" />
<glyph unicode=":" horiz-adv-x="352" d="M76 122q1 29 21 56t59 36q29 7 50.5 -3t33.5 -29.5t15 -44.5t-3.5 -49t-23 -42.5t-42.5 -23.5q-18 -3 -30.5 3.5t-18.5 17.5t-3 25t17 26q19 7 28 19t10 22.5t-5.5 17.5t-18.5 6q-18 -2 -25.5 -13.5t-6.5 -25t9 -26.5t22 -18l-8 -39q-41 6 -61 31t-19 54zM76 432 q1 29 21 56t59 36q29 7 50.5 -3t33.5 -29.5t15 -44.5t-3.5 -49t-23 -42.5t-42.5 -23.5q-18 -3 -30.5 3.5t-18.5 17.5t-3 25t17 26q19 7 28 19t10 22.5t-5.5 17.5t-18.5 6q-18 -2 -25.5 -13.5t-6.5 -25t9 -26.5t22 -18l-8 -39q-41 6 -61 31t-19 54z" />
<glyph unicode=";" horiz-adv-x="352" d="M67 173.5q3 20.5 16 38t31.5 27.5t41.5 10.5t48 -12.5q36 -18 46 -50t4 -67t-24 -68t-37 -55q-9 -10 -22 -22t-27.5 -19.5t-29.5 -6t-27 19.5q-9 19 -4 34t17.5 22t28 4t27.5 -20l1 -1l-30 21q-6 -2 -12 -3t-13 -2q1 1 4 2l8 4q3 1 5 2q10 7 17.5 15t14.5 17 q9 10 18.5 23.5t15.5 28.5t6 30t-9 29q-6 10 -15 13t-17.5 1t-15.5 -9.5t-10 -17.5q-2 -8 -0.5 -13t5 -9t8 -8.5t7.5 -10.5q2 -3 -3.5 2t-8.5 7q-2 2 1.5 -0.5t5.5 -4.5q5 -3 10.5 -6.5t11.5 -4.5q2 0 6 0.5t2 -1.5t-4.5 -0.5t-5.5 -0.5q-3 -1 4 -0.5t10 2.5q9 5 16 11t16 9 l18 -36q-12 -4 -17.5 -10.5t-12 -12t-17.5 -8.5t-32 0q-12 2 -23 9t-21 15q-22 19 -29 40.5t-4 42zM76 432q1 29 21 56t59 36q29 7 50.5 -3t33.5 -29.5t15 -44.5t-3.5 -49t-23 -42.5t-42.5 -23.5q-18 -3 -30.5 3.5t-18.5 17.5t-3 25t17 26q19 7 28 19t10 22.5t-5.5 17.5 t-18.5 6q-18 -2 -25.5 -13.5t-6.5 -25t9 -26.5t22 -18l-8 -39q-41 6 -61 31t-19 54z" />
<glyph unicode="&#x3c;" horiz-adv-x="786" d="M107.5 295.5q13.5 33.5 69.5 72.5q19 13 39 24l40 22q30 16 53 27t44.5 20t45 18.5t54.5 22.5q29 12 53.5 22t48.5 19t49 16.5t56 13.5q21 1 33 -10t13.5 -25t-7.5 -27t-30 -17q-53 -7 -102 -21t-95.5 -32t-92.5 -40t-94 -46q-12 -6 -30.5 -14.5t-37.5 -20t-34 -25 t-20 -29.5q5 -7 9.5 -15t12.5 -13q46 -33 108 -52t129 -31.5t133.5 -22.5t120.5 -24l-8 -39q-42 8 -83.5 12t-83.5 9q-23 3 -47 6t-48 8q-30 5 -74 16t-88 27t-81.5 38t-53 49.5t-2 61z" />
<glyph unicode="=" horiz-adv-x="635" d="M67 318l2 39q117 11 232.5 17t232.5 12q18 -5 26 -16.5t7.5 -24.5t-10 -24t-27.5 -14q-116 4 -231 3.5t-232 7.5zM67 458l2 39q117 11 232.5 17t232.5 12q18 -5 26 -16.5t7.5 -24.5t-10 -24t-27.5 -14q-116 4 -231 3.5t-232 7.5z" />
<glyph unicode="&#x3e;" horiz-adv-x="786" d="M103.5 538q1.5 14 13.5 25t33 10q30 -6 55 -13.5t49 -16.5t48 -19t53 -22q31 -13 54.5 -22.5t45 -18.5t44 -20t52.5 -27q20 -11 39.5 -22t38.5 -24q56 -39 69 -72.5t-2.5 -61t-52 -49.5t-80.5 -38t-88 -27t-73 -16q-24 -5 -47.5 -8t-46.5 -6q-42 -5 -83.5 -9t-82.5 -12 l-8 39q54 14 120 24t132.5 22.5t128 31.5t106.5 52q8 5 12.5 13t9.5 15q-5 16 -20 29.5t-33.5 25t-37 20t-30.5 14.5q-48 24 -93.5 46t-92 40t-94.5 32t-101 21q-21 4 -30 17t-7.5 27z" />
<glyph unicode="?" horiz-adv-x="618" d="M68 676q10 49 38 89.5t70 69t90 37.5q37 7 77 0.5t76 -24t65.5 -45t46.5 -61t18 -72t-19 -79.5q-16 -32 -24 -47.5t-15.5 -27.5t-18.5 -26.5t-32 -45.5q-10 -15 -22.5 -32t-24.5 -35.5t-23 -37t-17 -36.5q-6 -15 -13 -34.5t-11 -36.5q-7 -20 -21.5 -26.5t-28 -2.5 t-22.5 17.5t-5 33.5q5 18 12.5 39t14.5 38q8 19 20.5 39.5t27 41t28.5 39.5t26 35q15 19 33 41.5t33.5 47t25.5 50.5t9 53q-1 38 -23 63.5t-51 45.5q-37 25 -77.5 28.5t-78.5 -9.5t-70 -41t-51 -65q-12 -23 -16.5 -52t3.5 -55q0 -1 8.5 -15t19 -31.5t21 -32.5t15.5 -18 l-20 -35q-15 9 -25.5 23.5t-21.5 28.5q-11 17 -23.5 31.5t-18.5 33.5q-15 49 -5 98zM254 78q0 18 14.5 32.5t34.5 14.5q19 0 33 -14.5t14 -32.5q0 -21 -14 -35t-33 -14q-20 0 -34.5 14t-14.5 35z" />
<glyph unicode="@" horiz-adv-x="1051" d="M106 414q0 86 33 161.5t90.5 132t136 88t169.5 31.5q81 0 153 -27.5t124 -75.5t82 -113.5t30 -141.5q0 -51 -12.5 -108.5t-38 -102.5t-65.5 -68.5t-95 -9.5q-23 -2 -38.5 17.5t-25.5 44.5q-22 -35 -65 -47.5t-92 -8.5q-66 4 -104 31t-57.5 64.5t-23.5 79.5t-2 77 q2 27 14.5 64t38 69.5t66.5 55t100 18.5q47 -4 81 -23.5t65 -62.5l8 53q6 19 27.5 14t21.5 -16q-8 -22 -15 -72.5t-12 -103.5q-8 -63 -12 -135q-4 -41 9.5 -59.5t29.5 -22.5q43 -8 72.5 18.5t47 68.5t26 88t8.5 77q0 68 -26 126t-72 100t-110.5 65.5t-142.5 23.5 q-79 0 -148 -28.5t-120 -78.5t-79.5 -119t-28.5 -146q0 -105 50 -188t136 -132t213 -49q18 0 40.5 2t45.5 6t43 8t33 9q14 -5 16 -18t-20 -23q-35 -13 -76 -19t-82 -6q-98 0 -180 30.5t-141.5 85t-92.5 130.5t-33 166zM342 434q-2 -31 2 -65.5t20.5 -65.5t47 -53.5 t80.5 -26.5q49 -4 90 14.5t57 59.5q6 18 10 40.5t8 74.5v63q-4 64 -46 98.5t-87 38.5q-49 2 -82.5 -18.5t-55 -50t-32 -60t-12.5 -49.5z" />
<glyph unicode="A" horiz-adv-x="768" d="M110 26q-1 42 0 82v76q1 76 9.5 149.5t25.5 147t49 153.5q14 36 29.5 67t34 59t42 52.5t53.5 48.5q15 12 35.5 13t39.5 4q6 1 11 1q12 0 24 -6q17 -9 32 -24.5t28 -36.5t23.5 -41.5t17.5 -38.5l11 -27q50 -130 77.5 -265.5t38.5 -274.5q3 -32 9 -63q3 -18 3 -36 q0 -13 -2 -27q-6 -15 -16 -23t-21 -8t-22.5 6.5t-18.5 20.5q-6 15 -6 28q3 18 14 27.5t24 10t24.5 -7.5t16.5 -26q1 0 1 -1q0 -2 1 -3l-76 -15q2 23 -1 44t-5 44q-2 33 -3 66t-5 65q0 3 0.5 -1t1 -9t0.5 -8.5t0 -1.5q-10 88 -26.5 173t-40.5 170q-3 9 -8.5 29.5t-13.5 45.5 t-18.5 51.5t-22 48.5t-25 36.5t-26.5 15.5h-8q-30 0 -56 -20q-29 -23 -52 -56t-39.5 -69.5t-26.5 -61.5q-30 -75 -51 -155.5t-34 -160.5q-4 -26 -4.5 -53.5t-4.5 -53.5q0 -3 0 1v11v11q0 4 0 1q-2 -46 -2 -91t-2 -92zM136 205q42 -13 87 -18t90 -6h36l54 1q45 2 89 1h32 q22 0 48 1.5t48.5 6t31.5 13.5q12 15 12 30q0 17 -11 28q-10 10 -26 11h-2l-30 -12q-2 -2 0.5 -1.5t6 3t8 5t6.5 4.5q3 2 -2.5 -0.5t-9.5 -3.5l-35 -6q-17 -3 -24.5 -4.5t-14 -2.5t-16 -2t-30.5 -3q-51 -5 -101 -6t-101 -3q-35 0 -69 -1h-11q-28 0 -58 4z" />
<glyph unicode="B" horiz-adv-x="688" d="M24 614q0 4 -1 7q-1 25 3 49q4 28 13.5 53t27.5 49q26 34 63.5 51t79.5 23q34 5 69 4h17q43 -2 79 -5q22 -2 49.5 -11t54.5 -23t51.5 -30.5t40.5 -32.5q37 -37 54 -74q17 -38 18 -76v-5q0 -35 -11 -73q-12 -40 -32 -84q-19 -41 -52.5 -68.5t-74 -46.5t-84 -32t-82.5 -25 q-20 -6 -40.5 -11t-40.5 -10q-6 -2 -19.5 -3t-28.5 -2.5t-29 -3t-20 -3.5q-1 -1 -2 -1t-3 -1t-3 -1q-2 14 -4 29t-4 29q2 0 5.5 -1t1.5 -1q-3 1 -7.5 0.5t-5.5 2.5q0 4 18 5t46.5 -1t64.5 -7t72 -14t68 -22t54 -31t29.5 -41t-6.5 -52q0 -18 -15.5 -34t-38 -29t-46.5 -23 t-41 -14q-46 -13 -87.5 -16.5t-89.5 -6.5q-18 2 -28 12.5t-11.5 23t6 25t24.5 18.5q20 1 58 3t77.5 8.5t73 19t44.5 34.5q-6 15 -25.5 27t-41.5 20.5t-42.5 14.5t-29.5 9q-12 1 -32.5 0t-43 -1t-43 1t-32.5 5q-24 14 -24 33q0 11 7 24q11 9 32.5 15t45.5 10t46.5 7t36.5 6 q36 9 83 19.5t92 27.5t82.5 42t54.5 62q11 23 20 43.5t14 40.5t4 41.5t-10 45.5q-20 52 -65.5 87.5t-101.5 53.5q-55 18 -114 18q-2 -1 -3 -1q-60 0 -108 -19q-26 -10 -50 -26t-37 -42q-8 -17 -11.5 -35.5t-4 -38t-0.5 -39t2 -37.5q4 -84 9.5 -166.5t14.5 -166.5 q5 -48 11.5 -96t23.5 -95l-38 -14q-20 51 -32.5 119.5t-20.5 141.5t-13 145t-9 130q-2 29 -2 57z" />
<glyph unicode="C" horiz-adv-x="809" d="M50 383v16q0 39 7 83q9 54 28 107t48.5 98t69.5 70q38 23 81 43.5t92 23.5q9 1 18 1q42 0 80 -12q46 -14 87 -40t74 -61.5t56.5 -75t38 -80t17.5 -76.5q-1 -21 -12.5 -32t-25.5 -11.5t-26.5 9t-14.5 30.5q-2 23 -11.5 42.5t-16.5 40.5q-1 2 1 -1t4 -7.5t3.5 -8t0.5 -1.5 q-20 41 -43.5 78t-56.5 69q-42 42 -93 56q-32 9 -64 10l-38 -4q-51 -8 -97 -37.5t-77 -75.5q-71 -107 -71 -252q2 -45 13 -91t31.5 -87.5t51.5 -75t75 -53.5q31 -14 62 -18.5t64 -5.5q30 0 75.5 8.5t90 23.5t78 35.5t39.5 44.5l38 -11q-6 -29 -27.5 -53t-54 -42.5t-73 -31.5 t-83.5 -20q-43 -8 -85 -8h-6q-38 0 -72 6q-67 11 -117.5 46t-84.5 86t-52.5 114t-21.5 131z" />
<glyph unicode="D" horiz-adv-x="791" d="M96 761q-1 13 -2 25q0 15 2 31q2 12 7 17.5t16 9.5q19 6 40 6q9 0 19 -2q31 -4 62 -12.5t61 -21t55 -21.5q54 -20 118 -52t121 -74.5t100 -95t56 -115.5q5 -26 9 -50q2 -9 2 -19q0 -15 -4 -31q-12 -48 -47.5 -100t-83.5 -98t-102.5 -81t-103.5 -49q-59 -18 -125 -22 q-20 -1 -41 -1q-44 0 -86 7q-16 9 -22 22t-3.5 25.5t13.5 21.5t29 9q3 0 8.5 -2t9 -3t2.5 -0.5t-13 3.5q-2 2 3 1t8 -2q20 0 40.5 -0.5t40.5 -0.5q39 1 79 6.5t76 21.5q64 29 118 79t99 109q4 4 6 9t6 7q2 1 0.5 -1.5t-4 -6t-4.5 -6t-1 -0.5q11 17 18.5 40t15.5 34 q1 2 0.5 -1t-1.5 -7t-2 -7t0 -1q8 28 3 57t-18 56.5t-31 52t-36 43.5q-39 41 -94 77.5t-116.5 66t-124.5 49.5t-118 28q0 -188 4 -388q3 -138 4 -272q0 -59 -1 -117l-39 -2q-2 120 -9.5 250.5t-12.5 250.5q-1 37 -1.5 57.5t-1 37.5t-1 37.5t-0.5 57.5q0 29 -2 57z" />
<glyph unicode="E" horiz-adv-x="629" d="M7 601v10q0 34 6 66q7 37 30 69q8 11 23 19.5t32.5 15.5t34.5 11.5t29 6.5q73 16 150 16q2 -1 4 -1q80 0 155 -15q13 -3 25 -8t24 -11t24.5 -11.5t25.5 -7.5l-27 -5q2 2 4 2q17 6 31 2t22 -14q7 -9 7 -23q0 -16 -13 -30q-19 -12 -36.5 -10t-34 9.5t-33.5 17.5t-35 14 q-21 5 -51 9q-32 5 -66 7q-29 2 -58 2h-12q-36 0 -70 -5t-61.5 -13.5t-44.5 -23.5q-11 -10 -15.5 -35.5t-4 -59.5t4 -71.5t8.5 -72.5t9.5 -62.5t7.5 -40.5q5 -30 12 -69t17 -79.5t24 -77t34 -60.5q6 -7 18.5 -10t27 -4.5t27.5 -1.5t19 -1q34 -2 67 -2l45 1q56 2 110 16 l11 -38q-31 -9 -62.5 -14t-63.5 -8q-38 -4 -78 -5h-27q-26 0 -53 1q-36 2 -58.5 14t-37.5 31.5t-25 46t-20 57.5q-7 23 -13 45t-10 45q-8 32 -13 56t-9 45.5t-8 45.5t-9 56l-13 75q-6 39 -7 78zM72 270q-3 7 -3 13q0 13 14 19q25 14 53 23.5t57.5 16.5t59 12.5t57.5 11.5h3 q19 0 30 -10q14 -13 14 -29q0 -12 -8 -23q-9 -13 -30 -17q-38 -2 -77 -4t-78 -9q-2 0 1.5 0.5t8.5 1t8.5 1t1.5 0.5q-8 -2 -20.5 -4.5t-26.5 -5.5t-27 -5q-8 -1 -14 0h-7l14 35l2 -3l-31 -26q0 2 -2 2z" />
<glyph unicode="F" horiz-adv-x="608" d="M46 532q6 88 34 162q12 31 25 52.5t28.5 39t35.5 32.5t46 35q15 11 42.5 20.5t61.5 14.5q33 6 71 8h23q25 0 49 -2q34 -4 63.5 -14t46.5 -27q10 -14 10 -27v-6q-2 -16 -13 -24.5t-27 -8.5t-31 15q-2 2 2 -1.5t6 -5.5q2 -3 -4 1t-10 6q-7 3 -13.5 6t-14.5 5q-2 1 -4.5 1.5 t-1.5 -0.5q5 0 13 -0.5t15 -0.5t10 -0.5t-1 -0.5q-36 1 -69 4t-64.5 3t-62.5 -5.5t-64 -21.5q-32 -15 -54.5 -38.5t-38.5 -52t-26 -61t-15 -64.5q-6 -43 -8 -91q-1 -21 -1 -41q0 -28 1 -56q2 -49 7 -96.5t12 -90.5q4 -22 9.5 -47.5t11 -51.5t9.5 -52t4 -48l-39 -2l-2 28 q1 -3 1 -7v-7q0 -3 0 -1q-22 75 -41.5 163t-28.5 178q-5 54 -5 108q0 35 2 70zM86 274l2 39q3 1 14 2.5t22.5 3t21.5 3.5l9 1q3 1 -1 0.5t-9 -1t-9 -0.5t-1 0q55 6 109 12.5t107 26.5q2 0 4 1q16 0 26 -8q11 -8 15 -21l2 -10q0 -7 -4 -15q-6 -14 -21 -24q-71 -14 -143 -16 h-28q-58 0 -116 6z" />
<glyph unicode="G" horiz-adv-x="858" d="M60 411q6 56 20 109t39.5 99.5t62.5 85t90 66.5q49 26 106 39q47 12 93 12l21 -1q57 -3 110.5 -24.5t94.5 -63.5q15 -15 33 -39.5t33.5 -51.5t27.5 -55t15 -50q-1 -21 -12.5 -32t-25.5 -11.5t-26.5 9t-14.5 30.5q-12 28 -25.5 56t-30 53t-37 45.5t-47.5 34.5 q-48 26 -103 29q-9 1 -19 1q-44 0 -86 -12q-61 -17 -106 -48t-86 -79q-25 -29 -40.5 -73.5t-22.5 -93.5q-4 -37 -4 -73v-22q2 -47 12 -81q14 -48 45 -86.5t71 -67.5q38 -26 86 -41t93 -17h22q31 0 55 4q33 6 59.5 20.5t50.5 37.5t53 53q6 10 13 24.5t5 26.5l39 8 q8 -21 -3 -46t-28.5 -48.5t-36.5 -42.5t-27 -28q-9 -10 -22 -21.5t-35.5 -21.5t-57.5 -16q-26 -4 -63 -4h-25q-9 -1 -19 -1l-37 4q-28 6 -54 14q-64 20 -114.5 58.5t-84 90.5t-49.5 114q-10 42 -10 86q0 20 2 41zM570 228q16 4 22.5 6.5t12 4t12.5 3.5t25 5q39 8 78 11.5 t77 15.5h4q15 0 26 -8q12 -8 15 -20q2 -5 2 -10q0 -7 -4 -16q-5 -13 -21 -23q-32 -4 -63 -4h-12h-25q-25 0 -51 -1q-23 -2 -46 -8q-16 -4 -34 -5q-5 0 -11 1z" />
<glyph unicode="H" horiz-adv-x="782" d="M109 799q3 18 14 27.5t24 9.5q1 0 2 1q13 0 23 -8q12 -8 16 -26q-2 -122 -2 -244v-151q1 -47 2 -95q0 -151 -7 -301l-39 -2q-10 198 -18.5 394.5t-14.5 394.5zM170 219q51 16 104.5 18.5t107.5 4.5l256 12q18 -5 26 -16.5t7.5 -24.5t-10 -24t-27.5 -14q-83 4 -164.5 5.5 t-164.5 1.5q-31 0 -62 1.5t-62 -2.5zM610 799q3 18 14 27.5t24 9.5q1 0 2 1q12 0 22 -8q12 -8 17 -26q-2 -122 -2 -244q1 -75 1 -151q1 -47 0 -95q0 -151 -6 -301l-39 -2q-10 198 -18.5 394.5t-14.5 394.5z" />
<glyph unicode="I" horiz-adv-x="455" d="M38 8l2 39q2 0 18 2t35 4q21 3 48 5q6 3 -3 2.5t-21 -2t-21 -2.5t-3 -1q83 8 165 14.5t165 11.5q18 -5 26 -17q8 -11 8 -22q-1 -14 -11 -26q-10 -11 -27 -14q-54 2 -109 2l-81 -1q-26 -1 -52 -1q-69 0 -139 6zM38 781l2 39q2 0 18 2t35 4q21 3 48 5q6 3 -3 2.5t-21 -2 t-21 -2.5t-3 -1q83 8 165 14.5t165 11.5q18 -4 26 -16q8 -11 8 -23q-1 -14 -11 -26q-10 -11 -27 -14q-54 2 -109 2l-81 -1q-26 -1 -52 -1q-69 0 -139 6zM182 800q3 18 14 28t24 10h2q12 0 22 -8q12 -8 17 -26v-91q0 -147 5 -297q3 -94 3 -188q0 -101 -4 -201l-39 -2 q-11 195 -24 387.5t-20 387.5z" />
<glyph unicode="J" horiz-adv-x="575" d="M39 299v7q0 16 7 26q10 13 24 16t27.5 -4.5t19.5 -27.5q3 -24 4 -41.5t4 -32.5t8.5 -30.5t16.5 -36.5q25 -45 62 -70.5t78 -30.5h16q33 0 66 14q40 18 72 60q16 22 24 53t11 63q3 28 3 55v9q-1 32 -1 57q0 5 -0.5 21.5t-1 39.5t-1 49t-1.5 49t-1.5 40t-0.5 22 q-2 47 -5 94q-2 19 -2 38q0 27 3 54l39 -4v-13q0 -38 5 -77q6 -45 10 -90q6 -60 11 -123q6 -58 6 -116v-11q-1 -63 -11 -125t-36 -119q-10 -23 -31 -42t-44 -30q-44 -21 -78 -30q-25 -6 -49 -6q-9 0 -17 1q-32 3 -64 18.5t-71 44.5q-27 20 -44.5 47t-28.5 57.5t-18 62.5 t-11 62zM427 749l2 39q34 10 67.5 15.5t67.5 11.5q18 -5 26 -17q8 -10 8 -22q0 -14 -10 -26q-10 -11 -28 -14q-33 5 -66.5 5t-66.5 8z" />
<glyph unicode="K" horiz-adv-x="688" d="M62 799v5q4 18 15 27.5t24 10t24.5 -8t16.5 -26.5q3 -13 3.5 -31t0.5 -36t-1.5 -33t-1.5 -22q1 -43 3 -97t3 -97q8 -123 14 -242q4 -71 4 -145q0 -49 -2 -98l-39 -2q-8 122 -18.5 242.5t-21.5 241.5q-3 36 -5.5 57.5t-4 40t-3 39.5t-3.5 57q-1 24 -1.5 48.5t-2.5 47.5 q0 2 -0.5 6.5t-1 8.5t-0.5 4.5t0 -5.5l77 3v-5q-6 -17 -18.5 -24.5t-25 -6t-23 11.5t-12.5 28zM104 199q0 9 6 19q7 11 20 21.5t27.5 20.5t27.5 17.5t19 12.5q16 12 30.5 24.5t28.5 25.5q42 39 82.5 82t76 90.5t64.5 98.5t48 105q8 23 13 45.5t11 45.5q1 4 0.5 1.5t-1.5 -8 t-2.5 -11.5t-2.5 -9q0 -1 2 10.5t2 21.5q3 18 14 28t24 10h2q12 0 22 -8q12 -8 17 -26q0 -45 -15 -93.5t-40.5 -96.5t-59 -95t-69.5 -89.5t-73 -79.5t-69 -65q-18 -15 -37.5 -29t-39.5 -27.5t-39 -27.5t-35 -30l-32 45q35 10 83 12q16 1 33 2q33 0 68 -4q53 -5 107 -18 t100.5 -33.5t82 -48.5t52.5 -64q8 -16 10 -33.5t4 -35.5l-39 -8q-5 19 -7 32t-6 23.5t-11.5 20.5t-23.5 23q-19 16 -51.5 30.5t-72.5 26t-84 19t-86 10.5q-23 2 -44 2q-18 0 -35 -2q-37 -2 -62 -11q-11 -2 -20 1.5t-14.5 10.5t-5.5 16z" />
<glyph unicode="L" horiz-adv-x="592" d="M101 572v38q-1 47 1 94q2 66 6 131l39 2q2 -48 2.5 -109t3.5 -127.5t10.5 -134t24 -129t43 -113t68.5 -84.5q29 -24 53.5 -35t49.5 -16t53.5 -7t65.5 -7q19 -5 27 -19q5 -10 6 -20q0 -4 -1 -8q-3 -14 -15 -24q-10 -8 -27 -7h-7q-40 7 -65 10.5t-42 7t-29 7.5t-26 12 t-34 20l-52 32q-23 15 -42.5 43t-35 60.5t-26.5 65t-18 56.5q-18 64 -25 129.5t-8 131.5z" />
<glyph unicode="M" horiz-adv-x="956" d="M75 226q1 32 2 71.5t3 71.5q2 21 3.5 38t3.5 33t4.5 32.5t5.5 37.5q3 17 8 48.5t13 68.5t20 75t28 69t37 50.5t48 19.5q16 0 28 -1t22 -4.5t20 -10.5t22 -19q9 -9 16 -20t15 -22q20 -25 33.5 -54t27.5 -58l15 25q1 2 -0.5 -1t-4.5 -7.5t-5 -8t-1 -1.5q26 45 39.5 71.5 t28.5 45.5t39 36t72 44q9 4 17 4h3q41 -5 71.5 -32.5t52 -68t35 -89t22 -96.5t13.5 -90.5t8 -69.5q5 -38 8 -76t5 -76q1 -11 5 -46q3 -36 5 -76q1 -20 1 -40t-1 -38q-2 -38 -12 -53q-16 -18 -34 -18h-5q-21 3 -34 27q0 3 -2 7q-2 21 7.5 33.5t23.5 15.5t27.5 -4.5 t19.5 -27.5q2 -6 2 -9q-19 3 -37.5 5.5t-37.5 4.5q4 23 3 45l-2 44q-2 106 -8 211.5t-26 209.5q-4 23 -10 52t-14.5 59t-20.5 57.5t-28 48.5q-7 9 -18.5 12.5t-21.5 8.5q-17 -9 -33 -18t-33 -19q-9 -6 -22.5 -29t-29.5 -51.5t-33 -55t-33 -39.5q-23 -14 -44 6 q-17 20 -30 49.5t-26.5 58.5t-31 53t-43.5 35q-17 7 -31 -2t-25 -28t-19.5 -44t-15 -49.5t-10 -44.5t-5.5 -29q-7 -38 -15.5 -75t-14.5 -76q-11 -69 -15 -138t-6 -138q-1 -35 -1 -71t-2 -72l-39 -2q-1 54 -1.5 107t-0.5 107z" />
<glyph unicode="N" horiz-adv-x="877" d="M130 510v35q0 50 2 95q1 15 3.5 41t7 53.5t12 52.5t19.5 39q3 4 10.5 8.5t14.5 8t13 5.5l6 3q14 7 28 1.5t25 -15.5q91 -105 156.5 -228.5t116.5 -251.5q15 -36 26 -65t21.5 -56t22 -54t25.5 -60q8 -19 17 -31.5t17 -32.5q7 -13 6 -13q-3 4 -9.5 10t-1.5 5l-45 -12 q8 6 16 11t12 13q6 11 10 29.5t7 38t4.5 37t1.5 26.5q3 63 5 130q1 38 1 77v58q-2 68 -8 133.5t-18 127.5q-1 3 -0.5 -2t1.5 -12t1.5 -12t0.5 -2q-5 37 -9.5 73.5t-10.5 72.5l78 3q0 -2 -0.5 -2.5t-0.5 -2.5q-7 -20 -21.5 -26.5t-28 -2.5t-22.5 17.5t-5 33.5q1 2 1 5 q8 14 20 20q9 5 18 5l4 -1q12 -2 21.5 -10t13.5 -24q23 -134 29 -272q4 -101 3 -200v-73q0 -30 -0.5 -67.5t-3.5 -75.5t-10.5 -74t-22.5 -63q-5 -11 -15.5 -18t-20.5 -15q-8 -5 -14 -6h-7h-10q-17 7 -32 31.5t-27.5 53t-22 55.5t-14.5 39q-31 81 -63 162.5t-69 160 t-81.5 152.5t-100.5 142q-17 -8 -25.5 -32t-13 -51t-5.5 -52t-2 -35q-7 -72 -7 -147v-38q0 -57 2 -113q2 -75 4 -150.5t2 -147.5l-39 -2q-3 85 -7.5 177.5t-8.5 177.5q-2 59 -3 129z" />
<glyph unicode="O" horiz-adv-x="922" d="M74 483q12 86 51 166q22 46 65 84t95 63q53 25 107 35q29 5 54 5q23 0 45 -4q78 -12 142.5 -44t112.5 -80.5t78 -113t39 -141.5q3 -24 2 -48q0 -53 -13 -107q-20 -78 -64 -143.5t-110.5 -108t-151.5 -46.5h-17l-67 6q-42 8 -84 19q-16 9 -22 22t-3.5 25.5t13.5 21.5t29 9 q35 -10 65 -20.5t60 -15.5t61.5 0t69.5 27q59 34 98 93t56 127q12 50 12 101q1 19 -1 39q-6 71 -39 129q-25 47 -64.5 85.5t-88.5 63.5q-48 24 -103 34q-25 4 -51 5q-30 0 -60 -6q-100 -21 -161 -84t-83 -163q-10 -45 -10 -94v-21q2 -61 21.5 -118t55.5 -104t91 -74 q28 -14 58.5 -23.5t59.5 -17.5l-12 -41l-124 41q-88 40 -138 106t-68 146q-11 47 -11 96q0 34 5 69z" />
<glyph unicode="P" horiz-adv-x="678" d="M112 493q0 9 -1 19q0 51 7 105q6 45 25.5 77.5t45.5 66.5q14 19 36 32.5t44 19.5q35 9 59 15.5t55 6.5q45 0 91 -16.5t81 -46.5q35 -28 54 -70q13 -29 13 -64q0 -14 -2 -29q-3 -22 -3.5 -45t-11.5 -43q-14 -27 -21.5 -40.5t-15 -23.5t-19.5 -20.5t-34 -29.5 q-12 -11 -31 -20t-40 -15.5t-41.5 -11t-36.5 -4.5q-31 -1 -58.5 1t-54 7.5t-53.5 13.5t-56 19l14 38q52 -17 100 -28q28 -6 58 -6q22 0 44 3q31 5 64 17t59 29q25 17 43 42t26 54q5 15 8.5 34.5t3.5 40t-4 40t-13 34.5q-23 39 -63.5 58.5t-85.5 21.5h-11q-39 0 -77 -13 q-44 -15 -74 -45q-20 -21 -33 -50t-19 -58q-8 -38 -8 -77q0 -18 2 -36q5 -57 13 -112q11 -78 23 -164.5t35 -163.5l-73 -3q0 2 0.5 4t0.5 4q10 16 23.5 21.5t25.5 2t20.5 -15.5t7.5 -30l-2 -8q-5 -15 -15 -23q-9 -8 -21 -8h-2q-11 0 -21 7q-11 7 -18 21q-13 35 -21.5 78.5 t-14 89.5t-9.5 90.5t-9 82.5q-7 64 -9 124z" />
<glyph unicode="Q" horiz-adv-x="901" d="M74 483q13 86 51 166q22 46 65 84t95 63t107 35q28 5 54 5q24 0 45 -4q78 -12 142.5 -44t112.5 -80.5t78 -113t39 -141.5q3 -24 3 -48q0 -53 -14 -107q-20 -79 -64 -144t-110.5 -107.5t-151.5 -46.5h-17l-67 6q-42 8 -84 19q-16 9 -22 22t-3.5 25.5t13.5 21.5t29 9 q35 -10 65 -20.5t60 -15.5t61.5 0t69.5 27q59 34 98 93t56 127q12 50 12 101q0 19 -1 39q-7 71 -39 129q-25 47 -64.5 85.5t-88 63.5t-103.5 34q-25 5 -51 5q-30 0 -60 -6q-100 -21 -161 -84t-83 -163q-10 -45 -10 -94v-21q3 -61 22 -118t55 -104t91 -74q28 -14 58.5 -23.5 t59.5 -17.5l-12 -41l-124 41q-88 40 -138 106t-68 146q-11 46 -11 96q0 34 5 69zM627 309v3q-2 17 9 24q5 3 10 3q7 0 15 -6q19 -11 47.5 -40.5t57.5 -64.5t54.5 -68.5t38.5 -52.5q4 -5 8 -10.5t10 -8.5q-17 -3 -33.5 -6.5t-33.5 -7.5q1 1 1 2q11 18 26.5 22t28 -2t18.5 -20 q3 -7 3 -15q0 -9 -4 -20l-1 -2q-15 -18 -34 -18q-11 0 -23 6q-14 14 -25.5 31.5t-22 35.5t-20.5 36t-21 34q-10 15 -25.5 36.5t-31 41.5t-28 37t-16.5 23q8 5 15.5 9.5t15.5 9.5v-4z" />
<glyph unicode="R" horiz-adv-x="731" d="M29 596v6q0 57 20 99q21 44 57.5 72.5t84 43t99.5 17.5q15 1 29 1l73 -5q52 -8 96 -24q54 -21 93.5 -49t67 -65.5t44.5 -84t25 -104.5q5 -34 5 -67q-1 -36 -7 -70q-12 -64 -44.5 -112t-87 -78.5t-130.5 -38.5q-32 -3 -64 -3h-16q-40 1 -81 4t-82 7t-81 5l22 70 q21 -12 47.5 -13.5t49.5 -8.5q20 -5 48.5 -14t61 -19.5t66.5 -22.5t65 -25t56.5 -26t41.5 -25q10 -15 9.5 -29.5t-8.5 -24t-22 -12.5q-4 -1 -8 -1q-11 0 -22 6q-12 10 -35.5 21.5t-53 24t-62.5 24t-64 22t-57.5 18.5t-42.5 13q-27 8 -53.5 11.5t-52.5 17.5 q-11 10 -13.5 21.5t1 21.5t13 16.5t24.5 6.5q40 -2 94.5 -8.5t110.5 -10.5q28 -2 55 -2t53 2q52 4 88 22q17 8 32 18t28 23q27 28 41.5 66t17.5 81q1 13 1 26q0 31 -5 62q-7 45 -23 86t-40 75t-54 55q-25 17 -62 30.5t-79 21t-86 7.5t-84 -9.5t-72 -29.5t-49 -53 q-12 -22 -17.5 -50t-7.5 -57.5t-1 -58.5t3 -52q2 -31 7 -69.5t10.5 -78.5t10.5 -78.5t8 -68.5q4 -37 5 -73.5t3 -73.5l-39 -2q-6 72 -15.5 143.5t-19.5 143t-17.5 143t-8.5 143.5z" />
<glyph unicode="S" horiz-adv-x="621" d="M46 496l-2 28q0 16 2 30q7 63 36 114t74 84q44 32 100 46q32 8 66 9q25 0 52 -5q25 -5 50.5 -14t44.5 -26q32 -28 48.5 -73.5t23.5 -96.5q7 -48 6 -95q1 -3 1 -7q0 -50 -2 -88l-39 -2q0 31 -0.5 75t-5.5 89.5t-17.5 86t-37.5 63.5q-17 16 -39 24t-44 10q-19 3 -37 3 q-30 1 -57 -7q-44 -12 -78.5 -39t-57 -67.5t-29.5 -90.5q-2 -18 -1 -41t7.5 -45.5t17 -42t27.5 -29.5q16 -10 34.5 -22.5t38 -25t39 -24t36.5 -18.5q28 -12 43.5 -19t27.5 -14t26 -15.5t39 -24.5q17 -10 32.5 -24t23.5 -32q11 -23 11 -43q0 -15 -6 -27q-14 -30 -44.5 -51.5 t-69 -33.5t-69.5 -15q-10 -1 -20 -1q-31 -1 -60 7q-38 10 -75 29q-11 5 -21 11.5t-18 15.5q-4 5 -6.5 11t-7.5 11q0 1 -1.5 2.5t-0.5 0.5q2 -2 6.5 -5t8 -5.5t5 -4t-1.5 -0.5q-18 10 -23.5 25t-0.5 28t19 20.5t34 1.5q8 -3 20 -14.5t12 -21.5q11 -6 22.5 -12t23.5 -11 q5 -2 10.5 -1.5t7.5 -4.5q1 -2 -2.5 -1.5t-7.5 2t-6.5 3t-0.5 0.5q33 -11 68 -11q19 -1 38 3q54 10 93 48q-2 18 -20.5 35.5t-43 32t-49.5 26t-40 18.5q-18 9 -39 21t-42.5 25.5t-41.5 27t-37 25.5q-23 17 -38.5 43t-24 56t-10.5 60z" />
<glyph unicode="T" horiz-adv-x="643" d="M51 793q46 5 89.5 18t89.5 18q68 7 137 6h45q68 -2 136 -2h46q18 -5 26 -17q8 -11 8 -22q0 -14 -10 -26q-10 -11 -28 -14q-77 5 -154 14q-63 7 -127 7h-28q-57 -2 -112.5 -11.5t-113.5 -9.5zM288 611q0 11 -1 21q0 84 4 169l39 2q11 -191 22.5 -379.5t18.5 -380.5 q-1 -21 -12.5 -32t-25.5 -11q-1 0 -1 -1q-14 -1 -26 9t-14 31q1 48 0.5 95.5t-0.5 95.5q-1 95 -2.5 190.5t-1.5 190.5z" />
<glyph unicode="U" horiz-adv-x="772" d="M92 607q0 119 2 234l39 2q2 -81 4 -166.5t11 -166.5q4 -41 10 -84.5t15.5 -87t24 -84.5t36.5 -78q16 -27 29.5 -43t28.5 -26.5t34 -18.5t47 -20q29 -12 55.5 -8t49.5 18t42 35.5t32 45.5q22 40 32 84q10 43 14 89q3 35 2 72v20q-1 46 -2 90q-1 40 -1 81.5t-1 83.5 t-4 83.5t-10 80.5q-2 21 7.5 33.5t23.5 15.5q4 1 8 1q9 1 19 -5q14 -8 20 -28q13 -74 13 -154q-1 -9 -1 -17q-2 -89 -1 -172q0 -48 -0.5 -99t-6 -101.5t-18.5 -99t-38 -91.5q-31 -52 -71.5 -82.5t-86.5 -39.5q-18 -4 -37 -4q-27 0 -57 8q-50 14 -99 50q-35 26 -60 64 t-42 80.5t-27.5 87t-17.5 83.5q-19 112 -19 228q1 3 1 6z" />
<glyph unicode="V" horiz-adv-x="780" d="M76 809l54 13q26 -69 44.5 -143t35.5 -148.5t35 -147.5t44 -140q7 -20 17 -43t22 -46t27 -43.5t33 -34.5q17 -13 30.5 -13.5t24 6.5t19 19.5t14.5 26.5q12 27 22 60t19 67.5t17 68t17 61.5q31 100 49 202l36 204q0 3 -0.5 -1t-1.5 -10t-2 -10.5t0 -1.5q7 28 6 43.5 t1 14.5q4 -1 3 -6t-1 -9q0 -2 -0.5 1t-1.5 4q-2 18 5.5 30.5t19.5 17.5q6 3 13 3t13 -2q14 -4 24 -20q4 -16 5 -35q0 -7 -1 -13q-2 -26 -8 -53t-14 -53t-12 -47q-13 -60 -26.5 -124.5t-29.5 -130t-35 -128.5t-43 -120q-13 -31 -31 -61t-42 -48.5t-55 -18.5q-1 0 -1 -1 q-31 0 -68 28q-21 16 -39 39.5t-33 50.5t-26.5 54t-20.5 50q-26 68 -47.5 141.5t-40 148.5t-35.5 150.5t-35 147.5z" />
<glyph unicode="W" horiz-adv-x="1053" d="M98 821l38 14q14 -39 20.5 -75t16.5 -74q11 -41 23 -93t26 -108.5t29.5 -114t34.5 -110.5t41 -98t48 -77q7 -8 14 -6t13 8.5t11 14.5t8 12q6 9 13.5 24.5t18 30.5t23 25t28.5 8q16 -1 29.5 -14t26 -31t24 -37.5t24 -34.5t27 -22t32.5 0q16 7 28.5 24.5t21.5 38.5 t15.5 41.5t10.5 33.5q17 54 32 108t33 108q16 48 34.5 97t35 98.5t29.5 99t18 100.5q4 21 17 30q11 8 23 8h4q14 -2 25 -14t10 -33q-6 -48 -18.5 -95.5t-28 -94t-33.5 -92t-35 -90.5q-2 -4 0 1.5t5 13t4.5 13.5t0.5 2q-17 -48 -33.5 -96t-31.5 -97q-7 -21 -15.5 -52t-20 -64 t-27.5 -64.5t-37 -53.5q-22 -22 -50 -32q-13 -4 -27 -5q-17 0 -35 6q-15 4 -32 18.5t-33.5 32.5t-31.5 37.5t-26 35.5q-26 -42 -48.5 -70.5t-46 -36t-50 10t-59.5 65.5q-12 18 -20.5 38t-16.5 40q-24 60 -41.5 122.5t-32 126t-27.5 127t-28 126.5q-8 37 -15 68t-16 77z" />
<glyph unicode="X" horiz-adv-x="784" d="M51 846v8q-1 22 13 34q10 9 25 9q8 0 18 -3l1 -1q17 -12 20 -27.5t-4 -28t-22 -17.5t-34 4q-1 1 -2 1l59 51q6 -20 22 -48.5t35 -58.5t38 -58t31 -46q2 -2 -0.5 1.5t-5.5 8.5t-5.5 8.5t-0.5 0.5q87 -125 170.5 -250t167.5 -253q28 -42 59 -80.5t57 -82.5l-35 -20 q-36 54 -79.5 101t-81.5 100q-57 81 -111.5 163t-114.5 162q-42 57 -83.5 113t-80.5 115q-14 21 -31 45t-25 49zM65 43q61 60 118.5 130.5t112.5 145t106.5 149.5t101.5 146q43 60 85 121.5t90 117.5q15 12 30 12h2q16 -1 26 -11q11 -11 11 -28q0 -15 -12 -30 q-86 -93 -161 -195t-150 -204.5t-155 -200.5t-176 -182z" />
<glyph unicode="Y" horiz-adv-x="770" d="M97 822l31 26q11 -14 18 -29t12 -31t9 -33t9 -33l-2 6t-1.5 5t0.5 1q7 -11 10.5 -23.5t8.5 -24.5q17 -36 36 -71.5t39 -70.5q7 -11 18.5 -28.5t25.5 -35.5t29 -31.5t29 -14.5q13 -2 29 10.5t31 30t27 35t18 25.5q26 38 52 82.5t39 89.5q6 20 10.5 40.5t9.5 41t12.5 39.5 t18.5 37q14 12 28 13h2q14 0 23 -8q10 -7 14 -21q2 -6 2 -12q0 -9 -4 -19q-19 -29 -26.5 -64t-18.5 -68q-21 -60 -58.5 -117t-84.5 -116q-23 -29 -54.5 -53.5t-70.5 -26.5q-12 -1 -24.5 4.5t-24.5 14t-22 18t-17 17.5q-50 60 -86.5 129.5t-61.5 144.5q-5 15 -7.5 31 t-5.5 31.5t-7.5 30.5t-14.5 28zM349 40q6 23 5 53t-1 53q0 67 -3 132q-1 25 -1 50q0 41 3 82l39 2q8 -54 13.5 -108.5t11.5 -110.5q5 -38 10 -81q4 -24 4 -48q0 -17 -2 -33q-5 -15 -15 -23t-21.5 -8t-22.5 6.5t-18 20.5q0 1 -1 1q-2 18 5.5 30.5t19.5 17.5t25.5 0.5 t24.5 -19.5v-1z" />
<glyph unicode="Z" horiz-adv-x="768" d="M76 701q-3 5 -3 11q0 8 7 16q11 14 31 26t46 22.5t49.5 18.5t41 12.5t20.5 5.5q19 5 51 11t69.5 11t77.5 8q18 1 37 1q21 0 41 -2q37 -3 67.5 -12t48.5 -27q12 -12 20.5 -27t16.5 -30q7 -11 7 -26q0 -7 -2 -15q-5 -24 -17.5 -49t-28 -46.5t-25.5 -32.5 q-60 -69 -120.5 -136.5t-120.5 -136.5q-20 -24 -41 -49.5t-40.5 -52.5t-36 -56t-26.5 -59q4 -5 11.5 -6.5t16 -1.5t16.5 0.5t13 0.5q55 2 109 9.5t109 10.5q21 1 33 -10t13.5 -25t-7.5 -27t-30 -17q-38 -1 -76.5 -5.5t-77.5 -8t-77.5 -3.5t-76.5 9q-6 1 -13 7.5t-14 13.5 t-12.5 13.5t-7.5 8.5q-5 10 -5.5 16.5t1.5 17.5q25 66 65 125.5t87 114t98 106t97 102.5q26 29 45 48.5t33.5 39t24.5 43t19 59.5q-5 8 -8.5 17t-11.5 14q-30 21 -74 27q-36 5 -74 5q-9 -1 -18 -1q-48 -2 -93.5 -9t-78.5 -14q-17 -3 -44.5 -10.5t-54.5 -16.5t-48 -19.5 t-24 -20.5q1 5 1 10v10q1 -1 1 -2t1 -3z" />
<glyph unicode="[" horiz-adv-x="334" d="M61 -174q9 129 13 291q4 139 3 328.5t-14 422.5q46 4 84.5 5t67.5 -1q35 -2 61 -6q13 0 19 -7t6 -15t-6 -13.5t-19 -5.5q-45 4 -74.5 5t-86.5 -3q6 -168 8 -339t2 -310q0 -164 -4 -315q33 -4 62.5 -4t52.5 2q24 2 47 6q22 4 24 -17.5t-22 -25.5q-39 -4 -76 -6 q-33 -2 -73 -1t-75 9z" />
<glyph unicode="\" horiz-adv-x="571" d="M94 1032q1 1 1 2q14 23 36 24.5t37 -21.5q11 -17 18 -43t12 -45q20 -60 37.5 -120t34.5 -122q48 -172 99 -340.5t99 -341.5l-38 -14q-57 169 -112.5 335.5t-109.5 336.5q-19 61 -39 120t-42 119q-3 8 -9.5 25.5t-12.5 32.5t-8.5 22t3.5 -5l71 15v-2q-7 -20 -21.5 -26.5 t-28 -2.5t-22.5 17.5t-5 33.5z" />
<glyph unicode="]" horiz-adv-x="334" d="M14 -148.5q2 21.5 25 17.5q22 -4 47 -6q23 -2 51.5 -2t63.5 4q-4 151 -4 313q0 139 1 310t9 339q-57 4 -87 3t-75 -5q-12 0 -18.5 5.5t-6.5 13.5t6.5 15t18.5 7q27 4 61 6q29 2 67 1t85 -5q-12 -233 -14 -423.5t2 -327.5q4 -160 14 -289q-37 -8 -76 -9t-71 1q-37 2 -76 6 q-25 4 -23 25.5z" />
<glyph unicode="^" horiz-adv-x="717" d="M103 268q17 103 54.5 203.5t83.5 194.5l23 45q11 23 25 44t31 39t39 29q11 4 19 3t18 -8q40 -27 72 -73t57.5 -99t45 -107.5t33.5 -99.5q6 -20 14 -41.5t15 -44t9.5 -45t-1.5 -44.5q-5 -15 -15 -22.5t-21.5 -8t-22.5 6.5t-18 21l-2 6q-2 21 7.5 33.5t23.5 15.5t27.5 -4.5 t19.5 -27.5l2 -8l-77 11q-2 -10 -2 -9v5q0 5 0.5 11t0.5 8q-5 51 -23 114.5t-44.5 127t-59 121t-65.5 97.5q-9 -5 -21.5 -23t-24.5 -38.5t-21 -38.5l-11 -22q-46 -91 -88 -187t-65 -196z" />
<glyph unicode="_" horiz-adv-x="1026" d="M14 7.5q0 19.5 23 19.5q92 -4 155.5 -5.5t116.5 -1.5t107.5 1.5t130.5 2.5t181.5 1t262.5 -2q17 0 18 -20.5t-20 -22.5q-153 2 -241 2h-146q-57 0 -97 -1t-95.5 -1t-140.5 1t-232 5q-23 2 -23 21.5z" />
<glyph unicode="`" horiz-adv-x="369" d="M52 804q1 9 8.5 14t17.5 3t18 -10t21.5 -20.5t36 -36t59.5 -59.5t90 -89q14 -14 0 -29.5t-35 3.5l-205 202q-12 13 -11 22z" />
<glyph unicode="a" horiz-adv-x="680" d="M59 328q6 35 16.5 70t27.5 66.5t41 58.5t58 46q26 16 58 22q25 5 51 5h13q32 -2 62 -10.5t57 -22.5q19 -10 39 -23t37 -29.5t31 -35.5t21 -40q15 -42 15.5 -92t1.5 -101t8.5 -97.5t37.5 -80.5l-56 8q8 4 16.5 7.5t16.5 6.5q20 7 35 1q14 -7 20 -19q4 -7 4 -16 q0 -6 -2 -12q-4 -16 -22 -26l-29 -11q-15 -3 -25 0t-21 14q-29 35 -41 84t-15.5 102.5t-3.5 107t-4 97.5q-8 21 -27 42t-44.5 39t-55.5 29.5t-60 13.5h-9q-41 0 -71 -16q-34 -18 -58.5 -49t-40 -71t-21.5 -81q-4 -27 -3 -57.5t10 -59.5t24.5 -54.5t39.5 -43.5q37 -27 86 -33 q16 -2 32 -2q32 0 64 8q47 12 86 41t56 73l32 -37q-35 -72 -88.5 -108.5t-112.5 -42.5q-13 -1 -25 -1q-45 0 -91 17q-58 22 -100.5 66t-63.5 107q-13 38 -13 81q0 28 6 59z" />
<glyph unicode="b" horiz-adv-x="680" d="M32 1012q3 18 14 28t24 10h2q12 0 22 -8q12 -8 17 -26v-33q0 -107 5.5 -213.5t5.5 -213.5v-33q0 -45 -6 -95q-8 -49 -10 -98q-1 -13 -1 -26q0 -36 6 -70q7 -46 34 -85q25 -35 62 -57t79 -31q28 -6 56 -6q14 -1 29 1q43 4 81 22.5t66 49.5t40 76q8 30 8 64q0 19 -2 39 q-8 55 -33 103t-66 83t-95 43q-17 2 -39 2h-28q-39 -2 -76.5 -15t-66.5 -36.5t-36 -59.5l-39 4q6 46 38.5 78t76 51t91.5 25q26 3 49 3q19 0 37 -2q32 -4 60 -20t57 -29q26 -12 48 -39t38.5 -59.5t27 -66t13.5 -58.5q3 -17 3 -34q0 -14 -2 -28q-4 -31 -6 -62q-1 -16 -7 -33 t-15 -33.5t-21.5 -30t-26.5 -22.5q-26 -15 -51.5 -31t-51.5 -30q-17 -9 -55 -12q-16 -1 -33 -1q-23 0 -49 2q-44 4 -83.5 15t-58.5 28q-18 17 -37 33t-34 36q-31 43 -41 93q-10 48 -10 99v5q0 54 6 108q4 45 4 88v16q-2 125 -10 246.5t-10 245.5z" />
<glyph unicode="c" horiz-adv-x="583" d="M2 268v9q0 24 4 47q6 28 14.5 55t16.5 51q8 27 31.5 49t43.5 39q30 27 67 39.5t75 14.5h12l66 -8q38 -8 72 -25q31 -15 55.5 -44.5t43 -65.5t31 -74t19.5 -70q-17 7 -35 13t-36 13q1 0 1 1q16 13 32 12t26 -11t11 -26t-12 -32l-1 -1q-20 -12 -37 -6.5t-28 25.5 q-5 27 -13.5 56.5t-21 56.5t-30.5 50.5t-42 40.5q-31 21 -72 26q-13 2 -26 2q-27 1 -55 -7q-40 -10 -72.5 -34.5t-48.5 -60.5q-9 -21 -17 -43t-11 -45q-1 -13 -1 -25q0 -39 14 -77q18 -50 54 -88t84 -58q33 -14 70 -14q16 0 33 3q33 6 55 15.5t40 24t35.5 32.5t41.5 41 l29 -29q-26 -26 -41.5 -43t-26 -27.5t-19 -16.5t-20.5 -12t-31 -14t-51 -21q-16 -6 -33 -6q-8 0 -16 1q-26 4 -52 5q-26 0 -50 12t-45.5 29t-40.5 36.5t-35 36.5q-17 19 -25 44.5t-19 48.5q-12 27 -13 55z" />
<glyph unicode="d" horiz-adv-x="680" d="M55 252q-2 14 -2 28q0 17 3 34q3 25 13.5 58.5t27 66t38 59.5t47.5 39q29 13 56.5 29t59.5 20q17 2 37 2q23 0 49 -3q48 -6 91 -25t75 -51t38 -78l-39 -4q-7 36 -36 59.5t-66 35.5q-37 14 -76 16q-15 1 -28 0q-21 0 -38 -2q-53 -8 -94 -43t-65 -83t-32 -103 q-3 -20 -3 -39q0 -33 8 -64q11 -45 39 -76t66 -49q37 -19 80 -23q14 -2 28 -1q28 0 56 6q42 9 79 31t61 57q27 39 34 85q5 34 5 70q-1 13 -1 26q-2 49 -8.5 98.5t-6.5 94.5v55q0 96 5 192q6 107 6 215v31q4 18 16 26q11 8 23 8h1q12 0 23.5 -10t14.5 -28q-2 -124 -10 -245.5 t-9 -246.5v-16q0 -42 4 -88q5 -54 5 -108t-10 -104.5t-40 -92.5q-15 -20 -34 -36t-37 -33q-19 -17 -58.5 -28t-82.5 -15q-25 -2 -48 -2q-17 0 -33 1q-38 3 -54 12q-26 14 -51.5 30t-51.5 31q-14 9 -26 22.5t-21 30t-15 33.5t-7 33q-2 31 -6 62z" />
<glyph unicode="e" horiz-adv-x="676" d="M75 406q15 50 45 93t76 71q39 24 82 32q22 4 44 3q22 0 42 -3q42 -7 81 -27t69 -53q17 -25 32 -56t25.5 -64.5t14.5 -66.5q2 -14 2 -27q0 -18 -3 -34q-4 -18 -16 -24.5t-28 -7t-34 1.5t-33 1q-91 -7 -184 -10t-187 -3l2 39q56 3 108.5 8.5t104.5 10.5t104.5 8.5 t108.5 3.5q-8 36 -15.5 72.5t-22 68.5t-40.5 57t-72 38q-33 10 -61 10q-22 0 -42 -6q-45 -14 -77 -47.5t-49 -81.5q-18 -49 -22 -99q-1 -11 -1 -22q0 -39 10 -76q12 -48 40.5 -82t72.5 -48q20 -6 44 -7q29 0 63 10q31 8 55 24.5t47 35.5q17 6 31 2t21.5 -14t7 -24.5 t-12.5 -28.5q-30 -23 -59.5 -40t-67.5 -29q-45 -15 -84 -15q-15 0 -29 2q-51 8 -90 34.5t-65.5 68.5t-40.5 92q-13 48 -13 100q0 57 16 109z" />
<glyph unicode="f" horiz-adv-x="369" d="M-8 202q-2 5 -2 10q0 6 4 13l3 3l29 -29l-3 -4l-18 36q11 3 22 9.5t23 9.5q47 13 95 17t96 9q18 -5 26 -16.5t7.5 -24.5t-10 -24t-27.5 -14q-32 3 -64 3q-19 0 -38 -1q-50 -3 -102 -4q-5 -2 -10.5 -3.5t-11.5 -0.5q-14 1 -19 11zM54 526q3 89 29 166q11 33 22 54 t25.5 36.5t34 29t46.5 31.5q12 8 29.5 10t30.5 3h11q25 0 48 -6q29 -9 51.5 -27t37.5 -43.5t18 -56.5q-1 -21 -12.5 -32t-25.5 -11.5t-26.5 9t-14.5 30.5q-1 14 0 12t2 -8t0.5 -8t-4.5 12l-4 11q-14 25 -35 36t-44.5 10.5t-47 -12t-41.5 -32.5q-14 -15 -23.5 -34t-17.5 -39 q-25 -68 -29 -151q-2 -28 -2 -56q0 -57 6 -114q9 -87 26.5 -170.5t37.5 -152.5l-38 -14q-26 74 -48.5 161t-33.5 177q-9 69 -9 137q0 21 1 42z" />
<glyph unicode="g" horiz-adv-x="631" d="M56 388q3 41 19 73q20 40 54 74.5t77.5 55t93.5 22.5h8q47 0 97 -23q65 -29 100.5 -68.5t52.5 -87.5t21 -103t7 -115v-17q0 -39 -8 -79q-9 -47 -29 -90q-32 -70 -56.5 -119.5t-54.5 -85t-72 -60.5t-108 -46q-3 -1 -10 -1h-15q-8 0 -15 0.5t-10 1.5q-27 7 -47 25.5 t-35.5 42t-27.5 49.5t-24 48q-1 3 1 -0.5t4.5 -8t4 -8.5t-0.5 -2q-14 17 -18 23t-2 5.5t7 -5t8.5 -8t3.5 -4t-9 7.5q-15 15 -15 31t9 26.5t24.5 13t32.5 -9.5q16 -15 27 -34.5t20.5 -39.5t20.5 -40t28 -35q13 -12 33 -8.5t41.5 16.5t43.5 32.5t39.5 37.5t29 31.5t13.5 16.5 q25 36 47 89.5t36.5 114.5t17.5 125q1 12 1 24q0 50 -10 95q-13 56 -44.5 99t-87.5 64q-37 14 -76 16h-8q-34 0 -64 -12q-35 -12 -63 -39t-44 -69q-16 -40 -16 -84v-10q2 -50 19 -96.5t47.5 -85.5t71 -61t87.5 -23q3 -1 5 -1q46 0 95 28q33 18 60 44.5t56 50.5l24 -33 q-72 -89 -150 -121q-44 -18 -94 -18q-41 0 -87 12q-36 9 -67.5 36t-55 64t-39.5 81.5t-23 88.5q-4 29 -4 57q0 15 2 29z" />
<glyph unicode="h" horiz-adv-x="649" d="M108 375q1 56 1 110q1 50 2.5 111.5t3.5 123.5t3.5 120t3.5 100l39 2v-116q0 -46 1 -78v-58v-52q0 -28 0.5 -62.5t1.5 -88.5t1 -109.5t2.5 -110.5t9 -110t20.5 -108l-59 15q0 1 0.5 3.5t0.5 0.5t-0.5 -4.5t-0.5 -5.5q-5 38 -5 78q-1 22 1 44q4 62 20 122t42.5 115.5 t64.5 102.5q24 30 59 43q34 12 62.5 16t54 -1.5t49.5 -21.5t48 -43q20 -21 32.5 -50.5t20.5 -61.5t12 -64t7 -60q9 -69 9 -129q0 -59 -17 -121q-10 -26 -31 -30q-4 -1 -7 -1q-17 0 -34 16q0 1 -1 2q-9 19 -4 34t17.5 22t28 4t27.5 -20l1 -1l-74 -5q11 46 15 95q3 34 3 68 q0 15 -1 31q-2 50 -11.5 97.5t-26.5 91.5q-12 32 -34.5 52t-49 26.5t-54.5 -1.5t-53 -33q-30 -30 -51 -69.5t-35 -83.5t-21 -89t-10 -87q-1 -13 1 -26.5t3 -27.5t0.5 -27.5t-5.5 -25.5q-14 -16 -29 -14t-25 20q-14 53 -20.5 108t-8.5 111q-1 33 0 66v45z" />
<glyph unicode="i" horiz-adv-x="334" d="M130 754q4 20 15 34.5t27 20.5q5 2 10 2q11 0 21 -9l-14 -38q-2 0 -6 1.5t-6 3t1.5 1.5h17.5q3 0 1 -2.5t-5.5 -5t-6.5 -5.5t-1 -5t3 4.5t3 4.5q3 -2 0.5 -5.5t-3.5 -6.5q-1 -2 -1 -8t0 -3t-0.5 6.5t1.5 5.5t3 -4.5t-1 -5.5q-3 2 -3.5 5.5t-2.5 6.5l-2 -1l-2 -4 q0 -4 0.5 -8t-1.5 -8q0 -2 -0.5 1.5t-1.5 5.5q-5 5 -7 9.5t-7 9.5q-2 18 5.5 30.5t19.5 17.5t25.5 0.5t24.5 -19.5q2 -2 -1.5 3t-5.5 7q-1 2 1 -2t4 -6l9 -14q6 -8 6 -24q0 -9 -2 -15q-4 -21 -18 -32t-31.5 -12.5t-35 6.5t-27.5 24q-6 10 -6 23q-1 5 0 10zM147 557 q3 14 13 22q10 9 24 9h1q14 0 28 -10q14 -16 14 -35q0 -15 -3 -42v-9q0 -6 -0.5 -11t-1 -7.5t-1.5 0.5v8v10q0 4 0.5 6t0.5 -1l-3 -65l-4 -114q-1 -36 -2.5 -76t-3 -81.5t-3.5 -82t-4 -76.5l-39 -2q-3 50 -5 104.5t-3 110t-2 110t-3 104.5q-1 17 -2 35t0 35q0 9 0.5 17.5 t0.5 16.5q0 1 -0.5 3t-0.5 1q2 -2 4 -7t0 -3q-6 12 -6 22q0 4 1 8z" />
<glyph unicode="j" horiz-adv-x="334" d="M-136 -119l39 8q6 -18 18.5 -31.5t26.5 -26.5q35 -30 74 -42q24 -7 47 -7q15 0 30 3q37 8 66.5 36.5t44.5 78.5q12 40 18 93t8 113q2 42 2 87v35q-1 64 -4 124.5t-6.5 115t-6.5 96.5q3 18 14 27.5t24 10t24.5 -7.5t16.5 -26q3 -78 4 -166v-25q0 -76 -3 -152 q-3 -89 -11 -176.5t-23 -165.5q-5 -26 -19.5 -48t-26.5 -45q-3 -5 -6.5 -7.5t-8.5 -5.5q-19 -11 -37 -22t-38 -22q-25 -14 -53 -14q-12 0 -25 3q-43 8 -82 32.5t-68.5 59t-38.5 67.5zM200 760q4 19 15 33.5t27 20.5q5 2 10 2q11 0 21 -9l-14 -38q-2 0 -6 1.5t-6 3t1.5 2 t17.5 -0.5q3 0 1 -2.5t-5.5 -5t-6.5 -5.5t-1 -5t3 4.5t3 4.5q3 -2 0.5 -5.5t-3.5 -6.5q-1 -2 -1 -8t0 -3t-0.5 6.5t1.5 5.5t3 -4.5t-1 -5.5q-3 2 -3.5 5.5t-2.5 6.5l-2 -1l-2 -4q0 -4 0.5 -8t-1.5 -8q0 -2 -0.5 1.5t-1.5 5.5q-5 5 -7 9.5t-7 9.5q-2 18 5.5 30.5t19.5 17.5 t25.5 0.5t24.5 -19.5q2 -2 -1.5 3t-5.5 7q-1 2 1 -2t4 -6l9 -14q6 -8 6 -24q0 -9 -2 -15q-4 -21 -18 -32t-32 -12q-2 -1 -5 -1l-29 7q-18 8 -28 24q-6 10 -6 23v11z" />
<glyph unicode="k" horiz-adv-x="618" d="M80 874q3 18 14 28t24 10h2q12 0 22 -8q12 -8 17 -26q3 -118 10 -234.5t15 -234.5q3 -49 7.5 -100t6.5 -102v-31q0 -36 -2 -70q-4 -51 -16 -100l-38 11q6 39 6 78q0 23 -2 47q-6 63 -11 125q-11 153 -27.5 304t-27.5 303zM184 131q-13 13 -13 25q0 13 15 25q35 26 72 52 t72 53.5t66 59t55 69.5q10 17 16.5 29.5t11.5 25.5t9.5 27t11.5 34q1 2 2.5 7.5t3 10.5t2 7t-0.5 -4q1 2 0 6t1 2q2 -1 1.5 -4t-0.5 -5q2 -2 3.5 -5t2.5 -6q1 -1 -0.5 1t-3.5 4q-8 16 -5 30t12 22q10 9 24 9h2q14 0 28 -10q11 -14 14 -28q1 -5 1 -12q0 -10 -3 -21l-3 -9 q-2 -6 -4.5 -12t-3.5 -9q-28 -76 -64.5 -128t-82 -92.5t-99 -77t-116.5 -81.5l11 50l-6 4q-5 1 -1 1t11.5 -0.5t16 -1.5t13.5 -1q9 -1 23.5 -3.5t30 -5t29.5 -5t22 -4.5q18 -4 50.5 -13.5t65.5 -22.5t60.5 -29.5t34.5 -34.5l11 -31l-38 -14q-2 6 -3.5 12t-6.5 11 q-16 19 -53 33t-80 24.5t-84.5 16.5t-65.5 8q-16 2 -35 1t-33 10z" />
<glyph unicode="l" horiz-adv-x="281" d="M76 991l2 5q15 25 36 25q14 0 30 -11q6 -8 10 -31.5t6 -54.5q2 -32 2 -68v-34v-32q0 -30 -1 -52.5t-1 -28.5v-47q0 -153 -6 -305q-4 -120 -4 -241q0 -56 1 -112l-39 -8q-12 78 -15 162q-3 72 -3 146v24q0 86 2 170v42q0 62 -2 121q0 34 -2.5 76t-5.5 83t-4.5 77.5 t1.5 60.5q18 5 36 8.5t35 7.5q0 -2 -0.5 -2.5t-0.5 -2.5q-7 -20 -21.5 -26.5t-28 -2.5t-22.5 18q-6 9 -6 21q0 6 1 12z" />
<glyph unicode="m" horiz-adv-x="940" d="M19 548q5 13 19 20.5t34 1.5q16 -5 26 -25.5t16.5 -45t10 -48.5t5.5 -37q9 -59 19.5 -116.5t15.5 -117.5q2 -27 2 -53q-1 -13 -1 -27q-2 -40 -3 -81l-39 -2q-6 51 -10 102t-12 102q0 3 0.5 -1.5t1 -9.5t1 -9.5t-0.5 -1.5q-5 29 -9.5 58t-10.5 58q-8 35 -16.5 72t-19.5 72 q-1 3 -6 14t-10 21.5t-7.5 16t0.5 -1.5q3 -2 7 -4.5t7.5 -5t5 -4t-1.5 -0.5q-17 10 -23 25q-3 8 -3 15t2 13zM127 14q0 115 10.5 224t45.5 218q13 40 37 64q26 24 56 32q13 3 27 4q19 0 37 -6q34 -10 64 -36q19 -16 33 -34.5t25 -39t20.5 -42t19.5 -43.5q9 38 15.5 75.5 t16.5 74.5q8 29 18.5 57.5t30.5 51.5q23 28 53 38q19 7 39 7q10 1 20 -1q29 -6 53.5 -26t39.5 -51q25 -53 36 -122t15.5 -142.5t5 -146t5.5 -132.5l-79 -3v7q3 18 14 27.5t24 10t24.5 -7.5t16.5 -26v-7q-1 -21 -12 -31q-12 -12 -26 -12h-1q-13 0 -25 10t-15 30 q-5 50 -5.5 100t-1 100.5t-2.5 100.5t-9 100q-2 17 -6.5 47t-14.5 57t-28 43t-48 5q-25 -9 -41.5 -43.5t-27.5 -76t-18.5 -82.5t-13.5 -64q-2 -7 -4 -11.5t-4 -9.5t-5.5 -10.5t-7.5 -14.5q-8 -8 -15 -11.5t-19 -1.5q-16 4 -29 22t-23 39.5t-17 41t-11 27.5q-11 24 -21 39 t-23 25.5t-29.5 19t-40.5 19.5q-9 -3 -18.5 -4t-17.5 -8q-33 -30 -52 -86t-29 -120t-14 -126t-7 -104q0 -5 0 1v14v12q0 6 0 2q0 -15 -0.5 -30.5t-1.5 -31.5z" />
<glyph unicode="n" horiz-adv-x="635" d="M79 556l35 20q18 -28 28 -68t15.5 -84t7 -87t2.5 -77q2 -36 2 -76v-76q1 -6 0 -12l-2 -12v-4q0 -2 -1 -1v6q0 4 1 2l-53 -2q1 4 0.5 -4t-1.5 -12v2q-2 14 -1.5 28.5t2.5 28.5q5 52 15 101q9 43 20 85t26.5 82t37 77.5t50.5 70.5q21 26 51 36q24 8 48 8h12q30 -2 56.5 -19 t41.5 -46q46 -87 61 -183q11 -72 11 -145q0 -24 -1 -48q2 -9 3 -22.5t1 -27.5v-28v-24q-1 -16 -6 -25t-19 -18q-10 -2 -19 -2h-3q-10 0 -21 9q-15 15 -15 31t9 26.5t24.5 13t32.5 -9.5q2 0 4 -2l-36 10q-8 -9 -15.5 -18.5t-15.5 -18.5v5q-2 19 -2 41q0 15 1 31q2 40 3 71v26 q0 53 -6 107q-8 68 -31 128q-5 14 -15 33.5t-24 29.5q-23 17 -45 10t-41 -25.5t-34 -42t-23 -38.5q-34 -66 -50.5 -138t-26.5 -145q-2 -16 -1 -33t-3 -32q-7 -19 -22.5 -22t-29.5 11q-11 18 -6 40q4 27 3 53.5t-1 53.5q1 57 1 112t-5 112q0 3 0.5 -0.5t0.5 -8.5v-8 q0 -4 0 -2q-2 18 -3.5 37t-4.5 38t-8 37t-15 34z" />
<glyph unicode="o" horiz-adv-x="680" d="M26 319q2 46 19 90.5t47 79.5q25 29 58 50.5t69.5 36t75.5 21t77 6.5q64 -1 113.5 -23.5t84 -60t54 -86.5t23.5 -103q1 -14 1 -29q0 -40 -8 -81q-11 -56 -37 -107q-20 -39 -60.5 -59.5t-88.5 -30.5t-96.5 -12t-84.5 -3q-21 2 -30.5 14.5t-9 26.5t11.5 25.5t32 12.5 q29 -1 67 -1h7q34 0 68 6q37 6 70 19t53 42q16 23 22.5 48t8.5 52q2 25 2 49q0 20 -1 38q-3 44 -17.5 82t-43 67.5t-75.5 44.5q-38 12 -78 12h-19q-50 -4 -95 -22.5t-82 -50t-59 -72.5q-21 -41 -25 -89q0 -7 -1 -14q0 -42 19 -87q26 -61 74 -91.5t108 -49.5l25 -5 q15 -3 25 -8l-14 -38q-4 2 -5 2q-60 5 -112.5 29.5t-91.5 63.5t-61 91q-20 48 -20 104v10z" />
<glyph unicode="p" horiz-adv-x="705" d="M93 202q-3 30 -3 63q0 34 4 71q6 69 35 135q16 37 50.5 65t76.5 45.5t86 24.5q25 3 47 3q17 0 33 -2q29 -4 57 -14t55 -23q26 -13 45 -40t30 -53q15 -32 21 -71q4 -28 4 -58v-24q-3 -42 -14.5 -83.5t-31 -77.5t-48 -64t-64.5 -42q-27 -11 -57.5 -15t-59.5 -4 q-27 0 -67.5 15t-80.5 38t-71 52t-40 57l28 17q5 -17 21 -32.5t38 -29.5t48 -25.5t50 -20t43.5 -14t30.5 -6.5q24 -2 48.5 2.5t46.5 15.5q43 21 71.5 62t41.5 91q11 41 11 83v17q-3 50 -22 91q-20 44 -58 67.5t-83 29.5q-16 2 -32 2q-29 0 -59 -7q-45 -11 -81 -36 q-30 -21 -47.5 -51t-25.5 -65q-9 -38 -10 -85v-7q0 -44 6 -92q6 -52 16.5 -105.5t23.5 -105.5t26.5 -99.5t24.5 -86.5q1 -3 0 1.5t-2.5 9.5t-2.5 9.5t0 1.5q5 -16 10 -33.5t8 -34.5q2 -4 0 3.5t-4 11.5q0 2 0.5 -0.5t0.5 -3.5q-18 -1 -36.5 -1.5t-36.5 -2.5q0 2 0.5 3.5 t0.5 3.5q10 16 23.5 21.5t25.5 2t20.5 -15.5t7.5 -30l-2 -6q-5 -15 -15 -23t-21.5 -8t-22.5 6.5t-18 20.5q-17 60 -29 117.5t-28 120.5q-10 40 -23.5 96.5t-19.5 121.5z" />
<glyph unicode="q" horiz-adv-x="723" d="M50 274q2 19 6.5 38t10 38t8.5 38q5 29 21.5 56t40 49.5t50.5 40t53 28.5q46 20 90 26q23 3 44.5 3t43.5 -3q42 -6 84 -22.5t83 -41.5l-20 -35q-32 18 -66.5 32.5t-71.5 19.5q-30 5 -61 0t-60 -15q-99 -32 -148 -100q-44 -62 -44 -157v-20q2 -23 9.5 -45t19.5 -42 q24 -37 73.5 -60t105.5 -28q16 -1 31 -1q40 0 77 9q53 13 82 48q9 11 12 24.5t8 26.5q11 18 26.5 22t28 -2t18.5 -20.5t-1 -34.5q-4 -9 -6.5 -19t-6.5 -20t-9 -18t-13 -14q-19 -14 -37.5 -29t-41.5 -21q-53 -14 -109 -19q-18 -1 -36 -1q-37 0 -73 7q-52 9 -99 35.5t-83 76.5 q-17 25 -22 54.5t-14 58.5q-4 14 -4 28v9zM561 -147q2 47 3 92.5t2 92.5t1 93q0 93 -4 185q-3 76 -3 152q0 63 2 127l39 2q8 -140 17.5 -278t13.5 -278q2 -46 2.5 -92t1.5 -93q1 -26 6 -50q2 -13 2 -26q0 -12 -2 -24q-9 -26 -30 -30q-4 -1 -7 -1q-17 0 -34 16l4 -4l4 -4 q-15 15 -15 31t9 26.5t24.5 13t32.5 -9.5q1 0 1 -0.5t1 -0.5l-69 -29q5 23 1.5 44.5t-3.5 44.5z" />
<glyph unicode="r" horiz-adv-x="481" d="M52 616l39 2q5 -97 13 -194t18 -194q3 -22 7 -49.5t7.5 -56t4.5 -56t-2 -49.5l-57 18q5 13 6.5 29t1.5 32.5t-0.5 32t0.5 28.5q2 36 6 74.5t11.5 77t19 75.5t28.5 69q23 44 53 81.5t65 71.5q12 11 25 19.5t27 16.5q4 2 7 5q2 2 4 3q15 12 30 12h2q16 -1 26 -11 q11 -11 11 -28q0 -15 -12 -30q-14 -13 -32 -21t-33 -21q-50 -42 -86.5 -94.5t-58.5 -114.5q-14 -42 -21 -95t-11 -97q-2 -34 -2.5 -71.5t-13.5 -69.5q-11 -13 -24 -13q-4 0 -9 2q-18 6 -22 28q2 9 0.5 32.5t-4.5 53t-6 60t-5 53.5q-7 99 -11 195q-2 61 -3 123q0 35 1 71z " />
<glyph unicode="s" horiz-adv-x="475" d="M8 438q8 46 33 85t66 62q16 9 33.5 13.5t34.5 9.5t36 5q13 0 25 -2q32 -5 62 -18.5t54 -33t36 -40.5q23 -41 33.5 -84.5t15.5 -85.5l-39 -8q-5 28 -10 54.5t-14 50t-24.5 44.5t-41.5 38q-31 20 -62 24.5t-60 -3.5t-54 -27t-41.5 -44.5t-24.5 -56.5q-4 -17 -4 -35 q0 -14 3 -29q7 -39 32.5 -65t60.5 -44t75.5 -31.5t77 -26.5t64.5 -28t39 -38q3 -5 3.5 -13.5t0 -17t-1.5 -16.5t-2 -12q-2 -14 -11.5 -23t-23 -15t-28 -10t-25.5 -7q-38 -10 -76 -10l-62 6q-69 16 -129 51q-13 13 -15 27.5t4.5 25t20 16t30.5 0.5q20 -12 41 -23.5t43 -20.5 t45 -14t47 -3q7 0 18.5 1t23 4t20 9t9.5 15q-34 27 -75 42.5t-82.5 31t-79.5 36t-65 58.5q-26 38 -35 84q-5 25 -5 48t4 44z" />
<glyph unicode="t" horiz-adv-x="467" d="M6 508q72 11 142 27t142 24q21 1 33 -10t13.5 -25t-7.5 -27t-30 -17h-21q-26 0 -52 -2q-36 -2 -72 -5t-72 -5q-14 -1 -29 -1l-43 2zM102 448q0 36 1 73q2 35 5 69.5t6 69.5q5 45 10 89.5t10 89.5l39 -4q-4 -115 -11 -229q-3 -57 -3.5 -114t3.5 -115q1 -23 4 -58.5 t8.5 -73.5t14 -73t21.5 -57q10 -18 23.5 -25.5t28.5 -9.5t31.5 0.5t33.5 5.5q9 2 18 16.5t18.5 33.5t18 36.5t15.5 25.5q16 13 32 12t26 -11q11 -11 12 -28q0 -15 -13 -30q-12 -13 -22.5 -33.5t-22.5 -41t-27 -36.5t-36 -20q-26 -4 -56 -8q-9 -1 -17 -2q-20 0 -38 6 q-29 9 -50 33.5t-35.5 58t-23 72t-13.5 76.5t-7 72t-3 57q-2 30 -2 59q1 7 1 14z" />
<glyph unicode="u" horiz-adv-x="623" d="M54 416v49q0 48 1 96l39 2q2 -69 5 -139t20 -139q5 -21 12.5 -43t18 -42.5t25 -38.5t32.5 -31q19 -13 29 -17t16.5 -5.5t13.5 -2.5t20 -7q1 -1 -1.5 0t-5.5 1.5t-6 1.5t-1 0q30 -10 55 2t51 28t48.5 38.5t37.5 48.5q12 20 17.5 39.5t8 39.5t3.5 40.5t4 41.5q7 45 12 88 q3 27 3 55q0 17 -1 33l67 -6q-7 -41 -7 -82t-2 -83q0 -5 0 2t0.5 17t0.5 17t0 2l-4 -274q0 -26 -1.5 -56.5t3.5 -58.5q-2 -27 -20 -39q-9 -5 -18 -5q-11 0 -25 7q-2 2 -4 2q-13 13 -15 27.5t4.5 25t20 16t30.5 0.5l5 -3l-56 -48q-5 29 -5 71t2.5 85.5t5 82.5t3.5 62 q2 59 3 119.5t12 117.5q3 15 13 23t20 8q1 0 1 1q10 0 19 -7q10 -7 14 -22q0 -29 -1 -48.5t-3 -38t-5.5 -41.5t-8.5 -57q-1 -5 -0.5 -10.5t-1.5 -10.5q-1 -2 -1 1t0.5 7t0.5 7t0 1q-3 -36 -6 -63t-10 -52t-19.5 -49t-34.5 -54q-17 -22 -39 -40t-46 -31q-23 -12 -49 -25.5 t-53 -15.5q-13 -1 -26.5 3.5t-26.5 8.5q-41 14 -71 34.5t-51 48.5t-34.5 63t-22.5 78q-14 71 -15 143z" />
<glyph unicode="v" horiz-adv-x="594" d="M65 574l39 8q4 -17 11.5 -33.5t14.5 -33t13 -33.5t9 -35q1 -2 0 1.5t-2.5 8.5t-2.5 9t0 1q16 -48 31 -101.5t32 -106.5t38 -103.5t49 -93.5q23 37 43 81t37.5 89.5t32.5 91t28 87.5q5 15 11 42l12 54q7 32 15 67q0 2 0.5 3.5t0.5 2.5q11 18 27 22q6 2 11 2q9 0 17 -4 q12 -6 18 -20.5t-1 -34.5l4 12l1 1q0 -1 -0.5 -3t-0.5 -3q-2 -10 -4 -15q-14 -40 -23 -81.5t-24 -81.5q-8 -22 -19.5 -54t-26 -69t-31 -75t-34 -72t-35.5 -61t-35 -41q-7 -5 -13 -6q-3 -1 -6.5 -0.5t-8.5 0.5q-8 5 -16.5 8.5t-16.5 8.5q-16 12 -31.5 42.5t-28 65t-22.5 67 t-16 48.5q-20 61 -34.5 122t-32.5 122q-7 25 -16.5 46.5t-13.5 47.5z" />
<glyph unicode="w" horiz-adv-x="918" d="M96 596l39 2q3 -32 10 -69.5t15 -68.5q13 -57 25 -107t31 -106q6 -19 14 -44.5t19.5 -49.5t27.5 -43t39 -25q3 0 7 3.5t8.5 9t8.5 11.5l8 10q9 11 22 32t29 39t34.5 27.5t38.5 -0.5q27 -14 45.5 -37t36 -46.5t38 -42.5t51.5 -25q14 4 24.5 18.5t19 35.5t15 45.5 t12.5 48.5q26 98 42 194q12 77 12 155q0 20 -1 41q3 18 14 27.5t24 9.5q1 0 2 1q13 0 23 -8q12 -8 16 -26q0 -14 1 -29q0 -110 -21 -218q-23 -123 -68 -238q-7 -18 -17.5 -42.5t-26.5 -44.5q-16 -22 -38 -32q-11 -5 -24 -5q-12 0 -27 5q-43 14 -65 33.5t-37 40.5t-30 42.5 t-43 39.5q-1 1 -5.5 -4.5t-10 -14t-11 -17.5t-9.5 -14q-8 -11 -19 -27t-24.5 -30.5t-29.5 -23t-34 -2.5q-34 11 -57 31t-38.5 46.5t-26 57.5t-20.5 64q-17 56 -29 110t-22 111q-6 38 -11 74.5t-7 74.5z" />
<glyph unicode="x" horiz-adv-x="586" d="M46 555v7q0 14 6 24q8 12 19.5 17t25 0.5t24.5 -19.5q6 -12 10 -26t11 -27q14 -26 30 -46t31.5 -39.5t31.5 -39.5t30 -46q2 -3 -0.5 1.5t-6.5 10.5t-6.5 10t-0.5 1q50 -77 102 -151t101 -152q10 -14 21 -27t19 -30l-35 -20q-8 14 -19 24.5t-21 22.5l-67 85 q-39 52 -81 102t-82 101.5t-77 105t-66 111.5zM66 30q22 57 56 109t69 102q69 97 144 184t151 179q12 4 22 4h4q10 -1 23 -10l2 -2q10 -14 10 -28q0 -16 -9 -26q-8 -10 -22 -12.5t-30 5.5l-2 2q12 1 24.5 1t24.5 1q-19 -25 -40.5 -48t-44.5 -45t-45.5 -44t-42.5 -46 q-24 -28 -45.5 -54t-42 -52t-41 -53t-42.5 -57q-23 -32 -46.5 -62.5t-40.5 -65.5z" />
<glyph unicode="y" horiz-adv-x="598" d="M24 572l2 4q8 13 19.5 19.5t23 5t21 -10t13.5 -24.5q6 -29 12.5 -59t11.5 -60q0 -3 -1 1.5t-2 10.5l-3 10q-1 4 -1 1q20 -86 55 -162.5t82 -151.5q1 -3 -1 1t-5.5 9.5t-6 9.5t-0.5 1q19 -30 38.5 -58.5t42.5 -56.5l-31 -26q-59 58 -100.5 117t-72 122.5t-53 132 t-43.5 144.5q19 -2 37 -5l36 -6l-2 -4q-12 -14 -26 -17t-25 3t-17 19q-5 8 -5 19q0 5 1 11zM93 -308q-2 5 -2 10q0 9 5 18q6 14 26 21q2 0 -7 -5.5t-17 -16.5q-1 -1 0 1t1 3l51 94l60 108q43 81 86.5 163.5t80 168t64.5 173t42 179.5l39 -4q-2 -24 -2.5 -48.5t-4.5 -48.5 q-13 -81 -39.5 -159.5t-59.5 -155t-70.5 -151t-73.5 -147.5l-54 -111q-3 -7 -10 -25.5t-17 -38.5t-22 -36.5t-25 -19.5q-6 -1 -12 -1q-12 0 -22 6q-13 9 -17 23z" />
<glyph unicode="z" horiz-adv-x="647" d="M68 536q27 21 70 36t90.5 23.5t93.5 10.5q15 1 29 0q28 0 51 -2q37 -4 79 -10t74.5 -22t48.5 -46q9 -16 10 -40q0 -19 -6 -41q-2 -15 -18 -36t-39 -44t-50 -46.5t-52 -44.5t-45.5 -37.5t-29.5 -24.5q-20 -18 -39.5 -35t-38.5 -36q-13 -13 -24.5 -26t-22.5 -27 q-2 -3 -5 -9t-5.5 -11.5t-4 -8t-1.5 1.5q1 13 3 12t2 -4t-2.5 -0.5t-9.5 24.5q0 2 2 -1.5t4 -5.5q5 -5 11.5 -6.5t12.5 -3.5q11 -3 23.5 -3.5t23.5 1.5q35 6 67.5 19t67.5 18q21 1 33 -10t13.5 -25t-7.5 -27t-30 -17q-17 -2 -34 -6.5t-33 -9.5l-34 -10q-16 -5 -34 -7 q-12 -1 -25 -1h-13q-20 1 -38 6q-45 13 -59.5 34t-9.5 45t25.5 49.5t45.5 49.5t50 43.5t40 32.5q22 20 44.5 38t44.5 37q20 19 40.5 31t38.5 32q20 22 30 32.5t14.5 19t5.5 19t4 31.5q-8 8 -15 17t-18 12q-39 13 -97 20q-45 5 -92 5h-27q-61 -2 -117.5 -14.5t-91.5 -37.5z " />
<glyph unicode="{" horiz-adv-x="426" d="M60 351q0 10 6 18.5t20 13.5v2q20 0 31 29t16.5 71t6.5 87.5t1 78.5v33q0 46 13 84.5t37 67t58 44.5t76 16q17 0 35 -3q11 0 16 -3.5t5 -14.5t-5 -14t-16 -3q-5 0 -10.5 0.5t-10.5 0.5q-44 0 -75 -16t-50 -45t-27.5 -70t-8.5 -91v-45q0 -30 -2.5 -66t-9 -70.5 t-18.5 -63.5t-31 -44q28 -14 39.5 -37t15.5 -57.5t5.5 -82.5t8.5 -112q5 -35 14.5 -74t26.5 -72.5t43 -55.5t64 -22q3 0 6 0.5t6 0.5q15 0 22 -6t7 -14t-8 -14.5t-23 -6.5q-49 0 -83.5 20t-57 52.5t-35 73.5t-18.5 84t-7.5 84t-1.5 73q0 12 -2 31.5t-7 39t-15.5 36 t-26.5 22.5q-15 8 -22.5 18.5t-7.5 21.5z" />
<glyph unicode="|" horiz-adv-x="285" d="M118 -23q0 256 1 447t2.5 329.5t2.5 230.5t1 149q0 35 -1 60t-3 34q0 16 20 16q10 0 19 -4q5 -17 6.5 -52.5t1.5 -80.5q0 -34 -0.5 -72.5t-1.5 -77.5t-1.5 -77.5t-0.5 -73.5v-209v-123q0 -61 -1 -123l-3 -225q-1 -41 0 -71.5t-0.5 -51t-7 -31t-17.5 -10.5q-17 2 -17 16z " />
<glyph unicode="}" horiz-adv-x="426" d="M57 875q0 9 6.5 13.5t15.5 6t19 1.5h15q42 0 76 -16t58 -44.5t37 -67t13 -84.5v-33q0 -33 1 -78.5t6 -87.5t16.5 -71t31.5 -29q26 -11 26 -34q0 -11 -7.5 -21.5t-22.5 -18.5q-17 -6 -27 -22.5t-15 -36t-7 -39t-2 -31.5q0 -31 -1 -71.5t-7.5 -83.5t-19 -85t-36 -74.5 t-59 -52.5t-86.5 -20q-12 1 -18.5 7t-6.5 14t7 14t22 6q3 0 6 -0.5t5 -0.5q39 0 66 22t44 55.5t26.5 73t13.5 73.5t4.5 57.5t0.5 24.5q2 43 4 76.5t8 58.5t17.5 42.5t34.5 29.5q-23 17 -35.5 50.5t-18.5 72.5t-7 78t-1 67v22q0 50 -8.5 90.5t-27.5 69.5t-49.5 45t-75.5 16 q-6 0 -12 -0.5t-12 -0.5q-18 0 -18 17z" />
<glyph unicode="~" horiz-adv-x="555" d="M72 481q19 30 41.5 45t48 19.5t54.5 1t61 -10.5q14 -3 33.5 -11t34.5 -5q26 5 45 18q-5 -4 -2.5 -1.5t8 7.5t10.5 10.5t7 6.5q17 6 31 2t21.5 -14t7 -24.5t-12.5 -28.5q-27 -21 -59.5 -35.5t-69.5 -8.5q-28 5 -57.5 16.5t-59 18t-57.5 2t-52 -31.5z" />
<glyph unicode="&#xa1;" horiz-adv-x="317" d="M100 551q0 22 15.5 39.5t42.5 17.5q22 0 36.5 -15t16.5 -38q0 -20 -12.5 -38.5t-40.5 -18.5q-27 0 -42.5 15t-15.5 38zM104 -182l29 602q4 18 22.5 17t22.5 -17l29 -602q-2 -23 -17.5 -34t-34 -11t-35 10t-16.5 35z" />
<glyph unicode="&#xa2;" horiz-adv-x="782" d="M104 469q0 61 17 122t53 112t92 86.5t133 46.5v94q0 18 6 26.5t13.5 8.5t14 -8.5t6.5 -26.5v-94q45 -1 91 -19q19 -8 40 -20.5t42.5 -32t41.5 -46t38 -61.5q6 -8 4 -16t-9 -11.5t-17.5 1t-20.5 21.5q-40 72 -93.5 106t-110 37.5t-111.5 -20.5t-97.5 -68.5t-67.5 -105.5 t-22 -132q2 -57 19 -111t51 -95.5t86.5 -66.5t125.5 -25q106 0 171.5 54t88.5 145q4 21 11.5 31.5t14.5 10.5t12.5 -10.5t4.5 -29.5q-1 -26 -17.5 -64t-51 -75t-87.5 -65.5t-126 -35.5l1 -100q0 -17 -7 -26.5t-16 -10.5t-16.5 7t-8.5 26l-4 102q-80 6 -136 37t-91 77.5 t-51.5 105t-16.5 119.5z" />
<glyph unicode="&#xa3;" horiz-adv-x="776" d="M121 29q24 30 61 53.5t84 26.5q39 61 44 114t-19 115h-135q-21 2 -25 18.5t25 16.5h112q-41 71 -67.5 128.5t-26.5 110.5q0 45 18.5 85t49 70t71.5 46t88 16q97 0 150 -55t63 -147q2 -23 -13 -25t-19 27q-13 67 -54 115.5t-127 48.5q-36 0 -70 -14.5t-59.5 -39t-41 -58.5 t-15.5 -71q0 -30 11.5 -62t26.5 -62.5t32.5 -59.5t31.5 -53l168 -4q35 2 29 -15.5t-29 -19.5l-151 4q22 -66 14 -120t-39 -112q51 -12 100.5 -38.5t102.5 -28.5q49 -2 73.5 22.5t43.5 53.5q12 22 25.5 15t7.5 -24q-19 -47 -51.5 -70.5t-96.5 -27.5q-47 -2 -95 17.5t-95.5 34 t-92.5 8t-84 -57.5q-10 -12 -23 -8t-3 27z" />
<glyph unicode="&#xa4;" horiz-adv-x="995" d="M130 132q-1 9 9 20l82 86q-88 108 -88 233q0 59 20.5 120.5t67.5 117.5l-82 84q-10 8 -9 18t8 17.5t16.5 8.5t19.5 -8l84 -86q55 48 117.5 70.5t120.5 22.5q125 0 241 -88q17 16 41.5 40.5t42.5 40.5q19 13 35 -2.5t2 -33.5l-84 -84q45 -52 65.5 -113t20.5 -125 q0 -59 -20.5 -119.5t-65.5 -113.5q17 -19 40 -42l44 -44q8 -11 6 -21t-9 -16t-17.5 -7.5t-16.5 7.5l-86 88q-53 -47 -114.5 -70.5t-124.5 -23.5q-64 0 -122.5 21.5t-113.5 74.5q-16 -19 -40.5 -42.5t-45.5 -45.5q-8 -8 -18.5 -7t-17.5 7t-8 15zM186 471q0 -65 25 -121.5 t68 -98.5t99 -66.5t118 -24.5q65 0 121.5 25.5t98.5 68.5t66.5 99.5t24.5 117.5q0 64 -24.5 120t-66.5 99t-99.5 68.5t-120.5 25.5q-64 0 -120.5 -24.5t-98 -67.5t-66.5 -100t-25 -121z" />
<glyph unicode="&#xa5;" horiz-adv-x="770" d="M72 321q0 4 6 11t18 7l266 2v50q-28 6 -67 55q-14 19 -31 55l-168 -2q-12 2 -18 7.5t-6 9t6 10t18 6.5h135l-16 29q-39 68 -72.5 137.5t-50.5 118.5q-2 8 4 13.5t15.5 5.5t17.5 -4.5t10 -12.5q13 -43 43.5 -106.5t65.5 -124.5q16 -29 33 -53l196 2q10 14 21 32 q37 60 72.5 126.5t58.5 119.5q2 8 10 13.5t17.5 5.5t15.5 -6.5t4 -18.5q-29 -61 -66 -134t-75 -136l-3 -2l148 2q12 -2 18.5 -8t6.5 -9.5t-6.5 -10t-18.5 -6.5l-180 -2q-21 -46 -39 -69q-35 -43 -60 -43v-50l279 4q12 -2 18.5 -9t6.5 -10.5t-6.5 -11t-18.5 -7.5l-277 -4 l9 -272q0 -13 -8.5 -19t-17.5 -6t-16.5 5t-7.5 16v276l-266 -2q-12 2 -18 9t-6 11zM315 501l4 -4q30 -66 62 -63q27 -9 65 67h-131z" />
<glyph unicode="&#xa6;" horiz-adv-x="324" d="M125 -219q2 -12 9 -18.5t16.5 -6.5t16.5 6.5t7 18.5l10 467q-2 12 -9 18t-16 6t-16.5 -6t-7.5 -18zM125 958q2 13 9 19t16.5 6t16.5 -6t7 -19l10 -466q-2 -13 -9 -19t-16 -6t-16.5 6t-7.5 19z" />
<glyph unicode="&#xa7;" horiz-adv-x="782" d="M131 522q-4 53 16.5 100.5t61.5 79.5h2q-14 21 -23.5 44.5t-11.5 52.5q-4 43 11.5 82t47 68.5t77.5 46t102 16.5q94 -2 152.5 -55.5t62.5 -141.5q-4 -22 -21.5 -23t-19.5 17q-2 29 -12.5 57.5t-31 52t-53 39t-77.5 15.5q-99 2 -148 -50.5t-45 -123.5q2 -23 9.5 -44.5 t29 -42t59 -39t99.5 -34.5q76 -14 122 -41t69.5 -57.5t29.5 -64.5t4 -60q-4 -37 -30.5 -76t-75.5 -61q47 -41 59 -87.5t10 -87.5q-2 -28 -15 -59t-39 -56.5t-66 -43t-95 -19.5q-61 -2 -108 16.5t-81 52.5t-51.5 79t-17.5 96q-2 10 4 15t15.5 6.5t18.5 -4t9 -15.5 q2 -41 14.5 -78t37 -64.5t64.5 -44t95 -16.5q51 0 85 15.5t52.5 37t25.5 45t9 37.5q8 74 -38 127.5t-169 81.5q-98 23 -157.5 72t-67.5 137zM178 522q2 -24 10.5 -46.5t31 -44t62.5 -41t103 -38.5q74 -22 117 -49q53 21 74.5 55.5t25.5 57.5q8 67 -40 115.5t-167 74.5 q-47 10 -86 24.5t-67 37.5q-41 -19 -54.5 -60t-9.5 -86z" />
</font>
</defs>
</svg>
