<?xml version="1.0" standalone="no"?>
<!DOCTYPE svg PUBLIC "-//W3C//DTD SVG 1.1//EN" "http://www.w3.org/Graphics/SVG/1.1/DTD/svg11.dtd" >
<svg xmlns="http://www.w3.org/2000/svg">
<metadata>
This is a custom SVG webfont generated by Font Squirrel.
Copyright   : Copyright c 2005 by Sampan Sittiwantana All rights reserved
Foundry     : Sampan Sittiwantana
</metadata>
<defs>
<font id="SPThunderFoxBoldRegular" horiz-adv-x="45" >
<font-face units-per-em="2048" ascent="1638" descent="-410" />
<missing-glyph horiz-adv-x="403" />
<glyph unicode="&#x91;&#x91;" horiz-adv-x="587" d="M19 747q0 40 16 81.5t43 79.5q25 31 60.5 59.5t91.5 59.5l62 -96q-95 -47 -103 -103q-20 -5 -8 -5q46 0 74.5 -34t28.5 -78q0 -49 -36 -86.5t-89 -37.5q-65 0 -102.5 46.5t-37.5 113.5zM272 747q0 40 16 82t44 78q23 32 59 60.5t94 59.5l60 -97q-95 -46 -102 -101 q-22 -6 -9 -6q46 0 75 -34t29 -78q0 -51 -36 -87.5t-90 -36.5q-64 0 -102 46t-38 114z" />
<glyph unicode="&#x92;&#x92;" horiz-adv-x="587" d="M39 675q96 47 103 103q21 5 8 5q-45 0 -74 34t-29 78q0 49 36.5 86.5t88.5 37.5q65 0 102.5 -46.5t37.5 -113.5q0 -40 -15.5 -81.5t-43.5 -79.5q-24 -31 -59.5 -59.5t-92.5 -59.5zM292 675q96 47 103 101q22 6 9 6q-46 0 -75 34.5t-29 78.5q0 49 36.5 86.5t89.5 37.5 q64 0 101.5 -46.5t37.5 -114.5q0 -40 -15.5 -81.5t-42.5 -78.5q-24 -32 -60 -60t-93 -59z" />
<glyph unicode="&#x3b;&#x3b;For&#x20;Education&#x20;Used&#x20;Only&#x3b;&#x3b;" horiz-adv-x="903" d="M14 461q0 178 125.5 304.5t308.5 126.5q185 0 311 -126.5t126 -304.5q0 -177 -126.5 -303.5t-310.5 -126.5q-181 0 -307.5 126.5t-126.5 303.5zM154 467q0 -126 87 -213.5t208 -87.5q120 0 208 87.5t88 213.5t-87 213t-209 87q-121 0 -208 -87t-87 -213zM199 473 q0 112 57 188q68 90 186 90q98 0 161 -59q56 -53 71 -161l-144 -15q-11 69 -35 94q-20 21 -54 21q-41 0 -61 -45q-21 -41 -21 -113q0 -75 22 -117q24 -44 70 -44q33 0 53 22t29 84l144 -16q-20 -108 -74 -157q-63 -57 -159 -57q-121 0 -189 94q-56 79 -56 191z" />
<glyph unicode="&#x3b;&#x3b;Registered&#x3b;&#x3b;" horiz-adv-x="933" d="M28 461q0 178 126 304.5t308 126.5q186 0 311.5 -126.5t125.5 -304.5q0 -177 -126 -303.5t-311 -126.5q-181 0 -307.5 126.5t-126.5 303.5zM168 467q0 -126 87 -213.5t208 -87.5t208.5 87.5t87.5 213.5t-86.5 213t-209.5 87q-121 0 -208 -87t-87 -213zM269 224v498h180 q100 0 157 -39q65 -45 65 -136q0 -41 -26 -77q-26 -29 -50 -39l86 -207h-149l-75 181h-48v-181h-140zM409 514h68q22 0 38 11q15 10 15 34q0 27 -15 37q-14 8 -43 8h-63v-90z" />
<glyph unicode="&#x3b;&#x3b;Trademark&#x3b;&#x3b;" horiz-adv-x="806" d="M19 886v103h332v-103h-102v-333h-127v333h-103zM325 553v436h163l64 -195l66 195h160v-436h-127v196l-65 -196h-83l-65 196v-196h-113z" />
<glyph unicode="&#x3b;&#x3b;Multiply&#x3b;&#x3b;" horiz-adv-x="608" d="M34 242l173 174l-173 172l103 92l167 -167l168 167l102 -92l-172 -172l172 -171l-101 -94l-169 167l-167 -166z" />
<glyph unicode="&#x3b;&#x3b;Divide&#x3b;&#x3b;" horiz-adv-x="678" d="M31 351v129h622v-129h-622zM246 222q0 19 10.5 38.5t33.5 31t47 11.5t46.5 -11.5t33 -31t10.5 -38.5q0 -18 -10 -37.5t-32.5 -32.5t-47.5 -13q-26 0 -48 13t-32.5 32t-10.5 38zM246 597q0 19 10.5 38.5t33 31.5t47.5 12t47 -12t32.5 -31.5t10.5 -38.5t-10 -38 t-32.5 -31.5t-47.5 -12.5q-26 0 -48 12.5t-32.5 31.5t-10.5 38z" />
<glyph unicode=" "  horiz-adv-x="403" />
<glyph unicode="&#x09;" horiz-adv-x="403" />
<glyph unicode="&#xa0;" horiz-adv-x="403" />
<glyph unicode="!" horiz-adv-x="583" d="M163 87q0 50 36 86t92 36t92 -36t36 -84q0 -50 -35.5 -87.5t-92.5 -37.5t-92.5 37t-35.5 86zM180 1140l219 28l-34 -868h-152z" />
<glyph unicode="&#x22;" horiz-adv-x="783" d="M184 936v438h174v-438h-174zM425 936v438h174v-438h-174z" />
<glyph unicode="#" horiz-adv-x="991" d="M61 327v152h180l27 205h-158v152h180l49 346h166l-49 -346h150l49 346h166l-49 -346h158v-152h-179l-28 -205h157v-152h-179l-50 -349h-165l49 349h-151l-49 -349h-166l50 349h-158zM407 479h150l29 205h-151z" />
<glyph unicode="$" horiz-adv-x="1035" d="M102 29l83 148q94 -64 158 -87t111 -23v403l-23 8q-79 25 -127 48t-85 59q-77 82 -77 197q0 140 91.5 233t220.5 105v141h152v-138q142 -12 302 -120l-84 -138q-95 62 -144.5 82t-73.5 22v-352l36 -11q79 -24 126.5 -51t85.5 -71q37 -42 57.5 -98.5t20.5 -111.5 q0 -64 -26 -123t-72 -108t-110.5 -81t-117.5 -40v-163h-152v154q-76 0 -163.5 28t-188.5 88zM344 810q0 -57 33.5 -92.5t76.5 -51.5v297q-35 -6 -72.5 -46t-37.5 -107zM606 78q1 1 29 16.5t48.5 39t32 55t11.5 65.5q0 124 -121 166v-342z" />
<glyph unicode="%" horiz-adv-x="1477" d="M81 850q0 138 76.5 219t213.5 81q151 0 222.5 -88.5t71.5 -221.5t-77.5 -213.5t-214.5 -80.5t-214.5 82.5t-77.5 221.5zM248 863q0 -97 29 -140t101 -43q56 0 88.5 36.5t32.5 116.5q0 35 -4.5 70t-19 60t-38.5 39t-67 14q-63 0 -92.5 -38t-29.5 -115zM374 -26l568 1160 h168l-567 -1160h-169zM812 261q0 138 76.5 219.5t213.5 81.5q151 0 222 -88.5t71 -222.5q0 -133 -77.5 -213t-213.5 -80q-137 0 -214.5 82.5t-77.5 220.5zM979 274q0 -96 29 -139t100 -43q57 0 89.5 36.5t32.5 116.5q0 35 -4.5 70t-19 60t-38.5 39t-68 14q-62 0 -91.5 -38 t-29.5 -116z" />
<glyph unicode="&#x26;" horiz-adv-x="1221" d="M122 272q0 57 16.5 101t48.5 81t77 66t73 42q-61 56 -103 118.5t-42 129.5q0 59 26 111t69.5 89t102.5 59t122 22q66 0 125.5 -18t105 -53.5t72.5 -87t27 -116.5q0 -50 -17.5 -90.5t-49.5 -74t-78 -64t-77 -46.5l214 -212q4 8 7.5 75.5t0.5 155.5h170q0 -97 -4 -150 t-13 -92t-20.5 -68.5t-19.5 -45.5l234 -232h-241l-94 91q-33 -40 -126.5 -77.5t-197.5 -37.5q-93 0 -169 24t-129.5 67t-81.5 102.5t-28 130.5zM319 263q0 -78 56.5 -125t157.5 -47q76 0 135.5 28t78.5 53l-297 289q-131 -61 -131 -198zM386 826q0 -21 5.5 -39t19.5 -39 t42 -49.5t58 -54.5q70 34 102 77.5t32 96.5q0 62 -37 98.5t-94 36.5q-25 0 -47 -6.5t-40.5 -21.5t-29.5 -39.5t-11 -59.5z" />
<glyph unicode="'" horiz-adv-x="535" d="M102 961q107 52 114 107q29 7 14 7q-53 0 -85.5 39t-32.5 88q0 56 41 98t101 42q74 0 116 -52.5t42 -127.5q0 -45 -17.5 -91t-48.5 -88q-26 -35 -66 -66.5t-106 -67.5z" />
<glyph unicode="(" horiz-adv-x="604" d="M184 462q0 108 10.5 193.5t31.5 155.5t51 125.5t67 101.5q48 59 110.5 107t154.5 83l50 -100q-98 -57 -157 -121t-89 -169q-21 -74 -31.5 -169.5t-10.5 -202.5q0 -158 20 -292.5t76 -232.5q33 -58 74.5 -98.5t123.5 -85.5l-57 -103q-135 51 -221.5 143.5t-135.5 216.5 q-18 49 -32 107t-21 118t-10.5 117t-3.5 106z" />
<glyph unicode=")" horiz-adv-x="604" d="M-61 1129l59 103q133 -52 219.5 -144t135.5 -217q18 -49 31.5 -107.5t21 -118t11 -117t3.5 -106.5q0 -107 -11 -192.5t-31.5 -155t-50.5 -125t-68 -101.5q-47 -59 -109.5 -107.5t-152.5 -82.5l-51 99q96 58 155.5 121.5t88.5 167.5q21 75 32 170.5t11 202.5 q0 158 -20 292.5t-77 232.5q-32 59 -73.5 100t-123.5 85z" />
<glyph unicode="*" horiz-adv-x="856" d="M81 1027l45 138l224 -75v233h154v-233l224 75l45 -138l-224 -75l141 -189l-122 -93l-141 192l-136 -192l-124 93l138 189z" />
<glyph unicode="+" horiz-adv-x="962" d="M102 343v162h292v292h174v-292h291v-162h-291v-291h-174v291h-292z" />
<glyph unicode="," horiz-adv-x="376" d="M31 -212q107 51 109 64q49 49 32 49h-13q-53 0 -85.5 39t-32.5 87q0 56 41 98t101 42q73 0 115.5 -52t42.5 -127q0 -45 -17.5 -91t-48.5 -87q-26 -36 -66 -67t-106 -68z" />
<glyph unicode="-" horiz-adv-x="573" d="M102 447v169h369v-169h-369z" />
<glyph unicode="." horiz-adv-x="562" d="M143 86q0 53 38.5 92t97.5 39q61 0 100.5 -39t39.5 -92q0 -54 -39.5 -94t-97.5 -40q-60 0 -99.5 40t-39.5 94z" />
<glyph unicode="/" horiz-adv-x="848" d="M122 -325l437 1527h165l-437 -1527h-165z" />
<glyph unicode="0" horiz-adv-x="859" d="M32 500q0 183 27 264.5t78 141t124.5 91.5t163.5 32q96 0 170 -32.5t125 -92.5t76.5 -144.5t25.5 -266.5q0 -183 -27 -265.5t-78 -141t-124.5 -90.5t-163.5 -32q-96 0 -170 32.5t-125 92.5t-76.5 143.5t-25.5 267.5zM222 521q0 -260 50.5 -333.5t157.5 -73.5q98 0 150 64 t52 294q0 260 -50.5 333.5t-157.5 73.5q-98 0 -150 -64t-52 -294z" />
<glyph unicode="1" horiz-adv-x="639" d="M22 808l302 205h138v-888h151v-147h-487v147h151v664q-10 -6 -67.5 -31t-144.5 -59z" />
<glyph unicode="2" horiz-adv-x="785" d="M22 838q110 96 196 134.5t183 38.5q69 0 127 -17t102 -51t63 -83t19 -107q0 -74 -35.5 -171.5t-115 -204t-261.5 -245.5q-58 -8 -8.5 -6.5t93.5 1.5h381l-37 -149h-677v135q30 19 51 37q18 13 39 31l43 36q215 185 265.5 292t57 152t6.5 74q0 60 -37 90t-109 30 q-25 0 -50.5 -4.5t-53.5 -15.5t-61.5 -30.5t-99.5 -67.5z" />
<glyph unicode="3" horiz-adv-x="777" d="M11 856q98 79 187 117t190 38q74 0 136 -21.5t107.5 -60.5t70.5 -91.5t25 -115.5q0 -94 -57.5 -164t-78.5 -76q36 -8 86 -73.5t50 -125.5q0 -69 -26.5 -126t-62.5 -90.5t-79 -58.5q-87 -51 -188 -71.5t-199 -20.5h-36q-16 0 -28 2q-16 2 -41 8l-44 134q54 -10 68 -12 q11 -1 29 -1h43q109 0 184 26.5t121 67.5t61.5 92.5t0.5 89t-37 52.5q-37 27 -78 35t-106 8h-103v136h103q30 0 58 1t41 4q65 9 94.5 48t29.5 99q0 72 -46 113.5t-121 41.5q-26 0 -51 -3.5t-53.5 -13.5t-62 -28t-100.5 -63z" />
<glyph unicode="4" horiz-adv-x="872" d="M41 187v127l387 705h203l-330 -592q-11 -23 -23.5 -46.5t-24.5 -41.5q-12 -22 -7 -12q-36 0 -28 2q9 1 22 2t27 1h262v26q0 24 1 68l13 244l167 47v-281q0 -33 -1 -56.5t-1 -39.5v-9l134 4v-148h-147q-11 0 13 -6v13q0 -7 1 -14.5t1 -16.5v-217l-182 -54v292q0 13 -1 3 h-486z" />
<glyph unicode="5" horiz-adv-x="722" d="M12 101q72 -31 98 -37t63 -6q68 0 127.5 21t104.5 58.5t64.5 73t19.5 96.5t-52 104.5t-154 43.5q-58 0 -110 -9.5t-130 -43.5l58 613h544l-29 -152h-347l-23 -271q-15 -1 3 0q16 2 36 3.5t42 1.5q76 0 143.5 -22.5t118 -65t74 -94.5t23.5 -122q0 -71 -35.5 -137 t-104.5 -120t-160.5 -83.5t-191.5 -29.5q-40 0 -67 4.5t-78 16.5z" />
<glyph unicode="6" horiz-adv-x="843" d="M32 381q0 131 40 237.5t127.5 196.5t196 157.5t262.5 113.5l47 -124q-88 -28 -145 -58.5t-105 -61.5t-85.5 -75.5t-65 -95t-35.5 -79.5q-12 -33 -4 10q-16 -15 54.5 10t133.5 25q55 0 118.5 -23t114.5 -67t76 -103.5t25 -121.5q0 -70 -24 -143t-76 -125t-123 -81 t-135 -29q-91 0 -165.5 34.5t-126 96t-78.5 146.5t-27 160zM239 344.5q0 -43.5 12.5 -97.5t40.5 -91q51 -69 137 -69q63 0 114 60t51 172q0 75 -51.5 125.5t-105.5 50.5q-50 0 -101 -20t-93 -55q-1 -5 -3 -20q-1 -12 -1 -55.5z" />
<glyph unicode="7" horiz-adv-x="818" d="M21 863l44 152h738l-38 -158q-166 -228 -295 -475q-24 -44 -36 -72l-36 -93q-24 -64 -44.5 -125t-34.5 -127l-214 -56q12 95 40.5 173t63.5 157.5t56 120.5l45 89q80 145 159 263t110 150q35 3 7 3q-23 -2 -50 -2h-47h-468z" />
<glyph unicode="8" horiz-adv-x="884" d="M42 240q0 64 23 114.5t59 89t80 63.5t38 23q-54 24 -108 95.5t-54 156.5q0 129 97 211.5t276 82.5q76 0 139.5 -19.5t108.5 -56t70 -86.5t25 -109q0 -57 -20.5 -101t-53 -78t-75.5 -58.5t-45 -25.5l58 -29q47 -24 86 -56.5t62.5 -81t23.5 -116.5t-27.5 -128.5t-79 -108 t-126 -75t-165.5 -27.5q-95 0 -167.5 25.5t-123 70t-76 102t-25.5 122.5zM229 248q0 -91 58.5 -142t156.5 -51q89 0 143.5 47t54.5 126q0 32 -8 60.5t-26 47.5q-26 27 -80 55.5t-146 71.5q-21 -12 -52 -32.5t-53 -45.5t-35 -58t-13 -79zM260 793q0 -22 6.5 -44t27.5 -46 t62.5 -50t96.5 -48q82 44 122 90.5t40 99.5q0 66 -47.5 104.5t-130.5 38.5q-81 0 -129 -38.5t-48 -106.5z" />
<glyph unicode="9" horiz-adv-x="891" d="M22 -58q84 10 131 25.5t94 39t91.5 53.5t82.5 62q76 64 118.5 133.5t39.5 60.5q30 22 -33 0t-124 -22q-79 0 -144.5 28t-112.5 76.5t-72.5 115t-25.5 145.5q0 81 30 152t82.5 123.5t125.5 83t157 30.5q80 0 149.5 -30.5t120.5 -86t79.5 -132.5t28.5 -173 q0 -142 -56.5 -281t-154.5 -253q-51 -60 -114 -106.5t-129 -80t-130.5 -54.5t-133.5 -27zM265 662q0 -112 47 -168.5t127 -56.5q50 0 97.5 19t95.5 59q5 21 8 49.5t3 59.5q0 65 -15 117t-40.5 88t-59.5 54.5t-75 18.5q-83 0 -135.5 -64t-52.5 -176z" />
<glyph unicode=":" horiz-adv-x="603" d="M163 85q0 55 39.5 94.5t99.5 39.5q58 0 97.5 -39.5t39.5 -92.5q0 -55 -39.5 -94t-100.5 -39q-59 0 -97.5 39t-38.5 92zM163 601q0 55 39.5 95t99.5 40q58 0 97.5 -39.5t39.5 -91.5q0 -55 -39.5 -94.5t-98.5 -39.5t-98.5 38t-39.5 92z" />
<glyph unicode=";" horiz-adv-x="637" d="M163 -211q107 51 109 64q49 49 32 49h-13q-53 0 -85.5 39t-32.5 87q0 56 41 98t101 42q73 0 115.5 -52t42.5 -127q0 -45 -17.5 -91t-48.5 -87q-26 -36 -66 -67t-106 -68zM171 554q0 51 39.5 89t98.5 38q60 0 99.5 -39.5t39.5 -90.5q0 -55 -39 -95t-99 -40q-58 0 -98.5 42 t-40.5 96z" />
<glyph unicode="&#x3c;" horiz-adv-x="612" d="M40 509l338 454l151 -98l-265 -356l265 -355l-151 -99z" />
<glyph unicode="=" horiz-adv-x="1115" d="M102 371v152h911v-152h-911zM102 627v152h911v-152h-911z" />
<glyph unicode="&#x3e;" horiz-adv-x="613" d="M81 154l266 355l-266 356l151 98l340 -454l-340 -454z" />
<glyph unicode="?" horiz-adv-x="800" d="M81 1041q75 59 162 86.5t173 27.5q126 0 203.5 -72.5t77.5 -190.5q0 -65 -25 -113.5t-57.5 -84t-60.5 -55.5l-38 -27q-102 -82 -58 -276h-167q-28 116 -12.5 204.5t91.5 160.5q25 24 51 42t45.5 36.5t32 43t12.5 63.5q0 52 -34 83t-85 31q-53 0 -100.5 -17.5 t-133.5 -70.5zM243 84q0 53 39 92.5t98 39.5t99.5 -39t40.5 -93t-39.5 -94t-98.5 -40q-60 0 -99.5 40t-39.5 94z" />
<glyph unicode="@" horiz-adv-x="1591" d="M122 337q0 147 50.5 276.5t142 226.5t219 152.5t278.5 55.5q140 0 260.5 -42t210 -120t140.5 -187t51 -243q0 -111 -29.5 -202t-82 -157t-123 -102.5t-149.5 -36.5q-65 0 -106.5 21.5t-64.5 53.5t-27.5 68.5t-22.5 -79.5q58 105 28 72t-67 -58.5t-82 -41.5t-92 -16 q-40 0 -78.5 16t-68 49.5t-46.5 80.5t-17 109q0 101 29 195.5t85.5 169.5t144 122t202.5 47q64 0 118 -16t115 -50q-13 -39 -23 -83l-18 -80l-62 -296q-21 -93 -6 -123t64 -30q40 0 76.5 25.5t66 75.5t47 118t17.5 148q0 99 -36.5 182.5t-101 145.5t-153.5 97t-199 35 q-117 0 -210.5 -48t-162 -128t-106 -185t-37.5 -218q0 -112 38.5 -203t105 -154.5t154.5 -99t188 -35.5q65 0 120.5 9t125.5 31l32 -133q-71 -24 -139 -32.5t-139 -8.5q-133 0 -253.5 41t-211 121.5t-143 197t-52.5 266.5zM617 227q0 -65 19 -87t55 -22q22 0 50.5 12 t56.5 37.5t51.5 66t35.5 96.5l64 297l-16 5q-16 5 -38 5q-73 0 -124.5 -36.5t-86.5 -96.5t-51 -134.5t-16 -142.5z" />
<glyph unicode="A" horiz-adv-x="1081" d="M40 -22l390 1168h219l385 -1168h-210l-106 346h-376l-108 -346h-194zM392 477h278l-137 438z" />
<glyph unicode="B" horiz-adv-x="917" d="M71 -22v1168h190q84 0 140 -1t93.5 -4t63 -8.5t46.5 -12.5q97 -33 154 -109t57 -169q0 -94 -57 -163t-81 -76q-30 5 7.5 -10t68.5 -40q61 -46 85.5 -113t24.5 -132q0 -98 -49.5 -178t-142.5 -117l-47 -15q-22 -8 -54 -12t-75 -6t-106 -2h-318zM256 132h212 q110 0 154 46.5t44 140.5q0 69 -33.5 118t-81.5 60q-21 4 -52.5 7t-71.5 3h-171v-375zM256 663h167q44 0 72 3.5t45 12.5t29.5 24t24.5 41q16 37 16 80q0 61 -30.5 102.5t-78.5 53.5q-20 6 -46 7.5t-68 1.5h-131v-326z" />
<glyph unicode="C" horiz-adv-x="979" d="M72 554q0 128 36 237.5t102.5 190.5t159 127.5t202.5 46.5q87 0 164.5 -25t154.5 -86l-103 -123q-71 52 -116 67t-102 15q-88 0 -150 -44t-100 -134q-24 -56 -35 -124.5t-11 -166.5q0 -81 8 -133t27 -99q39 -100 113.5 -147t160.5 -47q57 0 104 16t122 67l103 -128 q-92 -58 -176.5 -83t-173.5 -25q-99 0 -190 40t-161 119q-75 84 -107 197.5t-32 241.5z" />
<glyph unicode="D" horiz-adv-x="970" d="M71 -22v1168h252q65 0 116.5 -2.5t95.5 -12.5t84 -28t84 -50q103 -73 151 -198.5t48 -294.5q0 -152 -36 -259t-97 -173q-40 -43 -80 -71.5t-85 -46.5t-98 -25t-114 -7h-321zM261 133h107q43 0 81 3.5t71 14.5t60 31.5t47 55.5q36 63 54.5 141t18.5 165q0 124 -20 208 t-72 147q-26 31 -50.5 49t-52.5 27.5t-61.5 13t-75.5 3.5h-107v-859z" />
<glyph unicode="E" horiz-adv-x="824" d="M70 -22v1168h674l-25 -155h-457v-325h385v-160h-385v-368h495v-160h-687z" />
<glyph unicode="F" horiz-adv-x="759" d="M71 -22v1168h651l-29 -155h-430v-325h360v-154h-360v-534h-192z" />
<glyph unicode="G" horiz-adv-x="1007" d="M72 554q0 165 44 284.5t137 201.5q126 115 314 115q191 0 342 -131l-88 -120q-90 62 -140.5 80t-110.5 18q-89 0 -155 -41t-98 -132q-43 -124 -43 -280q0 -109 20 -193.5t55 -137.5q17 -23 43.5 -43.5t59.5 -34.5t70.5 -21.5t73.5 -7.5q98 0 151 33v310h-221l-37 155h440 v-556q-74 -50 -163.5 -73.5t-180.5 -23.5q-229 0 -369 149q-75 83 -109.5 191.5t-34.5 257.5z" />
<glyph unicode="H" horiz-adv-x="945" d="M71 -22v1168h187v-470h418v470h190v-1168h-190v544h-418v-544h-187z" />
<glyph unicode="I" horiz-adv-x="370" d="M94 -22v1168h187v-1168h-187z" />
<glyph unicode="J" horiz-adv-x="369" d="M-74 -124q69 27 100.5 53.5t47.5 56.5q15 25 20.5 67t5.5 128v958h191v-955q0 -54 -2 -92.5t-6.5 -68.5t-13 -55t-22.5 -48q-60 -107 -226 -164z" />
<glyph unicode="K" horiz-adv-x="926" d="M71 -22v1168h192v-1168h-192zM210 596l449 550h239l-471 -551l465 -617h-237z" />
<glyph unicode="L" horiz-adv-x="771" d="M71 -22v1168h190v-1011h448l-25 -157h-613z" />
<glyph unicode="M" horiz-adv-x="1284" d="M63 -22l102 1168h245q210 -752 229 -844q12 79 228 844h247l100 -1168h-190l-68 845l-243 -845h-160l-239 845l-66 -845h-185z" />
<glyph unicode="N" horiz-adv-x="952" d="M72 -22v1168h203l380 -732q23 -38 41 -80l32 -75l22 -55l1 -3l-45 112q0 -117 -2 -117v6l-5 79.5t-5.5 109.5t-2.5 122l-5 633h189v-1168h-188l-367 702q-28 50 -51 100l-41 88l-6 12q-2 0 35 -89q-5 82 -5 86q0 2 1 -16q3 -44 4.5 -99t3.5 -110l6 -674h-195z" />
<glyph unicode="O" horiz-adv-x="1102" d="M72 562q0 136 32 245.5t92.5 188t150 121.5t200.5 43q79 0 140 -18.5t106.5 -47.5t79 -64t53.5 -65q55 -82 80 -185t25 -241q0 -166 -41 -277.5t-130 -193.5q-66 -62 -139 -89t-167 -27q-111 0 -196 41t-147 111q-139 159 -139 458zM277 589q0 -125 19 -226.5t50 -155.5 q15 -25 38.5 -44.5t52 -33.5t61 -22t62.5 -8q61 0 106.5 21.5t79.5 64.5q20 24 35 53.5t24 69t14 91.5t5 120q0 123 -12.5 208t-39.5 142q-28 57 -82.5 98t-142.5 41q-70 0 -128 -31t-87 -86q-28 -54 -41.5 -126t-13.5 -176z" />
<glyph unicode="P" horiz-adv-x="890" d="M71 -22v1168h339q96 0 154.5 -12.5t109.5 -44.5q154 -103 154 -286q0 -90 -24.5 -158t-83.5 -123q-63 -56 -132 -76.5t-161 -20.5h-169v-447h-187zM258 579h160q67 0 98 11.5t55 39.5q52 59 52 147q0 114 -57 163q-30 26 -73.5 37.5t-119.5 11.5h-115v-410z" />
<glyph unicode="Q" horiz-adv-x="1112" d="M60 546q0 136 32 245.5t92.5 188.5t150 122t200.5 43q71 0 130 -16t106 -43t83 -63t60 -74q55 -85 80.5 -186.5t25.5 -239.5q0 -165 -41.5 -276t-130.5 -195q-36 -33 -38 -34q-8 2 36 -22l76 -43q21 -12 56 -26.5t78 -14.5q21 0 36 2t81 36l-71 -173q-44 -22 -119 -22 q-32 0 -64.5 10t-63 23t-57.5 28.5t-47 28.5l-53 32q-22 14 -46 24t-54 19t-71 16q-110 0 -191 45.5t-135 106.5q-141 161 -141 458zM265 574q0 -126 20 -227t51 -156q30 -49 89 -78.5t125 -29.5q61 0 105.5 21t78.5 65q20 25 35 56t25 70t15 90.5t5 117.5q0 124 -13.5 209 t-40.5 142q-12 26 -32 51t-46.5 44.5t-62 31.5t-84.5 12q-69 0 -125.5 -32t-85.5 -85q-30 -54 -44.5 -126.5t-14.5 -175.5z" />
<glyph unicode="R" horiz-adv-x="890" d="M71 -22v1168h290q59 0 106 -5.5t83 -16t64.5 -25t50.5 -32.5q20 -16 42 -40t38.5 -55.5t27.5 -70.5t11 -85q0 -72 -23 -133t-65.5 -104.5t-103.5 -68t-134 -24.5h48q-2 2 26 -34l46 -59l26 -37l36 -52l42 -62l45 -65l132 -199h-233l-45 86q-24 44 -60.5 100.5 t-83.5 122.5l-103 138q-30 37 -50 48t-23 12v-507h-190zM263 613h92q70 0 112 12.5t70 37.5q23 22 36.5 62t13.5 93q0 50 -27.5 92t-66.5 58q-25 10 -55.5 15.5t-73.5 5.5h-101v-376z" />
<glyph unicode="S" horiz-adv-x="948" d="M52 68l83 149q95 -69 163 -90.5t148 -21.5q60 0 94 9t66 34q71 54 71 145q0 134 -182 189l-113 34q-80 24 -128.5 47t-84.5 61q-77 81 -77 196q0 77 28.5 139t79.5 108.5t123.5 72t160.5 25.5q189 0 374 -124l-84 -138q-67 44 -99.5 61.5t-62 28t-58.5 14.5t-63 4 q-95 0 -146 -42.5t-51 -120.5q0 -61 38 -96.5t132 -66.5l128 -40q79 -24 126.5 -51.5t85.5 -70.5q37 -43 57.5 -99t20.5 -111q0 -83 -42.5 -160t-122.5 -128q-60 -38 -123.5 -55.5t-147.5 -17.5q-105 0 -197 25.5t-197 90.5z" />
<glyph unicode="T" horiz-adv-x="877" d="M40 989v157h802l-12 -157h-303v-1011h-186v1011h-301z" />
<glyph unicode="U" horiz-adv-x="950" d="M71 313v828h189v-779q0 -42 4 -87t13 -68q8 -15 21.5 -32t35.5 -31t55 -23t82 -9q64 0 108.5 15.5t65.5 44.5q25 33 32 70.5t7 93.5v805h188v-822q0 -103 -18 -163.5t-75 -108.5q-56 -47 -131 -70t-184 -23q-139 0 -223.5 42.5t-134.5 133.5q-25 44 -30 94t-5 89z" />
<glyph unicode="V" horiz-adv-x="1010" d="M20 1146h204l242 -741q13 -38 44 -116l37 99l247 758h195l-400 -1168h-176z" />
<glyph unicode="W" horiz-adv-x="1396" d="M22 1135h214l178 -871q12 66 16.5 103t12 86.5t17.5 108t23 117.5l101 456h236q129 -649 137 -696q8 -55 27 -156q11 57 17.5 102t16 103t131.5 647h222l-273 -1137h-237l-100 459q-14 56 -23 108.5t-15.5 97t-26.5 203.5q-18 -144 -26 -188l-16 -102q-10 -56 -22 -116 l-94 -462h-247z" />
<glyph unicode="X" horiz-adv-x="968" d="M10 -22l345 625l-312 543h221l206 -381l196 381h219l-294 -533l367 -635h-224l-260 481l-246 -481h-218z" />
<glyph unicode="Y" horiz-adv-x="973" d="M10 1146h226l220 -443l22 -48l19 -40q10 -20 -8 22q-19 -43 -9 -24l18 41q11 24 24 49l224 443h215l-380 -713v-455h-195v464z" />
<glyph unicode="Z" horiz-adv-x="864" d="M51 -22v130l483 805l30 48l23 35q12 15 -7 -12q38 5 18 5h-83h-456l53 157h690v-142l-470 -792l-49 -79l1 2h-17q13 0 30 1t38 1h480l-47 -159h-717z" />
<glyph unicode="[" horiz-adv-x="551" d="M184 -341v1498h326v-142h-152v-1214h152v-142h-326z" />
<glyph unicode="\" horiz-adv-x="745" d="M40 1184l154 58l509 -1300l-153 -61z" />
<glyph unicode="]" horiz-adv-x="551" d="M40 -199h152v1214h-152v142h326v-1498h-326v142z" />
<glyph unicode="^" horiz-adv-x="1158" d="M122 541l388 754h136l388 -754h-181l-275 535l-275 -535h-181z" />
<glyph unicode="_" horiz-adv-x="875" d="M0 -152h875v-126h-875v126z" />
<glyph unicode="`" horiz-adv-x="535" d="M122 1065q0 45 17.5 91t48.5 88q27 35 66.5 66.5t105.5 67.5l72 -112q-107 -52 -114 -107q-28 -7 -14 -7q53 0 85.5 -39t32.5 -88q0 -56 -40.5 -98t-102.5 -42q-72 0 -114.5 52.5t-42.5 127.5z" />
<glyph unicode="a" horiz-adv-x="805" d="M42 204q0 149 122 232t339 83q15 0 24.5 -1t15.5 -1h-11v36q0 53 -3.5 76.5t-17.5 37.5q-16 19 -36 27.5t-51 8.5t-65.5 -8t-67.5 -21t-61 -28.5t-72 -55.5l-94 135q189 126 378 126q194 0 253 -143q13 -35 17 -83q2 -31 3 -64q0 -19 -1 -40l-7 -268v-36q1 -25 1 -45 q2 -32 8 -50.5t16 -30t51 -30.5l-92 -126q-72 22 -104.5 58t-33.5 38q-25 -26 -83.5 -54t-137.5 -28q-82 0 -139 24.5t-90.5 60.5t-47 81.5t-13.5 88.5zM241 215q0 -127 112 -127q53 0 100 30.5t71 79.5l5 189q4 0 4 -0.5t-9 0.5q-14 1 -31 1q-73 0 -122 -12t-76.5 -32.5 t-40.5 -53t-13 -75.5z" />
<glyph unicode="b" horiz-adv-x="833" d="M33 -26q25 56 30.5 99t5.5 125v803q0 39 -4 69l-7 51q-5 24 -15 63l183 36q10 -46 15 -76l7 -60q4 -36 4 -85v-190q0 -16 -0.5 -31.5t-0.5 -29.5q-2 -17 -2 33q15 14 74.5 42t131.5 28q82 0 146.5 -31.5t108.5 -89.5t67 -138t23 -177q0 -101 -23.5 -185t-69 -145 t-111.5 -96t-149 -35q-71 0 -141 34q-59 29 -64 29q-1 0 0 -1q5 39 2 19t-25 -61h-186zM251 193q26 -33 75 -58t98 -25q36 0 70.5 17t53.5 44q21 30 37 90t16 162q0 80 -9.5 128t-33.5 81q-19 27 -54.5 43t-75.5 16q-52 0 -101 -27t-76 -64v-407z" />
<glyph unicode="c" horiz-adv-x="716" d="M42 390q0 138 36.5 221.5t94.5 142.5q102 101 241 101q85 0 141 -29t117 -79l-102 -127q-63 55 -91 67t-68 12q-39 0 -73.5 -20.5t-54.5 -56.5q-44 -82 -44 -260q0 -134 45.5 -197.5t127.5 -63.5q87 0 176 107l104 -123q-73 -74 -136 -101.5t-147 -27.5q-191 0 -285 134 q-43 62 -62.5 134.5t-19.5 165.5z" />
<glyph unicode="d" horiz-adv-x="841" d="M42 399q0 272 179 394q42 31 84 44t91 13q76 0 140 -30t48 -9q4 -67 4 -45v454l183 -30v-929q0 -106 6 -165t28 -120h-191q-7 28 -12 42q-4 13 -7.5 28.5t-3.5 -36.5q3 3 -53 -21.5t-135 -24.5q-174 0 -267.5 116t-93.5 319zM239 402q0 -71 6 -121.5t25 -83.5 q25 -45 57 -63t81 -18q44 0 73 10.5t66 36.5q10 6 17.5 15.5t13.5 18.5q6 8 8 12v423q-23 32 -63.5 50.5t-106.5 18.5q-83 0 -128 -72q-27 -45 -38 -93.5t-11 -133.5z" />
<glyph unicode="e" horiz-adv-x="802" d="M42 412q0 106 24 180t79 140q105 123 267 123q150 0 244 -98q28 -30 47.5 -61.5t30.5 -72.5t16 -94.5t5 -128.5v-40h-510v2q0 -55 8 -97t27 -71q31 -47 77 -67.5t101 -20.5q104 0 207 95l75 -126q-70 -63 -146.5 -91t-161.5 -28q-185 0 -287.5 123t-102.5 333zM246 501 h316q-1 43 -9.5 83.5t-24.5 67.5q-17 26 -50 42.5t-72 16.5q-152 0 -160 -210z" />
<glyph unicode="f" horiz-adv-x="577" d="M46 697v141h79v106q0 48 9.5 83t25 61t32.5 43.5t32 28.5q65 48 163 48q118 0 214 -62l-69 -131q-49 28 -78 38.5t-56 10.5q-83 0 -83 -122v-104h236l-57 -141h-179v-719h-190v719h-79z" />
<glyph unicode="g" horiz-adv-x="871" d="M22 -97q0 25 4.5 46t17.5 60l204 18q-29 -46 -35.5 -64t-6.5 -36q0 -54 36 -77q25 -15 64.5 -24t84.5 -9q85 0 127.5 27t42.5 93q0 59 -34 82q-18 13 -51.5 18.5t-91.5 5.5h-30q-16 0 -34 -1t-35 -1h-27q-85 0 -133.5 37.5t-48.5 102.5q0 56 37.5 93.5t62.5 45.5 q-27 8 -81.5 78t-54.5 158q0 63 23.5 118t67 95.5t104.5 62t134 21.5q50 0 84 -8t59 -16l50 -15q24 -7 57 -7q27 0 48 7t69 38l111 -111q-58 -45 -94.5 -57.5t-79.5 -12.5q-16 0 -16 -5q0 -8 45 -29q-1 1 -2 1q-6 0 -6 -74q0 -73 -34.5 -137.5t-97.5 -103.5 q-35 -23 -78.5 -32t-85.5 -9q-74 -27 -99.5 -44.5t-25.5 -28.5q0 -18 38 -18h131q76 0 124.5 -10.5t89.5 -41.5q54 -35 77 -83t23 -104q0 -142 -96.5 -210.5t-255.5 -68.5q-101 0 -172.5 17.5t-118.5 48.5t-69 73t-22 91zM240 558q0 -72 32.5 -106.5t96.5 -34.5 q120 0 120 145q0 78 -28 110t-95 32q-126 0 -126 -146z" />
<glyph unicode="h" horiz-adv-x="802" d="M37 1189l183 36q10 -46 15 -76l7 -61q4 -36 5 -84v-190q0 -19 -1 -39.5t-2 -36.5q-2 -18 -2 25q9 8 83 49.5t161 41.5q83 0 149.5 -40.5t87.5 -105.5q8 -27 11 -52.5t3 -70.5v-607h-182v586q0 43 -6 68.5t-17 36.5q-13 13 -31.5 20t-43.5 7q-51 0 -108 -32.5t-102 -89.5 v-596h-184v1028q0 38 -4 69t-7 51q-5 23 -15 63z" />
<glyph unicode="i" horiz-adv-x="388" d="M68 1069q0 49 35.5 86t92.5 37q56 0 92 -36t36 -86q0 -49 -35.5 -85.5t-92.5 -36.5t-92.5 36.5t-35.5 84.5zM99 -22v853l189 44v-897h-189z" />
<glyph unicode="j" horiz-adv-x="399" d="M-23 -221q64 27 84.5 47.5t31.5 49.5t14.5 68.5t3.5 92.5v798l187 37v-846q0 -53 -5.5 -102.5t-18.5 -83.5q-25 -62 -72.5 -104t-131.5 -80zM78 1077q0 50 36.5 86t91.5 36q56 0 92 -36t36 -86q0 -49 -36 -85.5t-92 -36.5t-92 36.5t-36 85.5z" />
<glyph unicode="k" horiz-adv-x="851" d="M37 1189l183 36q10 -46 15 -76l7 -61q4 -36 5 -84v-1026h-184v1028q0 38 -4 69t-7 51q-5 23 -15 63zM190 462l330 376h230l-342 -376l414 -484h-239z" />
<glyph unicode="l" horiz-adv-x="426" d="M69 1178l183 36q11 -45 16 -76q3 -24 7 -60t4 -84v-834q0 -44 4 -52t14 -8q1 0 4 1q-1 0 28 19l43 -132q-47 -21 -65.5 -25.5t-48.5 -4.5q-74 0 -118 42q-24 22 -35 52.5t-11 77.5v865q0 39 -3.5 69.5t-6.5 50.5q-5 24 -15 63z" />
<glyph unicode="m" horiz-adv-x="1205" d="M37 820l179 43q17 -42 23 -62l11 -41q6 -22 5 25q-30 -34 -0.5 -10t64 42.5t72 30t74.5 11.5q70 0 131 -40t71 -69q28 29 104 69t146 40q106 0 169.5 -69t63.5 -174v-638h-187v625q0 98 -77 98q-46 0 -89.5 -30.5t-99.5 -82.5v-610h-185v602q0 36 -4.5 58t-14.5 36 q-19 22 -60 22q-39 0 -82.5 -23t-97.5 -72v-623h-179v654q0 44 -4.5 75t-9.5 52q-6 23 -23 61z" />
<glyph unicode="n" horiz-adv-x="789" d="M35 814l178 50q18 -43 24 -63q5 -19 10 -43t5 13q85 85 229 85q77 0 138.5 -37.5t88.5 -97.5q21 -47 21 -102v-641h-186v574q0 32 -1 53t-4 33.5t-7.5 21t-11.5 16.5q-21 25 -67 25q-20 0 -46 -8t-54.5 -22.5t-56 -34.5t-41.5 -35v-623h-181v651q0 42 -4.5 73.5 t-10.5 52.5q-6 22 -23 59z" />
<glyph unicode="o" horiz-adv-x="850" d="M42 408q0 205 99 327t276 122q113 0 186.5 -44.5t119.5 -109.5q39 -59 58.5 -135.5t19.5 -177.5q0 -105 -27.5 -186t-77.5 -137.5t-120 -85.5t-154 -29q-183 0 -281.5 124t-98.5 332zM237 429q0 -85 13.5 -154.5t34.5 -103.5q20 -32 58 -50.5t83 -18.5q53 0 91.5 27 t57.5 80q13 35 18.5 73t5.5 98q0 164 -36 238q-23 48 -64 69t-83 21q-46 0 -84.5 -20t-56.5 -54q-19 -36 -28.5 -84.5t-9.5 -120.5z" />
<glyph unicode="p" horiz-adv-x="835" d="M41 826l185 33q7 -35 8 -53q2 -15 3.5 -40.5t1.5 14.5q60 69 213 69q70 0 134.5 -29t107.5 -83q49 -61 71.5 -141t22.5 -192q0 -100 -16 -166.5t-51 -123.5q-48 -77 -118 -119.5t-161 -42.5q-68 0 -134 28q-56 24 -62 24q-1 0 0 -1v-341l-184 -34v1006q0 46 -3 78.5 t-6 52.5zM246 193q80 -91 172 -91q48 0 87.5 23.5t58.5 63.5q17 37 24.5 84t7.5 115q0 73 -9.5 132.5t-26.5 94.5q-16 36 -49.5 55.5t-74.5 19.5q-108 0 -190 -98v-399z" />
<glyph unicode="q" horiz-adv-x="839" d="M42 370q0 123 18.5 201t62.5 136q49 67 117 104.5t151 37.5q75 0 137 -30.5t66 -35.5q0 -61 1.5 -48.5t4 26.5t5.5 27.5t16 36.5h179q-14 -49 -20 -79q-5 -27 -8.5 -65t-3.5 -88v-928l-179 -38v381q-49 -57 -201 -57q-63 0 -112.5 17.5t-94.5 54.5q-65 53 -102 136.5 t-37 210.5zM234 400q0 -66 6.5 -110t16 -72t22 -45t26.5 -30q21 -20 46.5 -29.5t67.5 -9.5q52 0 97 28.5t73 79.5v379q-27 43 -78.5 71.5t-101.5 28.5q-43 0 -80.5 -22.5t-58.5 -63.5q-9 -19 -16.5 -39t-12 -43.5t-6 -52.5t-1.5 -70z" />
<glyph unicode="r" horiz-adv-x="519" d="M32 817l180 48q18 -41 25 -65l9 -44q5 -24 10 44q-2 -3 -2 -4.5t2 -1.5q8 0 55 28q68 40 139 40q12 0 20.5 -2t16.5 -3q8 -2 43 -10l-72 -186q-39 17 -52 17q-64 0 -117 -53q-22 -22 -30 -44t-8 -70v-533h-184v651q0 43 -5 75t-10 52q-6 24 -20 61z" />
<glyph unicode="s" horiz-adv-x="746" d="M32 44l71 137q147 -90 271 -90q63 0 100 31t37 88q0 49 -25.5 74.5t-87.5 38.5l-101 22q-112 23 -170 88t-58 157q0 60 23 110t65.5 85.5t101 56.5t128.5 21q68 0 139 -19t144 -61l-67 -136q-81 40 -126 55t-93 15q-59 0 -92.5 -29.5t-33.5 -82.5q0 -41 20 -63.5 t77 -33.5l108 -23q239 -50 239 -249q0 -63 -24 -115.5t-69 -91t-107 -60t-136 -21.5q-84 0 -167.5 23.5t-166.5 72.5z" />
<glyph unicode="t" horiz-adv-x="585" d="M41 691v140h106q0 8 2 43.5t5 68.5q3 37 13 102l185 27q-15 -92 -18 -125.5t-4.5 -65t-1.5 -50.5h221l-57 -140h-162v-504q0 -63 15.5 -81t61.5 -18q23 0 37 3t64 25l28 -126q-85 -44 -175 -44q-37 0 -66 6.5t-56 20.5q-50 24 -71 68.5t-21 110.5v539h-106z" />
<glyph unicode="u" horiz-adv-x="793" d="M41 201v617l182 35v-614q0 -55 9 -80.5t30 -40.5q16 -11 37.5 -17t44.5 -6q51 0 101.5 36t78.5 94v592l182 30v-621q0 -74 11.5 -109t52.5 -72l-115 -121q-67 54 -88.5 85t-18.5 15q-62 -82 -243 -82q-88 0 -149.5 35t-91.5 95q-12 26 -17.5 59t-5.5 70z" />
<glyph unicode="v" horiz-adv-x="839" d="M20 822l185 40l198 -584l15 -51q8 -25 13 -45q7 -23 8 -26h-45q0 2 7 23q4 18 11.5 44t17.5 55l193 558h195l-324 -868h-168z" />
<glyph unicode="w" horiz-adv-x="1182" d="M20 824l183 40l137 -563l12 -54q6 -26 9 -44q5 -21 4 -20h-42q-1 -2 3 18l9 37q5 22 11 45l151 553h185l148 -561q3 -17 9 -37l11 -38q7 -22 8 -26h-44q1 5 6 26q3 18 7 37t7 32l135 567h192l-244 -866h-170l-167 590q-8 21 -11 37.5t-7 29.5q-3 15 0 6h42q1 3 -2 -13 l-6 -28q-3 -14 -6 -25l-169 -597h-165z" />
<glyph unicode="x" horiz-adv-x="827" d="M-10 -22l320 474l-269 386h223l144 -242l139 242h213l-256 -386l328 -474h-220l-204 320l-204 -320h-214z" />
<glyph unicode="y" horiz-adv-x="812" d="M20 807l178 60l176 -555l17 -66q9 -35 18 -66q8 -37 11 -54h-42l12 44q8 26 16 55.5t16 55.5l166 553h204l-289 -872q-20 -63 -44 -114.5t-58 -93.5t-78 -70.5t-128 -49.5l-56 126q61 19 85 34.5t43 40.5t35.5 66t24.5 70l-41 -7q-6 43 -16 79l-22 78q-11 42 -24 84 l-23 73z" />
<glyph unicode="z" horiz-adv-x="737" d="M31 -22v126l424 588h-390v146h600v-132l-405 -586h449l-89 -142h-589z" />
<glyph unicode="{" horiz-adv-x="606" d="M81 337v142q46 0 65.5 10t36 30.5t28 52t11.5 70.5v289q0 52 18 94t45.5 71.5t63.5 45t73 15.5h143v-142h-117q-16 0 -24.5 -6t-15.5 -21t-9.5 -36t-2.5 -44v-289q0 -58 -18 -100t-44 -70t-53.5 -42t-25.5 -14v33q-5 1 24 -12.5t55 -40.5t44 -70.5t18 -107.5v-286 q0 -24 2.5 -45t9.5 -35t16 -21t24 -7h117v-142h-143q-38 0 -74.5 16t-64 46t-44.5 71.5t-17 93.5v286q0 41 -11.5 72.5t-28 52.5t-36 30.5t-65.5 9.5z" />
<glyph unicode="|" horiz-adv-x="532" d="M184 -447v1622h164v-1622h-164z" />
<glyph unicode="}" horiz-adv-x="606" d="M40 -199h116q16 0 25 7t15.5 21t9.5 35.5t3 44.5v286q0 64 18 107.5t43.5 70.5t55 40.5t24.5 12.5v-33q2 0 -26 14t-53.5 42t-43.5 70t-18 100v289q0 23 -3 44t-9.5 36t-15 21t-25.5 6h-116v142h143q36 0 72.5 -15.5t64 -45t45.5 -71.5t18 -94v-289q0 -39 11 -70.5 t28 -52t36 -30.5t66 -10v-142q-47 0 -66 -9.5t-36 -30.5t-28 -52.5t-11 -72.5v-286q0 -52 -17 -93.5t-45 -71.5t-64 -46t-74 -16h-143v142z" />
<glyph unicode="~" horiz-adv-x="1103" d="M52 468l57 76q26 33 58 61t75.5 46.5t97.5 18.5q65 0 125 -23t114.5 -49.5t105 -47t99.5 -20.5q53 0 88 39.5t81 134.5l105 -150l-58 -77q-26 -33 -59 -61t-76 -46.5t-97 -18.5q-65 0 -124 23t-115 50t-106.5 47t-98.5 20q-54 0 -88.5 -39.5t-78.5 -136.5z" />
<glyph horiz-adv-x="712" d="M12 773q212 112 381 32q42 11 66 35.5t33 101.5l130 -21q-5 -91 -26.5 -140.5t-54.5 -66.5q35 -27 57 -64t35 -81t13 -96v-490h-172q-56 214 -117 296.5t-157 60.5l-18 124q98 47 194 -22.5t104 -88.5v129q-3 117 -119 183.5t-322 -30.5z" />
<glyph unicode="&#xf700;" horiz-adv-x="712" d="M12 773q212 112 381 32q42 11 66 35.5t33 101.5l130 -21q-5 -91 -26.5 -140.5t-54.5 -66.5q35 -27 57 -64t35 -81t13 -96v-490h-172q-56 214 -117 296.5t-157 60.5l-18 124q98 47 194 -22.5t104 -88.5v129q-3 117 -119 183.5t-322 -30.5z" />
<glyph unicode="&#x20ac;" horiz-adv-x="712" d="M12 773q212 112 381 32q42 11 66 35.5t33 101.5l130 -21q-5 -91 -26.5 -140.5t-54.5 -66.5q35 -27 57 -64t35 -81t13 -96v-490h-172q-56 214 -117 296.5t-157 60.5l-18 124q98 47 194 -22.5t104 -88.5v129q-3 117 -119 183.5t-322 -30.5z" />
<glyph horiz-adv-x="64" d="M-723 1030q95 61 153 79t108 18q52 0 132 -37q68 -43 173 -49q-108 -123 -141 -123q-30 0 -60 22q-61 49 -134.5 55t-205.5 -67z" />
<glyph unicode="&#xf701;" horiz-adv-x="64" d="M-723 1030q95 61 153 79t108 18q52 0 132 -37q68 -43 173 -49q-108 -123 -141 -123q-30 0 -60 22q-61 49 -134.5 55t-205.5 -67z" />
<glyph horiz-adv-x="47" d="M-723 1030q106 61 164 79t108 18q49 0 90.5 -11.5t52.5 -21.5q-2 -4 -2 107l126 15v-298h-103q-31 0 -61 22q-60 49 -134 55t-216 -66z" />
<glyph unicode="&#xf702;" horiz-adv-x="47" d="M-723 1030q106 61 164 79t108 18q49 0 90.5 -11.5t52.5 -21.5q-2 -4 -2 107l126 15v-298h-103q-31 0 -61 22q-60 49 -134 55t-216 -66z" />
<glyph unicode="&#x201a;" horiz-adv-x="47" d="M-723 1030q106 61 164 79t108 18q49 0 90.5 -11.5t52.5 -21.5q-2 -4 -2 107l126 15v-298h-103q-31 0 -61 22q-60 49 -134 55t-216 -66z" />
<glyph horiz-adv-x="46" d="M-724 1029q84 61 137.5 79.5t103.5 18.5q43 0 112 -37q50 -32 66 -1q19 55 -9 60.5t-14 -97.5l-95 49q-38 155 120 155q108 -12 115 -128v-18q-1 -61 -29.5 -102t-57.5 -58t-58 -17q-31 1 -74 26q-61 39 -119.5 41t-171.5 -75z" />
<glyph unicode="&#xf703;" horiz-adv-x="46" d="M-724 1029q84 61 137.5 79.5t103.5 18.5q43 0 112 -37q50 -32 66 -1q19 55 -9 60.5t-14 -97.5l-95 49q-38 155 120 155q108 -12 115 -128v-18q-1 -61 -29.5 -102t-57.5 -58t-58 -17q-31 1 -74 26q-61 39 -119.5 41t-171.5 -75z" />
<glyph unicode="&#x192;" horiz-adv-x="46" d="M-724 1029q84 61 137.5 79.5t103.5 18.5q43 0 112 -37q50 -32 66 -1q19 55 -9 60.5t-14 -97.5l-95 49q-38 155 120 155q108 -12 115 -128v-18q-1 -61 -29.5 -102t-57.5 -58t-58 -17q-31 1 -74 26q-61 39 -119.5 41t-171.5 -75z" />
<glyph horiz-adv-x="47" d="M-723 1030q95 60 143 78.5t118 18.5h32l9 87l113 4v-123q16 -6 0 6l9 111l114 6v-300h-103q-30 0 -60 22q-61 49 -139.5 55t-210.5 -67z" />
<glyph unicode="&#xf704;" horiz-adv-x="47" d="M-723 1030q95 60 143 78.5t118 18.5h32l9 87l113 4v-123q16 -6 0 6l9 111l114 6v-300h-103q-30 0 -60 22q-61 49 -139.5 55t-210.5 -67z" />
<glyph unicode="&#x201e;" horiz-adv-x="47" d="M-723 1030q95 60 143 78.5t118 18.5h32l9 87l113 4v-123q16 -6 0 6l9 111l114 6v-300h-103q-30 0 -60 22q-61 49 -139.5 55t-210.5 -67z" />
<glyph unicode="&#x85;" horiz-adv-x="795" d="M69 36q0 13 7 26.5t22.5 22t31.5 8.5q17 0 32 -8.5t22.5 -22t7.5 -26.5t-7 -26.5t-23 -21.5t-32 -8q-15 0 -31 8t-23 21.5t-7 26.5zM350 36q0 13 7.5 26.5t22.5 22t32 8.5t32 -8.5t22.5 -22t7.5 -26.5t-7 -26.5t-23 -21.5t-32 -8q-17 0 -31.5 8t-22.5 21.5t-8 26.5z M632 36q0 13 7.5 26.5t22.5 22t31 8.5q18 0 32.5 -8.5t22 -22t7.5 -26.5t-7 -26.5t-22 -21.5t-33 -8q-16 0 -30.5 8t-22.5 21.5t-8 26.5z" />
<glyph unicode="&#x2026;" horiz-adv-x="795" d="M69 36q0 13 7 26.5t22.5 22t31.5 8.5q17 0 32 -8.5t22.5 -22t7.5 -26.5t-7 -26.5t-23 -21.5t-32 -8q-15 0 -31 8t-23 21.5t-7 26.5zM350 36q0 13 7.5 26.5t22.5 22t32 8.5t32 -8.5t22.5 -22t7.5 -26.5t-7 -26.5t-23 -21.5t-32 -8q-17 0 -31.5 8t-22.5 21.5t-8 26.5z M632 36q0 13 7.5 26.5t22.5 22t31 8.5q18 0 32.5 -8.5t22 -22t7.5 -26.5t-7 -26.5t-22 -21.5t-33 -8q-16 0 -30.5 8t-22.5 21.5t-8 26.5z" />
<glyph horiz-adv-x="48" d="M-357 906v157q2 106 33 174l142 -41q-22 -75 -22 -131v-159h-153z" />
<glyph unicode="&#xf705;" horiz-adv-x="48" d="M-357 906v157q2 106 33 174l142 -41q-22 -75 -22 -131v-159h-153z" />
<glyph unicode="&#x2020;" horiz-adv-x="48" d="M-357 906v157q2 106 33 174l142 -41q-22 -75 -22 -131v-159h-153z" />
<glyph horiz-adv-x="52" d="M-506 1068l23 114l100 5q78 -7 82.5 -65.5t-4.5 -71.5q-2 0 55 56t181 79l24 -97q-81 -17 -138 -85t-159 -92q-46 -11 -135 -14l-20 90l42 53q17 31 -51 28z" />
<glyph unicode="&#xf706;" horiz-adv-x="52" d="M-506 1068l23 114l100 5q78 -7 82.5 -65.5t-4.5 -71.5q-2 0 55 56t181 79l24 -97q-81 -17 -138 -85t-159 -92q-46 -11 -135 -14l-20 90l42 53q17 31 -51 28z" />
<glyph unicode="&#x2021;" horiz-adv-x="52" d="M-506 1068l23 114l100 5q78 -7 82.5 -65.5t-4.5 -71.5q-2 0 55 56t181 79l24 -97q-81 -17 -138 -85t-159 -92q-46 -11 -135 -14l-20 90l42 53q17 31 -51 28z" />
<glyph d="M-656 1027q0 64 37 109.5t103.5 46t78.5 -25.5q14 25 84 25.5t88 -55.5q2 3 37 180l113 -33q-31 -256 -167 -392l-113 41q46 117 30 118.5t-30 -62.5h-86q-19 64 -34 61.5t30 -118.5l-124 -39q-47 100 -47 144z" />
<glyph unicode="&#xf707;" d="M-656 1027q0 64 37 109.5t103.5 46t78.5 -25.5q14 25 84 25.5t88 -55.5q2 3 37 180l113 -33q-31 -256 -167 -392l-113 41q46 117 30 118.5t-30 -62.5h-86q-19 64 -34 61.5t30 -118.5l-124 -39q-47 100 -47 144z" />
<glyph unicode="&#x2c6;" d="M-656 1027q0 64 37 109.5t103.5 46t78.5 -25.5q14 25 84 25.5t88 -55.5q2 3 37 180l113 -33q-31 -256 -167 -392l-113 41q46 117 30 118.5t-30 -62.5h-86q-19 64 -34 61.5t30 -118.5l-124 -39q-47 100 -47 144z" />
<glyph d="M-517 1012v137h97q4 55 30 129l138 -43q-18 -61 -19 -86h93v-137h-96v-106h-148v106h-95z" />
<glyph unicode="&#xf708;" d="M-517 1012v137h97q4 55 30 129l138 -43q-18 -61 -19 -86h93v-137h-96v-106h-148v106h-95z" />
<glyph unicode="&#x2030;" d="M-517 1012v137h97q4 55 30 129l138 -43q-18 -61 -19 -86h93v-137h-96v-106h-148v106h-95z" />
<glyph horiz-adv-x="46" d="M-500 1018q0 45 40.5 90t162.5 86.5t142 151.5l105 -37q-24 -117 -70 -159.5t-108.5 -69t-87 -48t20.5 -66.5l-138 -87q-67 77 -67 139z" />
<glyph unicode="&#xf709;" horiz-adv-x="46" d="M-500 1018q0 45 40.5 90t162.5 86.5t142 151.5l105 -37q-24 -117 -70 -159.5t-108.5 -69t-87 -48t20.5 -66.5l-138 -87q-67 77 -67 139z" />
<glyph unicode="&#x160;" horiz-adv-x="46" d="M-500 1018q0 45 40.5 90t162.5 86.5t142 151.5l105 -37q-24 -117 -70 -159.5t-108.5 -69t-87 -48t20.5 -66.5l-138 -87q-67 77 -67 139z" />
<glyph horiz-adv-x="48" d="M-187 936v157q2 106 33 173l152 -40q-22 -75 -22 -131v-159h-163z" />
<glyph unicode="&#xf70a;" horiz-adv-x="48" d="M-187 936v157q2 106 33 173l152 -40q-22 -75 -22 -131v-159h-163z" />
<glyph unicode="&#x2039;" horiz-adv-x="48" d="M-187 936v157q2 106 33 173l152 -40q-22 -75 -22 -131v-159h-163z" />
<glyph horiz-adv-x="47" d="M-378 958l2 67l53 53q34 30 -41 52l46 104l100 -18q72 -23 63.5 -80.5t-35.5 -81.5q-8 4 45.5 30t137.5 73t189 -22l-20 -76q-69 29 -117 -4l-106 -75q-52 -30 -93 -41t-90 -11q-50 0 -134 30z" />
<glyph unicode="&#xf70b;" horiz-adv-x="47" d="M-378 958l2 67l53 53q34 30 -41 52l46 104l100 -18q72 -23 63.5 -80.5t-35.5 -81.5q-8 4 45.5 30t137.5 73t189 -22l-20 -76q-69 29 -117 -4l-106 -75q-52 -30 -93 -41t-90 -11q-50 0 -134 30z" />
<glyph unicode="&#x152;" horiz-adv-x="47" d="M-378 958l2 67l53 53q34 30 -41 52l46 104l100 -18q72 -23 63.5 -80.5t-35.5 -81.5q-8 4 45.5 30t137.5 73t189 -22l-20 -76q-69 29 -117 -4l-106 -75q-52 -30 -93 -41t-90 -11q-50 0 -134 30z" />
<glyph d="M-436 1057q0 64 42.5 109.5t113.5 46t83 -25.5q14 25 88 25.5t103 -63.5q13 12 47 188l113 -33q-31 -257 -176 -391l-123 39q46 119 33.5 120t-35.5 -63h-104q-19 64 -34 61.5t30 -118.5l-135 -39q-46 100 -46 144z" />
<glyph unicode="&#xf70c;" d="M-436 1057q0 64 42.5 109.5t113.5 46t83 -25.5q14 25 88 25.5t103 -63.5q13 12 47 188l113 -33q-31 -257 -176 -391l-123 39q46 119 33.5 120t-35.5 -63h-104q-19 64 -34 61.5t30 -118.5l-135 -39q-46 100 -46 144z" />
<glyph d="M-277 1032v147h97q4 55 30 128l148 -41q-18 -62 -19 -87h93v-147h-96v-96h-158v96h-95z" />
<glyph unicode="&#xf70d;" d="M-277 1032v147h97q4 55 30 128l148 -41q-18 -62 -19 -87h93v-147h-96v-96h-158v96h-95z" />
<glyph unicode="&#x17d;" d="M-277 1032v147h97q4 55 30 128l148 -41q-18 -62 -19 -87h93v-147h-96v-96h-158v96h-95z" />
<glyph horiz-adv-x="46" d="M-250 1048q0 45 40.5 90t162.5 86.5t141 151.5l105 -37q-23 -117 -69 -159.5t-108.5 -69t-87 -48t20.5 -66.5l-138 -87q-67 77 -67 139z" />
<glyph unicode="&#xf70e;" horiz-adv-x="46" d="M-250 1048q0 45 40.5 90t162.5 86.5t141 151.5l105 -37q-23 -117 -69 -159.5t-108.5 -69t-87 -48t20.5 -66.5l-138 -87q-67 77 -67 139z" />
<glyph horiz-adv-x="1316" d="M23 675q60 57 106 87.5t116.5 58t206.5 27.5q135 -8 191 -45t82.5 -89.5t29 -93.5t2.5 -85v-251q-2 -186 157.5 -190t163.5 167v571h175v-556q-3 -192 -141 -272q-74 -36 -125 -36h-101q-49 0 -137 32q-168 75 -167 308v259q2 70 -36 105t-105 40h-49q-78 -8 -145 -66 v-450q0 -75 43 -155l-158 -80q-55 97 -57 207v304q0 52 6 69q18 14 -42 12z" />
<glyph unicode="&#xf70f;" horiz-adv-x="1316" d="M23 675q60 57 106 87.5t116.5 58t206.5 27.5q135 -8 191 -45t82.5 -89.5t29 -93.5t2.5 -85v-251q-2 -186 157.5 -190t163.5 167v571h175v-556q-3 -192 -141 -272q-74 -36 -125 -36h-101q-49 0 -137 32q-168 75 -167 308v259q2 70 -36 105t-105 40h-49q-78 -8 -145 -66 v-450q0 -75 43 -155l-158 -80q-55 97 -57 207v304q0 52 6 69q18 14 -42 12z" />
<glyph horiz-adv-x="357" d="M19 747q0 40 16 81.5t43 79.5q25 31 60.5 59.5t91.5 59.5l62 -96q-95 -47 -103 -103q-20 -5 -8 -5q46 0 74.5 -34t28.5 -78q0 -49 -36 -86.5t-89 -37.5q-65 0 -102.5 46.5t-37.5 113.5z" />
<glyph unicode="&#x2018;" horiz-adv-x="357" d="M19 747q0 40 16 81.5t43 79.5q25 31 60.5 59.5t91.5 59.5l62 -96q-95 -47 -103 -103q-20 -5 -8 -5q46 0 74.5 -34t28.5 -78q0 -49 -36 -86.5t-89 -37.5q-65 0 -102.5 46.5t-37.5 113.5z" />
<glyph horiz-adv-x="357" d="M59 675q96 47 103 103q21 5 8 5q-45 0 -74 34t-29 78q0 49 36.5 86.5t88.5 37.5q65 0 102.5 -46.5t37.5 -113.5q0 -40 -15.5 -81.5t-43.5 -79.5q-24 -31 -59.5 -59.5t-92.5 -59.5z" />
<glyph unicode="&#x2019;" horiz-adv-x="357" d="M59 675q96 47 103 103q21 5 8 5q-45 0 -74 34t-29 78q0 49 36.5 86.5t88.5 37.5q65 0 102.5 -46.5t37.5 -113.5q0 -40 -15.5 -81.5t-43.5 -79.5q-24 -31 -59.5 -59.5t-92.5 -59.5z" />
<glyph horiz-adv-x="637" d="M61 436q0 103 72 175q76 77 184 77q107 0 182 -77q76 -70 76 -175q0 -102 -79 -177q-78 -74 -185 -74q-106 0 -179 74q-71 71 -71 177z" />
<glyph unicode="&#x2022;" horiz-adv-x="637" d="M61 436q0 103 72 175q76 77 184 77q107 0 182 -77q76 -70 76 -175q0 -102 -79 -177q-78 -74 -185 -74q-106 0 -179 74q-71 71 -71 177z" />
<glyph horiz-adv-x="614" d="M21 307v132h573v-132h-573z" />
<glyph unicode="&#x2013;" horiz-adv-x="614" d="M21 307v132h573v-132h-573z" />
<glyph horiz-adv-x="821" d="M21 287v132h774v-132h-774z" />
<glyph unicode="&#x2014;" horiz-adv-x="821" d="M21 287v132h774v-132h-774z" />
<glyph horiz-adv-x="50" d="M-505 1093l148 76q16 -87 56 -123q63 -50 344 76l40 -110q-183 -115 -359 -115q-144 0 -190 100q-22 39 -39 96z" />
<glyph unicode="&#xf710;" horiz-adv-x="50" d="M-505 1093l148 76q16 -87 56 -123q63 -50 344 76l40 -110q-183 -115 -359 -115q-144 0 -190 100q-22 39 -39 96z" />
<glyph unicode="&#x2dc;" horiz-adv-x="50" d="M-505 1093l148 76q16 -87 56 -123q63 -50 344 76l40 -110q-183 -115 -359 -115q-144 0 -190 100q-22 39 -39 96z" />
<glyph d="M-551 1002q0 37 11.5 61.5t36.5 49.5q24 24 57 38q32 13 74 13q43 0 75 -13q32 -14 56 -38q25 -25 35.5 -49.5t10.5 -61.5q0 -36 -11 -62t-37 -51q-23 -22 -55 -36q-29 -12 -74 -12q-44 0 -76 13q-30 13 -53 35q-26 25 -38 51t-12 62zM-409 1005q0 -25 9.5 -36.5 t27.5 -11.5t27 11.5t9 36.5t-10 32.5t-26 8.5q-16 -1 -26.5 -8.5t-10.5 -32.5z" />
<glyph unicode="&#xf711;" d="M-551 1002q0 37 11.5 61.5t36.5 49.5q24 24 57 38q32 13 74 13q43 0 75 -13q32 -14 56 -38q25 -25 35.5 -49.5t10.5 -61.5q0 -36 -11 -62t-37 -51q-23 -22 -55 -36q-29 -12 -74 -12q-44 0 -76 13q-30 13 -53 35q-26 25 -38 51t-12 62zM-409 1005q0 -25 9.5 -36.5 t27.5 -11.5t27 11.5t9 36.5t-10 32.5t-26 8.5q-16 -1 -26.5 -8.5t-10.5 -32.5z" />
<glyph unicode="&#x2122;" d="M-551 1002q0 37 11.5 61.5t36.5 49.5q24 24 57 38q32 13 74 13q43 0 75 -13q32 -14 56 -38q25 -25 35.5 -49.5t10.5 -61.5q0 -36 -11 -62t-37 -51q-23 -22 -55 -36q-29 -12 -74 -12q-44 0 -76 13q-30 13 -53 35q-26 25 -38 51t-12 62zM-409 1005q0 -25 9.5 -36.5 t27.5 -11.5t27 11.5t9 36.5t-10 32.5t-26 8.5q-16 -1 -26.5 -8.5t-10.5 -32.5z" />
<glyph horiz-adv-x="44" d="M-676 1103q0 62 55 118.5t127 69.5t153 -2.5t106.5 1.5t-26.5 67l81 74q83 -64 86 -131q-2 -60 -32.5 -93t-104.5 -41t-154.5 4.5t-115 -13.5t-34.5 -62q0 -30 15 -37t42 45h84q10 -44 22.5 -53t27 -4t-12.5 70l105 44q73 -82 51 -161t-145 -80q-81 0 -94 22 q-14 -22 -87 -22q-62 0 -105.5 56.5t-43.5 127.5z" />
<glyph unicode="&#xf712;" horiz-adv-x="44" d="M-676 1103q0 62 55 118.5t127 69.5t153 -2.5t106.5 1.5t-26.5 67l81 74q83 -64 86 -131q-2 -60 -32.5 -93t-104.5 -41t-154.5 4.5t-115 -13.5t-34.5 -62q0 -30 15 -37t42 45h84q10 -44 22.5 -53t27 -4t-12.5 70l105 44q73 -82 51 -161t-145 -80q-81 0 -94 22 q-14 -22 -87 -22q-62 0 -105.5 56.5t-43.5 127.5z" />
<glyph unicode="&#x161;" horiz-adv-x="44" d="M-676 1103q0 62 55 118.5t127 69.5t153 -2.5t106.5 1.5t-26.5 67l81 74q83 -64 86 -131q-2 -60 -32.5 -93t-104.5 -41t-154.5 4.5t-115 -13.5t-34.5 -62q0 -30 15 -37t42 45h84q10 -44 22.5 -53t27 -4t-12.5 70l105 44q73 -82 51 -161t-145 -80q-81 0 -94 22 q-14 -22 -87 -22q-62 0 -105.5 56.5t-43.5 127.5z" />
<glyph horiz-adv-x="46" d="M-357 1176v117q2 94 19 175l144 -42q-10 -74 -10 -131v-119h-153z" />
<glyph unicode="&#xf713;" horiz-adv-x="46" d="M-357 1176v117q2 94 19 175l144 -42q-10 -74 -10 -131v-119h-153z" />
<glyph unicode="&#x203a;" horiz-adv-x="46" d="M-357 1176v117q2 94 19 175l144 -42q-10 -74 -10 -131v-119h-153z" />
<glyph horiz-adv-x="52" d="M-486 1345l23 114l100 5q78 -7 82.5 -65.5t-4.5 -71.5q-2 0 55 56t181 79l24 -97q-81 -17 -138 -85t-159 -92q-46 -11 -135 -14l-20 90l42 53q17 31 -51 28z" />
<glyph unicode="&#xf714;" horiz-adv-x="52" d="M-486 1345l23 114l100 5q78 -7 82.5 -65.5t-4.5 -71.5q-2 0 55 56t181 79l24 -97q-81 -17 -138 -85t-159 -92q-46 -11 -135 -14l-20 90l42 53q17 31 -51 28z" />
<glyph unicode="&#x153;" horiz-adv-x="52" d="M-486 1345l23 114l100 5q78 -7 82.5 -65.5t-4.5 -71.5q-2 0 55 56t181 79l24 -97q-81 -17 -138 -85t-159 -92q-46 -11 -135 -14l-20 90l42 53q17 31 -51 28z" />
<glyph d="M-536 1300q0 63 31.5 109t98.5 46.5t79 -25.5q14 25 80.5 25.5t82.5 -54.5q1 2 25 147l104 -19q-21 -248 -137 -364l-113 41q45 107 29.5 108.5t-29.5 -62.5h-86q-19 64 -33.5 61.5t29.5 -107.5l-113 -41q-48 91 -48 135z" />
<glyph unicode="&#xf715;" d="M-536 1300q0 63 31.5 109t98.5 46.5t79 -25.5q14 25 80.5 25.5t82.5 -54.5q1 2 25 147l104 -19q-21 -248 -137 -364l-113 41q45 107 29.5 108.5t-29.5 -62.5h-86q-19 64 -33.5 61.5t29.5 -107.5l-113 -41q-48 91 -48 135z" />
<glyph d="M-457 1282v137h97q4 55 30 129l138 -43q-18 -61 -19 -86h93v-137h-96v-106h-148v106h-95z" />
<glyph unicode="&#xf716;" d="M-457 1282v137h97q4 55 30 129l138 -43q-18 -61 -19 -86h93v-137h-96v-106h-148v106h-95z" />
<glyph unicode="&#x17e;" d="M-457 1282v137h97q4 55 30 129l138 -43q-18 -61 -19 -86h93v-137h-96v-106h-148v106h-95z" />
<glyph horiz-adv-x="46" d="M-400 1278q0 45 41 90.5t158.5 67.5t148.5 122l81 -41q-24 -96 -75.5 -139t-104.5 -54t-77 -29t9 -69l-88 -76q-93 63 -93 128z" />
<glyph unicode="&#xf717;" horiz-adv-x="46" d="M-400 1278q0 45 41 90.5t158.5 67.5t148.5 122l81 -41q-24 -96 -75.5 -139t-104.5 -54t-77 -29t9 -69l-88 -76q-93 63 -93 128z" />
<glyph unicode="&#x178;" horiz-adv-x="46" d="M-400 1278q0 45 41 90.5t158.5 67.5t148.5 122l81 -41q-24 -96 -75.5 -139t-104.5 -54t-77 -29t9 -69l-88 -76q-93 63 -93 128z" />
<glyph unicode="&#xe00;" horiz-adv-x="668" />
<glyph unicode="&#xa1;" horiz-adv-x="854" d="M47 675q60 57 106 87.5t116.5 58t206.5 27.5q135 -8 191 -45t82.5 -89.5t29 -93.5t2.5 -85v-552h-175v584q2 70 -36 105t-105 40h-49q-77 -8 -143 -66v-663h-174v489q0 52 6 69q18 14 -42 12z" />
<glyph unicode="&#xe01;" horiz-adv-x="854" d="M47 675q60 57 106 87.5t116.5 58t206.5 27.5q135 -8 191 -45t82.5 -89.5t29 -93.5t2.5 -85v-552h-175v584q2 70 -36 105t-105 40h-49q-77 -8 -143 -66v-663h-174v489q0 52 6 69q18 14 -42 12z" />
<glyph unicode="&#xa2;" horiz-adv-x="720" d="M71 316v241q81 50 87 145q-3 47 -29 105l156 39q46 -110 33.5 -190.5t-70.5 -160.5v-184q0 -85 32.5 -139t80.5 -52t82.5 54t34.5 137v521h176v-536q0 -64 -32.5 -143t-105 -128.5t-168.5 -49.5q-98 0 -161 52.5t-89.5 128.5t-26.5 160z" />
<glyph unicode="&#xe02;" horiz-adv-x="720" d="M71 316v241q81 50 87 145q-3 47 -29 105l156 39q46 -110 33.5 -190.5t-70.5 -160.5v-184q0 -85 32.5 -139t80.5 -52t82.5 54t34.5 137v521h176v-536q0 -64 -32.5 -143t-105 -128.5t-168.5 -49.5q-98 0 -161 52.5t-89.5 128.5t-26.5 160z" />
<glyph unicode="&#xa3;" horiz-adv-x="774" d="M3 750q48 61 110 90l58 -1q24 -48 38 -48t41 51q119 0 159.5 -57.5t22.5 -154.5t-127 -197v-122q0 -94 40 -143q36 -45 75.5 -45t77.5 47t38 141v521h166v-536q0 -75 -32.5 -149t-104.5 -122q-65 -44 -144 -44q-80 0 -145 44q-72 48 -104.5 122t-32.5 149v226 q95 21 127 94q18 69 17 69q-46 -37 -84 -36.5t-56 18.5l-54 -57z" />
<glyph unicode="&#xe03;" horiz-adv-x="774" d="M3 750q48 61 110 90l58 -1q24 -48 38 -48t41 51q119 0 159.5 -57.5t22.5 -154.5t-127 -197v-122q0 -94 40 -143q36 -45 75.5 -45t77.5 47t38 141v521h166v-536q0 -75 -32.5 -149t-104.5 -122q-65 -44 -144 -44q-80 0 -145 44q-72 48 -104.5 122t-32.5 149v226 q95 21 127 94q18 69 17 69q-46 -37 -84 -36.5t-56 18.5l-54 -57z" />
<glyph unicode="&#xa4;" horiz-adv-x="810" d="M70 -17v520q0 61 13 116t52 106.5t94 79.5q64 38 178 38t178 -38q55 -28 94 -79.5t52.5 -106.5t13.5 -116v-520h-177v569q-3 132 -119 148q-39 5 -84 0q-118 -16 -121 -148v-93q-10 -14 73 25q117 39 198 -54l-50 -111q-85 58 -130.5 17t-90.5 -136v-217h-174z" />
<glyph unicode="&#xe04;" horiz-adv-x="810" d="M70 -17v520q0 61 13 116t52 106.5t94 79.5q64 38 178 38t178 -38q55 -28 94 -79.5t52.5 -106.5t13.5 -116v-520h-177v569q-3 132 -119 148q-39 5 -84 0q-118 -16 -121 -148v-93q-10 -14 73 25q117 39 198 -54l-50 -111q-85 58 -130.5 17t-90.5 -136v-217h-174z" />
<glyph unicode="&#xa5;" horiz-adv-x="811" d="M70 -17v480q0 51 7.5 125.5t52 131.5t98.5 85q33 20 113 31q32 -50 53.5 -50t49.5 53q106 -13 141 -34q55 -28 98 -79q42 -53 54 -139q8 -73 8 -124v-480h-175v569q-3 117 -68 138q-27 -42 -103 -46q-65 4 -104 45q-46 -18 -49 -137v-88q-12 -19 71 20q117 39 198 -54 l-50 -111q-85 58 -130.5 17.5t-88.5 -136.5v-217h-176z" />
<glyph unicode="&#xe05;" horiz-adv-x="811" d="M70 -17v480q0 51 7.5 125.5t52 131.5t98.5 85q33 20 113 31q32 -50 53.5 -50t49.5 53q106 -13 141 -34q55 -28 98 -79q42 -53 54 -139q8 -73 8 -124v-480h-175v569q-3 117 -68 138q-27 -42 -103 -46q-65 4 -104 45q-46 -18 -49 -137v-88q-12 -19 71 20q117 39 198 -54 l-50 -111q-85 58 -130.5 17.5t-88.5 -136.5v-217h-176z" />
<glyph unicode="&#xa6;" horiz-adv-x="864" d="M-7 750q48 61 110 90l58 -1q24 -48 38 -48t41 51q118 0 161.5 -57.5t25.5 -154.5t-127 -197l-1 -123q146 -176 230.5 -195.5t87.5 76.5v641h175v-626q0 -83 -40.5 -156.5t-133.5 -73.5q-103 0 -194.5 49t-124.5 96v-138h-170v539q95 21 127 94q18 69 17 69 q-46 -37 -84 -36.5t-56 18.5l-54 -57z" />
<glyph unicode="&#xe06;" horiz-adv-x="864" d="M-7 750q48 61 110 90l58 -1q24 -48 38 -48t41 51q118 0 161.5 -57.5t25.5 -154.5t-127 -197l-1 -123q146 -176 230.5 -195.5t87.5 76.5v641h175v-626q0 -83 -40.5 -156.5t-133.5 -73.5q-103 0 -194.5 49t-124.5 96v-138h-170v539q95 21 127 94q18 69 17 69 q-46 -37 -84 -36.5t-56 18.5l-54 -57z" />
<glyph unicode="&#xa7;" horiz-adv-x="744" d="M33 441l87 88q196 -208 248 -399q121 7 131 211v164q-12 159 -147 200l58 140q123 -39 172.5 -99.5t69 -131t23.5 -115.5t4 -73q0 -39 -3 -86q-5 -70 -19.5 -121.5t-65.5 -126.5q-104 -110 -220 -110h-122q-55 246 -216 459z" />
<glyph unicode="&#xe07;" horiz-adv-x="744" d="M33 441l87 88q196 -208 248 -399q121 7 131 211v164q-12 159 -147 200l58 140q123 -39 172.5 -99.5t69 -131t23.5 -115.5t4 -73q0 -39 -3 -86q-5 -70 -19.5 -121.5t-65.5 -126.5q-104 -110 -220 -110h-122q-55 246 -216 459z" />
<glyph unicode="&#xa8;" horiz-adv-x="752" d="M29 703q57 74 111 102q65 38 179 38q112 0 197 -37q56 -29 100 -86t52 -131.5t8 -125.5v-480h-172q-79 264 -130 323.5t-126 10.5l-37 137q85 58 189 20q93 -40 110 -84v161q-12 132 -149 149q-45 5 -84 0q-85 -12 -133 -98z" />
<glyph unicode="&#xe08;" horiz-adv-x="752" d="M29 703q57 74 111 102q65 38 179 38q112 0 197 -37q56 -29 100 -86t52 -131.5t8 -125.5v-480h-172q-79 264 -130 323.5t-126 10.5l-37 137q85 58 189 20q93 -40 110 -84v161q-12 132 -149 149q-45 5 -84 0q-85 -12 -133 -98z" />
<glyph unicode="&#xa9;" horiz-adv-x="815" d="M49 557q33 126 92 187q92 95 238 95q159 0 262 -100q62 -65 84 -136t23 -160v-467h-170v115q-77 -56 -152 -89t-147 -33q-93 0 -133.5 68.5t-39.5 138.5t-30 196l149 54q46 -105 43 -241q11 -76 83.5 -57t226.5 153v197q-1 102 -52 156.5t-139 57.5q-43 2 -76.5 -14.5 t-53.5 -46.5q-26 -27 -49 -113z" />
<glyph unicode="&#xe09;" horiz-adv-x="815" d="M49 557q33 126 92 187q92 95 238 95q159 0 262 -100q62 -65 84 -136t23 -160v-467h-170v115q-77 -56 -152 -89t-147 -33q-93 0 -133.5 68.5t-39.5 138.5t-30 196l149 54q46 -105 43 -241q11 -76 83.5 -57t226.5 153v197q-1 102 -52 156.5t-139 57.5q-43 2 -76.5 -14.5 t-53.5 -46.5q-26 -27 -49 -113z" />
<glyph unicode="&#xaa;" horiz-adv-x="721" d="M70 316v241q81 50 87.5 116t-31.5 134l163 39q46 -111 28.5 -202t-76.5 -151v-182q0 -85 35 -139t84 -52t85.5 49t36.5 142v258q0 63 -75 108v129q192 61 261 384l141 -41q-75 -343 -219 -431q58 -44 58 -129v-273q0 -84 -30 -163t-102.5 -128.5t-168.5 -49.5 q-98 0 -161 52.5t-89.5 128.5t-26.5 160z" />
<glyph unicode="&#xe0a;" horiz-adv-x="721" d="M70 316v241q81 50 87.5 116t-31.5 134l163 39q46 -111 28.5 -202t-76.5 -151v-182q0 -85 35 -139t84 -52t85.5 49t36.5 142v258q0 63 -75 108v129q192 61 261 384l141 -41q-75 -343 -219 -431q58 -44 58 -129v-273q0 -84 -30 -163t-102.5 -128.5t-168.5 -49.5 q-98 0 -161 52.5t-89.5 128.5t-26.5 160z" />
<glyph unicode="&#xab;" horiz-adv-x="767" d="M-7 750q48 61 110 90l58 -1q24 -48 38 -48t41 51q119 0 159 -57.5t22.5 -159.5t-123.5 -192v-122q0 -85 36 -138.5t75.5 -52t78 44t38.5 146.5v258q0 63 -75 108v129q192 61 250 384l152 -41q-75 -333 -220 -431q59 -44 59 -129v-293q0 -75 -32.5 -149t-105 -123 t-158.5 -49q-89 0 -151.5 52.5t-89 128.5t-26.5 160v206q95 21 127 94q18 69 17 69q-46 -37 -84 -36.5t-56 18.5l-54 -57z" />
<glyph unicode="&#xe0b;" horiz-adv-x="767" d="M-7 750q48 61 110 90l58 -1q24 -48 38 -48t41 51q119 0 159 -57.5t22.5 -159.5t-123.5 -192v-122q0 -85 36 -138.5t75.5 -52t78 44t38.5 146.5v258q0 63 -75 108v129q192 61 250 384l152 -41q-75 -333 -220 -431q59 -44 59 -129v-293q0 -75 -32.5 -149t-105 -123 t-158.5 -49q-89 0 -151.5 52.5t-89 128.5t-26.5 160v206q95 21 127 94q18 69 17 69q-46 -37 -84 -36.5t-56 18.5l-54 -57z" />
<glyph unicode="&#xac;" horiz-adv-x="1348" d="M49 675q60 57 106 87.5t115 57.5q67 25 185 28h23q126 -11 186.5 -51.5t88.5 -93t30 -118.5v-286q144 -165 240 -186q78 -18 81 78v641h175v-626q0 -83 -37 -156t-141 -73q-103 0 -193 48q-91 49 -125 91v-135h-175v586q2 70 -36 105t-105 40h-49q-78 -8 -145 -66v-450 q0 -75 43 -155l-158 -80q-55 97 -57 207v304q0 52 6 69q18 14 -42 12z" />
<glyph unicode="&#xe0c;" horiz-adv-x="1348" d="M49 675q60 57 106 87.5t115 57.5q67 25 185 28h23q126 -11 186.5 -51.5t88.5 -93t30 -118.5v-286q144 -165 240 -186q78 -18 81 78v641h175v-626q0 -83 -37 -156t-141 -73q-103 0 -193 48q-91 49 -125 91v-135h-175v586q2 70 -36 105t-105 40h-49q-78 -8 -145 -66v-450 q0 -75 43 -155l-158 -80q-55 97 -57 207v304q0 52 6 69q18 14 -42 12z" />
<glyph unicode="&#xad;" horiz-adv-x="1348" d="M49 675q60 57 106 87.5t116.5 58t206.5 27.5q126 -11 186.5 -51.5t88.5 -93t30 -118.5v-301q-2 -186 157.5 -190t163.5 167v571h175v-556q-3 -192 -141 -272q-74 -36 -125 -36h-101q-49 0 -137 32q-168 75 -167 308v259q2 70 -36 105t-105 40h-49q-78 -8 -145 -66v-450 q0 -75 43 -155l-158 -80q-55 97 -57 207v304q0 52 6 69q18 14 -42 12zM620 -140l132 51q34 -73 71 -83t150 16t268 -104l-52 -66q-112 76 -202.5 43t-175.5 -32q-47 0 -101.5 26.5t-89.5 148.5z" />
<glyph unicode="&#xe0d;" horiz-adv-x="1348" d="M49 675q60 57 106 87.5t116.5 58t206.5 27.5q126 -11 186.5 -51.5t88.5 -93t30 -118.5v-301q-2 -186 157.5 -190t163.5 167v571h175v-556q-3 -192 -141 -272q-74 -36 -125 -36h-101q-49 0 -137 32q-168 75 -167 308v259q2 70 -36 105t-105 40h-49q-78 -8 -145 -66v-450 q0 -75 43 -155l-158 -80q-55 97 -57 207v304q0 52 6 69q18 14 -42 12zM620 -140l132 51q34 -73 71 -83t150 16t268 -104l-52 -66q-112 76 -202.5 43t-175.5 -32q-47 0 -101.5 26.5t-89.5 148.5z" />
<glyph unicode="&#xde;" horiz-adv-x="1348" d="M49 675q60 57 106 87.5t116.5 58t206.5 27.5q126 -11 186.5 -51.5t88.5 -93t30 -118.5v-301q-2 -186 157.5 -190t163.5 167v571h175v-556q-3 -192 -141 -272q-74 -36 -125 -36h-101q-49 0 -137 32q-168 75 -167 308v259q2 70 -36 105t-105 40h-49q-78 -8 -145 -66v-450 q0 -75 43 -155l-158 -80q-55 97 -57 207v304q0 52 6 69q18 14 -42 12zM620 -140l132 51q34 -73 71 -83t150 16t268 -104l-52 -66q-112 76 -202.5 43t-175.5 -32q-47 0 -101.5 26.5t-89.5 148.5z" />
<glyph unicode="&#xae;" horiz-adv-x="859" d="M53 52q62 74 58 165v255q0 52 7 69q17 14 -47 12l-16 122q60 57 106 87.5t116.5 58t206.5 27.5q116 -9 184.5 -55.5t93.5 -104t27 -123.5v-734l-4 4q-1 -21 -27.5 -73.5t-85 -85.5t-103.5 -33t-100 30q-132 63 -328 -1l-33 74q170 112 282.5 76.5t150.5 -41.5 q16 -3 42.5 24.5t30.5 84.5v677q2 70 -36 105t-105 40h-49q-77 -8 -143 -66v-456q-5 -137 -96 -240z" />
<glyph unicode="&#xe0e;" horiz-adv-x="859" d="M53 52q62 74 58 165v255q0 52 7 69q17 14 -47 12l-16 122q60 57 106 87.5t116.5 58t206.5 27.5q116 -9 184.5 -55.5t93.5 -104t27 -123.5v-734l-4 4q-1 -21 -27.5 -73.5t-85 -85.5t-103.5 -33t-100 30q-132 63 -328 -1l-33 74q170 112 282.5 76.5t150.5 -41.5 q16 -3 42.5 24.5t30.5 84.5v677q2 70 -36 105t-105 40h-49q-77 -8 -143 -66v-456q-5 -137 -96 -240z" />
<glyph unicode="&#xaf;" horiz-adv-x="859" d="M53 52q62 74 58 165v255q0 52 7 69q17 14 -47 12l-16 122q60 57 106 87.5t115 57.5q67 26 188 28h20q116 -9 184.5 -55.5t93.5 -104t27 -123.5v-734l-4 4q-1 -26 -33 -78.5t-68 -73.5t-70 -19t-55.5 17t-37 -13t-98.5 -28q-74 0 -90.5 30.5t-46 32.5t-145.5 -36l-32 74 q131 89 237 84q33 -11 44.5 -37t31.5 -26t40.5 43.5t71.5 18t63.5 -10.5t16.5 77v677q2 70 -36 105t-105 40h-49q-77 -8 -143 -66v-456q-5 -137 -96 -240z" />
<glyph unicode="&#xe0f;" horiz-adv-x="859" d="M53 52q62 74 58 165v255q0 52 7 69q17 14 -47 12l-16 122q60 57 106 87.5t115 57.5q67 26 188 28h20q116 -9 184.5 -55.5t93.5 -104t27 -123.5v-734l-4 4q-1 -26 -33 -78.5t-68 -73.5t-70 -19t-55.5 17t-37 -13t-98.5 -28q-74 0 -90.5 30.5t-46 32.5t-145.5 -36l-32 74 q131 89 237 84q33 -11 44.5 -37t31.5 -26t40.5 43.5t71.5 18t63.5 -10.5t16.5 77v677q2 70 -36 105t-105 40h-49q-77 -8 -143 -66v-456q-5 -137 -96 -240z" />
<glyph unicode="&#xb0;" horiz-adv-x="748" d="M42 773q212 112 381 32q42 11 66 35.5t33 101.5l130 -21q-5 -91 -26.5 -140.5t-54.5 -66.5q35 -27 57 -64t35 -81t13 -96v-490h-172q-56 214 -117 296.5t-157 60.5l-18 124q98 47 194 -22.5t104 -88.5v129q-3 117 -119 183.5t-322 -30.5zM92 -261q156 131 250.5 99.5 t130.5 -30t46 19.5t-21 61l148 37q33 -56 33 -110q-1 -68 -65.5 -100t-131.5 -32q-87 0 -157.5 32t-180.5 -43z" />
<glyph unicode="&#xe10;" horiz-adv-x="748" d="M42 773q212 112 381 32q42 11 66 35.5t33 101.5l130 -21q-5 -91 -26.5 -140.5t-54.5 -66.5q35 -27 57 -64t35 -81t13 -96v-490h-172q-56 214 -117 296.5t-157 60.5l-18 124q98 47 194 -22.5t104 -88.5v129q-3 117 -119 183.5t-322 -30.5zM92 -261q156 131 250.5 99.5 t130.5 -30t46 19.5t-21 61l148 37q33 -56 33 -110q-1 -68 -65.5 -100t-131.5 -32q-87 0 -157.5 32t-180.5 -43z" />
<glyph unicode="&#xb1;" horiz-adv-x="925" d="M-7 748q48 61 110 90h58q24 -49 38 -49t41 51q83 0 123 -22t32 -79q43 56 94.5 79t116.5 23q243 -10 246 -322v-536h-172v525q0 164 -70.5 175t-136.5 -93.5t-101 -193.5t-35 -142v-271h-188v310q10 91 66 181t61 154q-1 55 -3 55q-46 -37 -84 -36.5t-56 18.5l-54 -57z " />
<glyph unicode="&#xe11;" horiz-adv-x="925" d="M-7 748q48 61 110 90h58q24 -49 38 -49t41 51q83 0 123 -22t32 -79q43 56 94.5 79t116.5 23q243 -10 246 -322v-536h-172v525q0 164 -70.5 175t-136.5 -93.5t-101 -193.5t-35 -142v-271h-188v310q10 91 66 181t61 154q-1 55 -3 55q-46 -37 -84 -36.5t-56 18.5l-54 -57z " />
<glyph unicode="&#xb2;" horiz-adv-x="1322" d="M70 -20v483q0 51 7.5 125.5t52 131.5t98.5 85q34 20 154 30q31 -49 52.5 -49t49.5 53q104 -13 150 -34q56 -28 95.5 -80t43 -127t2.5 -135v-155q126 -175 220 -195q78 -18 81 78v641h175v-626q0 -83 -37 -156t-141 -73q-103 0 -183 48q-82 50 -115 91v-133h-167v569 q-3 118 -66 137q-27 -41 -103 -45q-65 4 -105 47q-86 -22 -98 -140v-420q91 6 132 149q25 113 -74 162l69 129q153 -91 157.5 -215t-70.5 -246q-87 -125 -236 -130h-144z" />
<glyph unicode="&#xe12;" horiz-adv-x="1322" d="M70 -20v483q0 51 7.5 125.5t52 131.5t98.5 85q34 20 154 30q31 -49 52.5 -49t49.5 53q104 -13 150 -34q56 -28 95.5 -80t43 -127t2.5 -135v-155q126 -175 220 -195q78 -18 81 78v641h175v-626q0 -83 -37 -156t-141 -73q-103 0 -183 48q-82 50 -115 91v-133h-167v569 q-3 118 -66 137q-27 -41 -103 -45q-65 4 -105 47q-86 -22 -98 -140v-420q91 6 132 149q25 113 -74 162l69 129q153 -91 157.5 -215t-70.5 -246q-87 -125 -236 -130h-144z" />
<glyph unicode="&#xb3;" horiz-adv-x="1328" d="M47 675q60 57 106 87.5t116.5 58t196.5 27.5q125 -9 181 -45.5t82.5 -89t29 -93.5t2.5 -85v-344q3 -96 81 -78q95 21 240 186v533h175v-849h-175v133q-34 -42 -124 -90q-81 -48 -184 -48t-145.5 72.5t-42.5 155.5v361q2 70 -36 105t-95 40h-40q-86 1 -144 -65v-451 q0 -75 43 -155l-158 -80q-55 97 -57 207v304q0 52 6 69q18 14 -42 12z" />
<glyph unicode="&#xe13;" horiz-adv-x="1328" d="M47 675q60 57 106 87.5t116.5 58t196.5 27.5q125 -9 181 -45.5t82.5 -89t29 -93.5t2.5 -85v-344q3 -96 81 -78q95 21 240 186v533h175v-849h-175v133q-34 -42 -124 -90q-81 -48 -184 -48t-145.5 72.5t-42.5 155.5v361q2 70 -36 105t-95 40h-40q-86 1 -144 -65v-451 q0 -75 43 -155l-158 -80q-55 97 -57 207v304q0 52 6 69q18 14 -42 12z" />
<glyph unicode="&#xb4;" horiz-adv-x="872" d="M64 405q0 50 4 90t19 85q23 73 75 138q113 121 262 121q104 0 197.5 -61.5t136 -158.5t42.5 -234v-402h-173v419q0 80 -17.5 143t-69.5 109t-123 44q-160 -14 -184 -221q-5 -72 4 -161q12 -87 59.5 -135t167.5 -43v-155q-142 2 -204.5 28.5t-106 81.5t-66.5 138 q-15 46 -19 87q-4 38 -4 87z" />
<glyph unicode="&#xe14;" horiz-adv-x="872" d="M64 405q0 50 4 90t19 85q23 73 75 138q113 121 262 121q104 0 197.5 -61.5t136 -158.5t42.5 -234v-402h-173v419q0 80 -17.5 143t-69.5 109t-123 44q-160 -14 -184 -221q-5 -72 4 -161q12 -87 59.5 -135t167.5 -43v-155q-142 2 -204.5 28.5t-106 81.5t-66.5 138 q-15 46 -19 87q-4 38 -4 87z" />
<glyph unicode="&#xb5;" horiz-adv-x="872" d="M64 405q0 50 4 90t19 85q23 73 75 138q59 61 109 82.5t98 27.5q31 -60 51.5 -60t48.5 62q55 -4 123 -29.5t116.5 -87t70 -142t21.5 -156.5v-432h-173v479q-7 173 -102 209q-36 -41 -100 -45q-64 4 -106 44q-67 -28 -86 -193q-5 -72 4 -161q12 -87 59.5 -135t167.5 -43 v-155q-142 2 -204.5 28.5t-106 81.5t-66.5 138q-15 46 -19 87q-4 38 -4 87z" />
<glyph unicode="&#xe15;" horiz-adv-x="872" d="M64 405q0 50 4 90t19 85q23 73 75 138q59 61 109 82.5t98 27.5q31 -60 51.5 -60t48.5 62q55 -4 123 -29.5t116.5 -87t70 -142t21.5 -156.5v-432h-173v479q-7 173 -102 209q-36 -41 -100 -45q-64 4 -106 44q-67 -28 -86 -193q-5 -72 4 -161q12 -87 59.5 -135t167.5 -43 v-155q-142 2 -204.5 28.5t-106 81.5t-66.5 138q-15 46 -19 87q-4 38 -4 87z" />
<glyph unicode="&#xb6;" horiz-adv-x="854" d="M47 675q60 57 106 87.5t116.5 58t206.5 27.5q135 -8 191 -45t82.5 -89.5t29 -93.5t2.5 -85v-552h-175v584q2 70 -36 105t-105 40h-49q-78 -8 -145 -66v-400q0 -121 118 -122v-145q-178 6 -233.5 68.5t-56.5 180.5v244q0 52 6 69q18 14 -42 12z" />
<glyph unicode="&#xe16;" horiz-adv-x="854" d="M47 675q60 57 106 87.5t116.5 58t206.5 27.5q135 -8 191 -45t82.5 -89.5t29 -93.5t2.5 -85v-552h-175v584q2 70 -36 105t-105 40h-49q-78 -8 -145 -66v-400q0 -121 118 -122v-145q-178 6 -233.5 68.5t-56.5 180.5v244q0 52 6 69q18 14 -42 12z" />
<glyph unicode="&#xb7;" horiz-adv-x="854" d="M54 736l57 109q76 -51 98.5 -78t36.5 -59q13 -34 14 -72v-46q45 94 109.5 169t198.5 77q92 -1 149 -56t58 -138v-659h-172v608q0 102 -48.5 104t-98.5 -62.5t-141 -265.5q-56 -119 -54 -183v-201h-169v624q2 67 -38 129z" />
<glyph unicode="&#x2219;" horiz-adv-x="854" d="M54 736l57 109q76 -51 98.5 -78t36.5 -59q13 -34 14 -72v-46q45 94 109.5 169t198.5 77q92 -1 149 -56t58 -138v-659h-172v608q0 102 -48.5 104t-98.5 -62.5t-141 -265.5q-56 -119 -54 -183v-201h-169v624q2 67 -38 129z" />
<glyph unicode="&#xe17;" horiz-adv-x="854" d="M54 736l57 109q76 -51 98.5 -78t36.5 -59q13 -34 14 -72v-46q45 94 109.5 169t198.5 77q92 -1 149 -56t58 -138v-659h-172v608q0 102 -48.5 104t-98.5 -62.5t-141 -265.5q-56 -119 -54 -183v-201h-169v624q2 67 -38 129z" />
<glyph unicode="&#xb8;" horiz-adv-x="790" d="M70 603q0 46 22 87.5t62 75t104.5 53t139.5 19.5h55q70 0 133 -23.5t146 -81.5l-61 -136q-83 63 -141.5 85.5t-163.5 20.5q-58 -5 -86.5 -29.5t-28.5 -56.5q0 -21 20 -43t75 -33l153 -32q213 -47 219 -227v-211q0 -88 -83 -88h-430q-57 2 -95 36t-37 122v185h167v-162 q0 -26 22 -29h291q-2 0 -2 4v126h-2q4 56 -20 70q-46 25 -226 59q-124 32 -178.5 87.5t-54.5 121.5z" />
<glyph unicode="&#xe18;" horiz-adv-x="790" d="M70 603q0 46 22 87.5t62 75t104.5 53t139.5 19.5h55q70 0 133 -23.5t146 -81.5l-61 -136q-83 63 -141.5 85.5t-163.5 20.5q-58 -5 -86.5 -29.5t-28.5 -56.5q0 -21 20 -43t75 -33l153 -32q213 -47 219 -227v-211q0 -88 -83 -88h-430q-57 2 -95 36t-37 122v185h167v-162 q0 -26 22 -29h291q-2 0 -2 4v126h-2q4 56 -20 70q-46 25 -226 59q-124 32 -178.5 87.5t-54.5 121.5z" />
<glyph unicode="&#xb9;" horiz-adv-x="864" d="M55 737l67 107q75 -50 96.5 -77t33.5 -60t13 -72v-437q6 -96 85 -78q96 21 266 190v522h179l-3 -849h-173v147q-65 -60 -153 -107q-81 -48 -185 -48q-92 0 -139 72t-47 156v404q2 67 -40 130z" />
<glyph unicode="&#xe19;" horiz-adv-x="864" d="M55 737l67 107q75 -50 96.5 -77t33.5 -60t13 -72v-437q6 -96 85 -78q96 21 266 190v522h179l-3 -849h-173v147q-65 -60 -153 -107q-81 -48 -185 -48q-92 0 -139 72t-47 156v404q2 67 -40 130z" />
<glyph unicode="&#xba;" horiz-adv-x="834" d="M54 737l68 107q75 -50 95 -77t33 -59.5t14 -72.5v-344q-1 -176 160.5 -180t164.5 157v564h172v-549q-1 -192 -138 -272q-75 -36 -187 -36q-110 0 -178 32q-167 75 -166 308v292q2 67 -38 130z" />
<glyph unicode="&#xe1a;" horiz-adv-x="834" d="M54 737l68 107q75 -50 95 -77t33 -59.5t14 -72.5v-344q-1 -176 160.5 -180t164.5 157v564h172v-549q-1 -192 -138 -272q-75 -36 -187 -36q-110 0 -178 32q-167 75 -166 308v292q2 67 -38 130z" />
<glyph unicode="&#xbb;" horiz-adv-x="829" d="M54 737l68 107q74 -50 96 -77t33.5 -60t12.5 -72v-344q-1 -176 161 -180t165 157v889h165v-874q-1 -192 -132 -272q-75 -36 -177 -36q-98 0 -186 32q-169 75 -168 308v292q2 67 -38 130z" />
<glyph unicode="&#xe1b;" horiz-adv-x="829" d="M54 737l68 107q74 -50 96 -77t33.5 -60t12.5 -72v-344q-1 -176 161 -180t165 157v889h165v-874q-1 -192 -132 -272q-75 -36 -177 -36q-98 0 -186 32q-169 75 -168 308v292q2 67 -38 130z" />
<glyph unicode="&#xbc;" horiz-adv-x="1012" d="M64 685q2 63 42 103.5t148 59.5l18 -128q-34 -15 -41 -42.5t2 -68.5l40 -288l160 486h152l145 -487l80 524l152 -26l-113 -835h-167l-152 505q-24 70 -21 58q3 13 -21 -58l-172 -505h-157l-85 605q-7 44 -10 97z" />
<glyph unicode="&#xe1c;" horiz-adv-x="1012" d="M64 685q2 63 42 103.5t148 59.5l18 -128q-34 -15 -41 -42.5t2 -68.5l40 -288l160 486h152l145 -487l80 524l152 -26l-113 -835h-167l-152 505q-24 70 -21 58q3 13 -21 -58l-172 -505h-157l-85 605q-7 44 -10 97z" />
<glyph unicode="&#xbd;" horiz-adv-x="1025" d="M64 685q1 63 41 103.5t148 59.5l18 -128q-33 -15 -40 -42.5t1 -68.5l40 -288l160 486h151l164 -492l124 856l151 -39l-155 -1149h-177l-187 565l-188 -565h-157l-85 605q-6 44 -9 97z" />
<glyph unicode="&#xe1d;" horiz-adv-x="1025" d="M64 685q1 63 41 103.5t148 59.5l18 -128q-33 -15 -40 -42.5t1 -68.5l40 -288l160 486h151l164 -492l124 856l151 -39l-155 -1149h-177l-187 565l-188 -565h-157l-85 605q-6 44 -9 97z" />
<glyph unicode="&#xbe;" horiz-adv-x="1061" d="M42 790l148 55q48 -83 69 -210l53 -316l152 488h152l157 -497l99 533l152 -25l-134 -835h-167q-186 575 -182.5 575.5t-183.5 -575.5h-166l-83 579q-21 130 -66 228z" />
<glyph unicode="&#xe1e;" horiz-adv-x="1061" d="M42 790l148 55q48 -83 69 -210l53 -316l152 488h152l157 -497l99 533l152 -25l-134 -835h-167q-186 575 -182.5 575.5t-183.5 -575.5h-166l-83 579q-21 130 -66 228z" />
<glyph unicode="&#xbf;" horiz-adv-x="1049" d="M44 790l148 55q48 -83 69 -210l42 -314l160 486h152l164 -492l124 856l151 -39l-155 -1149h-177l-183 563l-193 -563h-157l-79 579q-21 130 -66 228z" />
<glyph unicode="&#xe1f;" horiz-adv-x="1049" d="M44 790l148 55q48 -83 69 -210l42 -314l160 486h152l164 -492l124 856l151 -39l-155 -1149h-177l-183 563l-193 -563h-157l-79 579q-21 130 -66 228z" />
<glyph unicode="&#xc0;" horiz-adv-x="873" d="M56 -20v146q68 1 68 82v264q0 52 7 69q17 14 -43 12l-16 122q60 57 106 87.5t116.5 58t206.5 27.5q136 -8 191 -45t81 -89.5t28.5 -93.5t2.5 -85v-552h-173v584q2 70 -36 105t-105 40h-49q-77 -8 -145 -66v-466q-1 -99 -52 -146t-188 -54z" />
<glyph unicode="&#xe20;" horiz-adv-x="873" d="M56 -20v146q68 1 68 82v264q0 52 7 69q17 14 -43 12l-16 122q60 57 106 87.5t116.5 58t206.5 27.5q136 -8 191 -45t81 -89.5t28.5 -93.5t2.5 -85v-552h-173v584q2 70 -36 105t-105 40h-49q-77 -8 -145 -66v-466q-1 -99 -52 -146t-188 -54z" />
<glyph unicode="&#xc1;" horiz-adv-x="857" d="M50 737l67 108q71 -50 94.5 -77.5t35.5 -60.5t13 -72v-325q177 -166 273 -187q78 -18 81 78v631h170v-626q0 -93 -40 -160.5t-143 -67.5t-184 48q-88 47 -157 106v-149h-172v624q2 67 -38 130z" />
<glyph unicode="&#xe21;" horiz-adv-x="857" d="M50 737l67 108q71 -50 94.5 -77.5t35.5 -60.5t13 -72v-325q177 -166 273 -187q78 -18 81 78v631h170v-626q0 -93 -40 -160.5t-143 -67.5t-184 48q-88 47 -157 106v-149h-172v624q2 67 -38 130z" />
<glyph unicode="&#xc2;" horiz-adv-x="822" d="M70 245v68q3 81 68 115q-65 33 -68 115v56q0 108 55.5 170.5t233.5 68.5v-146q-118 -1 -118 -111v-14q7 -65 102 -79v-116q-95 -14 -102 -79v-26q2 -161 167 -165q164 -4 168 167v563h175v-548q-3 -193 -151 -272q-74 -36 -168 -36h-35q-72 0 -160 32q-166 76 -167 237z " />
<glyph unicode="&#xe22;" horiz-adv-x="822" d="M70 245v68q3 81 68 115q-65 33 -68 115v56q0 108 55.5 170.5t233.5 68.5v-146q-118 -1 -118 -111v-14q7 -65 102 -79v-116q-95 -14 -102 -79v-26q2 -161 167 -165q164 -4 168 167v563h175v-548q-3 -193 -151 -272q-74 -36 -168 -36h-35q-72 0 -160 32q-166 76 -167 237z " />
<glyph unicode="&#xc3;" horiz-adv-x="725" d="M41 62l59 155q140 -85 258 -85q72 0 99.5 21.5t35.5 66.5q0 49 -25 75t-85 38l-96 21q-105 21 -159.5 82t-54.5 147q0 56 22 102.5t61.5 80t94.5 53t120 19.5t132 -23.5t129 -72.5l-61 -137q-64 56 -101 74t-102 18q-49 0 -81.5 -24.5t-32.5 -75.5q0 -41 20.5 -63 t65.5 -33l102 -22q223 -47 223 -235q0 -59 -22 -108.5t-64.5 -85.5t-100 -55.5t-127.5 -19.5q-78 0 -157 21.5t-153 65.5z" />
<glyph unicode="&#xe23;" horiz-adv-x="725" d="M41 62l59 155q140 -85 258 -85q72 0 99.5 21.5t35.5 66.5q0 49 -25 75t-85 38l-96 21q-105 21 -159.5 82t-54.5 147q0 56 22 102.5t61.5 80t94.5 53t120 19.5t132 -23.5t129 -72.5l-61 -137q-64 56 -101 74t-102 18q-49 0 -81.5 -24.5t-32.5 -75.5q0 -41 20.5 -63 t65.5 -33l102 -22q223 -47 223 -235q0 -59 -22 -108.5t-64.5 -85.5t-100 -55.5t-127.5 -19.5q-78 0 -157 21.5t-153 65.5z" />
<glyph unicode="&#xc4;" horiz-adv-x="851" d="M46 675q60 57 106 87.5t116.5 58t206.5 27.5q135 -8 191 -45t82.5 -89.5t29 -93.5t2.5 -85v-601q-3 -199 -71 -325l-137 34q31 113 34 265v659q1 70 -37 105t-105 40h-49q-78 -8 -145 -66v-400q0 -121 118 -122v-145q-178 6 -233.5 68.5t-56.5 180.5v244q0 52 6 69 q18 14 -42 12z" />
<glyph unicode="&#xe24;" horiz-adv-x="851" d="M46 675q60 57 106 87.5t116.5 58t206.5 27.5q135 -8 191 -45t82.5 -89.5t29 -93.5t2.5 -85v-601q-3 -199 -71 -325l-137 34q31 113 34 265v659q1 70 -37 105t-105 40h-49q-78 -8 -145 -66v-400q0 -121 118 -122v-145q-178 6 -233.5 68.5t-56.5 180.5v244q0 52 6 69 q18 14 -42 12z" />
<glyph unicode="&#xc5;" horiz-adv-x="825" d="M57 692q54 50 95 75.5t111 53t206 27.5q120 -5 199 -65q35 -31 56 -70q30 -61 30 -148v-582h-175v350q-71 42 -122.5 47.5t-99.5 -11.5t-79.5 -53t-31.5 -89t32 -79t76.5 -26.5t85.5 51.5l96 -73q-70 -124 -204 -124h-22q-83 0 -131.5 40t-76.5 89.5t-28 149.5 q11 112 105 176.5t216.5 70t183.5 -34.5v100q2 70 -36 105t-85 40h-47q-91 -18 -141.5 -45.5t-127.5 -92.5z" />
<glyph unicode="&#xe25;" horiz-adv-x="825" d="M57 692q54 50 95 75.5t111 53t206 27.5q120 -5 199 -65q35 -31 56 -70q30 -61 30 -148v-582h-175v350q-71 42 -122.5 47.5t-99.5 -11.5t-79.5 -53t-31.5 -89t32 -79t76.5 -26.5t85.5 51.5l96 -73q-70 -124 -204 -124h-22q-83 0 -131.5 40t-76.5 89.5t-28 149.5 q11 112 105 176.5t216.5 70t183.5 -34.5v100q2 70 -36 105t-85 40h-47q-91 -18 -141.5 -45.5t-127.5 -92.5z" />
<glyph unicode="&#xc6;" horiz-adv-x="880" d="M60 -19v146q68 1 68 82v263q0 52 7 69q17 14 -43 12l-16 122q60 57 106 87.5t116.5 58t206.5 27.5q136 -8 191.5 -45t82 -89.5t29 -93.5t2.5 -85v-601q-3 -199 -71 -325l-137 34q31 113 34 265v659q2 70 -36.5 105t-105.5 40h-49q-77 -8 -145 -66v-465q-1 -99 -52 -146 t-188 -54z" />
<glyph unicode="&#xe26;" horiz-adv-x="880" d="M60 -19v146q68 1 68 82v263q0 52 7 69q17 14 -43 12l-16 122q60 57 106 87.5t116.5 58t206.5 27.5q136 -8 191.5 -45t82 -89.5t29 -93.5t2.5 -85v-601q-3 -199 -71 -325l-137 34q31 113 34 265v659q2 70 -36.5 105t-105.5 40h-49q-77 -8 -145 -66v-465q-1 -99 -52 -146 t-188 -54z" />
<glyph unicode="&#xc7;" horiz-adv-x="812" d="M56 552q28 100 47 131t47 61q92 95 238 95q160 0 263 -121q51 -65 75 -138q14 -45 18 -85t4 -88t-4 -86q-4 -41 -18 -87q-24 -73 -75 -138q-103 -120 -253 -120q-146 0 -238 94q-60 61 -82 168l149 26q22 -82 69.5 -116t107.5 -26q143 19 166 197q8 88 0 176h1 q-15 183 -175 197q-43 2 -76.5 -14.5t-53.5 -46.5q-16 -16 -26 -78z" />
<glyph unicode="&#xe27;" horiz-adv-x="812" d="M56 552q28 100 47 131t47 61q92 95 238 95q160 0 263 -121q51 -65 75 -138q14 -45 18 -85t4 -88t-4 -86q-4 -41 -18 -87q-24 -73 -75 -138q-103 -120 -253 -120q-146 0 -238 94q-60 61 -82 168l149 26q22 -82 69.5 -116t107.5 -26q143 19 166 197q8 88 0 176h1 q-15 183 -175 197q-43 2 -76.5 -14.5t-53.5 -46.5q-16 -16 -26 -78z" />
<glyph unicode="&#xc8;" horiz-adv-x="819" d="M70 -17v480q0 51 7.5 125.5t52 131.5t99.5 85q64 38 178 38q31 0 59 -3q24 -1 73 -18l17 -7q151 60 218 347l120 -44q-49 -282 -196 -409q17 -20 30 -54q6 -16 9 -32q8 -49 8 -100v-540h-177v569q-1 56 -23 92q-12 19 -30 32q-26 18 -67 24q-38 5 -83 0 q-116 -16 -119 -148v-88q-12 -19 71 20q117 39 198 -54l-50 -111q-85 58 -130.5 17.5t-88.5 -136.5v-217h-176z" />
<glyph unicode="&#xe28;" horiz-adv-x="819" d="M70 -17v480q0 51 7.5 125.5t52 131.5t99.5 85q64 38 178 38q31 0 59 -3q24 -1 73 -18l17 -7q151 60 218 347l120 -44q-49 -282 -196 -409q17 -20 30 -54q6 -16 9 -32q8 -49 8 -100v-540h-177v569q-1 56 -23 92q-12 19 -30 32q-26 18 -67 24q-38 5 -83 0 q-116 -16 -119 -148v-88q-12 -19 71 20q117 39 198 -54l-50 -111q-85 58 -130.5 17.5t-88.5 -136.5v-217h-176z" />
<glyph unicode="&#xc9;" horiz-adv-x="884" d="M56 737l69 107q73 -50 95 -77t35 -59.5t15 -72.5v-343q-2 -186 157.5 -190t163.5 167v72q-14 -4 -64 -8q-71 0 -119 37t-85 137l135 52q32 -82 80 -87q31 -4 53 0v360h175v-321q46 4 130 -87l-54 -50q-59 33 -76 25v-115q-4 -192 -141 -272q-74 -36 -125 -36h-100 q-50 0 -138 32q-167 75 -165 308v291q1 67 -41 130z" />
<glyph unicode="&#xe29;" horiz-adv-x="884" d="M56 737l69 107q73 -50 95 -77t35 -59.5t15 -72.5v-343q-2 -186 157.5 -190t163.5 167v72q-14 -4 -64 -8q-71 0 -119 37t-85 137l135 52q32 -82 80 -87q31 -4 53 0v360h175v-321q46 4 130 -87l-54 -50q-59 33 -76 25v-115q-4 -192 -141 -272q-74 -36 -125 -36h-100 q-50 0 -138 32q-167 75 -165 308v291q1 67 -41 130z" />
<glyph unicode="&#xca;" horiz-adv-x="826" d="M55 692q54 50 95 75.5t111 53t187 27.5q83 -7 121 -24q151 60 218 347l119 -44q-49 -282 -196 -410q23 -27 32.5 -67.5t9.5 -84.5v-582h-175v350q-71 42 -122.5 47.5t-99.5 -11.5t-79.5 -53t-31.5 -89t32 -79t76.5 -26.5t85.5 51.5l96 -73q-70 -124 -204 -124h-22 q-83 0 -131.5 40t-77.5 89.5t-25 155.5t100.5 170.5t219 70t183.5 -34.5v100q1 43 -14.5 74.5t-42.5 47.5q-47 25 -111 23q-91 -18 -141.5 -45.5t-127.5 -92.5z" />
<glyph unicode="&#xe2a;" horiz-adv-x="826" d="M55 692q54 50 95 75.5t111 53t187 27.5q83 -7 121 -24q151 60 218 347l119 -44q-49 -282 -196 -410q23 -27 32.5 -67.5t9.5 -84.5v-582h-175v350q-71 42 -122.5 47.5t-99.5 -11.5t-79.5 -53t-31.5 -89t32 -79t76.5 -26.5t85.5 51.5l96 -73q-70 -124 -204 -124h-22 q-83 0 -131.5 40t-77.5 89.5t-25 155.5t100.5 170.5t219 70t183.5 -34.5v100q1 43 -14.5 74.5t-42.5 47.5q-47 25 -111 23q-91 -18 -141.5 -45.5t-127.5 -92.5z" />
<glyph unicode="&#xcb;" horiz-adv-x="863" d="M51 736l57 109q76 -51 97.5 -78t35.5 -59q13 -34 14 -72v-145q114 156 430 383l106 -111q-105 -69 -161 -115q58 -19 109.5 -66t52.5 -130v-469h-169v418q0 73 -28.5 105t-76.5 45q-120 -112 -208 -238q-56 -57 -54 -179v-151h-167v624q2 67 -38 129z" />
<glyph unicode="&#xe2b;" horiz-adv-x="863" d="M51 736l57 109q76 -51 97.5 -78t35.5 -59q13 -34 14 -72v-145q114 156 430 383l106 -111q-105 -69 -161 -115q58 -19 109.5 -66t52.5 -130v-469h-169v418q0 73 -28.5 105t-76.5 45q-120 -112 -208 -238q-56 -57 -54 -179v-151h-167v624q2 67 -38 129z" />
<glyph unicode="&#xcc;" horiz-adv-x="1033" d="M42 790l148 55q48 -83 69 -210l42 -314l160 486h152l164 -493l54 358q9 56 -124 100l13 98q146 -12 178 181l159 -21q-49 -235 -110 -249q54 -34 46 -111l-96 -687h-177l-179 576l-197 -576h-157l-79 579q-21 130 -66 228z" />
<glyph unicode="&#xe2c;" horiz-adv-x="1033" d="M42 790l148 55q48 -83 69 -210l42 -314l160 486h152l164 -493l54 358q9 56 -124 100l13 98q146 -12 178 181l159 -21q-49 -235 -110 -249q54 -34 46 -111l-96 -687h-177l-179 576l-197 -576h-157l-79 579q-21 130 -66 228z" />
<glyph unicode="&#xcd;" horiz-adv-x="826" d="M71 342q1 76 9 134q126 12 307 1v-152q-93 9 -144 4q-4 -52 5 -91.5t30 -67.5t55.5 -43.5t75.5 -15.5q165 18 175 230v154q-12 183 -173 197q-42 2 -75.5 -14.5t-53.5 -46.5q-16 -16 -27 -78l-183 -1q28 100 47 131t46 61q92 95 239 95q160 0 263 -121q51 -65 74 -138 q15 -45 19 -85.5t4 -68.5q0 -39 -3 -86q-5 -60 -21 -107q-23 -73 -74 -138q-103 -121 -263 -121q-152 0 -243 95q-84 79 -89 273z" />
<glyph unicode="&#xe2d;" horiz-adv-x="826" d="M71 342q1 76 9 134q126 12 307 1v-152q-93 9 -144 4q-4 -52 5 -91.5t30 -67.5t55.5 -43.5t75.5 -15.5q165 18 175 230v154q-12 183 -173 197q-42 2 -75.5 -14.5t-53.5 -46.5q-16 -16 -27 -78l-183 -1q28 100 47 131t46 61q92 95 239 95q160 0 263 -121q51 -65 74 -138 q15 -45 19 -85.5t4 -68.5q0 -39 -3 -86q-5 -60 -21 -107q-23 -73 -74 -138q-103 -121 -263 -121q-152 0 -243 95q-84 79 -89 273z" />
<glyph unicode="&#xce;" horiz-adv-x="830" d="M71 342q1 76 9 134q126 12 307 1v-152q-93 9 -144 4q-4 -52 5 -91.5t30 -67.5t55.5 -43.5t75.5 -15.5q165 18 175 230v154q-12 183 -173 197q-42 2 -75.5 -14.5t-53.5 -46.5q-16 -16 -27 -78l-183 -1q28 100 47 131t46 61q92 95 239 95q75 0 106 -15q60 116 198 201 l70 -78q-98 -113 -125 -214q4 -3 14 -15q51 -65 74 -138q15 -45 19 -85.5t4 -68.5q0 -39 -3 -86q-5 -60 -21 -107q-23 -73 -74 -138q-103 -121 -263 -121q-152 0 -243 95q-84 79 -89 273z" />
<glyph unicode="&#xe2e;" horiz-adv-x="830" d="M71 342q1 76 9 134q126 12 307 1v-152q-93 9 -144 4q-4 -52 5 -91.5t30 -67.5t55.5 -43.5t75.5 -15.5q165 18 175 230v154q-12 183 -173 197q-42 2 -75.5 -14.5t-53.5 -46.5q-16 -16 -27 -78l-183 -1q28 100 47 131t46 61q92 95 239 95q75 0 106 -15q60 116 198 201 l70 -78q-98 -113 -125 -214q4 -3 14 -15q51 -65 74 -138q15 -45 19 -85.5t4 -68.5q0 -39 -3 -86q-5 -60 -21 -107q-23 -73 -74 -138q-103 -121 -263 -121q-152 0 -243 95q-84 79 -89 273z" />
<glyph unicode="&#xcf;" horiz-adv-x="776" d="M68 523q1 112 76 196l146 -80q-66 -77 -40.5 -158.5t152.5 -80.5t131 172v140h173v-778q-3 -199 -71 -325l-137 34q31 113 34 265v390q-40 -19 -141 -19q-79 0 -167 32q-155 65 -156 212z" />
<glyph unicode="&#xe2f;" horiz-adv-x="776" d="M68 523q1 112 76 196l146 -80q-66 -77 -40.5 -158.5t152.5 -80.5t131 172v140h173v-778q-3 -199 -71 -325l-137 34q31 113 34 265v390q-40 -19 -141 -19q-79 0 -167 32q-155 65 -156 212z" />
<glyph unicode="&#xd0;" horiz-adv-x="695" d="M63 286l148 77q15 -108 52 -132q104 -63 349 43l39 -109q-144 -96 -320 -96q-184 1 -232 100q-21 40 -36 117zM63 673l148 77q15 -107 53 -132q103 -63 347 43l39 -109q-143 -96 -320 -95q-185 0 -231 100q-22 40 -36 116z" />
<glyph unicode="&#xe30;" horiz-adv-x="695" d="M63 286l148 77q15 -108 52 -132q104 -63 349 43l39 -109q-144 -96 -320 -96q-184 1 -232 100q-21 40 -36 117zM63 673l148 77q15 -107 53 -132q103 -63 347 43l39 -109q-143 -96 -320 -95q-185 0 -231 100q-22 40 -36 116z" />
<glyph unicode="&#xd1;" horiz-adv-x="49" d="M-315 1123l148 77q15 -107 53 -132q103 -63 347 43l39 -109q-143 -95 -319 -95q-184 0 -230 100q-22 40 -38 116z" />
<glyph unicode="&#xe31;" horiz-adv-x="49" d="M-315 1123l148 77q15 -107 53 -132q103 -63 347 43l39 -109q-143 -95 -319 -95q-184 0 -230 100q-22 40 -38 116z" />
<glyph unicode="&#xd2;" horiz-adv-x="780" d="M50 626q43 127 151 176q88 32 187 32q102 0 176 -36q137 -80 141 -272v-548h-175v563q-4 171 -163 167q-129 -3 -157 -148z" />
<glyph unicode="&#xe32;" horiz-adv-x="780" d="M50 626q43 127 151 176q88 32 187 32q102 0 176 -36q137 -80 141 -272v-548h-175v563q-4 171 -163 167q-129 -3 -157 -148z" />
<glyph unicode="&#xd3;" horiz-adv-x="776" d="M-291 1052q0 37 11.5 61.5t36.5 49.5q24 24 57 38q32 13 74 13q43 0 75 -13q32 -14 56 -38q25 -25 35.5 -49.5t10.5 -61.5q0 -36 -11 -62t-37 -51q-23 -22 -55 -36q-29 -12 -74 -12q-44 0 -76 13q-30 13 -53 35q-26 25 -38 51t-12 62zM-149 1055q0 -25 9.5 -36.5 t27.5 -11.5t27 11.5t9 36.5t-10 32.5t-26 8.5q-16 -1 -26.5 -8.5t-10.5 -32.5zM46 626q43 127 151 176q88 32 187 32q102 0 176 -36q138 -80 141 -272v-548h-175v563q-4 171 -162 167q-130 -3 -158 -148z" />
<glyph unicode="&#xe33;" horiz-adv-x="776" d="M-291 1052q0 37 11.5 61.5t36.5 49.5q24 24 57 38q32 13 74 13q43 0 75 -13q32 -14 56 -38q25 -25 35.5 -49.5t10.5 -61.5q0 -36 -11 -62t-37 -51q-23 -22 -55 -36q-29 -12 -74 -12q-44 0 -76 13q-30 13 -53 35q-26 25 -38 51t-12 62zM-149 1055q0 -25 9.5 -36.5 t27.5 -11.5t27 11.5t9 36.5t-10 32.5t-26 8.5q-16 -1 -26.5 -8.5t-10.5 -32.5zM46 626q43 127 151 176q88 32 187 32q102 0 176 -36q138 -80 141 -272v-548h-175v563q-4 171 -162 167q-130 -3 -158 -148z" />
<glyph unicode="&#xd4;" horiz-adv-x="64" d="M-583 1030q96 61 159 79t132 18q73 0 142 -37q68 -43 172 -49q-107 -123 -140 -123q-30 0 -60 22q-60 49 -154 55.5t-226 -67.5z" />
<glyph unicode="&#xe34;" horiz-adv-x="64" d="M-583 1030q96 61 159 79t132 18q73 0 142 -37q68 -43 172 -49q-107 -123 -140 -123q-30 0 -60 22q-60 49 -154 55.5t-226 -67.5z" />
<glyph unicode="&#xd5;" horiz-adv-x="47" d="M-583 1030q96 61 159 79t132 18q60 0 101.5 -11.5t52.5 -21.5q-3 -4 -3 107l126 15v-298h-103q-30 0 -60 22q-60 49 -154 55.5t-226 -67.5z" />
<glyph unicode="&#xe35;" horiz-adv-x="47" d="M-583 1030q96 61 159 79t132 18q60 0 101.5 -11.5t52.5 -21.5q-3 -4 -3 107l126 15v-298h-103q-30 0 -60 22q-60 49 -154 55.5t-226 -67.5z" />
<glyph unicode="&#xd6;" horiz-adv-x="46" d="M-584 1030q96 61 164 79t117 18q54 0 113 -38q49 -31 65 0q19 55 -9 60.5t-14 -97.5l-94 49q-39 155 119 155q109 -12 115 -128v-18q-1 -61 -29 -107t-57 -63t-59 -17q-31 1 -74 26q-61 40 -130.5 46t-201.5 -67z" />
<glyph unicode="&#xe36;" horiz-adv-x="46" d="M-584 1030q96 61 164 79t117 18q54 0 113 -38q49 -31 65 0q19 55 -9 60.5t-14 -97.5l-94 49q-39 155 119 155q109 -12 115 -128v-18q-1 -61 -29 -107t-57 -63t-59 -17q-31 1 -74 26q-61 40 -130.5 46t-201.5 -67z" />
<glyph unicode="&#xd7;" horiz-adv-x="47" d="M-583 1030q96 61 159 79t132 18h32l9 87l113 4v-123q16 -6 0 6l9 111l114 6v-300h-103q-30 0 -60 22q-60 49 -154 55.5t-226 -67.5z" />
<glyph unicode="&#xe37;" horiz-adv-x="47" d="M-583 1030q96 61 159 79t132 18h32l9 87l113 4v-123q16 -6 0 6l9 111l114 6v-300h-103q-30 0 -60 22q-60 49 -154 55.5t-226 -67.5z" />
<glyph unicode="&#xd8;" horiz-adv-x="44" d="M-224 -88q111 -7 210 -36v-218q0 -80 -80 -103l-93 -31q14 67 14 122v67q0 52 -51 53v146z" />
<glyph unicode="&#xe38;" horiz-adv-x="44" d="M-224 -88q111 -7 210 -36v-218q0 -80 -80 -103l-93 -31q14 67 14 122v67q0 52 -51 53v146z" />
<glyph unicode="&#xd9;" horiz-adv-x="50" d="M-414 -88q112 -7 200 -36v-227q18 -7 37 1v156q0 81 80 104l92 32q-15 -68 -15 -124v-198q0 -86 -90 -86h-253v179q0 52 -51 53v146z" />
<glyph unicode="&#xe39;" horiz-adv-x="50" d="M-414 -88q112 -7 200 -36v-227q18 -7 37 1v156q0 81 80 104l92 32q-15 -68 -15 -124v-198q0 -86 -90 -86h-253v179q0 52 -51 53v146z" />
<glyph unicode="&#xda;" horiz-adv-x="44" d="M-197 -159q0 28 15.5 55t44 41.5t59.5 14.5q29 0 58 -14.5t43 -41.5t14 -55q0 -29 -14 -55.5t-42.5 -41t-58.5 -14.5q-33 0 -60.5 14.5t-43 41t-15.5 55.5z" />
<glyph unicode="&#xe3a;" horiz-adv-x="44" d="M-197 -159q0 28 15.5 55t44 41.5t59.5 14.5q29 0 58 -14.5t43 -41.5t14 -55q0 -29 -14 -55.5t-42.5 -41t-58.5 -14.5q-33 0 -60.5 14.5t-43 41t-15.5 55.5z" />
<glyph unicode="&#xdb;" horiz-adv-x="0" />
<glyph unicode="&#xe3b;" horiz-adv-x="0" />
<glyph unicode="&#xdc;" horiz-adv-x="0" />
<glyph unicode="&#xe3c;" horiz-adv-x="0" />
<glyph unicode="&#xdd;" horiz-adv-x="0" />
<glyph unicode="&#xe3d;" horiz-adv-x="0" />
<glyph unicode="&#xdf;" horiz-adv-x="907" d="M94 -17v1158h273v246h170v-252q22 -2 42 -7.5t40 -12.5q95 -32 151 -107t56 -166q0 -93 -56 -160.5t-96 -80.5q-12 2 24.5 -12.5t66.5 -39.5q61 -45 85 -111t24 -130q0 -97 -48.5 -175.5t-140.5 -114.5q-23 -9 -45.5 -16t-48.5 -11t-54 -6v-243h-170v241h-273zM267 127 h218q113 0 158.5 48t45.5 144q0 70 -34.5 121t-85.5 62q-21 4 -52.5 7t-72.5 3h-177v-385zM267 658h173q44 0 73 3.5t47 13t31 25.5t25 42q17 39 17 82q0 63 -31.5 105.5t-81.5 55.5q-21 6 -47.5 7.5t-68.5 1.5h-137v-336z" />
<glyph unicode="&#xe3f;" horiz-adv-x="907" d="M94 -17v1158h273v246h170v-252q22 -2 42 -7.5t40 -12.5q95 -32 151 -107t56 -166q0 -93 -56 -160.5t-96 -80.5q-12 2 24.5 -12.5t66.5 -39.5q61 -45 85 -111t24 -130q0 -97 -48.5 -175.5t-140.5 -114.5q-23 -9 -45.5 -16t-48.5 -11t-54 -6v-243h-170v241h-273zM267 127 h218q113 0 158.5 48t45.5 144q0 70 -34.5 121t-85.5 62q-21 4 -52.5 7t-72.5 3h-177v-385zM267 658h173q44 0 73 3.5t47 13t31 25.5t25 42q17 39 17 82q0 63 -31.5 105.5t-81.5 55.5q-21 6 -47.5 7.5t-68.5 1.5h-137v-336z" />
<glyph unicode="&#xe0;" horiz-adv-x="323" d="M66 138v701q110 -1 162 -31v-605q-2 -53 6.5 -84.5t61.5 -47.5l-15 -95q-213 13 -215 162z" />
<glyph unicode="&#xe40;" horiz-adv-x="323" d="M66 138v701q110 -1 162 -31v-605q-2 -53 6.5 -84.5t61.5 -47.5l-15 -95q-213 13 -215 162z" />
<glyph unicode="&#xe1;" horiz-adv-x="624" d="M66 138v678l162 25v-638q-2 -53 6.5 -84.5t61.5 -47.5l-15 -95q-213 13 -215 162zM362 137v679l163 25l-1 -639q-2 -52 6.5 -83.5t61.5 -47.5l-15 -95q-213 13 -215 161z" />
<glyph unicode="&#xe41;" horiz-adv-x="624" d="M66 138v678l162 25v-638q-2 -53 6.5 -84.5t61.5 -47.5l-15 -95q-213 13 -215 162zM362 137v679l163 25l-1 -639q-2 -52 6.5 -83.5t61.5 -47.5l-15 -95q-213 13 -215 161z" />
<glyph unicode="&#xe2;" horiz-adv-x="422" d="M-36 1071q0 73 47.5 122.5t122.5 49.5q67 0 127 -33t196 88l59 -104q-194 -203 -345 -120q-22 14 -32 4.5t7 -31.5q63 -69 156 -116q-9 -121 -8 -228v-476q0 -54 17 -74t71 -20l-26 -152q-66 0 -89.5 6.5t-48.5 19.5q-48 22 -68.5 61t-20.5 104v517q1 88 8 168 q-39 24 -106 90.5t-67 123.5z" />
<glyph unicode="&#xe42;" horiz-adv-x="422" d="M-36 1071q0 73 47.5 122.5t122.5 49.5q67 0 127 -33t196 88l59 -104q-194 -203 -345 -120q-22 14 -32 4.5t7 -31.5q63 -69 156 -116q-9 -121 -8 -228v-476q0 -54 17 -74t71 -20l-26 -152q-66 0 -89.5 6.5t-48.5 19.5q-48 22 -68.5 61t-20.5 104v517q1 88 8 168 q-39 24 -106 90.5t-67 123.5z" />
<glyph unicode="&#xe3;" horiz-adv-x="423" d="M-24 1086q3 97 70 152t168 55q94 0 141.5 -39t71 -90.5t23.5 -108.5q0 -70 -48.5 -126.5t-77.5 -84t-29 -81.5v-536q0 -54 17 -74t71 -20l-26 -152q-66 0 -89.5 6.5t-48.5 19.5q-48 22 -68.5 61t-20.5 104v621q1 84 59 129t86 84.5t12 92.5t-73.5 54.5t-79.5 -46 t47 -128.5l-70 -77q-129 74 -135 184z" />
<glyph unicode="&#xe43;" horiz-adv-x="423" d="M-24 1086q3 97 70 152t168 55q94 0 141.5 -39t71 -90.5t23.5 -108.5q0 -70 -48.5 -126.5t-77.5 -84t-29 -81.5v-536q0 -54 17 -74t71 -20l-26 -152q-66 0 -89.5 6.5t-48.5 19.5q-48 22 -68.5 61t-20.5 104v621q1 84 59 129t86 84.5t12 92.5t-73.5 54.5t-79.5 -46 t47 -128.5l-70 -77q-129 74 -135 184z" />
<glyph unicode="&#xe4;" horiz-adv-x="470" d="M-112 1176l91 75q97 -110 118 -193q63 41 154 173l143 -42q-32 -140 -48.5 -253t-16.5 -233v-476q0 -54 17 -74t72 -20l-33 -152q-65 0 -88.5 6.5t-50.5 19.5q-44 23 -64.5 61.5t-20.5 103.5v467q8 214 26 308q-14 -17 -87 -68l-111 26q-13 158 -101 271z" />
<glyph unicode="&#xe44;" horiz-adv-x="470" d="M-112 1176l91 75q97 -110 118 -193q63 41 154 173l143 -42q-32 -140 -48.5 -253t-16.5 -233v-476q0 -54 17 -74t72 -20l-33 -152q-65 0 -88.5 6.5t-50.5 19.5q-44 23 -64.5 61.5t-20.5 103.5v467q8 214 26 308q-14 -17 -87 -68l-111 26q-13 158 -101 271z" />
<glyph unicode="&#xe5;" horiz-adv-x="726" d="M20 626q43 127 151 176q88 32 187 32q102 0 176 -36q133 -80 136 -272v-591q-1 -200 -67 -327l-137 35q31 113 34 265v633q-4 171 -163 167q-129 -3 -157 -148z" />
<glyph unicode="&#xe45;" horiz-adv-x="726" d="M20 626q43 127 151 176q88 32 187 32q102 0 176 -36q133 -80 136 -272v-591q-1 -200 -67 -327l-137 35q31 113 34 265v633q-4 171 -163 167q-129 -3 -157 -148z" />
<glyph unicode="&#xe6;" horiz-adv-x="744" d="M54 468q1 146 139 212l92 39q75 -138 143 1l107 -48q77 -35 107 -115t30 -171v-452q-3 -199 -66 -326l-138 35q31 113 34 265v511q-3 108 -26 117q-115 -152 -234 11q-24 -9 -36.5 -68t55.5 -127l-132 -69q-74 83 -75 185z" />
<glyph unicode="&#xe46;" horiz-adv-x="744" d="M54 468q1 146 139 212l92 39q75 -138 143 1l107 -48q77 -35 107 -115t30 -171v-452q-3 -199 -66 -326l-138 35q31 113 34 265v511q-3 108 -26 117q-115 -152 -234 11q-24 -9 -36.5 -68t55.5 -127l-132 -69q-74 83 -75 185z" />
<glyph unicode="&#xe7;" horiz-adv-x="44" d="M-556 1113q0 72 55 128.5t132 69.5t158 -2.5t106.5 1.5t-26.5 67l81 74q83 -64 85 -131q-1 -60 -31.5 -93t-104 -43t-158.5 -0.5t-115.5 -16t-30.5 -62.5q0 -30 15 -37t42 45h84q10 -44 22.5 -53t27 -4t-12.5 70l105 44q73 -82 51 -161t-145 -80q-81 0 -94 22 q-14 -22 -87 -22q-72 0 -115.5 56.5t-43.5 127.5z" />
<glyph unicode="&#xe47;" horiz-adv-x="44" d="M-556 1113q0 72 55 128.5t132 69.5t158 -2.5t106.5 1.5t-26.5 67l81 74q83 -64 85 -131q-1 -60 -31.5 -93t-104 -43t-158.5 -0.5t-115.5 -16t-30.5 -62.5q0 -30 15 -37t42 45h84q10 -44 22.5 -53t27 -4t-12.5 70l105 44q73 -82 51 -161t-145 -80q-81 0 -94 22 q-14 -22 -87 -22q-72 0 -115.5 56.5t-43.5 127.5z" />
<glyph unicode="&#xe8;" horiz-adv-x="48" d="M-150 1267v127q2 89 34 153l124 -40q-22 -69 -22 -120v-120h-136z" />
<glyph unicode="&#xe48;" horiz-adv-x="48" d="M-150 1267v127q2 89 34 153l124 -40q-22 -69 -22 -120v-120h-136z" />
<glyph unicode="&#xe9;" horiz-adv-x="47" d="M-318 1268l2 57l53 53q36 33 -41 64l48 94l69 -20q92 -22 83 -80t-36 -82q-8 4 45.5 30t137.5 73t189 -22l-20 -76q-69 29 -117.5 -4t-103 -64t-95.5 -42t-80 -11q-50 0 -134 30z" />
<glyph unicode="&#xe49;" horiz-adv-x="47" d="M-318 1268l2 57l53 53q36 33 -41 64l48 94l69 -20q92 -22 83 -80t-36 -82q-8 4 45.5 30t137.5 73t189 -22l-20 -76q-69 29 -117.5 -4t-103 -64t-95.5 -42t-80 -11q-50 0 -134 30z" />
<glyph unicode="&#xea;" d="M-366 1367q0 54 37 99.5t102.5 46t79.5 -22.5q15 22 94 22.5t95 -49.5q5 6 25 102l92 -37q-16 -170 -164 -308l-80 46q65 118 30.5 126t-37.5 -73h-112q-9 80 -37 71.5t38 -126.5l-116 -42q-47 101 -47 145z" />
<glyph unicode="&#xe4a;" d="M-366 1367q0 54 37 99.5t102.5 46t79.5 -22.5q15 22 94 22.5t95 -49.5q5 6 25 102l92 -37q-16 -170 -164 -308l-80 46q65 118 30.5 126t-37.5 -73h-112q-9 80 -37 71.5t38 -126.5l-116 -42q-47 101 -47 145z" />
<glyph unicode="&#xeb;" d="M-231 1343v117h96q3 44 27 108l122 -38q-16 -52 -17 -70h91v-117h-94v-89h-131v89h-94z" />
<glyph unicode="&#xe4b;" d="M-231 1343v117h96q3 44 27 108l122 -38q-16 -52 -17 -70h91v-117h-94v-89h-131v89h-94z" />
<glyph unicode="&#xec;" horiz-adv-x="46" d="M-250 1048q0 45 40.5 90t162.5 86.5t141 151.5l105 -37q-23 -117 -69 -159.5t-108.5 -69t-87 -48t20.5 -66.5l-138 -87q-67 77 -67 139z" />
<glyph unicode="&#xe4c;" horiz-adv-x="46" d="M-250 1048q0 45 40.5 90t162.5 86.5t141 151.5l105 -37q-23 -117 -69 -159.5t-108.5 -69t-87 -48t20.5 -66.5l-138 -87q-67 77 -67 139z" />
<glyph unicode="&#xed;" d="M-321 1052q0 37 11.5 61.5t36.5 49.5q24 24 57 38q32 13 74 13q43 0 75 -13q32 -14 56 -38q25 -25 35.5 -49.5t10.5 -61.5q0 -36 -11 -62t-37 -51q-23 -22 -55 -36q-29 -12 -74 -12q-44 0 -76 13q-30 13 -53 35q-26 25 -38 51t-12 62zM-179 1055q0 -25 9.5 -36.5 t27.5 -11.5t27 11.5t9 36.5t-10 32.5t-26 8.5q-16 -1 -26.5 -8.5t-10.5 -32.5z" />
<glyph unicode="&#xe4d;" d="M-321 1052q0 37 11.5 61.5t36.5 49.5q24 24 57 38q32 13 74 13q43 0 75 -13q32 -14 56 -38q25 -25 35.5 -49.5t10.5 -61.5q0 -36 -11 -62t-37 -51q-23 -22 -55 -36q-29 -12 -74 -12q-44 0 -76 13q-30 13 -53 35q-26 25 -38 51t-12 62zM-179 1055q0 -25 9.5 -36.5 t27.5 -11.5t27 11.5t9 36.5t-10 32.5t-26 8.5q-16 -1 -26.5 -8.5t-10.5 -32.5z" />
<glyph unicode="&#xee;" horiz-adv-x="54" d="M-350 783q6 35 24 60t47.5 37t11.5 13q-73 60 166 172l65 -94q-153 -40 -58 -106l-34 -91l-83 22q-16 2 -19.5 -13t65.5 -29l-51 -88q-83 16 -111.5 49t-22.5 68z" />
<glyph unicode="&#xe4e;" horiz-adv-x="54" d="M-350 783q6 35 24 60t47.5 37t11.5 13q-73 60 166 172l65 -94q-153 -40 -58 -106l-34 -91l-83 22q-16 2 -19.5 -13t65.5 -29l-51 -88q-83 16 -111.5 49t-22.5 68z" />
<glyph unicode="&#xef;" horiz-adv-x="667" d="M69 309q0 108 75.5 184t188.5 76t189 -76t76 -184t-76 -184t-189 -76t-188.5 76t-75.5 184zM148 309q0 -80 54.5 -135t130.5 -55t130.5 55t54.5 135t-55 135t-130 55q-76 0 -130.5 -54.5t-54.5 -135.5zM163 309q0 69 48 117t122 48q72 0 121.5 -48.5t49.5 -116.5 t-49.5 -116.5t-121.5 -48.5q-74 0 -122 48t-48 117z" />
<glyph unicode="&#xe4f;" horiz-adv-x="667" d="M69 309q0 108 75.5 184t188.5 76t189 -76t76 -184t-76 -184t-189 -76t-188.5 76t-75.5 184zM148 309q0 -80 54.5 -135t130.5 -55t130.5 55t54.5 135t-55 135t-130 55q-76 0 -130.5 -54.5t-54.5 -135.5zM163 309q0 69 48 117t122 48q72 0 121.5 -48.5t49.5 -116.5 t-49.5 -116.5t-121.5 -48.5q-74 0 -122 48t-48 117z" />
<glyph unicode="&#xf0;" horiz-adv-x="1006" d="M0 385q0 180 131 288q126 105 311 105q186 0 311 -103q130 -109 130 -290q0 -178 -132 -288q-124 -105 -309 -105q-187 0 -311 103q-131 109 -131 290zM178 385q0 -109 77.5 -186.5t186.5 -77.5t186.5 77.5t77.5 186.5t-77.5 186.5t-186.5 77.5t-186.5 -77.5 t-77.5 -186.5z" />
<glyph unicode="&#xe50;" horiz-adv-x="1006" d="M0 385q0 180 131 288q126 105 311 105q186 0 311 -103q130 -109 130 -290q0 -178 -132 -288q-124 -105 -309 -105q-187 0 -311 103q-131 109 -131 290zM178 385q0 -109 77.5 -186.5t186.5 -77.5t186.5 77.5t77.5 186.5t-77.5 186.5t-186.5 77.5t-186.5 -77.5 t-77.5 -186.5z" />
<glyph unicode="&#xf1;" horiz-adv-x="1089" d="M0 368q0 189 145 303q136 108 333 108q202 0 346 -115q157 -123 157 -316q0 -234 -198 -358h-157q165 100 165 315q0 139 -90 231t-228 92q-100 0 -176 -48q-92 -59 -92 -158q0 -22 16 -86q93 90 178 90q87 0 149.5 -62.5t62.5 -149.5q0 -104 -71.5 -164t-178.5 -60 q-148 0 -254.5 113.5t-106.5 264.5zM307 214q0 -92 92 -92q91 0 91 92q0 91 -91 91q-92 0 -92 -91z" />
<glyph unicode="&#xe51;" horiz-adv-x="1089" d="M0 368q0 189 145 303q136 108 333 108q202 0 346 -115q157 -123 157 -316q0 -234 -198 -358h-157q165 100 165 315q0 139 -90 231t-228 92q-100 0 -176 -48q-92 -59 -92 -158q0 -22 16 -86q93 90 178 90q87 0 149.5 -62.5t62.5 -149.5q0 -104 -71.5 -164t-178.5 -60 q-148 0 -254.5 113.5t-106.5 264.5zM307 214q0 -92 92 -92q91 0 91 92q0 91 -91 91q-92 0 -92 -91z" />
<glyph unicode="&#xf2;" horiz-adv-x="1159" d="M-3 953l148 105q39 -36 57 -71q25 -49 25 -124v-604q0 -132 172 -132h281q171 0 171 132v240q0 80 -43 106q-7 4 -30 9l-104 -59l-76 64q-46 0 -63 -10q-33 -18 -33 -82l56 4q64 5 119 -49q49 -50 49 -121q0 -79 -56.5 -125.5t-139.5 -46.5q-214 0 -214 275 q0 298 300 298l95 -74l94 74q89 0 156 -47q74 -51 74 -139v-369q0 -207 -264 -207h-463q-265 0 -265 207v630q0 62 -35 103q-12 13 -11 13zM477 361q0 -80 80 -80t80 80t-80 80t-80 -80z" />
<glyph unicode="&#xe52;" horiz-adv-x="1159" d="M-3 953l148 105q39 -36 57 -71q25 -49 25 -124v-604q0 -132 172 -132h281q171 0 171 132v240q0 80 -43 106q-7 4 -30 9l-104 -59l-76 64q-46 0 -63 -10q-33 -18 -33 -82l56 4q64 5 119 -49q49 -50 49 -121q0 -79 -56.5 -125.5t-139.5 -46.5q-214 0 -214 275 q0 298 300 298l95 -74l94 74q89 0 156 -47q74 -51 74 -139v-369q0 -207 -264 -207h-463q-265 0 -265 207v630q0 62 -35 103q-12 13 -11 13zM477 361q0 -80 80 -80t80 80t-80 80t-80 -80z" />
<glyph unicode="&#xf3;" horiz-adv-x="978" d="M0 365q0 177 73 282q84 119 241 119l136 -127l145 127q108 0 180 -48q80 -54 80 -160v-554h-196v494q0 50 -30 75q-6 4 -28 15l-167 -147l-157 143q-73 -54 -73 -213l65 18q11 2 32 2q84 0 142.5 -58.5t58.5 -142.5q0 -89 -60.5 -144.5t-152.5 -55.5q-144 0 -221 116 q-68 101 -68 259zM209 190q0 -92 92 -92t92 92q0 36 -28 64.5t-64 28.5q-37 0 -64.5 -28.5t-27.5 -64.5z" />
<glyph unicode="&#xe53;" horiz-adv-x="978" d="M0 365q0 177 73 282q84 119 241 119l136 -127l145 127q108 0 180 -48q80 -54 80 -160v-554h-196v494q0 50 -30 75q-6 4 -28 15l-167 -147l-157 143q-73 -54 -73 -213l65 18q11 2 32 2q84 0 142.5 -58.5t58.5 -142.5q0 -89 -60.5 -144.5t-152.5 -55.5q-144 0 -221 116 q-68 101 -68 259zM209 190q0 -92 92 -92t92 92q0 36 -28 64.5t-64 28.5q-37 0 -64.5 -28.5t-27.5 -64.5z" />
<glyph unicode="&#xf4;" horiz-adv-x="1041" d="M10 377q0 253 91 331q56 49 239 53l222 5q125 3 213.5 84t108.5 178l150 -103q-27 -104 -117 -189q-117 -110 -296 -110q-39 0 -116 -3t-116 -3q-123 0 -167 -71q-31 -50 -31 -179q0 -134 51 -174q38 -29 198 -29q-72 109 -72 187q0 81 60 141t142 60q80 0 139 -59.5 t59 -139.5q0 -72 -63 -146q114 -60 161 -60l-63 -159q-42 2 -65 6q-86 14 -140 56q-135 -54 -258 -54q-238 0 -297 125q-33 70 -33 253zM481 362q0 -89 89 -89q88 0 88 89t-88 89q-89 0 -89 -89z" />
<glyph unicode="&#xe54;" horiz-adv-x="1041" d="M10 377q0 253 91 331q56 49 239 53l222 5q125 3 213.5 84t108.5 178l150 -103q-27 -104 -117 -189q-117 -110 -296 -110q-39 0 -116 -3t-116 -3q-123 0 -167 -71q-31 -50 -31 -179q0 -134 51 -174q38 -29 198 -29q-72 109 -72 187q0 81 60 141t142 60q80 0 139 -59.5 t59 -139.5q0 -72 -63 -146q114 -60 161 -60l-63 -159q-42 2 -65 6q-86 14 -140 56q-135 -54 -258 -54q-238 0 -297 125q-33 70 -33 253zM481 362q0 -89 89 -89q88 0 88 89t-88 89q-89 0 -89 -89z" />
<glyph unicode="&#xf5;" horiz-adv-x="1064" d="M10 377q0 241 91 323q67 61 254 61q-12 74 -12 80q0 83 57.5 140.5t139.5 57.5q85 0 142 -60.5t57 -191.5q124 112 146 241l149 -103q-83 -303 -393 -299l-252 2q-125 2 -169 -82q-29 -54 -29 -187q0 -93 20 -135q32 -65 123 -65q60 0 137 29q-53 66 -56 72 q-28 47 -28 99q0 80 57 138t137 58t137.5 -58t57.5 -138q0 -71 -73 -156q89 -53 195 -53l-63 -160q-146 0 -262 72q-123 -63 -233 -63q-232 0 -291 130q-39 86 -39 248zM452 844q0 -89 88 -89q90 0 90 89q0 90 -90 90q-88 0 -88 -90zM489 362q0 -89 89 -89t89 89t-89 89 t-89 -89z" />
<glyph unicode="&#xe55;" horiz-adv-x="1064" d="M10 377q0 241 91 323q67 61 254 61q-12 74 -12 80q0 83 57.5 140.5t139.5 57.5q85 0 142 -60.5t57 -191.5q124 112 146 241l149 -103q-83 -303 -393 -299l-252 2q-125 2 -169 -82q-29 -54 -29 -187q0 -93 20 -135q32 -65 123 -65q60 0 137 29q-53 66 -56 72 q-28 47 -28 99q0 80 57 138t137 58t137.5 -58t57.5 -138q0 -71 -73 -156q89 -53 195 -53l-63 -160q-146 0 -262 72q-123 -63 -233 -63q-232 0 -291 130q-39 86 -39 248zM452 844q0 -89 88 -89q90 0 90 89q0 90 -90 90q-88 0 -88 -90zM489 362q0 -89 89 -89t89 89t-89 89 t-89 -89z" />
<glyph unicode="&#xf6;" horiz-adv-x="1003" d="M-100 921l155 103q105 -121 185 -293q104 47 226 47q171 0 293 -112t122 -281q0 -178 -129 -289q-123 -104 -307 -104q-140 0 -242 63q-116 72 -116 198q0 84 59.5 143.5t144.5 59.5t145 -59.5t60 -143.5q0 -33 -27 -108q123 17 179.5 81.5t56.5 155.5q0 112 -93 184 q-84 66 -195 66q-79 0 -165 -29q-53 -19 -116 -51q-120 246 -236 369zM205 253q0 -90 88 -90q89 0 89 90q0 89 -89 89q-88 0 -88 -89z" />
<glyph unicode="&#xe56;" horiz-adv-x="1003" d="M-100 921l155 103q105 -121 185 -293q104 47 226 47q171 0 293 -112t122 -281q0 -178 -129 -289q-123 -104 -307 -104q-140 0 -242 63q-116 72 -116 198q0 84 59.5 143.5t144.5 59.5t145 -59.5t60 -143.5q0 -33 -27 -108q123 17 179.5 81.5t56.5 155.5q0 112 -93 184 q-84 66 -195 66q-79 0 -165 -29q-53 -19 -116 -51q-120 246 -236 369zM205 253q0 -90 88 -90q89 0 89 90q0 89 -89 89q-88 0 -88 -89z" />
<glyph unicode="&#xf7;" horiz-adv-x="1224" d="M0 355q0 166 74 277q80 122 223 147l141 -122l148 112q255 -78 255 -348q0 -138 -42 -240q124 0 124 294q0 44 -6.5 131t-6.5 130q0 169 58 288l175 -102q-50 -84 -50 -357q0 -137 -2 -170q-11 -257 -149 -348q-79 -53 -193 -53q-68 0 -165 11l-38 4q125 122 125 364 q0 138 -82 209l-152 -112l-159 132q-74 -60 -91 -136q-4 -20 -7 -107q60 42 115 42q86 0 143.5 -57.5t57.5 -142.5q0 -84 -58.5 -142.5t-142.5 -58.5q-132 0 -216 111q-79 105 -79 244zM220 201q0 -83 83 -83t83 83t-83 83t-83 -83z" />
<glyph unicode="&#xe57;" horiz-adv-x="1224" d="M0 355q0 166 74 277q80 122 223 147l141 -122l148 112q255 -78 255 -348q0 -138 -42 -240q124 0 124 294q0 44 -6.5 131t-6.5 130q0 169 58 288l175 -102q-50 -84 -50 -357q0 -137 -2 -170q-11 -257 -149 -348q-79 -53 -193 -53q-68 0 -165 11l-38 4q125 122 125 364 q0 138 -82 209l-152 -112l-159 132q-74 -60 -91 -136q-4 -20 -7 -107q60 42 115 42q86 0 143.5 -57.5t57.5 -142.5q0 -84 -58.5 -142.5t-142.5 -58.5q-132 0 -216 111q-79 105 -79 244zM220 201q0 -83 83 -83t83 83t-83 83t-83 -83z" />
<glyph unicode="&#xf8;" horiz-adv-x="1030" d="M10 321q0 240 62 330q75 108 297 108q25 0 91 3l69 3q261 0 289 244l158 -87q-50 -193 -182 -251q-108 -47 -355.5 -47t-247.5 -180v-155q0 -72 41 -72q22 0 39 24l117 154l98 -143q72 149 198 149q83 0 142.5 -59t59.5 -141q0 -87 -58 -147t-144 -60q-93 0 -195 65 q-33 22 -100 81l-111 -143q-268 0 -268 324zM604 201q0 -80 80 -80q81 0 81 80t-81 80q-80 0 -80 -80z" />
<glyph unicode="&#xe58;" horiz-adv-x="1030" d="M10 321q0 240 62 330q75 108 297 108q25 0 91 3l69 3q261 0 289 244l158 -87q-50 -193 -182 -251q-108 -47 -355.5 -47t-247.5 -180v-155q0 -72 41 -72q22 0 39 24l117 154l98 -143q72 149 198 149q83 0 142.5 -59t59.5 -141q0 -87 -58 -147t-144 -60q-93 0 -195 65 q-33 22 -100 81l-111 -143q-268 0 -268 324zM604 201q0 -80 80 -80q81 0 81 80t-81 80q-80 0 -80 -80z" />
<glyph unicode="&#xf9;" horiz-adv-x="1320" d="M0 361q0 176 127.5 295t306.5 119q140 0 291 -117q37 29 90 66q38 27 71 27q37 0 130 -77q37 74 51 115q40 118 40 207l178 -101q-22 -139 -86 -282q-70 -159 -130 -159q-24 0 -101 73q-45 43 -76 23q-16 -9 -16 -37q148 -297 148 -412l-172 -97q-47 301 -183 471 q-101 125 -233 125q-101 0 -169 -60q-75 -63 -75 -163q0 -127 92 -204q0 127 55.5 187t138.5 60q80 0 138 -58t58 -138q0 -112 -82 -174q-77 -58 -196 -58q-159 0 -277.5 106.5t-118.5 262.5zM390 224q0 -86 86 -86q85 0 85 86t-85 86q-86 0 -86 -86z" />
<glyph unicode="&#xe59;" horiz-adv-x="1320" d="M0 361q0 176 127.5 295t306.5 119q140 0 291 -117q37 29 90 66q38 27 71 27q37 0 130 -77q37 74 51 115q40 118 40 207l178 -101q-22 -139 -86 -282q-70 -159 -130 -159q-24 0 -101 73q-45 43 -76 23q-16 -9 -16 -37q148 -297 148 -412l-172 -97q-47 301 -183 471 q-101 125 -233 125q-101 0 -169 -60q-75 -63 -75 -163q0 -127 92 -204q0 127 55.5 187t138.5 60q80 0 138 -58t58 -138q0 -112 -82 -174q-77 -58 -196 -58q-159 0 -277.5 106.5t-118.5 262.5zM390 224q0 -86 86 -86q85 0 85 86t-85 86q-86 0 -86 -86z" />
<glyph unicode="&#xfa;" horiz-adv-x="911" d="M31 438v18q0 77 58 130q64 58 166 58q53 0 88 -11.5t76 -47.5l-39 -101q-50 27 -80 27q-34 0 -55 -17q-25 -20 -25 -59q0 -28 22 -42q22 -13 58 -13q51 0 86 22q40 25 40 60v169h195v-648h-195v304q25 21 13 13t-24 -13q-57 -30 -130 -30q-102 0 -166 39q-78 47 -88 142z M648 -17v648h195v-648h-195z" />
<glyph unicode="&#xe5a;" horiz-adv-x="911" d="M31 438v18q0 77 58 130q64 58 166 58q53 0 88 -11.5t76 -47.5l-39 -101q-50 27 -80 27q-34 0 -55 -17q-25 -20 -25 -59q0 -28 22 -42q22 -13 58 -13q51 0 86 22q40 25 40 60v169h195v-648h-195v304q25 21 13 13t-24 -13q-57 -30 -130 -30q-102 0 -166 39q-78 47 -88 142z M648 -17v648h195v-648h-195z" />
<glyph unicode="&#xfb;" horiz-adv-x="1230" d="M26 213q0 65 32.5 115t78.5 83q27 15 56 26q20 6 35.5 7t29.5 1q21 0 44.5 -2.5t36.5 -7.5q17 -3 30 -9.5t31 -19.5l-3 -112q-46 10 -50 16q-3 2 -10 4.5t-9 4.5q-11 4 -33 4h-9q-22 0 -37 -7q-6 -3 -30 -24q-33 -34 -33 -78q0 -39 29 -60q24 -23 90 -23q55 0 83 48 q10 16 17 48q6 24 9 39t23 51q28 -28 34 -38l13 -18l13 -21q28 -43 23 -43q-6 0 22 43q42 63 64 63q32 0 55 -73q20 -50 -1 -34l29 41q32 47 56 47q28 0 52 -70q14 -39 23 -39q-5 0 27 32q44 44 99 44q26 0 63 -21q28 -14 38 -15h3l9 5q13 5 44 40l71 -98q-33 -48 -76 -62 l-49 -11q-21 0 -64 16q-35 12 -50 11q-17 -4 -39 -27q-30 -35 -78 -35q-33 0 -69 36q-31 38 -31 -25l6 9q-20 -29 -40 -34q-28 -13 -63 33q-16 19 -24 33q-5 7 -9.5 15t10.5 -16l-18 -29q-27 -37 -51 -37q-25 10 -46 31l-9 10q-3 -7 -63 -47q-57 -40 -146 -40q-81 0 -148 46 q-33 24 -52 48t-27.5 47t-10 42.5t-1.5 36.5z" />
<glyph unicode="&#xe5b;" horiz-adv-x="1230" d="M26 213q0 65 32.5 115t78.5 83q27 15 56 26q20 6 35.5 7t29.5 1q21 0 44.5 -2.5t36.5 -7.5q17 -3 30 -9.5t31 -19.5l-3 -112q-46 10 -50 16q-3 2 -10 4.5t-9 4.5q-11 4 -33 4h-9q-22 0 -37 -7q-6 -3 -30 -24q-33 -34 -33 -78q0 -39 29 -60q24 -23 90 -23q55 0 83 48 q10 16 17 48q6 24 9 39t23 51q28 -28 34 -38l13 -18l13 -21q28 -43 23 -43q-6 0 22 43q42 63 64 63q32 0 55 -73q20 -50 -1 -34l29 41q32 47 56 47q28 0 52 -70q14 -39 23 -39q-5 0 27 32q44 44 99 44q26 0 63 -21q28 -14 38 -15h3l9 5q13 5 44 40l71 -98q-33 -48 -76 -62 l-49 -11q-21 0 -64 16q-35 12 -50 11q-17 -4 -39 -27q-30 -35 -78 -35q-33 0 -69 36q-31 38 -31 -25l6 9q-20 -29 -40 -34q-28 -13 -63 33q-16 19 -24 33q-5 7 -9.5 15t10.5 -16l-18 -29q-27 -37 -51 -37q-25 10 -46 31l-9 10q-3 -7 -63 -47q-57 -40 -146 -40q-81 0 -148 46 q-33 24 -52 48t-27.5 47t-10 42.5t-1.5 36.5z" />
<glyph unicode="&#xfc;" horiz-adv-x="44" d="M-224 -346q111 -7 210 -36v-208q0 -80 -80 -103l-93 -31q14 67 14 122v57q0 52 -51 53v146z" />
<glyph unicode="&#xf718;" horiz-adv-x="44" d="M-224 -346q111 -7 210 -36v-208q0 -80 -80 -103l-93 -31q14 67 14 122v57q0 52 -51 53v146z" />
<glyph unicode="&#xfd;" horiz-adv-x="50" d="M-414 -358q112 -7 200 -36v-207q18 -7 37 1v126q0 81 80 104l92 32q-15 -68 -15 -124v-168q0 -86 -90 -86h-253v159q0 52 -51 53v146z" />
<glyph unicode="&#xf719;" horiz-adv-x="50" d="M-414 -358q112 -7 200 -36v-207q18 -7 37 1v126q0 81 80 104l92 32q-15 -68 -15 -124v-168q0 -86 -90 -86h-253v159q0 52 -51 53v146z" />
<glyph unicode="&#xfe;" horiz-adv-x="44" d="M-197 -499q0 28 15.5 55t44 41.5t59.5 14.5q29 0 58 -14.5t43 -41.5t14 -55q0 -29 -14 -55.5t-42.5 -41t-58.5 -14.5q-33 0 -60.5 14.5t-43 41t-15.5 55.5z" />
<glyph unicode="&#xf71a;" horiz-adv-x="44" d="M-197 -499q0 28 15.5 55t44 41.5t59.5 14.5q29 0 58 -14.5t43 -41.5t14 -55q0 -29 -14 -55.5t-42.5 -41t-58.5 -14.5q-33 0 -60.5 14.5t-43 41t-15.5 55.5z" />
<glyph unicode="&#xff;" horiz-adv-x="1333" d="M12 382q0 271 189.5 462t464.5 191q278 0 468 -191t190 -462q0 -267 -191 -458t-467 -191q-273 0 -463.5 191t-190.5 458zM229 385q0 -184 128.5 -313.5t308.5 -129.5q181 0 309.5 129.5t128.5 313.5q0 185 -128.5 314t-309.5 129q-180 0 -308.5 -129t-128.5 -314z" />
<glyph unicode="&#xe3e;" horiz-adv-x="0" />
<glyph unicode="&#x2000;" horiz-adv-x="784" />
<glyph unicode="&#x2001;" horiz-adv-x="1568" />
<glyph unicode="&#x2002;" horiz-adv-x="784" />
<glyph unicode="&#x2003;" horiz-adv-x="1568" />
<glyph unicode="&#x2004;" horiz-adv-x="522" />
<glyph unicode="&#x2005;" horiz-adv-x="392" />
<glyph unicode="&#x2006;" horiz-adv-x="261" />
<glyph unicode="&#x2007;" horiz-adv-x="261" />
<glyph unicode="&#x2008;" horiz-adv-x="196" />
<glyph unicode="&#x2009;" horiz-adv-x="313" />
<glyph unicode="&#x200a;" horiz-adv-x="87" />
<glyph unicode="&#x200b;" horiz-adv-x="0" />
<glyph unicode="&#x2010;" horiz-adv-x="573" d="M102 447v169h369v-169h-369z" />
<glyph unicode="&#x2011;" horiz-adv-x="573" d="M102 447v169h369v-169h-369z" />
<glyph unicode="&#x2012;" horiz-adv-x="573" d="M102 447v169h369v-169h-369z" />
<glyph unicode="&#x202f;" horiz-adv-x="313" />
<glyph unicode="&#x205f;" horiz-adv-x="392" />
<glyph unicode="&#x25cc;" horiz-adv-x="989" d="M72 427l167 79q-9 -61 -9 -85q0 -23 10 -81zM187 121l64 184q51 -80 113 -124zM202 726l172 -61q-64 -42 -118 -118zM407 679l86 173l87 -171q-63 13 -83 13q-24 0 -90 -15zM413 155q60 -7 84 -7q20 0 76 9l-79 -162zM620 665l180 61l-61 -178q-55 74 -119 117zM624 179 q60 40 113 109l47 -167zM754 504l163 -82l-159 -76q6 54 6 75q0 23 -10 83z" />
<glyph unicode="&#xe000;" horiz-adv-x="840" d="M0 840h840v-840h-840v840z" />
<glyph horiz-adv-x="1520" d="M45 675q60 57 106 87.5t116.5 58t206.5 27.5q135 -8 191 -45t82.5 -89.5t29 -93.5t2.5 -85v-601q-3 -199 -71 -325l-137 34q31 113 34 265v659q1 70 -37 105t-105 40h-49q-78 -8 -145 -66v-400q0 -121 118 -122v-145q-178 6 -233.5 68.5t-56.5 180.5v244q0 52 6 69 q18 14 -42 12zM800 626q43 127 151 176q88 32 187 32q102 0 176 -36q134 -80 136 -272v-591q-1 -200 -66 -327l-138 35q31 113 34 265v633q-4 171 -163 167q-129 -3 -157 -148z" />
<glyph horiz-adv-x="1536" d="M45 -19v146q68 1 68 82v263q0 52 7 69q17 14 -43 12l-16 122q60 57 106 87.5t116.5 58t206.5 27.5q136 -8 191.5 -45t82 -89.5t29 -93.5t2.5 -85v-601q-3 -199 -71 -325l-137 34q31 113 34 265v659q2 70 -36.5 105t-105.5 40h-49q-77 -8 -145 -66v-465q-1 -99 -52 -146 t-188 -54zM815 626q43 127 151 176q88 32 187 32q102 0 176 -36q134 -80 136 -272v-591q-1 -200 -66 -327l-138 35q31 113 34 265v633q-4 171 -162 167q-130 -3 -158 -148z" />
<glyph horiz-adv-x="1033" d="M42 790l148 55q48 -83 69 -210l42 -314l160 486h152l164 -493l54 358q9 56 -124 100l13 98q146 -12 178 181l159 -21q-49 -235 -110 -249q54 -34 46 -111l-96 -687h-177l-162 505q-24 70 -21 58q4 13 -20 -58l-173 -505h-157l-79 579q-21 130 -66 228z" />
<glyph horiz-adv-x="776" d="M-491 1052q0 37 11.5 61.5t36.5 49.5q24 24 57 38q32 13 74 13q43 0 75 -13q32 -14 56 -38q25 -25 35.5 -49.5t10.5 -61.5q0 -36 -11 -62t-37 -51q-23 -22 -55 -36q-29 -12 -74 -12q-44 0 -76 13q-30 13 -53 35q-26 25 -38 51t-12 62zM-349 1055q0 -25 9.5 -36.5 t27.5 -11.5t27 11.5t9 36.5t-10 32.5t-26 8.5q-16 -1 -26.5 -8.5t-10.5 -32.5zM46 626q43 127 151 176q88 32 187 32q102 0 176 -36q138 -80 141 -272v-548h-175v563q-4 171 -162 167q-130 -3 -158 -148z" />
<glyph horiz-adv-x="44" d="M-456 794q0 69 65 100q-11 8 -11 39q0 61 77 100q61 33 123 33q51 0 100 -16q29 -11 29 -36q0 -41 -44 -41q-8 0 -16 4q-34 10 -69 10q-28 0 -68 -17q-43 -18 -43 -37q0 1 43 -14q29 -10 29 -38q0 -39 -44 -39q-5 0 -10 1t-6 1q-18 0 -42.5 -18.5t-24.5 -31.5 q0 -15 14 -25.5t36 -10.5q45 0 66 35q13 21 38 21q45 0 45 -38q0 -9 -4 -18q-44 -79 -145 -79q-51 0 -91 28q-47 33 -47 87z" />
</font>
</defs>
</svg>
