<?xml version="1.0" standalone="no"?>
<!DOCTYPE svg PUBLIC "-//W3C//DTD SVG 1.1//EN" "http://www.w3.org/Graphics/SVG/1.1/DTD/svg11.dtd" >
<svg xmlns="http://www.w3.org/2000/svg">
<metadata>
This is a custom SVG webfont generated by Font Squirrel.
Copyright   : Copyright c 2007 by SiamRuay Design All rights reserved
Designer    : SiamRuay Design
Foundry     : SiamRuay Design
</metadata>
<defs>
<font id="SRRojeeNPRegular" horiz-adv-x="0" >
<font-face units-per-em="2048" ascent="1638" descent="-410" />
<missing-glyph horiz-adv-x="690" />
<glyph unicode="&#x91;&#x91;" horiz-adv-x="344" d="M111 803q0 12 5 19t1 12q8 12 10 29.5t5 36t10.5 36.5t25.5 31h41q33 -12 37 -32t-1 -41l-9 -40q-4 -18 14 -31q12 8 25.5 26.5t32 38t41 37t52.5 25.5q8 2 50 2q16 0 27 -10t11 -20q0 -6 -19 -25l-46 -42q-27 -24 -51.5 -50.5t-36.5 -46.5q-10 -16 0 -42l18 -46 q-8 -4 -12 -10.5t-25 -6.5q-12 0 -42.5 13.5t-64.5 32t-61.5 39t-31.5 34.5q0 4 -3 11.5t-3 19.5z" />
<glyph unicode="&#x92;&#x92;" horiz-adv-x="520" d="M82 698q0 8 15 38l36 70l43 82l39 73h55q0 -6 6.5 -8.5t6.5 -18.5q0 -12 -18.5 -56t-43 -93.5t-50.5 -88.5t-40 -39q-16 0 -32.5 15.5t-16.5 25.5zM252 686q0 2 14.5 36t35 77t44 82t39.5 55h66q0 -6 6 -16.5t6 -26.5q0 -8 -13 -30l-32 -51l-40 -64q-22 -35 -40 -72 l-15 -16q-11 -11 -30 -11q-20 0 -30.5 10.5t-10.5 26.5z" />
<glyph unicode="&#x3b;&#x3b;For&#x20;Education&#x20;Used&#x20;Only&#x3b;&#x3b;" horiz-adv-x="757" d="M127 561q0 29 14.5 68t40 75.5t59 65.5t70.5 37q14 4 31.5 6t34.5 6q12 2 35 2h30q2 0 18.5 -1t36 -4t41 -7t37.5 -10q10 -4 25.5 -17.5l26.5 -23.5q23 -25 19.5 -55.5t4.5 -53.5q2 -8 4 -19.5t2 -21.5q0 -8 -3 -36.5t-9 -47.5q-8 -20 -27.5 -53t-42 -65.5t-46 -57 t-37.5 -26.5q-4 0 -8.5 -9.5t-10.5 -13.5q-16 -10 -41.5 -11t-34.5 -1q-41 0 -60.5 6t-47.5 22q-25 12 -52.5 41t-52 66t-41 73.5t-16.5 65.5zM174 555q0 -63 88 -143q0 4 -2 8l-4 8q16 61 37.5 128t19.5 118q16 16 30.5 28.5t27.5 28.5q-4 8 -12.5 15.5t-18.5 7.5 q-31 0 -60.5 -22.5t-53 -53.5t-38 -64.5t-14.5 -58.5zM297 381l49 -22q27 -11 49 -11q14 0 34 6t38 17.5t33.5 27t19.5 31.5q-35 -4 -49 -4h-22q-51 0 -75 26.5t-44 71.5q0 -16 -8.5 -32.5t-12.5 -30.5q-4 -10 -2 -23.5t0 -23.5q-2 -8 -6 -16.5t-4 -16.5zM358 575 q10 18 24.5 38t20.5 36q-4 4 -7 8.5t-13 4.5q-6 0 -10 -11.5t-7.5 -26t-5.5 -29t-2 -20.5zM395 725q18 6 30.5 -1t20 -19.5t11.5 -25.5t4 -20q0 -10 -6 -36.5t-15 -44.5q-10 -16 -22 -31t-19 -27q12 -16 34 -19t46.5 -3t49 -1t42.5 -14l35 70t15 63q0 12 -2.5 31t-8.5 37 t-15 34.5t-24 22.5q-18 10 -48.5 14.5t-39.5 4.5q-10 0 -39 -11.5t-49 -23.5z" />
<glyph unicode="&#x3b;&#x3b;Registered&#x3b;&#x3b;" horiz-adv-x="757" d="M127 561q0 29 14.5 68t40 75.5t59 65.5t70.5 37q14 4 31.5 6t34.5 6q12 2 35 2h30q2 0 18.5 -1t36 -4t41 -7t37.5 -10q10 -4 25.5 -17.5l26.5 -23.5q23 -25 19.5 -55.5t4.5 -53.5q2 -8 4 -19.5t2 -21.5q0 -8 -3 -36.5t-9 -47.5q-8 -20 -27.5 -53t-42 -65.5t-46 -57 t-37.5 -26.5q-4 0 -8.5 -9.5t-10.5 -13.5q-16 -10 -41.5 -11t-34.5 -1q-41 0 -60.5 6t-47.5 22q-25 12 -52.5 41t-52 66t-41 73.5t-16.5 65.5zM174 555q0 -63 88 -143q0 4 -2 8l-4 8q16 61 37.5 128t19.5 118q16 16 30.5 28.5t27.5 28.5q-4 8 -12.5 15.5t-18.5 7.5 q-31 0 -60.5 -22.5t-53 -53.5t-38 -64.5t-14.5 -58.5zM297 381l49 -22q27 -11 49 -11q14 0 34 6t38 17.5t33.5 27t19.5 31.5q-35 -4 -49 -4h-22q-51 0 -75 26.5t-44 71.5q0 -16 -8.5 -32.5t-12.5 -30.5q-4 -10 -2 -23.5t0 -23.5q-2 -8 -6 -16.5t-4 -16.5zM358 575 q10 18 24.5 38t20.5 36q-4 4 -7 8.5t-13 4.5q-6 0 -10 -11.5t-7.5 -26t-5.5 -29t-2 -20.5zM395 725q18 6 30.5 -1t20 -19.5t11.5 -25.5t4 -20q0 -10 -6 -36.5t-15 -44.5q-10 -16 -22 -31t-19 -27q12 -16 34 -19t46.5 -3t49 -1t42.5 -14l35 70t15 63q0 12 -2.5 31t-8.5 37 t-15 34.5t-24 22.5q-18 10 -48.5 14.5t-39.5 4.5q-10 0 -39 -11.5t-49 -23.5z" />
<glyph unicode="&#x3b;&#x3b;Trademark&#x3b;&#x3b;" horiz-adv-x="757" d="M127 561q0 29 14.5 68t40 75.5t59 65.5t70.5 37q14 4 31.5 6t34.5 6q12 2 35 2h30q2 0 18.5 -1t36 -4t41 -7t37.5 -10q10 -4 25.5 -17.5l26.5 -23.5q23 -25 19.5 -55.5t4.5 -53.5q2 -8 4 -19.5t2 -21.5q0 -8 -3 -36.5t-9 -47.5q-8 -20 -27.5 -53t-42 -65.5t-46 -57 t-37.5 -26.5q-4 0 -8.5 -9.5t-10.5 -13.5q-16 -10 -41.5 -11t-34.5 -1q-41 0 -60.5 6t-47.5 22q-25 12 -52.5 41t-52 66t-41 73.5t-16.5 65.5zM174 555q0 -63 88 -143q0 4 -2 8l-4 8q16 61 37.5 128t19.5 118q16 16 30.5 28.5t27.5 28.5q-4 8 -12.5 15.5t-18.5 7.5 q-31 0 -60.5 -22.5t-53 -53.5t-38 -64.5t-14.5 -58.5zM297 381l49 -22q27 -11 49 -11q14 0 34 6t38 17.5t33.5 27t19.5 31.5q-35 -4 -49 -4h-22q-51 0 -75 26.5t-44 71.5q0 -16 -8.5 -32.5t-12.5 -30.5q-4 -10 -2 -23.5t0 -23.5q-2 -8 -6 -16.5t-4 -16.5zM358 575 q10 18 24.5 38t20.5 36q-4 4 -7 8.5t-13 4.5q-6 0 -10 -11.5t-7.5 -26t-5.5 -29t-2 -20.5zM395 725q18 6 30.5 -1t20 -19.5t11.5 -25.5t4 -20q0 -10 -6 -36.5t-15 -44.5q-10 -16 -22 -31t-19 -27q12 -16 34 -19t46.5 -3t49 -1t42.5 -14l35 70t15 63q0 12 -2.5 31t-8.5 37 t-15 34.5t-24 22.5q-18 10 -48.5 14.5t-39.5 4.5q-10 0 -39 -11.5t-49 -23.5z" />
<glyph unicode="&#x3b;&#x3b;Multiply&#x3b;&#x3b;" horiz-adv-x="757" d="M127 561q0 29 14.5 68t40 75.5t59 65.5t70.5 37q14 4 31.5 6t34.5 6q12 2 35 2h30q2 0 18.5 -1t36 -4t41 -7t37.5 -10q10 -4 25.5 -17.5l26.5 -23.5q23 -25 19.5 -55.5t4.5 -53.5q2 -8 4 -19.5t2 -21.5q0 -8 -3 -36.5t-9 -47.5q-8 -20 -27.5 -53t-42 -65.5t-46 -57 t-37.5 -26.5q-4 0 -8.5 -9.5t-10.5 -13.5q-16 -10 -41.5 -11t-34.5 -1q-41 0 -60.5 6t-47.5 22q-25 12 -52.5 41t-52 66t-41 73.5t-16.5 65.5zM174 555q0 -63 88 -143q0 4 -2 8l-4 8q16 61 37.5 128t19.5 118q16 16 30.5 28.5t27.5 28.5q-4 8 -12.5 15.5t-18.5 7.5 q-31 0 -60.5 -22.5t-53 -53.5t-38 -64.5t-14.5 -58.5zM297 381l49 -22q27 -11 49 -11q14 0 34 6t38 17.5t33.5 27t19.5 31.5q-35 -4 -49 -4h-22q-51 0 -75 26.5t-44 71.5q0 -16 -8.5 -32.5t-12.5 -30.5q-4 -10 -2 -23.5t0 -23.5q-2 -8 -6 -16.5t-4 -16.5zM358 575 q10 18 24.5 38t20.5 36q-4 4 -7 8.5t-13 4.5q-6 0 -10 -11.5t-7.5 -26t-5.5 -29t-2 -20.5zM395 725q18 6 30.5 -1t20 -19.5t11.5 -25.5t4 -20q0 -10 -6 -36.5t-15 -44.5q-10 -16 -22 -31t-19 -27q12 -16 34 -19t46.5 -3t49 -1t42.5 -14l35 70t15 63q0 12 -2.5 31t-8.5 37 t-15 34.5t-24 22.5q-18 10 -48.5 14.5t-39.5 4.5q-10 0 -39 -11.5t-49 -23.5z" />
<glyph unicode="&#x3b;&#x3b;Divide&#x3b;&#x3b;" horiz-adv-x="765" d="M90 362q0 25 27.5 45.5t68.5 36t90.5 26.5t92.5 19.5t74.5 11.5t37.5 3q8 0 29.5 -2t49.5 -5t58.5 -7.5t55.5 -10.5q8 -4 16 -12l17 -16q0 -16 -6.5 -41t-14.5 -48q-16 0 -34.5 5.5t-37.5 5.5q-98 0 -173.5 -13.5t-131 -29t-92.5 -27.5t-55 -12q-23 0 -47.5 21t-24.5 50z M322 199q20 23 45.5 38t46.5 15q12 0 32.5 -22.5t20.5 -39.5q0 -18 -12.5 -30.5t-28.5 -21.5t-30.5 -13t-16.5 -4q-25 0 -38 24.5t-19 53.5zM322 651q20 23 45.5 38.5t46.5 15.5q12 0 32.5 -23t20.5 -39q0 -18 -12.5 -30.5t-28.5 -21.5t-30.5 -13.5t-16.5 -4.5 q-25 0 -38 24.5t-19 53.5z" />
<glyph unicode=" "  horiz-adv-x="690" />
<glyph unicode="&#x09;" horiz-adv-x="690" />
<glyph unicode="&#xa0;" horiz-adv-x="690" />
<glyph unicode="!" horiz-adv-x="534" d="M162 47q0 23 15.5 49.5t41.5 26.5q10 0 20.5 -11.5t17.5 -24.5t12 -27.5t5 -20.5q0 -31 -19 -36t-24 -5q-27 0 -48 19.5t-21 29.5zM215 281q0 6 6 30.5t16 58.5l19 71q10 38 16 69q2 10 10.5 28.5t12.5 39.5q16 74 28 155l23 164h33q25 0 39 -25.5t14 -46.5 q0 -6 -2 -24.5t-7 -42.5l-11 -52q-6 -28 -13 -49l-26 -84l-30 -97l-32 -100q-16 -50 -35 -93q-2 -6 2.5 -16.5t4.5 -16.5q-6 -6 -9.5 -12.5t-19.5 -6.5t-16 1t-15 10q0 4 -4 13.5t-4 25.5z" />
<glyph unicode="&#x22;" horiz-adv-x="448" d="M90 680q0 6 13 35l32 66l38 78l32 69h49q0 -6 5 -9.5t5 -17.5q0 -10 -15.5 -52t-37 -88t-43 -83t-33.5 -37q-16 0 -30.5 14.5t-14.5 24.5zM238 668q0 2 12 33.5t30.5 71.5t38 78t33.5 52h58q0 -6 5 -16t5 -25q0 -6 -11 -26l-27 -50l-35 -62q-19 -34 -34 -67l-14 -14 q-10 -10 -27 -10q-34 0 -34 35z" />
<glyph unicode="#" horiz-adv-x="798" d="M82 233q0 31 26.5 51.5t59.5 35t62.5 23.5t35.5 15q31 29 41 80q-12 10 -31 22l-36 22q-18 11 -31.5 21.5t-13.5 20.5q0 27 20.5 41.5t47 20.5t48 7t25.5 3q16 8 31 52l29 94q15 50 34 90t43 40q16 0 30.5 -18t14.5 -37q0 -10 -11 -34l-25 -49l-24.5 -50.5t-11.5 -32.5 v-41q8 -6 12 -6h19q41 0 59.5 33t32 72t27.5 71.5t47 32.5q12 0 19.5 -7t12.5 -15.5t7 -16.5t2 -10q0 -18 -15 -51l-30 -64q18 -18 43 -20t35 -8q4 -4 24.5 -5.5t20.5 -15.5v-41q0 -16 -12.5 -26.5t-26.5 -14.5q-23 -4 -57.5 -3t-63.5 -13t-52.5 -48t-23.5 -53 q0 -20 14.5 -27t35 -11.5t43 -8.5t38.5 -18v-47q-16 -23 -38.5 -28t-46.5 -5h-46q-23 0 -37 -12q-23 -16 -34 -57l-23 -74q0 -4 -1 -21.5t-3 -38t-7 -37t-18 -16.5q-16 0 -18 5t-14 5q0 8 -5.5 16.5t-5.5 26.5q0 10 3.5 28.5t8.5 41t11 46.5t12 42q-6 8 -8 17.5t-18 9.5 q-37 0 -54.5 -27t-23.5 -61.5t-5 -66.5t5 -40q-6 -8 -14.5 -16.5t-24.5 -8.5q-25 0 -34 18.5t-8 43t7 50.5t12 42l-22 27q-18 -8 -42 -24.5t-40 -16.5q-10 0 -17.5 10t-13.5 22.5t-9 24.5t-3 18zM379 377h39q20 16 27.5 36.5t19.5 37.5q-6 8 -14.5 12t-16.5 12 q-12 -8 -27.5 -17t-27.5 -26v-55z" />
<glyph unicode="$" horiz-adv-x="704" d="M102 143q0 29 15 41q59 41 124.5 74t123.5 74q-10 16 -42 29l-55 24q-59 31 -84.5 71t-25.5 68q0 31 30.5 66t69.5 55q27 14 65.5 27.5t67.5 29.5q6 20 8 47l4 52q2 27 8.5 51.5t22.5 46.5h72q0 -43 -10.5 -75.5t-10.5 -75.5q0 -14 10.5 -38t4.5 -46l66.5 -40t72.5 -38 q-4 -14 -16.5 -29.5t-30 -28t-36.5 -20.5t-38 -8q-18 0 -40.5 16t-41.5 16q-10 0 -12 -1t-2 -3t-1 -3t-11 -1q-18 0 -30.5 15.5t-31.5 15.5q-18 0 -43.5 -15.5t-25.5 -27.5q0 -8 32 -27l71 -40l71 -41q33 -19 32 -25q0 -6 -4 -20.5t-10 -33t-15.5 -38t-19.5 -35.5 q-4 -6 -17 -17.5t-18 -21.5q-4 -6 3.5 -16.5t11.5 -22.5l-33 -59q-14 -27 -24.5 -54.5t-12.5 -58.5t4 -72q-4 -6 -14 -17t-19 -17q-35 10 -47 36.5t-14 60.5t4 70.5t8 69.5q2 0 2 2q-4 4 -20 4q-18 0 -43 -19.5t-49 -19.5q-23 0 -39.5 13.5t-16.5 29.5z" />
<glyph unicode="%" horiz-adv-x="1159" d="M160 59q0 6 34.5 74t91.5 164l125 207q69 111 136 204t125.5 155.5t93.5 62.5t49 -15.5t14 -38.5q0 -14 -22.5 -44.5t-49.5 -62.5l-52 -59q-25 -28 -31 -36l-113.5 -145.5t-105.5 -152.5t-87 -151t-57 -139q-8 -33 -33.5 -56.5t-60.5 -23.5q-23 0 -40 19.5t-17 37.5z M227 645q0 16 6.5 26.5t8.5 35.5h43q23 0 42 -9.5t32.5 -22.5t21.5 -27.5t8 -22.5q0 -18 -14.5 -30.5t-36 -21t-45 -12.5t-39.5 -6l-17 47q-10 25 -10 43zM586 240l14 28h37q10 0 26.5 -6t33 -15t28.5 -21.5t12 -24.5q0 -16 -16 -39l-33 -45q-8 0 -26.5 5t-34.5 7 q-10 27 -25.5 60t-15.5 51z" />
<glyph unicode="&#x26;" horiz-adv-x="843" d="M131 418q0 20 21.5 48t49 54.5t52.5 45t29 20.5q12 4 35.5 7t33.5 9q25 10 38 52t22.5 89.5t18.5 85t26 37.5q31 0 41 -31.5t10 -50.5q0 -8 -9.5 -46l-21.5 -82l-21.5 -81.5t-9.5 -46.5q0 -16 12.5 -24t28.5 -8q8 0 47 14t84.5 32.5t85 33t48.5 14.5h36q0 -14 5.5 -30.5 t5.5 -35.5l-165 -89t-151 -101q-10 -6 -7 -28.5t-1 -35.5q-8 -31 -14 -64.5t-18.5 -68.5t-33 -69.5t-55.5 -67.5q-29 25 -39 55.5t-10 64.5t4 67.5t2 64.5q-2 8 -10 16t-25 8q-16 0 -16 -5t-14 -5q-25 0 -45.5 21.5t-35.5 48t-24.5 51.5t-9.5 31zM272 410h41q6 8 13.5 11 t15.5 9v25l-12 12q-16 -4 -35 -23.5t-23 -33.5z" />
<glyph unicode="'" horiz-adv-x="235" d="M117 678q0 8 11 33.5t28 59.5l34 71l31 65q4 6 16.5 16.5t26.5 16.5q4 -16 18.5 -28.5t14.5 -30.5q0 -53 -36 -120t-99 -126h-37q0 8 -4 16.5t-4 26.5z" />
<glyph unicode="(" horiz-adv-x="651" d="M125 186q0 14 5 50l11 76l13 87q6 45 6 82q2 37 17.5 101.5t40 138.5t57 149.5t69.5 137t75 100.5t75 39q29 0 54 -30t25 -73q0 -23 -10 -39t-23.5 -28t-27.5 -21.5t-20 -19.5l-119 -202q-51 -91 -84 -184t-49.5 -196.5t-16.5 -236.5q0 -57 1 -104.5t12.5 -94.5t35 -99 t70.5 -116q8 -10 14 -39t6 -55h-61q-16 -2 -34.5 19.5t-28.5 37.5q-23 41 -46.5 95.5t-33.5 111.5q-6 37 -12.5 84t-11.5 93t-7 83t-2 53z" />
<glyph unicode=")" horiz-adv-x="591" d="M45 -301q0 6 26 57l65 130q40 79 85 178.5t85 202t65.5 201.5t25.5 177q0 29 -5 72t-15 80q-8 27 -20.5 55.5t-28 53t-29.5 41t-25 16.5q-10 0 -14 -3.5t-6 -6.5t-6 -5t-15 -2q-10 0 -25 12.5t-30.5 29t-27 33.5t-11.5 28q0 41 11.5 62.5t28 30.5t35.5 10t36 1 q74 0 121 -40t73.5 -102.5t37 -138t10.5 -149.5q0 -14 -3.5 -49l-7.5 -77t-10 -85t-12 -76q-6 -35 -18 -79l-23 -90q-12 -46 -26 -88l-23 -73q-2 -8 -21 -47l-44 -93l-55 -114q-30 -60 -58.5 -111.5t-52 -85.5t-34.5 -34q-23 0 -25.5 10.5t-19.5 10.5q0 12 -7 18t-7 39z" />
<glyph unicode="*" horiz-adv-x="669" d="M115 813q0 12 12 21.5t25 9.5q6 0 25.5 -11.5l43 -26.5t49 -33.5t45.5 -31.5q6 0 8.5 4.5t6.5 8.5q2 10 3 22t3 25q4 23 8 57.5t12 65.5q2 8 7.5 21t11.5 25.5t12 20.5t12 8t14.5 -9t15.5 -19t12 -20.5t5 -12.5q0 -12 -15 -42t-25 -56v-17q14 0 34.5 1t36.5 7 q10 4 20.5 18.5t24.5 14.5q10 0 19 -4l8 -4q0 -4 3 -10t3 -19q0 -6 -13.5 -20l-31.5 -32l-40 -37q-22 -19 -36 -33q16 -20 37 -27.5l40 -14t36.5 -16.5t27.5 -37q-10 -10 -18 -17t-22 -7q-6 0 -26 5t-41.5 12t-41.5 12.5t-27 5.5q-12 0 -14 -3.5t-6 -7.5q0 -27 1 -54.5 t1 -53.5q0 -10 13.5 -26.5t13.5 -29.5q0 -12 -8.5 -18t-8.5 -10h-31q-29 43 -26.5 86t0.5 96q-6 0 -6 3t-13 3q-6 0 -24.5 -13t-40 -30.5l-39.5 -31t-25 -13.5q-10 0 -26.5 17.5t-16.5 29.5q0 18 15.5 33.5t35 29t35 26t15.5 24.5t-6.5 14t-12.5 6q-6 2 -24.5 14.5t-37 31 t-33.5 37t-15 32.5z" />
<glyph unicode="+" horiz-adv-x="714" d="M121 489q0 25 25.5 37.5t37.5 12.5q14 0 35 -8.5t37 -8.5q10 0 30.5 4t41.5 11l37 11l16 5q18 57 25 133q2 6 8 17.5t12 17.5h33q14 0 14 -15v-28q0 -20 -9 -46t-9 -42q0 -12 7 -18.5t15 -8.5t17 -2h10q16 0 27.5 4t27.5 4q29 0 38 -17t9 -34q0 -16 -23.5 -26.5 t-53 -19.5t-56.5 -19.5t-33 -24.5q-16 -47 -18 -95t-12 -95l-14 -64q-7 -35 -15 -68q-6 6 -25.5 21.5t-19.5 30.5q0 8 5 39.5t10 68.5t10.5 69t5.5 40q0 12 -9.5 23.5t-25.5 11.5t-42 -4.5t-42 -4.5q-23 0 -57.5 3.5t-57.5 31.5q2 12 -5 24.5t-7 28.5z" />
<glyph unicode="," horiz-adv-x="247" d="M-53 -150q14 12 33.5 34l37 43.5t29.5 40t12 26.5q0 6 -8 15t-19.5 19.5t-19.5 20.5t-8 19q0 14 7 27.5t16 23.5q16 20 46.5 31.5t43.5 11.5q20 0 31.5 -10.5t17.5 -24.5t7 -29.5t1 -25.5q0 -14 -3 -23.5t-3 -21.5t-22.5 -48t-53.5 -75t-62.5 -70t-47.5 -31 q-12 0 -14.5 4.5t-12.5 4.5q0 6 -4 18t-4 20z" />
<glyph unicode="-" horiz-adv-x="714" d="M102 399q0 14 25 24.5t60.5 20t79.5 15.5t82 9l65.5 5t34.5 2q16 0 71 -4t103 -8q14 -8 26 -17q0 -18 -18 -47q-12 0 -28.5 2t-33.5 2q-86 0 -153.5 -7t-117.5 -14t-83 -14.5t-49 -7.5q-18 0 -41 11.5t-23 27.5z" />
<glyph unicode="." horiz-adv-x="319" d="M80 125q2 6 15.5 13t29.5 13.5t31.5 10.5t21.5 4q12 0 25.5 -11.5t23.5 -23.5l27 -35q0 -14 -13.5 -30.5t-30.5 -31t-35.5 -24.5t-29.5 -10q-25 0 -37 14.5t-16 34t-5 41t-7 35.5z" />
<glyph unicode="/" horiz-adv-x="724" d="M121 -59q0 4 26 53l64 115l75 136q38 71 60 120l50 116l58 135l61 142l63 137q4 12 22 29.5t31 17.5q14 0 29.5 -10t27.5 -14q-43 -76 -89 -167l-91 -186l-88 -188l-81 -177l-68 -152l-48 -111q-10 -25 -21.5 -33t-27.5 -8q-20 0 -36.5 17.5t-16.5 27.5z" />
<glyph unicode="0" horiz-adv-x="618" d="M33 289q0 12 4 36.5t11 53.5t15.5 58.5t16.5 51.5q10 31 32.5 77t53.5 81q20 25 54 54.5t68 55t63.5 44t41.5 18.5q20 0 48 -13t53.5 -32.5t43 -40t17.5 -35.5q0 -27 -8 -36l-17 -21q8 -43 9.5 -101.5t-9.5 -109.5q-2 -12 -13 -48t-29.5 -84t-44 -100.5t-56.5 -96.5 t-64.5 -72.5t-70.5 -28.5q-41 0 -81 34t-70.5 81t-49 95t-18.5 79zM174 303q8 -35 19 -59q10 -23 21 -41.5t24 -18.5q35 0 66.5 45t56 101.5t39 109t14.5 68.5q0 31 -14.5 55.5t-34.5 44.5q-23 -23 -57 -47t-44 -43l-28 -53q-16 -31 -29.5 -63.5t-23 -59.5t-9.5 -39z" />
<glyph unicode="1" horiz-adv-x="485" d="M-43 152q0 10 7 54t19.5 100t27 114.5t28.5 97.5q2 4 21.5 51t49 101.5t62.5 98.5t61 44q29 0 46.5 -14.5t26.5 -32.5t11 -34.5t2 -20.5q0 -10 -27 -63l-64 -121l-71 -144q-36 -76 -51 -131q-10 -37 -5 -88t24 -96q0 -4 4 -11q4 -4 7 -11t9 -11q-14 -8 -23 -28.5 t-34 -20.5t-48.5 23.5t-41.5 52t-29.5 56.5t-11.5 34z" />
<glyph unicode="2" horiz-adv-x="649" d="M2 109q0 16 17.5 51t44 80t59.5 95l65 98l60 89l43 68v31q-4 4 -5 6t-3 2h-7h-14q-41 0 -62.5 -19.5t-37 -44t-30.5 -44t-44 -19.5q-18 0 -32.5 11t-23.5 26.5t-13.5 31t-4.5 23.5q0 37 42 76t96.5 70.5t105.5 52t68 20.5q18 0 32.5 -6t28.5 -10q10 -16 18.5 -38 t13.5 -43.5t7 -40t2 -30.5q0 -31 -28.5 -90t-66.5 -123l-74 -120q-36 -56 -50 -81l18 -18l65 45l83 53q43 27 85 45.5t72 18.5q20 0 45 -14.5t25 -36.5q0 -23 -17.5 -40.5t-39 -31.5t-43 -24.5t-29.5 -16.5q-10 -10 -54 -45l-97 -74q-53 -39 -105.5 -68.5t-81.5 -29.5 q-18 0 -40.5 12t-43 30.5t-35 38.5t-14.5 34z" />
<glyph unicode="3" horiz-adv-x="616" d="M49 51q0 16 10.5 38t20.5 32q59 53 132 108.5t126 126.5q2 8 -7 15.5t-28 7.5q-10 0 -37 -15l-57 -34l-58 -34q-28 -15 -36 -15t-19.5 7t-22 17t-17.5 20.5t-7 18.5q0 20 27.5 60t63.5 83l68 81q32 38 40 55l-6 34q-25 -14 -53.5 -41.5t-45.5 -27.5q-14 0 -26.5 10 t-20.5 22.5t-12 23.5t-4 13q0 35 23.5 63t56.5 47t67.5 29.5t59.5 10.5q33 0 51 -14.5t26.5 -36t10.5 -45t2 -39.5q0 -8 -6 -24.5t-16 -36.5l-19 -40l-19 -36q10 -12 34 -16.5t44 -14.5q37 -23 54.5 -52.5t17.5 -52.5q0 -16 -12.5 -51t-22.5 -55q-4 -8 -44 -54t-92 -98.5 t-102.5 -95.5t-74.5 -43q-16 0 -43 16.5t-27 32.5z" />
<glyph unicode="4" horiz-adv-x="550" d="M-4 444q0 10 8 42t22.5 73t35 85t45 81t51 61.5t55.5 24.5q16 0 36.5 -19.5t20.5 -33.5q0 -16 -5 -21.5t-9 -11.5q-10 -6 -38 -41l-57 -76q-30 -41 -53.5 -80t-23.5 -57q0 -23 24.5 -36t32.5 -13q10 0 27.5 22.5t35 51t31 53t15.5 29.5l12 31q8 22 19 40q4 6 18 10.5 t29 10.5q8 -6 15 -17.5t7 -27.5q0 -12 -7 -39t-17.5 -54.5t-21.5 -50t-17 -28.5q8 -6 12 -14.5t20 -8.5q8 0 13.5 2t13.5 2t24.5 -3t49.5 -11v-55q-2 -16 -25.5 -21.5t-55.5 -7.5t-63.5 -7t-52.5 -24q-14 -12 -23.5 -31.5t-17.5 -43.5l-16 -47q-8 -24 -19 -42q-8 -16 -4 -32 l9 -34q4 -17 2 -34.5t-21 -34.5q-31 14 -48 47t-17 60q0 6 5 30.5t12 52t12 52t5 33.5q0 6 -16 29.5t-36.5 50t-37 51t-16.5 32.5z" />
<glyph unicode="5" horiz-adv-x="583" d="M-33 43q0 16 5 25.5t8 13.5q25 20 60 57l74 78q38 41 71.5 82t52.5 72v30q-16 -6 -46 1.5t-59 23.5t-49.5 41t-20.5 55q0 10 9.5 49t25 82t38 77t48.5 34q16 0 26.5 -12.5t25.5 -12.5q8 0 43 13l74 26l75 27q35 12 43 12q16 0 55 -5t66 -5l-8 -76q-47 -8 -112.5 -28.5 t-131.5 -48t-120 -61.5t-79 -67q39 -31 74 -38l61 -12q27 -5 41.5 -18.5t14.5 -58.5q0 -18 -20.5 -55t-51.5 -81t-68.5 -91t-73.5 -85t-65.5 -62.5t-42.5 -24.5q-14 0 -28.5 15.5t-14.5 27.5z" />
<glyph unicode="6" horiz-adv-x="583" d="M100 160q0 23 11.5 81t31 130.5t45 151.5t52 144.5t53 107.5t49.5 42q33 0 41 -20.5t8 -32.5q0 -16 -21.5 -45t-37.5 -60q-18 -37 -31.5 -76.5t-30.5 -80.5q-10 -23 -21 -54.5t-26 -60.5v-31q47 20 90 46t60 26q12 0 25.5 -8t23.5 -20.5t16 -25t6 -20.5q0 -25 -28.5 -82 t-68.5 -116.5t-84 -104.5t-75 -45q-25 0 -41 19.5t-27 45t-15.5 51.5t-4.5 38zM190 139q20 6 42 31t38 45q-23 -20 -48.5 -38t-31.5 -38z" />
<glyph unicode="7" horiz-adv-x="583" d="M59 659q0 18 14.5 37t30.5 33q51 43 122 67.5t132 24.5h38q22 0 42.5 -8t37 -26.5t24.5 -55.5q10 -45 0 -98q-4 -27 -8.5 -48.5t-2.5 -45.5q14 -16 38 -33t24 -39q0 -25 -13.5 -39t-31 -22.5t-35.5 -13.5t-29 -13q-25 -20 -41 -44t-27.5 -49.5t-20.5 -49t-19 -43.5 l-55 -97q-29 -51 -52 -98q-8 2 -22.5 7t-27.5 12.5t-22.5 15.5t-9.5 18t15 38l34 64l42 74q23 39 38 72q-12 0 -26.5 -5t-29.5 -11.5l-28.5 -12.5t-23.5 -6q-16 0 -28.5 14.5t-19.5 32t-11.5 32.5t-4.5 17q0 45 40 67t90 36l97 29q46 14 58 47q6 14 15.5 38.5t9.5 45.5 q0 27 -18.5 38t-35.5 11q-39 0 -74.5 -15.5t-66.5 -33t-55.5 -33t-38.5 -15.5q-8 0 -19.5 10.5t-20.5 24t-16.5 27.5t-7.5 22z" />
<glyph unicode="8" horiz-adv-x="583" d="M-53 487q0 49 27.5 107.5t70.5 110t92 85t92 33.5q18 0 40 -1t41.5 -12t37 -35.5t29.5 -72.5q4 -20 0 -47.5t-8 -52t-5.5 -41t9.5 -16.5q10 0 29.5 11t42.5 27l50 30q26 15 48 24q8 -8 17 -9t9 -24q0 -18 -14 -41.5t-27 -36.5q-47 -47 -103 -94t-110 -100q18 -16 44 -46 t26 -53q0 -16 -18.5 -52t-32.5 -60q-14 -25 -44 -45.5t-62.5 -36.5t-63.5 -25.5t-45 -9.5q-16 0 -31.5 11.5t-30 26.5t-22.5 32.5t-8 31.5q0 12 9 35t20.5 47.5t20.5 47t9 32.5t-21 34l-49 53q-27 30 -48 64.5t-21 67.5zM61 477q0 -10 13.5 -27.5t31 -34t36 -31.5l30.5 -24 l79 78q44 43 87 78q-25 35 -44.5 71t-29.5 68q-6 4 -12 10.5t-29 6.5q-27 0 -55.5 -24.5t-52 -57.5t-39 -66t-15.5 -47z" />
<glyph unicode="9" horiz-adv-x="550" d="M-18 399q0 18 13 57.5t36.5 85.5t53.5 96t61.5 90t63.5 66.5t58 26.5q25 0 43.5 -15t30.5 -39t19.5 -49.5t7.5 -45.5q0 -16 -10.5 -37t-26.5 -21q-10 0 -17.5 8.5t-14.5 17.5l-14 17.5t-18 8.5q-16 0 -43.5 -31t-56.5 -71t-51.5 -77.5t-30.5 -54.5q-2 -2 -2 -4t18 -2 q27 0 55.5 19.5t58.5 43t58.5 43t57.5 19.5q31 0 54.5 -34t23.5 -64q0 -10 -15 -49l-33 -83q-18 -46 -38.5 -92.5t-32.5 -70.5q-12 -25 -35 -66t-35 -82q-8 -8 -9 -10t-22 -2q-10 0 -20 7t-20.5 18.5t-16.5 22.5t-6 20q0 10 13.5 43.5t33.5 76.5l42 89l38 81q2 0 2 2 q0 4 -18 4q-10 0 -27.5 -13t-40.5 -28.5t-46.5 -27.5t-43.5 -12q-18 0 -36.5 12t-32 30.5t-21.5 39t-8 36.5z" />
<glyph unicode=":" horiz-adv-x="319" d="M76 117q0 8 5 22.5t15 28.5t22.5 23.5t28.5 9.5q18 0 39 -16.5t36.5 -39t25.5 -44t10 -29.5q0 -25 -7 -34t-7 -30h-111q-16 14 -36.5 49t-20.5 60zM90 741q0 23 2 36.5t12 33.5h41q125 0 125 -102q0 -27 -12 -44.5t-28.5 -28.5t-31 -15.5t-18.5 -4.5q-25 0 -41 17.5 t-27.5 39t-16.5 42t-5 26.5z" />
<glyph unicode=";" horiz-adv-x="464" d="M-76 -270l107 144q57 77 104 150.5t72.5 139t9.5 115.5q2 10 3 22t1 31h43q12 0 23.5 -11.5t20.5 -28t14.5 -35.5t5.5 -36q0 -63 -37 -138t-88 -147.5t-102.5 -138t-80.5 -108.5h-73q-8 10 -11.5 20.5t-11.5 20.5zM180 737q0 6 3 21.5t10.5 32t17.5 28.5t25 12 q14 0 29.5 -20t27.5 -45t19 -48.5t7 -29.5q0 -35 -22.5 -51t-46.5 -16q-16 0 -28.5 15t-22 34.5t-14.5 39t-5 27.5z" />
<glyph unicode="&#x3c;" horiz-adv-x="657" d="M55 291q0 20 13.5 32.5t32 19.5t38 12t31.5 14q59 47 115.5 102t113.5 119q27 31 51.5 66.5t50 66.5t51.5 51.5t52 20.5q37 0 49.5 -22.5t12.5 -33.5q0 -16 -18.5 -32.5t-31.5 -32.5l-92 -106l-81 -89l-84 -88l-101 -100q23 -29 70 -61l95 -62q48 -31 84 -60.5t36 -54.5 q0 -33 -21.5 -52t-38.5 -19q-25 0 -50 14t-52 36l-55 46q-29 25 -56 43q-37 27 -92 54.5t-98 43.5q-4 12 -14.5 34t-10.5 38z" />
<glyph unicode="=" horiz-adv-x="808" d="M121 512q0 14 13 29.5t22 27.5q55 4 129 17l142 24l120 22q51 9 61 9q8 0 23.5 -2t31 -7t25.5 -13.5t10 -20.5q0 -16 -12 -24.5t-22 -24.5q-41 -4 -86.5 -12.5t-81.5 -24.5q-16 -6 -39 -20.5t-45 -20.5q-23 -6 -52.5 -12t-57.5 -10.5t-50.5 -6.5t-32.5 -2h-51 q-18 0 -32.5 27t-14.5 45zM133 270q0 27 24.5 49.5t61.5 41t82 32t85 22.5t69.5 13t38.5 4q16 0 33.5 8.5t33.5 8.5q14 0 44 -2.5t59.5 -9.5t52 -19t22.5 -31q0 -18 -2 -23.5t-10 -19.5q-33 -2 -78 -7t-95 -14.5t-100.5 -22.5t-95.5 -28l-41 -16l-50 -20l-47 -19 q-22 -8 -30 -8q-39 0 -48 20.5t-9 40.5z" />
<glyph unicode="&#x3e;" horiz-adv-x="655" d="M23 20q0 16 9 25.5t11 22.5q18 12 54 40l79 62l87 72l81 70q37 34 60.5 58.5t23.5 32.5t-14 32l-36 57l-47 71q-26 39 -48 78q-14 25 -44 48.5t-53 45.5q-14 14 -14 56q0 47 53 47q27 0 52.5 -20.5t46 -48.5t34 -57.5t15.5 -47.5l17 -18q11 -11 16 -19q14 -29 34.5 -64 t51.5 -67q16 -16 45.5 -33t46.5 -33q4 -4 13 -17.5t9 -27.5q0 -18 -6 -28.5t-14 -18.5q-20 -16 -42 -22.5t-42 -18.5q-23 -14 -43.5 -33.5t-42.5 -36.5l-110 -83q-56 -42 -109 -87l-27 -20q-16 -12 -32.5 -22.5t-32 -18.5t-23.5 -8h-39q-6 8 -13 12t-7 20z" />
<glyph unicode="?" horiz-adv-x="774" d="M215 930q0 39 36 81t86 74.5t104.5 54t90.5 21.5q51 0 78 -17.5t38 -43t12.5 -54t1.5 -53.5q0 -55 -23 -114.5t-53 -121.5l-65 -125q-34 -62 -56 -122q-16 -43 -23.5 -103.5t-17.5 -111.5q-18 6 -33.5 20.5t-26 29.5t-15.5 28.5t-5 17.5q0 68 35 152t76 164l72 144 q32 65 26 93q-4 12 5 23.5t9 29.5q0 39 -41 39q-12 0 -55 -15t-80 -37.5t-52 -51.5t28 -53v-43q-49 2 -79 13t-46.5 24.5t-21.5 29t-5 27.5zM332 74q0 18 7 25t7 22q33 -2 75 -4t77 -37l-34 -67q-13 -26 -54 -25q-39 0 -58.5 31.5t-19.5 54.5z" />
<glyph unicode="@" horiz-adv-x="946" d="M154 193q0 45 7 77.5t40 85.5q18 29 44 63l54 69l60 72l61 69q68 76 123 101.5t114 25.5q45 0 80 -24.5t45 -59.5q4 -23 11.5 -48.5t7.5 -37.5t-7.5 -45t-11.5 -56q-14 -49 -24 -98t-26.5 -96t-46.5 -90t-83 -76q-8 -4 -21.5 -2t-23.5 -2l-119 -75q-53 -34 -110 -34 q-41 0 -73 17.5t-54.5 44t-34.5 58.5t-12 61zM221 182q0 -41 22.5 -65.5t69.5 -24.5q20 0 50 8.5t59 19.5t52.5 24.5t33.5 25.5l-19 30q-12 19 -22 19q-12 0 -29.5 -15.5t-36.5 -15.5q-20 0 -41.5 21.5t-21.5 48.5q0 29 22.5 79t50 101t53 93t32.5 55q-31 -23 -78 -71 t-91 -106.5t-75 -119t-31 -107.5zM551 266q0 -31 10 -41h25q47 31 68.5 73t31.5 71l17.5 60.5t16.5 65t11 56t4 31.5q0 41 -16.5 59t-61.5 18q-20 0 -46.5 -9t-37.5 -25q31 -10 41.5 -27.5t10.5 -40.5q0 -14 -6.5 -48t-14.5 -58l-12 -36l-18 -50q-9 -27 -16 -54t-7 -45z" />
<glyph unicode="A" horiz-adv-x="966" d="M0 98q0 35 35 74t82 102l79 116l103 158l114 172l108 157q50 70 88 114.5t55 44.5q27 0 35 -10t14 -20q6 -23 12 -57t10 -68.5t6 -63.5t2 -41q0 -10 -10 -40l-22 -64l-23 -66q-10 -31 -10 -43q0 -41 10 -61.5t22.5 -32.5t22.5 -23.5t10 -33.5q0 -29 -12 -43.5 t-28.5 -25.5t-34 -26.5t-27.5 -46.5q-8 -25 -2 -52.5t9 -58t-4 -61t-38 -59.5q-49 14 -69.5 43t-23.5 62q-1 14 -1 29q0 19 2 39q4 34 4 56q-10 10 -12 11h-27q-90 0 -145 -20.5t-89 -52.5t-52.5 -68t-33 -67.5t-34 -52t-51.5 -20.5q-23 0 -37 13.5t-22.5 30.5t-11.5 33.5 t-3 22.5zM453 504q0 -12 12 -16q9 -2 21 -2h9q17 1 34.5 4.5t27.5 3.5q0 18 6 51t6 104h-49q-4 -16 -15 -36l-23 -40q-11 -20 -20 -38.5t-9 -30.5z" />
<glyph unicode="B" horiz-adv-x="688" d="M-25 145q0 12 5.5 48l13.5 86l17 105q9 56 16 108q6 43 17 91l21.5 98t16.5 100q5 38 5 75q0 12 -1 25q4 10 13.5 29.5t11.5 25.5q39 2 93 12t108 23l97 21q42 9 56 9q31 0 58.5 -9t50 -25.5t36 -37t13.5 -42.5q0 -14 -11.5 -44t-25 -61.5t-24.5 -61.5t-11 -42 q0 -25 23.5 -44.5t35.5 -41.5q-2 -10 5.5 -23.5t7.5 -42.5q0 -47 -34 -100t-80 -102.5t-95 -89t-82 -56.5q-12 -6 -28.5 -24.5l-33.5 -38.5l-31 -41q-15 -20 -26 -31q-27 -23 -60.5 -35t-62.5 -12t-50.5 22.5t-35.5 50t-21.5 51t-7.5 25.5zM119 297q0 -23 9 -42t9 -30 l121 100l133 113h-51q-31 -20 -70 -31.5t-72.5 -24.5t-56 -32.5t-22.5 -52.5zM193 625q13 -10 28 -10q12 0 25 7q29 15 57.5 41.5t55 57.5t49.5 43q-6 4 -13.5 8t-11.5 8q-8 4 -12 4q-29 -16 -56.5 -24t-51 -22.5t-43 -39t-27.5 -73.5z" />
<glyph unicode="C" horiz-adv-x="839" d="M76 309q0 31 24.5 96.5t64.5 143.5t92 161t106.5 150.5t107.5 110.5t96 43q33 0 54.5 -22.5t34 -50.5t17.5 -52.5t5 -26.5q0 -45 -16.5 -71.5t-30 -57.5t-17.5 -75q-1 -6 0 -13q0 -42 21 -108q-10 0 -22.5 -15.5t-37.5 -15.5q-23 0 -39 28.5t-30 65.5t-24.5 69.5 t-16.5 43.5q-41 -33 -79 -80t-69.5 -97.5t-54 -97.5t-33.5 -78q-6 -16 -11 -31.5t-5 -39.5q0 -29 15.5 -49.5t35 -35t39 -20.5t27.5 -6q12 0 66 24l117 52l118 52q55 24 67 24q27 0 39.5 -18.5t22.5 -28.5q-10 -23 -28.5 -54.5t-35.5 -44.5q-20 -16 -64 -35.5t-81 -42.5 q-16 -10 -31.5 -31.5t-38.5 -29.5q-31 -10 -79 -20.5t-72 -10.5q-59 0 -106.5 30t-80 74t-50 96t-17.5 95z" />
<glyph unicode="D" horiz-adv-x="753" d="M152 299v37q0 25 1 53.5t3 58t6 54.5q4 29 15 63.5l22.5 73.5t21.5 80t15 82q2 23 -10.5 45t-4.5 45q2 14 15.5 37.5t39.5 36.5q41 20 93.5 28t81.5 8q74 0 123 -26.5t77.5 -66.5t41 -87t12.5 -88q0 -104 -40 -194t-102.5 -175t-136.5 -170t-141 -180h-68q-25 0 -33 29 t-22 51q2 23 0 51l-4 59q-2 30 -4 55.5t-2 39.5zM303 299q25 12 72 68.5t94 127t82 138t35 100.5q0 20 -33 40t-66 20q-31 0 -53 -8.5t-26 -16.5q-16 -29 -36 -75t-35 -92t-24.5 -83t-9.5 -49v-170z" />
<glyph unicode="E" horiz-adv-x="813" d="M92 207q0 8 9 38l22 69l27 85q14 45 24 82l20 63q11 36 24 72l27 73l23 65q6 14 10.5 37.5t11.5 50t19.5 49t34.5 35.5q49 27 124 43t145.5 24t125 10.5t66.5 2.5q35 0 63.5 -19.5t28.5 -42.5t-31.5 -41t-80 -34.5t-108 -34t-114.5 -37t-99 -43t-63 -52.5l21 -18 q25 16 56.5 26.5t53.5 10.5q31 0 62 -12.5t31 -42.5q0 -20 -8.5 -48t-18.5 -53l-71 -19q-40 -11 -83 -27.5t-82.5 -39t-70.5 -53.5q-12 -14 -23.5 -35.5t-20.5 -44t-14.5 -43t-5.5 -33.5v-84q8 0 9.5 -5t23.5 -5q16 0 47 16.5t68 41t76 54.5l70 54l53 41q22 16 26 16 q20 0 41 -22.5t21 -44.5q0 -25 -23 -57.5t-58.5 -68.5t-76.5 -71t-79 -62.5l-65.5 -46t-35.5 -20.5q-17 -5 -43 -4h-18q-19 1 -36 1t-32 -1q-10 10 -26.5 35.5t-34 56.5t-30 62t-12.5 51z" />
<glyph unicode="F" horiz-adv-x="716" d="M80 152q0 12 2 35.5t5 52t7 58.5t8 52q23 137 67 271.5t97 263.5q14 33 50 56.5t77 38.5t78 23.5t53 8.5q10 0 39 -6.5t60.5 -17.5t60.5 -23.5t37 -24.5v-102q-37 -10 -83 -13q-23 -1 -45 -1t-42 1h-8q-49 0 -90 -24q-45 -27 -80 -67t-54.5 -88t-19.5 -91q0 -23 14.5 -29 t38.5 -6q12 0 30.5 6t38 14.5t38 14.5t30.5 6q27 0 30 -8t24 -8q0 -10 8 -18.5t8 -32.5q0 -47 -48 -82t-107.5 -60.5t-110.5 -43t-60 -29.5q-29 -47 -30.5 -74t7.5 -46.5t21.5 -38t12.5 -44.5q0 -25 -8.5 -32t-8.5 -28q-10 0 -14 -8t-31 -8q-31 0 -50 22.5t-30.5 50 t-16.5 51.5t-5 28z" />
<glyph unicode="G" horiz-adv-x="770" d="M98 287q0 27 13.5 92t38 147t57.5 169t71.5 160t83 120t89.5 47q39 0 62.5 -19.5t36.5 -46t17 -54.5t4 -46q0 -20 -7 -50t-7 -50q0 -4 -4 -8q-6 -6 -27 -7q-23 0 -36 28t-41 62q-35 -20 -76 -89.5t-77 -156.5t-59.5 -174t-23.5 -143q0 -14 4 -32.5t11.5 -34t17.5 -25.5 t24 -10q12 0 32 16.5t43.5 41t48.5 54.5l50 58q-16 10 -34.5 3t-42.5 -7q-20 0 -35 12t-24 28.5t-13 30t-4 17.5q0 18 25.5 42.5t57.5 47t61.5 39t37.5 20.5q16 4 42 4h50q20 0 33.5 -16t22 -37.5t11.5 -40t3 -20.5q0 -31 -17.5 -75t-46 -94t-66.5 -99.5t-78 -89.5 t-81 -64.5t-76 -24.5q-43 0 -75.5 35t-54 81t-32 92.5t-10.5 66.5z" />
<glyph unicode="H" horiz-adv-x="831" d="M61 223q0 45 22.5 138.5t55.5 194.5t69 187t60 117q6 6 12.5 22.5l14.5 36t19.5 41t25.5 39.5l14 5.5t29 1.5q35 0 60.5 -28t25.5 -50q0 -20 -25.5 -50l-52.5 -65q-25 -37 -41 -82t-26 -84q6 -6 6 -8v-2l4 1q4 1 16 1t39 6t58.5 15.5t63.5 21.5t54 25q27 16 46.5 45.5 t37 67.5t33.5 79t41 80h74q0 -10 13 -29.5t13 -42.5q0 -10 -8 -31.5t-20 -46.5l-26 -49q-13 -25 -21 -45q0 -10 6 -28.5t11 -39t6 -41t-7 -38.5q-29 -10 -58.5 -28.5t-43.5 -49.5q-39 -78 -61.5 -179.5t-49.5 -199.5q-2 -8 -14.5 -30.5t-34.5 -41.5q-35 18 -53.5 47 t-18.5 52q0 12 7 43.5t17.5 72.5t25 84t28.5 78v35q-4 6 -5 8t-3 2h-7h-18q-10 0 -43 -16t-74 -40l-86 -48q-45 -25 -77 -39l-10 -67q-5 -38 -5 -66q0 -12 8 -29l18 -34l17 -33q8 -16 8 -29q0 -23 -18 -41.5t-39 -30.5q-37 4 -59.5 32t-34.5 61.5t-15.5 68.5t-3.5 53z" />
<glyph unicode="I" horiz-adv-x="559" d="M78 184q0 20 21.5 91t56.5 164l76 198q42 104 83 191t75 144.5t54 57.5q27 0 48.5 -16.5t36 -37t21.5 -41t7 -26.5q0 -8 -14.5 -37.5t-37.5 -71.5l-53 -93l-60 -105l-57 -102q-28 -49 -46 -88q-16 -33 -27 -90l-20 -115q-3 -23 -4 -53q0 -8 1 -16q1 -40 9 -75 q-6 -14 -19.5 -34.5t-46.5 -20.5q-29 0 -48 25.5t-31.5 57.5t-18.5 60.5t-6 32.5z" />
<glyph unicode="J" horiz-adv-x="729" d="M-29 362q0 70 4.5 141.5t44.5 139.5h70q4 -6 14.5 -14t21.5 -18.5t20.5 -23t9.5 -26.5t-9.5 -36.5t-21.5 -47t-21.5 -47t-9.5 -37.5q0 -29 15 -80l26 -98q49 25 91 77t78 119.5t67.5 147.5l60.5 160l55 155q27 76 54 136h100q0 -23 9 -46.5t9 -52.5q0 -12 -11 -36.5 t-28 -55.5l-35 -64l-30 -61q-8 -18 -11 -44.5t-14 -47.5q-23 -37 -47 -95l-52 -126q-28 -68 -59.5 -134.5t-68.5 -121.5t-80 -89t-92 -34q-41 0 -68.5 22.5t-45 57.5t-26.5 77t-13.5 83t-5.5 72.5t-1 47.5z" />
<glyph unicode="K" horiz-adv-x="1110" d="M139 184q0 27 10.5 93.5t28.5 134.5q12 39 35 99l50 128l58 134q30 67 58.5 120t52 87t37.5 34q43 0 50 -26q4 -14 4 -32q0 -15 -3 -33q-6 -40 -15 -87q-4 -20 -4 -40q0 -26 7 -51q33 29 78 65t95 68.5t100 54t98 21.5q27 0 59.5 -22.5t52.5 -44.5q-55 -55 -120 -96 l-129 -83q-65 -42 -125 -94.5t-105 -128.5q39 -33 87 -52t98 -34l97 -28q46 -14 80.5 -37t54 -55.5t17.5 -83.5q-23 -10 -39 -14.5t-51 -4.5q-12 0 -60 5t-113 15.5t-133.5 26t-121.5 33.5q-12 4 -25.5 16.5t-25.5 27.5t-22.5 30.5t-16.5 27.5h-51q0 -35 -6.5 -67.5 t-6.5 -61.5q0 -14 11.5 -33.5t26 -41t25.5 -41t11 -33.5q0 -25 -30.5 -46.5t-59.5 -21.5q-47 0 -71.5 18.5t-35 45t-11.5 56t-1 52.5z" />
<glyph unicode="L" horiz-adv-x="937" d="M162 176q0 27 12 80t30 111l34 107q16 50 22 73l69 228l70 245h7q20 0 43 -9q27 -11 45 -22q4 -23 12 -58.5t8 -64.5q0 -10 -19 -60l-48 -118l-57 -140q-30 -73 -48 -124q-4 -12 -10 -32.5t-11.5 -43t-8.5 -43t-3 -33.5q0 -45 37 -45q14 0 74 30l128 67l128 66 q59 30 74 30q12 0 22 -7t20.5 -16.5t20.5 -17.5t23 -8q-20 -33 -59.5 -73t-88.5 -80t-103.5 -78t-105.5 -67.5t-96 -47t-74 -17.5q-90 0 -118.5 44t-28.5 124z" />
<glyph unicode="M" horiz-adv-x="1015" d="M86 252q0 12 21.5 64.5t57.5 125.5l81 160q45 86 92 167t92 147.5t80 99.5q45 -12 61.5 -44t20.5 -73t6 -86t16 -86l46 54l67 78q35 40 68.5 69.5t54.5 29.5q33 0 53.5 -17t31.5 -40.5t14 -49.5t3 -44q0 -59 -26.5 -132t-63.5 -151l-76 -154q-39 -77 -61 -143 q-6 -16 -6 -37q0 -15 3 -32q7 -43 21 -66q4 -8 -3 -27.5t-7 -41.5q-10 0 -18 -8.5t-37 -8.5q-23 0 -41.5 18.5t-31.5 43t-20 50t-7 40.5q0 33 11 70l24 81q13 43 25.5 90t14.5 99q-41 -41 -85 -98.5t-113 -118.5q-18 16 -30.5 41.5t-22 53t-16.5 55.5t-19 52 q-37 -41 -57.5 -74.5t-32 -65.5t-16.5 -62.5t-13 -65.5q-4 -20 -22.5 -45t-28.5 -47q-20 10 -41 30.5t-36.5 41t-24.5 37t-9 20.5z" />
<glyph unicode="N" horiz-adv-x="935" d="M61 154q0 8 10.5 40.5l27.5 81.5l40 110l46 121l46 116l41 98q4 12 25.5 30.5t50.5 18.5q12 0 30.5 -4t35 -16.5t31 -34t18.5 -53.5q10 -78 24.5 -152t26.5 -152q31 20 62.5 81t63.5 141l63 168q32 88 64 161.5t64.5 121.5t67.5 48q18 0 32.5 -18.5t24 -43t13.5 -47 t4 -30.5q0 -12 -21 -43l-47 -71q-27 -40 -52.5 -85t-37.5 -84q-18 -59 -44 -131.5t-44 -132.5q-2 -4 -13.5 -34.5t-30.5 -73.5l-43 -92q-24 -49 -50.5 -90.5t-53 -69t-49.5 -27.5q-16 0 -30.5 14.5t-27.5 37t-23.5 49t-16.5 51.5q-14 66 -23 130l-20 130q-43 -35 -66.5 -84 t-38 -100.5t-24.5 -98.5t-27 -80q-23 -2 -47 -6t-47 -14q-12 23 -23.5 56.5t-11.5 62.5z" />
<glyph unicode="O" horiz-adv-x="765" d="M37 285q0 10 9 60t22.5 114.5t29.5 133.5l29 118q12 47 37.5 114.5t66.5 116.5q14 18 41 38.5t55.5 36t55.5 26t39 10.5q49 0 82 -20.5t51 -50.5t26.5 -64.5t8.5 -61.5q0 -23 -7.5 -69t-17.5 -80q-8 -29 -13 -60t-13 -61q0 -2 -16.5 -44t-44 -105.5t-64.5 -137.5 t-78 -137.5t-83 -105.5t-81 -42q-35 0 -59.5 38t-42 86t-25.5 92.5t-8 54.5zM174 244q18 10 47 42.5t61.5 78t65.5 99.5t59.5 105.5t43 94.5t16.5 69v88q-12 -4 -28.5 -6t-32 -3t-27.5 -2t-17 -7q-66 -78 -99.5 -148.5t-49.5 -138t-22.5 -135t-16.5 -137.5z" />
<glyph unicode="P" horiz-adv-x="886" d="M86 127q0 51 17.5 120.5t40.5 142.5l47 141q24 69 36 118l41 155t62 167q10 18 33.5 30.5t50.5 12.5q25 0 56.5 -13.5t55.5 -13.5q29 0 43.5 13.5t36.5 13.5q31 0 69 -8.5t69.5 -26.5t54 -47t22.5 -72q0 -90 -51 -161.5t-128 -129t-166 -100.5t-167 -74 q-14 -6 -27.5 -21.5t-23.5 -36t-16 -41t-6 -36.5q0 -20 -8.5 -38.5t-4.5 -39.5l6 -16q-10 -20 -3 -40t10 -40q-4 -16 -14.5 -31.5t-22 -28t-21.5 -19.5t-12 -7q-31 0 -46.5 17.5t-23.5 39t-9 42t-1 28.5zM369 588q23 8 64.5 32.5t83.5 57.5t76 68.5t40 66.5h-152 q-23 0 -43 -25.5t-35.5 -57.5t-24.5 -61.5t-9 -37.5v-43z" />
<glyph unicode="Q" horiz-adv-x="782" d="M43 258q0 14 17.5 76.5t48 147.5t70.5 180.5t85 175.5t93.5 133t93.5 53q25 0 33 -14.5t32 -14.5q12 0 34 7l44 15l44 14q22 7 34 7q39 0 66.5 -17t45 -43t24.5 -54.5t7 -49.5q0 -29 -15.5 -73.5t-39.5 -98.5l-51 -107l-52 -100l-40 -77q-15 -31 -15 -37q0 -12 11 -39 l24 -56l23 -58q11 -28 12 -40q0 -25 -11.5 -40t-19.5 -37h-49q-33 31 -55.5 64.5t-49.5 33.5q-14 0 -53 -32l-84 -68l-84 -69q-39 -32 -51 -32q-33 0 -63.5 32t-55 74t-39 84t-14.5 60zM186 272q0 -23 15.5 -47t36.5 -30q43 27 72.5 64.5t46 77.5t18.5 80v13q0 32 -8 57 q14 37 63 37t94 -28q45 68 88 158.5t74 166.5q-10 2 -20 3q-25 0 -53 -15q-38 -20 -75.5 -53t-72.5 -70t-62 -59q-29 -29 -64.5 -43.5t-47.5 -34.5q-18 -31 -38 -73t-34 -84t-23.5 -75t-9.5 -45z" />
<glyph unicode="R" horiz-adv-x="729" d="M-43 84q0 10 4 31.5t10 48.5l13 53l10 45l21 105q13 63 31 136l35 145q17 73 34 132q4 18 0 41t0 41q10 45 46 77t81 52.5t91 29.5t75 9q57 0 92 -21.5t53 -51t24.5 -62.5t6.5 -55q0 -78 -34 -146.5t-75 -128.5l-75 -109q-34 -50 -33 -91q0 -29 23.5 -50.5t59 -38 t78.5 -26.5l84 -19l73 -14q32 -6 44 -10q10 -6 29 -24l28 -27v-90h-71q-41 0 -81 -1.5t-72 -1.5h-44q-12 0 -32 6l-42 11q-23 6 -46 14l-42 15q-10 2 -35.5 34.5t-51 73.5t-46 83t-20.5 65q0 10 5 29.5t13 42t18.5 46t20.5 41.5q14 23 43 57l57 70q29 37 51.5 73t22.5 62 q0 12 -2 16.5t-4 6.5t-4 5t-2 13h-76q-47 0 -74.5 -39.5t-43 -90t-22.5 -95.5t-9 -55l-40 -128t-34 -145q-4 -23 -5 -53l-2 -61q-1 -31 -4 -58.5t-10 -46.5q-4 -10 -20 -27.5t-43 -17.5t-54.5 23.5t-27.5 50.5z" />
<glyph unicode="S" horiz-adv-x="526" d="M-29 98q0 33 30 82t72 103l87 106q45 53 76 96q-29 29 -72 59.5t-78 76.5q-6 8 -14.5 27.5t-14.5 41t-11 42t-5 32.5q0 20 21.5 67.5t54.5 95.5t73.5 84t77.5 36q49 0 90 -46v-127q0 -12 -9 -14t-22.5 -1t-28.5 3t-26 0q-10 -12 -26 -28l-32 -32q-15 -15 -25.5 -28.5 t-10.5 -23.5q0 -35 33 -52.5t72 -36t71.5 -46t32.5 -80.5q0 -47 -32.5 -108.5t-72.5 -120t-75 -101.5t-39 -53q-8 -16 -8 -48t-15 -51q-16 -23 -33.5 -34t-43.5 -11q-12 0 -30 9.5t-32 22.5t-24.5 29.5t-10.5 28.5z" />
<glyph unicode="T" horiz-adv-x="774" d="M78 920q10 10 23 20l24 18q33 2 92 9.5l121 15.5l113 15q51 7 65 8q25 0 77 -4.5t104.5 -17.5t92 -36.5t39.5 -62.5q0 -23 -18 -34t-46 -16.5t-62 -8.5l-65 -6q-32 -3 -57.5 -9t-37.5 -20q-47 -55 -91 -130t-81 -156t-66 -165t-45 -160l14 -10q0 -25 -10 -76t-20 -94h-80 q-8 23 -26.5 48.5t-18.5 49.5q0 10 3 31t7 44l8 47q4 24 6 42q4 33 22.5 76t33.5 82q27 74 59.5 154.5t73.5 166.5q-39 29 -87 35t-88 15.5t-64 34.5q-17 19 -17 61q0 16 2 33z" />
<glyph unicode="U" horiz-adv-x="987" d="M139 406q0 27 18.5 70.5t22.5 78.5q0 10 6.5 45t16.5 81t25.5 97t35 93t43 70t51.5 28q12 0 28.5 -12.5t31 -29t25 -36t10.5 -33.5t-22.5 -54t-48.5 -98.5t-48.5 -129t-22.5 -146.5q0 -29 10.5 -65.5t33 -69.5t56 -54.5t81.5 -21.5q25 0 43 19.5t33.5 45t25.5 50t20 37.5 q23 31 47.5 72.5t45.5 82.5q6 12 18 55l29 96l36 114q19 59 40.5 109t42 83t40.5 33q27 0 41.5 -10.5t20.5 -24.5t7 -26.5t1 -18.5q0 -12 -11 -46l-27 -77l-33 -88q-17 -45 -29 -80q-4 -10 -18.5 -61.5t-40 -123t-59.5 -152.5t-75 -149.5t-90 -113.5t-102 -45h-46 q-24 0 -52.5 8t-60.5 29.5t-69 62.5q-25 27 -48 73t-41.5 93t-30 86.5t-11.5 53.5z" />
<glyph unicode="V" horiz-adv-x="684" d="M98 301q0 14 4 64.5t12.5 117t23 140t32.5 135t43 101.5t55 40q29 0 33 -9t27 -9q0 -10 9 -20.5t9 -39.5q0 -27 -19.5 -53.5t-23.5 -48.5l-17 -90q-9 -49 -16.5 -96.5t-11.5 -85t-4 -52.5q0 -27 -1 -37t9 -32q78 76 135.5 167t107.5 189l100 200q50 101 118 201h102 q0 -12 8.5 -22t8.5 -39q0 -12 -14.5 -38t-34.5 -56l-43 -63l-39 -56q-4 -6 -32 -69l-70 -152l-92 -194q-50 -103 -100 -190t-95.5 -145.5t-75.5 -58.5q-49 0 -79 44t-45.5 99.5t-19.5 103.5t-4 54z" />
<glyph unicode="W" horiz-adv-x="915" d="M80 133q0 12 4 51t10 88l14 104l13 97q8 53 16 129t20.5 148.5t32 126t52.5 61.5l30 -18q8 -37 11 -79q1 -28 1 -57v-28l-2 -85q0 -14 -1 -28q0 -27 2 -51q-4 -10 -6.5 -29.5t-12.5 -30.5q6 -6 7 -10t3 -7t7.5 -4t19.5 -1q12 0 33.5 29.5t46.5 72.5l51 90l49 82 q14 2 40 -13t36 -38l22 -168q11 -88 33 -180q14 -2 23.5 13.5t21.5 43.5q57 135 102.5 288t104.5 314h68q23 -23 45 -50t22 -56q0 -12 -10 -33.5t-25 -46.5l-31 -50q-15 -26 -24 -48q-33 -86 -54 -178.5t-51 -179.5t-77 -165.5t-133 -140.5q-23 6 -45.5 39t-43 75t-37.5 83 t-30 63q-31 -16 -47 -48t-49 -72q-2 -2 -19.5 -39t-42 -80t-51 -78t-49.5 -35q-14 0 -31.5 14.5t-33 35t-25.5 43t-10 36.5z" />
<glyph unicode="X" horiz-adv-x="815" d="M20 74q0 12 16.5 41.5t40.5 65.5l47 70l38 54q10 16 33.5 33.5t40.5 40.5q4 8 11 19.5t7 37.5q0 12 -15 56l-33 92l-33 92q-15 43 -15 55q0 23 7 49.5t21.5 50t35 40t44.5 16.5q23 0 44.5 -14.5t27.5 -32.5q-8 -37 -17.5 -68t-11.5 -59.5t11.5 -59t50.5 -67.5 q31 12 62.5 49t63.5 84l65 99q34 52 67 95t65.5 71t65.5 28q14 0 29.5 -9.5t26.5 -21.5t18.5 -23.5t7.5 -15.5q0 -23 -16.5 -55.5l-32.5 -61.5q-29 -14 -65 -47t-73 -73.5t-71 -83.5l-63 -79q-28 -36 -45 -61l-17 -24q0 -23 39 -65l86 -89l88 -92t47 -72 q-10 -10 -26.5 -21.5t-43.5 -11.5q-29 0 -69.5 24t-83.5 54.5t-84 63.5t-70 51q-23 -14 -48 -62l-56 -102q-31 -53 -64 -95t-65 -42q-12 0 -26.5 7t-29 18.5t-24 25t-9.5 25.5z" />
<glyph unicode="Y" horiz-adv-x="634" d="M-14 944q0 45 20.5 62.5t52.5 17.5q29 0 37 -4t15 -14q35 -90 70.5 -201t78.5 -221h41q4 6 20 38l36 73l46 90q25 48 49.5 88t47 67t37.5 27q29 0 40 -9.5t23 -13.5q12 -18 28.5 -48t16.5 -54q0 -10 -11 -23.5t-27.5 -29t-33 -33t-26.5 -35.5l-61 -108l-64 -116 q-33 -60 -61.5 -122t-49.5 -123q-8 -25 -5 -57l6 -67q2 -17 2 -33t-2 -32q-3 -31 -23 -51h-51q-20 31 -34 74l-24 78q-4 18 -2 42.5t5 51.5t5 52.5t-2 43.5q-12 51 -29.5 102.5t-29.5 104.5q-10 45 -34 106l-47 116l-42 102q-18 45 -18 59z" />
<glyph unicode="Z" horiz-adv-x="937" d="M49 111q0 16 32 63t79 110l103 135l104 139q47 67 78.5 123t31.5 87q0 23 -7 32t-17.5 12t-21.5 1t-17 -2q-14 0 -42 -7t-59 -14l-59 -15q-29 -7 -41 -7t-30.5 10t-35 25.5t-29 34t-12.5 36.5q0 12 8.5 29t19.5 32t24.5 26.5t23.5 13.5q37 8 82 12t88 6t77 2h48 q18 0 58 -3t81 -14t72 -32.5t31 -56.5q0 -29 -19.5 -75t-51.5 -101.5l-68 -113.5l-72 -111l-63 -93q-28 -41 -39 -61q61 -27 137 -32l151 -10q76 -5 139.5 -22.5t100.5 -66.5q-12 -10 -26.5 -35t-37.5 -29q-57 -4 -117 -4q-30 0 -62 1q-13 0 -26 1q-79 0 -151 -16 q-43 -10 -104 -33l-120 -46l-104 -41q-45 -17 -59 -17q-12 0 -25.5 15t-24.5 35.5t-19.5 42.5t-8.5 34z" />
<glyph unicode="[" horiz-adv-x="872" d="M82 -2q0 8 4 29l9 46q5 26 13 55l13 56q12 53 31 121l38 138l41 140l37 123l26.5 91t10.5 43q0 8 -10 29l-22 44l-21 42q-10 19 -10 28q0 20 11 29.5t11 17.5q84 -6 137.5 7.5t96.5 30.5t88 32.5t114 15.5q25 0 43.5 -1t30.5 -11t19.5 -31.5t13.5 -60.5l-27 -17 q-16 -10 -30 -14l-123 -23q-66 -12 -131 -47q-23 -12 -37.5 -29.5t-23.5 -39t-16 -44t-16 -40.5q-10 -25 -19 -63t-19 -64q-10 -35 -32 -80t-32 -80l-32 -110l-32 -116l-27 -99q-11 -42 -11 -52q0 -33 18.5 -43t34.5 -10q10 0 41 3t65.5 7t65.5 7t41 3q25 0 57.5 2.5t61 -4 t47 -27t16.5 -65.5q-12 -25 -39.5 -35t-58.5 -14t-60.5 -5t-48.5 -5l-93 -17.5t-73 -9.5h-102q-18 0 -34.5 13.5t-29 32t-19.5 38t-7 33.5z" />
<glyph unicode="\" horiz-adv-x="428" d="M-100 985q0 8 6 21.5t14 25.5t18.5 21.5t20.5 9.5q14 0 35.5 -20.5t42 -47t36 -50t17.5 -32.5q4 -12 -4 -34.5t0 -42.5q27 -61 65.5 -127t71.5 -136q8 -18 24 -41l33 -47l34 -49q17 -25 30 -47l46 -92l49 -104q24 -51 39.5 -90.5t15.5 -47.5q0 -18 -5.5 -22t-5.5 -21 q-6 0 -21.5 -5t-31.5 -5q-8 0 -26 32l-36 70l-36 74q-16 35 -21 41l-53 107l-60 116l-65 117l-61 107l-31 48l-58 94q-32 52 -57.5 102t-25.5 75z" />
<glyph unicode="]" horiz-adv-x="690" d="M2 1051q0 23 2 25.5t12 19.5q18 0 51 -2t66 -3t60.5 -3.5t37.5 -2.5t41 5.5t70 13.5t79 15t71 11q16 -27 26 -56.5t10 -51.5q0 -8 -9 -69l-23 -148l-30 -190l-30 -189l-23.5 -149.5t-9.5 -67.5q0 -10 8 -28l15 -36l15 -35q7 -17 8 -28q0 -10 -10.5 -26.5l-23.5 -35.5 l-28 -36q-14 -18 -22 -33q-16 10 -31 22.5t-33 12.5q-23 0 -32 -18.5t-17 -24.5q-14 -4 -34 -15l-39 -20q-19 -10 -39.5 -18.5t-35.5 -8.5q-23 0 -32 7.5t-15 19.5t-11 26.5t-19 30.5v51q33 18 67.5 26.5t68.5 21t65.5 32t56.5 58.5q18 31 17 80t5 90l19.5 146.5t25.5 152.5 l10 47q6 29 13.5 58.5t12.5 54t5 34.5v121q-59 0 -93 -2t-51.5 -4t-26.5 -4t-19 -2q-29 0 -64 6t-65.5 19.5t-51 38t-20.5 61.5z" />
<glyph unicode="^" horiz-adv-x="720" d="M90 508q0 12 36 69l86 132l104 157l92 144h59q23 -47 49 -109l50 -120q24 -58 39.5 -103t15.5 -57q0 -23 -10.5 -52.5t-20.5 -48.5q-35 14 -53.5 38t-33.5 51l-33 58q-17 30 -46 54q-37 -37 -77 -93l-75 -108l-61 -88q-27 -37 -39 -37q-14 0 -28.5 16.5t-27 37t-19.5 39 t-7 20.5z" />
<glyph unicode="_" horiz-adv-x="768" d="M-2 -154q0 16 26.5 20.5t43.5 4.5q23 0 34 -2t31 -2q8 0 48 3t97.5 9t122 11.5t122 11.5t97 9t48.5 3q41 0 100 -16q-10 -14 -19 -30l-18 -30q-16 0 -40.5 4t-47.5 4q-8 0 -47 -3t-94.5 -8t-119 -10t-118.5 -10l-95 -8.5t-46 -3.5q-72 0 -98.5 12.5t-26.5 30.5z" />
<glyph unicode="`" horiz-adv-x="512" d="M0 987q0 18 15.5 29.5t15.5 27.5h75l143 -110q69 -55 140 -105v-47q-10 0 -19.5 -6t-35.5 -6q-31 0 -79 20.5t-94 45t-80 47t-36 28.5q-4 14 -24.5 37t-20.5 39z" />
<glyph unicode="a" horiz-adv-x="618" d="M-43 170q0 10 9 54t26.5 103.5t43 126t57.5 122t70 92.5t83 37q20 0 35.5 -9.5t29.5 -21.5q2 -4 13 -17l23 -27q13 -15 28.5 -30.5t32.5 -21.5q2 -16 10 -44t8 -53q0 -10 -8 -43l-18 -70q-9 -38 -16 -71t-7 -43q0 -20 18.5 -38.5t36.5 -29.5q4 2 19 7q10 2 32.5 4t57.5 2 q10 -10 13 -14.5t3 -26.5q0 -25 -15.5 -43.5t-36 -31.5t-41 -20.5t-32.5 -7.5q-25 0 -44 11.5t-38 28.5l-37 36q-18 18 -37 33l-31 -40q-22 -28 -48.5 -56.5t-55 -50t-53.5 -21.5q-43 0 -68.5 22.5t-40 52t-18.5 58.5t-4 41zM66 182q0 -12 2 -17t6 -9t8 -4q55 37 89 97 t56 109q18 37 42 76t24 60q0 23 -6 26.5t-6 14.5h-45q-12 -16 -40 -63l-58 -100q-30 -54 -51 -107.5t-21 -82.5z" />
<glyph unicode="b" horiz-adv-x="563" d="M20 143q0 8 7 26l13 38q7 20 15 40.5t13 37.5q16 53 24 113.5t19 113.5q4 35 17 76t24 80l10 50q6 30 10 52q10 49 22.5 94t18.5 92q2 10 8 26.5t15.5 33t19.5 28t23 11.5q20 0 30 -10.5t15.5 -22.5t6.5 -25.5t1 -19.5q0 -10 -11.5 -48l-25.5 -81l-25.5 -81t-11.5 -48 v-72q18 -8 38.5 -5t39 9t36 13.5t31.5 7.5q16 0 42 -16.5t36 -26.5q14 -18 15.5 -52t1.5 -57q0 -37 -4.5 -68.5t-18.5 -67.5t-38.5 -79t-67.5 -98q-6 -6 -37 -40t-70 -72t-75.5 -67.5t-57.5 -29.5q-10 0 -27.5 21.5t-36 48t-32 50t-13.5 25.5zM135 227q0 -10 3 -19 t13.5 -16.5t28.5 -7.5q20 0 52 32t65 73t58.5 81t33.5 56q10 18 17.5 45t5.5 43q-8 0 -15 6q-4 2 -8 6q-47 -23 -91 -39t-97 -38q-6 -31 -17.5 -64t-22.5 -61.5t-18.5 -51t-7.5 -30.5v-15z" />
<glyph unicode="c" horiz-adv-x="636" d="M-4 197q0 18 14.5 61t39 98.5t59 114.5t74.5 108.5t85 81t92 31.5q18 0 37 -1t31 -17q23 -29 35 -74t12 -68q0 -10 -11 -38l-27 -66l-31 -75q-16 -38 -27 -68q-6 -10 -15.5 -18.5t-31.5 -8.5q-20 0 -47 26.5t-27 47.5q0 4 12.5 25.5t26.5 51t25.5 60.5t7.5 51 q-16 -8 -38 -24.5t-32 -30.5q-25 -29 -53.5 -68t-52 -77.5t-40 -70.5t-16.5 -42q0 -47 18.5 -65.5t55.5 -18.5q31 0 75 14.5t93 37t100.5 53t94.5 65.5h38q10 -10 18.5 -14.5t8.5 -24.5q0 -10 -21.5 -38t-54 -60.5t-68.5 -63.5t-65 -47q-14 -8 -38.5 -16.5t-50.5 -15.5 t-49.5 -12t-35.5 -5q-39 0 -78 20.5t-70.5 51t-52 65.5t-20.5 64z" />
<glyph unicode="d" horiz-adv-x="684" d="M10 209q0 20 14.5 60t39 88.5t55.5 97.5t65.5 90t69.5 66.5t65 25.5q18 0 38 -12.5t36 -12.5q0 2 10.5 35t29 81t42 103.5t49 102.5t51 77.5t48.5 30.5q29 0 40 -25.5t11 -47.5q0 -18 -2 -37t-15 -35q-53 -70 -94 -146.5t-55 -132.5q-10 -41 -26 -91l-29 -100 q-14 -50 -23 -99q-5 -28 -5 -54q0 -19 3 -36q2 -16 10 -30.5t13.5 -30t2.5 -34t-24 -43.5q-4 -2 -7 -3t-26 -1q-18 0 -28.5 6.5t-32.5 6.5q-10 0 -36 -15.5t-54.5 -35t-54 -35t-35.5 -15.5q-37 0 -65 29t-45 64.5t-26.5 67.5t-9.5 40zM123 199q0 -23 8 -29t16 -16 q6 -1 12 -1q38 0 71 23q38 27 63.5 70t40 91t14.5 87q0 20 -6 32.5t-6 20.5h-41q-4 -4 -31 -39l-58 -80q-32 -45 -57.5 -89.5t-25.5 -69.5z" />
<glyph unicode="e" horiz-adv-x="645" d="M29 178q0 57 35.5 134t90 153t119 137.5t123.5 89.5q15 7 38 8q3 0 5 -1q27 -1 45 -1q27 0 42.5 -8t23.5 -18t11 -22.5t3 -20.5q0 -31 -21.5 -66t-54 -69.5t-71.5 -66.5l-72 -56q-8 -6 -22 -12l-31 -11q-16 -6 -33 -11l-29 -9q-14 -4 -24 -23.5t-16.5 -41t-9.5 -42 t-3 -26.5q0 -68 31 -91.5t72 -23.5q29 0 52 7t49 21.5t54 32.5l66 41h51q-59 -111 -133 -146.5t-152 -35.5q-23 0 -63.5 11.5t-79.5 34t-67.5 55t-28.5 77.5zM293 461q35 16 71.5 42.5t63.5 55.5h-39q-10 0 -23.5 -10t-26.5 -25.5t-26 -33.5z" />
<glyph unicode="f" horiz-adv-x="600" d="M47 506q0 43 20.5 51t47 6t54.5 0t42 33q16 33 31.5 83t38.5 95q10 20 37.5 64.5t63.5 89.5t76 77.5t74 32.5q29 0 45.5 -13t23.5 -30.5t9 -35t2 -25.5q0 -33 -13 -80t-31.5 -96t-39 -92t-34.5 -66q-16 6 -43 26.5t-27 41.5q0 18 12.5 44.5t28.5 49.5v29q2 0 2 2 q0 4 -16 4q-18 0 -41 -29t-43 -63q-23 -39 -48 -91q0 -12 14.5 -20t35 -14.5t41 -11.5t32.5 -11q8 -41 -9 -56.5t-46 -22.5t-59.5 -16t-48.5 -38q-10 -20 -11 -45v-47q0 -14 -4 -36t-8 -48q-2 -23 3 -54l10 -64q5 -32 3 -62.5t-20 -53.5q-16 16 -43 35t-31 43q-8 60 -8 120 q0 18 1 36q1 33 1 67q0 44 -2 88q-16 12 -37.5 20.5t-40 18t-32 24.5t-13.5 40z" />
<glyph unicode="g" horiz-adv-x="532" d="M-14 -233q0 35 32.5 98t75.5 128.5t87 124t67 83.5q6 6 14 23.5t15.5 36t11.5 35.5t4 26q0 16 -4 19t-10 9q-16 -12 -37 -34l-42 -43q-22 -22 -43.5 -38t-41.5 -16q-29 0 -47.5 15.5t-28.5 37t-15.5 43t-5.5 31.5q0 43 19.5 90t48.5 91t62.5 84t62.5 67q14 12 35.5 16 t38.5 4q31 0 52 -15t34.5 -34.5t20.5 -40t7 -28.5q0 -16 -9 -42t-13 -42q-4 -20 -3 -48t1 -57t-3 -58.5t-12 -53.5q-4 -10 1.5 -23.5t0.5 -26.5q-2 -14 -15 -28.5t-19 -28.5l-27 -62l-42 -98q-24 -53 -53.5 -110.5t-59 -104.5t-59.5 -77.5t-56 -30.5q-10 0 -18.5 10 t-14.5 24.5t-9 27t-3 16.5zM102 362q0 -16 2 -19t9 -9q33 10 64.5 41t57 67.5t41 73.5t15.5 62q-14 9 -24 8h-4q-11 -2 -27 -15q-4 -4 -26 -28.5t-45.5 -56t-43 -66.5t-19.5 -58z" />
<glyph unicode="h" horiz-adv-x="620" d="M10 96q0 8 16 50l36 102l44 127q23 68 35 123q23 104 37.5 222t36.5 247q0 2 5 14t13.5 26.5t19.5 25.5t23 11q18 0 38 -24.5t20 -42.5t-5 -28.5t-10 -24.5q-10 -47 -23 -101l-27 -110l-26 -113q-13 -55 -22 -104q-6 -37 -6 -99q31 25 64 60l65 68q33 34 65.5 57.5 t63.5 23.5q20 0 29.5 -8t13.5 -16q4 -23 14.5 -56.5t10.5 -50.5q0 -14 -10.5 -48t-18.5 -56q-14 -49 -51 -117t-64 -125q-10 -20 -15 -50t-11 -52q-2 -8 -14.5 -21.5t-28.5 -13.5q-12 0 -22.5 10t-18.5 23.5t-12.5 27t-4.5 17.5q0 12 19 52l40 88q22 48 38 94q13 37 13 61 q0 6 -1 12q-86 -86 -162 -181.5t-147 -172.5q-4 2 -11 2q-12 0 -16 2q-8 14 -20.5 31.5t-12.5 37.5z" />
<glyph unicode="i" horiz-adv-x="495" d="M41 92q0 6 11 40t30 84l41 112l46 125l46 124l39 107q6 18 20.5 36.5t42.5 18.5q29 0 49.5 -20.5t20.5 -36.5q0 -47 -21.5 -107.5t-52.5 -128.5l-62 -139q-32 -72 -52 -139q-6 -16 7 -42t15 -46q2 -18 -10 -33.5t-27.5 -27t-31 -17.5t-21.5 -6q-10 0 -25.5 10t-30 25.5 t-24.5 32t-10 28.5zM375 952q0 16 16.5 40t26.5 42q10 -4 23.5 -3t27.5 -2t28.5 -13t30.5 -35q0 -31 -7 -69t-7 -66q-10 -10 -11 -13.5t-26 -3.5q-18 0 -36.5 11.5t-33 30t-23.5 40t-9 41.5z" />
<glyph unicode="j" horiz-adv-x="493" d="M-274 -147q0 57 27.5 119.5t47.5 127.5h70q0 -10 5 -16t5 -29q0 -10 -9 -35.5t-21.5 -53t-21.5 -53.5t-9 -36v-35q8 -8 7 -13t19 -5q31 0 65 26.5t67.5 67.5t64.5 89t55.5 92t40 75t17.5 39q12 39 37.5 86t29.5 98q1 11 1 22q0 24 -6 47q-9 34 -9 66q0 18 11 37t28 19 q27 0 41 -21.5t21 -50.5t8 -55.5t1 -34.5q0 -51 -24.5 -127t-63 -158t-90 -163.5t-105.5 -147.5t-106.5 -105.5t-93.5 -39.5q-31 0 -51.5 17t-33.5 43t-19 55.5t-6 52.5zM342 895q0 23 7 48.5t19.5 47t30 34.5t37.5 13q37 0 50.5 -16t15.5 -42t0 -56.5t6 -57.5 q-25 -10 -35 -21t-14 -23.5t-6 -27t-11 -32.5h-34q-31 18 -48.5 58t-17.5 75z" />
<glyph unicode="k" horiz-adv-x="722" d="M20 76q0 6 19.5 59t52.5 134l74 184l82 206l80 205l67 180h51q37 -37 37 -83q0 -10 -18 -56l-45 -106l-56 -128l-51 -118v-39q29 20 66 42l71 40l59.5 30.5t35.5 12.5q20 0 44.5 -14.5t39.5 -71.5q-41 -12 -100.5 -48t-115 -82t-94 -95t-38.5 -88q0 -20 23 -30l40 -15 l127 -40q68 -22 135 -49v-75q-68 0 -140 -2q-18 -1 -37 -1q-57 0 -122 5q-16 2 -35.5 22.5t-42.5 20.5q-10 0 -28.5 -12.5t-37 -28t-35.5 -27.5t-28 -12q-12 0 -26.5 8t-26.5 20.5t-19.5 26t-7.5 25.5z" />
<glyph unicode="l" horiz-adv-x="393" d="M6 55q0 8 18 66l42 133l52 158q28 82 46 141q39 123 92 250t119 237h37q14 -16 14 -53q0 -12 -14.5 -55t-37.5 -103l-51 -130l-55 -136q-27 -66 -47 -121l-31 -86q-10 -35 -24 -76.5t-27.5 -87t-24 -94.5t-12.5 -100q-4 -1 -8 -1q-12 0 -25 5q-17 6 -30.5 15.5t-23 20.5 t-9.5 17z" />
<glyph unicode="m" horiz-adv-x="878" d="M4 41v10q0 38 12 89q14 58 33 124q30 112 31 194q0 12 -1 23q-5 88 -34 152q-2 4 -4 16.5t-1 24.5t5 21.5t14 9.5h68q14 -25 25.5 -58t20.5 -62.5t19.5 -50t22.5 -20.5q23 0 44 28l48 61q27 34 58.5 61.5t72.5 27.5q61 0 76 -29q13 -28 13 -62q0 -26 -3 -72 q-2 -30 23 -29q12 0 41 24l59 54l59 53q28 25 39 24q25 0 38.5 -15t19.5 -34.5t7 -36t1 -18.5q0 -29 -17.5 -87t-39 -118.5t-42 -111t-28.5 -64.5q-10 -20 -12 -58q-1 -19 -1 -36t1 -31q0 -10 -15.5 -27.5t-38.5 -17.5q-25 0 -39 10t-24 21v41q16 45 27.5 100t17.5 104 q4 2 4 7q0 8 -8 26q-53 -27 -82 -69.5t-52.5 -84.5t-49 -73t-70.5 -31q-8 0 -19.5 7.5t-22.5 18.5t-19.5 23.5t-8.5 22.5q0 23 14.5 41t18.5 37q12 39 37 97q23 54 23 116v10q-35 -23 -71 -66t-71 -98q-4 -6 -22.5 -43t-42 -79t-49 -76.5t-43.5 -34.5q-23 0 -37.5 7t-24.5 7 z" />
<glyph unicode="n" horiz-adv-x="675" d="M4 70q0 12 18.5 53t42 99.5t42 124t18.5 126.5q0 33 -12.5 53.5t-26.5 35.5l-27 29q-12 13 -12 34q0 35 24.5 48t57.5 13q41 0 58.5 -22.5t23.5 -55.5t8 -68.5t10 -62.5q20 16 46 44l53 54q27 27 49 46.5t35 19.5q33 0 51 -16.5t27.5 -39t12.5 -45t3 -34.5 q0 -43 -9.5 -77t-23.5 -64l-29 -61q-14 -30 -24 -62q-14 -47 -26.5 -98.5t-20.5 -100.5h-39q-16 23 -31.5 60.5t-15.5 58.5q0 27 10 52l21 53q11 28 20 61q7 26 6 59v16q-35 -27 -77 -93l-84 -135l-77 -122q-35 -53 -53 -53q-23 0 -36 23.5t-13 46.5z" />
<glyph unicode="o" horiz-adv-x="575" d="M6 219q0 18 6 52t13 57q12 39 24 83t31.5 86t49.5 77.5t73 60.5l35 19q20 11 41.5 20.5t40 15.5t28.5 6q20 0 40 -14t33 -34.5t21.5 -43t8.5 -39.5q0 -8 -3.5 -29.5t-8.5 -49.5l-10 -55l-9 -48q-2 -6 -15.5 -37t-36 -75t-50 -93t-59.5 -90t-64.5 -68.5t-63.5 -27.5 t-53.5 32.5t-38.5 72.5t-24.5 77t-8.5 45zM121 229q0 -23 2 -36t10 -31h41l43 66q25 38 47.5 77t41 77t22.5 69q6 8 13 5t7 19q0 23 -6 45.5t-6 38.5h-6q-30 0 -65 -35q-38 -39 -69.5 -93t-53 -111.5t-21.5 -90.5z" />
<glyph unicode="p" horiz-adv-x="645" d="M10 -264q0 8 5 30.5t13.5 52t15.5 62.5t13 58q6 31 24 93l38 137l42 156q22 81 38 148q2 12 -1 30.5t-8.5 38t-9.5 39t-2 35.5q33 23 47 40l24 29q9 11 18 17.5t30 6.5q8 0 16.5 -7.5t15.5 -15.5l14 -16q7 -8 15 -8q29 -4 65 -15.5t58 -21.5q16 -10 36 -32t24 -50 q4 -23 9 -57.5t5 -53.5q0 -31 -22.5 -62.5t-56.5 -63.5t-75 -59.5t-76 -48.5l-63 -37q-27 -15 -31 -20q-41 -35 -52 -85t-21 -89l-20 -78q-11 -45 -11 -94q0 -6 7 -21.5t3 -29.5t-19.5 -35.5t-31.5 -38.5q-8 4 -20.5 11.5t-24.5 15.5t-21.5 18.5t-9.5 20.5zM242 311 q0 -16 6 -22q4 -4 8 -4q14 6 48 25.5t70 46t63.5 57t27.5 57.5q0 29 -22.5 43t-63.5 14q-18 0 -44 -8t-38 -18q-4 -12 -6 -34t-6 -36q-2 -16 -10 -34l-14 -33l-13 -31q-6 -15 -6 -23z" />
<glyph unicode="q" horiz-adv-x="669" d="M39 274q0 16 3 58.5t3 77.5q0 12 17.5 57t46 96t65.5 91t76 40q49 0 93 -10t77 -34.5t52.5 -66.5t19.5 -104q0 -47 -16 -99l-33 -108q-17 -55 -32.5 -110.5t-15.5 -104.5q0 -10 1 -33.5t4 -55t8.5 -65.5t11.5 -65q4 -23 16.5 -48.5t12.5 -45.5q0 -18 -12.5 -32.5 t-12.5 -30.5q-43 25 -62.5 57.5t-27.5 70t-13.5 78.5t-19.5 84q-25 0 -37 -2t-19 -3t-12.5 -3t-15.5 -2q-29 0 -56.5 18.5t-51 45t-41 57.5t-23.5 55q-7 27 -7 64q0 15 0.5 41t0.5 32zM135 252q0 -2 1 -27.5t7.5 -55.5t20.5 -54.5t43 -24.5q10 0 22.5 12.5t22.5 27.5 t17 31.5t7 24.5q0 23 -11 70t-15 80q-23 16 -48.5 31.5t-41.5 13.5q-16 -29 -20.5 -70t-4.5 -59zM266 362q63 -4 92 -34q16 33 26.5 70.5t10.5 58.5l1 4q0 4 0.5 9.5t0.5 8.5q0 10 -3 22q-3 15 -10 28.5t-26 13.5q-10 0 -25.5 -14.5t-29.5 -33t-25.5 -38t-11.5 -29.5v-66z " />
<glyph unicode="r" horiz-adv-x="577" d="M27 174q0 8 5 27.5t12 41.5l14 44q7 23 10 41q9 65 9 133q0 23 -1 47q-4 94 -15 188h43q27 0 39.5 -9t17.5 -26.5t6 -40t5 -49.5q10 0 12 -5t25 -5q10 0 30.5 12.5l43 27.5l43 27.5t30.5 12.5q14 0 32 -10t33 -24.5t27.5 -29t18.5 -20.5q-10 -29 -11 -41t2 -17t8 -4t5 -1 q0 -31 -11 -61t-26 -54q-25 6 -49.5 28.5t-34.5 51.5q-33 -10 -65.5 -38t-60 -66t-44.5 -81q-15 -38 -14 -74q0 -21 1.5 -59t1.5 -55q0 -45 -32 -94h-5q-15 0 -36 10q-25 12 -33 27q-8 14 -15 34.5t-11 42t-7 40t-3 28.5z" />
<glyph unicode="s" horiz-adv-x="518" d="M20 469q0 37 24 77t57.5 72.5t71.5 54t67 21.5q31 0 50 -13t29.5 -32.5t14.5 -42t4 -41.5q0 -10 -6 -25.5t-14.5 -33t-14.5 -33.5t-6 -24q0 -20 15.5 -27.5t19.5 -15.5q10 -23 13 -47.5t3 -43.5q0 -16 -6 -53t-20 -57l-43 -62q-27 -37 -55.5 -70.5t-53.5 -58t-33 -24.5 h-63q0 8 -6.5 20.5t-6.5 28.5q0 10 19 39l44 66l54 79q29 41 47 76q-25 14 -64.5 21.5t-66.5 29.5q-10 8 -23.5 24.5t-24.5 34t-18.5 34t-7.5 26.5zM154 479q0 -20 30.5 -20t69.5 -8l-20 38q-11 23 -11 39q-16 -4 -42.5 -17.5t-26.5 -31.5z" />
<glyph unicode="t" horiz-adv-x="372" d="M6 545q0 23 18.5 38t44 26.5t51 18.5t40.5 13q10 4 16 22.5t8 32.5l11 27q6 16 6 27q0 2 5 21.5t13 39.5t17.5 37.5t19.5 17.5q16 0 25.5 -7t13.5 -16t5 -18.5t1 -11.5q0 -14 -17.5 -58t-27.5 -79q45 -16 90 -26.5t90 -33.5v-36q-23 -16 -44 -18.5t-45.5 -0.5t-53.5 -1 t-62 -21q-12 -6 -21 -24.5t-15.5 -42t-11.5 -47.5t-9 -40t-12 -40l-17 -45q-8 -22 -13 -40t-5 -24v-82h14q10 0 20.5 -4.5t18.5 -13.5t8 -25q0 -20 -13 -41t-30.5 -38.5t-35 -28.5t-25.5 -13q-4 10 -18.5 27.5t-16.5 35.5q-2 10 -4 24.5t-2 28.5q0 6 3 31t8 57.5t13 67.5 l13 64q8 37 22.5 82t32.5 92l-12 12q-16 -10 -38 -20.5t-38 -10.5q-8 0 -15 9.5t-13.5 21.5t-9.5 23z" />
<glyph unicode="u" horiz-adv-x="532" d="M2 232v36q0 111 29.5 210.5t79.5 199.5h73q0 -16 6.5 -27.5t6.5 -29.5q0 -35 -22.5 -82t-45.5 -88q-14 -31 -20.5 -54.5t-9.5 -44t-4 -38t-3 -38.5q-2 -8 -7 -11t-5 -21q0 -12 4 -31.5t12 -38t21.5 -33t29.5 -14.5q43 0 71 33t44.5 76t24.5 83.5t12 55.5q4 18 15.5 48 t9.5 58q-2 43 -7 77q-1 6 0 11q0 27 17 52h43q8 -16 20.5 -36t12.5 -36q0 -8 -3.5 -24.5t-8.5 -36t-9 -40t-6 -36.5q-10 -47 -22.5 -116t-40 -133.5t-77.5 -111.5t-132 -49q-12 23 -41 50.5t-45 58.5q-8 14 -13.5 35.5t-7.5 42.5t-2 43z" />
<glyph unicode="v" horiz-adv-x="458" d="M25 47v580q8 6 11 8t21 2q16 0 25.5 -6t19.5 -15q4 -20 12.5 -40.5t12.5 -43.5q2 -18 0 -43.5t-4 -54t1 -59.5t15 -58q29 43 54 92l50 97q26 49 55.5 94t66.5 82q8 0 21 -11.5t13 -27.5q0 -8 -21 -54l-51 -108l-61 -126q-31 -65 -47 -107q-16 -35 -31.5 -77t-40.5 -89 q-4 -10 -13 -23.5t-20.5 -28t-23.5 -23.5t-20 -9q-16 0 -27.5 17.5t-17.5 31.5z" />
<glyph unicode="w" horiz-adv-x="593" d="M-16 141q0 8 8 61.5t20 125.5l27 149q14 78 27 133q2 8 12 19.5t26 11.5q8 0 17.5 -11.5t16.5 -25.5t11.5 -27.5t4.5 -15.5t-13 -51l-27 -112q-15 -62 -27.5 -119.5t-12.5 -77.5q0 -16 -2 -20.5t6 -12.5q20 23 37.5 59.5t35 79.5t34 88t32.5 84h49q12 -10 21.5 -35.5 t9.5 -48.5q0 -31 -2 -61.5t-1 -60t8 -60.5t26 -61q47 29 58 67.5t28 79.5q29 72 53.5 167t52.5 181q4 6 10.5 17.5t22.5 11.5t30.5 -16.5t14.5 -32.5q0 -6 -9 -38l-24 -78l-31 -101l-36 -113q-14 -43 -35 -97.5t-47 -99.5q-8 -14 -27.5 -33.5t-32.5 -39.5q-33 -6 -54 11 t-36.5 45t-28 59.5t-26.5 52.5q-23 -16 -37 -49l-29 -64q-14 -33 -32.5 -57.5t-49.5 -24.5q-29 0 -45 19.5t-24 45t-9 48t-1 28.5z" />
<glyph unicode="x" horiz-adv-x="595" d="M-12 68q0 39 25.5 84t55 86t55.5 72.5t26 41.5t-13 46l-25 77l-26 76q-12 35 -12 45q0 16 21.5 34.5t43.5 18.5q18 0 31.5 -22.5t26 -51t22.5 -57.5t23 -41q27 25 56 61l58 67q29 32 53.5 54.5t41.5 22.5q16 0 26 -11.5t17 -23.5q8 -16 10 -35q0 -37 -15 -57 q-20 -27 -52 -60l-62 -67q-31 -33 -53.5 -59.5t-22.5 -36.5q0 -18 29.5 -62.5t66.5 -91.5l70 -87q33 -40 39 -50q-8 -10 -12.5 -18.5t-24.5 -8.5t-50 11.5t-64 36t-68.5 63.5t-67.5 94q-29 -4 -50.5 -38t-39.5 -72.5t-36.5 -71.5t-43.5 -33q-16 0 -27.5 8t-18.5 18.5t-10 22 t-3 15.5z" />
<glyph unicode="y" horiz-adv-x="456" d="M-33 -223q0 43 11.5 92t28 100l34.5 103.5t33 103.5q-51 35 -59.5 72t-8.5 74q0 20 7 74.5t18.5 113.5t23 111.5t21.5 68.5q27 -2 39 -11t16 -19.5t2 -20.5t-2 -14q0 -10 -6 -38l-13 -61l-14 -61q-6 -29 -6 -37v-86l14 -16q29 25 56.5 64.5t53.5 83.5t48.5 88t42.5 79h64 q0 -8 5 -11t5 -22q0 -25 -19.5 -76t-48 -114.5t-63.5 -131.5l-65 -126l-50 -97l-22 -43q-39 -98 -53 -173q-9 -51 -9 -109q0 -27 2 -55q0 -4 -2 -7q-4 -6 -20 -6q-23 0 -36 16.5t-19.5 36t-7.5 36t-1 18.5z" />
<glyph unicode="z" horiz-adv-x="522" d="M-55 88q0 14 2 31.5t10 27.5q72 98 141.5 179.5t134.5 175.5v24q-12 2 -27.5 1t-32.5 -4l-32.5 -6t-23.5 -3q-33 0 -54.5 32t-21.5 60q0 25 37 41.5t84 24.5t89 11t54 3q29 0 54.5 -2t44 -10t29.5 -25.5t11 -48.5q0 -16 -8 -34.5t-16 -28.5q-25 -31 -61 -67l-72 -76 q-37 -40 -70 -83t-51 -88q25 -27 61 -26q18 0 37 5t35 5q12 0 26.5 -2t28 -7t22.5 -13.5t9 -20.5q0 -8 -6 -20.5t-16.5 -25t-22.5 -22.5t-25 -12q-57 -12 -128.5 -22.5t-131.5 -20.5q-12 -4 -24.5 -15.5t-28.5 -11.5t-27.5 9.5t-17.5 21.5t-9 24.5t-3 18.5z" />
<glyph unicode="{" horiz-adv-x="737" d="M170 752q0 12 8 40.5t19 51.5q10 16 38.5 43.5t49.5 40.5l39 25l57 36q31 18 61.5 31.5t53.5 13.5q16 0 41.5 -9t25.5 -34q0 -8 -2 -14t-4 -10q-2 -6 -4 -11q-16 4 -65.5 -16t-102.5 -52t-95 -70t-42 -66q0 -49 34.5 -87t75.5 -70l76 -57q35 -26 35 -51q0 -12 -11.5 -48 t-23.5 -64q-4 -10 -15 -21l-23 -20q-11 -10 -20 -19.5t-9 -15.5q0 -8 5 -22.5t10 -31t10 -30.5t5 -22t-9 -54.5t-21.5 -101.5t-21.5 -101.5t-9 -54.5q0 -31 11 -42t23.5 -16t24 -9t11.5 -19q0 -12 -8.5 -20t-17.5 -13.5t-18.5 -7.5t-11.5 -2q-23 0 -40 15.5t-29.5 35 t-18.5 38t-6 26.5q0 6 10 52l22 98l21 99q10 46 10 52q0 41 -14 50t-31.5 15.5t-32 22.5t-16.5 70q8 6 35 21t55.5 34.5t52 41t23.5 42.5q0 6 -15.5 19.5t-33.5 26.5t-34.5 23.5t-18.5 14.5q-12 12 -31.5 37.5t-39 54.5t-34 58.5t-14.5 52.5z" />
<glyph unicode="|" horiz-adv-x="307" d="M41 115q0 16 14.5 49t20.5 69q2 16 -4 38t-4 36q16 84 38 183l45 198q22 98 36 189.5t14 158.5h30q27 0 40.5 -13t19.5 -31.5t6 -37.5v-28q0 -10 -4 -40t-11.5 -70l-16.5 -85t-19 -84q-10 -37 -26.5 -77t-26.5 -83q-12 -47 -19.5 -95t-13.5 -97q-2 -14 -11.5 -36.5 t-9.5 -47.5q0 -8 10.5 -22.5t10.5 -30.5q0 -33 -3 -71t-12 -71q0 -4 -2 -6q-4 -6 -22 -6q-10 0 -23.5 13.5t-26 31t-21.5 36t-9 30.5z" />
<glyph unicode="}" horiz-adv-x="638" d="M131 940q0 33 28.5 50.5t64.5 26.5t71 11t47 2q57 0 75.5 -26.5t18.5 -63.5q0 -25 -12 -63.5t-28 -80.5l-30 -82q-15 -40 -24 -67q-6 -25 -18 -63l-25 -78l-20.5 -68.5t-8.5 -38.5q0 -14 3 -25.5t18 -11.5q14 0 23.5 8.5t27.5 8.5t31.5 -18.5t13.5 -30.5q0 -14 -6 -24.5 t-10 -22.5q-12 -14 -26.5 -34l-28 -40.5t-23.5 -39.5t-12 -34l-11 -49q-6 -29 -11 -56l-9 -49q-4 -22 -4 -30q0 -6 5 -28.5l11 -47.5l11 -46q5 -22 6 -30q0 -4 -5.5 -11t-9.5 -15q-6 -8 -12 -19q-16 4 -30.5 34t-25 64.5t-17.5 68.5t-7 46q0 6 3 27.5t8 50.5l11 57l9 52 q4 29 19.5 66.5t15.5 51.5q0 8 -6.5 23.5t-14.5 32t-14 32t-6 23.5q0 23 12 67t31 97l40 110l39 107l30.5 85t12.5 46q0 18 -9 25.5t-21.5 10.5t-25.5 2t-19 -1q-8 0 -24.5 -4l-35 -8.5l-35 -8.5t-24.5 -4q-14 0 -25.5 9.5t-11.5 23.5z" />
<glyph unicode="~" horiz-adv-x="831" d="M33 358q0 14 23.5 42t58.5 54.5t73.5 46t69.5 19.5q37 0 63.5 -18.5t52 -41t56.5 -41t78 -18.5q31 0 69.5 11.5t74.5 27t63.5 28.5t36.5 19l35 -18q15 -8 16 -25q0 -16 -34 -39.5t-74 -45t-75.5 -37t-37.5 -15.5q-23 -2 -50.5 -5t-46.5 -3q-57 0 -88.5 17.5t-52.5 37.5 l-39 38q-18 17 -47 18q-20 0 -47 -15.5t-53 -33.5l-48 -32q-22 -15 -32 -16q-20 0 -32.5 15.5t-12.5 29.5z" />
<glyph horiz-adv-x="522" d="M-16 537q0 16 42 38.5t95 46t102 42t64 26.5q39 20 85 51t101 50q14 6 41 10t52.5 7t48 5t30.5 2q33 0 48.5 -1t21.5 -5t10 -13.5t16 -25.5l-8 -12q-8 -12 -14 -19l-86 -23q-49 -13 -107.5 -37t-122 -58.5t-129.5 -83.5q6 -23 15.5 -43.5t17.5 -42.5q6 -18 6 -41v-43 q0 -37 -10 -88.5t-25.5 -103.5t-35 -98t-37.5 -69h-45q-14 14 -28.5 36t-14.5 36q0 25 5 59.5t8 72.5t-2 79t-26 78q-6 12 -25 37l-40 51l-37 48q-16 22 -16 32zM170 492q8 -51 19.5 -104.5t11.5 -98.5q23 23 34 60.5t11 62.5q0 20 -21.5 48t-54.5 32z" />
<glyph unicode="&#xf700;" horiz-adv-x="522" d="M-16 537q0 16 42 38.5t95 46t102 42t64 26.5q39 20 85 51t101 50q14 6 41 10t52.5 7t48 5t30.5 2q33 0 48.5 -1t21.5 -5t10 -13.5t16 -25.5l-8 -12q-8 -12 -14 -19l-86 -23q-49 -13 -107.5 -37t-122 -58.5t-129.5 -83.5q6 -23 15.5 -43.5t17.5 -42.5q6 -18 6 -41v-43 q0 -37 -10 -88.5t-25.5 -103.5t-35 -98t-37.5 -69h-45q-14 14 -28.5 36t-14.5 36q0 25 5 59.5t8 72.5t-2 79t-26 78q-6 12 -25 37l-40 51l-37 48q-16 22 -16 32zM170 492q8 -51 19.5 -104.5t11.5 -98.5q23 23 34 60.5t11 62.5q0 20 -21.5 48t-54.5 32z" />
<glyph unicode="&#x20ac;" horiz-adv-x="522" d="M-16 537q0 16 42 38.5t95 46t102 42t64 26.5q39 20 85 51t101 50q14 6 41 10t52.5 7t48 5t30.5 2q33 0 48.5 -1t21.5 -5t10 -13.5t16 -25.5l-8 -12q-8 -12 -14 -19l-86 -23q-49 -13 -107.5 -37t-122 -58.5t-129.5 -83.5q6 -23 15.5 -43.5t17.5 -42.5q6 -18 6 -41v-43 q0 -37 -10 -88.5t-25.5 -103.5t-35 -98t-37.5 -69h-45q-14 14 -28.5 36t-14.5 36q0 25 5 59.5t8 72.5t-2 79t-26 78q-6 12 -25 37l-40 51l-37 48q-16 22 -16 32zM170 492q8 -51 19.5 -104.5t11.5 -98.5q23 23 34 60.5t11 62.5q0 20 -21.5 48t-54.5 32z" />
<glyph d="M-723 1106q8 8 16.5 18.5t16.5 16.5q18 14 47 15t49 5q25 6 59.5 13.5t67.5 11.5l59 7q27 3 35 3q14 0 67 -14l105 -29q16 -23 42 -49.5t40 -65.5q-6 -10 -8 -26.5t-20 -16.5q-16 0 -44 13.5t-47 13.5q-29 0 -38 -10.5t-15 -21.5t-16 -21.5t-41 -10.5q-10 0 -36 6.5 t-55.5 12.5t-56 12t-34.5 6q-10 0 -29 -4l-39 -8l-40 -8q-19 -4 -28 -4q-25 0 -34 15t-12 36.5t-4 45.5t-7 38z" />
<glyph unicode="&#xf701;" d="M-723 1106q8 8 16.5 18.5t16.5 16.5q18 14 47 15t49 5q25 6 59.5 13.5t67.5 11.5l59 7q27 3 35 3q14 0 67 -14l105 -29q16 -23 42 -49.5t40 -65.5q-6 -10 -8 -26.5t-20 -16.5q-16 0 -44 13.5t-47 13.5q-29 0 -38 -10.5t-15 -21.5t-16 -21.5t-41 -10.5q-10 0 -36 6.5 t-55.5 12.5t-56 12t-34.5 6q-10 0 -29 -4l-39 -8l-40 -8q-19 -4 -28 -4q-25 0 -34 15t-12 36.5t-4 45.5t-7 38z" />
<glyph d="M-803 1065q0 33 31 55.5t72 36.5t83 20.5t66 6.5q29 0 54.5 -2t52 -11.5t55.5 -26t63 -46.5q29 16 45 55q2 6 14.5 36t32 62.5t44 59t51.5 26.5q39 0 41 -17t2 -28q0 -23 -22.5 -44t-49.5 -62q-14 -20 -23 -51l-20 -65q-10 -34 -26.5 -65.5t-45.5 -52.5q-47 25 -69 48 l-42 44q-19 20 -45 33t-79 13q-29 0 -62.5 -1.5t-62.5 -25.5v-19q29 -4 55.5 -0.5t53 3.5t55 -6.5t61.5 -26.5q-6 -10 -21.5 -21.5t-31.5 -11.5q-10 0 -28.5 -2t-38 -5t-38 -5t-28.5 -2q-33 0 -68 4t-64.5 15t-48 29.5t-18.5 49.5z" />
<glyph unicode="&#xf702;" d="M-803 1065q0 33 31 55.5t72 36.5t83 20.5t66 6.5q29 0 54.5 -2t52 -11.5t55.5 -26t63 -46.5q29 16 45 55q2 6 14.5 36t32 62.5t44 59t51.5 26.5q39 0 41 -17t2 -28q0 -23 -22.5 -44t-49.5 -62q-14 -20 -23 -51l-20 -65q-10 -34 -26.5 -65.5t-45.5 -52.5q-47 25 -69 48 l-42 44q-19 20 -45 33t-79 13q-29 0 -62.5 -1.5t-62.5 -25.5v-19q29 -4 55.5 -0.5t53 3.5t55 -6.5t61.5 -26.5q-6 -10 -21.5 -21.5t-31.5 -11.5q-10 0 -28.5 -2t-38 -5t-38 -5t-28.5 -2q-33 0 -68 4t-64.5 15t-48 29.5t-18.5 49.5z" />
<glyph unicode="&#x201a;" d="M-803 1065q0 33 31 55.5t72 36.5t83 20.5t66 6.5q29 0 54.5 -2t52 -11.5t55.5 -26t63 -46.5q29 16 45 55q2 6 14.5 36t32 62.5t44 59t51.5 26.5q39 0 41 -17t2 -28q0 -23 -22.5 -44t-49.5 -62q-14 -20 -23 -51l-20 -65q-10 -34 -26.5 -65.5t-45.5 -52.5q-47 25 -69 48 l-42 44q-19 20 -45 33t-79 13q-29 0 -62.5 -1.5t-62.5 -25.5v-19q29 -4 55.5 -0.5t53 3.5t55 -6.5t61.5 -26.5q-6 -10 -21.5 -21.5t-31.5 -11.5q-10 0 -28.5 -2t-38 -5t-38 -5t-28.5 -2q-33 0 -68 4t-64.5 15t-48 29.5t-18.5 49.5z" />
<glyph d="M-641 1143q0 23 14.5 39t36.5 16q20 0 45 -18.5t49 -28.5q18 -6 57.5 -10t61.5 -4q45 0 66.5 16t31 41t15.5 54.5t19.5 54t42 41t83.5 16.5q76 0 103.5 -40t27.5 -103q0 -59 -28.5 -99.5t-71.5 -66t-92 -39t-88 -17.5q-16 -2 -33.5 -11t-40.5 -9t-72 10t-99 30.5 t-89 52.5t-39 75z" />
<glyph unicode="&#xf703;" d="M-641 1143q0 23 14.5 39t36.5 16q20 0 45 -18.5t49 -28.5q18 -6 57.5 -10t61.5 -4q45 0 66.5 16t31 41t15.5 54.5t19.5 54t42 41t83.5 16.5q76 0 103.5 -40t27.5 -103q0 -59 -28.5 -99.5t-71.5 -66t-92 -39t-88 -17.5q-16 -2 -33.5 -11t-40.5 -9t-72 10t-99 30.5 t-89 52.5t-39 75z" />
<glyph unicode="&#x192;" d="M-641 1143q0 23 14.5 39t36.5 16q20 0 45 -18.5t49 -28.5q18 -6 57.5 -10t61.5 -4q45 0 66.5 16t31 41t15.5 54.5t19.5 54t42 41t83.5 16.5q76 0 103.5 -40t27.5 -103q0 -59 -28.5 -99.5t-71.5 -66t-92 -39t-88 -17.5q-16 -2 -33.5 -11t-40.5 -9t-72 10t-99 30.5 t-89 52.5t-39 75z" />
<glyph d="M-666 1092q0 18 8.5 27t20.5 14.5t26.5 6.5t26.5 1q8 0 39 -5.5t67 -10.5t66.5 -10t38.5 -5q43 0 70 23.5t43 54.5t25.5 60.5t19.5 43.5q4 4 15.5 11.5t27.5 7.5q18 0 28.5 -22.5t32.5 -39.5q12 6 24.5 22.5l27 34t34 29t45.5 4.5q0 -6 5.5 -10t5.5 -18q0 -6 -19 -37 l-46 -77l-61 -100q-34 -54 -63 -106q-2 -4 -6 -14t-26 -10q-27 0 -36.5 13t-11.5 28.5t-4 29t-12 13.5q-16 0 -48 -15.5t-48 -15.5q-8 0 -38 2t-70 5t-83 8l-75 9q-16 2 -33 20t-17 28z" />
<glyph unicode="&#xf704;" d="M-666 1092q0 18 8.5 27t20.5 14.5t26.5 6.5t26.5 1q8 0 39 -5.5t67 -10.5t66.5 -10t38.5 -5q43 0 70 23.5t43 54.5t25.5 60.5t19.5 43.5q4 4 15.5 11.5t27.5 7.5q18 0 28.5 -22.5t32.5 -39.5q12 6 24.5 22.5l27 34t34 29t45.5 4.5q0 -6 5.5 -10t5.5 -18q0 -6 -19 -37 l-46 -77l-61 -100q-34 -54 -63 -106q-2 -4 -6 -14t-26 -10q-27 0 -36.5 13t-11.5 28.5t-4 29t-12 13.5q-16 0 -48 -15.5t-48 -15.5q-8 0 -38 2t-70 5t-83 8l-75 9q-16 2 -33 20t-17 28z" />
<glyph unicode="&#x201e;" d="M-666 1092q0 18 8.5 27t20.5 14.5t26.5 6.5t26.5 1q8 0 39 -5.5t67 -10.5t66.5 -10t38.5 -5q43 0 70 23.5t43 54.5t25.5 60.5t19.5 43.5q4 4 15.5 11.5t27.5 7.5q18 0 28.5 -22.5t32.5 -39.5q12 6 24.5 22.5l27 34t34 29t45.5 4.5q0 -6 5.5 -10t5.5 -18q0 -6 -19 -37 l-46 -77l-61 -100q-34 -54 -63 -106q-2 -4 -6 -14t-26 -10q-27 0 -36.5 13t-11.5 28.5t-4 29t-12 13.5q-16 0 -48 -15.5t-48 -15.5q-8 0 -38 2t-70 5t-83 8l-75 9q-16 2 -33 20t-17 28z" />
<glyph unicode="&#x85;" horiz-adv-x="792" d="M86 45q0 41 23.5 78t62.5 37q23 0 34 -9.5t27 -17.5q-12 -20 -17 -44l-10 -47q-5 -24 -14.5 -46.5t-29.5 -40.5q-6 2 -18.5 10t-26 21.5t-22.5 29t-9 29.5zM326 131q0 18 22.5 29.5t44.5 11.5q33 0 51.5 -18.5t18.5 -44.5q0 -37 -30 -61.5t-50 -24.5q-14 0 -25.5 14 t-18.5 33.5t-10 37t-3 23.5zM600 125q0 41 25.5 66.5t54.5 25.5q23 0 45.5 -6t22.5 -29q0 -12 -9 -22l-17 -23q-9 -12 -13 -30.5t4 -45.5q-8 -10 -20.5 -18t-35.5 -8q-18 0 -29.5 13t-17.5 29.5t-8 31t-2 16.5z" />
<glyph unicode="&#x2026;" horiz-adv-x="792" d="M86 45q0 41 23.5 78t62.5 37q23 0 34 -9.5t27 -17.5q-12 -20 -17 -44l-10 -47q-5 -24 -14.5 -46.5t-29.5 -40.5q-6 2 -18.5 10t-26 21.5t-22.5 29t-9 29.5zM326 131q0 18 22.5 29.5t44.5 11.5q33 0 51.5 -18.5t18.5 -44.5q0 -37 -30 -61.5t-50 -24.5q-14 0 -25.5 14 t-18.5 33.5t-10 37t-3 23.5zM600 125q0 41 25.5 66.5t54.5 25.5q23 0 45.5 -6t22.5 -29q0 -12 -9 -22l-17 -23q-9 -12 -13 -30.5t4 -45.5q-8 -10 -20.5 -18t-35.5 -8q-18 0 -29.5 13t-17.5 29.5t-8 31t-2 16.5z" />
<glyph horiz-adv-x="38" d="M-436 1026q0 4 7 27.5t19 55.5l27 66q14 34 29 62h41q4 -10 6 -21.5t2 -21.5t-11.5 -41t-27.5 -63.5t-33.5 -59t-30.5 -26.5q-28 -1 -28 22z" />
<glyph unicode="&#xf705;" horiz-adv-x="38" d="M-436 1026q0 4 7 27.5t19 55.5l27 66q14 34 29 62h41q4 -10 6 -21.5t2 -21.5t-11.5 -41t-27.5 -63.5t-33.5 -59t-30.5 -26.5q-28 -1 -28 22z" />
<glyph unicode="&#x2020;" horiz-adv-x="38" d="M-436 1026q0 4 7 27.5t19 55.5l27 66q14 34 29 62h41q4 -10 6 -21.5t2 -21.5t-11.5 -41t-27.5 -63.5t-33.5 -59t-30.5 -26.5q-28 -1 -28 22z" />
<glyph d="M-582 1264q0 14 14.5 26.5t35 21.5t40 14t29.5 5q18 0 39 -6t39 -18.5t30.5 -27.5t14.5 -34q2 -12 0 -34.5t-6 -45.5q-2 -2 0 -4q0 -4 10 -8q31 14 69 35l74 39l67 31.5t40 13.5q23 0 25 -4t12 -4q14 -8 14 -33q0 -27 -94 -70l-30 -21l-57 -41l-74 -51q-40 -28 -79 -51.5 t-71.5 -39t-51.5 -15.5q-16 0 -27 9.5t-22 21.5q-10 14 -18 33q0 6 16 25l35 42l35 42q16 19 16 28v57q0 6 -7 7t-17.5 1t-21.5 -1t-19 -1q-16 10 -38 27t-22 31z" />
<glyph unicode="&#xf706;" d="M-582 1264q0 14 14.5 26.5t35 21.5t40 14t29.5 5q18 0 39 -6t39 -18.5t30.5 -27.5t14.5 -34q2 -12 0 -34.5t-6 -45.5q-2 -2 0 -4q0 -4 10 -8q31 14 69 35l74 39l67 31.5t40 13.5q23 0 25 -4t12 -4q14 -8 14 -33q0 -27 -94 -70l-30 -21l-57 -41l-74 -51q-40 -28 -79 -51.5 t-71.5 -39t-51.5 -15.5q-16 0 -27 9.5t-22 21.5q-10 14 -18 33q0 6 16 25l35 42l35 42q16 19 16 28v57q0 6 -7 7t-17.5 1t-21.5 -1t-19 -1q-16 10 -38 27t-22 31z" />
<glyph unicode="&#x2021;" d="M-582 1264q0 14 14.5 26.5t35 21.5t40 14t29.5 5q18 0 39 -6t39 -18.5t30.5 -27.5t14.5 -34q2 -12 0 -34.5t-6 -45.5q-2 -2 0 -4q0 -4 10 -8q31 14 69 35l74 39l67 31.5t40 13.5q23 0 25 -4t12 -4q14 -8 14 -33q0 -27 -94 -70l-30 -21l-57 -41l-74 -51q-40 -28 -79 -51.5 t-71.5 -39t-51.5 -15.5q-16 0 -27 9.5t-22 21.5q-10 14 -18 33q0 6 16 25l35 42l35 42q16 19 16 28v57q0 6 -7 7t-17.5 1t-21.5 -1t-19 -1q-16 10 -38 27t-22 31z" />
<glyph d="M-416 989q0 16 8.5 56t25.5 81t42 73t55 32q20 0 32.5 -8.5t21 -20.5t14.5 -27.5t16 -31.5q14 8 31 22l32 29l28.5 25.5t19.5 11.5q23 0 33 -12.5t13 -27.5t3 -30v-16q0 -4 -4 -6t12 -2q6 0 31 16t56 41l66 52q34 28 58 50h25q10 -8 10 -28q0 -12 -9 -25.5t-22.5 -26 t-26 -22.5t-18.5 -18q-23 -29 -51.5 -61t-59 -58.5t-62.5 -44t-58 -17.5q-12 0 -25.5 18.5t-30.5 35.5q-16 -12 -25 -21.5l-15.5 -16.5t-12.5 -11.5t-18 -4.5q-25 0 -37 12.5t-16.5 28t-4.5 31.5t-2 25q0 6 -3 9l-9 9q-10 -4 -15 -15.5t-16 -23.5q12 -47 7 -80t-2 -76 q-4 0 -9.5 -4t-19.5 -4q-18 0 -30.5 11.5t-21 25.5t-12.5 27.5t-4 17.5z" />
<glyph unicode="&#xf707;" d="M-416 989q0 16 8.5 56t25.5 81t42 73t55 32q20 0 32.5 -8.5t21 -20.5t14.5 -27.5t16 -31.5q14 8 31 22l32 29l28.5 25.5t19.5 11.5q23 0 33 -12.5t13 -27.5t3 -30v-16q0 -4 -4 -6t12 -2q6 0 31 16t56 41l66 52q34 28 58 50h25q10 -8 10 -28q0 -12 -9 -25.5t-22.5 -26 t-26 -22.5t-18.5 -18q-23 -29 -51.5 -61t-59 -58.5t-62.5 -44t-58 -17.5q-12 0 -25.5 18.5t-30.5 35.5q-16 -12 -25 -21.5l-15.5 -16.5t-12.5 -11.5t-18 -4.5q-25 0 -37 12.5t-16.5 28t-4.5 31.5t-2 25q0 6 -3 9l-9 9q-10 -4 -15 -15.5t-16 -23.5q12 -47 7 -80t-2 -76 q-4 0 -9.5 -4t-19.5 -4q-18 0 -30.5 11.5t-21 25.5t-12.5 27.5t-4 17.5z" />
<glyph unicode="&#x2c6;" d="M-416 989q0 16 8.5 56t25.5 81t42 73t55 32q20 0 32.5 -8.5t21 -20.5t14.5 -27.5t16 -31.5q14 8 31 22l32 29l28.5 25.5t19.5 11.5q23 0 33 -12.5t13 -27.5t3 -30v-16q0 -4 -4 -6t12 -2q6 0 31 16t56 41l66 52q34 28 58 50h25q10 -8 10 -28q0 -12 -9 -25.5t-22.5 -26 t-26 -22.5t-18.5 -18q-23 -29 -51.5 -61t-59 -58.5t-62.5 -44t-58 -17.5q-12 0 -25.5 18.5t-30.5 35.5q-16 -12 -25 -21.5l-15.5 -16.5t-12.5 -11.5t-18 -4.5q-25 0 -37 12.5t-16.5 28t-4.5 31.5t-2 25q0 6 -3 9l-9 9q-10 -4 -15 -15.5t-16 -23.5q12 -47 7 -80t-2 -76 q-4 0 -9.5 -4t-19.5 -4q-18 0 -30.5 11.5t-21 25.5t-12.5 27.5t-4 17.5z" />
<glyph d="M-580 1155q0 14 20.5 21.5t46.5 11.5t48.5 7t26.5 9l29 38l30 40h47q0 -16 -1 -33.5t-7 -38.5q16 -10 38.5 -16t45.5 -10v-19q-27 -10 -54.5 -17t-47.5 -15q-27 -8 -39 -34l-23 -46q-10 -18 -26.5 -35t-2.5 -39q-6 0 -11 -3t-21 -3q-29 0 -33 18q-2 8 0 21q0 4 6 17 t14.5 28.5t14.5 30t6 18.5q0 10 -3 8t-3 6q-14 -2 -31.5 -2t-33 4t-26 12.5t-10.5 20.5z" />
<glyph unicode="&#xf708;" d="M-580 1155q0 14 20.5 21.5t46.5 11.5t48.5 7t26.5 9l29 38l30 40h47q0 -16 -1 -33.5t-7 -38.5q16 -10 38.5 -16t45.5 -10v-19q-27 -10 -54.5 -17t-47.5 -15q-27 -8 -39 -34l-23 -46q-10 -18 -26.5 -35t-2.5 -39q-6 0 -11 -3t-21 -3q-29 0 -33 18q-2 8 0 21q0 4 6 17 t14.5 28.5t14.5 30t6 18.5q0 10 -3 8t-3 6q-14 -2 -31.5 -2t-33 4t-26 12.5t-10.5 20.5z" />
<glyph unicode="&#x2030;" d="M-580 1155q0 14 20.5 21.5t46.5 11.5t48.5 7t26.5 9l29 38l30 40h47q0 -16 -1 -33.5t-7 -38.5q16 -10 38.5 -16t45.5 -10v-19q-27 -10 -54.5 -17t-47.5 -15q-27 -8 -39 -34l-23 -46q-10 -18 -26.5 -35t-2.5 -39q-6 0 -11 -3t-21 -3q-29 0 -33 18q-2 8 0 21q0 4 6 17 t14.5 28.5t14.5 30t6 18.5q0 10 -3 8t-3 6q-14 -2 -31.5 -2t-33 4t-26 12.5t-10.5 20.5z" />
<glyph d="M-315 999q0 35 29.5 68t75.5 60.5t101.5 52t105.5 42t88 29t50 15.5q20 6 48 16t46 10q23 0 34 -4t22 -4v-24q0 -12 -10.5 -17.5t-26 -8.5l-32.5 -6t-32 -9l-159 -71q-84 -36 -142 -87q-4 -4 -3 -14.5t3 -22.5l4 -26q2 -13 0 -25q-2 -10 -19.5 -25.5t-33.5 -25.5 q-8 -2 -13 -2h-28q-16 0 -35.5 9t-36 21.5t-26.5 25.5t-10 23z" />
<glyph unicode="&#xf709;" d="M-315 999q0 35 29.5 68t75.5 60.5t101.5 52t105.5 42t88 29t50 15.5q20 6 48 16t46 10q23 0 34 -4t22 -4v-24q0 -12 -10.5 -17.5t-26 -8.5l-32.5 -6t-32 -9l-159 -71q-84 -36 -142 -87q-4 -4 -3 -14.5t3 -22.5l4 -26q2 -13 0 -25q-2 -10 -19.5 -25.5t-33.5 -25.5 q-8 -2 -13 -2h-28q-16 0 -35.5 9t-36 21.5t-26.5 25.5t-10 23z" />
<glyph unicode="&#x160;" d="M-315 999q0 35 29.5 68t75.5 60.5t101.5 52t105.5 42t88 29t50 15.5q20 6 48 16t46 10q23 0 34 -4t22 -4v-24q0 -12 -10.5 -17.5t-26 -8.5l-32.5 -6t-32 -9l-159 -71q-84 -36 -142 -87q-4 -4 -3 -14.5t3 -22.5l4 -26q2 -13 0 -25q-2 -10 -19.5 -25.5t-33.5 -25.5 q-8 -2 -13 -2h-28q-16 0 -35.5 9t-36 21.5t-26.5 25.5t-10 23z" />
<glyph d="M-86 954q0 8 16 43l39 82l49 98l48 91h75q10 -16 13.5 -35t3.5 -33q0 -8 -20.5 -53t-49.5 -95.5t-61.5 -90t-59.5 -39.5q-23 0 -38 8t-15 24z" />
<glyph unicode="&#xf70a;" d="M-86 954q0 8 16 43l39 82l49 98l48 91h75q10 -16 13.5 -35t3.5 -33q0 -8 -20.5 -53t-49.5 -95.5t-61.5 -90t-59.5 -39.5q-23 0 -38 8t-15 24z" />
<glyph unicode="&#x2039;" d="M-86 954q0 8 16 43l39 82l49 98l48 91h75q10 -16 13.5 -35t3.5 -33q0 -8 -20.5 -53t-49.5 -95.5t-61.5 -90t-59.5 -39.5q-23 0 -38 8t-15 24z" />
<glyph d="M-469 1219q0 20 21.5 38.5t53.5 32t69.5 20.5t70.5 7t55.5 -15.5t37 -36t19.5 -41t5 -30.5q0 -12 -9.5 -31.5l-20.5 -40.5l-22 -40q-11 -19 -16 -27q10 -4 8 -4t21 0q8 0 42 12l73 26l72 25q34 12 44 12q23 0 31 -13t18 -34q-45 -18 -91 -45l-92 -51q-46 -25 -90 -42 t-85 -17q-39 0 -78 18.5t-39 40.5q0 6 21 38l46 69q26 37 46 69.5t20 38.5q0 12 -5 11t-5 10h-39q-10 0 -27 -9l-38 -17q-20 -9 -39 -16.5t-29 -7.5q-18 0 -27.5 7.5t-14.5 16.5t-6 16.5t-1 9.5z" />
<glyph unicode="&#xf70b;" d="M-469 1219q0 20 21.5 38.5t53.5 32t69.5 20.5t70.5 7t55.5 -15.5t37 -36t19.5 -41t5 -30.5q0 -12 -9.5 -31.5l-20.5 -40.5l-22 -40q-11 -19 -16 -27q10 -4 8 -4t21 0q8 0 42 12l73 26l72 25q34 12 44 12q23 0 31 -13t18 -34q-45 -18 -91 -45l-92 -51q-46 -25 -90 -42 t-85 -17q-39 0 -78 18.5t-39 40.5q0 6 21 38l46 69q26 37 46 69.5t20 38.5q0 12 -5 11t-5 10h-39q-10 0 -27 -9l-38 -17q-20 -9 -39 -16.5t-29 -7.5q-18 0 -27.5 7.5t-14.5 16.5t-6 16.5t-1 9.5z" />
<glyph unicode="&#x152;" d="M-469 1219q0 20 21.5 38.5t53.5 32t69.5 20.5t70.5 7t55.5 -15.5t37 -36t19.5 -41t5 -30.5q0 -12 -9.5 -31.5l-20.5 -40.5l-22 -40q-11 -19 -16 -27q10 -4 8 -4t21 0q8 0 42 12l73 26l72 25q34 12 44 12q23 0 31 -13t18 -34q-45 -18 -91 -45l-92 -51q-46 -25 -90 -42 t-85 -17q-39 0 -78 18.5t-39 40.5q0 6 21 38l46 69q26 37 46 69.5t20 38.5q0 12 -5 11t-5 10h-39q-10 0 -27 -9l-38 -17q-20 -9 -39 -16.5t-29 -7.5q-18 0 -27.5 7.5t-14.5 16.5t-6 16.5t-1 9.5z" />
<glyph d="M-315 993q0 6 3 22.5t9 38t13 44t18 37.5l25 37q13 19 30.5 36t37 28t42.5 11t35 -8t19 -20l14 -26q7 -13 20 -26q14 8 32 23l33 27l30 21q13 9 22 9q31 0 40 -20.5t9 -32.5v-109l12 -12q100 76 177 166l163 186q23 0 30 -4t13 -4v-26l-86 -103l-107 -127 q-10 -10 -34.5 -44t-56 -69.5t-65.5 -63.5t-61 -28q-10 0 -25.5 11.5t-25.5 17.5q-8 18 -13 34.5t-1 39.5q2 4 7 12t5 19q0 4 -1 12t-1 18v2q0 4 -4 8q-12 0 -25 -12q-6 -10 -19 -24.5t-30 -29.5l-31 -30q-15 -14 -24 -26q-10 -2 -27.5 9t-21.5 23q-8 23 -1 49.5t7 59.5 q-6 0 -5 3t-16 3q-12 0 -24 -12.5t-23.5 -28.5t-18.5 -30.5t-7 -18.5q0 -12 15 -32.5t15 -33.5q0 -8 -6 -21t-16 -26.5t-21.5 -22.5t-21.5 -9q-12 0 -23.5 10t-18.5 22.5t-11 24.5t-4 16z" />
<glyph unicode="&#xf70c;" d="M-315 993q0 6 3 22.5t9 38t13 44t18 37.5l25 37q13 19 30.5 36t37 28t42.5 11t35 -8t19 -20l14 -26q7 -13 20 -26q14 8 32 23l33 27l30 21q13 9 22 9q31 0 40 -20.5t9 -32.5v-109l12 -12q100 76 177 166l163 186q23 0 30 -4t13 -4v-26l-86 -103l-107 -127 q-10 -10 -34.5 -44t-56 -69.5t-65.5 -63.5t-61 -28q-10 0 -25.5 11.5t-25.5 17.5q-8 18 -13 34.5t-1 39.5q2 4 7 12t5 19q0 4 -1 12t-1 18v2q0 4 -4 8q-12 0 -25 -12q-6 -10 -19 -24.5t-30 -29.5l-31 -30q-15 -14 -24 -26q-10 -2 -27.5 9t-21.5 23q-8 23 -1 49.5t7 59.5 q-6 0 -5 3t-16 3q-12 0 -24 -12.5t-23.5 -28.5t-18.5 -30.5t-7 -18.5q0 -12 15 -32.5t15 -33.5q0 -8 -6 -21t-16 -26.5t-21.5 -22.5t-21.5 -9q-12 0 -23.5 10t-18.5 22.5t-11 24.5t-4 16z" />
<glyph d="M-342 1157q0 16 22.5 24.5t32.5 8.5q14 0 31.5 -6t32.5 -6q8 0 25.5 3t35.5 7l33 7l14 3q8 20 13 43l8 45q4 14 18 25h29q10 0 11 -10.5t1 -18.5q0 -14 -8 -31.5t-8 -27.5q0 -16 18.5 -17.5t22.5 -1.5q16 0 26.5 3t22.5 3q23 0 32 -12t9 -22t-20.5 -17.5t-46.5 -13.5 l-49 -12q-24 -6 -27 -17q-16 -31 -16.5 -62.5t-10.5 -62.5q-6 -18 -12.5 -40.5t-14.5 -45.5q-4 4 -21.5 13.5t-17.5 19.5q0 6 4.5 26.5t10.5 45t10 45t4 26.5q0 10 -9 16.5t-22 6.5q-14 0 -36.5 -2t-36.5 -2q-20 0 -50 2t-49 20q2 8 -5 16.5t-7 18.5z" />
<glyph unicode="&#xf70d;" d="M-342 1157q0 16 22.5 24.5t32.5 8.5q14 0 31.5 -6t32.5 -6q8 0 25.5 3t35.5 7l33 7l14 3q8 20 13 43l8 45q4 14 18 25h29q10 0 11 -10.5t1 -18.5q0 -14 -8 -31.5t-8 -27.5q0 -16 18.5 -17.5t22.5 -1.5q16 0 26.5 3t22.5 3q23 0 32 -12t9 -22t-20.5 -17.5t-46.5 -13.5 l-49 -12q-24 -6 -27 -17q-16 -31 -16.5 -62.5t-10.5 -62.5q-6 -18 -12.5 -40.5t-14.5 -45.5q-4 4 -21.5 13.5t-17.5 19.5q0 6 4.5 26.5t10.5 45t10 45t4 26.5q0 10 -9 16.5t-22 6.5q-14 0 -36.5 -2t-36.5 -2q-20 0 -50 2t-49 20q2 8 -5 16.5t-7 18.5z" />
<glyph unicode="&#x17d;" d="M-342 1157q0 16 22.5 24.5t32.5 8.5q14 0 31.5 -6t32.5 -6q8 0 25.5 3t35.5 7l33 7l14 3q8 20 13 43l8 45q4 14 18 25h29q10 0 11 -10.5t1 -18.5q0 -14 -8 -31.5t-8 -27.5q0 -16 18.5 -17.5t22.5 -1.5q16 0 26.5 3t22.5 3q23 0 32 -12t9 -22t-20.5 -17.5t-46.5 -13.5 l-49 -12q-24 -6 -27 -17q-16 -31 -16.5 -62.5t-10.5 -62.5q-6 -18 -12.5 -40.5t-14.5 -45.5q-4 4 -21.5 13.5t-17.5 19.5q0 6 4.5 26.5t10.5 45t10 45t4 26.5q0 10 -9 16.5t-22 6.5q-14 0 -36.5 -2t-36.5 -2q-20 0 -50 2t-49 20q2 8 -5 16.5t-7 18.5z" />
<glyph d="M-313 1008q0 31 18.5 57.5t40.5 48.5q8 8 31.5 20.5t51.5 24.5l52 24q25 11 35 15q47 20 93 44t89 38q20 6 48 16.5t56 19.5l49 16q22 7 32 7h59q2 0 4 -2q6 -6 6 -10q0 -8 -30 -21l-72 -30l-85 -33q-44 -16 -71 -31l-123 -65l-151 -86q0 -4 -1 -5t7 -5q25 2 40 -6.5 t24.5 -21.5t12.5 -25.5t3 -18.5q0 -8 -3 -20.5t-12.5 -23.5t-26 -19.5t-44.5 -8.5q-39 0 -64.5 13.5t-41 30t-21.5 34t-6 23.5zM-227 1001q8 -8 18 -17t19 -7v18q-8 0 -18.5 3t-18.5 3z" />
<glyph unicode="&#xf70e;" d="M-313 1008q0 31 18.5 57.5t40.5 48.5q8 8 31.5 20.5t51.5 24.5l52 24q25 11 35 15q47 20 93 44t89 38q20 6 48 16.5t56 19.5l49 16q22 7 32 7h59q2 0 4 -2q6 -6 6 -10q0 -8 -30 -21l-72 -30l-85 -33q-44 -16 -71 -31l-123 -65l-151 -86q0 -4 -1 -5t7 -5q25 2 40 -6.5 t24.5 -21.5t12.5 -25.5t3 -18.5q0 -8 -3 -20.5t-12.5 -23.5t-26 -19.5t-44.5 -8.5q-39 0 -64.5 13.5t-41 30t-21.5 34t-6 23.5zM-227 1001q8 -8 18 -17t19 -7v18q-8 0 -18.5 3t-18.5 3z" />
<glyph horiz-adv-x="1058" d="M66 119q0 10 8 40.5t20 70.5l25 83q12 43 20 78q8 33 10.5 90.5t14.5 104.5q16 51 36.5 107.5t49.5 111.5q33 -4 75 -3l81 2q39 1 69.5 3t42.5 2q76 0 118 -24.5t63.5 -68.5t31.5 -102.5t27 -126.5q43 68 83 151l79 171h73q0 -20 7.5 -47t7.5 -55q0 -16 -23.5 -72.5 t-59.5 -131.5t-80 -157t-86 -151.5t-78 -114.5t-54 -45q-6 0 -23.5 18.5t-36 42t-34 47t-15.5 33.5q0 12 18 70l38 125l40 125q18 57 19 69q0 43 -10.5 65.5t-26.5 34t-36.5 13.5t-41.5 2q-12 0 -35.5 -5t-52.5 -13.5t-58 -18.5l-53 -18q-18 -6 -28 -26.5t-16.5 -45.5 t-9.5 -47.5t-7 -32.5q14 -16 29.5 -23.5t30 -16.5t23.5 -26.5t9 -54.5q0 -8 -13 -37l-33 -67q-19 -39 -43.5 -81t-47.5 -77t-42 -58.5t-28 -23.5q-10 0 -23.5 12.5t-25.5 30t-20 37t-8 31.5z" />
<glyph unicode="&#xf70f;" horiz-adv-x="1058" d="M66 119q0 10 8 40.5t20 70.5l25 83q12 43 20 78q8 33 10.5 90.5t14.5 104.5q16 51 36.5 107.5t49.5 111.5q33 -4 75 -3l81 2q39 1 69.5 3t42.5 2q76 0 118 -24.5t63.5 -68.5t31.5 -102.5t27 -126.5q43 68 83 151l79 171h73q0 -20 7.5 -47t7.5 -55q0 -16 -23.5 -72.5 t-59.5 -131.5t-80 -157t-86 -151.5t-78 -114.5t-54 -45q-6 0 -23.5 18.5t-36 42t-34 47t-15.5 33.5q0 12 18 70l38 125l40 125q18 57 19 69q0 43 -10.5 65.5t-26.5 34t-36.5 13.5t-41.5 2q-12 0 -35.5 -5t-52.5 -13.5t-58 -18.5l-53 -18q-18 -6 -28 -26.5t-16.5 -45.5 t-9.5 -47.5t-7 -32.5q14 -16 29.5 -23.5t30 -16.5t23.5 -26.5t9 -54.5q0 -8 -13 -37l-33 -67q-19 -39 -43.5 -81t-47.5 -77t-42 -58.5t-28 -23.5q-10 0 -23.5 12.5t-25.5 30t-20 37t-8 31.5z" />
<glyph horiz-adv-x="485" d="M156 733q0 12 1 20.5t1 18.5q0 8 20.5 40t48 66.5t55 61.5t40.5 27q10 0 18 -9.5t12 -13.5v-18q-14 -12 -30 -32l-32 -38q-15 -18 -25.5 -33.5t-10.5 -21.5t7 -14.5t17 -17.5l17 -17q8 -8 8 -15q0 -12 -7 -24.5t-15 -20.5q-14 -16 -40 -26.5t-36 -10.5q-18 0 -27.5 8.5 t-14.5 20.5t-6 25.5t-1 23.5z" />
<glyph unicode="&#x2018;" horiz-adv-x="485" d="M156 733q0 12 1 20.5t1 18.5q0 8 20.5 40t48 66.5t55 61.5t40.5 27q10 0 18 -9.5t12 -13.5v-18q-14 -12 -30 -32l-32 -38q-15 -18 -25.5 -33.5t-10.5 -21.5t7 -14.5t17 -17.5l17 -17q8 -8 8 -15q0 -12 -7 -24.5t-15 -20.5q-14 -16 -40 -26.5t-36 -10.5q-18 0 -27.5 8.5 t-14.5 20.5t-6 25.5t-1 23.5z" />
<glyph horiz-adv-x="485" d="M137 686q12 12 28.5 31.5t32 40t25.5 38t10 23.5t-7 15.5t-16 18.5t-16.5 18.5t-7.5 15.5q0 14 6.5 26.5t14.5 22.5q14 16 39.5 27.5t36.5 11.5q16 0 25 -9.5t14.5 -22.5t6.5 -27.5t1 -24.5q0 -12 -2 -20.5t-2 -20.5q0 -10 -19.5 -44t-45 -70t-52.5 -64.5t-41 -28.5 q-10 0 -12 4t-11 4q0 6 -4 17.5t-4 17.5z" />
<glyph unicode="&#x2019;" horiz-adv-x="485" d="M137 686q12 12 28.5 31.5t32 40t25.5 38t10 23.5t-7 15.5t-16 18.5t-16.5 18.5t-7.5 15.5q0 14 6.5 26.5t14.5 22.5q14 16 39.5 27.5t36.5 11.5q16 0 25 -9.5t14.5 -22.5t6.5 -27.5t1 -24.5q0 -12 -2 -20.5t-2 -20.5q0 -10 -19.5 -44t-45 -70t-52.5 -64.5t-41 -28.5 q-10 0 -12 4t-11 4q0 6 -4 17.5t-4 17.5z" />
<glyph horiz-adv-x="733" d="M131 340q0 37 12.5 64.5t36 53t57.5 53.5l76 64q16 14 46 18.5t61 4.5q86 0 131 -52t45 -122q0 -25 -23.5 -71t-59.5 -93t-80 -82t-85 -35q-29 0 -65.5 18.5t-70.5 46.5t-57.5 62.5t-23.5 69.5z" />
<glyph unicode="&#x2022;" horiz-adv-x="733" d="M131 340q0 37 12.5 64.5t36 53t57.5 53.5l76 64q16 14 46 18.5t61 4.5q86 0 131 -52t45 -122q0 -25 -23.5 -71t-59.5 -93t-80 -82t-85 -35q-29 0 -65.5 18.5t-70.5 46.5t-57.5 62.5t-23.5 69.5z" />
<glyph horiz-adv-x="933" d="M139 418q0 23 30 33t64 14q61 4 143 7l156 6q76 3 133.5 5t71.5 2q39 0 64.5 -13t25.5 -23q0 -6 -6 -17.5t-17 -23t-24.5 -19.5t-27.5 -8q-20 0 -62.5 6t-71.5 6q-14 0 -68 -3t-115.5 -6t-116 -6t-68.5 -3q-18 0 -37.5 4t-36 10t-27 14.5t-10.5 14.5z" />
<glyph unicode="&#x2013;" horiz-adv-x="933" d="M139 418q0 23 30 33t64 14q61 4 143 7l156 6q76 3 133.5 5t71.5 2q39 0 64.5 -13t25.5 -23q0 -6 -6 -17.5t-17 -23t-24.5 -19.5t-27.5 -8q-20 0 -62.5 6t-71.5 6q-14 0 -68 -3t-115.5 -6t-116 -6t-68.5 -3q-18 0 -37.5 4t-36 10t-27 14.5t-10.5 14.5z" />
<glyph horiz-adv-x="1146" d="M123 395q0 20 29.5 25.5t50.5 5.5q27 0 40 -3t36 -3q8 0 54 4t110 11l140 16l140 15q66 7 112 11t54 4q25 0 54.5 -5t60.5 -15l-22 -38l-21 -38q-18 0 -46 5t-55 5q-8 0 -53 -4t-108.5 -11l-136.5 -14.5l-136.5 -14.5t-108.5 -11t-53 -4h-84q-20 14 -38.5 31.5 t-18.5 27.5z" />
<glyph unicode="&#x2014;" horiz-adv-x="1146" d="M123 395q0 20 29.5 25.5t50.5 5.5q27 0 40 -3t36 -3q8 0 54 4t110 11l140 16l140 15q66 7 112 11t54 4q25 0 54.5 -5t60.5 -15l-22 -38l-21 -38q-18 0 -46 5t-55 5q-8 0 -53 -4t-108.5 -11l-136.5 -14.5l-136.5 -14.5t-108.5 -11t-53 -4h-84q-20 14 -38.5 31.5 t-18.5 27.5z" />
<glyph d="M-438 1223q0 12 1 29.5t8 35t22.5 29.5t41.5 12q43 0 67 -23.5t38 -51.5l28 -51q13 -24 37 -23q16 0 33 6t35 6q16 0 50 11t59 18q31 6 71.5 5t75.5 19q16 8 29.5 27.5t31.5 19.5t33 -18.5t23 -36.5q0 -10 -10.5 -27.5t-14.5 -25.5q-31 -23 -87 -47.5t-112.5 -46 t-100.5 -36t-52 -14.5h-98q-33 0 -70 10.5t-67.5 32t-51 56.5t-20.5 84z" />
<glyph unicode="&#xf710;" d="M-438 1223q0 12 1 29.5t8 35t22.5 29.5t41.5 12q43 0 67 -23.5t38 -51.5l28 -51q13 -24 37 -23q16 0 33 6t35 6q16 0 50 11t59 18q31 6 71.5 5t75.5 19q16 8 29.5 27.5t31.5 19.5t33 -18.5t23 -36.5q0 -10 -10.5 -27.5t-14.5 -25.5q-31 -23 -87 -47.5t-112.5 -46 t-100.5 -36t-52 -14.5h-98q-33 0 -70 10.5t-67.5 32t-51 56.5t-20.5 84z" />
<glyph unicode="&#x2dc;" d="M-438 1223q0 12 1 29.5t8 35t22.5 29.5t41.5 12q43 0 67 -23.5t38 -51.5l28 -51q13 -24 37 -23q16 0 33 6t35 6q16 0 50 11t59 18q31 6 71.5 5t75.5 19q16 8 29.5 27.5t31.5 19.5t33 -18.5t23 -36.5q0 -10 -10.5 -27.5t-14.5 -25.5q-31 -23 -87 -47.5t-112.5 -46 t-100.5 -36t-52 -14.5h-98q-33 0 -70 10.5t-67.5 32t-51 56.5t-20.5 84z" />
<glyph d="M-438 1120q0 41 33.5 80t93.5 92q12 10 31.5 14.5t41.5 4.5q51 0 87 -37t36 -92q0 -20 -16 -55t-42 -69t-56.5 -58.5t-59.5 -24.5q-18 0 -43.5 13t-49.5 34.5t-40 47t-16 50.5zM-315 1120q0 -23 3 -23.5t13 -11.5q35 27 60.5 62t33.5 61h-39q-27 -16 -49 -43t-22 -45z " />
<glyph unicode="&#xf711;" d="M-438 1120q0 41 33.5 80t93.5 92q12 10 31.5 14.5t41.5 4.5q51 0 87 -37t36 -92q0 -20 -16 -55t-42 -69t-56.5 -58.5t-59.5 -24.5q-18 0 -43.5 13t-49.5 34.5t-40 47t-16 50.5zM-315 1120q0 -23 3 -23.5t13 -11.5q35 27 60.5 62t33.5 61h-39q-27 -16 -49 -43t-22 -45z " />
<glyph unicode="&#x2122;" d="M-438 1120q0 41 33.5 80t93.5 92q12 10 31.5 14.5t41.5 4.5q51 0 87 -37t36 -92q0 -20 -16 -55t-42 -69t-56.5 -58.5t-59.5 -24.5q-18 0 -43.5 13t-49.5 34.5t-40 47t-16 50.5zM-315 1120q0 -23 3 -23.5t13 -11.5q35 27 60.5 62t33.5 61h-39q-27 -16 -49 -43t-22 -45z " />
<glyph d="M-463 1065q0 45 41 110.5t100 118.5q12 10 43 15.5t50 19.5q94 70 182 89.5t170 19.5q16 0 35.5 -5.5t31.5 -9.5q0 -6 -1 -13t-9 -11q-25 -6 -56.5 -11.5t-53.5 -13.5q-23 -6 -45.5 -21.5t-51.5 -21.5q-23 -6 -54.5 -18.5t-60 -26.5t-50 -27.5t-21.5 -21.5 q0 -10 19.5 -21.5t29.5 -25.5q12 -18 16.5 -49t4.5 -45q0 -47 -24 -100l-46 -103h-41q-37 27 -44 62.5t-11 60.5q2 0 4 2q0 4 -10 4q-16 0 -35 -17.5t-35 -17.5q-23 0 -38 11.5t-24.5 24.5t-12.5 25.5t-3 16.5zM-342 1139q27 -4 58.5 -17.5t52.5 -23.5q0 2 4 10q2 4 6 6 q-6 8 -19.5 15.5t-24.5 15.5t-16.5 17t7.5 22q-20 -10 -41 -22.5t-27 -22.5z" />
<glyph unicode="&#xf712;" d="M-463 1065q0 45 41 110.5t100 118.5q12 10 43 15.5t50 19.5q94 70 182 89.5t170 19.5q16 0 35.5 -5.5t31.5 -9.5q0 -6 -1 -13t-9 -11q-25 -6 -56.5 -11.5t-53.5 -13.5q-23 -6 -45.5 -21.5t-51.5 -21.5q-23 -6 -54.5 -18.5t-60 -26.5t-50 -27.5t-21.5 -21.5 q0 -10 19.5 -21.5t29.5 -25.5q12 -18 16.5 -49t4.5 -45q0 -47 -24 -100l-46 -103h-41q-37 27 -44 62.5t-11 60.5q2 0 4 2q0 4 -10 4q-16 0 -35 -17.5t-35 -17.5q-23 0 -38 11.5t-24.5 24.5t-12.5 25.5t-3 16.5zM-342 1139q27 -4 58.5 -17.5t52.5 -23.5q0 2 4 10q2 4 6 6 q-6 8 -19.5 15.5t-24.5 15.5t-16.5 17t7.5 22q-20 -10 -41 -22.5t-27 -22.5z" />
<glyph unicode="&#x161;" d="M-463 1065q0 45 41 110.5t100 118.5q12 10 43 15.5t50 19.5q94 70 182 89.5t170 19.5q16 0 35.5 -5.5t31.5 -9.5q0 -6 -1 -13t-9 -11q-25 -6 -56.5 -11.5t-53.5 -13.5q-23 -6 -45.5 -21.5t-51.5 -21.5q-23 -6 -54.5 -18.5t-60 -26.5t-50 -27.5t-21.5 -21.5 q0 -10 19.5 -21.5t29.5 -25.5q12 -18 16.5 -49t4.5 -45q0 -47 -24 -100l-46 -103h-41q-37 27 -44 62.5t-11 60.5q2 0 4 2q0 4 -10 4q-16 0 -35 -17.5t-35 -17.5q-23 0 -38 11.5t-24.5 24.5t-12.5 25.5t-3 16.5zM-342 1139q27 -4 58.5 -17.5t52.5 -23.5q0 2 4 10q2 4 6 6 q-6 8 -19.5 15.5t-24.5 15.5t-16.5 17t7.5 22q-20 -10 -41 -22.5t-27 -22.5z" />
<glyph horiz-adv-x="20" d="M-70 1417q0 4 4.5 21.5l10.5 39t14 44t14 37.5q0 2 10.5 19t25 37.5t31.5 38t32 17.5q29 0 37 -17.5t8 -21.5t-15 -23l-32 -46l-37 -56.5t-27 -50.5q-4 -14 -2 -33.5t12 -36.5q0 -2 2 -4t3.5 -5t5.5 -5q-6 -4 -11.5 -11t-17.5 -7t-24.5 9t-21.5 20.5t-15.5 21.5t-6.5 12z " />
<glyph unicode="&#xf713;" horiz-adv-x="20" d="M-70 1417q0 4 4.5 21.5l10.5 39t14 44t14 37.5q0 2 10.5 19t25 37.5t31.5 38t32 17.5q29 0 37 -17.5t8 -21.5t-15 -23l-32 -46l-37 -56.5t-27 -50.5q-4 -14 -2 -33.5t12 -36.5q0 -2 2 -4t3.5 -5t5.5 -5q-6 -4 -11.5 -11t-17.5 -7t-24.5 9t-21.5 20.5t-15.5 21.5t-6.5 12z " />
<glyph unicode="&#x203a;" horiz-adv-x="20" d="M-70 1417q0 4 4.5 21.5l10.5 39t14 44t14 37.5q0 2 10.5 19t25 37.5t31.5 38t32 17.5q29 0 37 -17.5t8 -21.5t-15 -23l-32 -46l-37 -56.5t-27 -50.5q-4 -14 -2 -33.5t12 -36.5q0 -2 2 -4t3.5 -5t5.5 -5q-6 -4 -11.5 -11t-17.5 -7t-24.5 9t-21.5 20.5t-15.5 21.5t-6.5 12z " />
<glyph d="M-551 1720q0 14 17.5 28.5t40 24t45 15.5t34.5 6q20 0 44 -7t44.5 -19.5t35 -30t16.5 -35.5q2 -14 -1.5 -40t-7.5 -50q-2 -2 0 -4q4 -4 13 -9l70 37l82 43q40 20 73 35t45 15q25 0 29 -4.5t14 -4.5q10 -6 13 -12t3 -22q0 -18 -28 -35l-64 -37q-37 -18 -91 -59.5 t-113.5 -81t-115 -70.5t-93.5 -31q-18 0 -33 10.5t-25 24.5q-12 14 -20 35q0 8 18 28l40 46l40 45q18 20 18 28v64q0 12 -27.5 8t-45.5 -2q-20 10 -45 28.5t-25 32.5z" />
<glyph unicode="&#xf714;" d="M-551 1720q0 14 17.5 28.5t40 24t45 15.5t34.5 6q20 0 44 -7t44.5 -19.5t35 -30t16.5 -35.5q2 -14 -1.5 -40t-7.5 -50q-2 -2 0 -4q4 -4 13 -9l70 37l82 43q40 20 73 35t45 15q25 0 29 -4.5t14 -4.5q10 -6 13 -12t3 -22q0 -18 -28 -35l-64 -37q-37 -18 -91 -59.5 t-113.5 -81t-115 -70.5t-93.5 -31q-18 0 -33 10.5t-25 24.5q-12 14 -20 35q0 8 18 28l40 46l40 45q18 20 18 28v64q0 12 -27.5 8t-45.5 -2q-20 10 -45 28.5t-25 32.5z" />
<glyph unicode="&#x153;" d="M-551 1720q0 14 17.5 28.5t40 24t45 15.5t34.5 6q20 0 44 -7t44.5 -19.5t35 -30t16.5 -35.5q2 -14 -1.5 -40t-7.5 -50q-2 -2 0 -4q4 -4 13 -9l70 37l82 43q40 20 73 35t45 15q25 0 29 -4.5t14 -4.5q10 -6 13 -12t3 -22q0 -18 -28 -35l-64 -37q-37 -18 -91 -59.5 t-113.5 -81t-115 -70.5t-93.5 -31q-18 0 -33 10.5t-25 24.5q-12 14 -20 35q0 8 18 28l40 46l40 45q18 20 18 28v64q0 12 -27.5 8t-45.5 -2q-20 10 -45 28.5t-25 32.5z" />
<glyph d="M-223 1473q0 14 7 53t22.5 79t36 70.5t48.5 30.5q35 0 45.5 -27.5t28.5 -58.5q12 8 27 22l27 29q13 14 24.5 24.5t17.5 10.5q20 0 28.5 -12.5t11.5 -27.5t3 -29v-15q0 -4 -3 -6t10 -2q6 0 27.5 16.5t48.5 40.5l58 52l52 51h22q8 -8 9 -31q0 -14 -9.5 -27.5t-21.5 -25.5 l-25 -24q-12 -11 -16 -17q-25 -37 -51.5 -68t-52 -53.5t-50 -35.5t-43.5 -13q-12 0 -23 19.5t-26 35.5q-29 -25 -36 -40t-27 -15t-30.5 11t-15.5 26.5t-5 30.5v22q0 6 -4 9l-9 9q-10 -4 -14 -15t-12 -18q10 -47 6 -78.5t-2 -74.5q-4 0 -8.5 -4t-16.5 -4q-16 0 -27.5 10 t-18.5 24.5t-10 28t-3 17.5z" />
<glyph unicode="&#xf715;" d="M-223 1473q0 14 7 53t22.5 79t36 70.5t48.5 30.5q35 0 45.5 -27.5t28.5 -58.5q12 8 27 22l27 29q13 14 24.5 24.5t17.5 10.5q20 0 28.5 -12.5t11.5 -27.5t3 -29v-15q0 -4 -3 -6t10 -2q6 0 27.5 16.5t48.5 40.5l58 52l52 51h22q8 -8 9 -31q0 -14 -9.5 -27.5t-21.5 -25.5 l-25 -24q-12 -11 -16 -17q-25 -37 -51.5 -68t-52 -53.5t-50 -35.5t-43.5 -13q-12 0 -23 19.5t-26 35.5q-29 -25 -36 -40t-27 -15t-30.5 11t-15.5 26.5t-5 30.5v22q0 6 -4 9l-9 9q-10 -4 -14 -15t-12 -18q10 -47 6 -78.5t-2 -74.5q-4 0 -8.5 -4t-16.5 -4q-16 0 -27.5 10 t-18.5 24.5t-10 28t-3 17.5z" />
<glyph d="M-539 1567q0 14 22.5 22t50.5 12.5t52.5 7.5t28.5 9q14 18 32.5 39.5t33.5 42.5h51q0 -16 -1 -34.5t-7 -39.5q16 -10 40.5 -17t49.5 -12v-20q-29 -10 -58.5 -17.5t-52.5 -15.5q-29 -10 -43 -35.5t-25 -48.5q-6 -10 -14 -19t-14 -18.5t-8 -19.5t6 -21q-6 0 -12.5 -3 t-22.5 -3q-18 0 -25.5 6.5t-10.5 13.5t-2 14l1 7q0 4 7 19l16 30l15 31q7 14 7 19q0 10 -3 9t-3 7q-14 -2 -33.5 -2t-36 4t-29 12.5t-12.5 20.5z" />
<glyph unicode="&#xf716;" d="M-539 1567q0 14 22.5 22t50.5 12.5t52.5 7.5t28.5 9q14 18 32.5 39.5t33.5 42.5h51q0 -16 -1 -34.5t-7 -39.5q16 -10 40.5 -17t49.5 -12v-20q-29 -10 -58.5 -17.5t-52.5 -15.5q-29 -10 -43 -35.5t-25 -48.5q-6 -10 -14 -19t-14 -18.5t-8 -19.5t6 -21q-6 0 -12.5 -3 t-22.5 -3q-18 0 -25.5 6.5t-10.5 13.5t-2 14l1 7q0 4 7 19l16 30l15 31q7 14 7 19q0 10 -3 9t-3 7q-14 -2 -33.5 -2t-36 4t-29 12.5t-12.5 20.5z" />
<glyph unicode="&#x17e;" d="M-539 1567q0 14 22.5 22t50.5 12.5t52.5 7.5t28.5 9q14 18 32.5 39.5t33.5 42.5h51q0 -16 -1 -34.5t-7 -39.5q16 -10 40.5 -17t49.5 -12v-20q-29 -10 -58.5 -17.5t-52.5 -15.5q-29 -10 -43 -35.5t-25 -48.5q-6 -10 -14 -19t-14 -18.5t-8 -19.5t6 -21q-6 0 -12.5 -3 t-22.5 -3q-18 0 -25.5 6.5t-10.5 13.5t-2 14l1 7q0 4 7 19l16 30l15 31q7 14 7 19q0 10 -3 9t-3 7q-14 -2 -33.5 -2t-36 4t-29 12.5t-12.5 20.5z" />
<glyph d="M-504 1303q0 31 11.5 59.5t39.5 46.5q59 41 141.5 83t159.5 77l40 16l53 20l46 16q19 7 21 7h49q2 0 4 -2q6 -6 7 -10q0 -8 -26 -21.5t-61 -29.5l-74 -34q-38 -17 -61 -30l-114 -68q-61 -36 -121 -77q0 -4 -1 -5t5 -5q20 2 34.5 -6.5t21.5 -21.5t10.5 -25.5t3.5 -18.5 q0 -8 -3.5 -20.5t-10.5 -23.5t-21.5 -19.5t-38.5 -8.5q-35 0 -56.5 13.5t-35 30t-18.5 34t-5 23.5zM-430 1296q6 -10 15 -17t16 -7v18q-6 0 -15.5 3t-15.5 3z" />
<glyph unicode="&#xf717;" d="M-504 1303q0 31 11.5 59.5t39.5 46.5q59 41 141.5 83t159.5 77l40 16l53 20l46 16q19 7 21 7h49q2 0 4 -2q6 -6 7 -10q0 -8 -26 -21.5t-61 -29.5l-74 -34q-38 -17 -61 -30l-114 -68q-61 -36 -121 -77q0 -4 -1 -5t5 -5q20 2 34.5 -6.5t21.5 -21.5t10.5 -25.5t3.5 -18.5 q0 -8 -3.5 -20.5t-10.5 -23.5t-21.5 -19.5t-38.5 -8.5q-35 0 -56.5 13.5t-35 30t-18.5 34t-5 23.5zM-430 1296q6 -10 15 -17t16 -7v18q-6 0 -15.5 3t-15.5 3z" />
<glyph unicode="&#x178;" d="M-504 1303q0 31 11.5 59.5t39.5 46.5q59 41 141.5 83t159.5 77l40 16l53 20l46 16q19 7 21 7h49q2 0 4 -2q6 -6 7 -10q0 -8 -26 -21.5t-61 -29.5l-74 -34q-38 -17 -61 -30l-114 -68q-61 -36 -121 -77q0 -4 -1 -5t5 -5q20 2 34.5 -6.5t21.5 -21.5t10.5 -25.5t3.5 -18.5 q0 -8 -3.5 -20.5t-10.5 -23.5t-21.5 -19.5t-38.5 -8.5q-35 0 -56.5 13.5t-35 30t-18.5 34t-5 23.5zM-430 1296q6 -10 15 -17t16 -7v18q-6 0 -15.5 3t-15.5 3z" />
<glyph unicode="&#xe00;" horiz-adv-x="925" />
<glyph unicode="&#xa1;" horiz-adv-x="778" d="M117 72q0 8 4 28.5t10 46t11 54t8 53.5q2 49 9 107.5t16 119t20.5 118.5t23.5 108q84 31 158 64.5t139 33.5q51 0 79 -25.5t40 -61.5t13 -71t1 -53q0 -53 -14 -124t-33 -144l-35 -144q-16 -70 -22 -123q-4 -10 -13.5 -26.5t-19.5 -26.5q-37 12 -53.5 20.5t-22.5 16.5 t-5 17.5t1 23.5q0 8 10 46l25 92l32 117l31 117l25 92q10 38 10 46q0 47 -21.5 62.5t-49.5 15.5q-18 0 -51 -7.5t-66 -23.5t-60.5 -47t-40.5 -76q-12 -53 -14 -114.5t-8 -114.5q-10 -74 -23.5 -147.5t-31.5 -147.5h-43q-16 16 -27.5 35.5t-11.5 42.5z" />
<glyph unicode="&#xe01;" horiz-adv-x="778" d="M117 72q0 8 4 28.5t10 46t11 54t8 53.5q2 49 9 107.5t16 119t20.5 118.5t23.5 108q84 31 158 64.5t139 33.5q51 0 79 -25.5t40 -61.5t13 -71t1 -53q0 -53 -14 -124t-33 -144l-35 -144q-16 -70 -22 -123q-4 -10 -13.5 -26.5t-19.5 -26.5q-37 12 -53.5 20.5t-22.5 16.5 t-5 17.5t1 23.5q0 8 10 46l25 92l32 117l31 117l25 92q10 38 10 46q0 47 -21.5 62.5t-49.5 15.5q-18 0 -51 -7.5t-66 -23.5t-60.5 -47t-40.5 -76q-12 -53 -14 -114.5t-8 -114.5q-10 -74 -23.5 -147.5t-31.5 -147.5h-43q-16 16 -27.5 35.5t-11.5 42.5z" />
<glyph unicode="&#xa2;" horiz-adv-x="743" d="M72 551q0 10 8 30.5t21.5 44t31 47t33.5 38.5q8 8 26.5 16t39 14.5t39 10.5t30.5 4q27 0 44 -7.5t31.5 -23.5t31.5 -44l41 -67q18 25 35 58l33 62q15 30 27.5 51.5t24.5 21.5q18 0 28.5 -8t15.5 -20.5t6.5 -25t1.5 -18.5q0 -10 -8 -37l-16 -60l-19 -71q-10 -37 -19 -63 q-29 -104 -79 -225l-95 -236q-4 -8 -22.5 -24.5t-40.5 -16.5q-23 0 -38.5 12.5t-25.5 29.5t-15 33.5t-5 26.5q0 12 16 64l35 112l35 112q16 52 16 65v147q-8 0 -11 5t-28 5q-23 0 -47 -28l-51 -58q-4 -10 -4 -26.5t-4 -28.5q0 -6 -2 -12q-4 -12 -25 -12q-12 0 -29.5 12 t-32 28.5t-24.5 34t-10 27.5z" />
<glyph unicode="&#xe02;" horiz-adv-x="743" d="M72 551q0 10 8 30.5t21.5 44t31 47t33.5 38.5q8 8 26.5 16t39 14.5t39 10.5t30.5 4q27 0 44 -7.5t31.5 -23.5t31.5 -44l41 -67q18 25 35 58l33 62q15 30 27.5 51.5t24.5 21.5q18 0 28.5 -8t15.5 -20.5t6.5 -25t1.5 -18.5q0 -10 -8 -37l-16 -60l-19 -71q-10 -37 -19 -63 q-29 -104 -79 -225l-95 -236q-4 -8 -22.5 -24.5t-40.5 -16.5q-23 0 -38.5 12.5t-25.5 29.5t-15 33.5t-5 26.5q0 12 16 64l35 112l35 112q16 52 16 65v147q-8 0 -11 5t-28 5q-23 0 -47 -28l-51 -58q-4 -10 -4 -26.5t-4 -28.5q0 -6 -2 -12q-4 -12 -25 -12q-12 0 -29.5 12 t-32 28.5t-24.5 34t-10 27.5z" />
<glyph unicode="&#xa3;" horiz-adv-x="759" d="M25 498q0 12 17 57t40.5 95t48.5 89t41 39q37 0 57.5 -16.5t32.5 -38t20.5 -45t20.5 -37.5q14 14 31 35l34 41q17 20 32.5 34.5t27.5 14.5q20 0 31.5 -9t16.5 -20.5t6 -23t1 -15.5v-196q10 -10 15.5 -17.5t23.5 -7.5q0 29 12.5 75t36 95t56 94t73.5 74q18 -16 19 -67 q0 -8 -12 -48l-32 -97l-44 -128l-49 -140q-25 -71 -50 -133l-40 -104q-12 -31 -22.5 -48t-21 -26.5t-25.5 -12.5t-38 -3q-31 0 -48.5 12.5t-26.5 31t-11 39t-2 36.5q0 12 6 41l14 66q8 38 14.5 80t6.5 79q-25 -16 -33 -32.5t-13 -29t-14.5 -19.5t-35.5 -7q-23 0 -27 1t-14 3 q-16 23 -25.5 53.5t-38.5 51.5q-6 6 -24.5 14t-38 19.5t-34.5 24t-15 26.5zM467 424l16 -8l17 35l-19 6z" />
<glyph unicode="&#xe03;" horiz-adv-x="759" d="M25 498q0 12 17 57t40.5 95t48.5 89t41 39q37 0 57.5 -16.5t32.5 -38t20.5 -45t20.5 -37.5q14 14 31 35l34 41q17 20 32.5 34.5t27.5 14.5q20 0 31.5 -9t16.5 -20.5t6 -23t1 -15.5v-196q10 -10 15.5 -17.5t23.5 -7.5q0 29 12.5 75t36 95t56 94t73.5 74q18 -16 19 -67 q0 -8 -12 -48l-32 -97l-44 -128l-49 -140q-25 -71 -50 -133l-40 -104q-12 -31 -22.5 -48t-21 -26.5t-25.5 -12.5t-38 -3q-31 0 -48.5 12.5t-26.5 31t-11 39t-2 36.5q0 12 6 41l14 66q8 38 14.5 80t6.5 79q-25 -16 -33 -32.5t-13 -29t-14.5 -19.5t-35.5 -7q-23 0 -27 1t-14 3 q-16 23 -25.5 53.5t-38.5 51.5q-6 6 -24.5 14t-38 19.5t-34.5 24t-15 26.5zM467 424l16 -8l17 35l-19 6z" />
<glyph unicode="&#xa4;" horiz-adv-x="872" d="M236 139l56 253q28 130 44 253q2 25 15.5 47.5t29.5 39t34.5 27.5t33.5 15q35 10 79.5 19.5t67.5 9.5q80 0 132 -19.5t83 -54.5t42 -86t11 -115q0 -6 -6 -47t-16.5 -98t-25.5 -122.5t-33.5 -121t-39 -92.5t-41.5 -37q-20 0 -45.5 21.5t-25.5 42.5q0 10 16 51l37 89l37 89 q16 41 16 51v56q2 2 2 4q-4 4 -20 4t-49 -24.5t-74 -62.5l-85 -82l-81 -82q-37 -38 -63.5 -62.5t-32.5 -24.5q-20 0 -45.5 25.5t-52.5 33.5zM399 371q57 43 131 88t179 90q23 10 37 28.5t14 38.5q0 23 -23.5 40.5t-46.5 17.5q-20 0 -56 -5t-73 -14.5t-68.5 -23t-43.5 -29.5 q-10 -12 -18.5 -35.5t-15.5 -47t-11.5 -44t-4.5 -29.5v-75z" />
<glyph unicode="&#xe04;" horiz-adv-x="872" d="M236 139l56 253q28 130 44 253q2 25 15.5 47.5t29.5 39t34.5 27.5t33.5 15q35 10 79.5 19.5t67.5 9.5q80 0 132 -19.5t83 -54.5t42 -86t11 -115q0 -6 -6 -47t-16.5 -98t-25.5 -122.5t-33.5 -121t-39 -92.5t-41.5 -37q-20 0 -45.5 21.5t-25.5 42.5q0 10 16 51l37 89l37 89 q16 41 16 51v56q2 2 2 4q-4 4 -20 4t-49 -24.5t-74 -62.5l-85 -82l-81 -82q-37 -38 -63.5 -62.5t-32.5 -24.5q-20 0 -45.5 25.5t-52.5 33.5zM399 371q57 43 131 88t179 90q23 10 37 28.5t14 38.5q0 23 -23.5 40.5t-46.5 17.5q-20 0 -56 -5t-73 -14.5t-68.5 -23t-43.5 -29.5 q-10 -12 -18.5 -35.5t-15.5 -47t-11.5 -44t-4.5 -29.5v-75z" />
<glyph unicode="&#xa5;" horiz-adv-x="778" d="M55 207q0 6 4 33.5t10.5 63.5t11.5 75t7 70q2 8 7 16t7 16q4 27 15.5 57.5t21.5 47.5q61 102 118.5 160.5t115.5 58.5q33 0 52 -19.5t32.5 -47t24 -59.5t24.5 -56q29 31 45 60l29 51q12 22 24 35t33 13q25 0 37 -26.5t18 -57.5q8 -37 8 -82q0 -10 -10 -73.5t-25 -150.5 l-31 -181l-26 -166h-33q-6 23 -22 52.5t-16 58.5q0 10 5 44l12 78l15 94l15 93q-23 -16 -39.5 -52t-30.5 -73t-28.5 -64.5t-30.5 -27.5t-26.5 17.5t-14.5 19.5q-10 18 -9 37.5t-0.5 39t-9.5 42t-37 49.5q-23 -27 -36 -51.5t-22 -50.5l-18 -50q-9 -25 -22 -51q-4 -10 -18 -50 l-32 -85q-17 -45 -34.5 -81t-30.5 -36q-20 0 -35.5 31.5t-27.5 72.5q-15 46 -27 105zM162 293q16 43 41.5 96t36.5 96q-18 -14 -31.5 -39.5t-23 -54.5t-15.5 -55.5t-8 -42.5z" />
<glyph unicode="&#xe05;" horiz-adv-x="778" d="M55 207q0 6 4 33.5t10.5 63.5t11.5 75t7 70q2 8 7 16t7 16q4 27 15.5 57.5t21.5 47.5q61 102 118.5 160.5t115.5 58.5q33 0 52 -19.5t32.5 -47t24 -59.5t24.5 -56q29 31 45 60l29 51q12 22 24 35t33 13q25 0 37 -26.5t18 -57.5q8 -37 8 -82q0 -10 -10 -73.5t-25 -150.5 l-31 -181l-26 -166h-33q-6 23 -22 52.5t-16 58.5q0 10 5 44l12 78l15 94l15 93q-23 -16 -39.5 -52t-30.5 -73t-28.5 -64.5t-30.5 -27.5t-26.5 17.5t-14.5 19.5q-10 18 -9 37.5t-0.5 39t-9.5 42t-37 49.5q-23 -27 -36 -51.5t-22 -50.5l-18 -50q-9 -25 -22 -51q-4 -10 -18 -50 l-32 -85q-17 -45 -34.5 -81t-30.5 -36q-20 0 -35.5 31.5t-27.5 72.5q-15 46 -27 105zM162 293q16 43 41.5 96t36.5 96q-18 -14 -31.5 -39.5t-23 -54.5t-15.5 -55.5t-8 -42.5z" />
<glyph unicode="&#xa6;" horiz-adv-x="923" d="M92 442q0 12 12.5 44t31 73t42 85t48 80t46 59.5t37.5 23.5q23 0 40.5 -16.5t30.5 -38t21.5 -41t12.5 -25.5q12 8 25.5 21.5t27.5 25.5t26.5 21.5t22.5 9.5q18 0 33.5 -13.5t28.5 -33.5q29 -51 28 -101q0 -37 -6 -73.5t-11 -73.5t-8 -73t3 -72q4 -16 23 -36l36 -36 q16 6 26.5 24.5t12.5 34.5q6 47 19.5 111.5t29.5 118.5q14 47 35 97l39 97q6 4 22.5 11.5t32.5 17.5q8 -10 22.5 -32.5t14.5 -45.5q0 -8 -8 -32.5t-21 -55.5l-24 -64l-21 -61q-2 -8 -10 -44l-18.5 -85t-24.5 -103.5t-30.5 -100.5t-33 -75.5t-32.5 -29.5q-20 0 -36.5 19.5 t-31.5 44.5l-29 54q-15 28 -34 44q-6 -4 -22.5 -35t-38 -66t-46 -64.5t-45.5 -29.5q-6 0 -22.5 5t-34 14.5t-31.5 22.5t-14 28q0 8 8 34.5t21.5 59.5l28.5 66.5t32 56.5q6 8 20 16l31 18q16 9 30.5 20t20.5 26q12 29 18.5 67.5t6.5 59.5q0 18 1 25t-9 24q-20 -10 -37 -36 t-30 -55.5l-24.5 -58t-23.5 -45.5q-14 -2 -35.5 13.5t-34.5 31.5q-4 6 -1 38l6 67q3 35 1 62.5t-20 27.5t-34.5 -18.5t-29 -42t-20.5 -46t-8 -28.5q27 -25 25.5 -46.5t-15.5 -37t-32.5 -24.5t-26.5 -9q-6 0 -17.5 13.5t-23 31.5t-18.5 35.5t-7 23.5z" />
<glyph unicode="&#xe06;" horiz-adv-x="923" d="M92 442q0 12 12.5 44t31 73t42 85t48 80t46 59.5t37.5 23.5q23 0 40.5 -16.5t30.5 -38t21.5 -41t12.5 -25.5q12 8 25.5 21.5t27.5 25.5t26.5 21.5t22.5 9.5q18 0 33.5 -13.5t28.5 -33.5q29 -51 28 -101q0 -37 -6 -73.5t-11 -73.5t-8 -73t3 -72q4 -16 23 -36l36 -36 q16 6 26.5 24.5t12.5 34.5q6 47 19.5 111.5t29.5 118.5q14 47 35 97l39 97q6 4 22.5 11.5t32.5 17.5q8 -10 22.5 -32.5t14.5 -45.5q0 -8 -8 -32.5t-21 -55.5l-24 -64l-21 -61q-2 -8 -10 -44l-18.5 -85t-24.5 -103.5t-30.5 -100.5t-33 -75.5t-32.5 -29.5q-20 0 -36.5 19.5 t-31.5 44.5l-29 54q-15 28 -34 44q-6 -4 -22.5 -35t-38 -66t-46 -64.5t-45.5 -29.5q-6 0 -22.5 5t-34 14.5t-31.5 22.5t-14 28q0 8 8 34.5t21.5 59.5l28.5 66.5t32 56.5q6 8 20 16l31 18q16 9 30.5 20t20.5 26q12 29 18.5 67.5t6.5 59.5q0 18 1 25t-9 24q-20 -10 -37 -36 t-30 -55.5l-24.5 -58t-23.5 -45.5q-14 -2 -35.5 13.5t-34.5 31.5q-4 6 -1 38l6 67q3 35 1 62.5t-20 27.5t-34.5 -18.5t-29 -42t-20.5 -46t-8 -28.5q27 -25 25.5 -46.5t-15.5 -37t-32.5 -24.5t-26.5 -9q-6 0 -17.5 13.5t-23 31.5t-18.5 35.5t-7 23.5z" />
<glyph unicode="&#xa7;" horiz-adv-x="661" d="M29 397v35q10 8 26.5 16.5t24.5 8.5q31 -37 42 -75l23 -78q12 -40 35 -84t74 -93q35 31 64.5 80t51 108.5t33 123t11.5 122.5q0 18 -11.5 36.5t-17.5 35.5q-16 -16 -29.5 -40t-23.5 -48q-37 20 -55.5 36.5t-18.5 39.5q0 8 7 30.5t17.5 48t23.5 50t24 41.5q6 4 20.5 10 t34.5 6q23 0 49.5 -21.5t36.5 -48.5q8 -25 13 -55.5t8.5 -59t5.5 -51t2 -32.5q0 -63 -16.5 -133t-39 -132.5t-49 -112.5t-47.5 -75q-25 -31 -49.5 -55.5t-40.5 -24.5q-33 0 -62.5 25.5t-55 65.5t-46 87t-35 91t-22.5 77t-8 45z" />
<glyph unicode="&#xe07;" horiz-adv-x="661" d="M29 397v35q10 8 26.5 16.5t24.5 8.5q31 -37 42 -75l23 -78q12 -40 35 -84t74 -93q35 31 64.5 80t51 108.5t33 123t11.5 122.5q0 18 -11.5 36.5t-17.5 35.5q-16 -16 -29.5 -40t-23.5 -48q-37 20 -55.5 36.5t-18.5 39.5q0 8 7 30.5t17.5 48t23.5 50t24 41.5q6 4 20.5 10 t34.5 6q23 0 49.5 -21.5t36.5 -48.5q8 -25 13 -55.5t8.5 -59t5.5 -51t2 -32.5q0 -63 -16.5 -133t-39 -132.5t-49 -112.5t-47.5 -75q-25 -31 -49.5 -55.5t-40.5 -24.5q-33 0 -62.5 25.5t-55 65.5t-46 87t-35 91t-22.5 77t-8 45z" />
<glyph unicode="&#xa8;" horiz-adv-x="757" d="M139 606q0 39 41 76t95.5 64.5t106.5 44t75 16.5q37 0 75.5 -33t42.5 -92q2 -18 6 -43l6 -48q3 -24 5 -43.5t2 -27.5q0 -6 -9 -36l-22 -68l-24 -79l-21 -71q-6 -23 -11 -56.5t-13.5 -69.5t-18.5 -70.5t-26 -59.5q-29 16 -48.5 46t-19.5 40q0 8 14 50l32 92l32 90 q14 41 14 51v27q2 2 2 4q0 4 -18 4q-16 0 -42 -20.5t-48 -20.5q-39 0 -52.5 22.5t-13.5 48.5q0 37 33 58.5t72.5 37t72.5 30t33 40.5q0 4 -3 15.5t-8 22.5t-13.5 19.5t-20.5 8.5q-10 0 -50 -21l-86 -45l-87 -45q-41 -20 -49 -20q-14 0 -35 20.5t-21 40.5z" />
<glyph unicode="&#xe08;" horiz-adv-x="757" d="M139 606q0 39 41 76t95.5 64.5t106.5 44t75 16.5q37 0 75.5 -33t42.5 -92q2 -18 6 -43l6 -48q3 -24 5 -43.5t2 -27.5q0 -6 -9 -36l-22 -68l-24 -79l-21 -71q-6 -23 -11 -56.5t-13.5 -69.5t-18.5 -70.5t-26 -59.5q-29 16 -48.5 46t-19.5 40q0 8 14 50l32 92l32 90 q14 41 14 51v27q2 2 2 4q0 4 -18 4q-16 0 -42 -20.5t-48 -20.5q-39 0 -52.5 22.5t-13.5 48.5q0 37 33 58.5t72.5 37t72.5 30t33 40.5q0 4 -3 15.5t-8 22.5t-13.5 19.5t-20.5 8.5q-10 0 -50 -21l-86 -45l-87 -45q-41 -20 -49 -20q-14 0 -35 20.5t-21 40.5z" />
<glyph unicode="&#xa9;" horiz-adv-x="892" d="M23 526q0 14 20 45t49 64t57.5 60.5t47.5 37.5q61 35 125.5 54.5t136.5 19.5q8 0 25.5 -1t36 -4t34.5 -9.5t27 -14.5q35 -29 66.5 -94.5t55 -137t38 -138t14.5 -99.5q0 -10 -6 -42l-15 -74q-8 -43 -19 -90.5l-20 -86.5q-8 0 -14 -6t-29 -6q-20 0 -34.5 22.5l-26.5 39.5 q4 43 11 92t15 92l-16 18q-31 -31 -64 -73l-65 -83q-31 -40 -55.5 -68t-34.5 -28q-8 0 -20.5 10.5t-24.5 25t-20.5 30.5t-8.5 27q0 10 13 60l27 109l28 108q12 50 12 60v49q0 26 -29 48q-27 -8 -50 -26.5t-45 -41.5l-42 -46q-20 -24 -43 -42q-10 -4 -18 -10t-31 -6 q-29 0 -49.5 21.5t-33.5 49t-19 53t-6 31.5zM459 668q0 -35 12 -70t12 -59q0 -43 6.5 -90.5t6.5 -75.5l40 37q22 20 40 40.5t30 37t12 26.5q0 18 -11 44t-27.5 50.5t-39 42t-42.5 17.5h-39z" />
<glyph unicode="&#xe09;" horiz-adv-x="892" d="M23 526q0 14 20 45t49 64t57.5 60.5t47.5 37.5q61 35 125.5 54.5t136.5 19.5q8 0 25.5 -1t36 -4t34.5 -9.5t27 -14.5q35 -29 66.5 -94.5t55 -137t38 -138t14.5 -99.5q0 -10 -6 -42l-15 -74q-8 -43 -19 -90.5l-20 -86.5q-8 0 -14 -6t-29 -6q-20 0 -34.5 22.5l-26.5 39.5 q4 43 11 92t15 92l-16 18q-31 -31 -64 -73l-65 -83q-31 -40 -55.5 -68t-34.5 -28q-8 0 -20.5 10.5t-24.5 25t-20.5 30.5t-8.5 27q0 10 13 60l27 109l28 108q12 50 12 60v49q0 26 -29 48q-27 -8 -50 -26.5t-45 -41.5l-42 -46q-20 -24 -43 -42q-10 -4 -18 -10t-31 -6 q-29 0 -49.5 21.5t-33.5 49t-19 53t-6 31.5zM459 668q0 -35 12 -70t12 -59q0 -43 6.5 -90.5t6.5 -75.5l40 37q22 20 40 40.5t30 37t12 26.5q0 18 -11 44t-27.5 50.5t-39 42t-42.5 17.5h-39z" />
<glyph unicode="&#xaa;" horiz-adv-x="737" d="M84 512q0 14 11 44t28.5 61.5t36 59.5t33.5 40q10 10 26.5 12t34.5 2q33 0 54.5 -24.5t34.5 -57.5t18.5 -65.5t5.5 -51.5q0 -10 -7 -51l-13 -90l-13 -91q-6 -42 -6 -50q0 -18 3 -22.5t11 -10.5q33 39 47 86t19.5 98.5t5.5 104.5t6 104q4 37 32.5 76t69.5 77t90.5 70.5 t94.5 58.5t82.5 40t56.5 14q35 0 54.5 -22.5t19.5 -40.5q0 -23 -17.5 -38.5t-40 -24.5t-44 -14t-27.5 -9q-68 -45 -126.5 -90t-100.5 -94.5t-63.5 -105.5t-15.5 -120q0 -4 -5 -33.5t-14 -72.5t-22.5 -92.5t-32 -90.5t-41 -68.5t-48.5 -27.5q-25 0 -41.5 18.5t-25.5 43 t-12 47t-3 32.5q0 8 6 59l13 107l13 107l7 57q0 33 1 60.5t-26 52.5q-37 -29 -59 -64l-45 -71q-14 -2 -40 18t-26 43z" />
<glyph unicode="&#xe0a;" horiz-adv-x="737" d="M84 512q0 14 11 44t28.5 61.5t36 59.5t33.5 40q10 10 26.5 12t34.5 2q33 0 54.5 -24.5t34.5 -57.5t18.5 -65.5t5.5 -51.5q0 -10 -7 -51l-13 -90l-13 -91q-6 -42 -6 -50q0 -18 3 -22.5t11 -10.5q33 39 47 86t19.5 98.5t5.5 104.5t6 104q4 37 32.5 76t69.5 77t90.5 70.5 t94.5 58.5t82.5 40t56.5 14q35 0 54.5 -22.5t19.5 -40.5q0 -23 -17.5 -38.5t-40 -24.5t-44 -14t-27.5 -9q-68 -45 -126.5 -90t-100.5 -94.5t-63.5 -105.5t-15.5 -120q0 -4 -5 -33.5t-14 -72.5t-22.5 -92.5t-32 -90.5t-41 -68.5t-48.5 -27.5q-25 0 -41.5 18.5t-25.5 43 t-12 47t-3 32.5q0 8 6 59l13 107l13 107l7 57q0 33 1 60.5t-26 52.5q-37 -29 -59 -64l-45 -71q-14 -2 -40 18t-26 43z" />
<glyph unicode="&#xab;" horiz-adv-x="722" d="M-74 397q0 8 14.5 36t35.5 63l46 73q24 39 41 74q6 8 9.5 10t23.5 2t32.5 -11t19 -28.5t6.5 -37t-2 -37.5q8 0 8 -4.5t18 -4.5q8 0 19.5 13.5t23.5 33t24.5 42t24.5 41.5q6 4 10 4h23q29 0 41 -9.5t18 -56.5q6 -55 -5 -113.5t-3 -119.5q18 39 43 82l49 87l47 85 q22 41 33 73q18 41 54 80t79 71t85 54.5t73 30.5q14 4 28.5 9t35.5 5q29 0 42 -16.5t13 -30.5q0 -35 -33 -48t-82 -42q-61 -35 -119.5 -94.5t-107.5 -128t-87 -139t-58 -126.5q-8 -20 -23.5 -71t-36 -105.5t-45.5 -95.5t-51 -41q-18 0 -34.5 18.5t-28 41t-18.5 42t-7 21.5 q0 10 9 51t21.5 87t21.5 86t9 50v29l-14 17q-18 -20 -46 -41t-48 -21q-18 0 -38 15.5t-38 15.5q-8 0 -21.5 -13.5t-27 -29t-27.5 -27.5t-22 -12q-20 0 -39 21.5t-19 39.5z" />
<glyph unicode="&#xe0b;" horiz-adv-x="722" d="M-74 397q0 8 14.5 36t35.5 63l46 73q24 39 41 74q6 8 9.5 10t23.5 2t32.5 -11t19 -28.5t6.5 -37t-2 -37.5q8 0 8 -4.5t18 -4.5q8 0 19.5 13.5t23.5 33t24.5 42t24.5 41.5q6 4 10 4h23q29 0 41 -9.5t18 -56.5q6 -55 -5 -113.5t-3 -119.5q18 39 43 82l49 87l47 85 q22 41 33 73q18 41 54 80t79 71t85 54.5t73 30.5q14 4 28.5 9t35.5 5q29 0 42 -16.5t13 -30.5q0 -35 -33 -48t-82 -42q-61 -35 -119.5 -94.5t-107.5 -128t-87 -139t-58 -126.5q-8 -20 -23.5 -71t-36 -105.5t-45.5 -95.5t-51 -41q-18 0 -34.5 18.5t-28 41t-18.5 42t-7 21.5 q0 10 9 51t21.5 87t21.5 86t9 50v29l-14 17q-18 -20 -46 -41t-48 -21q-18 0 -38 15.5t-38 15.5q-8 0 -21.5 -13.5t-27 -29t-27.5 -27.5t-22 -12q-20 0 -39 21.5t-19 39.5z" />
<glyph unicode="&#xac;" horiz-adv-x="1069" d="M59 182q0 8 3 30l8 48q4 27 9 53.5t11 48.5q6 25 18.5 51.5t28.5 51.5q4 10 3 22.5t-5 22.5q14 29 20.5 66.5t10.5 77.5t11 78t24 69q23 2 50.5 -11.5t55.5 -19.5q51 -10 104.5 -9t102.5 -9t73.5 -48t36 -84.5t16.5 -91.5t17 -71q25 -55 79.5 -93t107.5 -90 q16 113 40 232l50 250h74q16 -14 26 -44t10 -48q0 -10 -10 -38t-22 -65l-25 -76q-12 -39 -18 -69q-4 -25 -13.5 -70t-9.5 -88q0 -6 -7 -37t-18.5 -64.5t-26.5 -61t-32 -27.5q-14 0 -38.5 26.5t-53.5 61l-57.5 65.5t-50.5 41q-18 -12 -41 -53l-48 -85q-25 -44 -50 -79 t-50 -35t-39 15.5t-20 34t-8.5 35t-2.5 20.5q0 41 18.5 79.5t44.5 77.5t54.5 75t46.5 71q-4 10 2 16t6 29q0 63 -41.5 114.5t-111.5 51.5q-18 0 -60.5 -6.5t-76.5 -8.5q-16 -10 -25.5 -26.5t-13.5 -32.5q-16 -92 -43 -221t-45 -252q-2 -4 -6 -8l-9 -8l-8 -9q-18 8 -37 27 l-35 35q6 16 1 28t-5 35z" />
<glyph unicode="&#xe0c;" horiz-adv-x="1069" d="M59 182q0 8 3 30l8 48q4 27 9 53.5t11 48.5q6 25 18.5 51.5t28.5 51.5q4 10 3 22.5t-5 22.5q14 29 20.5 66.5t10.5 77.5t11 78t24 69q23 2 50.5 -11.5t55.5 -19.5q51 -10 104.5 -9t102.5 -9t73.5 -48t36 -84.5t16.5 -91.5t17 -71q25 -55 79.5 -93t107.5 -90 q16 113 40 232l50 250h74q16 -14 26 -44t10 -48q0 -10 -10 -38t-22 -65l-25 -76q-12 -39 -18 -69q-4 -25 -13.5 -70t-9.5 -88q0 -6 -7 -37t-18.5 -64.5t-26.5 -61t-32 -27.5q-14 0 -38.5 26.5t-53.5 61l-57.5 65.5t-50.5 41q-18 -12 -41 -53l-48 -85q-25 -44 -50 -79 t-50 -35t-39 15.5t-20 34t-8.5 35t-2.5 20.5q0 41 18.5 79.5t44.5 77.5t54.5 75t46.5 71q-4 10 2 16t6 29q0 63 -41.5 114.5t-111.5 51.5q-18 0 -60.5 -6.5t-76.5 -8.5q-16 -10 -25.5 -26.5t-13.5 -32.5q-16 -92 -43 -221t-45 -252q-2 -4 -6 -8l-9 -8l-8 -9q-18 8 -37 27 l-35 35q6 16 1 28t-5 35z" />
<glyph unicode="&#xad;" horiz-adv-x="1134" d="M76 72q0 10 9 43l21 75l26 90q13 46 22 82q4 16 6 42l4 54.5t6 57.5t10 53q16 53 39 113.5t53 120.5q37 -4 81 -3t85 3t74 4t45 2q82 0 126 -26.5t67.5 -73.5t36 -109.5l28.5 -136.5q47 72 90 161t84 183h76q0 -20 8 -49t8 -60q0 -23 -5 -55.5t-13 -50.5 q-63 -127 -139 -255l-160 -263q-4 -4 -2 -6q0 -4 22 -5q12 0 29.5 8.5t38 19.5t41 19.5t37.5 8.5q12 0 24.5 -14.5t22.5 -30.5l22 -45q0 -8 -26.5 -37t-67.5 -68l-89 -83q-48 -44 -92 -79.5t-77 -59.5t-41 -24q-27 0 -42 13.5t-22 31t-9.5 33t-2.5 19.5q0 45 19.5 76.5 t43 56t43 43t19.5 37.5q0 12 -15 31l-34 41l-34 41q-15 19 -15 32q0 8 9 40t24 75l30 92l29 92q14 43 23.5 75t9.5 40q0 45 -11.5 69.5t-28.5 37t-39.5 14.5t-45.5 2q-12 0 -37 -6l-55 -15q-31 -8 -63 -19l-56 -20q-18 -8 -29.5 -29.5t-17.5 -47t-9 -49t-7 -35.5 q14 -18 31.5 -25.5t31.5 -17t23.5 -28t9.5 -59.5q0 -10 -13.5 -40.5t-34.5 -71.5l-47 -86q-26 -45 -50.5 -82t-45 -61.5t-30.5 -24.5t-24.5 13.5t-27 31.5t-21.5 39t-9 35z" />
<glyph unicode="&#xe0d;" horiz-adv-x="1134" d="M76 72q0 10 9 43l21 75l26 90q13 46 22 82q4 16 6 42l4 54.5t6 57.5t10 53q16 53 39 113.5t53 120.5q37 -4 81 -3t85 3t74 4t45 2q82 0 126 -26.5t67.5 -73.5t36 -109.5l28.5 -136.5q47 72 90 161t84 183h76q0 -20 8 -49t8 -60q0 -23 -5 -55.5t-13 -50.5 q-63 -127 -139 -255l-160 -263q-4 -4 -2 -6q0 -4 22 -5q12 0 29.5 8.5t38 19.5t41 19.5t37.5 8.5q12 0 24.5 -14.5t22.5 -30.5l22 -45q0 -8 -26.5 -37t-67.5 -68l-89 -83q-48 -44 -92 -79.5t-77 -59.5t-41 -24q-27 0 -42 13.5t-22 31t-9.5 33t-2.5 19.5q0 45 19.5 76.5 t43 56t43 43t19.5 37.5q0 12 -15 31l-34 41l-34 41q-15 19 -15 32q0 8 9 40t24 75l30 92l29 92q14 43 23.5 75t9.5 40q0 45 -11.5 69.5t-28.5 37t-39.5 14.5t-45.5 2q-12 0 -37 -6l-55 -15q-31 -8 -63 -19l-56 -20q-18 -8 -29.5 -29.5t-17.5 -47t-9 -49t-7 -35.5 q14 -18 31.5 -25.5t31.5 -17t23.5 -28t9.5 -59.5q0 -10 -13.5 -40.5t-34.5 -71.5l-47 -86q-26 -45 -50.5 -82t-45 -61.5t-30.5 -24.5t-24.5 13.5t-27 31.5t-21.5 39t-9 35z" />
<glyph unicode="&#xde;" horiz-adv-x="1134" d="M76 72q0 10 9 43l21 75l26 90q13 46 22 82q4 16 6 42l4 54.5t6 57.5t10 53q16 53 39 113.5t53 120.5q37 -4 81 -3t85 3t74 4t45 2q82 0 126 -26.5t67.5 -73.5t36 -109.5l28.5 -136.5q47 72 90 161t84 183h76q0 -20 8 -49t8 -60q0 -23 -5 -55.5t-13 -50.5 q-63 -127 -139 -255l-160 -263q-4 -4 -2 -6q0 -4 22 -5q12 0 29.5 8.5t38 19.5t41 19.5t37.5 8.5q12 0 24.5 -14.5t22.5 -30.5l22 -45q0 -8 -26.5 -37t-67.5 -68l-89 -83q-48 -44 -92 -79.5t-77 -59.5t-41 -24q-27 0 -42 13.5t-22 31t-9.5 33t-2.5 19.5q0 45 19.5 76.5 t43 56t43 43t19.5 37.5q0 12 -15 31l-34 41l-34 41q-15 19 -15 32q0 8 9 40t24 75l30 92l29 92q14 43 23.5 75t9.5 40q0 45 -11.5 69.5t-28.5 37t-39.5 14.5t-45.5 2q-12 0 -37 -6l-55 -15q-31 -8 -63 -19l-56 -20q-18 -8 -29.5 -29.5t-17.5 -47t-9 -49t-7 -35.5 q14 -18 31.5 -25.5t31.5 -17t23.5 -28t9.5 -59.5q0 -10 -13.5 -40.5t-34.5 -71.5l-47 -86q-26 -45 -50.5 -82t-45 -61.5t-30.5 -24.5t-24.5 13.5t-27 31.5t-21.5 39t-9 35z" />
<glyph unicode="&#xae;" horiz-adv-x="858" d="M-20 -242q0 39 24.5 71t63 58.5t84 46t87.5 33t72.5 19.5t40.5 6q20 0 49 -5t58.5 -13.5t54.5 -21.5t37 -28q8 -10 24.5 -33.5t32.5 -29.5q14 10 30.5 56t32 113.5t29 146.5t24.5 155t17.5 139.5t6.5 97.5q0 33 -5.5 48.5t-15.5 20.5t-23.5 4t-27.5 -1q-29 0 -44.5 -1 t-25.5 -32q-4 -16 -6 -40.5t-6 -41.5q-6 -59 -26.5 -125.5t-78.5 -152.5q-8 -12 -21 -26l-27 -27q-13 -14 -23 -27.5t-12 -26.5q-33 -23 -78 -44t-72 -21q-23 0 -44.5 15t-37.5 37t-27.5 43.5t-11.5 31.5q0 43 27.5 91t60.5 81h66q10 -25 5 -59.5t-15 -63.5q-4 -2 -3 -4 q0 -4 21 -4q37 0 73 43t65.5 95t49 96t19.5 48q10 70 10 101.5t-1 49t2 31t22 46.5q10 16 36.5 29.5t55.5 13.5q8 0 31.5 -3t52 -9.5l57.5 -13.5t47 -15q18 -10 29.5 -34t11.5 -40q0 -18 5 -46t5 -50q0 -20 -7 -67.5t-19 -107.5l-26 -126q-13 -66 -26 -124l-23 -101 q-9 -42 -11 -52q-20 -90 -38 -188.5t-28 -206.5q-2 -10 -15 -25.5t-11 -25.5h-48q-31 49 -46 102t-35.5 97t-56.5 72t-103 28q-39 0 -65.5 -9.5t-50 -24.5t-49.5 -35.5t-63 -45.5l19 -18q18 10 43 22l49 24q25 11 46.5 18t31.5 7h49l27 -30l-59 -60q-30 -31 -61.5 -55.5 t-64 -40.5t-67.5 -16q-29 0 -60.5 14t-58.5 36.5t-44 51t-17 59.5z" />
<glyph unicode="&#xe0e;" horiz-adv-x="858" d="M-20 -242q0 39 24.5 71t63 58.5t84 46t87.5 33t72.5 19.5t40.5 6q20 0 49 -5t58.5 -13.5t54.5 -21.5t37 -28q8 -10 24.5 -33.5t32.5 -29.5q14 10 30.5 56t32 113.5t29 146.5t24.5 155t17.5 139.5t6.5 97.5q0 33 -5.5 48.5t-15.5 20.5t-23.5 4t-27.5 -1q-29 0 -44.5 -1 t-25.5 -32q-4 -16 -6 -40.5t-6 -41.5q-6 -59 -26.5 -125.5t-78.5 -152.5q-8 -12 -21 -26l-27 -27q-13 -14 -23 -27.5t-12 -26.5q-33 -23 -78 -44t-72 -21q-23 0 -44.5 15t-37.5 37t-27.5 43.5t-11.5 31.5q0 43 27.5 91t60.5 81h66q10 -25 5 -59.5t-15 -63.5q-4 -2 -3 -4 q0 -4 21 -4q37 0 73 43t65.5 95t49 96t19.5 48q10 70 10 101.5t-1 49t2 31t22 46.5q10 16 36.5 29.5t55.5 13.5q8 0 31.5 -3t52 -9.5l57.5 -13.5t47 -15q18 -10 29.5 -34t11.5 -40q0 -18 5 -46t5 -50q0 -20 -7 -67.5t-19 -107.5l-26 -126q-13 -66 -26 -124l-23 -101 q-9 -42 -11 -52q-20 -90 -38 -188.5t-28 -206.5q-2 -10 -15 -25.5t-11 -25.5h-48q-31 49 -46 102t-35.5 97t-56.5 72t-103 28q-39 0 -65.5 -9.5t-50 -24.5t-49.5 -35.5t-63 -45.5l19 -18q18 10 43 22l49 24q25 11 46.5 18t31.5 7h49l27 -30l-59 -60q-30 -31 -61.5 -55.5 t-64 -40.5t-67.5 -16q-29 0 -60.5 14t-58.5 36.5t-44 51t-17 59.5z" />
<glyph unicode="&#xaf;" horiz-adv-x="649" d="M-414 -37q47 35 83 56.5t65.5 32.5t57.5 15.5t58 4.5q63 0 109.5 -17.5t84.5 -49.5t73 -78l78 -103q25 25 45 63l42 78q22 39 46 66.5t59 27.5q20 0 43 -9t43 -15q41 106 74 219t37 201q2 16 9 43.5t7 50.5q0 8 -2 23.5t-6 29.5t-12.5 24.5t-20.5 10.5q-41 0 -68.5 -44 t-49 -109.5t-43 -141.5t-51.5 -141.5t-69.5 -109.5t-101.5 -44q-25 0 -50.5 22.5t-45 51.5t-32.5 54.5t-13 31.5q0 20 13 65l24 80h78q0 -25 -5.5 -53.5t-5.5 -50.5q0 -20 6.5 -31.5l16.5 -28.5h31q35 18 60.5 46t43.5 62t30.5 68.5t20.5 67.5q6 23 11.5 59.5t13.5 59.5 q2 8 16 48t37 85t50.5 82t58.5 37q10 0 29.5 -10.5t43 -26.5t47 -35.5t41.5 -38.5q-2 -16 10.5 -39.5t12.5 -44.5q0 -10 -5 -45l-13 -82q-7 -47 -17 -99t-22 -95q-41 -152 -92.5 -301.5t-92.5 -298.5q0 -4 -4 -14.5t-10 -21.5t-14.5 -19.5t-18.5 -8.5h-41q-16 45 -19 88 t-14 88q-37 -31 -52 -63.5t-24 -64.5l-18 -61q-8 -30 -29 -56h-57q-31 70 -57.5 138t-59 120.5t-77.5 85t-113 32.5q-18 0 -60 -9t-73 -19q-16 -4 -30.5 -23.5t-37.5 -19.5t-44 16t-38 33v55z" />
<glyph unicode="&#xe0f;" horiz-adv-x="649" d="M-414 -37q47 35 83 56.5t65.5 32.5t57.5 15.5t58 4.5q63 0 109.5 -17.5t84.5 -49.5t73 -78l78 -103q25 25 45 63l42 78q22 39 46 66.5t59 27.5q20 0 43 -9t43 -15q41 106 74 219t37 201q2 16 9 43.5t7 50.5q0 8 -2 23.5t-6 29.5t-12.5 24.5t-20.5 10.5q-41 0 -68.5 -44 t-49 -109.5t-43 -141.5t-51.5 -141.5t-69.5 -109.5t-101.5 -44q-25 0 -50.5 22.5t-45 51.5t-32.5 54.5t-13 31.5q0 20 13 65l24 80h78q0 -25 -5.5 -53.5t-5.5 -50.5q0 -20 6.5 -31.5l16.5 -28.5h31q35 18 60.5 46t43.5 62t30.5 68.5t20.5 67.5q6 23 11.5 59.5t13.5 59.5 q2 8 16 48t37 85t50.5 82t58.5 37q10 0 29.5 -10.5t43 -26.5t47 -35.5t41.5 -38.5q-2 -16 10.5 -39.5t12.5 -44.5q0 -10 -5 -45l-13 -82q-7 -47 -17 -99t-22 -95q-41 -152 -92.5 -301.5t-92.5 -298.5q0 -4 -4 -14.5t-10 -21.5t-14.5 -19.5t-18.5 -8.5h-41q-16 45 -19 88 t-14 88q-37 -31 -52 -63.5t-24 -64.5l-18 -61q-8 -30 -29 -56h-57q-31 70 -57.5 138t-59 120.5t-77.5 85t-113 32.5q-18 0 -60 -9t-73 -19q-16 -4 -30.5 -23.5t-37.5 -19.5t-44 16t-38 33v55z" />
<glyph unicode="&#xb0;" horiz-adv-x="704" d="M-39 -342q0 6 6 24.5t14.5 40l18.5 45t16 42.5q6 4 8.5 5t18.5 1q14 0 25.5 -13.5t27.5 -13.5q6 0 20.5 8t32 20.5t37.5 24.5l39 23q8 4 37 4q33 0 66.5 -15.5t62.5 -74.5q6 0 9 4t8 10q6 43 0 82q4 6 8 10t4 21q0 8 -11.5 24.5l-24.5 34l-24.5 33.5t-11.5 25q0 8 10 54 l22 100l21 101q10 46 11 54q0 16 -5.5 31.5t-27.5 35.5q-41 -41 -70 -98q-23 14 -31 34.5t-10 39t-4 31t-14 12.5q-8 0 -19.5 -5t-24.5 -12.5t-25.5 -12.5t-20.5 -5q-12 0 -23.5 9t-21 20.5t-14.5 20.5t-5 11q0 27 11.5 39.5t29 20.5t40 16t46.5 25q68 45 153 90t175 81 t180 58.5t166 22.5q16 0 26.5 -16.5t18.5 -22.5v-41q-23 -6 -45.5 -7t-38.5 -8l-168 -52q-90 -28 -162 -75q-2 -20 11.5 -38.5t17.5 -40.5q4 -29 5 -58.5t1 -46.5q0 -90 -14 -159.5t-30.5 -117.5t-31 -78t-14.5 -40q0 -16 15.5 -27.5t15.5 -23.5q-2 -20 6 -42t8 -38 q0 -14 -12 -59.5l-21 -77.5q-10 -41 -33.5 -87.5t-52.5 -86.5q-18 4 -44.5 30.5t-30.5 55.5q-2 14 2 31.5t2 29.5q-4 23 -19.5 41t-32.5 18q-33 0 -66.5 -25.5t-66 -55t-64.5 -55t-59 -25.5t-43 18t-16 41zM471 410h14v61h-14v-61z" />
<glyph unicode="&#xe10;" horiz-adv-x="704" d="M-39 -342q0 6 6 24.5t14.5 40l18.5 45t16 42.5q6 4 8.5 5t18.5 1q14 0 25.5 -13.5t27.5 -13.5q6 0 20.5 8t32 20.5t37.5 24.5l39 23q8 4 37 4q33 0 66.5 -15.5t62.5 -74.5q6 0 9 4t8 10q6 43 0 82q4 6 8 10t4 21q0 8 -11.5 24.5l-24.5 34l-24.5 33.5t-11.5 25q0 8 10 54 l22 100l21 101q10 46 11 54q0 16 -5.5 31.5t-27.5 35.5q-41 -41 -70 -98q-23 14 -31 34.5t-10 39t-4 31t-14 12.5q-8 0 -19.5 -5t-24.5 -12.5t-25.5 -12.5t-20.5 -5q-12 0 -23.5 9t-21 20.5t-14.5 20.5t-5 11q0 27 11.5 39.5t29 20.5t40 16t46.5 25q68 45 153 90t175 81 t180 58.5t166 22.5q16 0 26.5 -16.5t18.5 -22.5v-41q-23 -6 -45.5 -7t-38.5 -8l-168 -52q-90 -28 -162 -75q-2 -20 11.5 -38.5t17.5 -40.5q4 -29 5 -58.5t1 -46.5q0 -90 -14 -159.5t-30.5 -117.5t-31 -78t-14.5 -40q0 -16 15.5 -27.5t15.5 -23.5q-2 -20 6 -42t8 -38 q0 -14 -12 -59.5l-21 -77.5q-10 -41 -33.5 -87.5t-52.5 -86.5q-18 4 -44.5 30.5t-30.5 55.5q-2 14 2 31.5t2 29.5q-4 23 -19.5 41t-32.5 18q-33 0 -66.5 -25.5t-66 -55t-64.5 -55t-59 -25.5t-43 18t-16 41zM471 410h14v61h-14v-61z" />
<glyph unicode="&#xb1;" horiz-adv-x="907" d="M-8 449q0 8 12 36.5t32 68.5l43 85l46 83t40.5 62.5t29.5 24.5q25 0 38 -18.5t20 -43t9 -46t2 -27.5v-47l19 -19q12 8 26 30l30 44q15 23 30.5 39t31.5 16q29 0 39.5 -32.5t11.5 -74.5t-2.5 -80t-0.5 -48q16 25 41.5 59.5t50.5 63.5l32 38q18 22 39 41t42.5 32.5 t41.5 13.5q29 0 48.5 -21.5t30.5 -51.5t16.5 -60.5t5.5 -49.5q0 -51 -17.5 -125.5t-39 -146.5t-42 -126t-24.5 -67q-4 -8 -23.5 -22t-38.5 -17l-19 20q-9 9 -9 34q0 6 7 37l17 71l23 87l23 87l18.5 71t7.5 38v65q-27 -10 -34 -17t-17 -11q-80 -117 -121 -210l-72 -163 q-31 -70 -63.5 -115t-91.5 -65q-16 16 -27.5 32.5t-11.5 38.5q0 10 9 46t20.5 76t20.5 76t9 46v80q-12 8 -25.5 -4t-33.5 -12t-47 27.5t-45 56.5q-12 -4 -26 -17l-26 -24q-12 -12 -23.5 -21.5t-23.5 -9.5q-20 0 -39.5 24t-19.5 42z" />
<glyph unicode="&#xe11;" horiz-adv-x="907" d="M-8 449q0 8 12 36.5t32 68.5l43 85l46 83t40.5 62.5t29.5 24.5q25 0 38 -18.5t20 -43t9 -46t2 -27.5v-47l19 -19q12 8 26 30l30 44q15 23 30.5 39t31.5 16q29 0 39.5 -32.5t11.5 -74.5t-2.5 -80t-0.5 -48q16 25 41.5 59.5t50.5 63.5l32 38q18 22 39 41t42.5 32.5 t41.5 13.5q29 0 48.5 -21.5t30.5 -51.5t16.5 -60.5t5.5 -49.5q0 -51 -17.5 -125.5t-39 -146.5t-42 -126t-24.5 -67q-4 -8 -23.5 -22t-38.5 -17l-19 20q-9 9 -9 34q0 6 7 37l17 71l23 87l23 87l18.5 71t7.5 38v65q-27 -10 -34 -17t-17 -11q-80 -117 -121 -210l-72 -163 q-31 -70 -63.5 -115t-91.5 -65q-16 16 -27.5 32.5t-11.5 38.5q0 10 9 46t20.5 76t20.5 76t9 46v80q-12 8 -25.5 -4t-33.5 -12t-47 27.5t-45 56.5q-12 -4 -26 -17l-26 -24q-12 -12 -23.5 -21.5t-23.5 -9.5q-20 0 -39.5 24t-19.5 42z" />
<glyph unicode="&#xb2;" horiz-adv-x="1034" d="M43 358q0 31 11.5 39.5t24.5 23.5t24.5 55t9.5 136q18 35 25 84t24 109h80q0 -29 5 -70t-1 -73q-4 2 -6 2q-6 0 -7 -19v-74l17 -18q45 37 81 63.5t66.5 43t60 23.5t66.5 7q31 0 53.5 -12t38 -33.5t28.5 -49.5l26 -56q-14 -53 -7 -90t27.5 -62t46.5 -43l51 -35 q8 8 13.5 19.5l9.5 19.5q4 47 9 88l14 103q0 8 11 42.5t28.5 72.5t37 69t37.5 31t30.5 -10.5t21 -23.5t12.5 -25.5t4 -14.5q0 -8 -11 -30l-26 -48l-30 -55q-15 -29 -21 -53q-10 -29 -5 -62t1 -65q-4 -41 -16.5 -87.5t-22.5 -93.5q-4 -10 -18.5 -22t-35.5 -12q-25 0 -40 18 t-30.5 39.5t-38 40t-60.5 18.5q-25 0 -42.5 -28.5t-33 -62.5t-31.5 -61.5t-41 -27.5t-40 10.5t-24.5 25.5t-12.5 32.5t-3 31.5q0 59 19.5 97.5t44 68t44 57t19.5 68.5q0 10 -1 24.5t-4 28t-11 22.5t-21 9q-12 0 -36.5 -10t-49 -25.5t-44 -33t-21.5 -31.5q-4 -33 2 -71 t-2 -79q-2 -10 -19.5 -59t-44 -105.5t-60.5 -101.5t-69 -45q-29 0 -51.5 10.5t-36.5 57.5q-10 39 -10 94v98q0 18 -19.5 45.5t-19.5 50.5zM160 236q0 -16 14 -32t23 -32l30 56q16 30 28.5 59.5t18 57.5t-3.5 50q0 -2 -17 -21.5l-37.5 -45t-38 -52t-17.5 -40.5z" />
<glyph unicode="&#xe12;" horiz-adv-x="1034" d="M43 358q0 31 11.5 39.5t24.5 23.5t24.5 55t9.5 136q18 35 25 84t24 109h80q0 -29 5 -70t-1 -73q-4 2 -6 2q-6 0 -7 -19v-74l17 -18q45 37 81 63.5t66.5 43t60 23.5t66.5 7q31 0 53.5 -12t38 -33.5t28.5 -49.5l26 -56q-14 -53 -7 -90t27.5 -62t46.5 -43l51 -35 q8 8 13.5 19.5l9.5 19.5q4 47 9 88l14 103q0 8 11 42.5t28.5 72.5t37 69t37.5 31t30.5 -10.5t21 -23.5t12.5 -25.5t4 -14.5q0 -8 -11 -30l-26 -48l-30 -55q-15 -29 -21 -53q-10 -29 -5 -62t1 -65q-4 -41 -16.5 -87.5t-22.5 -93.5q-4 -10 -18.5 -22t-35.5 -12q-25 0 -40 18 t-30.5 39.5t-38 40t-60.5 18.5q-25 0 -42.5 -28.5t-33 -62.5t-31.5 -61.5t-41 -27.5t-40 10.5t-24.5 25.5t-12.5 32.5t-3 31.5q0 59 19.5 97.5t44 68t44 57t19.5 68.5q0 10 -1 24.5t-4 28t-11 22.5t-21 9q-12 0 -36.5 -10t-49 -25.5t-44 -33t-21.5 -31.5q-4 -33 2 -71 t-2 -79q-2 -10 -19.5 -59t-44 -105.5t-60.5 -101.5t-69 -45q-29 0 -51.5 10.5t-36.5 57.5q-10 39 -10 94v98q0 18 -19.5 45.5t-19.5 50.5zM160 236q0 -16 14 -32t23 -32l30 56q16 30 28.5 59.5t18 57.5t-3.5 50q0 -2 -17 -21.5l-37.5 -45t-38 -52t-17.5 -40.5z" />
<glyph unicode="&#xb3;" horiz-adv-x="1110" d="M61 92q0 8 11.5 63.5t28.5 128.5l37 151q19 79 36 134l29.5 94.5t13.5 108.5q8 0 15.5 7t29.5 7q20 0 31.5 -17t32.5 -17q12 0 29.5 3t36 8t35.5 8t30 3q20 0 60 -19l67 -32q20 -10 47.5 -43t38.5 -64q18 -68 15 -137t-3 -141q16 16 44 28.5t62 53.5q4 4 13 34l19 72 q11 43 26.5 93.5t31 92.5t33 69.5t33.5 27.5q12 0 27.5 -8t31 -19.5t25.5 -25t10 -23.5q0 -8 -18.5 -41t-40 -80t-39.5 -102t-16 -107q0 -8 -7.5 -21t-7.5 -32q0 -10 7.5 -31.5t16.5 -44t16 -44t7 -33.5q0 -20 -6 -45t-15 -46.5t-22.5 -36t-25.5 -14.5q-16 0 -31.5 17.5 t-29 40t-24.5 44t-18 29.5q-23 -4 -56.5 -33.5t-65.5 -64.5l-61 -62q-28 -28 -40 -28q-10 0 -23.5 8t-24.5 19.5t-19.5 24.5t-8.5 24q0 6 9 39l19 77q11 45 25.5 95.5t25.5 95.5l20 77q8 32 8 40q0 18 -11.5 39.5t-26.5 40t-32.5 31t-29.5 12.5h-29q-18 0 -42 -2.5 t-47.5 -8.5t-43.5 -16t-31.5 -34.5t-20 -52.5t-12.5 -53.5t-10 -39.5q-10 -35 -20.5 -66t-10.5 -61q0 -10 6.5 -26.5t12.5 -35t9 -38t-1 -33.5q-8 -29 -35 -75t-55 -81q-16 10 -33.5 18.5t-33 17.5t-25 22t-9.5 36z" />
<glyph unicode="&#xe13;" horiz-adv-x="1110" d="M61 92q0 8 11.5 63.5t28.5 128.5l37 151q19 79 36 134l29.5 94.5t13.5 108.5q8 0 15.5 7t29.5 7q20 0 31.5 -17t32.5 -17q12 0 29.5 3t36 8t35.5 8t30 3q20 0 60 -19l67 -32q20 -10 47.5 -43t38.5 -64q18 -68 15 -137t-3 -141q16 16 44 28.5t62 53.5q4 4 13 34l19 72 q11 43 26.5 93.5t31 92.5t33 69.5t33.5 27.5q12 0 27.5 -8t31 -19.5t25.5 -25t10 -23.5q0 -8 -18.5 -41t-40 -80t-39.5 -102t-16 -107q0 -8 -7.5 -21t-7.5 -32q0 -10 7.5 -31.5t16.5 -44t16 -44t7 -33.5q0 -20 -6 -45t-15 -46.5t-22.5 -36t-25.5 -14.5q-16 0 -31.5 17.5 t-29 40t-24.5 44t-18 29.5q-23 -4 -56.5 -33.5t-65.5 -64.5l-61 -62q-28 -28 -40 -28q-10 0 -23.5 8t-24.5 19.5t-19.5 24.5t-8.5 24q0 6 9 39l19 77q11 45 25.5 95.5t25.5 95.5l20 77q8 32 8 40q0 18 -11.5 39.5t-26.5 40t-32.5 31t-29.5 12.5h-29q-18 0 -42 -2.5 t-47.5 -8.5t-43.5 -16t-31.5 -34.5t-20 -52.5t-12.5 -53.5t-10 -39.5q-10 -35 -20.5 -66t-10.5 -61q0 -10 6.5 -26.5t12.5 -35t9 -38t-1 -33.5q-8 -29 -35 -75t-55 -81q-16 10 -33.5 18.5t-33 17.5t-25 22t-9.5 36z" />
<glyph unicode="&#xb4;" horiz-adv-x="884" d="M74 139q0 8 5 40l12 73q7 41 16.5 86t19.5 78l10 54q6 32 10 58q6 27 11.5 57.5t14.5 62.5t23.5 60.5t36.5 49.5q25 23 70 34t90 16t83 6t48 1q61 0 103.5 -20.5t70 -54t40 -76.5t12.5 -86q0 -23 -10.5 -65t-25 -93t-32.5 -105.5t-35.5 -99.5t-31 -74.5t-19.5 -31.5 q-6 -4 -5 -4.5t-22 -0.5q-18 0 -42.5 14.5t-24.5 37.5q0 8 8 26.5t19 40.5l24 47q12 25 20 45l27 80q14 43 24.5 83t17.5 71t7 41q0 27 -12 42t-29.5 23.5t-35 10.5t-25.5 2q-10 0 -36 -5.5t-58.5 -14.5t-67.5 -20.5t-63 -23.5q2 -8 12 -13t22.5 -10.5t24.5 -11.5t18 -16 q16 -23 31.5 -63.5t15.5 -63.5q0 -18 -8 -43t-12 -49q-6 -23 -32.5 -79t-62.5 -114.5t-75 -103.5t-70 -45q-14 0 -33.5 17.5t-37 41t-29.5 48t-12 40.5zM197 223q0 -16 12 -24q6 -4 12 -4q14 20 32 49l33 55q15 27 24 48.5t9 31.5v51l-41 -21q-26 -13 -42 -16 q-6 -20 -13 -46l-12 -50q-6 -25 -10 -45.5t-4 -28.5z" />
<glyph unicode="&#xe14;" horiz-adv-x="884" d="M74 139q0 8 5 40l12 73q7 41 16.5 86t19.5 78l10 54q6 32 10 58q6 27 11.5 57.5t14.5 62.5t23.5 60.5t36.5 49.5q25 23 70 34t90 16t83 6t48 1q61 0 103.5 -20.5t70 -54t40 -76.5t12.5 -86q0 -23 -10.5 -65t-25 -93t-32.5 -105.5t-35.5 -99.5t-31 -74.5t-19.5 -31.5 q-6 -4 -5 -4.5t-22 -0.5q-18 0 -42.5 14.5t-24.5 37.5q0 8 8 26.5t19 40.5l24 47q12 25 20 45l27 80q14 43 24.5 83t17.5 71t7 41q0 27 -12 42t-29.5 23.5t-35 10.5t-25.5 2q-10 0 -36 -5.5t-58.5 -14.5t-67.5 -20.5t-63 -23.5q2 -8 12 -13t22.5 -10.5t24.5 -11.5t18 -16 q16 -23 31.5 -63.5t15.5 -63.5q0 -18 -8 -43t-12 -49q-6 -23 -32.5 -79t-62.5 -114.5t-75 -103.5t-70 -45q-14 0 -33.5 17.5t-37 41t-29.5 48t-12 40.5zM197 223q0 -16 12 -24q6 -4 12 -4q14 20 32 49l33 55q15 27 24 48.5t9 31.5v51l-41 -21q-26 -13 -42 -16 q-6 -20 -13 -46l-12 -50q-6 -25 -10 -45.5t-4 -28.5z" />
<glyph unicode="&#xb5;" horiz-adv-x="872" d="M57 367q0 27 16 42l37 37q22 23 41 61t29 109q4 29 11.5 71t11.5 81l4 8q2 4 2 8t2 9q10 8 26.5 11t38.5 3q20 0 28.5 -19.5t10.5 -45t-1 -51t-3 -38.5q8 -10 5 -9t20 1q27 0 59 27l73 59q40 33 86 59.5t99 26.5q43 0 70 -17.5t40 -43t18 -55t5 -56.5q0 -63 -32.5 -145 t-57.5 -164q-6 -20 -9 -55t1 -58q10 -35 15.5 -70.5t-23.5 -70.5q-10 -4 -16.5 -10t-28.5 -6q-14 0 -28.5 15t-26 33.5t-18.5 37t-7 24.5q0 8 3 27l7 41q4 23 7 45t1 41q4 2 20 44l33 94q17 52 30.5 101t13.5 70q0 23 -10.5 27t-18.5 14q-10 -4 -43 -21.5t-67.5 -40 t-63.5 -46t-29 -37.5q0 -6 9 -19l21 -27q11 -14 20.5 -28.5t9.5 -24.5q0 -12 -11.5 -50t-30 -87t-42 -102.5t-50 -98.5t-53 -73.5t-51.5 -28.5q-27 0 -48.5 20.5t-35.5 47t-23.5 52t-11.5 36.5q-4 18 -4 47.5t4 56.5l-24 28l-28 29q-13 14 -22.5 29t-9.5 25zM244 342 q0 -37 8 -74t18 -63q57 63 99 184h-54q-16 -10 -35.5 -20.5t-35.5 -26.5z" />
<glyph unicode="&#xe15;" horiz-adv-x="872" d="M57 367q0 27 16 42l37 37q22 23 41 61t29 109q4 29 11.5 71t11.5 81l4 8q2 4 2 8t2 9q10 8 26.5 11t38.5 3q20 0 28.5 -19.5t10.5 -45t-1 -51t-3 -38.5q8 -10 5 -9t20 1q27 0 59 27l73 59q40 33 86 59.5t99 26.5q43 0 70 -17.5t40 -43t18 -55t5 -56.5q0 -63 -32.5 -145 t-57.5 -164q-6 -20 -9 -55t1 -58q10 -35 15.5 -70.5t-23.5 -70.5q-10 -4 -16.5 -10t-28.5 -6q-14 0 -28.5 15t-26 33.5t-18.5 37t-7 24.5q0 8 3 27l7 41q4 23 7 45t1 41q4 2 20 44l33 94q17 52 30.5 101t13.5 70q0 23 -10.5 27t-18.5 14q-10 -4 -43 -21.5t-67.5 -40 t-63.5 -46t-29 -37.5q0 -6 9 -19l21 -27q11 -14 20.5 -28.5t9.5 -24.5q0 -12 -11.5 -50t-30 -87t-42 -102.5t-50 -98.5t-53 -73.5t-51.5 -28.5q-27 0 -48.5 20.5t-35.5 47t-23.5 52t-11.5 36.5q-4 18 -4 47.5t4 56.5l-24 28l-28 29q-13 14 -22.5 29t-9.5 25zM244 342 q0 -37 8 -74t18 -63q57 63 99 184h-54q-16 -10 -35.5 -20.5t-35.5 -26.5z" />
<glyph unicode="&#xb6;" horiz-adv-x="823" d="M90 125q0 10 18 76l43 154l53 185q28 95 46 165q61 37 134 69.5t142 32.5q25 0 51.5 -4t50 -21.5t41 -49.5t21.5 -87q2 -23 11.5 -45t9.5 -45q0 -8 -4.5 -33.5l-10.5 -58.5t-14 -68t-16 -61q-2 -10 -9.5 -24.5t-13.5 -24.5q-4 -29 0 -55.5t5 -54.5t-5 -55.5t-31 -53.5 q-16 0 -32.5 9t-29.5 24.5t-21.5 34t-8.5 34.5q0 6 6 37t16 71l20 89l21 88l15 70.5t6 37.5q0 43 -16.5 73t-55.5 30q-45 0 -90 -25t-80.5 -60.5t-58 -75.5t-22.5 -73q0 -23 6 -17.5t8 -2.5q8 -8 17.5 -28t18.5 -42.5t15 -43t6 -28.5q0 -29 -12 -73.5t-33.5 -86.5t-54.5 -72 t-72 -30q-25 0 -42 15.5t-27.5 36t-15.5 40t-5 27.5z" />
<glyph unicode="&#xe16;" horiz-adv-x="823" d="M90 125q0 10 18 76l43 154l53 185q28 95 46 165q61 37 134 69.5t142 32.5q25 0 51.5 -4t50 -21.5t41 -49.5t21.5 -87q2 -23 11.5 -45t9.5 -45q0 -8 -4.5 -33.5l-10.5 -58.5t-14 -68t-16 -61q-2 -10 -9.5 -24.5t-13.5 -24.5q-4 -29 0 -55.5t5 -54.5t-5 -55.5t-31 -53.5 q-16 0 -32.5 9t-29.5 24.5t-21.5 34t-8.5 34.5q0 6 6 37t16 71l20 89l21 88l15 70.5t6 37.5q0 43 -16.5 73t-55.5 30q-45 0 -90 -25t-80.5 -60.5t-58 -75.5t-22.5 -73q0 -23 6 -17.5t8 -2.5q8 -8 17.5 -28t18.5 -42.5t15 -43t6 -28.5q0 -29 -12 -73.5t-33.5 -86.5t-54.5 -72 t-72 -30q-25 0 -42 15.5t-27.5 36t-15.5 40t-5 27.5z" />
<glyph unicode="&#xb7;" horiz-adv-x="915" d="M27 522q0 10 13 36t31.5 56.5t41 60.5t41.5 48q14 14 36.5 29.5t45 27t42 18.5t31.5 7q51 0 70.5 -34t24 -79t5.5 -91t15 -73q41 29 79 72l72 83q35 40 67 68.5t63 28.5q49 0 72.5 -27.5t32.5 -63.5t9 -69v-47q0 -72 -7 -118.5t-18.5 -93l-26.5 -103.5t-34 -152 q-2 -10 -11 -20t-20 -20h-69q-10 18 -12.5 34.5t-2.5 38.5q0 12 14 68l30 121l29 121q13 55 14 67q0 20 -3.5 35.5t-21.5 15.5q-37 0 -77 -42t-80 -105.5t-79 -135.5l-72 -137q-34 -63 -62.5 -105t-49.5 -42q-23 0 -38 12.5t-25.5 28.5t-14.5 31.5t-4 21.5q0 8 10 44l26 86 l33 107l33 106l25 86q10 36 10 44q0 20 -6 31.5t-24 30.5q-25 -18 -53 -48l-54 -59q-27 -29 -48 -49t-34 -20q-23 0 -46 23t-23 46z" />
<glyph unicode="&#x2219;" horiz-adv-x="915" d="M27 522q0 10 13 36t31.5 56.5t41 60.5t41.5 48q14 14 36.5 29.5t45 27t42 18.5t31.5 7q51 0 70.5 -34t24 -79t5.5 -91t15 -73q41 29 79 72l72 83q35 40 67 68.5t63 28.5q49 0 72.5 -27.5t32.5 -63.5t9 -69v-47q0 -72 -7 -118.5t-18.5 -93l-26.5 -103.5t-34 -152 q-2 -10 -11 -20t-20 -20h-69q-10 18 -12.5 34.5t-2.5 38.5q0 12 14 68l30 121l29 121q13 55 14 67q0 20 -3.5 35.5t-21.5 15.5q-37 0 -77 -42t-80 -105.5t-79 -135.5l-72 -137q-34 -63 -62.5 -105t-49.5 -42q-23 0 -38 12.5t-25.5 28.5t-14.5 31.5t-4 21.5q0 8 10 44l26 86 l33 107l33 106l25 86q10 36 10 44q0 20 -6 31.5t-24 30.5q-25 -18 -53 -48l-54 -59q-27 -29 -48 -49t-34 -20q-23 0 -46 23t-23 46z" />
<glyph unicode="&#xe17;" horiz-adv-x="915" d="M27 522q0 10 13 36t31.5 56.5t41 60.5t41.5 48q14 14 36.5 29.5t45 27t42 18.5t31.5 7q51 0 70.5 -34t24 -79t5.5 -91t15 -73q41 29 79 72l72 83q35 40 67 68.5t63 28.5q49 0 72.5 -27.5t32.5 -63.5t9 -69v-47q0 -72 -7 -118.5t-18.5 -93l-26.5 -103.5t-34 -152 q-2 -10 -11 -20t-20 -20h-69q-10 18 -12.5 34.5t-2.5 38.5q0 12 14 68l30 121l29 121q13 55 14 67q0 20 -3.5 35.5t-21.5 15.5q-37 0 -77 -42t-80 -105.5t-79 -135.5l-72 -137q-34 -63 -62.5 -105t-49.5 -42q-23 0 -38 12.5t-25.5 28.5t-14.5 31.5t-4 21.5q0 8 10 44l26 86 l33 107l33 106l25 86q10 36 10 44q0 20 -6 31.5t-24 30.5q-25 -18 -53 -48l-54 -59q-27 -29 -48 -49t-34 -20q-23 0 -46 23t-23 46z" />
<glyph unicode="&#xb8;" horiz-adv-x="819" d="M145 555q0 35 31 66.5t79 59.5t105.5 50.5t109.5 38.5t91 25.5t51 9.5q25 0 54.5 -3t70.5 -42v-82q0 2 -2 4q-6 6 -22 6q-10 0 -47 -5t-77 -16.5t-72 -28.5t-32 -40q0 -6 14 -20l29 -32q16 -17 33 -37t23 -36q4 -14 6 -37.5t2 -44.5q0 -37 -20.5 -102.5t-53.5 -130 t-72.5 -111.5t-76.5 -47q-29 0 -47.5 20.5t-29.5 45t-15.5 46t-4.5 25.5q0 10 11 59l21 103l22 103q10 48 10 59q0 18 -5 26.5t-12.5 10.5t-14.5 1t-9 -1q-20 0 -37.5 -5.5t-38.5 -5.5q-18 0 -46 21.5t-28 46.5zM358 227q0 -20 6.5 -28.5t6.5 -18.5q16 0 28.5 5t16.5 10 q14 23 31 54l33 62q15 31 25.5 56.5t10.5 33.5q0 20 -19.5 38t-27.5 26l-36 -65q-19 -36 -35.5 -71.5t-28 -63.5t-11.5 -38z" />
<glyph unicode="&#xe18;" horiz-adv-x="819" d="M145 555q0 35 31 66.5t79 59.5t105.5 50.5t109.5 38.5t91 25.5t51 9.5q25 0 54.5 -3t70.5 -42v-82q0 2 -2 4q-6 6 -22 6q-10 0 -47 -5t-77 -16.5t-72 -28.5t-32 -40q0 -6 14 -20l29 -32q16 -17 33 -37t23 -36q4 -14 6 -37.5t2 -44.5q0 -37 -20.5 -102.5t-53.5 -130 t-72.5 -111.5t-76.5 -47q-29 0 -47.5 20.5t-29.5 45t-15.5 46t-4.5 25.5q0 10 11 59l21 103l22 103q10 48 10 59q0 18 -5 26.5t-12.5 10.5t-14.5 1t-9 -1q-20 0 -37.5 -5.5t-38.5 -5.5q-18 0 -46 21.5t-28 46.5zM358 227q0 -20 6.5 -28.5t6.5 -18.5q16 0 28.5 5t16.5 10 q14 23 31 54l33 62q15 31 25.5 56.5t10.5 33.5q0 20 -19.5 38t-27.5 26l-36 -65q-19 -36 -35.5 -71.5t-28 -63.5t-11.5 -38z" />
<glyph unicode="&#xb9;" horiz-adv-x="894" d="M-63 545q0 35 25.5 73.5t64.5 70.5t84 52.5t82 20.5q45 0 70.5 -28.5t38.5 -67.5t16.5 -76t3.5 -51q0 -10 -4.5 -36t-11.5 -61l-15 -71q-8 -37 -17 -68q-2 -2 -2 -4q0 -4 21 -4q8 0 38 22l67 54l76 64q38 34 67 57l9 24q9 25 23.5 59.5l33 75.5t37 75t37.5 57.5t36 23.5 q29 0 50 -25.5t21 -50.5q0 -10 -12 -33l-28 -50l-33 -56q-16 -29 -25 -49q-10 -18 -19 -41t-9 -49q0 -10 10 -25.5t14 -32.5q4 -45 8 -96t-4 -92t-37.5 -95.5t-64.5 -107.5h-56q-35 29 -45 56.5t-12 55t-3 57.5t-19 63q-8 -4 -37 -32l-65 -60q-36 -32 -71.5 -57.5 t-58.5 -25.5q-29 0 -45 11.5t-25.5 28t-12.5 34t-3 31.5q0 10 15 58l31 105l32 104q14 48 14 61q0 8 -2 25.5t-7 34.5t-12 30.5t-20 13.5q-31 0 -55.5 -18.5t-46.5 -39.5l-43 -40q-20 -18 -41 -19q-18 0 -40.5 20.5t-22.5 43.5z" />
<glyph unicode="&#xe19;" horiz-adv-x="894" d="M-63 545q0 35 25.5 73.5t64.5 70.5t84 52.5t82 20.5q45 0 70.5 -28.5t38.5 -67.5t16.5 -76t3.5 -51q0 -10 -4.5 -36t-11.5 -61l-15 -71q-8 -37 -17 -68q-2 -2 -2 -4q0 -4 21 -4q8 0 38 22l67 54l76 64q38 34 67 57l9 24q9 25 23.5 59.5l33 75.5t37 75t37.5 57.5t36 23.5 q29 0 50 -25.5t21 -50.5q0 -10 -12 -33l-28 -50l-33 -56q-16 -29 -25 -49q-10 -18 -19 -41t-9 -49q0 -10 10 -25.5t14 -32.5q4 -45 8 -96t-4 -92t-37.5 -95.5t-64.5 -107.5h-56q-35 29 -45 56.5t-12 55t-3 57.5t-19 63q-8 -4 -37 -32l-65 -60q-36 -32 -71.5 -57.5 t-58.5 -25.5q-29 0 -45 11.5t-25.5 28t-12.5 34t-3 31.5q0 10 15 58l31 105l32 104q14 48 14 61q0 8 -2 25.5t-7 34.5t-12 30.5t-20 13.5q-31 0 -55.5 -18.5t-46.5 -39.5l-43 -40q-20 -18 -41 -19q-18 0 -40.5 20.5t-22.5 43.5z" />
<glyph unicode="&#xba;" horiz-adv-x="808" d="M-27 524q0 39 30 88.5t73 92.5t90 71.5t82 28.5q33 0 55.5 -19.5t36.5 -45t20.5 -50t6.5 -35.5q0 -8 -10 -42l-21 -82q-12 -48 -28.5 -102t-28.5 -102l-22 -83q-9 -35 -9 -41q0 -20 12 -26.5t31 -26.5q39 25 71.5 50t61.5 54t53.5 63.5t40.5 77.5q20 59 31.5 137 t28.5 148q10 45 30.5 72.5t44.5 27.5q16 0 26.5 -16t18.5 -35q8 -23 15 -49q0 -10 -7.5 -28.5l-17.5 -42t-19.5 -49t-13.5 -48.5q-10 -72 -34.5 -160t-79.5 -162q-20 -27 -50 -59.5t-62 -60t-64.5 -46t-57.5 -18.5q-33 0 -62.5 17.5t-53 43t-37 56.5t-13.5 55 q0 37 14.5 101.5t32.5 129.5l33 112q14 48 15 52v56q2 2 2 4q0 4 -21 4q-29 0 -50.5 -15.5t-38.5 -36t-28 -41.5l-16 -34q-6 -14 -5 -32.5t5 -37.5q-4 -10 -7 -19t-26 -9q-25 0 -39 15t-23 35.5t-12.5 38t-3.5 23.5z" />
<glyph unicode="&#xe1a;" horiz-adv-x="808" d="M-27 524q0 39 30 88.5t73 92.5t90 71.5t82 28.5q33 0 55.5 -19.5t36.5 -45t20.5 -50t6.5 -35.5q0 -8 -10 -42l-21 -82q-12 -48 -28.5 -102t-28.5 -102l-22 -83q-9 -35 -9 -41q0 -20 12 -26.5t31 -26.5q39 25 71.5 50t61.5 54t53.5 63.5t40.5 77.5q20 59 31.5 137 t28.5 148q10 45 30.5 72.5t44.5 27.5q16 0 26.5 -16t18.5 -35q8 -23 15 -49q0 -10 -7.5 -28.5l-17.5 -42t-19.5 -49t-13.5 -48.5q-10 -72 -34.5 -160t-79.5 -162q-20 -27 -50 -59.5t-62 -60t-64.5 -46t-57.5 -18.5q-33 0 -62.5 17.5t-53 43t-37 56.5t-13.5 55 q0 37 14.5 101.5t32.5 129.5l33 112q14 48 15 52v56q2 2 2 4q0 4 -21 4q-29 0 -50.5 -15.5t-38.5 -36t-28 -41.5l-16 -34q-6 -14 -5 -32.5t5 -37.5q-4 -10 -7 -19t-26 -9q-25 0 -39 15t-23 35.5t-12.5 38t-3.5 23.5z" />
<glyph unicode="&#xbb;" horiz-adv-x="933" d="M-41 518q0 61 50 112.5t120 89.5t140.5 58.5t111.5 20.5q80 0 97.5 -27t17.5 -76q0 -59 -31 -135t-68 -147l-66 -132q-30 -60 -28 -87q-2 -2 -2 -5q0 -4 21 -4q33 0 72.5 38t76.5 88t65.5 97.5t38.5 65.5q78 135 136.5 281.5t85.5 292.5q6 39 17 99t28 118q4 10 17 26.5 t38 16.5q23 0 34 -7.5t21 -7.5q6 -41 -8 -82q8 -10 15.5 -12t7.5 -26q0 -10 -8 -36l-16 -57l-19 -64l-19 -61q-14 -53 -35 -116l-43 -129q-23 -66 -48 -128l-48 -114q-10 -27 -36.5 -53.5t-43.5 -61.5q-35 -72 -75.5 -134t-86 -110.5t-92.5 -76t-94 -27.5q-31 0 -56.5 19.5 t-44 47t-28.5 57.5t-10 50q0 37 23.5 94.5t53.5 118.5l59 118q30 56 42 91v45q-29 -8 -73 -26.5t-83 -45t-62.5 -59.5t-10.5 -70q-10 -10 -22.5 -14t-35.5 -4q-41 0 -68.5 30.5t-27.5 59.5z" />
<glyph unicode="&#xe1b;" horiz-adv-x="933" d="M-41 518q0 61 50 112.5t120 89.5t140.5 58.5t111.5 20.5q80 0 97.5 -27t17.5 -76q0 -59 -31 -135t-68 -147l-66 -132q-30 -60 -28 -87q-2 -2 -2 -5q0 -4 21 -4q33 0 72.5 38t76.5 88t65.5 97.5t38.5 65.5q78 135 136.5 281.5t85.5 292.5q6 39 17 99t28 118q4 10 17 26.5 t38 16.5q23 0 34 -7.5t21 -7.5q6 -41 -8 -82q8 -10 15.5 -12t7.5 -26q0 -10 -8 -36l-16 -57l-19 -64l-19 -61q-14 -53 -35 -116l-43 -129q-23 -66 -48 -128l-48 -114q-10 -27 -36.5 -53.5t-43.5 -61.5q-35 -72 -75.5 -134t-86 -110.5t-92.5 -76t-94 -27.5q-31 0 -56.5 19.5 t-44 47t-28.5 57.5t-10 50q0 37 23.5 94.5t53.5 118.5l59 118q30 56 42 91v45q-29 -8 -73 -26.5t-83 -45t-62.5 -59.5t-10.5 -70q-10 -10 -22.5 -14t-35.5 -4q-41 0 -68.5 30.5t-27.5 59.5z" />
<glyph unicode="&#xbc;" horiz-adv-x="1046" d="M115 201q0 23 13 57.5t22 69.5q8 43 32 105l54 129q29 67 60 131l56 114h76q23 -20 26 -49t1 -59.5t-1 -61.5t19 -57q10 -16 29.5 -20.5t42.5 -8.5q10 -6 21 -24l18 -27q6 -31 1 -68t-9.5 -76t-2.5 -78.5t25 -76.5q27 12 43 46t26.5 74.5t17.5 86t17 79.5q16 49 36 125 l38 140q8 10 16.5 19t32.5 9q27 0 43.5 -12t24.5 -29.5t10 -36t2 -32.5q0 -8 -19 -75l-48 -158l-63 -190l-60 -173q-14 -39 -53 -54.5t-60 -15.5q-31 0 -57.5 31t-47 68.5t-36 74.5t-25.5 49l-52 -54q-28 -30 -55.5 -55.5t-51 -43t-37.5 -17.5q-23 0 -45.5 20.5t-40 47.5 t-28.5 49.5t-11 26.5zM301 322q23 18 53.5 56t48.5 68q-4 4 -10 7.5t-10 7.5l-12 4l-46 -48q-26 -28 -24 -52v-43z" />
<glyph unicode="&#xe1c;" horiz-adv-x="1046" d="M115 201q0 23 13 57.5t22 69.5q8 43 32 105l54 129q29 67 60 131l56 114h76q23 -20 26 -49t1 -59.5t-1 -61.5t19 -57q10 -16 29.5 -20.5t42.5 -8.5q10 -6 21 -24l18 -27q6 -31 1 -68t-9.5 -76t-2.5 -78.5t25 -76.5q27 12 43 46t26.5 74.5t17.5 86t17 79.5q16 49 36 125 l38 140q8 10 16.5 19t32.5 9q27 0 43.5 -12t24.5 -29.5t10 -36t2 -32.5q0 -8 -19 -75l-48 -158l-63 -190l-60 -173q-14 -39 -53 -54.5t-60 -15.5q-31 0 -57.5 31t-47 68.5t-36 74.5t-25.5 49l-52 -54q-28 -30 -55.5 -55.5t-51 -43t-37.5 -17.5q-23 0 -45.5 20.5t-40 47.5 t-28.5 49.5t-11 26.5zM301 322q23 18 53.5 56t48.5 68q-4 4 -10 7.5t-10 7.5l-12 4l-46 -48q-26 -28 -24 -52v-43z" />
<glyph unicode="&#xbd;" horiz-adv-x="946" d="M57 233q0 12 4.5 30t10.5 38l12 40q6 19 8 36q2 6 13.5 43t31 87l44 107.5t53 105.5t58.5 79.5t58 31.5q35 0 53.5 -27.5t26.5 -62t9 -65.5t1 -39q27 -18 58.5 -26.5t56.5 -26.5q14 -72 16 -150t13 -162q68 88 118 203t96 248l93 281q47 147 108 303h76q16 -39 17 -88 q0 -35 -19.5 -92.5t-43 -116t-45 -104.5t-26.5 -56q-14 -37 -22 -88t-18 -90l-30 -81q-22 -58 -53.5 -133t-69.5 -156t-75 -147.5t-70.5 -109.5t-58.5 -43q-37 0 -60.5 22.5t-37.5 50t-19.5 53.5t-5.5 32v63l-35 37q-43 -43 -65.5 -81t-40.5 -65.5t-38.5 -43t-57.5 -15.5 q-35 0 -61.5 20.5t-45 50.5t-28 59.5t-9.5 47.5zM221 315q8 2 29.5 21.5t45 45.5t42 52.5t18.5 42.5q0 27 -20.5 34t-30.5 7q-10 -20 -24 -44l-28 -46l-22.5 -41t-9.5 -27v-45z" />
<glyph unicode="&#xe1d;" horiz-adv-x="946" d="M57 233q0 12 4.5 30t10.5 38l12 40q6 19 8 36q2 6 13.5 43t31 87l44 107.5t53 105.5t58.5 79.5t58 31.5q35 0 53.5 -27.5t26.5 -62t9 -65.5t1 -39q27 -18 58.5 -26.5t56.5 -26.5q14 -72 16 -150t13 -162q68 88 118 203t96 248l93 281q47 147 108 303h76q16 -39 17 -88 q0 -35 -19.5 -92.5t-43 -116t-45 -104.5t-26.5 -56q-14 -37 -22 -88t-18 -90l-30 -81q-22 -58 -53.5 -133t-69.5 -156t-75 -147.5t-70.5 -109.5t-58.5 -43q-37 0 -60.5 22.5t-37.5 50t-19.5 53.5t-5.5 32v63l-35 37q-43 -43 -65.5 -81t-40.5 -65.5t-38.5 -43t-57.5 -15.5 q-35 0 -61.5 20.5t-45 50.5t-28 59.5t-9.5 47.5zM221 315q8 2 29.5 21.5t45 45.5t42 52.5t18.5 42.5q0 27 -20.5 34t-30.5 7q-10 -20 -24 -44l-28 -46l-22.5 -41t-9.5 -27v-45z" />
<glyph unicode="&#xbe;" horiz-adv-x="1028" d="M51 444q0 45 39 96.5t91 95.5t104.5 72.5t81.5 28.5q20 0 36.5 -18.5t26.5 -42t16.5 -44t6.5 -26.5q0 -10 -6.5 -31.5t-12.5 -48.5l-12 -55q-6 -29 -6 -55q29 29 50 68.5t40.5 72.5t43 50.5t58.5 -1.5q20 -23 20.5 -64.5t-2.5 -87.5t-3 -91.5t22 -73.5q10 0 19.5 11 t15.5 22q2 35 12 74.5t21 74.5q6 14 17 29.5t18 38.5l17 55l19 64l21 69q10 35 20 64q6 2 18.5 9t35.5 7q18 0 30.5 -11.5t21.5 -25.5t13 -27.5t4 -15.5q0 -10 -10 -29.5t-25 -44.5l-28 -50q-14 -26 -23 -46q-23 -57 -40 -125l-34 -127q-8 -29 -22 -69.5t-31 -69.5 q-16 -29 -49 -55.5t-55 -26.5q-41 0 -63.5 34t-33 77t-13.5 81.5t-5 49.5q-14 -16 -43 -67l-62 -104q-34 -54 -69 -97.5t-61 -43.5q-27 0 -44.5 14.5t-28.5 35t-15.5 40t-4.5 31.5q0 10 16 54l36 103l42 122q22 63 33 110q-8 10 -4 14.5t-18 4.5q-10 0 -36 -29l-54 -63 l-52 -64q-24 -29 -30 -29q-14 0 -27.5 11.5t-23 27t-14.5 28.5t-5 19z" />
<glyph unicode="&#xe1e;" horiz-adv-x="1028" d="M51 444q0 45 39 96.5t91 95.5t104.5 72.5t81.5 28.5q20 0 36.5 -18.5t26.5 -42t16.5 -44t6.5 -26.5q0 -10 -6.5 -31.5t-12.5 -48.5l-12 -55q-6 -29 -6 -55q29 29 50 68.5t40.5 72.5t43 50.5t58.5 -1.5q20 -23 20.5 -64.5t-2.5 -87.5t-3 -91.5t22 -73.5q10 0 19.5 11 t15.5 22q2 35 12 74.5t21 74.5q6 14 17 29.5t18 38.5l17 55l19 64l21 69q10 35 20 64q6 2 18.5 9t35.5 7q18 0 30.5 -11.5t21.5 -25.5t13 -27.5t4 -15.5q0 -10 -10 -29.5t-25 -44.5l-28 -50q-14 -26 -23 -46q-23 -57 -40 -125l-34 -127q-8 -29 -22 -69.5t-31 -69.5 q-16 -29 -49 -55.5t-55 -26.5q-41 0 -63.5 34t-33 77t-13.5 81.5t-5 49.5q-14 -16 -43 -67l-62 -104q-34 -54 -69 -97.5t-61 -43.5q-27 0 -44.5 14.5t-28.5 35t-15.5 40t-4.5 31.5q0 10 16 54l36 103l42 122q22 63 33 110q-8 10 -4 14.5t-18 4.5q-10 0 -36 -29l-54 -63 l-52 -64q-24 -29 -30 -29q-14 0 -27.5 11.5t-23 27t-14.5 28.5t-5 19z" />
<glyph unicode="&#xbf;" horiz-adv-x="944" d="M80 555q0 33 15.5 71t43 71.5t64.5 56t80 22.5q23 0 35 -19.5t18 -23.5q16 -23 17 -56.5t-3 -69.5t-7 -69.5t5 -58.5q25 23 36 36t20.5 21.5t19.5 10.5t31 2q43 0 58 -43t17 -97.5t-4 -104.5t-8 -64q10 0 9 -5.5t22 -5.5q18 0 48 59.5t64.5 154t72.5 212.5l77 240l75 229 q36 109 64 185h66q10 -16 12 -35t2 -41q0 -25 -14.5 -65t-33.5 -84l-39 -87q-19 -43 -28 -73q-8 -25 -6 -59t-6 -60q-2 -2 -19.5 -63.5t-47.5 -150.5l-70 -193q-39 -103 -83 -191t-89 -146.5t-86 -58.5q-37 0 -55.5 38t-26.5 87t-11 96t-9 66l-44 -56l-49 -62 q-25 -30 -46 -51.5t-34 -21.5q-27 0 -42 16.5t-24 36t-12 38t-3 22.5q0 12 5 36.5t13 54.5l16 63q8 33 13 59q-20 16 -42 26.5t-38.5 21.5t-27.5 29.5t-11 53.5z" />
<glyph unicode="&#xe1f;" horiz-adv-x="944" d="M80 555q0 33 15.5 71t43 71.5t64.5 56t80 22.5q23 0 35 -19.5t18 -23.5q16 -23 17 -56.5t-3 -69.5t-7 -69.5t5 -58.5q25 23 36 36t20.5 21.5t19.5 10.5t31 2q43 0 58 -43t17 -97.5t-4 -104.5t-8 -64q10 0 9 -5.5t22 -5.5q18 0 48 59.5t64.5 154t72.5 212.5l77 240l75 229 q36 109 64 185h66q10 -16 12 -35t2 -41q0 -25 -14.5 -65t-33.5 -84l-39 -87q-19 -43 -28 -73q-8 -25 -6 -59t-6 -60q-2 -2 -19.5 -63.5t-47.5 -150.5l-70 -193q-39 -103 -83 -191t-89 -146.5t-86 -58.5q-37 0 -55.5 38t-26.5 87t-11 96t-9 66l-44 -56l-49 -62 q-25 -30 -46 -51.5t-34 -21.5q-27 0 -42 16.5t-24 36t-12 38t-3 22.5q0 12 5 36.5t13 54.5l16 63q8 33 13 59q-20 16 -42 26.5t-38.5 21.5t-27.5 29.5t-11 53.5z" />
<glyph unicode="&#xc0;" horiz-adv-x="1021" d="M-29 125q0 20 13.5 55t21.5 76q4 16 21.5 47t38.5 47h112l-36 -86q-15 -37 -15 -61q0 -25 -1 -30t9 -15q51 31 92 72.5t70 89t46 97.5t22 97q2 35 -4 63l-10 53q-5 26 -7 52.5t8 56.5q72 25 144.5 46.5t162.5 21.5q25 0 50.5 1t47 -4t39 -17.5t27.5 -36.5q8 -18 16.5 -44 t14.5 -53.5t10 -51t4 -36.5q0 -31 -23.5 -95t-51.5 -130l-54 -118q-25 -52 -24 -60l-8.5 -78t-24.5 -82h-41q-23 -2 -37 14.5t-35 26.5q8 49 19.5 101.5t27.5 99.5q14 43 38 98l44 107l36 91q15 40 16 52q0 23 -19.5 32t-42.5 13q-27 4 -61 0q-27 0 -51.5 3t-46 0t-41 -14.5 t-33.5 -37.5q-10 -16 -11.5 -43t-1.5 -59.5t-1 -66.5t-7 -63q-10 -37 -34.5 -97t-61.5 -117.5t-87 -99.5t-112 -42q-18 0 -45.5 12.5t-55.5 30.5t-47.5 40t-19.5 42z" />
<glyph unicode="&#xe20;" horiz-adv-x="1021" d="M-29 125q0 20 13.5 55t21.5 76q4 16 21.5 47t38.5 47h112l-36 -86q-15 -37 -15 -61q0 -25 -1 -30t9 -15q51 31 92 72.5t70 89t46 97.5t22 97q2 35 -4 63l-10 53q-5 26 -7 52.5t8 56.5q72 25 144.5 46.5t162.5 21.5q25 0 50.5 1t47 -4t39 -17.5t27.5 -36.5q8 -18 16.5 -44 t14.5 -53.5t10 -51t4 -36.5q0 -31 -23.5 -95t-51.5 -130l-54 -118q-25 -52 -24 -60l-8.5 -78t-24.5 -82h-41q-23 -2 -37 14.5t-35 26.5q8 49 19.5 101.5t27.5 99.5q14 43 38 98l44 107l36 91q15 40 16 52q0 23 -19.5 32t-42.5 13q-27 4 -61 0q-27 0 -51.5 3t-46 0t-41 -14.5 t-33.5 -37.5q-10 -16 -11.5 -43t-1.5 -59.5t-1 -66.5t-7 -63q-10 -37 -34.5 -97t-61.5 -117.5t-87 -99.5t-112 -42q-18 0 -45.5 12.5t-55.5 30.5t-47.5 40t-19.5 42z" />
<glyph unicode="&#xc1;" horiz-adv-x="966" d="M61 512q0 37 37 89t87.5 100.5t102.5 83t83 34.5q37 0 59.5 -16.5t35.5 -44t17 -61t4 -70.5q-2 -84 -28 -193q31 -41 71.5 -82t69.5 -88h4q8 0 17 2q20 23 36.5 65t30.5 87t24.5 86t18.5 65q16 47 43 103l55 110q37 -14 60.5 -47t23.5 -57q0 -20 -10 -37.5t-24.5 -34 t-31 -33t-30.5 -34.5q-4 -10 2 -23.5t10 -23.5q-18 -31 -32.5 -79t-28.5 -83q0 -2 -11.5 -39t-30.5 -81t-46 -81t-57 -37q-29 0 -51.5 24.5t-44 55.5t-46 55.5t-55.5 24.5q-29 0 -53.5 -29.5t-44 -66.5t-32.5 -71t-20 -40q-10 -12 -32.5 -27.5t-40.5 -23.5q-18 18 -37 43.5 t-19 48.5q0 10 11.5 39t27 64.5l33 72.5t31.5 62q8 12 23 27l32 31q16 15 29.5 31.5t17.5 30.5q10 29 20.5 68t10.5 61q0 20 -6 32l-17 30q-10 0 -21 -6t-22 -11q-25 -27 -52 -50t-49.5 -47.5t-37 -50.5t-12.5 -52q-4 -2 -6 -10.5t-25 -8.5q-16 0 -29.5 16.5t-23.5 37 t-15.5 38t-5.5 21.5z" />
<glyph unicode="&#xe21;" horiz-adv-x="966" d="M61 512q0 37 37 89t87.5 100.5t102.5 83t83 34.5q37 0 59.5 -16.5t35.5 -44t17 -61t4 -70.5q-2 -84 -28 -193q31 -41 71.5 -82t69.5 -88h4q8 0 17 2q20 23 36.5 65t30.5 87t24.5 86t18.5 65q16 47 43 103l55 110q37 -14 60.5 -47t23.5 -57q0 -20 -10 -37.5t-24.5 -34 t-31 -33t-30.5 -34.5q-4 -10 2 -23.5t10 -23.5q-18 -31 -32.5 -79t-28.5 -83q0 -2 -11.5 -39t-30.5 -81t-46 -81t-57 -37q-29 0 -51.5 24.5t-44 55.5t-46 55.5t-55.5 24.5q-29 0 -53.5 -29.5t-44 -66.5t-32.5 -71t-20 -40q-10 -12 -32.5 -27.5t-40.5 -23.5q-18 18 -37 43.5 t-19 48.5q0 10 11.5 39t27 64.5l33 72.5t31.5 62q8 12 23 27l32 31q16 15 29.5 31.5t17.5 30.5q10 29 20.5 68t10.5 61q0 20 -6 32l-17 30q-10 0 -21 -6t-22 -11q-25 -27 -52 -50t-49.5 -47.5t-37 -50.5t-12.5 -52q-4 -2 -6 -10.5t-25 -8.5q-16 0 -29.5 16.5t-23.5 37 t-15.5 38t-5.5 21.5z" />
<glyph unicode="&#xc2;" horiz-adv-x="808" d="M84 492q0 10 12.5 37.5t34 62.5t48 72.5t56 69.5t59.5 52.5t54 20.5q51 0 65.5 -25.5t14.5 -66.5q0 -10 -6 -34t-15.5 -52.5t-20.5 -58.5l-19 -50q-16 10 -35 34t-41 24q-33 0 -52.5 -33t-29.5 -62q39 0 58.5 2t29.5 5.5l16 5.5t17 2q45 0 65.5 -36t20.5 -73 q0 -23 -13.5 -69t-23.5 -99q27 18 56.5 59.5t55 88.5t47 96t33.5 86q8 25 12.5 58.5t10.5 68.5t18.5 69.5t36.5 59.5q18 -8 41 -21.5t23 -35.5q0 -35 -19.5 -106t-44 -144.5t-48 -135l-30.5 -79.5q-6 -20 -18 -56t-27 -61q-4 -4 -27.5 -30.5t-55 -55.5t-63.5 -52.5 t-50 -23.5q-16 0 -37 15.5t-33 31.5q-29 37 -31 70t6.5 62.5t19.5 57t11 56.5v33q0 8 -7 10t-16.5 1t-20.5 -3t-19 0q-14 4 -35 19.5t-39 38t-31.5 47t-13.5 47.5z" />
<glyph unicode="&#xe22;" horiz-adv-x="808" d="M84 492q0 10 12.5 37.5t34 62.5t48 72.5t56 69.5t59.5 52.5t54 20.5q51 0 65.5 -25.5t14.5 -66.5q0 -10 -6 -34t-15.5 -52.5t-20.5 -58.5l-19 -50q-16 10 -35 34t-41 24q-33 0 -52.5 -33t-29.5 -62q39 0 58.5 2t29.5 5.5l16 5.5t17 2q45 0 65.5 -36t20.5 -73 q0 -23 -13.5 -69t-23.5 -99q27 18 56.5 59.5t55 88.5t47 96t33.5 86q8 25 12.5 58.5t10.5 68.5t18.5 69.5t36.5 59.5q18 -8 41 -21.5t23 -35.5q0 -35 -19.5 -106t-44 -144.5t-48 -135l-30.5 -79.5q-6 -20 -18 -56t-27 -61q-4 -4 -27.5 -30.5t-55 -55.5t-63.5 -52.5 t-50 -23.5q-16 0 -37 15.5t-33 31.5q-29 37 -31 70t6.5 62.5t19.5 57t11 56.5v33q0 8 -7 10t-16.5 1t-20.5 -3t-19 0q-14 4 -35 19.5t-39 38t-31.5 47t-13.5 47.5z" />
<glyph unicode="&#xc3;" horiz-adv-x="643" d="M25 90q0 33 30 68l68 80q37 45 67.5 103t30.5 142q0 8 -10 30l-23 46l-22 46q-10 22 -10 30q0 18 35.5 38.5t89 40t116 37t117.5 31t93 20.5t42 7q8 0 25.5 -2t36 -6t32 -11.5t13.5 -17.5q6 -25 18 -49.5t12 -44.5l-14 -31q-41 0 -56.5 2t-20.5 3t-8 3t-21 2t-58.5 -16 t-75.5 -25q-23 -6 -54.5 -12t-64 -14t-62 -20.5t-48.5 -28.5q2 -35 6 -66t4 -61q0 -16 -6 -40t-8 -40q-2 -20 -23.5 -74.5t-52 -111t-64.5 -100.5t-59 -44q-16 0 -29.5 11.5t-23.5 26.5t-16 28.5t-6 19.5z" />
<glyph unicode="&#xe23;" horiz-adv-x="643" d="M25 90q0 33 30 68l68 80q37 45 67.5 103t30.5 142q0 8 -10 30l-23 46l-22 46q-10 22 -10 30q0 18 35.5 38.5t89 40t116 37t117.5 31t93 20.5t42 7q8 0 25.5 -2t36 -6t32 -11.5t13.5 -17.5q6 -25 18 -49.5t12 -44.5l-14 -31q-41 0 -56.5 2t-20.5 3t-8 3t-21 2t-58.5 -16 t-75.5 -25q-23 -6 -54.5 -12t-64 -14t-62 -20.5t-48.5 -28.5q2 -35 6 -66t4 -61q0 -16 -6 -40t-8 -40q-2 -20 -23.5 -74.5t-52 -111t-64.5 -100.5t-59 -44q-16 0 -29.5 11.5t-23.5 26.5t-16 28.5t-6 19.5z" />
<glyph unicode="&#xc4;" horiz-adv-x="768" d="M100 182q0 8 10.5 57.5l25.5 115.5l33 137q17 70 34 120l11 37t13 48.5t10.5 48t4.5 36.5l12 17q6 8 27 8q20 0 29 -15.5t30 -15.5q20 0 60 10.5t61 10.5q18 0 55 -16.5l66 -30.5q16 -10 42.5 -38t32.5 -57q6 -18 9.5 -45.5t4.5 -54.5t2 -49.5t1 -32.5q0 -8 -7 -69 l-18 -143q-10 -83 -22 -170l-21 -148q-10 -57 -27.5 -122t-33.5 -134q-2 -4 -4 -6q-6 -6 -21 -7q-10 0 -22.5 17.5t-22.5 39t-17 41t-7 23.5q0 8 6 28.5t14 45.5l16 51q8 27 13 47q14 66 29 154l29 169q13 81 21.5 140t8.5 70q0 66 -33 112.5t-98 46.5q-18 0 -54 -4t-61 -20 q-16 -10 -27.5 -31.5t-19.5 -46.5t-12 -47.5t-7 -36.5q-4 -33 -18 -63.5t-6 -61.5q4 -23 16.5 -54.5t3.5 -53.5q-8 -27 -32.5 -68t-46.5 -74q-31 18 -62 32.5t-31 51.5z" />
<glyph unicode="&#xe24;" horiz-adv-x="768" d="M100 182q0 8 10.5 57.5l25.5 115.5l33 137q17 70 34 120l11 37t13 48.5t10.5 48t4.5 36.5l12 17q6 8 27 8q20 0 29 -15.5t30 -15.5q20 0 60 10.5t61 10.5q18 0 55 -16.5l66 -30.5q16 -10 42.5 -38t32.5 -57q6 -18 9.5 -45.5t4.5 -54.5t2 -49.5t1 -32.5q0 -8 -7 -69 l-18 -143q-10 -83 -22 -170l-21 -148q-10 -57 -27.5 -122t-33.5 -134q-2 -4 -4 -6q-6 -6 -21 -7q-10 0 -22.5 17.5t-22.5 39t-17 41t-7 23.5q0 8 6 28.5t14 45.5l16 51q8 27 13 47q14 66 29 154l29 169q13 81 21.5 140t8.5 70q0 66 -33 112.5t-98 46.5q-18 0 -54 -4t-61 -20 q-16 -10 -27.5 -31.5t-19.5 -46.5t-12 -47.5t-7 -36.5q-4 -33 -18 -63.5t-6 -61.5q4 -23 16.5 -54.5t3.5 -53.5q-8 -27 -32.5 -68t-46.5 -74q-31 18 -62 32.5t-31 51.5z" />
<glyph unicode="&#xc5;" horiz-adv-x="679" d="M63 78q0 29 34 84t80 109.5t95.5 94.5t79.5 40q16 0 24.5 -6.5t29.5 -6.5q20 0 27 5t11 14q12 41 18.5 87t6.5 66q0 14 -2 32.5t-8 35t-17.5 28t-29.5 11.5t-58.5 -22.5t-80.5 -55.5t-70.5 -70t-34.5 -65q-45 14 -64.5 40.5t-19.5 49.5q0 43 44 89t101.5 85t112.5 63.5 t80 24.5q41 0 66.5 -33t41 -76t20.5 -86t5 -61q0 -10 -9 -73l-23 -146l-28 -176l-28 -160h-37q-31 29 -35 73t-3 85t-3 69.5t-31 28.5q-23 0 -44 -18.5t-42 -44.5l-40 -54q-19 -27 -37 -43q-4 -6 2 -19.5t8 -29.5q0 -10 -13.5 -29.5t-31.5 -19.5q-10 0 -26.5 9t-32 21.5 t-27 26t-11.5 23.5z" />
<glyph unicode="&#xe25;" horiz-adv-x="679" d="M63 78q0 29 34 84t80 109.5t95.5 94.5t79.5 40q16 0 24.5 -6.5t29.5 -6.5q20 0 27 5t11 14q12 41 18.5 87t6.5 66q0 14 -2 32.5t-8 35t-17.5 28t-29.5 11.5t-58.5 -22.5t-80.5 -55.5t-70.5 -70t-34.5 -65q-45 14 -64.5 40.5t-19.5 49.5q0 43 44 89t101.5 85t112.5 63.5 t80 24.5q41 0 66.5 -33t41 -76t20.5 -86t5 -61q0 -10 -9 -73l-23 -146l-28 -176l-28 -160h-37q-31 29 -35 73t-3 85t-3 69.5t-31 28.5q-23 0 -44 -18.5t-42 -44.5l-40 -54q-19 -27 -37 -43q-4 -6 2 -19.5t8 -29.5q0 -10 -13.5 -29.5t-31.5 -19.5q-10 0 -26.5 9t-32 21.5 t-27 26t-11.5 23.5z" />
<glyph unicode="&#xc6;" horiz-adv-x="858" d="M102 244q0 20 14 62l23 77h74q0 -23 -4 -50.5t-4 -49.5q0 -18 5 -29l13 -27h31q33 16 58.5 44t43 59.5t28.5 64.5t19 64l9.5 57.5t13.5 56.5l15 45q13 39 35 82t48.5 78t57.5 35q8 0 27.5 -10t41 -25.5t43.5 -34.5l41 -34q-2 -16 9.5 -39t11.5 -43q0 -8 -4 -42t-11.5 -79 t-17.5 -94.5t-21 -89.5q-39 -145 -87 -289t-89 -287q0 -4 -4 -13t-10 -19.5t-14.5 -18.5t-18.5 -8h-37q0 10 -12 19t-12 32q0 8 22 72l54 150l62 183q32 96 50 170q6 23 12.5 63t11.5 80l9 72q4 33 4 43q0 8 -2 22.5t-6 29t-11.5 23.5t-19.5 9q-39 0 -64.5 -42t-47 -104.5 t-42 -135t-48 -135t-67.5 -104.5t-97 -42q-23 0 -47.5 21.5t-44 49t-32 52.5t-12.5 29z" />
<glyph unicode="&#xe26;" horiz-adv-x="858" d="M102 244q0 20 14 62l23 77h74q0 -23 -4 -50.5t-4 -49.5q0 -18 5 -29l13 -27h31q33 16 58.5 44t43 59.5t28.5 64.5t19 64l9.5 57.5t13.5 56.5l15 45q13 39 35 82t48.5 78t57.5 35q8 0 27.5 -10t41 -25.5t43.5 -34.5l41 -34q-2 -16 9.5 -39t11.5 -43q0 -8 -4 -42t-11.5 -79 t-17.5 -94.5t-21 -89.5q-39 -145 -87 -289t-89 -287q0 -4 -4 -13t-10 -19.5t-14.5 -18.5t-18.5 -8h-37q0 10 -12 19t-12 32q0 8 22 72l54 150l62 183q32 96 50 170q6 23 12.5 63t11.5 80l9 72q4 33 4 43q0 8 -2 22.5t-6 29t-11.5 23.5t-19.5 9q-39 0 -64.5 -42t-47 -104.5 t-42 -135t-48 -135t-67.5 -104.5t-97 -42q-23 0 -47.5 21.5t-44 49t-32 52.5t-12.5 29z" />
<glyph unicode="&#xc7;" horiz-adv-x="659" d="M94 512q0 41 38 99.5t90 108.5t109.5 79.5t96.5 15.5q18 -29 36.5 -62.5t33 -65.5t23.5 -57.5t9 -37.5q0 -18 -9 -69.5t-26.5 -118t-42 -138t-57.5 -132t-72.5 -99.5t-84.5 -39q-14 0 -35 26.5t-39.5 58.5t-31.5 59.5t-13 29.5q0 20 9 34.5t19.5 24t20.5 12.5t14 3 q20 0 35.5 -12.5t38.5 -12.5q25 0 54.5 45t54.5 101q29 66 57 147v131q-10 0 -11 5t-24 5q-35 0 -63.5 -23.5t-53 -55t-48 -65.5t-44.5 -52h-69q0 10 -7.5 20t-7.5 35z" />
<glyph unicode="&#xe27;" horiz-adv-x="659" d="M94 512q0 41 38 99.5t90 108.5t109.5 79.5t96.5 15.5q18 -29 36.5 -62.5t33 -65.5t23.5 -57.5t9 -37.5q0 -18 -9 -69.5t-26.5 -118t-42 -138t-57.5 -132t-72.5 -99.5t-84.5 -39q-14 0 -35 26.5t-39.5 58.5t-31.5 59.5t-13 29.5q0 20 9 34.5t19.5 24t20.5 12.5t14 3 q20 0 35.5 -12.5t38.5 -12.5q25 0 54.5 45t54.5 101q29 66 57 147v131q-10 0 -11 5t-24 5q-35 0 -63.5 -23.5t-53 -55t-48 -65.5t-44.5 -52h-69q0 10 -7.5 20t-7.5 35z" />
<glyph unicode="&#xc8;" horiz-adv-x="860" d="M147 160q0 8 3.5 39.5l8.5 73.5t9 87.5t8 79.5q0 10 7 32l15 46l15 50q8 26 12 44q6 29 34 57.5t64.5 52t76.5 38t71 14.5q23 0 63.5 -9t86.5 -65q35 27 78 68l87 80q43 39 81 66.5t63 29.5q8 -8 16 -12t8 -25q0 -8 -31 -49l-76 -96l-91 -117q-47 -61 -76 -113 q-4 -8 -5 -24t-1 -36v-40q0 -20 -4 -35l-10 -37q-7 -29 -18 -67l-25 -81q-13 -42 -26 -77t-26.5 -58.5t-23.5 -23.5q-16 0 -26.5 10.5t-16.5 22.5t-9 24l-2 11q0 10 11 40l21 62l22 63q10 30 10 40v36h-12q-41 -35 -78 -74.5t-71 -80.5l-64 -80q-31 -39 -60 -70v-6 q0 -8 8 -14l-36 -37q-14 8 -34 22.5t-32 22.5q-2 23 -13.5 59t-11.5 56zM276 319l151 144q71 66 103 137q-8 10 -12 18.5t-24 8.5q-41 0 -80 -28t-70 -66.5t-49.5 -79.5t-18.5 -68v-66z" />
<glyph unicode="&#xe28;" horiz-adv-x="860" d="M147 160q0 8 3.5 39.5l8.5 73.5t9 87.5t8 79.5q0 10 7 32l15 46l15 50q8 26 12 44q6 29 34 57.5t64.5 52t76.5 38t71 14.5q23 0 63.5 -9t86.5 -65q35 27 78 68l87 80q43 39 81 66.5t63 29.5q8 -8 16 -12t8 -25q0 -8 -31 -49l-76 -96l-91 -117q-47 -61 -76 -113 q-4 -8 -5 -24t-1 -36v-40q0 -20 -4 -35l-10 -37q-7 -29 -18 -67l-25 -81q-13 -42 -26 -77t-26.5 -58.5t-23.5 -23.5q-16 0 -26.5 10.5t-16.5 22.5t-9 24l-2 11q0 10 11 40l21 62l22 63q10 30 10 40v36h-12q-41 -35 -78 -74.5t-71 -80.5l-64 -80q-31 -39 -60 -70v-6 q0 -8 8 -14l-36 -37q-14 8 -34 22.5t-32 22.5q-2 23 -13.5 59t-11.5 56zM276 319l151 144q71 66 103 137q-8 10 -12 18.5t-24 8.5q-41 0 -80 -28t-70 -66.5t-49.5 -79.5t-18.5 -68v-66z" />
<glyph unicode="&#xc9;" horiz-adv-x="870" d="M45 573q0 20 8 32.5t10 27.5q4 25 33 51.5t68 50t79 37.5t66 14q29 0 43.5 -31.5t20.5 -73.5t8 -82t6 -54q53 25 100.5 51.5t96.5 60.5q2 8 1 34t1 52.5t12 47t35 20.5q31 0 44 -14.5t19 -36t7.5 -44t5.5 -36.5q10 -16 33.5 -26.5t45.5 -22.5q2 -4 10.5 -22.5t18.5 -35.5 q-29 -23 -70.5 -43t-68.5 -51q-16 -20 -22 -49l-9 -53q-6 -37 -30.5 -99.5t-63.5 -123t-85 -105.5t-95 -45q-43 0 -77 25.5t-56.5 58.5t-33.5 65.5t-11 47.5q0 10 9 55l22 105l27 124l23 111q-4 4 -5 7t-3 6t-6 4t-16 1q-10 0 -27.5 -15t-37 -37.5t-37 -46t-23.5 -38.5 q-6 6 -18.5 17.5t-26 26t-22.5 28.5t-9 24zM299 195q0 -20 16.5 -30.5t34.5 -10.5t50 27.5t63 65.5t53.5 74.5t22.5 55.5v41q-16 0 -39 -11.5t-39 -11.5q-23 0 -48.5 25.5t-52.5 44.5q-10 -35 -20 -77l-19 -82l-15.5 -70.5t-6.5 -40.5z" />
<glyph unicode="&#xe29;" horiz-adv-x="870" d="M45 573q0 20 8 32.5t10 27.5q4 25 33 51.5t68 50t79 37.5t66 14q29 0 43.5 -31.5t20.5 -73.5t8 -82t6 -54q53 25 100.5 51.5t96.5 60.5q2 8 1 34t1 52.5t12 47t35 20.5q31 0 44 -14.5t19 -36t7.5 -44t5.5 -36.5q10 -16 33.5 -26.5t45.5 -22.5q2 -4 10.5 -22.5t18.5 -35.5 q-29 -23 -70.5 -43t-68.5 -51q-16 -20 -22 -49l-9 -53q-6 -37 -30.5 -99.5t-63.5 -123t-85 -105.5t-95 -45q-43 0 -77 25.5t-56.5 58.5t-33.5 65.5t-11 47.5q0 10 9 55l22 105l27 124l23 111q-4 4 -5 7t-3 6t-6 4t-16 1q-10 0 -27.5 -15t-37 -37.5t-37 -46t-23.5 -38.5 q-6 6 -18.5 17.5t-26 26t-22.5 28.5t-9 24zM299 195q0 -20 16.5 -30.5t34.5 -10.5t50 27.5t63 65.5t53.5 74.5t22.5 55.5v41q-16 0 -39 -11.5t-39 -11.5q-23 0 -48.5 25.5t-52.5 44.5q-10 -35 -20 -77l-19 -82l-15.5 -70.5t-6.5 -40.5z" />
<glyph unicode="&#xca;" horiz-adv-x="792" d="M100 127q0 45 30 94t72 90t88 68t79 27q29 0 44 -10.5t44 -43.5q31 18 33 53t2 66q0 8 2 28.5t1 40t-8.5 35t-25.5 15.5q-31 0 -65 -19.5t-64.5 -46t-55 -54.5t-36.5 -44q-31 18 -49.5 32.5t-18.5 43.5q0 16 2 35.5t12 29.5q23 27 58 58.5t74.5 58.5t80.5 44t72 17 q16 0 40 -15t42 -15q8 0 41 40l76 88q43 48 89 88t79 40q35 0 45 -22.5t10 -39.5q0 -23 -12.5 -43t-32 -40.5t-42.5 -41.5l-48 -43q-12 -10 -26.5 -33.5t-29.5 -39.5l-63 -85q-29 -38 -41 -91l-11 -50q-7 -31 -9 -53q-12 -94 -41 -193.5t-37 -191.5h-54q-18 -2 -24 17.5 t-16 35.5q-4 25 4 64t12 74q0 6 -1 20t-6 28.5t-15.5 26t-26.5 11.5q-6 0 -30 -19.5t-48.5 -45.5t-46 -52.5t-25.5 -38.5h103v-78q-20 -16 -54 -30.5t-53 -14.5q-23 0 -43 13.5t-37.5 32t-28 40t-10.5 39.5z" />
<glyph unicode="&#xe2a;" horiz-adv-x="792" d="M100 127q0 45 30 94t72 90t88 68t79 27q29 0 44 -10.5t44 -43.5q31 18 33 53t2 66q0 8 2 28.5t1 40t-8.5 35t-25.5 15.5q-31 0 -65 -19.5t-64.5 -46t-55 -54.5t-36.5 -44q-31 18 -49.5 32.5t-18.5 43.5q0 16 2 35.5t12 29.5q23 27 58 58.5t74.5 58.5t80.5 44t72 17 q16 0 40 -15t42 -15q8 0 41 40l76 88q43 48 89 88t79 40q35 0 45 -22.5t10 -39.5q0 -23 -12.5 -43t-32 -40.5t-42.5 -41.5l-48 -43q-12 -10 -26.5 -33.5t-29.5 -39.5l-63 -85q-29 -38 -41 -91l-11 -50q-7 -31 -9 -53q-12 -94 -41 -193.5t-37 -191.5h-54q-18 -2 -24 17.5 t-16 35.5q-4 25 4 64t12 74q0 6 -1 20t-6 28.5t-15.5 26t-26.5 11.5q-6 0 -30 -19.5t-48.5 -45.5t-46 -52.5t-25.5 -38.5h103v-78q-20 -16 -54 -30.5t-53 -14.5q-23 0 -43 13.5t-37.5 32t-28 40t-10.5 39.5z" />
<glyph unicode="&#xcb;" horiz-adv-x="907" d="M98 567q0 35 17.5 70t45 62.5t62.5 45t70 17.5q37 0 59.5 -22.5t34.5 -52.5t15.5 -60.5t3.5 -48.5q0 -10 -10 -55l-20 -95l-21 -95q-9 -44 -9 -57l12 -28q0 -14 16.5 -5t26.5 31q35 63 82 131t80 125l81 137q42 71 95 142h88q16 -16 17 -66q0 -47 -26 -87l-68 -105 q-18 -29 -37 -70t-34 -82t-25.5 -73.5t-10.5 -42.5q0 -66 16.5 -90.5t36 -35t36 -17.5t16.5 -36q0 -16 -11.5 -27t-27 -19.5t-28.5 -12.5t-15 -4q-23 0 -35.5 12.5t-18.5 14.5q-23 20 -46 58t-34 71q4 2 5 4q0 6 -19 6q-14 0 -33.5 -32t-45 -69.5t-56.5 -69.5t-66 -32 q-27 0 -48 14.5t-35.5 35t-21.5 43t-7 38.5q0 6 6 33l15 63l20 78l19 78l16 64q6 27 6 34v80l-19 19q-39 -20 -63.5 -55t-11.5 -72q-41 4 -68 36.5t-27 73.5z" />
<glyph unicode="&#xe2b;" horiz-adv-x="907" d="M98 567q0 35 17.5 70t45 62.5t62.5 45t70 17.5q37 0 59.5 -22.5t34.5 -52.5t15.5 -60.5t3.5 -48.5q0 -10 -10 -55l-20 -95l-21 -95q-9 -44 -9 -57l12 -28q0 -14 16.5 -5t26.5 31q35 63 82 131t80 125l81 137q42 71 95 142h88q16 -16 17 -66q0 -47 -26 -87l-68 -105 q-18 -29 -37 -70t-34 -82t-25.5 -73.5t-10.5 -42.5q0 -66 16.5 -90.5t36 -35t36 -17.5t16.5 -36q0 -16 -11.5 -27t-27 -19.5t-28.5 -12.5t-15 -4q-23 0 -35.5 12.5t-18.5 14.5q-23 20 -46 58t-34 71q4 2 5 4q0 6 -19 6q-14 0 -33.5 -32t-45 -69.5t-56.5 -69.5t-66 -32 q-27 0 -48 14.5t-35.5 35t-21.5 43t-7 38.5q0 6 6 33l15 63l20 78l19 78l16 64q6 27 6 34v80l-19 19q-39 -20 -63.5 -55t-11.5 -72q-41 4 -68 36.5t-27 73.5z" />
<glyph unicode="&#xcc;" horiz-adv-x="901" d="M18 358q0 23 14.5 66t37 92t50 99.5t56.5 89t53.5 61t42.5 16.5q49 -47 60.5 -113.5t6.5 -142t-14.5 -154.5t1.5 -149q23 10 40 36t31.5 56.5t25.5 61.5t23 55q2 6 14.5 39t29 70t35 65.5t36.5 28.5t31.5 -15.5t21 -35t11.5 -38t4 -24.5q0 -10 -6.5 -41.5l-14.5 -67.5 t-14 -68t-6 -44v-104q-2 -2 -2 -4q0 -4 16 -5q20 0 46 43t49.5 102.5t43.5 121.5l33 98q-10 18 -34.5 29.5t-37.5 21.5q-20 16 -31.5 47t-11.5 54q0 37 16.5 73.5t39 67.5t48 50t42.5 19q12 0 25.5 -13t25.5 -29l23 -27q10 -12 18 -12q10 0 35.5 14t53.5 32.5t52.5 33 t34.5 14.5q25 0 43.5 -18.5t18.5 -41.5q0 -10 -32 -41l-76 -71l-91 -88q-47 -47 -78 -90q-6 -8 -11 -23.5t-8 -32.5l-6 -33l-6 -26q0 -2 -11 -38t-29.5 -87t-42 -109.5t-48 -108.5t-49 -84t-45.5 -34q-43 0 -63.5 27.5t-30.5 64.5t-15.5 74t-15.5 55q-23 -23 -40 -54 l-34 -61q-16 -30 -33.5 -50.5t-39.5 -20.5q-37 0 -63.5 33.5t-45.5 87.5q-4 88 5.5 181t0.5 191q-20 -12 -42.5 -50t-44 -80t-40 -73.5t-30.5 -31.5q-16 0 -34 20t-18 43z" />
<glyph unicode="&#xe2c;" horiz-adv-x="901" d="M18 358q0 23 14.5 66t37 92t50 99.5t56.5 89t53.5 61t42.5 16.5q49 -47 60.5 -113.5t6.5 -142t-14.5 -154.5t1.5 -149q23 10 40 36t31.5 56.5t25.5 61.5t23 55q2 6 14.5 39t29 70t35 65.5t36.5 28.5t31.5 -15.5t21 -35t11.5 -38t4 -24.5q0 -10 -6.5 -41.5l-14.5 -67.5 t-14 -68t-6 -44v-104q-2 -2 -2 -4q0 -4 16 -5q20 0 46 43t49.5 102.5t43.5 121.5l33 98q-10 18 -34.5 29.5t-37.5 21.5q-20 16 -31.5 47t-11.5 54q0 37 16.5 73.5t39 67.5t48 50t42.5 19q12 0 25.5 -13t25.5 -29l23 -27q10 -12 18 -12q10 0 35.5 14t53.5 32.5t52.5 33 t34.5 14.5q25 0 43.5 -18.5t18.5 -41.5q0 -10 -32 -41l-76 -71l-91 -88q-47 -47 -78 -90q-6 -8 -11 -23.5t-8 -32.5l-6 -33l-6 -26q0 -2 -11 -38t-29.5 -87t-42 -109.5t-48 -108.5t-49 -84t-45.5 -34q-43 0 -63.5 27.5t-30.5 64.5t-15.5 74t-15.5 55q-23 -23 -40 -54 l-34 -61q-16 -30 -33.5 -50.5t-39.5 -20.5q-37 0 -63.5 33.5t-45.5 87.5q-4 88 5.5 181t0.5 191q-20 -12 -42.5 -50t-44 -80t-40 -73.5t-30.5 -31.5q-16 0 -34 20t-18 43z" />
<glyph unicode="&#xcd;" horiz-adv-x="729" d="M43 520q0 16 13.5 40t33 48.5t41.5 45.5l41 38q37 31 67.5 52.5t60.5 36t62.5 20.5t75.5 6q37 0 62.5 -6t43 -24.5t29 -50.5t21.5 -83q4 -14 22.5 -30.5t18.5 -32.5q0 -18 -17.5 -50t-29.5 -79q-14 -49 -29.5 -109.5t-44.5 -114.5q-12 -23 -38 -60l-52 -74 q-27 -36 -52.5 -62.5t-37.5 -26.5q-31 0 -51.5 26.5t-30.5 60.5t-14.5 61.5t-4.5 31.5q0 37 16.5 91.5t44.5 112.5t64.5 111.5t77.5 90.5q2 2 25.5 12t36.5 39q-8 8 -10.5 18.5t-22.5 10.5q-8 0 -32.5 -6.5t-53.5 -16.5l-58 -21q-30 -11 -49 -24q-23 -12 -48 -36l-50 -48 q-25 -25 -44 -42t-30 -17q-14 0 -24 7t-17.5 17.5t-11.5 20.5t-4 16zM360 225l35 35q18 18 33.5 36.5t25 34t9.5 25.5v50q-12 -16 -30.5 -37t-34 -42.5t-27 -39t-11.5 -25.5v-37z" />
<glyph unicode="&#xe2d;" horiz-adv-x="729" d="M43 520q0 16 13.5 40t33 48.5t41.5 45.5l41 38q37 31 67.5 52.5t60.5 36t62.5 20.5t75.5 6q37 0 62.5 -6t43 -24.5t29 -50.5t21.5 -83q4 -14 22.5 -30.5t18.5 -32.5q0 -18 -17.5 -50t-29.5 -79q-14 -49 -29.5 -109.5t-44.5 -114.5q-12 -23 -38 -60l-52 -74 q-27 -36 -52.5 -62.5t-37.5 -26.5q-31 0 -51.5 26.5t-30.5 60.5t-14.5 61.5t-4.5 31.5q0 37 16.5 91.5t44.5 112.5t64.5 111.5t77.5 90.5q2 2 25.5 12t36.5 39q-8 8 -10.5 18.5t-22.5 10.5q-8 0 -32.5 -6.5t-53.5 -16.5l-58 -21q-30 -11 -49 -24q-23 -12 -48 -36l-50 -48 q-25 -25 -44 -42t-30 -17q-14 0 -24 7t-17.5 17.5t-11.5 20.5t-4 16zM360 225l35 35q18 18 33.5 36.5t25 34t9.5 25.5v50q-12 -16 -30.5 -37t-34 -42.5t-27 -39t-11.5 -25.5v-37z" />
<glyph unicode="&#xce;" horiz-adv-x="743" d="M133 184q0 59 18.5 123t42 118t42 91t18.5 45t-10 27l-23 40l-22 41q-10 19 -11 29q0 39 27 81t63.5 76t77.5 55.5t72 21.5q51 0 75.5 -17.5t38 -37t23.5 -37t31 -17.5q10 0 42 18l68 37l67 36q32 17 42 18h90q0 -10 6.5 -18.5t6.5 -30.5q0 -16 -23 -39t-55.5 -46.5 t-71.5 -46.5l-72 -43l-56 -34q-24 -14 -24 -21q-14 -72 -33.5 -153.5l-43.5 -173.5q-6 -27 -34 -67t-42 -77q-35 -82 -85 -129t-104 -47q-39 0 -65.5 20.5t-44 48t-24.5 58.5t-7 51zM242 207q0 -45 14 -60h37q82 57 124 130t42 120q-25 16 -52.5 42t-52.5 34q-4 -10 -22 -46 l-39 -79q-20 -43 -35.5 -83t-15.5 -58zM330 705h69q20 -2 51 19l54 38q-8 10 -12.5 20.5t-12.5 18.5h-45q-10 0 -25.5 -10.5t-31 -25.5t-28.5 -31.5t-19 -28.5zM461 535q0 -20 5 -25l17 -14q12 16 20.5 39.5t8.5 58.5q-16 -6 -33.5 -22.5t-17.5 -36.5z" />
<glyph unicode="&#xe2e;" horiz-adv-x="743" d="M133 184q0 59 18.5 123t42 118t42 91t18.5 45t-10 27l-23 40l-22 41q-10 19 -11 29q0 39 27 81t63.5 76t77.5 55.5t72 21.5q51 0 75.5 -17.5t38 -37t23.5 -37t31 -17.5q10 0 42 18l68 37l67 36q32 17 42 18h90q0 -10 6.5 -18.5t6.5 -30.5q0 -16 -23 -39t-55.5 -46.5 t-71.5 -46.5l-72 -43l-56 -34q-24 -14 -24 -21q-14 -72 -33.5 -153.5l-43.5 -173.5q-6 -27 -34 -67t-42 -77q-35 -82 -85 -129t-104 -47q-39 0 -65.5 20.5t-44 48t-24.5 58.5t-7 51zM242 207q0 -45 14 -60h37q82 57 124 130t42 120q-25 16 -52.5 42t-52.5 34q-4 -10 -22 -46 l-39 -79q-20 -43 -35.5 -83t-15.5 -58zM330 705h69q20 -2 51 19l54 38q-8 10 -12.5 20.5t-12.5 18.5h-45q-10 0 -25.5 -10.5t-31 -25.5t-28.5 -31.5t-19 -28.5zM461 535q0 -20 5 -25l17 -14q12 16 20.5 39.5t8.5 58.5q-16 -6 -33.5 -22.5t-17.5 -36.5z" />
<glyph unicode="&#xcf;" horiz-adv-x="677" d="M78 569q0 8 7 47t20.5 83t32 79t40.5 35q47 0 63.5 -40t16.5 -89t-8 -91t-10 -48q8 -6 10 -10.5t20 -4.5q35 0 72 29t72 63l63 62q29 29 45 29q18 0 31 -8q6 -4 10 -7q0 -20 10.5 -57t10.5 -55q0 -10 -21 -77l-50 -157l-63 -188l-61 -170h-35q-8 8 -15 17t-7 28 q0 16 14 41.5t23 50.5q23 90 42 180t42 183l-17 16q-37 -18 -63.5 -36.5t-50 -33t-47 -23.5t-56.5 -9t-58.5 19t-44 46t-28.5 54.5t-10 41.5zM202 543.5q-1 -15.5 13 -23.5q8 16 5 23.5t-3 15.5q-14 0 -15 -15.5z" />
<glyph unicode="&#xe2f;" horiz-adv-x="677" d="M78 569q0 8 7 47t20.5 83t32 79t40.5 35q47 0 63.5 -40t16.5 -89t-8 -91t-10 -48q8 -6 10 -10.5t20 -4.5q35 0 72 29t72 63l63 62q29 29 45 29q18 0 31 -8q6 -4 10 -7q0 -20 10.5 -57t10.5 -55q0 -10 -21 -77l-50 -157l-63 -188l-61 -170h-35q-8 8 -15 17t-7 28 q0 16 14 41.5t23 50.5q23 90 42 180t42 183l-17 16q-37 -18 -63.5 -36.5t-50 -33t-47 -23.5t-56.5 -9t-58.5 19t-44 46t-28.5 54.5t-10 41.5zM202 543.5q-1 -15.5 13 -23.5q8 16 5 23.5t-3 15.5q-14 0 -15 -15.5z" />
<glyph unicode="&#xd0;" horiz-adv-x="671" d="M88 80q0 31 45 67.5t102.5 67.5t109.5 51.5t67 20.5q33 0 48 -15.5t15 -35.5q0 -25 -7 -38.5t-11 -23.5q-25 -23 -68 -51l-86 -55q-43 -27 -79 -45.5t-46 -18.5t-25.5 8t-29.5 19.5t-24.5 25t-10.5 23.5zM139 508q0 29 27 59.5t67.5 60t89 57.5t91.5 48.5t74.5 32.5 t37.5 12q25 0 48.5 -11t41.5 -30v-88q-72 -23 -155 -74l-156 -98q-6 -4 -14 -14t-17.5 -20.5t-19.5 -18.5t-25 -8q-12 0 -27.5 10t-28.5 23.5t-23.5 30t-10.5 28.5z" />
<glyph unicode="&#xe30;" horiz-adv-x="671" d="M88 80q0 31 45 67.5t102.5 67.5t109.5 51.5t67 20.5q33 0 48 -15.5t15 -35.5q0 -25 -7 -38.5t-11 -23.5q-25 -23 -68 -51l-86 -55q-43 -27 -79 -45.5t-46 -18.5t-25.5 8t-29.5 19.5t-24.5 25t-10.5 23.5zM139 508q0 29 27 59.5t67.5 60t89 57.5t91.5 48.5t74.5 32.5 t37.5 12q25 0 48.5 -11t41.5 -30v-88q-72 -23 -155 -74l-156 -98q-6 -4 -14 -14t-17.5 -20.5t-19.5 -18.5t-25 -8q-12 0 -27.5 10t-28.5 23.5t-23.5 30t-10.5 28.5z" />
<glyph unicode="&#xd1;" horiz-adv-x="30" d="M-264 1143q0 12 1 31.5t9 39t24.5 33t45.5 13.5q45 0 69.5 -26t40 -56.5l29.5 -56t39 -25.5q18 0 35.5 7t38.5 7q16 0 49 11l55 20q14 4 33.5 4t41 2t42 6t39.5 14q16 10 30.5 31t34.5 21t34.5 -19.5t23.5 -40.5q0 -10 -11.5 -30.5t-13.5 -28.5q-39 -20 -96.5 -47 t-113.5 -50.5t-100 -40t-55 -16.5h-104q-35 0 -73 10.5t-71.5 34t-55 60.5t-21.5 92z" />
<glyph unicode="&#xe31;" horiz-adv-x="30" d="M-264 1143q0 12 1 31.5t9 39t24.5 33t45.5 13.5q45 0 69.5 -26t40 -56.5l29.5 -56t39 -25.5q18 0 35.5 7t38.5 7q16 0 49 11l55 20q14 4 33.5 4t41 2t42 6t39.5 14q16 10 30.5 31t34.5 21t34.5 -19.5t23.5 -40.5q0 -10 -11.5 -30.5t-13.5 -28.5q-39 -20 -96.5 -47 t-113.5 -50.5t-100 -40t-55 -16.5h-104q-35 0 -73 10.5t-71.5 34t-55 60.5t-21.5 92z" />
<glyph unicode="&#xd2;" horiz-adv-x="638" d="M53 514q0 14 19.5 43t50.5 62.5t68.5 68.5t74.5 62.5t71 46t54 18.5q35 0 54.5 -20.5t27.5 -47t9 -53t1 -37.5q0 -88 -39 -178l-77 -178q-8 -20 -23.5 -52t-26 -65.5t-10.5 -64.5t21 -49q2 -4 2 -11q0 -12 -2 -16q-12 -16 -19.5 -31.5t-34.5 -15.5q-14 0 -28.5 8 t-26.5 20.5t-19 25.5t-7 22q0 18 7 43l11 39q20 92 62 186t77 190l17.5 47.5t-5.5 55.5q-45 -25 -90 -55l-82 -58q-8 -4 -11 -17.5t-11 -19.5q-14 -2 -29.5 -7t-36.5 -5q-18 0 -33.5 12.5t-15.5 30.5z" />
<glyph unicode="&#xe32;" horiz-adv-x="638" d="M53 514q0 14 19.5 43t50.5 62.5t68.5 68.5t74.5 62.5t71 46t54 18.5q35 0 54.5 -20.5t27.5 -47t9 -53t1 -37.5q0 -88 -39 -178l-77 -178q-8 -20 -23.5 -52t-26 -65.5t-10.5 -64.5t21 -49q2 -4 2 -11q0 -12 -2 -16q-12 -16 -19.5 -31.5t-34.5 -15.5q-14 0 -28.5 8 t-26.5 20.5t-19 25.5t-7 22q0 18 7 43l11 39q20 92 62 186t77 190l17.5 47.5t-5.5 55.5q-45 -25 -90 -55l-82 -58q-8 -4 -11 -17.5t-11 -19.5q-14 -2 -29.5 -7t-36.5 -5q-18 0 -33.5 12.5t-15.5 30.5z" />
<glyph unicode="&#xd3;" horiz-adv-x="729" d="M-260 1133q0 47 31 74l86 75q10 10 29.5 12t39.5 2q53 0 83 -32.5t30 -77.5q0 -16 -15.5 -46t-39 -59.5t-51 -52t-54.5 -22.5q-18 0 -41.5 11t-45 29.5t-37 41t-15.5 45.5zM-147 1133q0 -18 4 -20.5t12 -10.5q31 23 54.5 53.5t31.5 52.5h-37q-23 -14 -44 -36.5t-21 -38.5 zM182 590q0 41 30 78t70 65.5t80.5 46t61.5 17.5q41 0 68.5 -22.5t45 -52.5t24.5 -59.5t7 -46.5q0 -66 -14 -138t-34.5 -146t-43 -145.5t-39.5 -133.5q-6 -10 -25 -29l-30 -30q-10 4 -23.5 13t-25.5 21.5t-20.5 25t-8.5 24.5t20 62l43 108l44 107q20 50 20 63v174 q-10 0 -13 5t-30 5q-12 0 -30 -13l-35 -29q-18 -15 -36 -27.5t-30 -12.5q-25 0 -50.5 22.5t-25.5 47.5z" />
<glyph unicode="&#xe33;" horiz-adv-x="729" d="M-260 1133q0 47 31 74l86 75q10 10 29.5 12t39.5 2q53 0 83 -32.5t30 -77.5q0 -16 -15.5 -46t-39 -59.5t-51 -52t-54.5 -22.5q-18 0 -41.5 11t-45 29.5t-37 41t-15.5 45.5zM-147 1133q0 -18 4 -20.5t12 -10.5q31 23 54.5 53.5t31.5 52.5h-37q-23 -14 -44 -36.5t-21 -38.5 zM182 590q0 41 30 78t70 65.5t80.5 46t61.5 17.5q41 0 68.5 -22.5t45 -52.5t24.5 -59.5t7 -46.5q0 -66 -14 -138t-34.5 -146t-43 -145.5t-39.5 -133.5q-6 -10 -25 -29l-30 -30q-10 4 -23.5 13t-25.5 21.5t-20.5 25t-8.5 24.5t20 62l43 108l44 107q20 50 20 63v174 q-10 0 -13 5t-30 5q-12 0 -30 -13l-35 -29q-18 -15 -36 -27.5t-30 -12.5q-25 0 -50.5 22.5t-25.5 47.5z" />
<glyph unicode="&#xd4;" d="M-643 1047q78 29 187.5 49t207.5 20q8 0 32 -3l54 -7q31 -4 61.5 -12.5t51.5 -16.5q16 -6 35.5 -20.5t33.5 -20.5q4 -10 15.5 -26.5t11.5 -24.5q-8 -8 -9 -22.5t-24 -14.5q-18 0 -51 11.5t-55 11.5q-31 0 -42 -8.5t-18.5 -19.5t-19.5 -19.5t-47 -8.5q-10 0 -40 5.5 l-62 11.5l-60 11q-29 5 -39 5t-32.5 -3t-46 -8t-45 -8t-31.5 -3q-29 0 -40.5 14t-14.5 33.5t-4 40.5t-9 33z" />
<glyph unicode="&#xe34;" d="M-643 1047q78 29 187.5 49t207.5 20q8 0 32 -3l54 -7q31 -4 61.5 -12.5t51.5 -16.5q16 -6 35.5 -20.5t33.5 -20.5q4 -10 15.5 -26.5t11.5 -24.5q-8 -8 -9 -22.5t-24 -14.5q-18 0 -51 11.5t-55 11.5q-31 0 -42 -8.5t-18.5 -19.5t-19.5 -19.5t-47 -8.5q-10 0 -40 5.5 l-62 11.5l-60 11q-29 5 -39 5t-32.5 -3t-46 -8t-45 -8t-31.5 -3q-29 0 -40.5 14t-14.5 33.5t-4 40.5t-9 33z" />
<glyph unicode="&#xd5;" horiz-adv-x="61" d="M-573 1104q0 37 28.5 63.5t67.5 42t80 22.5t63 7q27 0 51.5 -3t50 -12.5t53 -29.5t60.5 -53q29 20 41 61q2 6 14.5 40t31 72t42 67.5t49.5 29.5q35 0 38 -18.5t3 -30.5q0 -29 -22.5 -52.5t-46.5 -68.5q-14 -25 -22.5 -59.5t-18.5 -71.5t-25.5 -73t-42.5 -60 q-45 27 -66 54l-40 50q-18 23 -43 37.5t-76 14.5q-27 0 -58.5 -1.5t-60.5 -29.5v-21q27 -4 52.5 -2t51 3t53 -6t58.5 -29q-6 -10 -20.5 -23.5t-30.5 -13.5q-10 0 -26.5 -3l-36 -6.5t-37 -5.5t-27.5 -2q-31 0 -64.5 4t-61.5 16.5t-45 34t-17 56.5z" />
<glyph unicode="&#xe35;" horiz-adv-x="61" d="M-573 1104q0 37 28.5 63.5t67.5 42t80 22.5t63 7q27 0 51.5 -3t50 -12.5t53 -29.5t60.5 -53q29 20 41 61q2 6 14.5 40t31 72t42 67.5t49.5 29.5q35 0 38 -18.5t3 -30.5q0 -29 -22.5 -52.5t-46.5 -68.5q-14 -25 -22.5 -59.5t-18.5 -71.5t-25.5 -73t-42.5 -60 q-45 27 -66 54l-40 50q-18 23 -43 37.5t-76 14.5q-27 0 -58.5 -1.5t-60.5 -29.5v-21q27 -4 52.5 -2t51 3t53 -6t58.5 -29q-6 -10 -20.5 -23.5t-30.5 -13.5q-10 0 -26.5 -3l-36 -6.5t-37 -5.5t-27.5 -2q-31 0 -64.5 4t-61.5 16.5t-45 34t-17 56.5z" />
<glyph unicode="&#xd6;" d="M-500 1149q0 18 14.5 34.5t36.5 16.5q18 0 43 -17.5t50 -25.5q18 -6 56 -10t60 -4q45 0 65.5 15.5t31 38t15.5 48t18.5 48t41 38t82.5 15.5q74 0 101.5 -36t27.5 -93q0 -53 -28.5 -91.5t-70.5 -62t-90 -35.5t-87 -14q-16 0 -33.5 -9.5t-40.5 -9.5q-20 0 -68.5 9.5 t-98.5 29t-88 48t-38 67.5z" />
<glyph unicode="&#xe36;" d="M-500 1149q0 18 14.5 34.5t36.5 16.5q18 0 43 -17.5t50 -25.5q18 -6 56 -10t60 -4q45 0 65.5 15.5t31 38t15.5 48t18.5 48t41 38t82.5 15.5q74 0 101.5 -36t27.5 -93q0 -53 -28.5 -91.5t-70.5 -62t-90 -35.5t-87 -14q-16 0 -33.5 -9.5t-40.5 -9.5q-20 0 -68.5 9.5 t-98.5 29t-88 48t-38 67.5z" />
<glyph unicode="&#xd7;" d="M-528 1038q0 18 8 29.5t20.5 18t25.5 7.5t23 1q8 0 38 -5l63 -12l61 -11q29 -5 37 -5q41 0 66.5 25.5t41 60.5t23.5 68.5t19 50.5q4 6 15 12t26 6q16 0 26 -24.5t31 -42.5q12 6 23.5 25.5t25.5 38.5t32.5 31.5t43.5 6.5q0 -8 4 -13.5t4 -21.5q0 -6 -17 -41l-43 -86 l-58 -113q-32 -61 -58 -120q-4 -4 -8 -16.5t-23 -12.5q-25 0 -34 15.5t-12 33t-4 32.5t-11 15q-16 0 -45 -17.5t-45 -17.5q-8 0 -36 2.5t-66 6.5t-78 9t-72 11q-14 2 -30.5 22.5t-16.5 30.5z" />
<glyph unicode="&#xe37;" d="M-528 1038q0 18 8 29.5t20.5 18t25.5 7.5t23 1q8 0 38 -5l63 -12l61 -11q29 -5 37 -5q41 0 66.5 25.5t41 60.5t23.5 68.5t19 50.5q4 6 15 12t26 6q16 0 26 -24.5t31 -42.5q12 6 23.5 25.5t25.5 38.5t32.5 31.5t43.5 6.5q0 -8 4 -13.5t4 -21.5q0 -6 -17 -41l-43 -86 l-58 -113q-32 -61 -58 -120q-4 -4 -8 -16.5t-23 -12.5q-25 0 -34 15.5t-12 33t-4 32.5t-11 15q-16 0 -45 -17.5t-45 -17.5q-8 0 -36 2.5t-66 6.5t-78 9t-72 11q-14 2 -30.5 22.5t-16.5 30.5z" />
<glyph unicode="&#xd8;" d="M-506 -256q-6 23 3 50.5t30.5 52t53.5 42t69 17.5q33 0 53.5 -22.5t31.5 -51.5t14 -56.5t3 -37.5q0 -33 -12 -78t-28 -90l-30 -86l-24 -66q-10 -35 -15 -67.5t-22 -63.5h-37q-16 4 -26.5 18.5t-10.5 28.5q0 8 11 50l24 94l28.5 112.5t22.5 104.5q-10 12 -28.5 14t-39 4 t-40 7.5t-31.5 23.5z" />
<glyph unicode="&#xe38;" d="M-506 -256q-6 23 3 50.5t30.5 52t53.5 42t69 17.5q33 0 53.5 -22.5t31.5 -51.5t14 -56.5t3 -37.5q0 -33 -12 -78t-28 -90l-30 -86l-24 -66q-10 -35 -15 -67.5t-22 -63.5h-37q-16 4 -26.5 18.5t-10.5 28.5q0 8 11 50l24 94l28.5 112.5t22.5 104.5q-10 12 -28.5 14t-39 4 t-40 7.5t-31.5 23.5z" />
<glyph unicode="&#xd9;" d="M-705 -272q0 31 14.5 53t35 37.5t41 23.5t30.5 8q29 0 47.5 -25.5t29.5 -58t15.5 -61.5t4.5 -37q4 -6 4 -16t6 -19q25 39 39 85l26.5 90.5t26.5 80t39 56.5q10 -4 18 -16l17 -23l18 -33q0 -14 -20.5 -33.5t-24.5 -42.5q-8 -41 -14 -91t-23 -97q-10 -31 -30.5 -69 t-34.5 -72q-4 -10 -10.5 -34t-17.5 -48.5t-26.5 -43t-37.5 -18.5q-41 0 -52.5 30t-9.5 67.5t11.5 71.5t9.5 44v53q-12 6 -33 7.5t-41 11.5q-16 8 -26.5 25.5t-17.5 36t-10.5 35t-3.5 22.5zM-610 -301v-35q4 -4 8 -7t10 -7t14 -6q4 10 8.5 36.5t4.5 36.5q-16 0 -27.5 -6 t-17.5 -12z" />
<glyph unicode="&#xe39;" d="M-705 -272q0 31 14.5 53t35 37.5t41 23.5t30.5 8q29 0 47.5 -25.5t29.5 -58t15.5 -61.5t4.5 -37q4 -6 4 -16t6 -19q25 39 39 85l26.5 90.5t26.5 80t39 56.5q10 -4 18 -16l17 -23l18 -33q0 -14 -20.5 -33.5t-24.5 -42.5q-8 -41 -14 -91t-23 -97q-10 -31 -30.5 -69 t-34.5 -72q-4 -10 -10.5 -34t-17.5 -48.5t-26.5 -43t-37.5 -18.5q-41 0 -52.5 30t-9.5 67.5t11.5 71.5t9.5 44v53q-12 6 -33 7.5t-41 11.5q-16 8 -26.5 25.5t-17.5 36t-10.5 35t-3.5 22.5zM-610 -301v-35q4 -4 8 -7t10 -7t14 -6q4 10 8.5 36.5t4.5 36.5q-16 0 -27.5 -6 t-17.5 -12z" />
<glyph unicode="&#xda;" d="M-242 -186q0 23 7.5 32t7.5 27q33 -2 74.5 -5t78.5 -46q-20 -51 -34.5 -84t-55.5 -33q-18 0 -33.5 11.5t-24.5 28.5t-14.5 36t-5.5 33z" />
<glyph unicode="&#xe3a;" d="M-242 -186q0 23 7.5 32t7.5 27q33 -2 74.5 -5t78.5 -46q-20 -51 -34.5 -84t-55.5 -33q-18 0 -33.5 11.5t-24.5 28.5t-14.5 36t-5.5 33z" />
<glyph unicode="&#xdb;" />
<glyph unicode="&#xe3b;" />
<glyph unicode="&#xdc;" />
<glyph unicode="&#xe3c;" />
<glyph unicode="&#xdd;" />
<glyph unicode="&#xe3d;" />
<glyph unicode="&#xdf;" horiz-adv-x="761" d="M117 150q0 8 3 32.5t9 59t12 76.5l13 85q8 63 25.5 135t15.5 142q4 8 9 21.5t9 19.5q14 2 37.5 2t48.5 2t46.5 10t33.5 29q20 35 31.5 80t33.5 84h37q10 -43 7 -80t-15 -76q16 -10 30.5 -12t26.5 -8q18 -10 31.5 -28.5t13.5 -39.5q0 -10 -8 -31l-17 -43l-18 -44 q-8 -22 -8 -29q0 -16 16.5 -30.5t26.5 -31.5q-2 -6 3 -15t5 -30q0 -57 -30.5 -97t-74.5 -77l-91 -77q-47 -40 -78 -95q-6 -12 -8 -27.5t0 -32t4 -30.5t2 -25q0 -16 -8 -34.5l-15 -34.5q-16 6 -39.5 22.5t-35.5 30.5q4 16 10 35.5t4 44.5q-10 4 -26.5 14t-33 24.5t-27.5 34 t-11 44.5zM217 256q0 -16 8 -30.5t8 -20.5q6 23 16.5 55.5t18.5 54.5q-16 -6 -33.5 -21t-17.5 -38zM270 492q4 0 9 -3l8 -4q6 -2 10 -4q8 23 14 50.5t6 50.5q-16 -16 -27.5 -41.5t-19.5 -48.5zM342 299q16 8 34.5 23.5t35.5 31.5q-23 2 -36.5 -4t-19.5 -16t-9 -20.5 t-5 -14.5zM415 562.5q-5 -23.5 3 -32.5q8 16 13 36t-3 36q-8 -16 -13 -39.5z" />
<glyph unicode="&#xe3f;" horiz-adv-x="761" d="M117 150q0 8 3 32.5t9 59t12 76.5l13 85q8 63 25.5 135t15.5 142q4 8 9 21.5t9 19.5q14 2 37.5 2t48.5 2t46.5 10t33.5 29q20 35 31.5 80t33.5 84h37q10 -43 7 -80t-15 -76q16 -10 30.5 -12t26.5 -8q18 -10 31.5 -28.5t13.5 -39.5q0 -10 -8 -31l-17 -43l-18 -44 q-8 -22 -8 -29q0 -16 16.5 -30.5t26.5 -31.5q-2 -6 3 -15t5 -30q0 -57 -30.5 -97t-74.5 -77l-91 -77q-47 -40 -78 -95q-6 -12 -8 -27.5t0 -32t4 -30.5t2 -25q0 -16 -8 -34.5l-15 -34.5q-16 6 -39.5 22.5t-35.5 30.5q4 16 10 35.5t4 44.5q-10 4 -26.5 14t-33 24.5t-27.5 34 t-11 44.5zM217 256q0 -16 8 -30.5t8 -20.5q6 23 16.5 55.5t18.5 54.5q-16 -6 -33.5 -21t-17.5 -38zM270 492q4 0 9 -3l8 -4q6 -2 10 -4q8 23 14 50.5t6 50.5q-16 -16 -27.5 -41.5t-19.5 -48.5zM342 299q16 8 34.5 23.5t35.5 31.5q-23 2 -36.5 -4t-19.5 -16t-9 -20.5 t-5 -14.5zM415 562.5q-5 -23.5 3 -32.5q8 16 13 36t-3 36q-8 -16 -13 -39.5z" />
<glyph unicode="&#xe0;" horiz-adv-x="475" d="M76 203q0 10 9 59t26 117l35 146q19 79 42 151q8 23 33 64.5l45 72.5q18 -20 45 -58t27 -81q0 -8 -9.5 -38t-24.5 -71l-32 -87l-31 -87q-15 -41 -24.5 -70.5t-9.5 -37.5v-127h69q20 0 48 23.5t59 41.5h43q10 -10 13 -15t3 -30q0 -29 -24.5 -60.5t-57 -57t-66.5 -42 t-54 -16.5q-39 0 -70 24.5t-51.5 57.5t-31.5 67t-11 54z" />
<glyph unicode="&#xe40;" horiz-adv-x="475" d="M76 203q0 10 9 59t26 117l35 146q19 79 42 151q8 23 33 64.5l45 72.5q18 -20 45 -58t27 -81q0 -8 -9.5 -38t-24.5 -71l-32 -87l-31 -87q-15 -41 -24.5 -70.5t-9.5 -37.5v-127h69q20 0 48 23.5t59 41.5h43q10 -10 13 -15t3 -30q0 -29 -24.5 -60.5t-57 -57t-66.5 -42 t-54 -16.5q-39 0 -70 24.5t-51.5 57.5t-31.5 67t-11 54z" />
<glyph unicode="&#xe1;" horiz-adv-x="708" d="M125 154q0 10 15 84l36 174l43 209q23 109 35 192h65q10 -27 18.5 -56.5t8.5 -51.5q0 -8 -8 -43t-22 -84l-28 -105l-29 -104q-13 -49 -21.5 -85t-8.5 -42v-56q-2 -4 -2 -6q0 -4 19 -4q8 0 27.5 10.5t42 27.5t45 37.5t38.5 39.5q16 16 16.5 47t6.5 55l41 184q20 93 47 189 q18 4 35.5 0t33 -12.5t24.5 -20.5t9 -22t-16 -67l-36 -121l-37 -121q-17 -56 -17 -66v-103q10 0 9 -5t22 -5q16 0 33.5 12.5t35.5 22.5q16 -10 28.5 -25.5t12.5 -37.5q0 -16 -18.5 -38t-43 -40.5t-48 -30.5t-35.5 -12q-10 0 -24.5 10t-28 23.5t-27.5 23.5t-25 10 q-14 0 -32 -21l-40 -47q-22 -26 -47.5 -47.5t-54.5 -21.5q-31 0 -50 22.5t-30.5 50t-14.5 51.5t-3 26z" />
<glyph unicode="&#xe41;" horiz-adv-x="708" d="M125 154q0 10 15 84l36 174l43 209q23 109 35 192h65q10 -27 18.5 -56.5t8.5 -51.5q0 -8 -8 -43t-22 -84l-28 -105l-29 -104q-13 -49 -21.5 -85t-8.5 -42v-56q-2 -4 -2 -6q0 -4 19 -4q8 0 27.5 10.5t42 27.5t45 37.5t38.5 39.5q16 16 16.5 47t6.5 55l41 184q20 93 47 189 q18 4 35.5 0t33 -12.5t24.5 -20.5t9 -22t-16 -67l-36 -121l-37 -121q-17 -56 -17 -66v-103q10 0 9 -5t22 -5q16 0 33.5 12.5t35.5 22.5q16 -10 28.5 -25.5t12.5 -37.5q0 -16 -18.5 -38t-43 -40.5t-48 -30.5t-35.5 -12q-10 0 -24.5 10t-28 23.5t-27.5 23.5t-25 10 q-14 0 -32 -21l-40 -47q-22 -26 -47.5 -47.5t-54.5 -21.5q-31 0 -50 22.5t-30.5 50t-14.5 51.5t-3 26z" />
<glyph unicode="&#xe2;" horiz-adv-x="563" d="M53 84q0 8 5 33.5t12.5 57.5t16.5 64.5t19 57.5l102 241q42 97 70.5 173.5t48 147.5t33.5 163q-12 8 -30.5 17.5t-34.5 20.5t-28.5 26.5t-12.5 37.5q0 18 5 29.5t5 26.5q70 14 138 46l138 64q69 33 140.5 58.5t144.5 25.5h29q10 0 18.5 -5t14.5 -18l18 -40 q-33 -20 -72.5 -35.5t-72.5 -30.5q-90 -35 -172 -80l-168 -96q0 -25 -2 -57.5t-7 -68.5t-11.5 -72.5t-14.5 -67.5q-23 -86 -54.5 -188.5t-64.5 -196.5l-15 -44l-21 -55q-11 -29 -21 -58l-19 -54q-4 -6 -9 -41t-13 -73t-21.5 -68.5t-31.5 -30.5t-30.5 12t-20 27.5t-9.5 31 t-2 19.5z" />
<glyph unicode="&#xe42;" horiz-adv-x="563" d="M53 84q0 8 5 33.5t12.5 57.5t16.5 64.5t19 57.5l102 241q42 97 70.5 173.5t48 147.5t33.5 163q-12 8 -30.5 17.5t-34.5 20.5t-28.5 26.5t-12.5 37.5q0 18 5 29.5t5 26.5q70 14 138 46l138 64q69 33 140.5 58.5t144.5 25.5h29q10 0 18.5 -5t14.5 -18l18 -40 q-33 -20 -72.5 -35.5t-72.5 -30.5q-90 -35 -172 -80l-168 -96q0 -25 -2 -57.5t-7 -68.5t-11.5 -72.5t-14.5 -67.5q-23 -86 -54.5 -188.5t-64.5 -196.5l-15 -44l-21 -55q-11 -29 -21 -58l-19 -54q-4 -6 -9 -41t-13 -73t-21.5 -68.5t-31.5 -30.5t-30.5 12t-20 27.5t-9.5 31 t-2 19.5z" />
<glyph unicode="&#xe3;" horiz-adv-x="561" d="M66 985q0 16 12 40t16 46q2 33 42 82t94.5 96t110.5 81t91 34q20 0 48 -14.5t52 -30.5q4 -49 1 -98.5t-9 -96.5q-2 -23 -8 -54.5t-12 -53.5l-61 -196l-70 -215l-60 -178q-25 -75 -24 -85q0 -31 26 -31q10 0 18.5 -8t8.5 -18q0 -20 -19.5 -67.5t-47 -94.5t-58.5 -84 t-51 -37t-31.5 17.5t-17.5 39t-7 40t-1 20.5q0 23 17 81t44 133l57 155l59 151l46 118q18 48 20 58q-16 20 -34.5 25.5t-38 5.5t-40 -3t-42.5 3q-10 2 -33 16.5t-44.5 35t-37.5 44t-16 43.5zM182 1008q0 -20 14.5 -31.5t34 -18t38 -8.5t26.5 -2q29 0 50.5 3t37.5 15.5 t28.5 37t22.5 65.5q8 33 21.5 66.5t13.5 50.5v69q-35 -4 -84 -31.5t-94 -65.5t-77 -78.5t-32 -71.5z" />
<glyph unicode="&#xe43;" horiz-adv-x="561" d="M66 985q0 16 12 40t16 46q2 33 42 82t94.5 96t110.5 81t91 34q20 0 48 -14.5t52 -30.5q4 -49 1 -98.5t-9 -96.5q-2 -23 -8 -54.5t-12 -53.5l-61 -196l-70 -215l-60 -178q-25 -75 -24 -85q0 -31 26 -31q10 0 18.5 -8t8.5 -18q0 -20 -19.5 -67.5t-47 -94.5t-58.5 -84 t-51 -37t-31.5 17.5t-17.5 39t-7 40t-1 20.5q0 23 17 81t44 133l57 155l59 151l46 118q18 48 20 58q-16 20 -34.5 25.5t-38 5.5t-40 -3t-42.5 3q-10 2 -33 16.5t-44.5 35t-37.5 44t-16 43.5zM182 1008q0 -20 14.5 -31.5t34 -18t38 -8.5t26.5 -2q29 0 50.5 3t37.5 15.5 t28.5 37t22.5 65.5q8 33 21.5 66.5t13.5 50.5v69q-35 -4 -84 -31.5t-94 -65.5t-77 -78.5t-32 -71.5z" />
<glyph unicode="&#xe4;" horiz-adv-x="561" d="M45 1008q0 12 8 52l19 92l21 109q11 56 16 103h57q8 -29 20 -62l23 -63q2 -8 -2 -21.5t-10.5 -27.5t-11.5 -28.5t-5 -22.5v-84q8 0 5 -5.5t20 -5.5q14 0 44 20.5t65 52.5l75 70l72 70l55 56l27 26h82q0 -18 12 -50t12 -54q0 -8 -29 -85l-76 -188l-99 -242l-98 -242 l-76 -188q-30 -77 -29 -85q0 -23 -2 -26t8 -11q18 20 44.5 40.5t49.5 20.5t36 -13t23 -13q-6 -16 -21 -51t-39 -70t-55.5 -61.5t-74.5 -26.5q-33 0 -51.5 15.5t-27.5 37t-11 45t-2 39.5q0 43 16.5 95.5t38 104.5t44 99t32.5 80q18 55 47 129l55 142q27 69 45.5 121t18.5 65 v43q-18 8 -50 -12.5t-66 -48.5l-67 -52q-33 -25 -53 -25q-25 0 -49.5 14.5t-42.5 36t-30.5 44.5t-12.5 41z" />
<glyph unicode="&#xe44;" horiz-adv-x="561" d="M45 1008q0 12 8 52l19 92l21 109q11 56 16 103h57q8 -29 20 -62l23 -63q2 -8 -2 -21.5t-10.5 -27.5t-11.5 -28.5t-5 -22.5v-84q8 0 5 -5.5t20 -5.5q14 0 44 20.5t65 52.5l75 70l72 70l55 56l27 26h82q0 -18 12 -50t12 -54q0 -8 -29 -85l-76 -188l-99 -242l-98 -242 l-76 -188q-30 -77 -29 -85q0 -23 -2 -26t8 -11q18 20 44.5 40.5t49.5 20.5t36 -13t23 -13q-6 -16 -21 -51t-39 -70t-55.5 -61.5t-74.5 -26.5q-33 0 -51.5 15.5t-27.5 37t-11 45t-2 39.5q0 43 16.5 95.5t38 104.5t44 99t32.5 80q18 55 47 129l55 142q27 69 45.5 121t18.5 65 v43q-18 8 -50 -12.5t-66 -48.5l-67 -52q-33 -25 -53 -25q-25 0 -49.5 14.5t-42.5 36t-30.5 44.5t-12.5 41z" />
<glyph unicode="&#xe5;" horiz-adv-x="591" d="M59 557q0 45 37 89t88.5 80t107.5 58.5t93 22.5q31 0 48.5 -25.5t24.5 -59.5t8 -64.5t1 -43.5q0 -51 -16.5 -127.5t-40 -166t-50 -180.5t-47 -172t-31 -141t-1.5 -87q-10 0 -11.5 -7t-23.5 -7q-18 0 -29.5 11t-17.5 26.5t-8.5 29.5t-2.5 21q0 6 13.5 64.5t35.5 141.5 l45 180l45 179q22 84 35 141.5t13 65.5q0 20 -5 30.5t-16 28.5l-122 -75q-60 -38 -105 -99q-10 0 -21.5 6t-17.5 10q-4 14 -16.5 34t-12.5 36z" />
<glyph unicode="&#xe45;" horiz-adv-x="591" d="M59 557q0 45 37 89t88.5 80t107.5 58.5t93 22.5q31 0 48.5 -25.5t24.5 -59.5t8 -64.5t1 -43.5q0 -51 -16.5 -127.5t-40 -166t-50 -180.5t-47 -172t-31 -141t-1.5 -87q-10 0 -11.5 -7t-23.5 -7q-18 0 -29.5 11t-17.5 26.5t-8.5 29.5t-2.5 21q0 6 13.5 64.5t35.5 141.5 l45 180l45 179q22 84 35 141.5t13 65.5q0 20 -5 30.5t-16 28.5l-122 -75q-60 -38 -105 -99q-10 0 -21.5 6t-17.5 10q-4 14 -16.5 34t-12.5 36z" />
<glyph unicode="&#xe6;" horiz-adv-x="872" d="M147 412q0 25 17.5 77t39 105t41 94t23.5 45q16 10 28.5 13.5t41.5 3.5q35 0 55.5 -13.5t32.5 -38t19.5 -59.5l17.5 -78q51 45 109 115l112 129q10 4 13 4h26q25 0 38 -14.5t19 -35t7 -43t1 -36.5q0 -49 -9 -91t-27 -96l-46 -132q-28 -77 -65 -199q-4 -16 -19.5 -41 t-19.5 -41q-10 -45 -25 -92l-30 -93q-14 -46 -21.5 -90.5t0.5 -83.5q0 -4 -4 -8q-6 -6 -24 -6q-10 0 -23.5 8.5t-26 19.5t-20.5 24.5t-8 23.5q0 18 14.5 68.5t32.5 105.5l35 102l20 60q16 41 28.5 104.5t31.5 120.5q12 35 23 63.5t9 81.5q-23 -18 -48 -46l-50 -54l-44 -46 q-19 -19 -28 -19q-20 0 -53 27.5t-49 58.5q-8 12 -6 33.5t4 39.5q-2 10 -2 21.5t-27 21.5q0 -31 1 -68.5t-7 -70.5t-28.5 -54.5t-63.5 -21.5q-23 0 -36 11.5t-19 28t-8.5 33t-2.5 28.5z" />
<glyph unicode="&#xe46;" horiz-adv-x="872" d="M147 412q0 25 17.5 77t39 105t41 94t23.5 45q16 10 28.5 13.5t41.5 3.5q35 0 55.5 -13.5t32.5 -38t19.5 -59.5l17.5 -78q51 45 109 115l112 129q10 4 13 4h26q25 0 38 -14.5t19 -35t7 -43t1 -36.5q0 -49 -9 -91t-27 -96l-46 -132q-28 -77 -65 -199q-4 -16 -19.5 -41 t-19.5 -41q-10 -45 -25 -92l-30 -93q-14 -46 -21.5 -90.5t0.5 -83.5q0 -4 -4 -8q-6 -6 -24 -6q-10 0 -23.5 8.5t-26 19.5t-20.5 24.5t-8 23.5q0 18 14.5 68.5t32.5 105.5l35 102l20 60q16 41 28.5 104.5t31.5 120.5q12 35 23 63.5t9 81.5q-23 -18 -48 -46l-50 -54l-44 -46 q-19 -19 -28 -19q-20 0 -53 27.5t-49 58.5q-8 12 -6 33.5t4 39.5q-2 10 -2 21.5t-27 21.5q0 -31 1 -68.5t-7 -70.5t-28.5 -54.5t-63.5 -21.5q-23 0 -36 11.5t-19 28t-8.5 33t-2.5 28.5z" />
<glyph unicode="&#xe7;" d="M-328 1112q0 25 11.5 56.5t30 64.5t44 61.5t56.5 51.5q14 10 41.5 16t40.5 16q92 66 178 85.5t166 19.5q16 0 34.5 -5t30.5 -10q0 -4 -2 -11t-8 -11l-53 -13q-29 -7 -54 -12q-2 0 -45 -18l-94 -41q-51 -23 -94 -45.5t-43 -30.5q0 -10 19.5 -21.5t25.5 -23.5 q12 -23 20.5 -54.5t8.5 -43.5q0 -6 -7.5 -28.5t-18.5 -52.5t-24.5 -61.5t-25.5 -56.5h-39q-35 27 -42 61.5t-11 59.5q2 0 4 2h-2q-2 0 -3 1t-5 1q-14 0 -33 -16.5t-33 -16.5q-23 0 -36 10.5t-22.5 24.5t-12.5 25.5t-3 15.5zM-211 1184q25 -4 54.5 -17.5t47.5 -23.5q0 4 7 10 l6 6l-26 21q-13 10 -22.5 19t-11.5 18.5t9 17.5q-12 -4 -33 -13.5t-31 -19.5v-18z" />
<glyph unicode="&#xe47;" d="M-328 1112q0 25 11.5 56.5t30 64.5t44 61.5t56.5 51.5q14 10 41.5 16t40.5 16q92 66 178 85.5t166 19.5q16 0 34.5 -5t30.5 -10q0 -4 -2 -11t-8 -11l-53 -13q-29 -7 -54 -12q-2 0 -45 -18l-94 -41q-51 -23 -94 -45.5t-43 -30.5q0 -10 19.5 -21.5t25.5 -23.5 q12 -23 20.5 -54.5t8.5 -43.5q0 -6 -7.5 -28.5t-18.5 -52.5t-24.5 -61.5t-25.5 -56.5h-39q-35 27 -42 61.5t-11 59.5q2 0 4 2h-2q-2 0 -3 1t-5 1q-14 0 -33 -16.5t-33 -16.5q-23 0 -36 10.5t-22.5 24.5t-12.5 25.5t-3 15.5zM-211 1184q25 -4 54.5 -17.5t47.5 -23.5q0 4 7 10 l6 6l-26 21q-13 10 -22.5 19t-11.5 18.5t9 17.5q-12 -4 -33 -13.5t-31 -19.5v-18z" />
<glyph unicode="&#xe8;" horiz-adv-x="28" d="M-43 1415q0 6 8 43t25.5 89t43 110.5t60.5 111.5l82 7q12 -16 17.5 -35t7.5 -35q0 -14 -15.5 -59t-41 -98.5t-58.5 -100.5t-66 -66q-23 -10 -42 3.5t-21 29.5z" />
<glyph unicode="&#xe48;" horiz-adv-x="28" d="M-43 1415q0 6 8 43t25.5 89t43 110.5t60.5 111.5l82 7q12 -16 17.5 -35t7.5 -35q0 -14 -15.5 -59t-41 -98.5t-58.5 -100.5t-66 -66q-23 -10 -42 3.5t-21 29.5z" />
<glyph unicode="&#xe9;" d="M-170 1360q0 12 16.5 33.5t36.5 43.5l38 39q17 17 20 23q4 10 10 28.5t18 37.5q-10 10 -23.5 12t-23.5 8q-8 18 -13 40t-5 40l38.5 29.5t47.5 13.5q20 0 33.5 -13.5t21.5 -29.5t11 -32.5t3 -22.5q0 -14 -14 -50t-27 -61q6 -6 7.5 -5t17.5 1q8 0 36 10l58 23l59 22 q28 10 35 11q10 0 21.5 -9.5t11.5 -19.5q0 -14 -8 -33.5t-18 -25.5l-100 -53l-113 -56l-97 -46q-41 -19 -49 -20q-10 0 -19.5 8.5t-15.5 18.5t-10 20.5t-4 14.5z" />
<glyph unicode="&#xe49;" d="M-170 1360q0 12 16.5 33.5t36.5 43.5l38 39q17 17 20 23q4 10 10 28.5t18 37.5q-10 10 -23.5 12t-23.5 8q-8 18 -13 40t-5 40l38.5 29.5t47.5 13.5q20 0 33.5 -13.5t21.5 -29.5t11 -32.5t3 -22.5q0 -14 -14 -50t-27 -61q6 -6 7.5 -5t17.5 1q8 0 36 10l58 23l59 22 q28 10 35 11q10 0 21.5 -9.5t11.5 -19.5q0 -14 -8 -33.5t-18 -25.5l-100 -53l-113 -56l-97 -46q-41 -19 -49 -20q-10 0 -19.5 8.5t-15.5 18.5t-10 20.5t-4 14.5z" />
<glyph unicode="&#xea;" d="M-150 1438q0 4 2.5 19.5t7.5 33.5l10 38q5 19 11 32q16 33 39 66.5t55 33.5q16 0 24.5 -7t14.5 -18.5t10.5 -24t14.5 -22.5q20 16 46 44t36 28q23 0 29 -17.5t6 -27.5v-98l8 -11q72 68 126 148l113 164q16 0 21.5 -3.5t9.5 -3.5v-24l-60 -91l-75 -112l-24 -39 q-17 -29 -39.5 -60.5t-47 -56t-43.5 -24.5q-8 0 -17 9t-19 16l-9 31q-4 15 0 34q0 4 4.5 11t4.5 16q0 4 -1.5 11t-1.5 15v2q0 2 -4 6q-8 0 -16 -8q-8 -20 -34.5 -49t-39.5 -51q-6 0 -18 9t-17 20q-4 20 0.5 44.5t4.5 53.5q-4 0 -4.5 2t-10.5 2q-8 0 -17 -11.5t-16.5 -24.5 t-12.5 -26.5t-5 -17.5q0 -10 11.5 -28.5t11.5 -28.5q0 -16 -16.5 -43t-31.5 -27q-10 0 -17 9.5t-12 20.5t-8.5 21.5t-3.5 14.5z" />
<glyph unicode="&#xe4a;" d="M-150 1438q0 4 2.5 19.5t7.5 33.5l10 38q5 19 11 32q16 33 39 66.5t55 33.5q16 0 24.5 -7t14.5 -18.5t10.5 -24t14.5 -22.5q20 16 46 44t36 28q23 0 29 -17.5t6 -27.5v-98l8 -11q72 68 126 148l113 164q16 0 21.5 -3.5t9.5 -3.5v-24l-60 -91l-75 -112l-24 -39 q-17 -29 -39.5 -60.5t-47 -56t-43.5 -24.5q-8 0 -17 9t-19 16l-9 31q-4 15 0 34q0 4 4.5 11t4.5 16q0 4 -1.5 11t-1.5 15v2q0 2 -4 6q-8 0 -16 -8q-8 -20 -34.5 -49t-39.5 -51q-6 0 -18 9t-17 20q-4 20 0.5 44.5t4.5 53.5q-4 0 -4.5 2t-10.5 2q-8 0 -17 -11.5t-16.5 -24.5 t-12.5 -26.5t-5 -17.5q0 -10 11.5 -28.5t11.5 -28.5q0 -16 -16.5 -43t-31.5 -27q-10 0 -17 9.5t-12 20.5t-8.5 21.5t-3.5 14.5z" />
<glyph unicode="&#xeb;" d="M-207 1526q0 14 23.5 22t52.5 13.5t55.5 8.5t30.5 9l34 42l34 44h53v-36q0 -19 -8 -42q18 -10 43.5 -17l50.5 -14v-20q-29 -10 -60.5 -18.5t-54.5 -16.5q-31 -10 -45 -38l-27 -50q-6 -10 -15 -20.5t-15 -19.5t-7 -19.5t7 -22.5q-8 0 -14.5 -3t-24.5 -3t-26.5 6 t-10.5 14.5t-1 15.5l1 7q0 6 7 21l16 31l17 32q7 14 7 18q0 10 -4 9.5t-4 7.5q-16 -2 -35.5 -1t-37 6t-30 13.5t-12.5 20.5z" />
<glyph unicode="&#xe4b;" d="M-207 1526q0 14 23.5 22t52.5 13.5t55.5 8.5t30.5 9l34 42l34 44h53v-36q0 -19 -8 -42q18 -10 43.5 -17l50.5 -14v-20q-29 -10 -60.5 -18.5t-54.5 -16.5q-31 -10 -45 -38l-27 -50q-6 -10 -15 -20.5t-15 -19.5t-7 -19.5t7 -22.5q-8 0 -14.5 -3t-24.5 -3t-26.5 6 t-10.5 14.5t-1 15.5l1 7q0 6 7 21l16 31l17 32q7 14 7 18q0 10 -4 9.5t-4 7.5q-16 -2 -35.5 -1t-37 6t-30 13.5t-12.5 20.5z" />
<glyph unicode="&#xec;" d="M-262 1266q0 49 41 92t91 76.5t96 55t59 28.5q14 6 31.5 16t29.5 10t20.5 -4t14.5 -4v-25q0 -10 -6 -15t-17 -8l-21 -6q-11 -3 -20 -9l-102 -67q-53 -34 -90 -83q-6 -8 0 -34.5t2 -47.5q-2 -10 -12.5 -24.5t-20.5 -24.5q-6 -2 -10 -2h-17q-10 0 -22 8t-22.5 20.5 t-17.5 25t-7 22.5z" />
<glyph unicode="&#xe4c;" d="M-262 1266q0 49 41 92t91 76.5t96 55t59 28.5q14 6 31.5 16t29.5 10t20.5 -4t14.5 -4v-25q0 -10 -6 -15t-17 -8l-21 -6q-11 -3 -20 -9l-102 -67q-53 -34 -90 -83q-6 -8 0 -34.5t2 -47.5q-2 -10 -12.5 -24.5t-20.5 -24.5q-6 -2 -10 -2h-17q-10 0 -22 8t-22.5 20.5 t-17.5 25t-7 22.5z" />
<glyph unicode="&#xed;" d="M-260 1133q0 47 31 74l86 75q10 10 29.5 12t39.5 2q53 0 83 -32.5t30 -77.5q0 -16 -15.5 -46t-39 -59.5t-51 -52t-54.5 -22.5q-18 0 -41.5 11t-45 29.5t-37 41t-15.5 45.5zM-147 1133q0 -18 4 -20.5t12 -10.5q31 23 54.5 53.5t31.5 52.5h-37q-23 -14 -44 -36.5t-21 -38.5 z" />
<glyph unicode="&#xe4d;" d="M-260 1133q0 47 31 74l86 75q10 10 29.5 12t39.5 2q53 0 83 -32.5t30 -77.5q0 -16 -15.5 -46t-39 -59.5t-51 -52t-54.5 -22.5q-18 0 -41.5 11t-45 29.5t-37 41t-15.5 45.5zM-147 1133q0 -18 4 -20.5t12 -10.5q31 23 54.5 53.5t31.5 52.5h-37q-23 -14 -44 -36.5t-21 -38.5 z" />
<glyph unicode="&#xee;" horiz-adv-x="774" d="M96 154q0 33 30 73.5t65 79.5l66 71q30 32 30 48q0 8 -15 41l-30 70l-31 68q-14 32 -14 42q0 16 26.5 32.5t50.5 16.5q20 0 38 -20.5t31 -46.5l27 -52q13 -26 25 -38q33 23 68 55l68 62q34 30 63 50.5t49 20.5q16 0 28.5 -10t20.5 -23q8 -14 15 -30q0 -35 -19 -54 q-25 -25 -62 -56l-74 -62q-36 -31 -61.5 -56.5t-25.5 -34.5q0 -20 35 -61t78 -85l81.5 -80t47.5 -46q-10 -8 -15.5 -16.5t-29.5 -8.5q-25 0 -60 10.5t-75 34t-80.5 59.5t-79.5 85q-35 -4 -59.5 -35t-46 -67.5t-44 -66.5t-51.5 -30q-18 0 -31.5 7.5t-22 17.5t-12.5 20.5 t-4 14.5z" />
<glyph unicode="&#xe4e;" horiz-adv-x="774" d="M96 154q0 33 30 73.5t65 79.5l66 71q30 32 30 48q0 8 -15 41l-30 70l-31 68q-14 32 -14 42q0 16 26.5 32.5t50.5 16.5q20 0 38 -20.5t31 -46.5l27 -52q13 -26 25 -38q33 23 68 55l68 62q34 30 63 50.5t49 20.5q16 0 28.5 -10t20.5 -23q8 -14 15 -30q0 -35 -19 -54 q-25 -25 -62 -56l-74 -62q-36 -31 -61.5 -56.5t-25.5 -34.5q0 -20 35 -61t78 -85l81.5 -80t47.5 -46q-10 -8 -15.5 -16.5t-29.5 -8.5q-25 0 -60 10.5t-75 34t-80.5 59.5t-79.5 85q-35 -4 -59.5 -35t-46 -67.5t-44 -66.5t-51.5 -30q-18 0 -31.5 7.5t-22 17.5t-12.5 20.5 t-4 14.5z" />
<glyph unicode="&#xef;" horiz-adv-x="1056" d="M143 397q0 10 4.5 29.5l9.5 41t11 42t12 33.5q37 94 98.5 146t129 78t134 32t113.5 6q33 0 71 -7t77 -31t75.5 -69t67.5 -118q8 -20 6 -59.5t-2 -61.5q0 -18 -3 -53t-5 -64q-2 -53 -43 -113.5t-95 -110.5t-109.5 -83t-88.5 -33q-8 0 -34.5 2t-60.5 5t-71 5t-65 4 q-37 2 -77 51.5t-75 113t-57.5 124.5t-22.5 90zM252 440q0 -25 7 -68.5t17 -80.5q6 -10 18.5 -25.5t18.5 -25.5q10 -29 26.5 -57.5t33.5 -39.5q20 -12 49 -22t57.5 -16.5t51 -10.5t32.5 -4q57 0 109.5 36t92.5 90t64.5 118.5t24.5 124.5q0 35 -13.5 82t-42 89t-73.5 71.5 t-109 29.5q-10 0 -33.5 -2t-52 -6t-57.5 -12.5t-47 -22.5q-23 -16 -53.5 -47t-57 -65.5t-45 -71.5t-18.5 -64zM348 397q0 43 22.5 82t56.5 67.5t72 45t70 16.5q25 0 60 -11t68.5 -32.5t57 -53.5t23.5 -71q0 -49 -22.5 -94t-56 -80t-74.5 -56.5t-78 -21.5q-43 0 -80 17.5 t-62.5 47.5t-41 66.5t-15.5 77.5z" />
<glyph unicode="&#xe4f;" horiz-adv-x="1056" d="M143 397q0 10 4.5 29.5l9.5 41t11 42t12 33.5q37 94 98.5 146t129 78t134 32t113.5 6q33 0 71 -7t77 -31t75.5 -69t67.5 -118q8 -20 6 -59.5t-2 -61.5q0 -18 -3 -53t-5 -64q-2 -53 -43 -113.5t-95 -110.5t-109.5 -83t-88.5 -33q-8 0 -34.5 2t-60.5 5t-71 5t-65 4 q-37 2 -77 51.5t-75 113t-57.5 124.5t-22.5 90zM252 440q0 -25 7 -68.5t17 -80.5q6 -10 18.5 -25.5t18.5 -25.5q10 -29 26.5 -57.5t33.5 -39.5q20 -12 49 -22t57.5 -16.5t51 -10.5t32.5 -4q57 0 109.5 36t92.5 90t64.5 118.5t24.5 124.5q0 35 -13.5 82t-42 89t-73.5 71.5 t-109 29.5q-10 0 -33.5 -2t-52 -6t-57.5 -12.5t-47 -22.5q-23 -16 -53.5 -47t-57 -65.5t-45 -71.5t-18.5 -64zM348 397q0 43 22.5 82t56.5 67.5t72 45t70 16.5q25 0 60 -11t68.5 -32.5t57 -53.5t23.5 -71q0 -49 -22.5 -94t-56 -80t-74.5 -56.5t-78 -21.5q-43 0 -80 17.5 t-62.5 47.5t-41 66.5t-15.5 77.5z" />
<glyph unicode="&#xf0;" horiz-adv-x="878" d="M129 219q0 8 5 28.5t12.5 44t16.5 47.5l15 40q61 139 155.5 198.5t201.5 59.5q55 0 102 -17.5t81 -48t53.5 -72.5t19.5 -93q0 -78 -32 -154t-87.5 -134.5t-128 -94t-154.5 -35.5q-47 0 -93 19.5t-83 52t-60.5 74.5t-23.5 85zM258 186q35 -27 79 -43t64 -16q39 0 81 19.5 t79 49t65.5 65.5t43.5 67q6 14 16 26.5t10 32.5q0 27 -16 49.5t-42 39t-56.5 25.5t-59.5 9q-43 0 -92 -36t-91 -87t-66.5 -106.5t-14.5 -94.5z" />
<glyph unicode="&#xe50;" horiz-adv-x="878" d="M129 219q0 8 5 28.5t12.5 44t16.5 47.5l15 40q61 139 155.5 198.5t201.5 59.5q55 0 102 -17.5t81 -48t53.5 -72.5t19.5 -93q0 -78 -32 -154t-87.5 -134.5t-128 -94t-154.5 -35.5q-47 0 -93 19.5t-83 52t-60.5 74.5t-23.5 85zM258 186q35 -27 79 -43t64 -16q39 0 81 19.5 t79 49t65.5 65.5t43.5 67q6 14 16 26.5t10 32.5q0 27 -16 49.5t-42 39t-56.5 25.5t-59.5 9q-43 0 -92 -36t-91 -87t-66.5 -106.5t-14.5 -94.5z" />
<glyph unicode="&#xf1;" horiz-adv-x="940" d="M197 262q0 8 5 26.5t12 40t17.5 42t22.5 35.5q33 41 73 79.5t84 68.5t92 48.5t99 18.5q18 0 37.5 1t34.5 -6q16 -10 41.5 -31.5t32.5 -43.5q6 -23 15 -61t9 -58q0 -8 -5 -27.5t-12 -42.5l-16 -47l-14 -45q-2 -6 -26 -41l-58 -84l-78 -104l-83 -103q-40 -47 -73.5 -77.5 t-50.5 -30.5q-16 0 -32.5 6t-40.5 6v59q49 37 84.5 73t65.5 71t55.5 71.5t50.5 77.5q-25 -8 -56 -17l-60 -17l-53 -15q-24 -6 -34 -6q-18 0 -43 14.5t-46.5 36t-35.5 44t-14 38.5zM303 252q0 -20 8 -24.5t17 -12.5q29 6 62.5 20.5t60 36t40 48t3.5 57.5q8 0 10 1t4 3t5 3 t13 1t21.5 -9t22 -22.5t16.5 -30t6 -30.5q0 -20 -2 -23.5t2 -11.5l24 46l28 51q13 26 22.5 47.5t9.5 31.5q0 18 -19.5 43t-54.5 25q-18 0 -44 -8.5t-50.5 -20.5t-45 -26.5t-28.5 -26.5q-8 -4 -21.5 -9t-19.5 -10q-10 -18 -24.5 -40.5l-29.5 -44t-25.5 -39t-10.5 -25.5z" />
<glyph unicode="&#xe51;" horiz-adv-x="940" d="M197 262q0 8 5 26.5t12 40t17.5 42t22.5 35.5q33 41 73 79.5t84 68.5t92 48.5t99 18.5q18 0 37.5 1t34.5 -6q16 -10 41.5 -31.5t32.5 -43.5q6 -23 15 -61t9 -58q0 -8 -5 -27.5t-12 -42.5l-16 -47l-14 -45q-2 -6 -26 -41l-58 -84l-78 -104l-83 -103q-40 -47 -73.5 -77.5 t-50.5 -30.5q-16 0 -32.5 6t-40.5 6v59q49 37 84.5 73t65.5 71t55.5 71.5t50.5 77.5q-25 -8 -56 -17l-60 -17l-53 -15q-24 -6 -34 -6q-18 0 -43 14.5t-46.5 36t-35.5 44t-14 38.5zM303 252q0 -20 8 -24.5t17 -12.5q29 6 62.5 20.5t60 36t40 48t3.5 57.5q8 0 10 1t4 3t5 3 t13 1t21.5 -9t22 -22.5t16.5 -30t6 -30.5q0 -20 -2 -23.5t2 -11.5l24 46l28 51q13 26 22.5 47.5t9.5 31.5q0 18 -19.5 43t-54.5 25q-18 0 -44 -8.5t-50.5 -20.5t-45 -26.5t-28.5 -26.5q-8 -4 -21.5 -9t-19.5 -10q-10 -18 -24.5 -40.5l-29.5 -44t-25.5 -39t-10.5 -25.5z" />
<glyph unicode="&#xf2;" horiz-adv-x="1001" d="M270 250v26q0 61 8.5 136t19.5 150t24 146l22 126q6 -2 15.5 -11.5t17.5 -20.5t13 -21.5t5 -16.5q0 -8 -6 -36t-12 -59.5t-12.5 -59t-6.5 -36.5q0 -16 8.5 -26t14.5 -23q35 37 44 59l13 31q4 10 13.5 13.5t44.5 3.5t49 -12.5t35 -40.5q2 0 4 -3q2 -2 4 -3t6 -5 q31 27 43 45.5t20.5 27.5t16.5 13t31 4q20 0 34.5 -13t22.5 -31.5t11 -37t3 -28.5q0 -16 -6 -19.5t-10 -9.5q-4 -14 -8 -32.5t0 -36.5q6 -33 -10.5 -79t-48 -95.5t-73.5 -98.5t-85 -88t-83 -62.5t-67 -23.5h-20q-4 0 -13 2q-20 10 -44.5 47t-31.5 78q-2 16 -3 38l-2 43 q-1 22 -1 40zM350 191q0 -17 3 -37.5t11.5 -38t24.5 -17.5t49 28t66 61l57 62q25 28 25 30q16 25 30.5 54t28.5 52q6 12 16.5 42t16.5 50q-6 6 -16.5 7t-16.5 -7q-12 -14 -32.5 -27.5t-37.5 -13.5q-20 0 -44.5 22.5t-45.5 39.5q0 -6 -3 -39t-12 -70t-24.5 -66.5t-42.5 -29.5 q-16 0 -26 8t-17 8q-6 -29 -8 -56.5t-2 -43.5v-18z" />
<glyph unicode="&#xe52;" horiz-adv-x="1001" d="M270 250v26q0 61 8.5 136t19.5 150t24 146l22 126q6 -2 15.5 -11.5t17.5 -20.5t13 -21.5t5 -16.5q0 -8 -6 -36t-12 -59.5t-12.5 -59t-6.5 -36.5q0 -16 8.5 -26t14.5 -23q35 37 44 59l13 31q4 10 13.5 13.5t44.5 3.5t49 -12.5t35 -40.5q2 0 4 -3q2 -2 4 -3t6 -5 q31 27 43 45.5t20.5 27.5t16.5 13t31 4q20 0 34.5 -13t22.5 -31.5t11 -37t3 -28.5q0 -16 -6 -19.5t-10 -9.5q-4 -14 -8 -32.5t0 -36.5q6 -33 -10.5 -79t-48 -95.5t-73.5 -98.5t-85 -88t-83 -62.5t-67 -23.5h-20q-4 0 -13 2q-20 10 -44.5 47t-31.5 78q-2 16 -3 38l-2 43 q-1 22 -1 40zM350 191q0 -17 3 -37.5t11.5 -38t24.5 -17.5t49 28t66 61l57 62q25 28 25 30q16 25 30.5 54t28.5 52q6 12 16.5 42t16.5 50q-6 6 -16.5 7t-16.5 -7q-12 -14 -32.5 -27.5t-37.5 -13.5q-20 0 -44.5 22.5t-45.5 39.5q0 -6 -3 -39t-12 -70t-24.5 -66.5t-42.5 -29.5 q-16 0 -26 8t-17 8q-6 -29 -8 -56.5t-2 -43.5v-18z" />
<glyph unicode="&#xf3;" horiz-adv-x="964" d="M158 203q0 33 16 98.5t47 131t76 114.5t102 49q41 0 64.5 -18.5t39 -41t26 -41t22.5 -18.5q8 0 21.5 13.5t30.5 33.5l36 41q18 20 37 37q10 10 28.5 13t38.5 3q25 0 44.5 -21.5t31.5 -49t19.5 -54t7.5 -36.5q0 -41 -17.5 -109.5t-40 -139.5t-44 -128t-29.5 -76 q-25 6 -54.5 31.5t-29.5 44.5q0 18 20.5 42.5t30.5 49.5q23 63 32 126.5t25 129.5l-18 18q-29 -25 -58 -59l-58 -68q-28 -33 -49 -55t-32 -22q-27 0 -43 24.5t-24 55t-10.5 56t-2.5 28.5q-4 10 -6 16t-10 14t-5 9t-17 1q-18 0 -40 -11t-36 -27q12 -20 26.5 -31.5t27.5 -24 t22.5 -29t9.5 -44.5q0 -16 -7.5 -32t-7.5 -32q0 -45 -19.5 -98.5t-57.5 -98.5q-4 -2 -5.5 -8t-21.5 -6q-35 0 -60.5 27.5t-43 62.5t-26.5 67t-9 42zM266 166q27 33 34 83t5 79q-8 -10 -23.5 -25.5t-15.5 -36.5v-100z" />
<glyph unicode="&#xe53;" horiz-adv-x="964" d="M158 203q0 33 16 98.5t47 131t76 114.5t102 49q41 0 64.5 -18.5t39 -41t26 -41t22.5 -18.5q8 0 21.5 13.5t30.5 33.5l36 41q18 20 37 37q10 10 28.5 13t38.5 3q25 0 44.5 -21.5t31.5 -49t19.5 -54t7.5 -36.5q0 -41 -17.5 -109.5t-40 -139.5t-44 -128t-29.5 -76 q-25 6 -54.5 31.5t-29.5 44.5q0 18 20.5 42.5t30.5 49.5q23 63 32 126.5t25 129.5l-18 18q-29 -25 -58 -59l-58 -68q-28 -33 -49 -55t-32 -22q-27 0 -43 24.5t-24 55t-10.5 56t-2.5 28.5q-4 10 -6 16t-10 14t-5 9t-17 1q-18 0 -40 -11t-36 -27q12 -20 26.5 -31.5t27.5 -24 t22.5 -29t9.5 -44.5q0 -16 -7.5 -32t-7.5 -32q0 -45 -19.5 -98.5t-57.5 -98.5q-4 -2 -5.5 -8t-21.5 -6q-35 0 -60.5 27.5t-43 62.5t-26.5 67t-9 42zM266 166q27 33 34 83t5 79q-8 -10 -23.5 -25.5t-15.5 -36.5v-100z" />
<glyph unicode="&#xf4;" horiz-adv-x="962" d="M160 250q0 29 15 67.5t38 79.5t49.5 79t48.5 65q10 10 28.5 13t29.5 13q47 35 88 81t92 81q33 23 81 51l92 54q44 25 79 41t45 16h51q0 -10 6 -18.5t6 -26.5q0 -23 -40 -53.5t-87 -59t-88 -49t-43 -22.5q-16 -14 -48 -39l-62 -51q-31 -26 -53.5 -47t-22.5 -29t4 -25.5 t10 -38t13.5 -41l13.5 -35.5q6 -14 30.5 -28.5t28.5 -30.5q8 -16 8 -51q0 -49 -25.5 -92t-64.5 -77t-84 -53.5t-82 -19.5q-45 0 -74.5 35t-48 78t-26.5 83t-8 50zM248 211q0 -4 4 -17.5t13 -30t21.5 -28.5t30.5 -12q10 0 30 12t41.5 28.5t41 35t25.5 28.5q-18 14 -40 33 t-43.5 34t-39 25.5t-25.5 10.5q-10 0 -21.5 -15.5t-19.5 -36t-13 -40t-5 -27.5z" />
<glyph unicode="&#xe54;" horiz-adv-x="962" d="M160 250q0 29 15 67.5t38 79.5t49.5 79t48.5 65q10 10 28.5 13t29.5 13q47 35 88 81t92 81q33 23 81 51l92 54q44 25 79 41t45 16h51q0 -10 6 -18.5t6 -26.5q0 -23 -40 -53.5t-87 -59t-88 -49t-43 -22.5q-16 -14 -48 -39l-62 -51q-31 -26 -53.5 -47t-22.5 -29t4 -25.5 t10 -38t13.5 -41l13.5 -35.5q6 -14 30.5 -28.5t28.5 -30.5q8 -16 8 -51q0 -49 -25.5 -92t-64.5 -77t-84 -53.5t-82 -19.5q-45 0 -74.5 35t-48 78t-26.5 83t-8 50zM248 211q0 -4 4 -17.5t13 -30t21.5 -28.5t30.5 -12q10 0 30 12t41.5 28.5t41 35t25.5 28.5q-18 14 -40 33 t-43.5 34t-39 25.5t-25.5 10.5q-10 0 -21.5 -15.5t-19.5 -36t-13 -40t-5 -27.5z" />
<glyph unicode="&#xf5;" horiz-adv-x="950" d="M195 162l10 10q-2 12 -5 24.5t-1 22.5q10 61 47 118.5t91 112t118 105.5l127 100q-10 20 -28.5 40t-18.5 36q0 14 7 22.5t17 12.5q10 6 27 6q16 0 47 -16.5t45 -16.5q33 0 89 20.5t113.5 48.5t104.5 54.5t59 38.5h35q6 -6 8.5 -7t2.5 -17q0 -25 -8.5 -38.5t-21.5 -23.5 t-29.5 -19.5t-33.5 -21.5q-57 -45 -131.5 -72.5t-132.5 -62.5q-57 -35 -100 -69l-92 -70q14 -18 27.5 -46t13.5 -42t-10.5 -34t-22.5 -38q8 -6 20.5 -19.5t24.5 -29t20.5 -31.5t8.5 -29q0 -20 -10.5 -38.5t-24 -34t-26.5 -26.5t-21 -17l-78 -57q-37 -28 -78 -44 q-12 -4 -34.5 -7t-39.5 -3q-33 0 -55.5 16.5t-35.5 40t-19 51t-6 50.5zM266 158q0 -6 1 -16.5t5 -20.5t13.5 -18.5t25.5 -8.5t51 17.5t70 41t62.5 49t29.5 42.5q-18 14 -39.5 32.5t-43 33t-39 24.5t-25.5 10q-14 0 -32.5 -22.5t-36 -52t-30 -61.5t-12.5 -50z" />
<glyph unicode="&#xe55;" horiz-adv-x="950" d="M195 162l10 10q-2 12 -5 24.5t-1 22.5q10 61 47 118.5t91 112t118 105.5l127 100q-10 20 -28.5 40t-18.5 36q0 14 7 22.5t17 12.5q10 6 27 6q16 0 47 -16.5t45 -16.5q33 0 89 20.5t113.5 48.5t104.5 54.5t59 38.5h35q6 -6 8.5 -7t2.5 -17q0 -25 -8.5 -38.5t-21.5 -23.5 t-29.5 -19.5t-33.5 -21.5q-57 -45 -131.5 -72.5t-132.5 -62.5q-57 -35 -100 -69l-92 -70q14 -18 27.5 -46t13.5 -42t-10.5 -34t-22.5 -38q8 -6 20.5 -19.5t24.5 -29t20.5 -31.5t8.5 -29q0 -20 -10.5 -38.5t-24 -34t-26.5 -26.5t-21 -17l-78 -57q-37 -28 -78 -44 q-12 -4 -34.5 -7t-39.5 -3q-33 0 -55.5 16.5t-35.5 40t-19 51t-6 50.5zM266 158q0 -6 1 -16.5t5 -20.5t13.5 -18.5t25.5 -8.5t51 17.5t70 41t62.5 49t29.5 42.5q-18 14 -39.5 32.5t-43 33t-39 24.5t-25.5 10q-14 0 -32.5 -22.5t-36 -52t-30 -61.5t-12.5 -50z" />
<glyph unicode="&#xf6;" horiz-adv-x="991" d="M461 401q0 8 10 35l25 63l30 74l29 70q14 39 33.5 107.5t23.5 136.5q2 41 8.5 90t6.5 96l20 -10q4 -14 14.5 -34.5t10.5 -41.5q0 -35 3 -75t3 -56t-1 -57t-5 -76q-4 -39 -18.5 -78t-28.5 -86v-24q6 -6 8 -7h18q16 0 41 13.5t41 13.5q41 0 69.5 -15.5t47 -39t28 -52 t9.5 -55.5q0 -16 -9.5 -54t-15.5 -60q-2 -8 -25.5 -52.5t-56 -94.5t-68.5 -90t-61 -40q-23 0 -45 14.5t-40.5 34t-30 41t-11.5 37.5q0 41 19.5 70.5t48.5 29.5q27 0 44 -21.5l40 -51.5q16 2 39.5 32.5t46 69.5t38 78t15.5 57q0 12 -10 20.5t-23.5 13.5t-27 8t-17.5 3 q-8 0 -40.5 -15t-69.5 -34.5t-70 -35t-41 -15.5q-18 0 -28.5 9t-16.5 19.5t-8 20.5t-2 14z" />
<glyph unicode="&#xe56;" horiz-adv-x="991" d="M461 401q0 8 10 35l25 63l30 74l29 70q14 39 33.5 107.5t23.5 136.5q2 41 8.5 90t6.5 96l20 -10q4 -14 14.5 -34.5t10.5 -41.5q0 -35 3 -75t3 -56t-1 -57t-5 -76q-4 -39 -18.5 -78t-28.5 -86v-24q6 -6 8 -7h18q16 0 41 13.5t41 13.5q41 0 69.5 -15.5t47 -39t28 -52 t9.5 -55.5q0 -16 -9.5 -54t-15.5 -60q-2 -8 -25.5 -52.5t-56 -94.5t-68.5 -90t-61 -40q-23 0 -45 14.5t-40.5 34t-30 41t-11.5 37.5q0 41 19.5 70.5t48.5 29.5q27 0 44 -21.5l40 -51.5q16 2 39.5 32.5t46 69.5t38 78t15.5 57q0 12 -10 20.5t-23.5 13.5t-27 8t-17.5 3 q-8 0 -40.5 -15t-69.5 -34.5t-70 -35t-41 -15.5q-18 0 -28.5 9t-16.5 19.5t-8 20.5t-2 14z" />
<glyph unicode="&#xf7;" horiz-adv-x="1034" d="M72 135q0 8 5 40t13 70t20.5 77.5t24.5 66.5l36 69q19 36 43 65.5t52.5 49t61.5 19.5t50 -15.5t28.5 -37t21.5 -47t29 -46.5q20 16 45 41l48 49q24 24 43 40t30 16q23 0 37 -10.5t22 -25.5t11 -31.5t3 -26.5v-199l17 -18q72 68 133 143.5t120 156.5l115 164l119 168 q35 0 44 -6t20 -6v-49l-124 -185l-153 -229l-28 -46l-46 -74l-57.5 -86t-62 -80.5t-63.5 -60t-56 -23.5q-16 0 -37 19t-37 30q-12 35 -18.5 65.5t-1.5 69.5q2 8 10 23.5t8 31.5q0 8 -3 23.5t1 31.5v5q0 2 -8 14q-20 0 -35 -21q-8 -20 -27.5 -46.5t-43.5 -54.5l-45 -54 q-22 -27 -34 -47q-16 -2 -41.5 18.5t-29.5 40.5q-12 41 -2 90t10 109q-8 0 -7 4t-22 4q-16 0 -34.5 -22.5t-35 -51t-26.5 -54.5t-10 -32q0 -10 7 -26.5t15.5 -33t15.5 -32.5t7 -27q0 -16 -9.5 -39.5t-23.5 -47t-30.5 -40t-30.5 -16.5q-18 0 -35 17.5t-27 41t-16 45t-6 29.5z " />
</font>
</defs>
</svg>
