<?xml version="1.0" encoding="UTF-8" standalone="no"?>
<!-- Created with Inkscape (http://www.inkscape.org/) -->

<svg
   xmlns:dc="http://purl.org/dc/elements/1.1/"
   xmlns:cc="http://creativecommons.org/ns#"
   xmlns:rdf="http://www.w3.org/1999/02/22-rdf-syntax-ns#"
   xmlns:svg="http://www.w3.org/2000/svg"
   xmlns="http://www.w3.org/2000/svg"
   xmlns:sodipodi="http://sodipodi.sourceforge.net/DTD/sodipodi-0.dtd"
   xmlns:inkscape="http://www.inkscape.org/namespaces/inkscape"
   width="744.09448819"
   height="1052.3622047"
   id="svg2"
   version="1.1"
   inkscape:version="0.48.3.1 r9886"
   sodipodi:docname="New document 1">
  <defs
     id="defs4" />
  <sodipodi:namedview
     id="base"
     pagecolor="#ffffff"
     bordercolor="#666666"
     borderopacity="1.0"
     inkscape:pageopacity="0.0"
     inkscape:pageshadow="2"
     inkscape:zoom="2.8"
     inkscape:cx="231.84781"
     inkscape:cy="616.1522"
     inkscape:document-units="px"
     inkscape:current-layer="layer1"
     showgrid="false"
     inkscape:window-width="1317"
     inkscape:window-height="744"
     inkscape:window-x="49"
     inkscape:window-y="24"
     inkscape:window-maximized="1" />
  <metadata
     id="metadata7">
    <rdf:RDF>
      <cc:Work
         rdf:about="">
        <dc:format>image/svg+xml</dc:format>
        <dc:type
           rdf:resource="http://purl.org/dc/dcmitype/StillImage" />
        <dc:title></dc:title>
      </cc:Work>
    </rdf:RDF>
  </metadata>
  <g
     inkscape:label="Layer 1"
     inkscape:groupmode="layer"
     id="layer1">
    <path
       style="fill:#000000"
       d="m 214.11997,455.96595 c -2.04455,-1.22124 -1.84782,-2.04183 1.25465,-5.23356 3.30566,-3.40075 3.67941,-5.43968 3.67941,-20.07282 l 0,-16.28759 5.29458,0 c 4.11801,0 4.85336,-0.42643 3.30911,-1.91891 -3.83887,-3.71017 -2.35784,-7.67562 2.8667,-7.67562 5.00656,0 5.45094,-0.62745 7.52726,-10.62803 1.58619,-7.63985 6.05483,-10.7444 13.60602,-9.45266 3.45311,0.5907 8.67061,1.22218 11.59441,1.4033 7.68525,0.47605 9.24822,2.8687 10.29441,15.75894 0.92462,11.39224 0.99565,11.53699 6.31245,12.86271 7.30674,1.82189 6.76459,4.19534 -1.24092,5.43255 l -6.61822,1.02283 0,12.23251 c 0,17.93514 -1.40634,19.3303 -19.53485,19.37958 -7.91096,0.0214 -17.73403,0.74691 -21.82906,1.61203 -4.09503,0.8651 -8.94079,1.89695 -10.76836,2.29299 -1.82758,0.39605 -4.41398,0.0683 -5.74759,-0.72825 z m 24.39114,-7.07752 7.04792,-3.40693 -6.50213,0 c -11.46538,0 -17.18913,-8.64926 -12.65866,-19.12871 1.88227,-4.35388 3.67659,-5.87596 7.88717,-6.69042 l 5.45057,-1.05433 -4.62966,-1.82979 c -2.54633,-1.00638 -6.82748,-1.51803 -9.5137,-1.13698 l -4.88404,0.69279 0,14.40608 c 0,12.62412 0.30699,14.15986 2.48184,12.41542 1.98288,-1.59049 2.9937,-1.58011 5.02798,0.0516 2.24705,1.80236 2.0041,2.59111 -2.0682,6.71425 l -4.61434,4.67197 4.96367,-1.149 c 2.73002,-0.63195 8.13522,-2.68212 12.01158,-4.55593 z m 15.93886,-3.46503 c 1.28496,-3.23626 1.2609,-16.37077 -0.0385,-21.05712 -0.60319,-2.17532 -2.27651,-3.59795 -4.23198,-3.59795 -2.93899,0 -2.99713,0.22924 -0.63679,2.51046 4.05663,3.92062 4.82406,9.65332 2.0196,15.08651 -2.45111,4.74865 -2.15691,9.58752 0.5829,9.58752 0.71528,0 1.75246,-1.13823 2.30482,-2.52942 z m -10.48043,-3.86693 c 3.06967,0 6.81411,-7.78429 5.53908,-11.51509 l -1.25641,-3.67624 -0.98664,3.84638 c -1.44989,5.65244 -5.50365,7.58889 -10.90626,5.20981 -3.85496,-1.69756 -4.32206,-2.63547 -3.43861,-6.9046 0.8963,-4.33131 0.70623,-4.68668 -1.54218,-2.88322 -4.10529,3.29287 -2.49502,12.99912 2.56651,15.47024 2.27502,1.11071 5.12797,1.66696 6.33992,1.2361 1.21193,-0.43086 2.87001,-0.78338 3.68459,-0.78338 z m -2.51555,-8.5524 c -1.67795,-1.18582 -2.52087,-2.98479 -1.87314,-3.99772 0.68863,-1.07686 0.14709,-1.84167 -1.30414,-1.84167 -1.36501,0 -2.96213,0.75111 -3.54919,1.66913 -1.55035,2.42442 2.36898,6.32631 6.35456,6.32631 3.27675,0 3.29262,-0.0919 0.37191,-2.15605 z m 23.02967,-2.53072 c 0.52357,-0.81873 0.19522,-1.94059 -0.72963,-2.49301 -0.92484,-0.55242 -1.68154,0.11738 -1.68154,1.48859 0,2.80885 0.99282,3.22242 2.41117,1.00442 z m -19.78401,-6.50685 c -0.56242,-0.87949 -2.65388,-1.58807 -4.64768,-1.5746 -2.94715,0.02 -3.16097,0.31438 -1.14327,1.5746 3.25968,2.03595 7.09287,2.03595 5.79095,0 z"
       id="path2996"
       inkscape:connector-curvature="0" />
  </g>
</svg>
