<?xml version="1.0" standalone="no"?>
<!DOCTYPE svg PUBLIC "-//W3C//DTD SVG 1.1//EN" "http://www.w3.org/Graphics/SVG/1.1/DTD/svg11.dtd" >
<svg xmlns="http://www.w3.org/2000/svg">
<metadata>
This is a custom SVG webfont generated by Font Squirrel.
Copyright   : Copyright c 2007 by Samart Nahmkhoon All rights reserved
Foundry     : Samart Nahmkhoon
</metadata>
<defs>
<font id="can_RukdeawRegular" horiz-adv-x="0" >
<font-face units-per-em="2048" ascent="1638" descent="-410" />
<missing-glyph horiz-adv-x="690" />
<glyph unicode="&#x91;&#x91;" horiz-adv-x="612" d="M300 906q0 -22 -4 -37.5t-22 -26.5q-11 -5 -25 -8.5t-31 -1.5t-36 8t-38 19q-39 26 -63 70q-11 21 -17.5 43t-8.5 43q-4 43 5 79.5t23 65.5t30 49t29 32q4 4 11 3t14 -5t12 -9t5 -10q2 -7 2.5 -15t1.5 -17l76 -190q5 -5 10.5 -12t11.5 -16q8 -11 11 -27t3 -37zM506 1086 q16 -24 30 -48.5t11 -57.5q-1 -14 -8.5 -27.5t-21.5 -29.5l-1 -1q-14 -17 -26 -26.5t-29 -10.5q-20 -1 -40 10.5t-38 33.5q-17 22 -29.5 52.5t-14.5 64.5q-2 35 6 67t22 56q15 24 31 38t28 22q4 2 10.5 0t13.5 -7q14 -9 16 -18q2 -14 4.5 -30t7.5 -32t12.5 -30t15.5 -26z " />
<glyph unicode="&#x92;&#x92;" horiz-adv-x="733" d="M262 1148q25 -19 41 -46q16 -26 21.5 -51t5.5 -48q0 -46 -14.5 -83t-35.5 -64q-20 -28 -42 -44.5t-39 -23.5q-5 -2 -11.5 1.5t-11.5 9.5q-12 13 -10 24q4 14 7 34t3 42t-4 44.5t-12 38.5l-3.5 7t-3.5 5h2q2 1 -0.5 3.5t-7.5 4.5q-6 3 -13.5 6t-15.5 7q-24 13 -42 50l-1 1 q-9 19 -12.5 35t7.5 33q7 10 17.5 19t27.5 16t40 9.5t52 -4.5q14 -4 28 -10.5t27 -15.5zM153 994q-2 0 -4 1.5t0 2.5zM684 1047q6 -44 -3.5 -82.5t-26.5 -67.5t-37 -47t-35 -26q-5 -2 -11.5 0.5t-12.5 7.5q-5 5 -9 11t-3 11q1 15 1.5 35t-2.5 40q-6 42 -27 74 q-9 14 -17.5 23l-15.5 17l-13.5 17.5t-16.5 23.5q-8 12 -10.5 28t-2.5 36v1q0 21 4 37t22 26q21 12 56 9.5t71 -27.5q38 -24 61 -64q11 -20 18 -41t10 -42z" />
<glyph unicode="&#x3b;&#x3b;For&#x20;Education&#x20;Used&#x20;Only&#x3b;&#x3b;" horiz-adv-x="1243" d="M933 412q5 -13 -20 -31l-104.5 -73.5t-147.5 -86.5q-43 -21 -92 -39.5t-109 -24.5q-30 -3 -61 -1t-65 13q-37 13 -66 39q-32 29 -46 68q-14 38 -13.5 73t5.5 66t14.5 59t21.5 54q23 53 52 98t61 83q65 76 136 125t136 60q27 5 44.5 1.5t26.5 -9.5q8 -5 10.5 -12t1.5 -15 v-1q0 -15 -12 -27q-10 -10 -40 -28q-38 -23 -89.5 -69t-104.5 -115q-26 -33 -50.5 -70.5t-44.5 -79.5q-10 -20 -17.5 -41t-12.5 -41q-11 -42 -3 -69q4 -12 11 -20.5t23 -16.5t36.5 -11.5t41.5 -3.5q44 0 88 10t86 24q85 29 152.5 61t114.5 52q14 6 24 5t12 -6zM1161 740 q16 -54 21 -106t2 -103q-6 -103 -40 -191t-86 -155q-51 -67 -111.5 -108.5t-116.5 -59.5q-46 -15 -75.5 -16.5t-45.5 1.5q-17 4 -22.5 9.5t-6.5 13.5v1q-2 8 2.5 15.5t17.5 15.5t35.5 18.5t56.5 30.5q42 23 84.5 60.5t79.5 93.5q36 56 60 127.5t28 152.5q3 81 -19.5 163 t-77.5 150q-26 34 -60 61t-75 50q-38 20 -79.5 30t-84.5 7t-85 -17.5t-81 -38.5q-40 -23 -75 -54t-66 -66q-63 -71 -106.5 -151.5t-66.5 -162.5q-24 -81 -24 -159t30 -137q15 -29 36 -51.5t45 -37.5q25 -15 50 -23.5t48 -13.5q27 -5 42 -10t16 -11v-1q-1 -5 -17 -10t-51 -2 q-26 3 -55.5 10t-59.5 23q-31 15 -59.5 41t-48.5 62q-21 35 -33 76t-16 86q-6 91 15 183q20 94 63.5 186t110.5 176q33 42 73 80t88 70t103.5 54t116.5 27q62 7 122.5 -6t114.5 -40q51 -27 97.5 -63t82.5 -81q37 -45 63 -95.5t40 -103.5z" />
<glyph unicode="&#x3b;&#x3b;Registered&#x3b;&#x3b;" horiz-adv-x="1267" d="M1165 781q10 -56 7 -111t-16 -107q-13 -51 -33 -97t-46 -88q-50 -84 -112 -146.5t-125 -107.5q-64 -45 -125.5 -72t-115.5 -40q-45 -11 -72.5 -11.5t-43.5 3.5t-21.5 10t-6.5 14t3 15.5t17 15.5q12 8 35 17.5t59 26.5q32 15 69.5 36t76.5 49q-2 4 -5 9t-5 11l-25 57.5 t-34 64.5t-48 64.5t-66 51.5q-21 13 -48 19q-11 -43 -24 -83.5t-27.5 -76t-30.5 -64t-32 -46.5q-14 -15 -27 -16t-28 4t-24 14.5t-11 30.5q-2 25 4.5 58.5t18.5 72t28.5 80.5l34.5 84l42.5 93.5t41.5 83.5q-5 -2 -8.5 -5t-8.5 -6l-29.5 -19.5t-20.5 -9.5q-17 -6 -30 2h-1 q-7 4 -11.5 10t-4.5 17t6 28t23 40q20 28 50 55.5t71 52.5q20 13 43 24t49 20t56.5 15t65.5 4q17 -1 35.5 -4t38.5 -11q40 -16 69 -48q30 -32 43 -76q6 -22 6.5 -43t-1.5 -41q-10 -79 -66 -139q-4 -4 -7 -7.5t-7 -7.5l-2 -1l-1 -1l2 2l-1 -1l-4 -3l-7 -7l-15.5 -11.5 t-15.5 -10.5q-16 -11 -32.5 -18.5t-33.5 -13.5q-36 -11 -70 -15q25 -29 41.5 -59t28.5 -58q16 -41 25 -75.5t14 -63.5q0 -5 1 -7l11 8.5t12 9.5q52 43 102.5 99t90.5 125t61 149.5t8 161.5q-6 41 -22 80t-39 73q-25 36 -55.5 65.5t-67.5 49.5q-72 39 -160 33 q-42 -3 -84 -15.5t-82 -32.5q-80 -40 -145.5 -99.5t-114.5 -125.5q-49 -68 -79.5 -138t-41.5 -136t-3.5 -123.5t24.5 -100.5q10 -24 14 -39t-1 -19h-1q-5 -3 -17.5 7.5t-28.5 40.5q-24 45 -38.5 108t-6.5 138q6 75 34 155t77 158q50 78 119 148.5t161 123.5q47 26 98.5 44.5 t108.5 25.5q57 6 116.5 -3.5t113.5 -36.5t96.5 -66.5t75.5 -84.5q68 -95 88 -210zM533 747q-2 -33 -8 -75.5t-16 -90.5q42 2 80 7.5t69 19.5q20 8 37 21q5 2 8 5.5t7 6.5l4 4v1h1q-2 -2 0.5 0t1.5 2v1l2 1q4 4 6 7q11 14 18 31.5t9 34.5t-2 27.5t-11 18.5q-16 16 -47 19 q-17 2 -36 -1t-38 -8q-39 -11 -72 -26q-5 -2 -13 -6z" />
<glyph unicode="&#x3b;&#x3b;Trademark&#x3b;&#x3b;" horiz-adv-x="1103" d="M1014 1018q2 -17 1.5 -30.5t0.5 -27.5q0 -59 -9.5 -110t-22.5 -95q-14 -44 -27.5 -79l-24.5 -64q-14 -34 -28 -29q-12 5 -5 42l13.5 66.5t13.5 79.5q6 42 8.5 89t-4.5 98l-3 27q-3 -5 -4 -11q-11 -27 -21 -56.5t-23 -60.5q-8 -15 -15.5 -31t-18.5 -33l-12.5 -17 t-17.5 -19q-6 -5 -12.5 -9.5t-14.5 -8.5q-19 -10 -43 -11q-23 0 -43 10q-5 2 -9 4.5l-7 4.5l-2 1l-4 3l-6 6q-4 3 -6.5 6t-4.5 6q-8 12 -11 21t-5 17t-2.5 14t-1.5 12q-1 22 -0.5 38.5t2.5 33.5q2 25 3.5 48t1.5 43q-4 -6 -7 -12t-7 -12q-20 -42 -34 -88t-25 -88 q-12 -42 -21.5 -78.5l-17.5 -66.5q-7 -25 -13.5 -40t-13 -23t-13 -10.5t-14.5 -2.5t-15 3t-12.5 13t-9.5 27.5t-5 44.5q-2 32 0.5 72.5t9.5 87.5q8 47 20 99t38 111l8.5 17t9.5 17q-33 -11 -86.5 -21.5t-113.5 -17.5q-1 -6 -1.5 -12.5t-1.5 -13.5l-11 -70.5t-13 -76.5 q-8 -38 -17.5 -76t-21.5 -72q-13 -33 -28 -59.5t-32 -42.5q-14 -13 -27 -13t-27 6v1q-15 6 -24 15t-11 26q-3 22 1.5 50t13.5 60t21.5 68.5t27.5 73.5q14 34 29.5 67t32.5 62q-51 -1 -93.5 4.5t-68.5 20.5q-14 8 -18 20t-4 27v1q0 16 4 28t19 20q24 14 61 18.5t81 2.5 t91 -8.5t90.5 -15t79.5 -17.5t58 -15q8 -4 9 -10q12 15 29 30.5t46 25.5q14 6 31.5 7t32.5 -1q17 -3 35 -12.5t31 -24.5q12 -14 18.5 -28t9.5 -26q4 -12 5 -22.5l2 -21.5q2 -24 0.5 -45t-3.5 -41q10 20 19 40l19 41l7 14.5t8 14.5q4 8 8.5 15.5t12.5 17.5q2 4 9 11 q2 2 4 3.5t4 3.5t6 4q2 1 3 1q8 5 22 10q7 2 15 3.5t19 0.5q22 -2 39 -17q16 -14 20.5 -26l8.5 -22q2 -10 3 -18.5zM685 747h1h-1z" />
<glyph unicode="&#x3b;&#x3b;Multiply&#x3b;&#x3b;" horiz-adv-x="764" d="M644 812q9 -9 0 -23l-34.5 -51l-45.5 -65l-51.5 -74l-57.5 -78l22.5 -54.5t19.5 -51.5l23 -62t18 -48q3 -11 -8 -20q-12 -7 -22 2q-17 13 -39 35t-46 51l-22 26.5l-22 27.5q-14 -17 -28 -31.5l-28 -28.5q-33 -32 -65 -55t-59 -33q-22 -8 -34 -2.5t-22 17.5h-1 q-10 12 -13 25t7 33q12 24 34.5 52t51.5 60l34.5 37.5t37.5 39.5l-30.5 42l-28.5 39q-20 28 -34.5 52t-22.5 44q-7 17 -3 29t14 24v1q11 12 22.5 18t31.5 -1q23 -8 50 -28.5t53 -51.5q14 -16 26 -33.5t23 -36.5l55 49.5t53 43.5q35 29 66 50t53 34q6 4 12 2.5t10 -6.5z" />
<glyph unicode="&#x3b;&#x3b;Divide&#x3b;&#x3b;" horiz-adv-x="1497" d="M1312 571q12 -2 18.5 -8.5t5.5 -14.5q0 -8 -6 -14.5t-19 -8.5q-39 -8 -97.5 -17.5t-129.5 -18t-150.5 -15.5t-161 -12t-161.5 -7t-151.5 0.5t-131.5 9.5t-101 20q-35 11 -44.5 26.5t-9.5 36.5t9.5 37t44.5 27q55 18 142.5 24t190.5 4.5t214 -9.5t213 -18.5t187.5 -22 t137.5 -19.5zM798 348q3 -1 7 -6.5t7 -12.5q8 -14 6 -23q-8 -23 -31.5 -52t-52.5 -51q-29 -23 -57 -31t-54 9q-11 7 -19.5 20t-17.5 31v1q-10 19 -15 33.5t-2 28.5q6 32 36.5 47t66.5 17q36 3 71 -2t55 -9zM614 793q-9 11 -11.5 26.5t-2.5 36.5t2 37t8 27q14 27 40 32t61 2 q34 -5 68.5 -13.5t54.5 -15.5q3 -1 6.5 -6.5t5.5 -13.5q2 -7 3 -13.5t-1 -10.5q-11 -21 -38.5 -48t-62.5 -44q-17 -9 -36 -14.5t-37 -5.5t-33.5 5.5t-26.5 18.5z" />
<glyph unicode=" "  horiz-adv-x="690" />
<glyph unicode="&#x09;" horiz-adv-x="690" />
<glyph unicode="&#xa0;" horiz-adv-x="690" />
<glyph unicode="!" horiz-adv-x="394" d="M284 1163q13 -29 20.5 -71.5t8.5 -93.5t-3.5 -108.5t-14.5 -116.5t-25 -115.5t-34 -105.5q-20 -50 -41.5 -88.5t-39.5 -61.5q-5 -7 -13 -8t-15 3t-11.5 10.5t-2.5 15.5q4 28 7 67t5 87t1.5 101t-2.5 109q-1 55 -1 109.5t2.5 104t9.5 91t20 70.5q11 24 27 31t37 7 q22 0 38 -6.5t27 -30.5zM146 243q20 -8 34 -15.5t23 -17.5q10 -12 13 -24t0.5 -24.5t-8.5 -25t-14 -25.5q-17 -26 -37 -51t-34 -41q-2 -2 -8.5 -3.5t-14.5 -0.5q-8 0 -14.5 1t-8.5 4q-17 17 -33 51t-18 73q-3 39 11 71.5t45 40.5q14 3 29 -1t35 -12z" />
<glyph unicode="&#x22;" horiz-adv-x="570" d="M171 1167q22 0 37.5 -3t26.5 -14q18 -17 24.5 -44t5 -59t-9.5 -67t-18.5 -66.5t-22 -58t-20.5 -42.5q-5 -8 -24 -8q-7 0 -13.5 2t-9.5 6q-11 16 -23.5 42.5t-23 58.5t-17 66.5t-7.5 66.5t6 59t25 44q11 11 27 14t36 3h1zM473 1128q27 -22 28.5 -62.5t-9.5 -84.5 t-29.5 -84t-31.5 -61q-2 -3 -8.5 -4.5t-14.5 -1.5t-14.5 1.5t-9.5 5.5q-11 14 -23.5 37t-23 50.5t-17 57t-7.5 57t6 51t25 38.5q11 9 27 11.5t37 2.5q22 0 38 -2.5t27 -11.5z" />
<glyph unicode="#" horiz-adv-x="1291" d="M1253 438q1 -8 -4 -15.5t-18 -12.5q-39 -15 -98 -33t-131 -36q-84 -21 -182 -39q-8 -81 -18 -149t-27 -113q-11 -29 -27 -38t-36 -9h-1q-22 0 -37.5 8.5t-26.5 40.5q-14 40 -19 98t-1 128l-69 -9.5t-68 -9.5q-23 -73 -52.5 -130.5t-60.5 -90.5q-26 -28 -45 -29.5t-37 8.5 h-1q-19 11 -28.5 26.5t-4.5 50.5q4 29 12 66t19 80q-51 -3 -93.5 -3t-74.5 5q-36 5 -48.5 18.5t-16.5 34.5t3 38.5t41 34.5q41 20 101 36t133 27l24 111q-79 -17 -146 -26t-115 -6q-37 2 -50.5 15.5t-18.5 33.5q-5 21 1 38.5t38 37.5q51 31 137.5 59t192.5 50l18 87t19 83 q17 71 34.5 128t31.5 95q5 11 12.5 16t15.5 3t13 -9t5 -21v-228v-127q18 2 35.5 4.5t35.5 4.5q29 4 58 6.5t58 4.5q24 72 47 129.5l39 95.5q5 9 12.5 13t15.5 2t13 -9t5 -19q0 -37 -2.5 -90t-7.5 -117q46 1 90 0q75 -2 136 -7.5t102 -11.5q27 -5 25 -24q0 -8 -6 -14.5 t-20 -9.5l-98.5 -19.5l-129.5 -26.5l-53.5 -12l-55.5 -12q-3 -33 -5.5 -67t-5.5 -68q-2 -15 -2.5 -30.5t-2.5 -31.5q42 1 81 1.5t76 0.5q74 1 134 1.5t102 1.5q12 0 19.5 -5.5t8.5 -13.5zM543 573q-2 -33 -5 -66t-8 -66q58 4 119 6l8.5 47t10.5 47l8 34.5t9 34.5l-36 -9 q-26 -7 -53 -13.5l-53 -12.5v-2z" />
<glyph unicode="$" horiz-adv-x="1182" d="M1127 956q10 -43 8 -69t-8 -40t-14 -19t-19 -7q-11 -1 -20.5 2t-19.5 13q-10 11 -20.5 29l-26.5 44q-20 32 -47.5 57.5t-67.5 36.5q-12 4 -26 5.5t-29 1.5q-5 -31 -11 -63t-14 -66q-19 -76 -44.5 -156.5t-57.5 -162.5q21 -9 42 -24q12 -9 25 -20t25 -27t19.5 -37.5 t8.5 -42.5q1 -22 -3.5 -39.5t-10.5 -31.5q-11 -28 -26 -48.5t-30 -38.5q-30 -36 -61 -64q-8 -8 -15.5 -14.5l-15.5 -13.5l-8 -7q-1 -1 -3.5 -3t-4.5 -4q-8 -8 -17 -14q-36 -27 -71 -46q-23 -13 -45.5 -24t-45.5 -21l-66 -126l-52 -97q-8 -14 -17 -19t-17 -2q-16 7 -9 41 q7 32 17.5 73.5t24.5 91.5q-33 -9 -66 -12q-33 -4 -65 -2.5t-61 9.5t-53.5 23t-39.5 35q-17 23 -16.5 39.5t6.5 18.5l1 1q8 2 18.5 -6.5t27.5 -23.5q14 -11 31.5 -18t40.5 -9q46 -3 100 12q52 14 108 41l52.5 175l57.5 187q-7 4 -13.5 7t-13.5 7q-23 11 -47 27t-46 39 q-5 6 -10.5 12t-10.5 13q-2 3 -5 6.5t-5 6.5q2 -3 1.5 -1.5t-0.5 0.5v1l-1 1l-2 3q-2 2 -2.5 3t-2.5 3q-8 14 -15 27.5t-12 28.5q-11 30 -15 62t-1 64q3 31 11.5 59t21.5 53q24 51 57.5 89t70.5 69q72 60 158 94q22 10 44.5 17t45.5 12q4 12 8 22.5l8 21.5q17 42 33.5 53 t37.5 9h1q10 -1 19 -4.5t16 -12t12 -24t8 -39.5q0 -4 0.5 -7.5t0.5 -8.5q55 -5 104 -26q39 -17 70.5 -41.5t52.5 -53.5t33.5 -57t18.5 -53zM681 393q1 5 0.5 7.5t-0.5 1.5q-1 -2 0 -3.5t-1 -0.5q-4 5 -30 17l-39.5 -88.5l-39.5 -85.5l1 2q3 3 5 4l6 7q7 7 13 14l12 14 q13 14 24 29l21 29q11 14 18 28t10 25zM575 907q-26 -21 -46.5 -45.5t-34.5 -50.5q-26 -53 -13 -94l4.5 -11t5.5 -11l2 -3l1 -1q0 -1 1 -2l1 -1v-1q1 -2 3 -4q4 -6 7 -9q7 -8 17 -16.5t24 -16.5l43.5 148.5l39.5 139.5l6 21l-31.5 -20.5t-29.5 -22.5z" />
<glyph unicode="%" horiz-adv-x="842" d="M730 1181l-44.5 -103l-57.5 -136l-64.5 -158.5l-66.5 -170.5l-67 -170.5l-65 -159.5t-63 -136.5t-59 -101.5q-23 -33 -41.5 -38.5t-38.5 2.5h-1q-20 7 -31.5 23t-8.5 57q3 49 21 117t47 146.5t67.5 164t83.5 169.5q45 85 93 164.5t95 148.5q48 69 90 122t73 88 q9 11 18.5 13t16.5 -3q6 -5 7.5 -14.5t-4.5 -23.5zM818 452q2 -20 -0.5 -36.5t-7.5 -30.5t-11.5 -24.5t-14.5 -20.5q-29 -38 -60 -56t-56 -23q-11 -1 -18 10q-2 -4 -3 -5l-1 -1q-12 -17 -27 -26.5t-42 3.5q-16 8 -30.5 23.5t-25 36.5t-16.5 46.5t-4 53.5t11.5 59t35.5 63 q14 16 33 29t42 20t45.5 6.5t40.5 -5.5l4 -1h2v-1q6 -2 8 -2t1.5 0h-1.5t0 0h1l2 -1l4 -2l4 -2q4 -2 8 -4.5t8 -4.5q16 -11 32 -26q15 -16 24.5 -37t11.5 -41zM215 735q-14 -4 -31.5 -5t-35.5 1q-40 5 -73 29q-34 24 -52 64t-11 82q2 21 11 40.5t22 33.5q13 15 27 24.5 t28 15.5q29 11 53 12t44 -1q5 -1 9.5 -1.5t9.5 -1.5l4 -1h1l1 -1q7 -3 3 -1l-6 3t5.5 -3l38.5 -20v-1l1 -2l3 -9q6 -18 9 -36q1 -11 1 -21t-2 -18q5 -3 11 -7t12 -9q16 -14 25.5 -27.5t4.5 -35.5q-3 -13 -10 -27t-21 -28q-13 -14 -33 -27.5t-49 -21.5z" />
<glyph unicode="&#x26;" horiz-adv-x="1024" d="M1374 500q2 -7 -14 -22.5t-54 -39.5l-133 -81l-164 -93q-28 -16 -57 -31l-59 -31q9 -26 15.5 -50t11.5 -47q12 -63 12 -101.5t-5 -61.5q-5 -21 -12.5 -29t-18.5 -10t-21 4t-21 24q-11 19 -24 52.5l-34 86.5q-7 17 -15 34.5t-17 34.5l-83.5 -36t-87.5 -35 q-29 -11 -60.5 -21t-64.5 -19q-33 -8 -68 -14.5t-73 -8.5q-20 -1 -40 -0.5t-41 4.5q-22 5 -45 13t-45 24q-23 16 -40 38.5t-26 47.5t-12 48t-4 46q0 5 0.5 10.5t0.5 10.5v6v-1v1v3q1 4 1 7t1 7q3 25 12 49q8 23 19.5 43.5t24.5 37.5l8 10l8 10l-4 6t-4 7q-24 38 -36.5 82 t-11.5 89q0 45 9.5 86t26.5 79q33 75 86 137q27 31 58.5 58.5t69.5 50.5q19 11 40 21t46 17q25 6 54 8.5t61 -5.5t61 -27t47 -43q5 -6 9 -12l8 -12l3.5 -7t3.5 -6l1 -3l1 -1l1 -2l10 -22l10 -23q9 -24 13 -51t2 -55t-10 -53.5t-19 -48.5q-23 -45 -52.5 -76.5t-59.5 -57.5 l-63.5 -49.5l-62.5 -45.5q50 -6 105.5 -10.5t115.5 -21.5q16 -5 31 -11t30 -14q14 -7 29 -17q4 -2 7 -5t7 -5q2 -2 3 -2.5t3 -2.5l2 -1l1 -1q-1 1 0.5 -0.5t-2.5 1.5l3 -3q26 -20 43 -41.5t29 -43.5l64.5 27.5l61.5 27.5l169 78l140 66q35 17 57.5 21.5t27.5 -2.5v-1z M564 178l71 22.5t69 24.5q-10 10 -19 14v1q-5 3 -3.5 2t0.5 0h-1l-1 1q-2 2 -3 2q-2 1 -3.5 2t-3.5 2q-3 2 -6.5 3.5t-7.5 3.5q-8 3 -16.5 5.5t-17.5 4.5q-38 9 -90 10t-116 6q-32 3 -68.5 10t-75.5 25l-6 3l-7.5 -9t-7.5 -8q-16 -20 -24 -40q-2 -5 -3 -9t-2 -9 q-1 -8 -1.5 -14t-0.5 -13q-2 -25 5 -41q4 -14 15 -22q12 -10 36.5 -15t53.5 -5q57 1 117 13.5t117 29.5zM436 854q-43 -28 -79 -72t-56 -91q-20 -48 -20 -89q2 -31 10 -52l90.5 69.5t80.5 68.5q23 21 41 42.5t26 41.5q8 19 8 32.5t-8 33.5q-2 2 -2.5 4.5t-2.5 4.5q-2 4 -3 5 q0 2 -1 3l-1 1v1q-1 2 0 -0.5t-3 5.5q-2 4 -3.5 6.5t-3.5 4.5q-3 3 -4 3t-4 1q-2 0 -8.5 -0.5t-15.5 -3.5q-10 -3 -20 -8z" />
<glyph unicode="'" horiz-adv-x="382" d="M247 1121q27 -24 29 -67.5t-9 -91t-29.5 -90.5t-31.5 -66q-6 -8 -24 -6q-8 0 -14.5 1.5t-8.5 5.5q-11 15 -23.5 40t-23 54.5t-17 61.5t-7.5 62t6 55t25 41q11 10 26.5 12.5t36.5 2.5h1q21 0 37 -2.5t27 -12.5z" />
<glyph unicode="(" horiz-adv-x="534" d="M532 1070q5 -15 -21 -32q-19 -12 -40 -30t-41 -42q-21 -25 -40.5 -56t-36.5 -67q-35 -72 -57.5 -160t-31.5 -181q-10 -92 -5.5 -180.5t23.5 -157.5q10 -35 22.5 -61.5t26.5 -45.5q14 -18 28 -30t31 -21l24.5 -14t17.5 -14q12 -13 15 -35v-1q2 -11 0.5 -20.5t-9.5 -17.5 q-8 -9 -23 -16t-44 -9q-17 -1 -36.5 1t-40.5 10q-21 7 -42 18.5t-40 28.5q-39 32 -65.5 77t-43.5 95q-32 100 -31.5 208t22.5 214q23 106 64.5 202t98.5 171q57 77 122 122q31 23 61 36.5t56 20.5q15 4 24.5 0t11.5 -12v-1v0z" />
<glyph unicode=")" horiz-adv-x="467" d="M317 865q39 -88 48.5 -188t-1.5 -197q-11 -98 -35.5 -187.5t-55 -165.5t-62.5 -136t-57 -97q-8 -11 -17 -14.5t-16 0.5t-10 13t1 23q11 43 25.5 105.5t27.5 138.5t21 160.5t7 169.5t-13 163t-36 140q-23 62 -54.5 104.5t-57.5 74.5q-22 26 -25 44t6 37v1q5 10 10.5 17 t15.5 12t24.5 5t36.5 -7q26 -9 56.5 -26t59.5 -45t55 -64.5t46 -80.5z" />
<glyph unicode="*" horiz-adv-x="1000" d="M871 823q22 -17 25.5 -34t-1.5 -37q-5 -21 -15 -35t-37 -20q-44 -9 -108.5 -1t-139.5 27l22 -41l22 -39l46.5 -82.5l37.5 -62.5q9 -15 -5 -29q-12 -12 -30 -2q-27 15 -63 42t-76 64q-36 33 -72 72q-5 -11 -9 -22l-8 -22q-17 -43 -27.5 -79t-15.5 -61q-2 -8 -8.5 -12 t-14.5 -5q-8 0 -14.5 4t-9.5 13q-9 27 -15.5 68.5t-6.5 92.5q0 11 0.5 23t1.5 24q-43 -19 -82 -29.5t-69 -9.5q-26 0 -38.5 12t-20.5 31v1q-9 20 -9.5 36.5t16.5 36.5q18 22 48 43.5t68 43.5l-98.5 41t-73.5 33q-8 4 -11 11.5t-1 15.5t7.5 13t15.5 6q54 3 145 0 q-23 42 -38.5 79.5t-20.5 66.5q-5 27 4.5 42t26.5 26v1q18 11 35.5 14t40.5 -13q29 -19 59.5 -53.5t61.5 -80.5l20 74.5t21 57.5q11 20 26 28t35 10h1q21 2 37.5 -3t29.5 -31q15 -31 18.5 -76.5t-4.5 -97.5q-2 -7 -2.5 -13.5t-2.5 -14.5q20 6 39 11l37 10q49 11 89.5 16.5 t68.5 7.5q8 1 14 -4t8 -13t0.5 -15.5t-9.5 -12.5l-54 -36l-70 -46q49 -14 88 -30t65 -35z" />
<glyph unicode="+" horiz-adv-x="1333" d="M1269 658q2 -7 -2.5 -15t-17.5 -14q-38 -19 -95.5 -40.5t-130.5 -41.5q-62 -17 -131.5 -30.5t-142.5 -23.5q-6 -77 -13.5 -150t-15.5 -138t-15.5 -118.5t-13.5 -90.5q-2 -12 -8.5 -18.5t-14.5 -5.5q-8 0 -14.5 6t-9.5 19q-8 36 -16 88t-16 114t-15 132.5t-12 144.5 q-70 -5 -136 -5t-124.5 4t-107 12t-83.5 20q-35 13 -44.5 29t-8.5 36v1q1 22 11.5 37t46.5 26q35 10 82.5 15t103.5 7.5t119.5 2t130.5 -1.5q-2 66 -2 129t3.5 119t10 103t17.5 81t27 44t37 10q22 0 38 -10t27 -45q11 -34 17.5 -81t9.5 -103t2.5 -119t-3.5 -130 q66 0 129 0.5t121 2.5q72 2 130.5 6t99.5 9q25 2 30 -17z" />
<glyph unicode="," horiz-adv-x="382" d="M260 60q14 -26 21 -57t5 -60t-8.5 -55t-16.5 -49q-20 -48 -47.5 -83.5t-53.5 -63.5q-28 -28 -52.5 -48t-41.5 -32q-5 -3 -12.5 -1t-13.5 7q-14 10 -11 24q5 20 14.5 48.5l19.5 61.5q11 33 20 68.5t14 67.5q2 17 2.5 30.5t-0.5 24.5t-2.5 18.5t-3.5 13.5t-4.5 12.5 t-6.5 14.5q-5 8 -9.5 16.5l-9.5 18.5q-4 7 -6 25.5t2.5 38t18 35t39.5 17.5q14 1 31.5 -3t37.5 -15t40 -29.5t34 -45.5z" />
<glyph unicode="-" horiz-adv-x="1001" d="M929 508q9 -2 13.5 -8.5t4.5 -14.5t-4.5 -14.5t-14.5 -9.5q-39 -11 -103.5 -23.5t-141 -23t-159.5 -17t-160.5 -7.5t-143 6t-106.5 25q-26 11 -33.5 27t-7.5 37q0 22 7.5 38t33.5 27q41 18 107 24.5t143.5 4.5t160.5 -10t160 -18.5t141 -22t103 -20.5z" />
<glyph unicode="." horiz-adv-x="339" d="M277 205q12 -12 12 -21q-1 -25 -15 -61.5t-38 -67.5q-24 -32 -52.5 -49t-58.5 -6q-12 5 -23.5 15.5t-24.5 26.5v1q-14 17 -22 30.5t-9 27.5q-1 17 6 30.5t18.5 24.5t27.5 19.5t33 14.5q34 12 69 18.5t56 9.5q3 0 9 -4t12 -9z" />
<glyph unicode="/" horiz-adv-x="449" d="M449 1108q15 -9 8 -35l-30 -100.5l-38 -131.5l-41.5 -152.5l-42.5 -163.5l-43.5 -165t-44 -154.5t-45.5 -132.5t-47 -99q-20 -32 -37.5 -38t-37.5 -1h-1q-21 5 -33.5 19.5t-14.5 52.5q-2 46 7.5 110t28.5 139t45.5 157.5t59.5 165.5q32 83 68.5 161t74.5 147 q37 68 71 121t60 88q8 11 17 13.5t16 -1.5z" />
<glyph unicode="0" horiz-adv-x="945" d="M842 934q11 -45 15 -90t4 -92q-1 -46 -6 -92.5t-13 -93.5q-9 -48 -21.5 -94.5t-29.5 -93.5t-39.5 -92.5t-51.5 -90.5q-30 -44 -69.5 -85.5t-96.5 -70.5q-7 -4 -14 -7t-15 -6l-7 -3l-2 -1h-1l-1 -1h-2l-3 -1q-6 -2 -14 -4q-13 -4 -27 -7.5t-28 -5.5q-29 -5 -61.5 -4.5 t-66.5 9.5q-35 8 -66.5 27.5t-54.5 44.5q-23 26 -38 53t-25 53q-20 54 -25.5 102.5t-6.5 94.5q-1 91 12.5 169.5t31.5 147.5q19 69 41 125t46 101q20 36 36.5 56.5t30.5 29.5t24.5 8t18.5 -6h1q9 -5 14.5 -13.5t7.5 -23.5q2 -14 -1.5 -37t-11.5 -60q-10 -45 -20.5 -99 t-21.5 -118q-10 -63 -17 -133.5t-5 -144.5q2 -35 7 -70t16 -64q10 -27 25 -44q12 -14 31 -19q21 -7 53 -2q18 2 34 6q14 4 27 10q27 12 54.5 37t51.5 57q48 66 82 145t56 160t31 162t-1 152q-10 68 -49 117q-19 25 -43 43t-50 29t-51 14.5t-48 -0.5t-43 -13.5t-35 -22.5 q-18 -15 -30.5 -22.5t-19.5 -3.5l-1 1q-6 5 -3.5 20.5t24.5 41.5q17 18 41 34.5t56 26.5t68.5 9t72.5 -12q76 -22 137 -84q31 -31 53 -72.5t33 -86.5z" />
<glyph unicode="1" horiz-adv-x="836" d="M724 1048q2 -18 1 -30.5t-3 -23.5t-4 -20l-4 -18q-4 -18 -9 -34.5l-10 -32.5q-11 -32 -23 -62l-24 -60l-102 -229.5l-96 -210.5t-78 -182.5t-51 -139.5q-5 -17 -13.5 -25.5t-16.5 -6.5t-12.5 12.5t-3.5 31.5q4 63 21.5 153.5t47.5 197.5q29 107 67 224.5l76 235.5 l13.5 41.5l12.5 40.5l-11.5 -7.5t-10.5 -7.5l-166 -114.5t-141 -77.5q-26 -11 -43.5 -14.5t-29.5 -2t-19.5 8t-12.5 15.5h-1q-6 9 -8 18.5t1 21t12.5 26t27.5 33.5q44 46 112 107t159 131l48 35t54 35q8 5 15.5 8.5t16.5 8.5t19.5 9t24.5 8l16.5 4t22.5 2h14q7 -2 18 -3 q5 -2 10.5 -4t11.5 -5q9 -3 21 -11q2 -1 3.5 -2t3.5 -2q3 -2 0 -1q8 -7 14.5 -14.5t11.5 -14.5q10 -17 12.5 -29.5z" />
<glyph unicode="2" horiz-adv-x="1146" d="M1099 251q4 -5 -9 -20t-51 -26q-56 -17 -126.5 -13t-148.5 22l-40 10.5l-40 10.5q-30 -33 -63 -63.5t-70 -57.5q-49 -38 -106 -66q-29 -14 -60.5 -24.5t-66.5 -15.5t-73.5 -1.5t-75.5 20.5q-38 19 -64 45l-7 7v1q-9 13 -11.5 16t-2.5 2.5t1.5 -2t-0.5 1.5l-1 2l-2 4 l-3.5 9l-3.5 9q-4 10 -6.5 20t-3.5 21q-3 22 0 45.5t12 43.5q10 20 22 36t26 28q28 24 55.5 38t55.5 24q54 19 107 27q14 2 27 3.5t26 3.5q7 1 13.5 1h13.5h14h7h4h6h2q31 -5 54.5 -13.5l46.5 -16.5q6 -2 13 -5q33 44 61 90t49 94q38 87 48 172.5t-14 152.5q-5 15 -14 32 q-2 5 -4 8t-5 8q-5 9 -9 15q-17 27 -37 42q-10 8 -18.5 11t-19.5 5q-20 5 -47 -3q-26 -7 -52 -21.5t-49 -32.5q-23 -17 -43.5 -36t-37.5 -37l-46 -50.5t-31 -29.5t-24 -11.5t-19 2.5h-1q-10 4 -16.5 12.5t-7.5 27.5q0 18 8 49t34 76q15 26 35.5 54.5t47.5 56.5q28 28 64 55 t86 46q25 9 54.5 14.5t61.5 2.5q32 -2 64 -13t60 -29q27 -18 48.5 -40.5t38.5 -47.5q5 -6 9 -12l8 -12q3 -5 6.5 -12t7.5 -13l13.5 -27.5t11.5 -27.5q21 -57 27 -118t-2 -121t-25 -117t-43 -111q-43 -92 -105 -175l48 -18q72 -25 133.5 -35t109.5 -2q27 5 43.5 5.5 t21.5 -6.5zM233 166q13 -4 28 -4.5t34 4.5q37 8 77 31t77 54q22 19 44 41l-15 3q-5 2 -10 2.5t-10 1.5q-6 0 -9 1h-3q-39 -4 -83.5 -15t-82.5 -29q-20 -9 -36 -20t-26 -22q-8 -11 -10 -18q-1 -6 1 -13q0 -1 2 -5q11 -8 22 -12z" />
<glyph unicode="3" horiz-adv-x="879" d="M779 484q13 -29 17 -59t1 -58q-2 -27 -9 -52t-18 -48t-22.5 -42.5t-28.5 -39.5q-32 -38 -70.5 -62.5t-76.5 -39.5t-74.5 -24l-70.5 -17l-33 -6l-32 -6t-30 -6t-31 -6q-63 -11 -114.5 -12.5t-92.5 -3.5q-24 -1 -37.5 4.5t-14.5 13.5q-1 7 11.5 15t38.5 15l90.5 18 t103.5 28q56 21 120 40.5t121 51.5q29 15 52 35t38 44q16 25 26 55q11 29 9 56q0 13 -3 23.5t-8 18.5q-10 16 -29 26q-20 9 -50 14q-5 0 -8 0.5t-5 -0.5q-5 1 -10 1h-10h-43q-11 1 -22 1t-22 1t-22.5 1.5t-25.5 2.5q-5 0 -8.5 0.5t-11.5 2.5l-4 1q-3 0 -7 2l-4 1l-7 3 q-2 2 -5 3t-5 3l-4.5 3t-6.5 6q-9 8 -16.5 20t-10.5 25q-4 15 -3.5 24t0.5 6v1l1 5q1 11 3 20.5l4 18.5q10 31 26 57q14 24 28.5 43.5t29.5 37.5l28.5 33l28.5 32l53 58.5t45 54.5q19 26 27 47q5 10 5 14v5q1 0 -0.5 3.5t-8.5 10.5q-8 8 -11 9.5l-5 2.5q-2 4 -14 0 q-7 -2 -16 -6.5t-18 -10.5q-18 -14 -35.5 -30.5l-34.5 -33.5l-30 -35l-27 -33q-21 -26 -36 -41.5t-27 -23t-21.5 -8t-19.5 3.5q-1 0 -1 1q-10 4 -17 11t-9 22t2 39t18 60q8 22 19.5 45.5t27.5 48.5q15 26 35 52.5t49 52.5q15 14 33 26t42 23q23 11 54 16t64 -1 q32 -6 59.5 -22.5t45.5 -33.5q10 -9 20 -20.5t19 -25.5t16 -30t11 -34t4 -35.5t-2 -34.5t-6.5 -31.5t-9.5 -27.5q-11 -26 -24 -47.5t-27 -40.5q-27 -37 -56 -68.5l-58 -60.5l-27 -28l-26 -28q2 0 4 -0.5t4 -0.5q5 0 10.5 -0.5t12.5 -1.5q4 0 6 -1h3l7 -1q3 -1 6.5 -1t6.5 -1 q27 -6 54 -16.5t53 -27.5t47 -41.5t33 -53.5z" />
<glyph unicode="4" horiz-adv-x="1139" d="M1099 477q3 -17 -34 -34l-146 -70.5t-198 -88.5l-30 -12l-32.5 -115t-28.5 -89q-13 -34 -28.5 -44t-36.5 -10q-11 0 -20.5 2t-17.5 8.5t-14.5 19t-10.5 32.5q-6 26 -7.5 58.5t0.5 70.5q-5 -2 -9 -2.5t-8 -2.5q-34 -8 -69.5 -15t-75.5 -9q-41 -3 -85 4q-23 4 -48.5 13.5 t-51.5 29.5q-13 10 -24 22.5t-19 26.5q-16 27 -22 57q-6 28 -5.5 52t2.5 46q6 44 18 80.5t26 69.5q28 67 60.5 124.5t65.5 109.5q66 103 127 180.5t106 127.5q18 20 32 31t25 15.5t20 4t19 -4.5h1q22 -8 27 -31q2 -13 -0.5 -32.5t-13.5 -48.5q-25 -69 -74.5 -155.5 l-109.5 -186.5l-59.5 -102.5t-54.5 -106.5q-12 -27 -21.5 -53.5t-14.5 -49.5t-3 -36q1 -3 1 -6q1 -1 0.5 -1.5t0.5 -1.5q2 -2 8 -6t17 -6q19 -6 50 -6q28 -2 58 0.5t61 7.5q17 2 33.5 5l33.5 6q18 76 48 155.5t65 157.5q38 81 78.5 157l78.5 143l70 120l54 90q6 11 15 14.5 t16 0.5q16 -7 12 -34q-8 -43 -24.5 -104t-38.5 -134l-49 -154.5l-52 -161.5l-33 -102.5t-30 -99.5q100 26 182.5 49.5t142.5 36.5q18 4 30 0.5t14 -11.5q1 0 1 -1z" />
<glyph unicode="5" horiz-adv-x="1055" d="M994 1142q8 -2 11.5 -8.5t3.5 -14.5q-1 -8 -4 -14.5t-11 -9.5l-56.5 -19t-74.5 -23l-85.5 -24.5t-93.5 -23.5t-95.5 -18.5t-92.5 -8.5q-3 -1 -10 -1l-10.5 -35l-11.5 -37q-8 -26 -17.5 -52.5t-18.5 -54.5q-11 -33 -20 -63q24 2 50 3l52 2q40 1 82 -2t89 -15 q23 -6 47.5 -15.5t47.5 -25.5q24 -16 44.5 -39t34.5 -50t19 -54t6 -52q1 -26 -2 -49t-8 -45q-10 -45 -29.5 -85.5t-45.5 -74.5q-52 -69 -117 -112.5t-131 -69.5t-129 -37t-119.5 -11.5t-104 8t-83.5 22.5q-21 8 -29.5 18.5t-5.5 17.5v1q6 14 51 7q34 -5 76.5 -4.5t91.5 9.5 q49 8 102 26.5t105 47.5t98.5 69.5t76.5 91.5q14 26 23.5 52.5t12.5 55.5q5 29 1.5 54t-12.5 36q-8 11 -22 19q-16 8 -43 14q-26 5 -58 6t-65 -1t-67.5 -5t-72.5 -5q-9 -1 -19.5 -1.5t-22.5 -0.5q-6 1 -12.5 1t-15.5 1q-2 1 -4.5 1t-5.5 1q-5 1 -12 3q-2 1 -3.5 1t-3.5 1 q-23 13 -29 17t-5 3.5l4 -2t-3 1.5l-2 3q-3 2 -5 5q-5 5 -8.5 10t-6.5 10q-11 20 -12.5 33t-3.5 23q-1 10 -0.5 17.5t1.5 14.5q2 14 4 24.5l4 20.5q10 39 22 70.5l24 60.5l24 55.5l24 51.5l11.5 24t11.5 23q-8 9 -10.5 20.5t-2.5 25.5v1q0 22 5.5 37.5t25.5 27.5 q21 13 55 22q13 21 23.5 33t19.5 17.5t18 6t18 -1.5h1q11 -2 20 -10.5t13 -26.5q35 4 72.5 5.5t75.5 1.5q50 0 98 -2t93 -7q44 -5 79.5 -11t59.5 -13z" />
<glyph unicode="6" horiz-adv-x="976" d="M858 661q32 -44 37.5 -96.5t-8.5 -101.5q-13 -49 -37 -92t-54 -81t-65.5 -72.5t-74.5 -65.5q-40 -31 -83.5 -58t-92.5 -49q-25 -11 -51 -19.5t-55 -15.5l-30 -4t-32 -3h-2h-6h-1l-3 1h-8q-5 0 -8.5 0.5t-7.5 0.5q-8 2 -16.5 3t-16.5 3q-17 5 -35 11.5t-35 17.5t-33 26 t-27 32q-24 35 -32 70.5t-10 66.5q-2 63 9.5 115t26.5 101q16 48 33.5 92.5t37.5 86.5l5 10v1l2 4q1 2 1.5 2t-0.5 -1v1l2 2l3 6q3 5 5.5 10.5t5.5 10.5q11 19 25 41l26 39t27 37q56 72 116.5 128.5t118.5 100.5t110.5 75.5t97.5 53.5q36 18 60.5 26t40 9t24.5 -4t15 -14h1 q6 -9 7 -19.5t-6 -24.5t-24 -33t-47 -46l-79 -70.5l-93 -83.5q-48 -45 -98 -97t-95 -115l-21.5 -31.5l-21.5 -32.5l-10 -17.5l-10 -17.5q-3 -4 -5.5 -8t-4.5 -9l-2 -4l-1 -1l-4 -10q-18 -39 -34.5 -78.5t-30.5 -79.5t-23.5 -80t-8.5 -72q0 -16 2.5 -27t5.5 -16t8.5 -9.5 t19.5 -8.5q3 -1 6.5 -2t7.5 -1q2 -1 4 -1t4 -1h4h16t17 2q38 6 76 21q39 14 77 34t73 43t67.5 49.5t59.5 55.5t48 60t32 62q11 34 10 60q-2 29 -14 51q-11 21 -36 33t-54 17t-58 3.5t-56 -6.5q-26 -4 -50 -10.5t-45 -13.5q-48 -19 -59 -5v1q-4 6 5.5 19t38.5 29q21 12 46 23 t55 20q29 8 62.5 14t72.5 5q20 -2 40.5 -5.5t41.5 -12.5q22 -8 42.5 -23.5t35.5 -36.5z" />
<glyph unicode="7" horiz-adv-x="976" d="M859 1067q15 -29 20 -58t3 -54t-6.5 -46.5t-11.5 -41.5q-13 -38 -30 -72t-34 -64q-72 -122 -153 -227l-155 -196l-132 -165.5t-94 -128.5q-11 -16 -21.5 -21.5t-17.5 -1.5t-8 16t7 32q24 63 69.5 149.5t105.5 187.5l126 211t122 226q4 8 7 15t7 14l6 13.5t5 13.5 q11 26 18 52q6 24 6 42q0 7 -2 11q-1 2 -1 3l-1 1q-1 1 -3 1.5t-4 2.5q-5 2 -14 4.5t-20 4.5q-23 4 -49 5t-52 0q-54 -2 -106.5 -6.5l-100.5 -8.5t-90.5 -6t-77.5 0q-29 1 -47.5 5.5t-29.5 11.5t-15 15.5t-5 19.5t1 20.5t10.5 18.5t24.5 18t43 18q32 12 72 23.5t89 22.5 q48 11 103.5 21t120.5 14q32 2 67 2t75 -7q20 -4 42 -10.5t45 -18.5q23 -11 46.5 -32t39.5 -50z" />
<glyph unicode="8" horiz-adv-x="1042" d="M957 647q11 -46 6.5 -87t-14.5 -76l-6 -18l-2 -9l-1 -2q0 1 -1 -2v-1l-3 -6q-5 -12 -10 -21.5t-10 -17.5q-20 -33 -43 -59q-23 -27 -46 -50l-47 -45q-98 -87 -209 -154q-29 -17 -58 -31.5t-61 -28.5q-32 -13 -66 -23t-72 -15q-19 -2 -39.5 -2t-42.5 4q-23 5 -46 14 t-43 25q-9 8 -17.5 17t-16.5 19l-6 10l-6 10l-5 10l-2 2q-1 2 0.5 -0.5t0.5 -1.5v2l-3 5q-11 22 -15.5 44.5t-4.5 43.5q0 42 10 76t23 64q14 30 29 56.5l31 52.5q33 50 68 93.5l70 85.5l41.5 48l41.5 46h-3q-25 3 -49.5 6.5t-50.5 8.5q-24 4 -52 12q-14 4 -29 9t-32 15 q-8 5 -17.5 12t-20.5 18q-10 10 -18.5 26t-11.5 34t-1 33.5t6 26.5t8 19.5t9 16.5q19 27 36 43t34 30q33 27 63.5 46l58.5 35q46 25 76.5 37t49 15t28.5 -1.5t16 -13.5h1q6 -9 6 -20t-10.5 -27t-32.5 -39t-60 -56l-47 -42t-47 -47l-6 -6q5 -1 11 -1.5t12 -1.5q20 -2 43 -4 l47 -4q34 -3 69.5 -5.5t73.5 -7.5q6 5 11.5 11l10.5 11l111.5 114t88.5 96q45 50 59 44l1 -1q6 -4 1.5 -23.5t-27.5 -53.5q-31 -46 -72 -99l-90 -113l46 -10t47 -13q31 -10 63.5 -24t65.5 -38q16 -12 31 -27.5t29 -34.5t24 -40t15 -44zM660 388l38 39t34.5 39.5t25.5 37.5 t12 33q11 44 3 66q-3 11 -9.5 19.5t-20.5 19.5q-28 20 -73 34q-22 7 -45.5 12l-47.5 10q-36 7 -76 12l-58.5 -75l-58.5 -79l-59 -85.5t-55 -90.5t-42 -93q-8 -23 -12 -45t-2 -38q1 -5 3 -13q1 -2 1 -3t1 -2t1 -3q1 0 1 -1h1v-1q-2 2 0 -1t2 -2q8 -13 14 -15q8 -5 21 -6 q16 -2 37 3q22 4 45.5 13t47.5 20t48 25t47 29q48 31 91.5 66.5t84.5 74.5z" />
<glyph unicode="9" horiz-adv-x="812" d="M741 866q0 -14 -0.5 -25.5t-1.5 -22.5t-1.5 -22t-2.5 -22q-11 -88 -36 -166t-53 -147t-55.5 -130l-53.5 -116q-53 -110 -100 -179q-14 -20 -26 -27.5t-19 -3.5h-1q-14 10 7 57q16 37 32.5 83.5t34.5 103.5l28.5 92.5t30.5 101.5q-19 -14 -43 -25.5t-53 -16.5 q-38 -8 -81 0t-81 29q-37 21 -67.5 50.5t-54.5 64.5q-48 70 -69 161q-10 45 -11.5 92.5t9.5 98.5q11 50 36.5 98.5t65.5 86.5q20 20 42 35.5t45 27.5q24 13 48 22t53 16q29 6 58.5 7t59.5 -4q29 -5 56.5 -16.5t52.5 -27.5q48 -32 81 -76.5t50 -95.5q19 -52 20 -104zM259 744 q11 -57 38.5 -102.5t57.5 -67.5q29 -21 56 -22t59 13q24 11 41.5 21t30.5 13q11 4 23 2q10 46 16.5 93t8.5 95q1 19 0 37v18q-1 4 -1 7.5t-1 7.5q-5 31 -16 56q-13 27 -32 48.5t-42 33.5q-46 23 -95 10q-11 -4 -26 -10t-27 -14q-24 -14 -44 -34q-19 -20 -30.5 -43.5 t-17.5 -49.5q-5 -27 -4.5 -55.5t5.5 -56.5z" />
<glyph unicode=":" horiz-adv-x="376" d="M296 589q8 -13 8 -22q-2 -21 -11.5 -49.5t-17.5 -48.5q-8 -21 -17.5 -29t-37.5 -6q-23 1 -62 18q-20 8 -34 16t-21 19q-9 14 -8 30.5t10 31.5q9 16 24 28t32 20q35 16 68 15t51 -5q3 0 7 -5.5zM258 215q6 -5 10.5 -9.5t5.5 -8.5q5 -23 1 -57.5t-20 -66.5 q-8 -16 -18 -29.5t-23 -22.5t-27.5 -12.5t-29.5 1.5q-13 4 -24 15t-25 28t-22.5 30t-10.5 26q-7 30 9 47.5t44 31.5q27 14 58 23.5t50 13.5q3 1 9.5 -2t12.5 -8z" />
<glyph unicode=";" horiz-adv-x="400" d="M333 577q5 -6 8 -11.5t3 -9.5q-2 -23 -14 -56.5t-28 -61.5q-17 -28 -37.5 -44t-50.5 -11q-13 2 -26 10.5t-30 21.5q-17 14 -28 25t-15 25q-5 16 -0.5 31t15 28.5t26 24t32.5 18.5q35 15 70.5 20.5t55.5 5.5q4 0 9 -5t10 -11zM141 -39q-2 0 -3 1.5t1 0.5zM241 120 q23 -13 41.5 -35.5t27.5 -47.5q10 -26 11 -50t-2 -45q-8 -44 -28 -75.5t-43 -53.5q-23 -21 -45 -32.5t-37 -16.5q-5 -2 -11 2t-11 10t-8 12.5t-1 11.5l9 33t7 40q3 21 2 41t-6 34q-4 10 -6 13h1q4 2 -3 10q-3 5 -8.5 9.5t-10.5 10.5q-18 18 -26 60q-5 21 -4.5 37.5 t14.5 30.5q9 8 22 13.5t31 7.5q17 2 39 -2t45 -18z" />
<glyph unicode="&#x3c;" horiz-adv-x="642" d="M621 1023q18 -11 25.5 -29.5t-8.5 -59.5q-18 -49 -63.5 -107.5t-108.5 -115.5l-65 -55.5l-68 -54.5l-34 -27.5l-34 -27.5l-16.5 -14l-16.5 -14q-4 -4 -7 -6q0 -1 1 -1q9 -9 17 -18t16 -19q32 -38 57 -79t41 -83q17 -42 24 -82t9 -75t-1 -64.5t-7 -52.5q-6 -28 -25 -26 q-8 1 -14 8.5t-8 21.5l-9.5 47.5t-14.5 55t-22.5 59t-33.5 59.5t-45.5 57t-55.5 54l-16 12.5l-16 12.5l-8 6t-9 6q-3 3 -13 8l-10 6t-11 8q-7 4 -17 13q-1 1 -3 3.5t-4 4.5q-1 0 -5 6q-2 2 -3 4t-3 5q-6 10 -9 21v0t-1 5t-1.5 6l-0.5 3v4v6q0 14 3 25q7 21 13 29.5t11 14.5 q5 5 8 8.5t6 6.5l10 8.5t7 7.5t11.5 13.5t16.5 17.5q8 9 17 18l17 17l34.5 33l34.5 31l68 58l63 52l108 89t83 67q29 23 48 23.5t37 -10.5h1v0z" />
<glyph unicode="=" horiz-adv-x="1072" d="M101 503q-28 11 -36 26.5t-8 36.5v1q0 22 8 37.5t37 26.5q34 13 84.5 19t110 6.5t125.5 -3.5t133 -10q66 -6 131 -13l123 -13t106 -10t81 -7q10 -1 15.5 -7t6.5 -14t-3 -15t-15 -11q-32 -12 -80 -25t-107 -24q-60 -11 -126 -19.5t-135 -13.5q-68 -4 -134.5 -4.5t-126 3 t-108.5 11.5t-82 22zM996 329q20 -2 22 -21q1 -7 -3 -14t-15 -11q-32 -13 -80 -26t-107 -24q-60 -11 -126 -19t-135 -13q-68 -4 -134.5 -4.5t-126 3t-108.5 11.5t-82 21q-28 11 -36 27t-8 37q0 22 8 38t37 27q34 13 84.5 19t110 6.5t125.5 -4t133 -10.5q66 -6 131 -13 t123 -12q58 -6 106 -10.5z" />
<glyph unicode="&#x3e;" horiz-adv-x="709" d="M685 458q-1 -5 -2.5 -11.5t-3.5 -11.5q-3 -5 -1 -3l2.5 2.5t-3.5 -5.5l-18 -27q-2 -2 -3.5 -3t-3.5 -3q-4 -4 -7 -5l-3 -3q-8 -4 -9 -5q-3 0 -5 -2q-4 -2 -6 -2q-10 -4 -16 -5.5t-12 -3.5t-12 -3t-11 -3q-23 -6 -42 -12q-17 -5 -37.5 -14l-40.5 -18q-38 -17 -79 -39 q-38 -20 -74 -42.5t-68 -45.5q-65 -45 -110 -91.5t-66 -83.5q-14 -21 -31 -18l-1 1q-7 2 -11 11t0 26q11 50 48 113.5t97 128.5q30 32 64.5 63.5t73.5 60.5l40 29t42 28l37.5 22.5t41.5 22.5q-4 4 -7 8t-6 9q-4 6 -8 13t-8 13q-3 5 -5.5 10.5t-5.5 10.5q-23 43 -39 84 q-34 83 -50 152.5t-19 120.5q-2 41 9 57t31 23h1q20 7 39 0.5t42 -40.5q28 -42 57 -104l62 -134l17 -35.5l18 -36.5q2 -5 5 -9t5 -9q2 -3 3.5 -6l3.5 -7q8 -12 23 -32l13 -19l15 -21q5 -6 9 -12.5l10 -16.5q1 -3 2.5 -6t3.5 -8l4 -10t4 -15q0 -3 0.5 -5t0.5 -7v-16v0z" />
<glyph unicode="?" horiz-adv-x="879" d="M768 1017q24 -46 28.5 -92.5t-1.5 -87.5q-2 -20 -7 -39.5t-11 -38.5l-6 -18t-7 -17q-3 -9 -7 -18.5t-9 -18.5q-20 -35 -43.5 -63t-48.5 -51q-50 -45 -96.5 -77.5l-85.5 -61.5t-69.5 -56t-50.5 -53q-24 -30 -39 -23h-1q-7 4 -7.5 17t10.5 34q16 33 43.5 69t63.5 74 q35 37 76 75.5t76 82.5q18 22 32.5 44.5t22.5 46.5q8 23 14 53q4 26 6 54q0 56 -23 87q-20 30 -65 42q-11 2 -23 3.5t-26 1.5h-7h-1h-2q-1 -1 -5 -1q-5 -2 -10.5 -3.5t-11.5 -3.5q-24 -8 -50 -22t-50 -31q-48 -33 -84 -72q-17 -19 -28.5 -37.5t-13.5 -29.5q-2 -5 -2 -7.5 v-4.5q0 -5 7 -13q8 -10 24 -21q4 -2 8 -4.5l9 -5.5h1q-2 1 0.5 -0.5t-7.5 3.5l1 -1h1q1 -1 2 -1q4 -2 5 -2q19 -7 40 -1q10 3 18 8.5t14 11.5q11 11 16.5 20t10.5 18q5 8 11.5 15.5t15.5 12.5h1q9 5 19 6.5t23 -9.5q6 -5 12 -14t11 -23q4 -14 4.5 -33.5t-5.5 -42.5 q-8 -27 -26 -53t-46 -47q-28 -20 -66 -30.5t-80 -5.5q-5 0 -10.5 1t-10.5 2l-10 2l-5 2q2 -1 1 -0.5t-3.5 1t-4.5 1.5t-1 1h-1l-2 1l-15.5 6t-15.5 8q-17 8 -33.5 19t-33.5 27q-17 15 -32 37t-24 49q-8 27 -8.5 55.5t4.5 53.5q12 51 35.5 87t50.5 66t57.5 54.5t64.5 46.5 q34 21 70 39t80 30q11 3 22 5.5t24 4.5q3 1 6.5 1t6.5 1h7l2 1q1 0 0.5 0h-1t1 0h6.5h1h3q5 -1 10.5 -1t11.5 -1q22 -2 44.5 -6.5t45.5 -12.5t44.5 -19.5t41.5 -28.5q20 -16 37 -36t28 -42zM347 250q14 -20 27 -56t18 -76q4 -41 -7.5 -78.5t-42.5 -50.5q-14 -5 -29.5 -2.5 t-35.5 7.5v1q-21 6 -35.5 12t-23.5 17q-22 24 -17.5 54.5t21.5 65.5q17 34 39.5 66.5t39.5 48.5q2 2 9 2.5t15 -1.5t14 -4t8 -6z" />
<glyph unicode="@" horiz-adv-x="1455" d="M1366 616q10 -29 14 -58t4 -57t-3 -55l-2 -13.5l-2 -13.5v-1q0 -2 -0.5 -3t-0.5 -3q-1 -5 -1 -8.5t-2 -7.5q-6 -31 -14.5 -55.5t-18.5 -48.5q-38 -90 -97 -171q-14 -20 -30 -39t-35 -38t-40 -36.5t-50 -33.5q-14 -8 -30 -14.5t-35 -10.5q-9 -2 -19 -3t-21 -2 q-3 0 -5.5 0.5t-5.5 0.5h-3q2 0 0.5 0h-4t-4.5 0.5l-2 0.5l-7 1l-12.5 4l-13.5 4q-1 1 -2 1t-3 1q-8 -11 -28.5 -26t-57.5 -34q-40 -19 -87 -36t-101 -30t-114.5 -20.5t-128.5 -3.5q-34 2 -69 8.5t-71 20.5q-35 14 -69.5 36.5t-62.5 57.5q-27 34 -42.5 76t-19.5 85 q-4 44 0.5 86t14.5 84q21 85 65.5 161t104.5 142t133 120t158 96q84 41 177 65.5t193 25.5q51 0 101 -7t100 -24q48 -17 97 -43.5t90 -73.5q20 -23 36 -50.5t26 -56.5zM565 60h5q12 0 35 10q12 5 24 11t25 14q40 26 80 62.5t75 79.5q2 28 6 53t9.5 49t16.5 52q2 7 5.5 14.5 t8.5 16.5q3 3 6 9l-56 -31.5t-85 -55.5q-33 -24 -67 -55t-62 -68q-30 -39 -42 -77q-10 -37 2 -65q2 -4 4 -7t5 -8q1 -2 1.5 -2t1.5 -1l1 -1h1zM1002 140q23 12 48 38t48 57t43 65.5t36 69.5q8 17 14 34t8 29v3v1q-1 -5 0.5 2.5t1.5 6.5l1 9q1 5 2 9t1 9q2 8 2 17v17 q2 66 -36 108q-19 22 -48.5 39.5t-65.5 30.5q-35 13 -72.5 19t-76.5 7q-78 2 -156.5 -16.5t-150.5 -50.5q-73 -32 -138 -76.5t-119 -98.5t-93 -116.5t-58 -129.5q-20 -68 -17.5 -131.5t37.5 -108.5q17 -23 41 -40t51 -28q27 -12 56.5 -19t58.5 -10q38 -5 76 -5t74 3h-6 q-31 2 -61 13q-16 6 -30 15t-26 20l-10 11.5l-10 11.5l-9 12l-3 6q-1 1 -1.5 2t0.5 0l-2 3q-6 10 -10.5 21t-9.5 22q-16 46 -13 95q3 44 19 84q15 38 35.5 67t41.5 53q45 48 90 79.5t89 54.5q73 38 123.5 48t79.5 8q29 -3 39 -12t10 -20v-4q1 1 2 1t2 1q3 2 8 3.5t10 3.5 q10 3 22.5 4t24.5 -1q23 -4 40 -16q-6 6 -2 2.5l10.5 -9.5l12 -11.5t4.5 -4.5l3 -3q1 -2 2 -3.5t2 -3.5q9 -14 13.5 -28.5t6.5 -26.5q4 -26 1 -44.5t-7 -33.5q-4 -16 -9 -29t-11 -24q-10 -22 -21.5 -40.5l-22.5 -35.5q0 -10 1 -19t3 -17q1 0 1 1z" />
<glyph unicode="A" horiz-adv-x="1376" d="M1444 672q17 -2 24.5 -9t6.5 -15v-1q-3 -16 -33 -22q-47 -9 -111 -42q-30 -14 -63 -33l-71 -40q5 -69 4 -130.5t-4 -116.5q-3 -62 -7 -113t-8 -92q-5 -52 -24 -50q-7 0 -13.5 13t-9.5 41q-4 42 -8 93l-9 111l-10 93.5t-14 99.5l-2 -1l-46 -18l-47 -19l-98 -36.5 t-103 -35.5q-26 -9 -52.5 -16.5l-52.5 -15.5q-26 -7 -53 -13t-51 -12l-98 -21.5t-94 -19.5q-17 -4 -34.5 -7l-34.5 -6l-42.5 -73l-37.5 -63q-18 -30 -32 -47.5t-25.5 -26t-21.5 -9.5t-20 2t-17.5 10.5t-11 22t-1.5 38.5t11 60q7 30 18 63q-30 -2 -56 0q-23 1 -38 5t-24 10.5 t-13 15t-6 18.5v1q-4 21 6 38.5t51 37.5q58 27 150 55q23 51 50.5 104.5l59.5 110.5q38 68 84 136.5t103 137.5q28 35 59.5 67.5t68.5 64.5q37 31 80.5 59t103.5 42q29 7 62 6.5t65 -10.5q36 -11 62.5 -31.5t44.5 -42.5q35 -45 53 -89.5t31 -87.5q17 -63 27 -123t15 -117 q32 11 61.5 20t58.5 16q38 10 73 13.5t64 -0.5zM1056 583q4 1 7 2t7 2q-12 59 -27 117.5t-37 115.5q-14 35 -30.5 66.5t-36.5 50.5q-18 16 -31 18q-18 3 -41 -4q-24 -8 -52 -27t-55 -44q-27 -26 -52.5 -54.5t-48.5 -59.5q-48 -61 -90.5 -125t-80.5 -127l-17 -28.5t-17 -29.5 l48.5 10l50.5 10q27 5 51 9t50 9l49.5 10l50.5 10q51 11 102 23.5t102 23.5l50 11.5z" />
<glyph unicode="B" horiz-adv-x="1055" d="M969 435q2 -36 -8 -71.5t-28 -64.5q-17 -29 -39 -52t-45 -41q-47 -35 -94 -58t-94 -41q-93 -35 -178.5 -54.5t-161.5 -34.5q-34 -7 -66 -12.5l-61 -10.5q-16 -9 -35 -6q-26 -5 -49.5 -9t-44.5 -8q-59 -12 -67 3v1q-2 8 12 19.5t48 23.5q23 8 46 15q-2 5 -2.5 11.5 t-1.5 14.5q-3 45 8 107t31 133q20 72 48 148.5l57 153.5l57.5 152t51.5 142q5 14 9 27l8 26q-3 -1 -6.5 -2t-6.5 -2q-28 -10 -52.5 -21.5t-46.5 -23.5q-35 -20 -56.5 -33.5t-35.5 -19.5t-24.5 -5t-19.5 6t-14.5 14.5t-1.5 29.5q5 19 21.5 47.5t54.5 63.5q23 21 50.5 41.5 t62.5 39.5q28 14 60 27t69 21q7 6 16 6q3 0 7 -2q5 0 13 2q25 3 52.5 2.5t56.5 -6.5t59 -19.5t56 -36.5q21 -17 41.5 -39t37.5 -50t28 -62t13 -71q2 -36 -5.5 -71t-21.5 -65q-14 -32 -34 -63l18 -4t19 -4q32 -9 64.5 -24.5t62.5 -44.5q29 -27 46 -68q8 -19 11.5 -39.5 t4.5 -37.5zM814 369q13 31 9 62q-2 15 -7 23t-15 16q-11 8 -27.5 14.5t-36.5 10.5q-37 7 -79.5 6t-84.5 -9l-48 -30q-49 -29 -109 -52l-24 -9q14 -24 12 -21t-13 21l-12.5 -4l-12.5 -4l-24 -76.5l-24 -72.5l-33 -89.5t-33 -75.5q14 5 27.5 8.5t27.5 8.5q73 23 153.5 51 t161.5 67q40 20 78 43t68 52q15 14 27 29.5t19 30.5zM463 871q-5 -56 -14 -115t-22 -120l19 5.5t19 4.5q29 20 55 43t46 48q26 31 39 60.5t12 52.5q-2 23 -14 45q-6 12 -16 24t-23 24q-12 13 -36.5 20t-54.5 6h-4q0 -47 -6 -98z" />
<glyph unicode="C" horiz-adv-x="1224" d="M1224 392q3 -7 -5 -19t-30 -27l-76 -52l-93 -62l-110 -68t-128 -68t-147.5 -61t-171.5 -37q-47 -4 -95.5 -1t-100.5 21q-26 9 -52 23.5t-49 36.5q-23 20 -40 46.5t-28 55.5q-20 57 -20 111t8 102q9 49 24 93t33 86q37 83 83 153.5t97 132.5q51 61 105 111t109 88 q54 38 108 63t104 35q42 8 68.5 4.5t40.5 -11.5t18 -17t3 -20v-1q-1 -11 -5 -19.5t-15 -16.5q-10 -8 -26.5 -17l-42.5 -24q-32 -17 -70 -44.5t-80 -65t-85.5 -84t-86.5 -101.5q-44 -54 -84 -116t-72 -130q-16 -33 -28.5 -67.5t-20.5 -68.5t-9 -66t7 -55q7 -23 22 -39.5 t43 -29.5q28 -12 62.5 -17.5t69.5 -5.5q72 1 144.5 18.5t139.5 40.5q67 24 128 50t115 52l100.5 46.5l83.5 38.5q23 10 37.5 10.5t17.5 -7.5z" />
<glyph unicode="D" horiz-adv-x="1164" d="M1070 988q10 -31 13.5 -60.5t2.5 -57.5q0 -27 -2.5 -53.5t-7.5 -50.5q-9 -49 -26 -101q-17 -49 -40 -94t-52 -87q-57 -83 -125.5 -145.5t-140.5 -110.5q-71 -48 -140 -83t-132 -61q-64 -26 -119.5 -42.5t-102.5 -26.5q-38 -8 -62.5 -9.5t-39.5 1.5t-22.5 10.5t-10.5 16.5 v1q-3 10 -2 20t10.5 22t29.5 26t53 32l12 6q-5 12 -7 32q-3 39 5.5 92.5t25.5 115t41 129t51 134.5l57 132.5l55 121.5q10 18 18 38q-39 -29 -73 -61l-65 -63l-80 -87l-66 -73q-18 -20 -32 -26t-20 -1q-5 5 -2 19.5t19 39.5l54.5 83t69.5 99q40 53 90 109.5t121 107.5 q35 26 76 46.5t89 34.5q46 13 99 16q6 0 12.5 0.5t12.5 0.5q9 0 13 -1h6h4h-2h1h1q23 0 49 -3q25 -2 50.5 -6.5t52.5 -13.5q26 -8 53.5 -22t52.5 -37q25 -22 43.5 -51t28.5 -59zM445 591q-25 -101 -53 -195.5t-60 -166.5q5 2 8.5 4.5t8.5 4.5q57 30 117 65.5t121 79.5 q61 43 118 95t102 115q46 65 74 135q14 36 23 75.5t11 75.5q2 17 0.5 33t-4.5 29q-8 25 -24 42q-17 19 -49.5 31.5t-70.5 18.5q-5 1 -9.5 1.5t-9.5 1.5l-10 2h-5h-2h-1q-4 1 -3 1t0 0h-1q-18 3 -36 3q-36 1 -70 -6q-52 -9 -99 -32q-3 -31 -7.5 -66.5t-10.5 -74.5 q-11 -63 -26 -132.5t-32 -139.5z" />
<glyph unicode="E" horiz-adv-x="1291" d="M1245 1151q10 -2 15.5 -9t4.5 -15q0 -7 -5.5 -13.5t-16.5 -9.5q-34 -9 -84.5 -18.5l-111.5 -20.5l-128.5 -23l-135.5 -24l-126.5 -22t-119.5 -20q-2 -35 -6 -70q-4 -36 -9.5 -74t-13.5 -78q13 2 26.5 3t27.5 1q56 2 111 -8q26 -5 46.5 -11.5t34.5 -13.5q5 -2 7 -8.5 t1 -14.5q0 -8 -1.5 -14.5t-6.5 -9.5l-28.5 -18.5t-36.5 -21.5q-20 -12 -42.5 -24t-46.5 -23t-49 -19t-51 -11q-10 -1 -19 -1.5t-18 0.5q-23 -86 -51 -167t-58 -150q49 13 101 24t106 20q79 13 156.5 20t147.5 7q70 1 127.5 -3.5t95.5 -10.5q23 -5 23 -24q-1 -8 -6.5 -14.5 t-17.5 -8.5l-91.5 -21.5t-117.5 -29.5t-134.5 -38l-144.5 -44l-145 -44.5t-138 -37.5q-28 -7 -54 -12l-51 -10q-11 -5 -21 -3q-58 -8 -97 -5q-35 2 -48 15.5t-18 33.5v1q-5 20 0 37.5t34 37.5q33 22 80 41q10 46 28 100l39.5 113.5t46.5 121.5l51 125l61.5 154t53.5 145 q2 8 5 15t5 15q-32 -3 -60 -3.5t-51 1.5q-31 4 -43.5 17t-17.5 33v1q-5 21 -0.5 38.5t31.5 35.5q32 23 84.5 41t117.5 32q3 11 10 16t15 4q10 -1 16 -12q55 9 114 14.5t119 7.5q73 2 144.5 -1.5t134 -9.5t114 -13.5t86.5 -13.5z" />
<glyph unicode="F" horiz-adv-x="1164" d="M1101 1165q23 -5 21 -24q0 -17 -22 -23q-34 -9 -83 -19.5l-108.5 -23.5l-125 -27t-132.5 -30l-88 -21l-85 -20l-6 -33t-7 -35l-12.5 -68l-13.5 -72q29 6 58.5 10.5t58.5 9.5l109.5 13.5t103.5 11t89.5 7.5l67.5 5q8 0 14.5 -5t8.5 -13q2 -7 0 -14.5t-10 -13.5 q-23 -16 -59.5 -36t-81.5 -41t-96.5 -42t-105.5 -39q-52 -17 -102.5 -31.5t-98.5 -24.5q-19 -81 -42 -160t-51 -148q-29 -74 -60.5 -132t-63.5 -93q-26 -29 -45 -31.5t-37 6.5h-1q-20 10 -29 26t-4 53q6 45 23.5 104l40.5 131l39.5 115.5l43.5 123.5q-15 7 -22 19t-11 28v1 q-6 20 -3.5 37t22.5 34q27 22 73 41l45 116l44 107l2 4l2 4q-48 -9 -89 -14t-73 -3q-31 2 -43.5 14t-19.5 32q0 1 -1 1q-7 20 -4 38t29 38q45 35 125.5 63.5t180.5 45.5q6 11 14 14t16 0q4 -1 8 -7q30 5 60.5 8t61.5 5q72 6 143 5.5t133.5 -4.5t113.5 -10.5t85 -12.5z" />
<glyph unicode="G" horiz-adv-x="1339" d="M1222 1033q29 -19 40 -34.5t8 -22.5q-1 0 -1 -1q-9 -12 -75 20q-51 24 -117 45t-145 25q-79 5 -165 -14.5t-169 -67.5q-82 -48 -153 -121t-118 -166q-23 -46 -37.5 -95t-17.5 -98t7.5 -93t35.5 -79q12 -18 27.5 -33t34.5 -29l18.5 -12t20.5 -11q3 -2 5.5 -3t5.5 -3l5 -2 h1l2 -1l11.5 -4l11.5 -4q48 -16 101 -25t105 -11q53 -3 103 0t95 14t80.5 29t55.5 42q11 12 18 25.5t12 29.5q4 14 6 33q1 3 1 9v2l1 1v1v2v9t-1 9q-2 35 -12 54q-8 19 -29 34q-20 14 -51.5 22.5t-63.5 12.5q-33 5 -65 6t-61 3q-98 3 -132 17q-17 8 -23.5 16.5t-6.5 19.5v1 q0 11 5.5 20t21.5 17q16 9 45.5 18t80.5 19q31 6 66.5 10.5t77.5 4.5q44 2 90 -7q25 -4 51.5 -12t53.5 -24q27 -15 52 -39t42 -54q18 -31 27 -63t12 -63q1 -8 1.5 -15.5t0.5 -15.5v-4v-5v-2v-7q-1 -5 -1 -8.5t-1 -7.5q-1 -17 -3.5 -33t-7.5 -33q-17 -68 -66 -126 q-23 -28 -51.5 -50t-59.5 -38t-62.5 -26.5t-63.5 -18.5q-64 -15 -127.5 -18t-126.5 2q-63 6 -126 18t-127 35l-16.5 6.5t-16.5 7.5q-4 2 -3 1.5t0 -0.5l-1 1l-2 1l-4 2l-8 4q-8 3 -16 8q-32 18 -61 40q-29 23 -54 51.5t-45 60.5t-32.5 68t-19.5 72q-6 36 -6.5 71.5t4.5 70.5 q9 69 32.5 130.5t55.5 116.5q66 109 156.5 188.5t192.5 127.5t204.5 60t191.5 -4q89 -14 157 -46t118 -64z" />
<glyph unicode="H" horiz-adv-x="1255" d="M1196 499q2 -7 -3 -15t-18 -13q-16 -8 -36 -15.5l-43 -15.5q-12 -63 -25.5 -121.5t-27.5 -112.5q-20 -72 -39.5 -130t-40.5 -97q-17 -32 -34.5 -39t-37.5 -4h-1q-21 4 -34.5 16.5t-18.5 50.5q-5 46 1.5 109t21.5 137q7 32 15.5 66l17.5 69q-61 -14 -126 -24.5t-132 -18.5 q-68 -8 -135 -12t-130 -5l-24 -69q-23 -63 -40 -114.5t-34 -88.5q-14 -30 -30 -39t-37 -8q-22 1 -37.5 11.5t-23.5 48.5q-9 45 -3.5 109.5t26.5 137.5q4 8 7 22q-28 3 -52 8t-44 11q-35 11 -44.5 27t-9.5 37q0 22 9.5 37.5t44.5 27.5q32 10 73 16t91 10q11 25 23 49.5 l24 48.5l69.5 140.5t60.5 131.5t42 116t23 91q2 11 9.5 17.5t15.5 5.5q7 0 13.5 -6t9.5 -20q7 -41 7 -102t-11 -134t-33 -151t-48 -155q-2 -7 -4.5 -13t-4.5 -13q46 0 93.5 -0.5t95.5 -0.5q79 -2 155.5 -2.5t145.5 0.5l15 51l44.5 158.5t38.5 148.5t28 129.5l18 98.5 q2 12 9 18.5t15 6.5t14.5 -6.5t8.5 -20.5q8 -42 14 -103.5t6 -137.5q-1 -76 -8 -160t-21 -170q0 -2 -0.5 -4.5t-0.5 -4.5q17 1 31.5 1t26.5 1t19.5 -4.5t9.5 -13.5z" />
<glyph unicode="I" horiz-adv-x="788" d="M765 1074q2 -7 2 -13.5t-5 -11.5q-11 -12 -31.5 -26t-47.5 -25q-54 -25 -119 -34q-4 -1 -7.5 -1t-7.5 -1q-2 -23 -4 -49t-7 -54q-10 -66 -27.5 -137.5t-39.5 -143.5t-44.5 -138.5l-42.5 -125.5l-30.5 -85.5t-28.5 -70.5q17 -6 31 -11.5t25 -10.5q7 -4 9 -23q1 -8 0 -14.5 t-5 -9.5q-11 -10 -27.5 -20.5t-36.5 -20t-43.5 -18t-47.5 -14.5q-49 -12 -93.5 -8.5t-67.5 29.5q-10 11 -13 27t-3 37q0 22 3 38t13 27q18 20 46.5 26t62.5 2q0 38 6.5 82.5t20.5 93.5q18 66 46 134.5t60 135.5l62.5 131l55.5 121l15.5 36.5l14.5 34.5q-32 5 -58 16t-41 29 q-11 14 -11.5 30t4.5 36v1q4 21 10 36t20 24q16 10 37 14t45 3t50 -6t53 -11l52.5 -12.5l50.5 -12l44 -10t35 -6.5q4 -1 8 -6.5t7 -13.5z" />
<glyph unicode="J" horiz-adv-x="1157" d="M1122 1026q4 -2 6 -8.5t2 -14.5q-1 -8 -2.5 -14.5t-6.5 -9.5q-23 -14 -65 -31t-89 -27q13 -63 19.5 -155t-7.5 -207q-8 -58 -24 -120t-47 -125q-16 -32 -35.5 -62t-44.5 -58q-6 -7 -12.5 -13.5l-13.5 -13.5q-3 -3 -6.5 -6t-6.5 -6l-2 -2h-1q1 0 0 -0.5t2 1.5h-1l-3 -3 l-6 -6q-13 -12 -26.5 -22.5l-27.5 -21.5q-57 -42 -124.5 -69.5t-139.5 -31.5q-36 -2 -71.5 2.5t-67.5 15.5q-63 22 -114 62q-49 38 -80 83t-50 88t-28 81t-13 69q-3 38 16 40q8 1 16 -7t15 -25q11 -26 26.5 -58t38.5 -64q23 -33 54.5 -63.5t70.5 -51.5t83.5 -28.5t90.5 1.5 q45 8 88.5 32t82.5 59l19.5 18t18.5 19l5 5l1 1v1q-1 -1 -0.5 -1t1.5 1l2 2l2 2q6 6 8 9q8 8 16 19q14 19 26 39.5t23 43.5q20 45 32.5 94t20.5 98q16 94 23.5 177.5t18.5 145.5q-23 2 -42 9t-32 20q-12 11 -15 27t-4 37q0 22 3.5 38t15.5 27q18 18 47 24.5t63.5 4.5t71 -10 t71 -18.5t62.5 -22t46 -20.5z" />
<glyph unicode="K" horiz-adv-x="1036" d="M1030 1017q2 -7 -1 -15t-13 -14l-70 -45.5t-89 -64.5q-47 -36 -96.5 -80l-101.5 -92q-15 -15 -31 -29.5l-32 -28.5q21 -22 41 -52t39 -66q24 -45 46 -95.5l45 -99.5q23 -50 48.5 -94.5t54.5 -81.5q28 -38 56.5 -65.5t49.5 -44.5q6 -5 7 -13t-2 -15t-10 -11.5t-17 -2.5 q-29 5 -72 21t-90 48q-48 31 -92 75.5t-80 95.5q-37 51 -65 102.5t-48 99.5q-23 53 -35 95q-5 -5 -10.5 -8.5t-10.5 -7.5q-38 -28 -74 -49t-68 -34q-10 -62 -21 -120.5t-23.5 -110.5t-26.5 -94.5t-29 -73.5q-17 -33 -34 -40.5t-37 -4.5h-1q-21 4 -35 16t-20 49 q-6 45 -3 107.5t14.5 137t29.5 156t41 163.5q22 82 48.5 161.5t52.5 149.5t49.5 126.5t41.5 93.5q5 11 13.5 15t16.5 2q16 -5 15 -32q-3 -36 -8.5 -86t-13 -110l-16.5 -128l-19 -139l99 78.5t111 79.5q61 42 124.5 77t124.5 60q60 25 112.5 37.5t87.5 17.5q11 2 18 -3t9 -13 z" />
<glyph unicode="L" horiz-adv-x="782" d="M757 152q8 -9 9.5 -18t-0.5 -20q-3 -22 -17.5 -35t-57.5 -24q-26 -8 -58.5 -15.5l-73.5 -16.5l-88.5 -17t-110.5 -9q-31 1 -67 6.5t-74 24.5q-38 18 -69 51q-15 16 -26.5 33t-20.5 36q-18 36 -26 71.5t-10 69.5t-1 66t4 64q8 63 21.5 121.5t30.5 113.5q17 56 35.5 107 t38.5 98q38 95 75.5 169.5l63.5 123.5q8 15 17.5 20.5t17.5 2.5q6 -3 9 -13.5t-1 -28.5l-33 -134.5t-42 -176.5q-11 -48 -21 -99t-19 -104q-8 -54 -14 -107.5t-8 -105.5q0 -26 1 -51t5 -48q3 -23 9 -42.5t14 -33.5t15.5 -21.5t18.5 -12.5q23 -12 62 -13q40 -2 85 1.5t87 5.5 q43 2 82 0.5t71 -8.5q26 -5 42 -13.5t24 -17.5z" />
<glyph unicode="M" horiz-adv-x="1310" d="M1241 837q3 -125 -14.5 -234.5t-43.5 -203.5q-26 -95 -53 -172.5l-50 -139.5q-14 -37 -26.5 -54.5t-19.5 -14.5t-7.5 25t10.5 64l35 142t35 173q17 94 24.5 198t-3.5 217q-4 29 -6.5 58t-7.5 56q-2 14 -5 26t-7 22q-2 3 -2.5 5.5t-2.5 4.5q-1 -1 -1.5 -1t-1.5 -1 q-2 -1 -4 -1.5t-4 -2.5q-1 -1 -1.5 -1t-1.5 -1q1 0 -1 -2t-4 -6q-6 -9 -12 -21.5t-12 -26.5q-12 -27 -24 -57l-46.5 -123t-52.5 -127q-14 -33 -30.5 -65.5t-39.5 -66.5q-11 -17 -24.5 -33.5t-32.5 -33.5q-10 -8 -21.5 -16t-25.5 -16q-14 -7 -32 -11.5t-37 -5.5q-41 0 -71 16 q-8 3 -14 6.5t-11 7.5h-2q0 1 -1 1q1 0 1 -1v1l-3 2q-2 1 -3 2t-3 2q-4 3 -10 9q-5 5 -8.5 9.5l-7.5 9.5q-13 19 -18 34.5t-8 28.5q-3 14 -4.5 25t-2.5 22q-2 42 0 77.5l4 70.5l6 67.5t5 64.5t2 62t-2 56q-3 27 -9 45q-2 8 -4.5 12t-3.5 6h-3q-6 1 -8.5 1t-7.5 -2 q-9 -3 -23.5 -15.5t-28.5 -31.5q-14 -20 -27 -42t-25 -46q-23 -49 -41 -99.5t-34 -101.5t-29 -99.5t-24 -95.5q-23 -94 -40.5 -175l-31.5 -148q-12 -55 -21.5 -88.5t-18.5 -51.5t-18 -24.5t-20 -6.5t-20 7.5t-16 27.5t-11 56.5t-3 95.5q2 71 9.5 157t24.5 186 q8 50 19.5 102.5t25.5 108.5q15 56 34 113.5t47 117.5q14 30 31 60.5t40 61.5q24 31 55 60q17 14 38 27.5t47 22.5q27 10 55 11q15 1 28 0h8q-1 0 1 -0.5t4 -0.5q4 0 7 -0.5t7 -1.5q29 -4 59 -20t50 -39q22 -24 33 -48.5t17 -46.5q7 -23 9.5 -43t4.5 -40q3 -39 1.5 -75.5 t-4.5 -71.5t-6.5 -69t-7.5 -67q-4 -32 -6.5 -63.5t-0.5 -56.5v-1q7 7 14 15.5l15 18.5q17 23 32 50t29 56q29 57 55 117.5t55 121.5q7 16 14.5 31l15.5 31t17 32t23 34q7 10 17 19q2 3 5.5 6t7.5 6q4 4 9 5q2 2 2.5 2t2.5 1q19 11 41 18q11 4 25.5 6.5t31.5 0.5q17 -1 34 -8 t29 -18q13 -11 21.5 -22.5t13.5 -22.5t8.5 -20.5t6.5 -19.5q5 -19 7.5 -36t4.5 -34q3 -34 3.5 -64t1.5 -60z" />
<glyph unicode="N" horiz-adv-x="1212" d="M1147 1076q17 -5 8 -78q-5 -57 -12 -128.5t-18 -156.5t-29 -180t-53 -199q-18 -52 -43 -104.5t-65 -103.5q-20 -25 -45.5 -48t-57.5 -42q-16 -9 -33 -16t-35 -12q-9 -3 -18 -4.5t-19 -3.5q-21 -4 -48 -1q-26 2 -51.5 14.5t-42.5 29.5q-19 18 -30.5 36.5t-19.5 37.5 q-16 36 -22.5 70t-10.5 68l-3 33v17q0 9 -1 14q0 14 -0.5 28.5t-1.5 29.5q-2 29 -4.5 58t-4.5 58q-5 58 -12 115.5t-15 114.5q-9 56 -20.5 110t-28.5 99q-2 8 -4 11q-24 -32 -44 -71.5t-37 -81.5q-35 -90 -57 -179t-34 -170q-13 -81 -17.5 -150.5t-4.5 -126.5 q1 -48 1.5 -76.5t-1.5 -46.5q-3 -17 -9 -25.5t-16 -12.5h-1q-10 -4 -20.5 -2t-24.5 17t-28.5 45.5t-27.5 84.5q-15 64 -20.5 143t0.5 171q8 91 27 191.5t60 207.5q20 54 48 107q14 27 30.5 53.5t39.5 55.5q12 14 27 29t41 30q12 7 29 13t38 7q21 2 42.5 -3.5t37.5 -14.5 q16 -10 27 -20t19 -20q9 -10 15 -19.5t11 -18.5q11 -18 18 -34.5t12 -33.5q22 -65 32.5 -125.5t18.5 -122.5t12.5 -122.5t6.5 -121.5q3 -62 3 -122q0 -15 0.5 -30.5t-0.5 -31.5v-8v-6v-14v-25q2 -26 5.5 -49.5t10.5 -41.5l7.5 -14.5t6.5 -8.5q2 -3 3 -4t6 -2q4 -1 12 0 q5 0 10 1l10 2q19 4 38 14q19 9 36 23t33 31q32 35 56.5 78t44.5 88q39 91 64 181.5t44 171.5t33.5 151.5t28.5 127.5q8 32 18 49t18 15h1v0z" />
<glyph unicode="O" horiz-adv-x="1055" d="M976 725q6 -99 -15.5 -202t-76.5 -202q-27 -49 -63.5 -94t-82.5 -83q-45 -38 -98.5 -66.5t-110.5 -46.5q-55 -17 -117 -25q-32 -3 -67.5 -1t-73.5 15t-70.5 38t-54.5 57q-22 31 -34 63t-19 64q-13 63 -11.5 119t9.5 110q8 53 21 102t29 96q32 93 74.5 171.5t92.5 144.5 q49 65 103.5 113t109.5 75q47 23 79.5 26.5t50.5 -1.5t24 -14t7 -20t-3 -20t-15 -20q-11 -10 -29 -23t-46 -37q-2 -2 -4 -3.5t-4 -3.5q19 9 40 16t46 11q35 5 76 -1.5t79 -31.5t65.5 -61.5t46.5 -79.5q36 -85 42 -185zM862 727q1 41 -4 79.5t-16 73.5t-29 62.5t-41 45.5 q-23 19 -50 26.5t-54 6.5t-52 -8t-47 -15q-40 -17 -55 -14q-33 -40 -67 -96q-36 -59 -69.5 -129.5t-59.5 -151.5q-13 -40 -23.5 -81.5t-16.5 -84.5t-7.5 -85t6.5 -79q4 -18 9 -33t13 -26q14 -19 35 -29q26 -10 64 -7q46 5 87 15q86 21 157 74.5t120 128.5q48 75 73 160 t27 167z" />
<glyph unicode="P" horiz-adv-x="1133" d="M1054 904q2 -48 -13 -90.5t-38 -74.5q-23 -33 -48.5 -59t-52.5 -47q-54 -42 -109 -71t-109 -52q-107 -43 -198.5 -62.5t-156.5 -21.5h-8l-23.5 -88l-22.5 -84l-36 -120t-36 -91q-15 -31 -32 -38.5t-38 -4.5q-21 2 -36 13.5t-21 47.5q-8 44 -3.5 105.5t20.5 133.5 t41 148.5t57 152.5q39 95 83.5 182t84.5 157q-33 -5 -62.5 -10t-54.5 -7q-26 -3 -43 -2.5t-28 4.5t-17.5 11t-10.5 17q-5 10 -5.5 20t5.5 21t19.5 23t38.5 27q59 35 151 66.5t210 48.5q30 4 61 6.5t64 2.5q33 1 68 -2t72 -11t77.5 -24.5t77.5 -52.5q9 -9 17.5 -19t15.5 -21 l13 -23l4 -10.5l4 -10.5q8 -21 13 -44t5 -46zM807 744q19 19 34.5 39.5t26.5 40.5q20 38 15 72q-1 8 -3.5 16t-6.5 16q-2 5 -3.5 7.5t-3.5 4.5t-4 3.5t-4 3.5q-20 16 -69 26q-48 8 -101 6.5t-104 -6.5l-62.5 -8l-59.5 -8q-20 -84 -49.5 -191.5l-59.5 -220.5q-5 -17 -9 -35 t-9 -35q57 17 135 51.5t166 86.5q45 28 89 60.5t82 70.5z" />
<glyph unicode="Q" horiz-adv-x="1369" d="M1194 419q-34 -46 -73.5 -87.5t-84.5 -79.5q-29 -24 -60 -46.5t-63 -42.5q5 -2 9.5 -3.5t9.5 -3.5q22 -7 46 -12l47 -10q47 -8 87.5 -14t67.5 -11q8 -2 12.5 -8t5.5 -14q0 -8 -3.5 -14.5t-12.5 -10.5q-27 -10 -67 -21.5t-92 -19.5q-26 -5 -54.5 -7.5t-60.5 -1.5 q-32 2 -67.5 9t-71.5 27q-20 10 -36 24q-29 -12 -59.5 -21.5t-61.5 -17.5q-60 -15 -123 -21q-32 -3 -64 -3.5t-65 2.5q-34 4 -69 12.5t-70 26.5q-36 17 -67.5 47t-51.5 68t-26.5 75.5t-6.5 72.5t5 67t13 61q15 60 37 111t48 99q52 94 111 170t120 137q60 62 120 107t116 74 q46 24 78.5 31.5t52.5 5.5q19 -2 27 -9.5t10 -17.5v-1q3 -11 0.5 -20.5t-13.5 -22.5q-11 -12 -31.5 -28.5l-53.5 -44.5q-40 -35 -86 -82t-96 -107q-49 -60 -98.5 -130.5t-91.5 -152.5q-21 -41 -39 -83t-29 -85t-11.5 -82t11.5 -61q6 -11 15 -20t23 -17t33.5 -13t42.5 -8 q44 -6 96 -3q25 2 49.5 5t49.5 8q15 3 29.5 6.5t29.5 7.5q-7 20 -11 38t-6 35q-8 57 -3 101t17 74q11 25 27 32t36 7h1q22 0 37.5 -6.5t27.5 -29.5q14 -27 23 -65l18 -80l9 -36q36 19 70 40t66 45q82 60 145.5 133t95.5 154q16 41 21 80.5t-3 75.5q-7 37 -25 69t-42 58 q-25 26 -53 46t-56 37q-29 16 -55.5 28t-51.5 21q-29 11 -44 21t-13 18v1q2 7 20.5 9.5t54.5 -5.5q28 -7 58.5 -16t62.5 -23q33 -14 67.5 -34.5t67.5 -49.5q34 -29 62 -70t42 -92q14 -52 11.5 -107t-18.5 -108q-17 -54 -43 -103t-59 -94z" />
<glyph unicode="R" horiz-adv-x="1079" d="M1008 984q9 -32 11 -64.5t-3 -63.5q-8 -61 -33.5 -115.5t-67.5 -100.5l-11 -10.5l-12 -11.5l-2 -2l-1 -1l2 2l-1 -1l-6 -5q-3 -4 -11 -10q-24 -21 -48 -35q-25 -17 -51.5 -29t-52.5 -21q-35 -11 -68.5 -17.5t-66.5 -10.5q35 -37 62 -74q23 -34 40.5 -67.5t31.5 -65.5 q27 -65 42 -121.5t23 -102.5q5 -27 2 -42.5t-11 -16.5q-16 -4 -37 51q-16 42 -38 93.5t-54 107.5q-32 55 -77.5 108t-108.5 87q-45 24 -101 37q-19 -71 -40.5 -139t-44.5 -127t-47.5 -107t-49.5 -78q-21 -26 -38.5 -29t-37.5 4h-1q-20 8 -31.5 21.5t-12.5 47.5q0 40 12 93.5 t32 116t46 131t55 137.5l18 43.5t19 42.5l57.5 130l54.5 115l-36 -23.5l-32 -22.5l-47 -35t-31 -19t-23 -5.5t-19 5.5h-1q-9 5 -15.5 14t-4.5 26t13 43.5t38 61.5q32 42 80.5 85.5t113.5 82.5q33 20 69.5 37.5t78.5 31.5t89 23t101 7q27 -2 55.5 -7.5t57.5 -16.5 q29 -12 56 -30t49 -42q23 -24 39.5 -54t25.5 -62zM831 880q2 31 -5 53t-22 39q-31 33 -91 37q-29 2 -61.5 -3t-64.5 -13q-62 -18 -120 -46q-5 -2 -8.5 -4t-8.5 -4q-7 -58 -20 -137t-33 -167q28 1 55 2.5t53 4.5q43 5 84 13.5t76 23.5q34 13 64 35q17 12 27 22l6 6l2 2 q-2 -2 1 0.5t2 2.5l1 1l3 3l5 5t5 6q21 26 34.5 57.5t15.5 60.5z" />
<glyph unicode="S" horiz-adv-x="1175" d="M1102 491q4 -43 -5 -84q-10 -39 -27 -70.5t-37 -57.5t-42 -48t-45 -41q-47 -38 -101 -65q-23 -12 -47 -22.5l-48 -20.5q-95 -39 -191 -59t-188 -13q-23 2 -45 5.5t-43 8.5q-11 3 -21 6l-20 6q-21 7 -44 19q-42 24 -68.5 57.5t-40.5 66.5q-11 29 -14 52.5t-1 41.5 q1 18 5 31t9 22q11 17 21 20t20 1h1q20 -4 32 -29q7 -14 14.5 -34.5t26.5 -46.5q12 -15 27.5 -27t34.5 -18q6 -2 10 -3q2 -1 4 -1t7 -1q7 -2 14 -2.5t15 -2.5q15 -2 30.5 -2.5t32.5 0.5q66 1 143 20.5t159 55.5l40.5 18.5t41.5 20.5q34 17 67 44t56 57q12 15 19.5 30 t10.5 27t2.5 20t-5.5 19q-5 10 -16 22t-25 21q-29 20 -72 30t-94 14t-105.5 5t-116.5 9q-32 5 -66 14.5t-69 34.5q-17 13 -32.5 31t-25.5 41t-12 45t0 42q5 39 18 69.5t30 56.5q16 26 34 48t37 42q39 39 82 71t91 56q24 12 49.5 21t54.5 13q4 0 7.5 0.5t7.5 0.5q5 1 13 1h12 t13 -1q12 0 24 -1t24 -3q48 -6 91 -22t79 -40t62.5 -54.5t43.5 -63.5q17 -32 24 -64t8 -60q2 -32 -5.5 -49t-15.5 -17h-1q-13 1 -25 65q-5 24 -14.5 49.5t-26.5 48.5q-17 24 -40.5 44.5t-54.5 35.5q-30 14 -65 22.5t-73 9.5h-19.5t-19.5 -1q-5 -1 -10 -1t-10 -1t-8 -1.5 t-7 -1.5q-34 -10 -68 -32q-35 -22 -67.5 -51.5t-61.5 -64.5q-14 -17 -26.5 -35.5t-21.5 -37.5q-10 -18 -15.5 -36t-4.5 -30q0 -9 4 -13l3 -3t7 -4q10 -5 28 -9.5t40 -6.5q47 -3 100.5 -1t112.5 0q29 -2 59.5 -4.5t62.5 -9.5q32 -6 65 -18t65 -32t59 -46.5t48 -64.5 q20 -39 25 -84z" />
<glyph unicode="T" horiz-adv-x="1115" d="M1070 1113q11 -2 16.5 -8.5t5.5 -14.5t-6 -14.5t-18 -9.5q-35 -8 -87 -16.5t-114.5 -16t-133 -14t-143.5 -10.5q-5 -23 -11 -46.5t-11 -48.5q-17 -72 -34 -152.5t-37 -164.5q-19 -84 -40 -165.5t-47 -154.5q-26 -72 -54 -130.5t-57 -95.5q-24 -29 -42.5 -33t-37.5 4l-1 1 q-20 8 -30.5 23.5t-7.5 52.5q3 45 17 104.5t34 131.5q21 72 47 151l55 160q30 82 62.5 160.5t65.5 147.5q7 13 13 25.5t13 24.5q-65 -2 -127 -1.5t-116.5 4t-100 11t-78.5 18.5q-32 11 -41 27t-9 36v1q0 22 9 37.5t41 26.5q40 14 98.5 20.5t128 7.5t146.5 -3.5t155 -11.5 q12 7 21 1q2 0 5 -3q69 -7 136 -15t125.5 -16.5t107.5 -16.5t82 -14z" />
<glyph unicode="U" horiz-adv-x="1067" d="M968 1130q13 -41 21.5 -95.5t10 -118.5t-6.5 -136.5t-28 -149.5t-53 -156t-83 -155q-51 -76 -120.5 -144t-161.5 -113t-195 -56q-29 -3 -63 0.5t-67 18.5q-34 14 -60 39t-43 51q-17 27 -27 53.5t-17 52.5q-6 25 -9 49t-5 47q-3 47 -1 89.5t7 84.5q10 81 27 152.5 t38 134.5q20 63 43.5 114t47.5 92q20 33 36.5 51.5t30.5 26.5t24 6.5t19 -6.5v-1q9 -6 14.5 -14t7.5 -22q1 -14 -2.5 -35t-11.5 -56l-21.5 -91.5l-24.5 -110.5q-13 -59 -24 -125t-18 -137q-3 -35 -4 -71t1 -71q2 -34 9 -65t18 -49q6 -9 11 -13.5t11 -8.5q6 -3 15.5 -5 t25.5 0q69 3 138 32q68 28 127 77.5t107 110.5q48 60 84 127t62 134q26 68 40.5 132.5t21.5 123.5q8 59 7 109.5t-6 90.5q-6 47 10 54h1q7 2 17 -9t19 -39z" />
<glyph unicode="V" horiz-adv-x="1067" d="M1044 1174q7 -3 9 -17.5t-5 -42.5q-20 -83 -55 -203.5t-91 -264.5q-29 -72 -63 -147t-77 -152l-47.5 -76t-53.5 -76q-30 -37 -65 -72.5t-83 -64.5q-24 -14 -52.5 -25.5t-60.5 -16.5q-67 -11 -131 14l-18 7.5t-22 13.5q-10 7 -17.5 14t-13.5 14q-12 14 -20.5 27t-15.5 26 q-14 25 -22.5 47.5l-16.5 45.5q-29 90 -43 173t-24 161q-18 157 -20 286t8 220q4 37 10 59.5t13.5 35.5t16.5 17.5t20 4.5h1q10 0 19.5 -4t17.5 -16t15.5 -34.5t14.5 -58.5q17 -87 32.5 -212.5t37.5 -274.5q11 -74 24.5 -151.5t34.5 -150.5l12 -34t13 -30q3 -6 6 -11t5 -7 v-1q11 -4 20.5 -6t20.5 0q23 2 51 17q29 15 57.5 39.5t54.5 53.5q27 29 51.5 61l47.5 65q46 67 85.5 135.5l74.5 134.5q70 133 121 246l84 190q10 23 20.5 33.5t18.5 7.5z" />
<glyph unicode="W" horiz-adv-x="1255" d="M1237 1170q7 -3 8 -21.5t-7 -55.5l-27 -125.5t-35 -151.5t-45.5 -173.5t-63.5 -190.5q-19 -49 -42 -99.5t-52 -101.5q-14 -25 -31 -50t-37 -50q-20 -24 -44 -47t-55 -43q-30 -20 -67 -33.5t-78 -15.5h-20.5t-20.5 1q-10 2 -21 3.5t-22 5.5q-22 7 -45 20.5t-40 33.5 q-18 20 -28.5 41.5t-15.5 41.5q-3 8 -4.5 16.5t-3.5 16.5q-11 -15 -23.5 -30.5t-28.5 -30.5q-16 -14 -36.5 -28t-50.5 -22q-30 -10 -64 -5q-16 2 -30.5 7t-27.5 11q-24 13 -41 29l-4 3l-1 1l1 -1l-2 2l-9 9q-4 4 -7.5 8l-7.5 9q-14 17 -23.5 34t-16.5 33q-14 32 -22.5 62.5 t-13.5 59.5q-10 58 -13 110.5t-3 103.5q1 51 3.5 97.5t7.5 90.5q10 88 25 162.5t33 134.5q15 49 29.5 78.5t28.5 44.5q13 14 23.5 16.5t20.5 -1.5q11 -5 17.5 -13t8.5 -25q3 -17 2.5 -47t-4.5 -78q-5 -58 -9 -129.5t-6 -154.5q-1 -42 -1 -85.5t2 -89.5q2 -45 6.5 -91 t13.5 -91q5 -22 10.5 -42.5t13.5 -37.5q9 -17 14 -24l3 -3h1q1 0 3 2q11 11 24.5 29t25.5 40q13 22 23.5 44.5t21.5 48.5l10 25l10 26q2 7 5 13.5t5 13.5q2 6 5 14t7 17l8.5 19.5t12.5 21.5q2 2 3.5 5t3.5 5l4 5l1 1q5 20 27 27t46 5.5t43.5 -10t21.5 -18.5q9 -11 12 -17.5 t3 -7.5q3 -8 3 -9l2 -8q1 -3 1 -5q1 -3 1 -7q1 -3 1 -5.5t1 -4.5q2 -18 2 -33t1 -31q2 -30 2.5 -60t1.5 -59v-61q0 -18 -0.5 -31t0.5 -24q0 -12 1 -22.5t3 -18.5q4 -13 9 -20l4.5 -4.5t8.5 -4.5q3 -2 7 -2.5t8 -1.5q5 0 9.5 -0.5t9.5 -0.5q34 0 72 21q38 23 71 60t62 79 t53 87l46 90q43 91 76 177.5l61 164.5t50 145.5t42 121.5q11 31 22.5 46.5t19.5 13.5q1 0 1 -1z" />
<glyph unicode="X" horiz-adv-x="1128" d="M1123 1156q10 -14 -11 -41l-82.5 -102l-108.5 -135l-125 -159l-134 -171l-12 -15l64.5 -133.5l57.5 -125.5l59 -131l46 -99q6 -11 4 -20.5t-8 -14.5q-7 -4 -16 -2t-20 13q-32 32 -74 83l-90 115l-65 89.5l-66 95.5l-81.5 -92l-80.5 -84q-70 -70 -135 -122t-117 -79 q-21 -11 -36.5 -15.5t-27 -3.5t-19.5 6.5t-14 13.5h-1q-14 17 -13.5 37.5t26.5 58.5q32 46 84.5 105l117.5 129l91.5 98.5l98.5 103.5l-80 115l-76 105l-83.5 112t-61.5 89q-20 32 -18 51t15 36h1q14 17 32.5 22t56.5 -14q45 -22 98.5 -68.5t107.5 -112.5q37 -45 71 -95.5 t66 -105.5l140 139l136 126q73 65 135.5 114t107.5 80q13 9 24 9.5t16 -5.5z" />
<glyph unicode="Y" horiz-adv-x="818" d="M708 1146q6 10 14.5 14t16 1.5t11.5 -11.5t1 -24q-10 -44 -33 -105t-61 -132q-20 -35 -43.5 -71.5t-53.5 -73.5q-31 -35 -69 -69.5t-93 -59.5q-25 -11 -58 -19q6 -45 10 -93t5 -99q0 -58 -5.5 -114.5t-18.5 -107.5t-32 -91t-41 -63q-19 -20 -36 -20.5t-36 6.5q-1 0 -1 1 q-20 8 -32.5 19t-15.5 36q-5 29 -1.5 67t11.5 83l17.5 95l19.5 104l18 94l17 90l-9 3.5l-9 3.5q-36 16 -64 42q-28 27 -42.5 57t-22.5 56t-11 50.5t-5 46.5q-2 45 0.5 83t7.5 70q10 64 24 105q5 17 10.5 27t13.5 16q12 11 34 16h1q11 2 20 1.5t18 -6.5q19 -13 31 -52 q7 -24 11 -53t6.5 -60.5t4.5 -65t5 -66.5q2 -17 4.5 -32t5.5 -27q6 -21 12 -28q6 3 14 3q7 0 13.5 -4.5t9.5 -13.5q1 -1 1 -2t1 -3q7 0 15 1t17 4q29 8 60.5 28t60.5 44q29 26 56 53.5l52 54.5q48 56 84.5 106t58.5 85z" />
<glyph unicode="Z" horiz-adv-x="800" d="M733 995q2 -29 -1 -53.5t-9 -47.5q-12 -45 -30 -83t-39 -73q-42 -70 -91.5 -132t-102.5 -120q-12 -15 -26 -29l-6 -7l-2 -2v-1l-1 -1l-2 -2l-4 -3q-4 -4 -7 -7.5t-7 -6.5l-27 -27l-26 -26q-53 -53 -98 -104q-22 -26 -41 -53t-30 -50q-5 -11 -7 -20t-2 -11q0 -1 -0.5 -1 t-0.5 -1q3 2 2 1.5t-3.5 -2.5l-4.5 -3.5t-1 -1.5v1l2 1q0 1 1 1l2 1q2 2 1.5 1.5t0.5 -0.5q0 -3 11 -8q9 -5 21.5 -9.5t26.5 -7.5q28 -6 57 -9q29 -4 56.5 -5.5t54.5 -2.5q54 -2 99 -2t83 -1q21 -1 33.5 -7t12.5 -14v-1q-1 -8 -11.5 -14t-34.5 -11q-36 -7 -82 -15t-101 -15 q-27 -3 -57 -5.5t-62 -2.5q-16 -1 -33 -0.5t-34 2.5q-18 2 -37 5.5t-42 11.5q-11 5 -22.5 11.5t-24.5 18.5q-3 3 -6 6.5t-6 7.5l-2 3l-1 2l-1 1q-1 2 -2 3.5t-2 3.5q-8 13 -13 32q-7 32 -2.5 57.5t10.5 46.5q15 43 35 78t43 67q23 33 46.5 63.5t49.5 60.5l25.5 29.5 l24.5 28.5q5 5 11 13q1 1 1.5 2t1.5 2h1q0 1 -1.5 -1t-0.5 0l2 2q2 2 3 4t3 4l24 30l88 117.5t74 117.5q17 29 29 57t18 53q3 11 4 21t0 16v6q-2 0 -3 0.5t-3 0.5q-11 2 -23.5 4t-26.5 3q-27 2 -55 3l-54 2q-54 1 -101 1.5t-86 3.5q-65 5 -86 20.5t-20 36.5q0 11 3.5 20 t13 17.5t28 16.5t50.5 17q38 11 85.5 20t104.5 16q29 3 60 5.5t66 1.5q18 0 36.5 -1t40.5 -5q11 -2 22.5 -5t25.5 -8l14.5 -6.5t16.5 -8.5q7 -5 18 -14q4 -3 9 -9l3 -2l2 -2l1 -1v-1l3 -3q20 -25 31 -55t13 -59z" />
<glyph unicode="[" horiz-adv-x="843" d="M858 1131q1 -11 -2.5 -20.5t-14.5 -18t-31.5 -15.5t-53.5 -12q-39 -8 -86 -12t-90 -15q-21 -6 -38.5 -14t-31.5 -20q-16 -13 -28 -29q-3 -5 -6.5 -9.5t-6.5 -9.5q-2 -3 -3 -5.5t-3 -5.5q-3 -5 -2.5 -3.5t0.5 0.5l-1 -1l-1 -2l-2 -3l-3 -5q-27 -48 -48.5 -111t-39.5 -132 t-33.5 -142.5l-31.5 -149.5l-16 -76t-17 -76l-18.5 -74.5l-18.5 -72.5l-19.5 -71t-17.5 -70l-6 -20t-5 -20l100 6t93 5q54 2 101 3.5t85 0.5q23 0 34.5 -6t11.5 -14t-11 -15t-35 -12l-81.5 -16l-98.5 -20l-113.5 -23.5t-127.5 -25.5q-5 0 -9.5 -0.5t-12.5 -1.5h-6h-2h-5 q-2 1 -4 1t-4 1q1 -1 -3.5 1t-11 6t-13 9t-8.5 11q-1 2 -4 9.5t-3 8.5q-1 3 -1 9q-1 2 -1 4v3v16q1 11 2 20l2 18q2 18 4.5 36t5.5 35q5 36 10.5 72l11.5 73l12 73.5t11 74.5l10.5 74t10.5 76q10 77 22.5 153.5t29.5 153.5q18 76 42.5 149.5t66.5 143.5l6 9l2 4l2 3 q-1 -2 0 0t-2 -3l1 2q3 5 6 8.5t6 8.5l12 17.5t14 16.5q28 32 64 58q36 25 74.5 36.5t72.5 16.5q34 4 62.5 3t54.5 -3q25 -2 46.5 -5.5l41.5 -6.5q31 -6 50.5 -12.5t30.5 -14t15 -16.5t5 -19z" />
<glyph unicode="\" horiz-adv-x="522" d="M521 -30q5 -11 3.5 -20.5t-7.5 -14.5q-6 -4 -15 -2.5t-20 12.5q-32 31 -73.5 82t-84.5 118q-42 67 -82.5 146t-75.5 163t-63.5 167t-48.5 158.5t-31.5 140t-11.5 110.5q0 39 12 53.5t32 20.5q0 1 1 1q20 6 38 0.5t40 -38.5q27 -39 51.5 -100t48.5 -134.5t47 -156 l47 -166.5l48.5 -165t50.5 -151q26 -72 50.5 -129t43.5 -95z" />
<glyph unicode="]" horiz-adv-x="624" d="M569 978q5 -70 -3 -136.5t-21 -133.5q-6 -34 -14 -67l-16 -66l-8 -32.5l-8 -32.5l-4 -15.5l-4 -15.5q-2 -10 -3 -14q-1 -3 -1 -7l-1 -1q0 -2 0.5 0.5t-1.5 -5.5v-1v-2l-1 -3l-30.5 -129t-32.5 -130l-18.5 -63.5t-21.5 -63.5l-12.5 -32t-16.5 -33q-10 -19 -24 -34t-28 -27 q-29 -23 -58.5 -36.5t-56.5 -22.5q-29 -8 -55 -13.5t-51 -9.5q-49 -8 -90.5 -9.5t-74.5 -1.5q-20 0 -30.5 6t-10.5 14t9.5 15t30.5 12l70 17.5t81 24.5l44 16.5t44 19.5q21 11 40 24.5t33 28.5q4 5 6.5 8.5l5.5 7.5q-1 -1 1.5 2.5t0.5 1.5q1 1 1 3q1 2 1.5 4t2.5 5 q3 10 6.5 23t6.5 27q7 28 12 58l10 61q5 32 9 64t9 64q5 33 9.5 66.5l9.5 68.5l1 4q0 -1 -0.5 -4t-0.5 0l1 2v2q0 3 0.5 5.5t0.5 4.5l3 18q2 9 3 17.5t3 17.5l6 33l6 32l12 64.5t11 62.5q10 62 16 120t4 106q-1 24 -4.5 43t-7.5 28q-2 5 -2.5 6.5t-0.5 2.5v1q2 -2 -6 4 q-15 2 -35.5 2.5t-40.5 0.5q-20 1 -39 1t-37 1q-58 4 -81 21q-11 8 -14 17.5t-1 20.5q3 23 16 36q8 8 23 15.5t41 17.5q30 10 74 21l47 10t59 5q8 0 18 -1t23 -4q12 -3 29 -10q3 -2 6.5 -3.5t7.5 -4.5l1 -1l2 -1l2 -1q23 -14 39.5 -32t27.5 -38q22 -39 29.5 -76t10.5 -72z " />
<glyph unicode="^" horiz-adv-x="533" d="M509 685q2 -9 -3 -16t-12 -10q-8 -2 -15.5 0t-13.5 10q-20 26 -43 66.5t-48 89.5l-23 45.5l-24 46.5q-1 -1 -5 -7l-36 -46l-35 -45q-36 -43 -73 -76t-71 -49q-28 -13 -44.5 -7t-30.5 22l-1 1q-14 16 -19 32t3 41q11 30 33.5 68t54.5 83q16 23 34.5 46l39.5 48 q21 24 46 49q13 13 30 27q5 3 9.5 6.5l10.5 8.5q6 4 13.5 8t20.5 9q2 1 6 2l8 2q2 0 4.5 0.5t4.5 0.5l2 1h1q7 -2 6 -1.5t-4.5 1t-5.5 1.5t2.5 0t18.5 -5t43 -11q2 -1 2.5 -2t2.5 -2q9 -8 13 -13t6 -9q5 -8 8 -14t5 -11q8 -17 13 -36q5 -17 9 -32.5l8 -31.5q7 -31 12 -60 l10 -57q9 -54 15.5 -99t11.5 -75z" />
<glyph unicode="_" horiz-adv-x="897" d="M876 -62q9 -2 13.5 -8.5t4.5 -14t-5 -14.5t-15 -10q-40 -11 -104.5 -23.5t-142 -23t-161.5 -17t-162 -7.5t-144 6t-107 25q-26 11 -33.5 27t-7.5 37q0 22 7.5 38t33.5 27q42 18 108 24.5t144 4.5t162.5 -10t162 -18.5t142 -22t104.5 -20.5z" />
<glyph unicode="`" horiz-adv-x="376" d="M316 1204q9 -47 12.5 -91.5t4.5 -84t0 -72t-2 -54.5q0 -7 -5.5 -12t-13.5 -7t-15 0t-12 8q-14 19 -30 48t-33 64l-35 73.5l-35 76.5l-33 73.5l-30 64.5q-14 30 -24 54.5t-14 47.5q-3 18 3.5 33t19.5 31l1 1q14 17 28.5 25.5t38.5 0.5q29 -9 58.5 -36.5t52.5 -66.5 t38.5 -84.5t24.5 -92.5z" />
<glyph unicode="a" horiz-adv-x="928" d="M1010 -11q0 -9 -14 -16q-8 -4 -22 -7.5t-34 -1.5q-29 1 -62 14t-59 41q-26 27 -44.5 62t-30.5 74q-21 72 -29 151.5t-11 164.5l-37.5 -72t-41.5 -71q-29 -48 -62 -94t-72 -90q-20 -22 -42 -43t-50 -41q-14 -10 -30 -19t-36 -17t-45.5 -12.5t-56.5 1.5q-14 3 -29 9t-27 14 q-13 8 -23 17t-18 19q-16 19 -25 36.5t-15 34.5t-10.5 32.5t-7.5 30.5q-7 32 -8 64q-2 66 13.5 124t39.5 107q25 50 55 91t63 76q32 35 66 64.5t69 53.5q69 49 134.5 79t122.5 44q48 12 79 12t49 -5q17 -5 23 -13.5t7 -19.5v-1q2 -8 -1 -15q6 -5 10.5 -10t7.5 -10 q10 -15 13.5 -25.5t5.5 -20.5q4 -18 4.5 -33t1.5 -29v-27t-1 -26q-2 -51 -6 -98.5t-7 -93.5q-6 -91 -7 -173t13 -151q7 -35 18 -64t28 -49q17 -21 37.5 -32t43.5 -15q26 -5 41.5 -8.5t17.5 -11.5q0 -1 1 -1zM296 213q16 11 32 25.5t33 31.5q32 34 62.5 73t59.5 81t55 85 t49 88t42.5 89.5t30.5 87.5q2 4 2 8q-42 -23 -89 -55.5t-96 -74.5q-53 -46 -104 -105t-84 -129q-16 -35 -25 -71t-7 -71q1 -4 1 -8t1 -9q0 -2 0.5 -4t0.5 -4q1 -2 1 -5t1 -5q4 -17 9 -34q1 -2 1.5 -3.5t1.5 -3.5q5 2 10.5 5t11.5 8z" />
<glyph unicode="b" horiz-adv-x="1043" d="M1026 1537q-12 -18 -36.5 -45.5t-62.5 -74.5q-75 -91 -166.5 -227.5t-187.5 -312.5q2 1 5 4q18 13 38.5 24t45.5 19q24 8 52 10.5t56 -3.5t51.5 -18.5t41.5 -27.5q9 -8 17 -16l16 -16t14 -17l1 -2l1 -1l1 -1l2 -2l3 -5l6 -9q25 -38 36.5 -82.5t9.5 -86.5t-11 -79.5 t-23 -72.5t-30.5 -66t-35.5 -60q-38 -57 -79.5 -106t-86.5 -92l-45.5 -40.5t-45.5 -37.5q-7 -5 -12.5 -8.5t-12.5 -8.5q-13 -10 -23 -16q-12 -8 -24 -14.5l-24 -13.5q-25 -14 -50 -25t-54 -17q-14 -3 -30 -3.5t-33 4.5t-30 13.5t-23 19.5q-21 25 -34 53q-4 -8 -9 -13 l-8.5 -12.5t-15.5 -16.5q-5 -5 -14 -11q-5 -4 -13 -7q-4 -3 -9 -4q-2 -1 -4 -1.5t-6 -2.5q-4 -1 -7 -1.5t-7 -0.5q-4 -1 -8 -1h-9q-9 0 -18 3q-4 1 -5.5 1t-3.5 1t-5.5 2.5t-12.5 6.5t-16 11q-3 4 -5.5 6.5t-4.5 5.5q-6 7 -8.5 11.5t-4.5 9.5q-8 17 -8.5 25.5t-1.5 16.5 q-2 12 0 20q1 17 3 28.5l4 22.5t5 20.5t5 19.5q5 20 11 38l12 36q49 143 107 271t120 247q62 118 126 222.5t130 194.5t130 161t125 122q51 42 87 62t59 27q23 6 34 2t16 -12q0 -1 1 -1q5 -9 4 -20.5t-12 -29.5zM665 755q-22 -18 -43 -42t-41 -51q-40 -55 -75.5 -116.5 t-68.5 -125.5l-65 -131.5l-66 -133.5q-2 -5 -4.5 -9.5t-4.5 -9.5q2 -3 3.5 -6.5t3.5 -6.5q8 -17 18.5 -33t23.5 -25q11 -9 24 -10q12 -1 33 5q18 6 38 17.5t40 25.5q21 13 42 30l10 8l10 8l10 8t10 9q39 35 77 77q38 43 72.5 90.5t63.5 100.5q29 52 48 108.5t16 109.5 q-4 51 -33 92l-2 1v1h-1l-4 5q-4 6 -10 10q-5 4 -9 8t-9 7q-18 12 -33 12q-13 1 -32 -6q-20 -9 -42 -27z" />
<glyph unicode="c" horiz-adv-x="994" d="M960 938q10 -11 11 -20t-1 -20q-6 -22 -24 -34q-9 -6 -24 -11.5l-38 -14.5q-27 -10 -61.5 -26.5t-75.5 -40.5q-40 -24 -84 -54.5t-91 -66.5q-47 -37 -94.5 -78.5t-93.5 -87.5q-12 -11 -23 -23l-22 -24q-5 -6 -10.5 -11.5t-10.5 -11.5q-4 -4 -10 -12q-2 -2 -2.5 -3 t-2.5 -3l-2 -3l-2 -2q-2 -2 -0.5 -0.5t1.5 2.5v-1q-20 -26 -37 -53.5t-31 -53.5t-21 -51t-6 -37l1.5 -7.5t4.5 -7.5q8 -10 33 -18q24 -8 53.5 -11.5t59.5 -3.5q62 0 121 6q120 13 219 33.5t165 35.5q20 5 32.5 2t14.5 -11q2 -7 -6 -16.5t-29 -19.5q-63 -30 -159 -68 t-221 -69q-32 -7 -65 -13t-68 -10q-36 -4 -74 -4.5t-82 8.5q-22 5 -46 14.5t-47 28.5q-24 18 -41.5 47t-22.5 58t-3.5 55t6.5 49t11.5 43t14.5 40q8 19 17 37l18 35l10 16.5l10 16.5q4 8 10 17l5 8l2 4l1 2q1 1 0.5 -0.5t2.5 3.5l1 1q23 34 47.5 62.5l49.5 55.5 q51 53 103 99t106 85t107 70t106 53q52 22 102 33.5t94 9.5q36 -2 58 -10t33 -18z" />
<glyph unicode="d" horiz-adv-x="1073" d="M1168 1406q7 -3 8 -23t-8 -59q-14 -59 -35 -131t-49 -157l-63.5 -176.5t-79.5 -193.5l-46.5 -101t-53.5 -103l-31 -52.5t-36 -52.5l-10 -13.5t-11 -12.5l-5 -7l-1 -1l-1 -2l-3 -3q-3 -3 -6 -6.5t-6 -6.5l-5 -5t-5 -6q-9 -66 -9 -118q0 -45 4.5 -66l7.5 -34q4 -13 5.5 -23 t-3.5 -20q-4 -10 -14.5 -16t-35.5 2q-12 5 -25.5 16t-26.5 30q-27 38 -39 96q-2 4 -2 7l-46 -35.5l-47 -34.5q-28 -19 -57.5 -36.5t-63.5 -31.5q-35 -15 -77 -24q-22 -4 -48 -4.5t-57 10.5l-14 6t-15 8l-7 4l-4 3q-1 1 -0.5 0.5t-2.5 1.5l-2 2q-5 4 -9 8l-8 8 q-15 17 -22 33.5t-10 30.5q-7 28 -7.5 49t0.5 41q3 38 9.5 71.5t14.5 65.5t17.5 63t20.5 61q5 15 10.5 30l10.5 29l2 7l2 4v1q0 1 0 0.5v-1t0.5 1t2.5 6.5l1 2q2 4 3.5 7.5t3.5 7.5q3 7 6.5 14l7.5 15q29 58 64.5 112.5t82.5 104.5q24 25 51.5 47.5t60.5 40.5l16.5 8l17.5 8 l9 4h2q1 0 2 1l4 1l9 3.5l9 3.5q20 5 43 9t53 -1q30 -3 60 -22q15 -9 26.5 -20.5t19.5 -23.5q17 -23 23.5 -44t10.5 -39q7 -36 7.5 -66t-1.5 -58q-1 -41 -6 -80l41 70l39 70q100 189 170.5 350t112.5 272q12 32 23 48.5t19 14.5h1zM407 235q43 26 84 56t80 62q1 32 3 65 l4 67l6 91.5t4 91.5q0 22 -1.5 42.5t-5.5 35.5q0 -1 -1 -1q-2 -1 -8 -3q-4 -2 -5.5 -2t-3.5 -2q-5 -2 -8.5 -4t-7.5 -4q-32 -18 -67 -54q-33 -35 -62 -79t-55 -93q-4 -7 -7 -13l-6 -12l-3 -7l-1 -2q-4 -8 -5 -12q-5 -14 -10.5 -27.5t-10.5 -27.5q-10 -27 -19 -54.5 t-17 -55.5q-8 -27 -14 -54t-8 -50q-1 -5 -1 -9v-8q2 0 3 0.5t3 0.5q21 3 43 12q24 9 48.5 22t48.5 28z" />
<glyph unicode="e" horiz-adv-x="1085" d="M1151 97q34 2 52 -3.5t18 -13.5t-17 -16t-53 -14q-55 -10 -124 -21t-152 -19q-82 -8 -176.5 -10.5t-200.5 13.5q-52 9 -107 25.5t-110 50.5q-26 17 -51.5 39t-46.5 51l-19 31q-34 5 -55 11.5t-32.5 13.5t-16 15t-4.5 17v1q0 16 13.5 28t54.5 22q-6 31 -7.5 62.5t3.5 62.5 q5 35 15 68t24 64q29 62 71.5 113t92.5 93q51 42 107.5 75t122.5 53l33.5 9.5t34.5 6.5q9 2 18 3t19 1q5 1 9 1h9h2h8h2l5 -1l8 -1q35 -3 70.5 -12t70.5 -27q35 -17 66.5 -45.5t52.5 -65.5q21 -38 29.5 -77.5t6.5 -77.5q-4 -75 -33 -136.5t-71 -109.5t-93 -81 q-27 -18 -52 -30l-13.5 -6t-13.5 -5q-12 -5 -26 -10q-51 -17 -98 -27t-92 -15q-40 -4 -77 -5.5t-72 -1.5q1 0 1 -0.5t1 -0.5q35 -26 79 -43t89 -28q92 -22 181.5 -28t169.5 -7q81 0 149.5 3t124.5 5zM428 645q-40 -30 -73 -66.5t-55 -78.5q-20 -39 -28.5 -79.5t-2.5 -80.5 q48 5 101.5 12.5t110.5 18.5q38 8 76.5 18.5t75.5 25.5q5 2 9 4t9 4t8.5 4t7.5 4l31 19q29 20 55 51q24 29 39 64t16 67q1 16 -2.5 29.5t-9.5 24.5q-7 11 -17 20.5t-25 17.5t-34.5 13.5t-41.5 8.5h-5h-8q-5 0 -10 -0.5t-10 -1.5q-22 -3 -44 -9q-45 -13 -89.5 -36t-83.5 -54z " />
<glyph unicode="f" horiz-adv-x="1006" d="M997 722q2 -17 -19 -26q-33 -12 -83.5 -22t-112.5 -16q-53 -6 -110.5 -9t-116.5 -5q-2 -13 -3.5 -25.5t-3.5 -25.5q-10 -75 -21.5 -150t-25 -149t-31 -145t-39.5 -138q-44 -134 -108 -238q-32 -51 -67 -90.5t-70 -65.5q-29 -22 -49.5 -30.5t-34.5 -9.5t-22 4.5t-15 13.5 q-6 9 -8.5 18.5t0.5 22.5q3 12 12 28.5t25 41.5l39 66t41 83q21 45 40.5 99t37.5 115q37 121 67 263.5l61 292.5q1 2 1 5t1 5q-29 -2 -55.5 -4.5t-51.5 -5.5q-54 -6 -96 -13.5t-75 -9.5q-27 -2 -42 6.5t-26 26.5h-1q-11 18 -12.5 36t21.5 44q29 32 82 58t120 37q42 8 87 11 t91 1q7 25 13 49.5t14 49.5q20 73 45.5 141.5t60.5 131.5q17 31 38 59.5t44 53.5q50 50 107 74q28 12 55.5 17.5t53.5 6.5q25 1 47 -2t41 -7q22 -5 32 -13.5t8 -16.5v-1q-3 -17 -49 -15q-35 0 -76 -7.5t-79 -33.5q-38 -25 -68.5 -68t-52.5 -100q-23 -56 -38.5 -121 t-27.5 -135q-4 -20 -7 -39l-6 -39q57 -8 109 -18t100 -18q59 -11 106.5 -18t79.5 -10q10 -1 16 -7t7 -14z" />
<glyph unicode="g" horiz-adv-x="1067" d="M1190 -209q63 -2 97 -9t32 -15t-35 -14.5t-103 -8.5l-185 -10.5t-215 -18.5l-7.5 -13.5l-7.5 -14.5q-14 -26 -29 -51t-32 -49q-33 -49 -69.5 -94t-76.5 -87q-81 -84 -173.5 -152t-198.5 -115q-53 -23 -107.5 -40t-111.5 -25q-29 -4 -57 -6t-57 -2q-8 0 -14.5 0.5 t-13.5 1.5q-10 0 -15 1h-7q3 -2 -3.5 2.5l-16.5 12l-21.5 16l-19 14t-7.5 6t12 -8.5l-1 2l-1 4q-13 33 -14 67q-2 35 6 68t22 60q14 29 31 52t36 44q38 41 78.5 72.5t82.5 59.5q85 54 169.5 94.5t168.5 72.5q42 16 84 30l42 12l10 3l6 2l2 1q0 -1 3.5 0t1.5 1h1l21 3l63 9.5 t62 7.5q11 22 20.5 44.5t17.5 43.5q15 45 25 94.5t16 101.5q4 35 6 70l4 70l-30.5 -31.5t-32.5 -30.5q-38 -35 -83 -65q-23 -14 -49 -27.5t-58 -21.5q-15 -5 -33.5 -7t-29.5 -2q-25 -1 -52 0q-26 1 -53 5t-56 15q-28 9 -55 26t-50 42q-22 25 -35.5 53.5t-19.5 56.5 q-11 56 -5.5 102.5t16.5 88.5t26.5 77.5t32.5 68.5q34 66 72.5 119.5t78.5 98.5q66 73 118 107.5t85 45.5t47 6.5t18 -13.5l1 -1q4 -11 -2 -22.5t-26 -33.5l-56 -60t-86 -110q-30 -44 -59.5 -94.5t-54.5 -108.5q-12 -29 -22 -59.5t-17 -61.5t-8 -61t6 -52q3 -11 8 -18.5 t10 -12.5q6 -5 14.5 -10t21.5 -9q12 -3 27.5 -5t32.5 -2h17t18 1l5 1h3h1q2 1 2.5 0.5t1.5 0.5q2 0 10 2q11 4 26 11.5t29 18.5q32 22 61 50q59 56 116 130q19 25 36.5 51l34.5 52q0 48 0.5 96t3.5 99q2 29 5 59t11 63q5 17 11 35t18 40l15.5 21.5t21.5 22.5t30 19.5 t34 12.5l5 1q-16 4 -15.5 3.5t10 -2.5l24.5 -5t28.5 -6t22 -5.5t4.5 -1.5l6 -4q3 -2 5.5 -5t5.5 -5l10 -10.5t9 -11.5q9 -11 15 -23t11 -24q8 -23 11 -44.5t2 -39.5q0 -38 -6.5 -69t-15.5 -60q-17 -57 -40.5 -106.5t-50.5 -96.5q-2 -3 -3.5 -6.5t-3.5 -6.5 q-1 -48 -1.5 -96.5t-2.5 -97.5q-2 -57 -6.5 -113.5t-12.5 -114.5t-21 -116t-36 -116q-1 -3 -3 -7q109 5 202.5 4t172.5 -3zM134 -725q88 44 166.5 106.5t147.5 139.5q68 77 122 164h1q-17 -3 -34 -6.5t-34 -7.5l-9 -2l-2 -1l-4 -1q-12 -3 -19 -7q-10 -3 -19.5 -6.5 t-18.5 -7.5l-39 -16l-39 -16q-78 -35 -156.5 -77.5t-152.5 -96.5q-36 -26 -70 -56t-61 -64q-24 -29 -38 -60t-14 -59h1q23 1 46 3.5t46 7.5q46 9 91 25t89 38z" />
<glyph unicode="h" horiz-adv-x="939" d="M1264 159q3 -7 -11 -23.5t-49 -41.5q-27 -20 -58 -40.5l-66 -42.5q-36 -22 -77.5 -43.5t-93.5 -35.5q-14 -3 -28 -5t-29 -3q-4 -1 -7.5 -0.5t-8.5 0.5h-2h-1q2 -1 -1 -0.5t-2 0.5l-4 1h-6q-7 1 -13 1.5t-14 2.5q-14 2 -29.5 5.5t-32.5 11.5q-18 8 -34.5 24t-24.5 34 q-10 18 -14.5 34.5t-7.5 33.5q-2 19 -2.5 35t0.5 32q2 32 5.5 61.5t8.5 59.5l21 118.5t19 119.5q9 60 12 119q1 29 -1 57t-8 50q-4 19 -13 31q-8 -6 -16 -15.5t-16 -20.5q-34 -45 -63.5 -102.5l-57.5 -117.5l-54 -122l-57 -125q-15 -32 -31.5 -63.5t-36.5 -63.5l-23 -34 t-31 -36q-10 -9 -22.5 -19t-32.5 -19q-11 -5 -24 -8t-28 -3q-29 0 -58 13q-21 10 -32 25q-11 12 -16 24q-5 11 -7 18t-3 14q-2 11 -2.5 19t-0.5 16q0 14 1 24.5t3 20.5q3 20 6.5 37.5t7.5 34.5q8 34 17.5 65.5l19.5 63.5q19 62 39.5 120.5l40.5 115.5q85 226 163.5 408.5 t141.5 305.5q26 51 45.5 81t34 45t25.5 18t21 -1t16.5 -14t6.5 -31t-7 -56t-23 -90q-33 -118 -88.5 -277l-122.5 -351q6 12 12.5 23.5l13.5 23.5l39 61.5t46 60.5l28.5 30t34.5 29q10 7 21 13.5t25 11.5q13 6 29 9q4 1 7.5 1t8.5 1h2q28 -5 35 -6t5.5 -1t-5 0.5t2.5 -0.5 l3 -1l6 -3q24 -12 44 -31.5t32 -41.5q13 -22 20 -43.5t11 -41.5q7 -42 6 -78t-4 -71q-4 -35 -9.5 -67.5t-12.5 -64.5q-13 -63 -28 -122t-28 -116q-7 -28 -12.5 -54.5t-8.5 -52.5q-2 -12 -2 -23.5t1 -20.5q3 -25 9 -36q3 -6 6 -9.5t11 -8.5q7 -3 17.5 -6.5t21.5 -5.5 q6 -2 12 -2.5t12 -2.5l2 -1h1h4q2 -1 5 -0.5t5 -0.5q10 0 20 1t21 3q42 8 82 24.5t75 33.5q36 17 68 34.5l61 33.5q34 19 55 24t25 -2z" />
<glyph unicode="i" horiz-adv-x="454" d="M267 917q21 -1 36.5 -9.5t25.5 -38.5q11 -36 11.5 -86.5t-7.5 -109.5q-8 -60 -24 -123.5t-36 -127.5q-21 -64 -45.5 -124.5t-48.5 -113t-46 -95t-39 -70.5q-5 -8 -12.5 -10.5t-15.5 -0.5q-7 3 -12 9.5t-4 17.5q2 32 7.5 79t13 103.5l16.5 119l19 126.5l20.5 125t21.5 116 q12 55 24.5 99.5t28.5 75.5q13 25 28.5 32t36.5 6h1zM396 1136q5 -22 -3 -54.5t-28 -59.5q-19 -26 -45 -38.5t-52 4.5q-11 7 -20 20t-18 31l-1 1q-10 19 -15.5 33.5t-6.5 26.5q-2 30 14 42t42 17q25 5 52.5 6t44.5 2q3 0 9 -3.5t12 -8.5q14 -12 15 -19z" />
<glyph unicode="j" horiz-adv-x="467" d="M304 729q16 -30 25 -68t12 -82q6 -89 -12 -189t-56 -204t-92 -204q-53 -99 -120 -188q-34 -44 -70.5 -83t-78.5 -71q-21 -16 -43 -29t-48 -22q-24 -9 -51.5 -12t-53.5 5t-44 22t-30 29t-19.5 29.5t-12.5 27.5q-6 16 -3.5 26t9.5 13l1 1q15 7 35 -19q15 -19 37 -36t45 -16 q22 0 49.5 18.5t54.5 48.5q56 63 103 150t86 181q39 95 69 189.5t49 180.5q20 86 27 154.5t8 114.5q1 19 2.5 31.5t6.5 22.5q7 16 26 27v1q10 5 19.5 7.5t20.5 -1.5q11 -5 24 -17.5t25 -37.5zM447 967q4 -2 5 -9t0 -15t-3.5 -14.5t-5.5 -8.5q-23 -15 -59.5 -32.5 t-77.5 -30.5q-20 -6 -41 -10t-40.5 -3t-37 6.5t-29.5 18.5q-11 10 -14 25.5t-5 36.5v1q-2 21 0 37t10 28q20 28 59 33.5t87 -2.5t90 -27t62 -34z" />
<glyph unicode="k" horiz-adv-x="922" d="M904 936q4 -6 4 -14t-6 -15q-19 -22 -49 -49.5t-69 -58.5q-39 -30 -84 -60.5l-92 -59.5l-92 -55l-86 -48l-36 -18q35 -35 70 -76.5t67 -86.5q36 -48 68 -97.5l58.5 -94t47 -82.5l33.5 -64q4 -8 1.5 -16t-8.5 -13t-14 -5.5t-16 5.5q-24 16 -58 43l-73.5 60.5l-82 72 l-84.5 78.5l-84.5 82.5t-74.5 78.5l-39 -130.5l-36 -118l-31.5 -102l-24.5 -80.5q-5 -14 -13 -21t-16 -5q-7 2 -12 11t-5 26q0 52 6 129t16 169t24.5 195t32.5 208t38 207t41 192.5t43 165t45 124.5q19 42 36.5 52t38.5 6q10 -2 19 -6t15.5 -13t10.5 -24t6 -38 q4 -53 -3.5 -126t-23 -159t-38 -181t-48.5 -192l9 6q44 28 94 51t103 43t103.5 37t96.5 31l82.5 27.5l63.5 20.5q8 2 14.5 -1.5t11.5 -10.5z" />
<glyph unicode="l" horiz-adv-x="551" d="M444 1588q21 -5 33 -22.5t11 -66.5q-2 -60 -17 -142.5t-40 -179.5q-26 -97 -57.5 -202.5l-64.5 -213.5l-62.5 -213.5t-55.5 -199.5t-42.5 -173t-28.5 -132q-3 -16 -10.5 -24t-15.5 -7t-13.5 10t-6.5 27q-5 56 -4 138.5t9 182.5q9 100 25.5 210.5t39.5 223.5t50 220.5 t56 204.5q29 96 57.5 173.5t56.5 128.5q11 22 21 34.5t20 18.5t19.5 6.5t19.5 -2.5z" />
<glyph unicode="m" horiz-adv-x="1146" d="M1069 788q2 -35 -1 -65.5t-8 -59.5q-11 -57 -24.5 -109t-28.5 -100q-30 -97 -61 -175.5l-58 -141.5q-16 -35 -30.5 -52t-21.5 -15h-1q-15 8 11 90q20 64 42.5 144.5t43.5 176.5q11 48 19.5 98t13.5 103q2 26 2.5 52t-3.5 49q0 2 -2 8l-6.5 -8.5t-6.5 -9.5 q-8 -10 -14.5 -21.5l-13.5 -24.5q-14 -26 -26 -54l-24 -57q-25 -58 -48 -119.5t-52 -126.5l-15.5 -33.5t-16.5 -33.5l-10.5 -17l-11.5 -19l-16.5 -20t-25.5 -23q-8 -6 -22 -12.5t-35 -7.5q-5 -1 -10.5 -0.5t-10.5 1.5q10 -5 5 -2.5t-15.5 7t-20 9.5t-7.5 4l-4 3l-7 7 q-6 8 -10 14q-2 2 -3.5 5.5t-3.5 5.5q-5 12 -7 20l-4 16t-2.5 14.5t-1.5 12.5q-2 23 -1 42.5t3 39.5q3 37 7.5 72t9.5 70l4 31l4 30l-6 -12l-27.5 -59.5l-27.5 -60.5l-52.5 -123l-52.5 -122l-28.5 -62t-32.5 -63l-10 -16t-12 -17q-7 -10 -14.5 -19.5t-23.5 -23.5 q-5 -3 -10 -6.5l-11 -7.5q-8 -4 -17 -7t-21 -5q-27 -5 -55 5q4 -1 1 0t-4 1l-6 3q-3 2 -5.5 3t-5.5 3q-12 7 -19 16q-17 17 -22.5 30t-8.5 23q-3 11 -4 18.5l-2 14.5q-2 26 -0.5 45t3.5 36q4 32 12 65q12 62 27 116l27.5 107.5l26.5 99.5q12 48 22 92t16 82q2 15 3.5 28.5 t1.5 24.5q-8 -3 -16 -7t-15 -7l-28 -14t-22 -9q-20 -8 -30.5 -6t-18.5 10t-9.5 19.5t8.5 31.5q5 10 13.5 22t22.5 28l16.5 16t20.5 17q10 9 27 18q9 5 19.5 9t26.5 6q9 2 20.5 1.5t24.5 -4.5t25 -11.5t20 -16.5q17 -19 23.5 -36t10.5 -31q7 -29 7.5 -54t0.5 -49 q-2 -36 -6 -72t-10 -73q18 39 39 78q17 32 36 64.5t44 66.5l29.5 34.5t41.5 35.5q14 8 32.5 16t44.5 10q6 1 12.5 0.5t12.5 -1.5q4 -1 7 -1t6 -1l3 -1q-1 0 4.5 -2t11 -4.5t9 -3.5t-2.5 1l9 -6q17 -13 26 -26t14 -23q8 -21 10 -35.5t4 -27.5q1 -24 0 -45q-1 -20 -3 -39 t-5 -38q-2 -19 -5 -37l-6 -36l22 47t23 47q29 61 64 118l19 28.5t22 28.5q13 14 28 28.5t41 25.5q13 6 30 8t34 -3q2 0 8 -2l1 -1v0l1.5 -0.5t6.5 -2.5l1 -1l4 -2q4 -2 7 -5t6 -5q6 -6 10.5 -12l8.5 -11q14 -23 17 -43t5 -37z" />
<glyph unicode="n" horiz-adv-x="1001" d="M911 776q6 -29 7 -54t0 -49t-3 -46.5l-4 -44.5q-11 -88 -24 -164.5t-23 -144.5q-5 -34 -8.5 -64.5t-4.5 -59.5q-2 -27 1 -51t11 -37q6 -13 17 -18q13 -7 15 -13v-1q0 -4 -3 -8t-12 -7q-5 -2 -11.5 -2t-14.5 2t-17 8t-15 15q-18 26 -24 55t-10 60q-3 32 -3.5 65t0.5 68 q2 71 6.5 148.5t6.5 160.5q1 20 0.5 40.5t-2.5 40.5t-4.5 39t-7.5 34t-9 17v0l-2 2q-1 1 -2 1t-2 1q-4 3 -12 7q-12 7 -19.5 7.5t-16.5 -2.5q-19 -5 -47 -31q-27 -27 -52 -61q-25 -35 -47.5 -75l-44.5 -82q-44 -85 -83 -172t-84 -176q-11 -23 -23.5 -45.5t-29.5 -46.5 q-4 -7 -9 -13t-10 -13q-6 -8 -13.5 -15.5t-20.5 -16.5q-7 -5 -15 -9.5t-22 -9.5q-12 -4 -30.5 -5t-36.5 4v1h-1h1q-2 0 -8 2q-3 2 -6.5 3.5t-7.5 3.5q-14 7 -24 19q-10 11 -15 19.5t-8 16.5q-5 14 -6 23t-2 17q-1 14 0 23t2 17t2 14.5t3 13.5q2 14 5 26l6 23l13 44.5 t13 42.5l48.5 156.5t38.5 138.5t20 113q2 25 0 39q-1 8 -1.5 11.5t-0.5 5.5q0 4 -4 9q-3 2 -6.5 3.5l-8.5 3.5q-8 3 -16.5 5t-15.5 5q-25 8 -31 29q-4 11 -2.5 21t15.5 22q7 5 18 11t29 11q8 2 19 3t25 -1t30 -7.5t33 -17.5q19 -14 31.5 -33.5t20.5 -39.5t11.5 -38.5 t5.5 -37.5q3 -32 2 -63t-5 -63q4 6 5 9q26 44 54.5 87t63.5 85q17 21 36.5 41t42.5 38t52.5 34.5t67.5 21.5q38 6 76 -5q18 -5 33.5 -13t29.5 -17q7 -5 13 -10t11 -10l6 -6l8 -8q6 -8 12 -17q11 -17 16 -33t8 -30z" />
<glyph unicode="o" horiz-adv-x="927" d="M856 687q11 -153 -47 -311q-29 -78 -76.5 -153t-123.5 -135q-19 -14 -39.5 -27t-42.5 -23q-42 -20 -86 -33q-23 -7 -47 -11.5t-51 -6.5q-26 -2 -55.5 2.5t-59.5 17.5q-30 12 -55.5 33.5t-42.5 46.5q-17 26 -27 51.5t-15 49.5q-11 50 -9.5 93t8.5 83q13 79 40 145t61 120 q35 54 75.5 94.5t83.5 64.5q35 20 62 23.5t41 -1.5q16 -5 21 -13t7 -18q3 -22 -8 -40q-7 -11 -18 -22.5l-29 -31.5q-20 -24 -43 -59t-44 -80t-38.5 -99t-25.5 -112q-4 -29 -4 -57t5 -51q4 -22 13 -34q9 -11 17 -15q11 -7 36 -7t56 8q15 4 31.5 9.5t30.5 11.5q14 5 27 12.5 l26 15.5q53 35 95 89.5t71 116.5q29 63 46.5 128t20.5 126q1 31 -2 59.5t-11 52.5q-15 49 -48 65q-17 9 -38 9.5t-41 -4.5t-38.5 -12t-34.5 -15q-40 -19 -50 -6q-5 6 0.5 18.5t27.5 29.5q17 12 36 24t45 22q24 10 56.5 14.5t68.5 -7.5q18 -7 34.5 -17.5t30.5 -24.5t24 -30 t18 -33q16 -35 24 -71.5t11 -74.5z" />
<glyph unicode="p" horiz-adv-x="1018" d="M948 531q3 -36 2 -73t-8 -74q-14 -75 -52 -139t-91.5 -106.5t-108.5 -68.5t-107 -38t-99 -17t-86.5 -4t-70.5 4q-19 2 -28.5 9.5t-8.5 15.5t10.5 14t28.5 8q30 5 66 12t77 20q40 12 82.5 31t83.5 46q40 27 72.5 63t51.5 81t22 94t-6 102l-6 26t-7 26q-2 10 -6.5 20 t-9.5 19q-22 39 -55 65q-35 28 -79 46t-90 28q-14 3 -26.5 5l-25.5 4q-11 -60 -27 -128.5t-37 -142t-46 -149.5t-53 -152q-40 -107 -84.5 -209.5t-90 -191.5t-90 -159.5t-84.5 -112.5q-11 -12 -22 -14.5t-16 2.5l-1 1q-12 12 3 41q24 46 51 120.5t55.5 167t57.5 197 l58 212.5l74.5 277.5t71.5 246.5q-23 -2 -44 -3.5t-39 -3.5q-47 -6 -67 0.5t-30 25.5q-5 10 -7 19.5t3 21.5q5 11 19 25t40 29q35 20 82 36t105 24l4 8t4 9q10 21 19.5 34t18.5 19t18.5 7t20.5 -1q10 -2 18 -6t14 -12t10 -21t6 -34q37 -2 74 -9q63 -11 128.5 -37.5 t125.5 -77.5q29 -26 54 -58.5t42 -70.5q9 -17 15 -38q1 -2 1.5 -5t1.5 -5l1 -5l1 -2v-1v-1q0 -1 1 -3l4 -18q4 -17 6.5 -35t4.5 -36z" />
<glyph unicode="q" horiz-adv-x="945" d="M859 621q1 -35 -1 -66t-6 -62q-3 -30 -8 -60l-10 -59q-21 -117 -48.5 -225t-57.5 -209q-61 -201 -126 -360t-122 -262q-16 -29 -30 -42.5t-22 -10.5l-1 1q-13 8 13 77q41 106 88.5 268t90.5 363q22 100 40.5 207t31.5 219q3 25 5 49t3 49l-47 -78.5l-49 -78.5l-68 -101 t-77 -99q-22 -25 -45.5 -48.5t-58.5 -46.5q-18 -11 -41 -21.5t-58 -12.5q-17 -1 -35.5 2.5t-35.5 11.5t-30 17.5t-22 20.5q-19 21 -29 40.5t-17 36.5q-4 8 -7 17q-1 5 -2.5 10t-2.5 10q-3 10 -4.5 19t-3.5 19q-5 39 -0.5 75t14.5 68q19 64 49.5 114t64.5 92q35 42 71 76.5 t74 63.5q75 57 149 91.5t142 48.5q57 11 94 6t56 -16q18 -11 21.5 -21t1.5 -20v-1q-2 -6 -5 -11t-8 -10q1 0 5 -2q15 -9 24 -19.5t14 -18.5q6 -9 9 -16.5t5 -13.5q8 -26 9.5 -44.5t2.5 -36.5zM261 211q14 9 29 23.5t30 31.5q35 39 68 84.5l66 93.5l65.5 97l67.5 100l18 25.5 l19 26.5q3 3 5.5 6.5l5.5 7.5q-43 -23 -91 -56t-98 -78q-29 -26 -57 -56.5t-54 -64.5q-25 -34 -45 -71.5t-31 -74.5q-9 -39 -5 -68q1 -11 7 -27z" />
<glyph unicode="r" horiz-adv-x="709" d="M681 735q1 -20 -5 -31t-14 -12h-1q-17 0 -27 40q-5 15 -11 31t-15 26q-5 5 -7 5q-2 1 -2.5 0.5t-1.5 -0.5q-2 -1 -7.5 -4t-13.5 -9q-14 -11 -30 -28.5t-31 -37.5q-8 -10 -15.5 -21l-15.5 -22l-3 -6h-1q-2 -3 -1.5 -2t0.5 0l-1 -1l-1 -1l-1 -3q-2 -2 -4 -5l-4 -6 q-4 -5 -7 -11t-7 -12q-19 -31 -36.5 -65.5t-34.5 -71.5q-1 -61 -7.5 -125t-21.5 -132q-4 -18 -9 -36t-11 -37q-7 -20 -15 -39.5t-23 -43.5q-5 -6 -9.5 -12.5t-11.5 -14.5q-8 -8 -19 -16.5t-32 -16.5q-11 -4 -23.5 -5t-25.5 1q-4 0 -12 2q4 -2 1.5 -1l-6.5 2.5l-8 3l-4 1.5 l-4 2q-2 2 -3.5 2.5t-3.5 2.5q-8 5 -13.5 10.5l-10.5 10.5q-4 5 -7 10.5t-5 10.5q-2 3 -4 9q-1 2 -3 8q-2 8 -2.5 13.5t-1.5 10.5q-2 20 -0.5 33t3.5 24t5 21t5 20q11 38 25 72l28 67l18 39t19 38q2 22 3 43t1 42q4 115 -8 205t-29 147q-7 24 -10.5 40t-2.5 28q0 20 16 36 q8 8 17 12t22 1q14 -3 32 -16t39 -40q26 -32 47 -77t35 -99l6 -24.5l6 -25.5q5 6 9.5 12t9.5 11q3 3 5.5 6t5.5 6l2 2l1 1q1 1 -0.5 -0.5t-0.5 -1.5l2 3l5 6l21 21.5t21 20.5q21 20 43.5 38t50.5 32q14 7 31 11.5t38 -0.5q10 -2 19 -7t16 -11t11 -12.5l8 -12.5 q12 -26 14 -46.5t4 -38.5z" />
<glyph unicode="s" horiz-adv-x="758" d="M683 877q17 -26 21.5 -44t2.5 -30t-8.5 -19t-15.5 -12h-1q-9 -5 -18 -7.5t-20 -0.5t-23 7.5t-29 14.5q-20 10 -43.5 18t-51.5 11t-60 -1.5t-64 -18.5q-31 -14 -55.5 -37.5t-35.5 -53.5q-11 -31 -8 -69q0 -6 1 -10v-1q-1 4 -1 2.5t0 -0.5v-1q0 -1 0.5 -1.5t0.5 -1.5 q0 -3 2 -7q2 -8 16 -21t37 -28t50 -37q14 -11 27.5 -24t26.5 -30q24 -33 35 -75q4 -18 6 -38q1 -3 1 -9v-1q0 2 0.5 -0.5t-1.5 5.5l1 -1v-3v-5q1 -5 1 -10v-10q-2 -40 -15 -74q-14 -34 -33.5 -58.5t-40.5 -44.5q-42 -38 -84.5 -61.5t-80.5 -40.5q-39 -17 -73 -27.5 t-61 -17.5q-17 -4 -27 -0.5t-12 11.5q-2 7 3.5 16t21.5 18l51.5 31t60.5 40q31 22 63 49.5t57 60.5q12 17 20.5 33.5t11.5 32.5t0 29q-1 2 -1 3.5t-1 3.5v2q-2 8 -1.5 5.5t0.5 -0.5v1l-1 1q0 3 -1 4q-1 7 -5 14q-6 12 -15.5 21t-28.5 21q-18 11 -44 24.5t-58 36.5 q-15 11 -30.5 27.5t-28.5 37.5q-14 22 -20 44q-2 4 -4 12l-1 3v1q0 -2 -0.5 1t-0.5 2v1l-1 4q-1 5 -1.5 9.5t-1.5 9.5q-5 37 -3 75.5t15 75.5q12 38 33 70t47 58t55 44t60 31q62 24 122.5 26t111.5 -14q53 -16 90.5 -44.5t57.5 -58.5z" />
<glyph unicode="t" horiz-adv-x="1067" d="M1014 910q21 -5 21 -24q-1 -8 -6 -14t-16 -9q-36 -9 -89 -18.5t-117.5 -18.5t-136.5 -16.5t-145 -11.5l-47 -95.5l-45 -97.5q-23 -49 -42.5 -98.5t-35.5 -98.5q-16 -48 -27 -95t-13 -89t6.5 -75t29.5 -52q21 -20 50.5 -27t54.5 -8q29 -3 34 -19v-1q1 -8 -7 -15.5 t-27 -11.5q-14 -3 -30.5 -5t-36.5 -1t-41.5 6t-44.5 19t-41.5 35t-30.5 46q-13 26 -19.5 53t-9.5 54q-7 56 -2.5 111.5t14.5 112.5q11 57 26 112.5t33 110.5l22.5 62.5l23.5 60.5q-74 1 -135 8t-102 23q-29 11 -37.5 27t-8.5 36v1q0 22 8.5 37.5t37.5 26.5q53 20 138 26 t185 3q61 119 126 211t123 143q39 33 61.5 33t36.5 -15q7 -8 12 -16t6.5 -18.5t-1.5 -25t-12 -35.5q-22 -53 -60.5 -127l-85.5 -164q62 -6 121.5 -13.5t112 -15t96 -14.5t73.5 -13z" />
<glyph unicode="u" horiz-adv-x="1030" d="M1097 -64q0 -8 -12 -15q-8 -4 -20.5 -6.5t-30.5 -0.5q-27 2 -55 17.5t-49 40.5q-22 26 -37.5 56t-26.5 64q-23 69 -33 145.5t-15 159.5q-1 23 -1.5 47t-1.5 48l-28 -50t-30 -51q-25 -42 -52 -82.5t-58 -80.5t-66.5 -77.5t-83.5 -70.5q-23 -17 -52 -30.5t-62 -20.5 q-27 -6 -58 -9t-66 4q-18 3 -36.5 9.5t-36.5 17.5q-17 10 -32 24t-26 30q-23 32 -32 62.5t-13 57.5q-6 55 -0.5 100t13.5 87q8 41 19.5 77.5t24.5 70.5q25 67 52.5 121t53.5 96q22 34 40 53.5t31.5 27.5t24 7.5t19.5 -5.5q9 -6 14.5 -14.5t6.5 -23.5t-4 -39t-16 -60 l-29 -98.5t-32 -116.5q-8 -31 -15 -64t-12 -67q-5 -33 -7.5 -66.5t2.5 -60.5q2 -14 6 -23t6 -12q2 -2 3 -2.5t9 -2.5t21.5 -1.5t30.5 4.5q21 5 50 23q28 19 57 47.5t56 60.5q55 65 107 142l50 76.5l49 77.5l25 39.5t26 39.5q13 20 29 42q5 6 9.5 12t12.5 14q3 2 5.5 5t7.5 6 t11 7t22 8q8 2 20 1.5t24 -5.5q13 -5 20 -12q2 -2 3 -2.5t2 -1.5l6 -6q3 -4 4 -5.5t3 -3.5t2.5 -3.5t1.5 -3.5q18 -9 15.5 -8.5t-14.5 6.5q5 -11 6 -15.5t2 -8.5q1 -5 1 -12q1 -5 1 -9v-7q0 -8 -0.5 -14t-0.5 -12l-2 -23.5l-2 -22.5q-2 -23 -4.5 -44.5t-4.5 -43.5 q-5 -42 -8 -83t-5 -81q-5 -80 -3 -152t15 -132q12 -61 38 -102q14 -20 30 -31.5t34 -16.5q21 -5 35 -9.5t16 -12.5v-1v0z" />
<glyph unicode="v" horiz-adv-x="776" d="M743 849q5 -5 3 -16.5t-13 -27.5q-33 -49 -76.5 -125.5l-93.5 -172.5l-52.5 -99l-55.5 -105l-29 -54l-31 -55l-34.5 -55.5t-40.5 -57.5q-6 -8 -13 -16t-18 -17q-5 -5 -12 -10t-18 -11q-6 -3 -13.5 -6t-18.5 -5q-4 -2 -11.5 -2h-13.5q-5 0 -15 2q-1 1 -4 1h1 q-20 5 -35.5 15t-24.5 20q-9 11 -14 19.5l-9 15.5q-7 15 -10.5 26.5t-5.5 22.5q-9 40 -11.5 73.5t-4.5 65.5q-2 63 -2 121.5t1 113.5q3 109 5 197t5 148q1 49 12 67t32 24q10 3 20 3t20 -7t20.5 -22.5t21.5 -42.5q26 -66 38 -161t14 -207q1 -56 0.5 -114t-0.5 -117v-3 q4 6 6 8l35.5 49.5l35.5 49.5l68.5 96.5l66.5 91.5q66 89 125.5 158t106.5 111q14 12 26 14t17 -4z" />
<glyph unicode="w" horiz-adv-x="1073" d="M1035 991q8 -3 9.5 -20.5t-6.5 -50.5l-24 -114t-30 -137q-17 -75 -38.5 -158t-48.5 -174q-14 -45 -30 -91.5t-39 -96.5l-12 -24.5t-14 -26.5q-5 -6 -9.5 -12.5t-9.5 -14.5l-13 -15t-18 -16q-6 -4 -13 -8t-17 -7q-22 -8 -49 -4q-1 1 -3 1q-3 0 -4 1q-3 1 -3 0.5t2 -0.5 q-1 0 -5 2q-2 1 -5 1.5t-5 2.5q-3 2 -7 4t-7 5l-5 5q-8 8 -12 14q-2 3 -3.5 6l-2.5 5q-5 8 -6 13.5t-3 11.5q-5 18 -8 32.5t-5 28.5q-7 54 -10.5 105t-8.5 103l-20 -48t-21 -48l-24.5 -49.5l-26.5 -49.5l-33 -50.5t-45 -51.5q-14 -13 -34 -26t-50 -21q-32 -8 -65 -2 q-8 2 -15.5 4.5t-14.5 4.5l-7 3.5t-6 3.5q-2 1 -0.5 0t-5.5 3l-2 1l-2 2l-5 3q-20 14 -34 30.5t-24 32.5t-17 31t-12 30q-19 57 -25 106.5t-8 96.5q-3 93 3 172q5 80 14.5 147t19.5 121q9 44 17.5 71t16.5 41t17 19t20 5h1q10 0 19.5 -5.5t17 -21.5t12.5 -44.5t7 -74.5 q4 -54 4.5 -120.5t2.5 -142.5q2 -38 3.5 -77t5.5 -79t10.5 -80t18.5 -72q2 -4 3 -7q15 18 31 45l22 40.5t22 43.5l43 92l44 98l24 50.5t31 54.5l10.5 16.5t16.5 19.5q5 5 13 11.5t23 14.5q7 3 16.5 6t20.5 4h3h4q5 0 9 -0.5t9 -1.5t9 -2t9 -2l18 -9q3 -3 11 -9q2 -2 3 -2.5 t2 -2.5q2 -1 4 -3t3 -4t3 -4q9 -12 12 -21q4 -8 5.5 -14t3.5 -11q3 -11 4 -19.5t3 -16.5q5 -32 6 -59.5t3 -55.5q1 -56 3 -108v-61.5t1 -60.5q16 32 30.5 65.5l27.5 65.5l63.5 164.5l54.5 151l46.5 133l39.5 109.5q11 29 22 42.5t18 10.5z" />
<glyph unicode="x" horiz-adv-x="1000" d="M990 929l-82.5 -78.5l-108.5 -102.5l-123.5 -120l-127.5 -131l-6 -6l5.5 -9.5t4.5 -9.5q39 -78 72.5 -155l62.5 -146l51.5 -126l38.5 -95q5 -11 2 -20t-10 -14q-16 -7 -34 12q-29 31 -66.5 80l-81.5 110l-81.5 117l-84.5 125l-57 -63.5l-54 -60.5l-100.5 -109.5 t-85.5 -79.5q-16 -13 -28 -19t-22.5 -7t-19 2.5t-17.5 9.5h-1q-9 6 -15 13.5t-8.5 17.5t-1 24t8.5 34q18 48 55.5 108.5t92.5 127.5q32 40 69 80t78 80l-46.5 68l-43.5 64l-74.5 109.5t-52.5 88.5q-16 32 -12.5 50t17.5 33l1 1q14 16 32.5 20t53.5 -15q42 -23 90 -68.5 t96 -108.5q21 -26 41 -55.5l40 -60.5q72 59 145.5 110t141 92.5t125 72.5t97.5 50q12 6 21.5 4.5t14.5 -8.5q4 -7 1.5 -16t-13.5 -20z" />
<glyph unicode="y" horiz-adv-x="861" d="M831 849q2 -14 1.5 -24.5t-1.5 -20.5q-2 -18 -4.5 -34t-5.5 -31q-6 -31 -14 -59.5l-16 -57.5q-17 -56 -36 -109.5l-39 -106.5q-41 -106 -84.5 -203t-89.5 -188q-46 -89 -93 -169t-94 -147.5t-93.5 -121.5t-89.5 -91q-25 -21 -43.5 -27t-23.5 0v1q-8 10 37 64 q71 81 148 221.5t151 322.5q37 91 72 188.5t67 201.5q1 3 1.5 5.5t1.5 5.5l-7.5 -15t-7.5 -14l-52 -98l-54 -96l-28 -47t-29 -47l-32.5 -46.5t-42.5 -49.5l-15 -13t-21 -15q-6 -4 -14.5 -8t-20.5 -8q-11 -4 -28 -5t-37 6l-9 3.5l-9 3.5q-4 3 -2 1.5t2.5 -2t-4.5 3t-22 17.5 l-1 1l-1 1l-6 7q-3 3 -5.5 6.5l-5.5 7.5l-9.5 13.5t-8.5 14.5q-17 29 -27.5 57.5t-16.5 56.5q-12 56 -12.5 105.5t4.5 94.5q10 91 30.5 162t40.5 127q18 46 32.5 72.5t26.5 40t22.5 16.5t20.5 1v-1q10 -3 17.5 -10.5t11 -25.5t2 -48t-7.5 -77q-8 -57 -16.5 -125t-10.5 -143 q0 -36 3 -73t11 -70q1 2 2 3t2 3l26 41.5l26 44.5l52 92l53 96l55 98l57 100l31 50l34 51l18.5 26t21.5 27l13 14.5t17 15.5q5 5 11.5 9.5t16.5 9.5l11.5 4.5t14.5 4.5t19 3t24 -1q0 -1 1 -1q20 -3 34 -13q16 -10 23.5 -20.5t12.5 -18.5q7 -16 8.5 -24.5t2.5 -16.5z" />
<glyph unicode="z" horiz-adv-x="885" d="M810 816q6 -20 7.5 -37.5t0.5 -33.5q-2 -16 -5 -29.5t-7 -26.5q-8 -26 -18 -46.5t-21 -40.5q-23 -38 -48.5 -70.5l-51.5 -64.5q-27 -31 -54.5 -59.5l-56.5 -56.5l-114 -107.5l-113 -101.5q0 -1 -1 -1q46 11 89 22.5l81 22.5l98.5 27.5l80.5 22.5q22 6 35.5 3.5 t15.5 -10.5q2 -7 -6.5 -17t-31.5 -21l-75 -37.5l-93 -43.5l-108 -47t-123 -47q-17 -6 -35 -11t-39 -9q-11 -3 -24 -3q-8 -1 -16.5 -1t-22.5 5q-2 0 -8 2q-5 3 -10 5l-2 2q-21 28 -26 36t-4 7t3.5 -4.5t-2.5 3.5q0 2 -0.5 5t-0.5 5q0 11 1 15q2 12 4 18t4 11l8 14.5t7 10.5 q13 20 25.5 34.5l24.5 29.5l25.5 28l25.5 28l102.5 111l102.5 112l48.5 57l46.5 57l42 57t34 55q8 14 13.5 26.5t7.5 22.5q2 6 2 8q-6 3 -15.5 5t-20.5 4q-26 4 -54.5 4t-57.5 -1l-57 -4l-55 -4q-54 -5 -102 -9t-88 -6q-33 -1 -54.5 2.5t-34.5 9.5t-18 14.5t-5 19.5 q-1 11 1.5 20.5t11.5 19t27 19t48 21.5q37 14 84 28.5t104 27.5q57 14 124 21q34 4 71 6t79 -3q21 -3 44.5 -8t50.5 -17q13 -6 27 -14.5t28 -21.5q7 -6 13 -13.5l12 -15.5q1 -5 5 -8l1 -1.5t2 -4t1.5 -3.5t-0.5 1l1 -1l1 -2l2 -5l3.5 -9t2.5 -9z" />
<glyph unicode="{" horiz-adv-x="521" d="M510 1174q1 -11 -1 -20.5t-9 -17.5q-6 -9 -18 -17.5t-29 -19.5q-20 -14 -37.5 -30t-29.5 -39q-25 -44 -37 -139q-7 -47 -12.5 -102t-21.5 -119q-8 -32 -21 -66t-36 -68l-12 -16t-13 -16q-1 -1 -5 -5.5t-8 -6.5q-1 -2 -2 -2.5t-3 -2.5q4 -7 7.5 -14.5t6.5 -16.5l4 -10.5 l4 -11.5q1 -3 1 -6.5t1 -6.5q2 -8 2 -12q4 -33 4 -64t-2 -60q-3 -60 -7.5 -112.5t-6.5 -100.5t3.5 -87.5t22.5 -62.5q16 -24 44 -33t54 -9q31 -2 36 -18v-1q1 -8 -7 -15.5t-28 -12.5q-14 -4 -32 -5.5t-40 1.5q-21 2 -44 12t-43 30q-20 19 -33.5 43t-22.5 49 q-8 26 -13.5 52.5t-9.5 52.5q-8 54 -10.5 108.5t-7.5 108.5q-3 26 -6.5 52t-8.5 49q-1 1 -4.5 7.5t-9.5 16.5q-4 5 -7.5 10.5t-8.5 12.5t-10 15.5t-12 25.5q-2 5 -3.5 10.5t-2.5 14.5q-2 8 -1.5 21t6.5 28q1 2 1 2.5t1 2.5l2 4l3 6q2 5 5 8.5t5 6.5q3 4 9 10l4 4l4 4 q13 11 20.5 15.5t12.5 8.5l1 1q2 4 4.5 7t4.5 7q8 16 15 35.5t12 42.5q10 47 15 100t15 108q5 27 11 54.5t17 54.5q11 28 25 53.5t33 48.5q19 22 41 38.5t44 27.5q23 11 43 16t38 7q30 3 48 -1t28 -11t13.5 -15t4.5 -19v-1v0z" />
<glyph unicode="|" horiz-adv-x="358" d="M243 1164q14 -42 21 -103.5t8.5 -135t-1 -155.5t-8.5 -165.5t-13.5 -165t-16 -154t-16.5 -132t-15 -99.5q-2 -12 -8.5 -18.5t-14 -6.5t-14.5 6.5t-10 20.5q-8 40 -17.5 100t-18 132t-16 153.5t-12 164.5t-6.5 165t0 155t9.5 134.5t20.5 103.5q11 35 27 45t37 10t37 -10 t27 -45z" />
<glyph unicode="}" horiz-adv-x="461" d="M438 894q-14 -60 -36.5 -116.5t-47.5 -110.5l-12 -27l-12 -26q2 -2 2.5 -3t2.5 -3q5 -8 11 -15t12 -17q2 -2 3.5 -5t3.5 -6q2 -5 4.5 -8.5t5.5 -13.5l1 -2q0 2 0 0.5t1 -4t1.5 -4.5l0.5 -2q0 -5 1 -7q0 -3 0.5 -6t0.5 -6q0 -10 -2 -20t-4.5 -16.5l-4.5 -11.5 q-10 -20 -18 -28.5l-15 -16.5t-13 -13t-11 -10t-9 -8.5t-6 -5.5q-4 -22 -5.5 -45.5t-1.5 -48.5q0 -54 5.5 -110.5t3.5 -115.5q-1 -29 -5 -59t-16 -59q-11 -29 -30.5 -52t-41.5 -38q-22 -14 -43.5 -22.5t-40.5 -13.5q-20 -5 -37.5 -7t-32.5 -4q-19 -1 -29 4.5t-11 13.5 t7.5 16t26.5 13q26 10 57.5 24.5t54.5 39.5t29 58q3 18 2.5 39t-3.5 44q-7 48 -20.5 102.5t-21.5 118.5q-4 32 -5.5 66.5t2.5 70.5l1 5v2v1l1 5q2 10 5 16t5 11q5 10 9 16t8 11q9 12 17 20q-2 2 -4 2.5t-4 2.5q-6 5 -13.5 12t-15.5 18q1 -1 1 -0.5t-1 1.5q-11 16 -14 35 q-2 5 -2.5 10t-1.5 10q-2 17 0.5 26.5l4.5 17.5q5 13 8 19t6 11q2 5 3.5 7.5t2.5 4.5l1 1l1 4q6 15 12 28.5t11 27.5l42.5 104t31.5 94q5 22 8.5 41t3.5 33q0 17 -1 21q-1 3 -1 5t-1 4q-2 10 -28 20q-12 5 -26 8l-27 6q-46 8 -63 19q-10 7 -14.5 15t-6.5 19t-1 20.5t9 19.5 q8 9 24 18t45 17q17 5 38 7.5t47 0.5q14 -1 28 -3.5t29 -7.5q16 -5 32.5 -14t31.5 -23t27.5 -31.5t20.5 -36.5t12 -37.5t6 -35.5q3 -36 -1 -68t-11 -63z" />
<glyph unicode="~" horiz-adv-x="775" d="M28 646q2 17 9.5 36.5t22.5 41.5q14 21 38 44.5t66 40.5q20 8 43 11t45 1q23 -2 42 -7t36 -13q34 -15 59 -32l47 -33q45 -32 81 -55t72 -29q37 -7 72 2t59 19q7 3 14 0t12 -9t6 -14t-5 -16q-9 -12 -22 -25.5t-32 -26.5q-19 -14 -43.5 -25.5t-55.5 -17.5t-64 -4t-65 10 t-61 19.5t-55 24.5l-48 22.5t-39 15.5q-8 3 -14.5 4t-9.5 2h-11q-14 -2 -40 -21q-13 -8 -25 -17t-25 -16q-20 -13 -37 -11t-36 12q-19 11 -29.5 24t-6.5 42z" />
<glyph horiz-adv-x="698" d="M883 717q1 -6 -10 -15t-37 -18l-88 -30.5t-108 -34.5q-11 -3 -22.5 -6.5l-23.5 -7.5q5 -35 7 -69.5t1 -68.5q-1 -45 -6.5 -89t-15.5 -87t-24.5 -84t-37.5 -82q-12 -20 -27 -39.5t-38 -37.5q-12 -9 -25.5 -17t-29.5 -13q-33 -11 -67 -6q-8 2 -16 3.5t-15 4.5q-14 4 -27 12 q-14 8 -27.5 19.5t-22.5 27.5q-10 16 -14.5 31.5t-5.5 29.5q-2 14 -1.5 25.5t2.5 21.5q3 21 8 37.5l10 31.5t10 28l10 25q10 24 17 44t12 37q8 28 8.5 41t1.5 24q0 21 11 33q5 7 14 9.5t25 -5.5q7 -5 15 -14.5t16 -23.5q7 -15 11 -34t4 -41q-1 -27 -5 -54t-10 -53 q-3 -14 -6.5 -27t-5.5 -26q-3 -13 -5 -25t-2 -23v-10q2 0 4 -1h2l1 1q1 1 3 2t5 4q5 5 12.5 14.5t14.5 22.5q14 25 25 57t19 67t13 72t7 75q1 23 0.5 45.5t-2.5 45.5q-17 -5 -35 -8.5l-37 -7.5q-37 -8 -76 -14.5t-83 -8.5q-22 -1 -46 0l-27 4t-33 10q-5 3 -10 5.5t-10 7.5 t-10 11t-10 14t-7 16.5t-3 16.5t0 15t2 13q6 23 14.5 36.5t16.5 24.5q17 20 33.5 36.5t33.5 31.5l35.5 29t40.5 28t46.5 24t55.5 16q15 2 31.5 2.5t33.5 -2.5q17 -2 34 -8.5t32 -15.5q29 -19 48.5 -43.5t32.5 -48.5q10 -19 17 -37.5t12 -37.5q13 2 25.5 4.5t24.5 4.5 l110 20.5l90 17.5q24 5 38 3t16 -8zM364 643l34 4l34 4q-3 10 -6 18.5t-7 16.5q-13 27 -28 37q-12 9 -35 8q-12 -2 -27 -7.5t-30 -13.5q-16 -8 -31 -18.5l-31 -22.5q-11 -8 -21.5 -17l-19.5 -17q6 -1 11.5 -1h10.5q36 -1 73 1.5t73 7.5z" />
<glyph unicode="&#xf700;" horiz-adv-x="698" d="M883 717q1 -6 -10 -15t-37 -18l-88 -30.5t-108 -34.5q-11 -3 -22.5 -6.5l-23.5 -7.5q5 -35 7 -69.5t1 -68.5q-1 -45 -6.5 -89t-15.5 -87t-24.5 -84t-37.5 -82q-12 -20 -27 -39.5t-38 -37.5q-12 -9 -25.5 -17t-29.5 -13q-33 -11 -67 -6q-8 2 -16 3.5t-15 4.5q-14 4 -27 12 q-14 8 -27.5 19.5t-22.5 27.5q-10 16 -14.5 31.5t-5.5 29.5q-2 14 -1.5 25.5t2.5 21.5q3 21 8 37.5l10 31.5t10 28l10 25q10 24 17 44t12 37q8 28 8.5 41t1.5 24q0 21 11 33q5 7 14 9.5t25 -5.5q7 -5 15 -14.5t16 -23.5q7 -15 11 -34t4 -41q-1 -27 -5 -54t-10 -53 q-3 -14 -6.5 -27t-5.5 -26q-3 -13 -5 -25t-2 -23v-10q2 0 4 -1h2l1 1q1 1 3 2t5 4q5 5 12.5 14.5t14.5 22.5q14 25 25 57t19 67t13 72t7 75q1 23 0.5 45.5t-2.5 45.5q-17 -5 -35 -8.5l-37 -7.5q-37 -8 -76 -14.5t-83 -8.5q-22 -1 -46 0l-27 4t-33 10q-5 3 -10 5.5t-10 7.5 t-10 11t-10 14t-7 16.5t-3 16.5t0 15t2 13q6 23 14.5 36.5t16.5 24.5q17 20 33.5 36.5t33.5 31.5l35.5 29t40.5 28t46.5 24t55.5 16q15 2 31.5 2.5t33.5 -2.5q17 -2 34 -8.5t32 -15.5q29 -19 48.5 -43.5t32.5 -48.5q10 -19 17 -37.5t12 -37.5q13 2 25.5 4.5t24.5 4.5 l110 20.5l90 17.5q24 5 38 3t16 -8zM364 643l34 4l34 4q-3 10 -6 18.5t-7 16.5q-13 27 -28 37q-12 9 -35 8q-12 -2 -27 -7.5t-30 -13.5q-16 -8 -31 -18.5l-31 -22.5q-11 -8 -21.5 -17l-19.5 -17q6 -1 11.5 -1h10.5q36 -1 73 1.5t73 7.5z" />
<glyph unicode="&#x20ac;" horiz-adv-x="698" d="M883 717q1 -6 -10 -15t-37 -18l-88 -30.5t-108 -34.5q-11 -3 -22.5 -6.5l-23.5 -7.5q5 -35 7 -69.5t1 -68.5q-1 -45 -6.5 -89t-15.5 -87t-24.5 -84t-37.5 -82q-12 -20 -27 -39.5t-38 -37.5q-12 -9 -25.5 -17t-29.5 -13q-33 -11 -67 -6q-8 2 -16 3.5t-15 4.5q-14 4 -27 12 q-14 8 -27.5 19.5t-22.5 27.5q-10 16 -14.5 31.5t-5.5 29.5q-2 14 -1.5 25.5t2.5 21.5q3 21 8 37.5l10 31.5t10 28l10 25q10 24 17 44t12 37q8 28 8.5 41t1.5 24q0 21 11 33q5 7 14 9.5t25 -5.5q7 -5 15 -14.5t16 -23.5q7 -15 11 -34t4 -41q-1 -27 -5 -54t-10 -53 q-3 -14 -6.5 -27t-5.5 -26q-3 -13 -5 -25t-2 -23v-10q2 0 4 -1h2l1 1q1 1 3 2t5 4q5 5 12.5 14.5t14.5 22.5q14 25 25 57t19 67t13 72t7 75q1 23 0.5 45.5t-2.5 45.5q-17 -5 -35 -8.5l-37 -7.5q-37 -8 -76 -14.5t-83 -8.5q-22 -1 -46 0l-27 4t-33 10q-5 3 -10 5.5t-10 7.5 t-10 11t-10 14t-7 16.5t-3 16.5t0 15t2 13q6 23 14.5 36.5t16.5 24.5q17 20 33.5 36.5t33.5 31.5l35.5 29t40.5 28t46.5 24t55.5 16q15 2 31.5 2.5t33.5 -2.5q17 -2 34 -8.5t32 -15.5q29 -19 48.5 -43.5t32.5 -48.5q10 -19 17 -37.5t12 -37.5q13 2 25.5 4.5t24.5 4.5 l110 20.5l90 17.5q24 5 38 3t16 -8zM364 643l34 4l34 4q-3 10 -6 18.5t-7 16.5q-13 27 -28 37q-12 9 -35 8q-12 -2 -27 -7.5t-30 -13.5q-16 -8 -31 -18.5l-31 -22.5q-11 -8 -21.5 -17l-19.5 -17q6 -1 11.5 -1h10.5q36 -1 73 1.5t73 7.5z" />
<glyph d="M-58 1024q13 -8 9 -19q-6 -9 -20 -8l-59 10t-77 12t-89 10.5t-94 5.5q-48 2 -92.5 -0.5t-84.5 -7.5t-73 -10.5t-58 -6.5q-21 -2 -30.5 4.5t-14.5 18.5q-6 12 -4.5 23.5t19.5 26.5q22 18 59 34t84 24q48 9 100.5 8.5t105.5 -8.5q52 -8 101 -23t90 -31.5t74 -33.5t54 -29z " />
<glyph unicode="&#xf701;" d="M-58 1024q13 -8 9 -19q-6 -9 -20 -8l-59 10t-77 12t-89 10.5t-94 5.5q-48 2 -92.5 -0.5t-84.5 -7.5t-73 -10.5t-58 -6.5q-21 -2 -30.5 4.5t-14.5 18.5q-6 12 -4.5 23.5t19.5 26.5q22 18 59 34t84 24q48 9 100.5 8.5t105.5 -8.5q52 -8 101 -23t90 -31.5t74 -33.5t54 -29z " />
<glyph d="M-301 1551q11 -2 8 -27q-5 -38 -14.5 -92.5t-26.5 -120.5q-18 -66 -44 -138q-7 -17 -14 -36l-5 -14.5t-5 -17.5q-3 -10 -6.5 -20t-10.5 -24q-3 -8 -10 -16l-9.5 -10t-17.5 -11q-3 -2 -6.5 -2.5t-6.5 -1.5q-8 -2 -12 -2q-6 0 -10 0.5t-8 1.5q-7 2 -11 3.5t-8 3.5 q-14 7 -23 12t-17 10q-16 11 -25 13q-1 1 -2 1l-3 1q-6 2 -8 2q-5 2 -8.5 2.5t-7.5 1.5q-8 2 -16.5 3.5t-16.5 3.5q-33 6 -66.5 8.5t-65.5 3.5q-64 2 -117.5 -0.5t-91.5 -1.5q-32 0 -43 6.5t-14 19.5h-1q-3 13 3.5 25t38.5 26q38 17 96.5 28.5t130.5 12.5q36 0 74 -3.5 t79 -11.5q10 -2 20 -4.5t20 -5.5l21 -6q2 -1 5 -2t5 -2t3 -1t3 -1t3.5 -1.5t3.5 -1.5q14 -7 23 -13l18 -12l2 -2v2q4 8 8 17.5t10 20.5q5 8 8.5 16t8.5 16q17 32 31.5 64l28.5 62q26 60 46 111l33 86q9 22 20 18z" />
<glyph unicode="&#xf702;" d="M-301 1551q11 -2 8 -27q-5 -38 -14.5 -92.5t-26.5 -120.5q-18 -66 -44 -138q-7 -17 -14 -36l-5 -14.5t-5 -17.5q-3 -10 -6.5 -20t-10.5 -24q-3 -8 -10 -16l-9.5 -10t-17.5 -11q-3 -2 -6.5 -2.5t-6.5 -1.5q-8 -2 -12 -2q-6 0 -10 0.5t-8 1.5q-7 2 -11 3.5t-8 3.5 q-14 7 -23 12t-17 10q-16 11 -25 13q-1 1 -2 1l-3 1q-6 2 -8 2q-5 2 -8.5 2.5t-7.5 1.5q-8 2 -16.5 3.5t-16.5 3.5q-33 6 -66.5 8.5t-65.5 3.5q-64 2 -117.5 -0.5t-91.5 -1.5q-32 0 -43 6.5t-14 19.5h-1q-3 13 3.5 25t38.5 26q38 17 96.5 28.5t130.5 12.5q36 0 74 -3.5 t79 -11.5q10 -2 20 -4.5t20 -5.5l21 -6q2 -1 5 -2t5 -2t3 -1t3 -1t3.5 -1.5t3.5 -1.5q14 -7 23 -13l18 -12l2 -2v2q4 8 8 17.5t10 20.5q5 8 8.5 16t8.5 16q17 32 31.5 64l28.5 62q26 60 46 111l33 86q9 22 20 18z" />
<glyph unicode="&#x201a;" d="M-301 1551q11 -2 8 -27q-5 -38 -14.5 -92.5t-26.5 -120.5q-18 -66 -44 -138q-7 -17 -14 -36l-5 -14.5t-5 -17.5q-3 -10 -6.5 -20t-10.5 -24q-3 -8 -10 -16l-9.5 -10t-17.5 -11q-3 -2 -6.5 -2.5t-6.5 -1.5q-8 -2 -12 -2q-6 0 -10 0.5t-8 1.5q-7 2 -11 3.5t-8 3.5 q-14 7 -23 12t-17 10q-16 11 -25 13q-1 1 -2 1l-3 1q-6 2 -8 2q-5 2 -8.5 2.5t-7.5 1.5q-8 2 -16.5 3.5t-16.5 3.5q-33 6 -66.5 8.5t-65.5 3.5q-64 2 -117.5 -0.5t-91.5 -1.5q-32 0 -43 6.5t-14 19.5h-1q-3 13 3.5 25t38.5 26q38 17 96.5 28.5t130.5 12.5q36 0 74 -3.5 t79 -11.5q10 -2 20 -4.5t20 -5.5l21 -6q2 -1 5 -2t5 -2t3 -1t3 -1t3.5 -1.5t3.5 -1.5q14 -7 23 -13l18 -12l2 -2v2q4 8 8 17.5t10 20.5q5 8 8.5 16t8.5 16q17 32 31.5 64l28.5 62q26 60 46 111l33 86q9 22 20 18z" />
<glyph d="M-886 1190q19 15 49 25t64 9q34 0 68 -8t68 -20q33 -12 66 -26.5l65 -28.5t63 -24t54 -8q5 0 9.5 1t9.5 3h1q-2 -1 0 1q1 1 3 1l1 1l2 1q1 0 5 2q2 2 4 3t4 3q16 13 19 36q4 22 -7 45q-5 11 -13.5 19.5t-17.5 14.5q-47 25 -70 -9q-11 -16 -10.5 -35t8.5 -32q8 -19 2 -25 q-2 -3 -9.5 -2t-18.5 12q-7 8 -12.5 19t-8.5 25t-2 30t9 33q7 17 22 31t36 21t42.5 5t41.5 -10q43 -17 70 -56q14 -20 21.5 -43.5t6.5 -49.5t-10.5 -52t-29.5 -47q-8 -9 -21 -19q-2 -2 -5 -4l-6 -4l-6 -3l-1 -1q-1 0 2 1.5t1 -0.5l-2 -1l-3 -1q-24 -14 -53 -19 q-27 -5 -51 -2.5t-46 7.5q-21 5 -40.5 11.5t-37.5 13.5q-36 14 -68 28.5t-61 25.5q-60 25 -101 32q-22 4 -39 3.5t-31 -3.5l-21.5 -5t-15.5 -1q-12 1 -22 11q-5 5 -7.5 10.5t-0.5 13.5q1 8 7.5 18t23.5 23z" />
<glyph unicode="&#xf703;" d="M-886 1190q19 15 49 25t64 9q34 0 68 -8t68 -20q33 -12 66 -26.5l65 -28.5t63 -24t54 -8q5 0 9.5 1t9.5 3h1q-2 -1 0 1q1 1 3 1l1 1l2 1q1 0 5 2q2 2 4 3t4 3q16 13 19 36q4 22 -7 45q-5 11 -13.5 19.5t-17.5 14.5q-47 25 -70 -9q-11 -16 -10.5 -35t8.5 -32q8 -19 2 -25 q-2 -3 -9.5 -2t-18.5 12q-7 8 -12.5 19t-8.5 25t-2 30t9 33q7 17 22 31t36 21t42.5 5t41.5 -10q43 -17 70 -56q14 -20 21.5 -43.5t6.5 -49.5t-10.5 -52t-29.5 -47q-8 -9 -21 -19q-2 -2 -5 -4l-6 -4l-6 -3l-1 -1q-1 0 2 1.5t1 -0.5l-2 -1l-3 -1q-24 -14 -53 -19 q-27 -5 -51 -2.5t-46 7.5q-21 5 -40.5 11.5t-37.5 13.5q-36 14 -68 28.5t-61 25.5q-60 25 -101 32q-22 4 -39 3.5t-31 -3.5l-21.5 -5t-15.5 -1q-12 1 -22 11q-5 5 -7.5 10.5t-0.5 13.5q1 8 7.5 18t23.5 23z" />
<glyph unicode="&#x192;" d="M-886 1190q19 15 49 25t64 9q34 0 68 -8t68 -20q33 -12 66 -26.5l65 -28.5t63 -24t54 -8q5 0 9.5 1t9.5 3h1q-2 -1 0 1q1 1 3 1l1 1l2 1q1 0 5 2q2 2 4 3t4 3q16 13 19 36q4 22 -7 45q-5 11 -13.5 19.5t-17.5 14.5q-47 25 -70 -9q-11 -16 -10.5 -35t8.5 -32q8 -19 2 -25 q-2 -3 -9.5 -2t-18.5 12q-7 8 -12.5 19t-8.5 25t-2 30t9 33q7 17 22 31t36 21t42.5 5t41.5 -10q43 -17 70 -56q14 -20 21.5 -43.5t6.5 -49.5t-10.5 -52t-29.5 -47q-8 -9 -21 -19q-2 -2 -5 -4l-6 -4l-6 -3l-1 -1q-1 0 2 1.5t1 -0.5l-2 -1l-3 -1q-24 -14 -53 -19 q-27 -5 -51 -2.5t-46 7.5q-21 5 -40.5 11.5t-37.5 13.5q-36 14 -68 28.5t-61 25.5q-60 25 -101 32q-22 4 -39 3.5t-31 -3.5l-21.5 -5t-15.5 -1q-12 1 -22 11q-5 5 -7.5 10.5t-0.5 13.5q1 8 7.5 18t23.5 23z" />
<glyph d="M-346 1403q0 -35 -0.5 -86t-6.5 -115q-3 -33 -9 -65q-2 -9 -3.5 -18t-3.5 -17l-2 -9q-1 -2 -1 -4t-1 -4q-1 -4 -1.5 -8t-2.5 -9t-3 -10t-5 -13q-1 -2 -2 -4.5t-3 -4.5q-1 -2 -2 -3.5t-2 -3.5q-3 -2 -9 -8q-2 -2 -3.5 -2.5t-3.5 -2.5q-6 -2 -10 -4q-6 -2 -12.5 -2.5 t-12.5 1.5q-11 2 -16 5t-8 5q-6 5 -8.5 7.5l-5.5 5.5q-5 5 -7 8q-4 4 -7 7.5t-5 5.5q-2 3 -4.5 5t-4.5 4l-2 1q-3 3 -5 4q-5 3 -10.5 5.5l-12.5 5.5q-26 10 -57 15t-62 7q-32 2 -63 1.5t-60 -2.5q-58 -4 -106 -11l-80 -12q-27 -5 -38 -1t-19 15h-1q-3 5 -4.5 11t0.5 13.5 t9.5 16t21.5 18.5q34 23 88 40.5t120 25.5q33 3 68.5 3.5t73.5 -3.5q19 -2 37 -5t38 -8q2 17 4.5 34.5t6.5 35.5q7 43 15.5 85t16.5 65q1 3 5 5t9 2t9 -1.5t6 -4.5q11 -22 25 -62.5t19 -90.5q6 -52 -3 -95q-1 -8 -5 -19q2 -2 5 -3.5t5 -3.5t4.5 -3.5t4.5 -3.5l3 -3 q2 5 3 8.5t3 8.5q5 14 9 29l8 30q16 59 27.5 108.5t20.5 83.5q2 10 7 15t10 3q11 -2 11 -24z" />
<glyph unicode="&#xf704;" d="M-346 1403q0 -35 -0.5 -86t-6.5 -115q-3 -33 -9 -65q-2 -9 -3.5 -18t-3.5 -17l-2 -9q-1 -2 -1 -4t-1 -4q-1 -4 -1.5 -8t-2.5 -9t-3 -10t-5 -13q-1 -2 -2 -4.5t-3 -4.5q-1 -2 -2 -3.5t-2 -3.5q-3 -2 -9 -8q-2 -2 -3.5 -2.5t-3.5 -2.5q-6 -2 -10 -4q-6 -2 -12.5 -2.5 t-12.5 1.5q-11 2 -16 5t-8 5q-6 5 -8.5 7.5l-5.5 5.5q-5 5 -7 8q-4 4 -7 7.5t-5 5.5q-2 3 -4.5 5t-4.5 4l-2 1q-3 3 -5 4q-5 3 -10.5 5.5l-12.5 5.5q-26 10 -57 15t-62 7q-32 2 -63 1.5t-60 -2.5q-58 -4 -106 -11l-80 -12q-27 -5 -38 -1t-19 15h-1q-3 5 -4.5 11t0.5 13.5 t9.5 16t21.5 18.5q34 23 88 40.5t120 25.5q33 3 68.5 3.5t73.5 -3.5q19 -2 37 -5t38 -8q2 17 4.5 34.5t6.5 35.5q7 43 15.5 85t16.5 65q1 3 5 5t9 2t9 -1.5t6 -4.5q11 -22 25 -62.5t19 -90.5q6 -52 -3 -95q-1 -8 -5 -19q2 -2 5 -3.5t5 -3.5t4.5 -3.5t4.5 -3.5l3 -3 q2 5 3 8.5t3 8.5q5 14 9 29l8 30q16 59 27.5 108.5t20.5 83.5q2 10 7 15t10 3q11 -2 11 -24z" />
<glyph unicode="&#x201e;" d="M-346 1403q0 -35 -0.5 -86t-6.5 -115q-3 -33 -9 -65q-2 -9 -3.5 -18t-3.5 -17l-2 -9q-1 -2 -1 -4t-1 -4q-1 -4 -1.5 -8t-2.5 -9t-3 -10t-5 -13q-1 -2 -2 -4.5t-3 -4.5q-1 -2 -2 -3.5t-2 -3.5q-3 -2 -9 -8q-2 -2 -3.5 -2.5t-3.5 -2.5q-6 -2 -10 -4q-6 -2 -12.5 -2.5 t-12.5 1.5q-11 2 -16 5t-8 5q-6 5 -8.5 7.5l-5.5 5.5q-5 5 -7 8q-4 4 -7 7.5t-5 5.5q-2 3 -4.5 5t-4.5 4l-2 1q-3 3 -5 4q-5 3 -10.5 5.5l-12.5 5.5q-26 10 -57 15t-62 7q-32 2 -63 1.5t-60 -2.5q-58 -4 -106 -11l-80 -12q-27 -5 -38 -1t-19 15h-1q-3 5 -4.5 11t0.5 13.5 t9.5 16t21.5 18.5q34 23 88 40.5t120 25.5q33 3 68.5 3.5t73.5 -3.5q19 -2 37 -5t38 -8q2 17 4.5 34.5t6.5 35.5q7 43 15.5 85t16.5 65q1 3 5 5t9 2t9 -1.5t6 -4.5q11 -22 25 -62.5t19 -90.5q6 -52 -3 -95q-1 -8 -5 -19q2 -2 5 -3.5t5 -3.5t4.5 -3.5t4.5 -3.5l3 -3 q2 5 3 8.5t3 8.5q5 14 9 29l8 30q16 59 27.5 108.5t20.5 83.5q2 10 7 15t10 3q11 -2 11 -24z" />
<glyph unicode="&#x85;" horiz-adv-x="921" d="M517 140q8 -18 15 -42.5t9 -46.5q2 -21 -7.5 -38t-38.5 -20q-12 -1 -27.5 2.5t-35.5 10.5t-34.5 13.5t-24.5 14.5q-22 20 -16 42.5t27 42.5t49 32.5t45 14.5q6 0 21 -10l11 -9t7 -7zM221 161q12 -17 22.5 -43t13.5 -51q2 -26 -6.5 -45t-37.5 -24q-22 -3 -63 8h-1 q-21 5 -35.5 10.5t-24.5 13.5q-23 19 -18.5 42.5t22.5 44.5t42.5 36.5t40.5 23.5q2 1 9 -0.5t15 -4.5q7 -2 13 -5t8 -6zM837 66q9 -14 5.5 -29t-30.5 -25q-11 -4 -27 -5t-36 -1h-1q-22 0 -37.5 1t-26.5 5q-27 10 -29 29.5t12 43.5t37 39t38 20q6 2 23 -5q7 -2 13.5 -5 t8.5 -5q13 -14 27.5 -31.5t22.5 -31.5z" />
<glyph unicode="&#x2026;" horiz-adv-x="921" d="M517 140q8 -18 15 -42.5t9 -46.5q2 -21 -7.5 -38t-38.5 -20q-12 -1 -27.5 2.5t-35.5 10.5t-34.5 13.5t-24.5 14.5q-22 20 -16 42.5t27 42.5t49 32.5t45 14.5q6 0 21 -10l11 -9t7 -7zM221 161q12 -17 22.5 -43t13.5 -51q2 -26 -6.5 -45t-37.5 -24q-22 -3 -63 8h-1 q-21 5 -35.5 10.5t-24.5 13.5q-23 19 -18.5 42.5t22.5 44.5t42.5 36.5t40.5 23.5q2 1 9 -0.5t15 -4.5q7 -2 13 -5t8 -6zM837 66q9 -14 5.5 -29t-30.5 -25q-11 -4 -27 -5t-36 -1h-1q-22 0 -37.5 1t-26.5 5q-27 10 -29 29.5t12 43.5t37 39t38 20q6 2 23 -5q7 -2 13.5 -5 t8.5 -5q13 -14 27.5 -31.5t22.5 -31.5z" />
<glyph d="M-338 1419q1 -36 -19.5 -93.5t-50.5 -119.5q-31 -63 -65 -116q-17 -26 -32 -45.5t-26 -32.5q-8 -8 -17 -2q-4 2 -6.5 6.5t-0.5 9.5q3 16 8.5 40l12 52.5t14.5 60t17 63.5t19 64t22 59.5t25.5 49.5t28.5 35q11 11 21.5 11t21.5 -5l1 -1q11 -5 18 -12.5t8 -23.5z" />
<glyph unicode="&#xf705;" d="M-338 1419q1 -36 -19.5 -93.5t-50.5 -119.5q-31 -63 -65 -116q-17 -26 -32 -45.5t-26 -32.5q-8 -8 -17 -2q-4 2 -6.5 6.5t-0.5 9.5q3 16 8.5 40l12 52.5t14.5 60t17 63.5t19 64t22 59.5t25.5 49.5t28.5 35q11 11 21.5 11t21.5 -5l1 -1q11 -5 18 -12.5t8 -23.5z" />
<glyph unicode="&#x2020;" d="M-338 1419q1 -36 -19.5 -93.5t-50.5 -119.5q-31 -63 -65 -116q-17 -26 -32 -45.5t-26 -32.5q-8 -8 -17 -2q-4 2 -6.5 6.5t-0.5 9.5q3 16 8.5 40l12 52.5t14.5 60t17 63.5t19 64t22 59.5t25.5 49.5t28.5 35q11 11 21.5 11t21.5 -5l1 -1q11 -5 18 -12.5t8 -23.5z" />
<glyph d="M901 1421q3 -10 -28 -25l-120 -54l-159.5 -68.5l-187.5 -75.5l-204 -76l-104 -35t-105 -32q-52 -15 -103 -27t-105 -17q-14 -1 -28.5 -1.5t-33.5 2.5q-5 2 -10 3t-11 3q-7 3 -14.5 7.5t-15.5 13.5q-7 7 -14 21q-1 3 -1.5 5t-1.5 5q-2 5 -2.5 10t-1.5 10q-2 21 2.5 38 t9.5 30q6 13 12.5 23.5l12.5 19.5q12 18 23.5 32t20.5 27q9 12 14.5 21.5t8.5 15.5q3 10 3 18q0 6 -2 16q-2 16 5 24v1q4 5 9.5 7.5t16.5 -0.5q5 -2 11 -5.5t14 -12.5q8 -8 13.5 -22.5t5.5 -32.5q0 -22 -6.5 -41t-14.5 -36l-18.5 -33.5t-17.5 -32.5q-7 -12 -12 -26 q3 0 6.5 0.5t6.5 0.5q43 5 91 16.5l99 24.5l103 27.5l105 29.5l207 61.5l193 57.5l166.5 49l126.5 36q31 8 35 -3z" />
<glyph unicode="&#xf706;" d="M901 1421q3 -10 -28 -25l-120 -54l-159.5 -68.5l-187.5 -75.5l-204 -76l-104 -35t-105 -32q-52 -15 -103 -27t-105 -17q-14 -1 -28.5 -1.5t-33.5 2.5q-5 2 -10 3t-11 3q-7 3 -14.5 7.5t-15.5 13.5q-7 7 -14 21q-1 3 -1.5 5t-1.5 5q-2 5 -2.5 10t-1.5 10q-2 21 2.5 38 t9.5 30q6 13 12.5 23.5l12.5 19.5q12 18 23.5 32t20.5 27q9 12 14.5 21.5t8.5 15.5q3 10 3 18q0 6 -2 16q-2 16 5 24v1q4 5 9.5 7.5t16.5 -0.5q5 -2 11 -5.5t14 -12.5q8 -8 13.5 -22.5t5.5 -32.5q0 -22 -6.5 -41t-14.5 -36l-18.5 -33.5t-17.5 -32.5q-7 -12 -12 -26 q3 0 6.5 0.5t6.5 0.5q43 5 91 16.5l99 24.5l103 27.5l105 29.5l207 61.5l193 57.5l166.5 49l126.5 36q31 8 35 -3z" />
<glyph unicode="&#x2021;" d="M901 1421q3 -10 -28 -25l-120 -54l-159.5 -68.5l-187.5 -75.5l-204 -76l-104 -35t-105 -32q-52 -15 -103 -27t-105 -17q-14 -1 -28.5 -1.5t-33.5 2.5q-5 2 -10 3t-11 3q-7 3 -14.5 7.5t-15.5 13.5q-7 7 -14 21q-1 3 -1.5 5t-1.5 5q-2 5 -2.5 10t-1.5 10q-2 21 2.5 38 t9.5 30q6 13 12.5 23.5l12.5 19.5q12 18 23.5 32t20.5 27q9 12 14.5 21.5t8.5 15.5q3 10 3 18q0 6 -2 16q-2 16 5 24v1q4 5 9.5 7.5t16.5 -0.5q5 -2 11 -5.5t14 -12.5q8 -8 13.5 -22.5t5.5 -32.5q0 -22 -6.5 -41t-14.5 -36l-18.5 -33.5t-17.5 -32.5q-7 -12 -12 -26 q3 0 6.5 0.5t6.5 0.5q43 5 91 16.5l99 24.5l103 27.5l105 29.5l207 61.5l193 57.5l166.5 49l126.5 36q31 8 35 -3z" />
<glyph d="M218 1465q3 -3 -2 -16t-22 -34q-53 -63 -144.5 -139.5t-212.5 -157.5l-62.5 -40t-66.5 -39q-16 -9 -37 -19q-10 -5 -19.5 -9t-25.5 -8q-4 -1 -9 -2t-17 1q-2 1 -3.5 1t-3.5 1t-4.5 2t-5.5 3q-4 2 -10 8.5t-8 12.5q-3 8 -3.5 13.5t-0.5 8.5q0 8 1 12.5t2 8.5q2 5 4 13 q5 12 9.5 21.5l9.5 19.5q18 37 37.5 71l39.5 69l-63.5 -49.5l-63.5 -47.5l-34 -25t-37 -23q-5 -3 -10.5 -6t-12.5 -6q-6 -3 -15 -6q-5 -1 -10.5 -2.5t-15.5 -1.5h-6q-7 0 -16.5 2.5t-17.5 7.5q-14 -1 -13 -0.5t11 1.5q-4 3 -7 7q-10 9 -14 23q-2 6 -2 6.5v3.5q0 2 -0.5 4 t-0.5 4q0 4 1 6q0 5 1 7q0 3 0.5 5t0.5 4q2 6 3 11t3 10q3 10 6 19l6 18q2 8 4 15t2 12q5 31 0 55q-2 12 -6 19.5t-9 12.5q-10 10 -28 10q-20 2 -43.5 -6.5t-43.5 -22.5q-42 -27 -68.5 -64t-40.5 -71q-11 -29 -16.5 -47.5t-10.5 -29.5t-10.5 -15t-11.5 -5q-7 0 -12.5 4 t-10.5 16q-5 13 -7 37t6 63q9 46 38 98.5t86 96.5q14 11 30 20t35 17q18 8 39 13t45 4q24 0 50.5 -8t48.5 -28t33.5 -45t16.5 -48q4 -21 4.5 -40.5t-1.5 -38.5l63.5 46.5l64.5 47.5q32 24 70 49l18.5 12t20.5 12q12 7 26 12q5 2 10.5 3t16.5 2h5q2 0 4 -0.5t4 -0.5 q2 -1 4 -1t4 -1q3 -2 5.5 -3t4.5 -2q10 -6 16.5 -15t8.5 -16q5 -15 4 -22.5t-2 -12.5q-2 -11 -4 -17q-4 -14 -10 -24q-9 -21 -21 -40l-21.5 -37.5l-21.5 -35.5l-34.5 -55l-33.5 -53q33 15 64.5 32.5l61.5 34.5q124 71 219.5 138t152.5 121q34 32 41 28h1v0z" />
<glyph unicode="&#xf707;" d="M218 1465q3 -3 -2 -16t-22 -34q-53 -63 -144.5 -139.5t-212.5 -157.5l-62.5 -40t-66.5 -39q-16 -9 -37 -19q-10 -5 -19.5 -9t-25.5 -8q-4 -1 -9 -2t-17 1q-2 1 -3.5 1t-3.5 1t-4.5 2t-5.5 3q-4 2 -10 8.5t-8 12.5q-3 8 -3.5 13.5t-0.5 8.5q0 8 1 12.5t2 8.5q2 5 4 13 q5 12 9.5 21.5l9.5 19.5q18 37 37.5 71l39.5 69l-63.5 -49.5l-63.5 -47.5l-34 -25t-37 -23q-5 -3 -10.5 -6t-12.5 -6q-6 -3 -15 -6q-5 -1 -10.5 -2.5t-15.5 -1.5h-6q-7 0 -16.5 2.5t-17.5 7.5q-14 -1 -13 -0.5t11 1.5q-4 3 -7 7q-10 9 -14 23q-2 6 -2 6.5v3.5q0 2 -0.5 4 t-0.5 4q0 4 1 6q0 5 1 7q0 3 0.5 5t0.5 4q2 6 3 11t3 10q3 10 6 19l6 18q2 8 4 15t2 12q5 31 0 55q-2 12 -6 19.5t-9 12.5q-10 10 -28 10q-20 2 -43.5 -6.5t-43.5 -22.5q-42 -27 -68.5 -64t-40.5 -71q-11 -29 -16.5 -47.5t-10.5 -29.5t-10.5 -15t-11.5 -5q-7 0 -12.5 4 t-10.5 16q-5 13 -7 37t6 63q9 46 38 98.5t86 96.5q14 11 30 20t35 17q18 8 39 13t45 4q24 0 50.5 -8t48.5 -28t33.5 -45t16.5 -48q4 -21 4.5 -40.5t-1.5 -38.5l63.5 46.5l64.5 47.5q32 24 70 49l18.5 12t20.5 12q12 7 26 12q5 2 10.5 3t16.5 2h5q2 0 4 -0.5t4 -0.5 q2 -1 4 -1t4 -1q3 -2 5.5 -3t4.5 -2q10 -6 16.5 -15t8.5 -16q5 -15 4 -22.5t-2 -12.5q-2 -11 -4 -17q-4 -14 -10 -24q-9 -21 -21 -40l-21.5 -37.5l-21.5 -35.5l-34.5 -55l-33.5 -53q33 15 64.5 32.5l61.5 34.5q124 71 219.5 138t152.5 121q34 32 41 28h1v0z" />
<glyph unicode="&#x2c6;" d="M218 1465q3 -3 -2 -16t-22 -34q-53 -63 -144.5 -139.5t-212.5 -157.5l-62.5 -40t-66.5 -39q-16 -9 -37 -19q-10 -5 -19.5 -9t-25.5 -8q-4 -1 -9 -2t-17 1q-2 1 -3.5 1t-3.5 1t-4.5 2t-5.5 3q-4 2 -10 8.5t-8 12.5q-3 8 -3.5 13.5t-0.5 8.5q0 8 1 12.5t2 8.5q2 5 4 13 q5 12 9.5 21.5l9.5 19.5q18 37 37.5 71l39.5 69l-63.5 -49.5l-63.5 -47.5l-34 -25t-37 -23q-5 -3 -10.5 -6t-12.5 -6q-6 -3 -15 -6q-5 -1 -10.5 -2.5t-15.5 -1.5h-6q-7 0 -16.5 2.5t-17.5 7.5q-14 -1 -13 -0.5t11 1.5q-4 3 -7 7q-10 9 -14 23q-2 6 -2 6.5v3.5q0 2 -0.5 4 t-0.5 4q0 4 1 6q0 5 1 7q0 3 0.5 5t0.5 4q2 6 3 11t3 10q3 10 6 19l6 18q2 8 4 15t2 12q5 31 0 55q-2 12 -6 19.5t-9 12.5q-10 10 -28 10q-20 2 -43.5 -6.5t-43.5 -22.5q-42 -27 -68.5 -64t-40.5 -71q-11 -29 -16.5 -47.5t-10.5 -29.5t-10.5 -15t-11.5 -5q-7 0 -12.5 4 t-10.5 16q-5 13 -7 37t6 63q9 46 38 98.5t86 96.5q14 11 30 20t35 17q18 8 39 13t45 4q24 0 50.5 -8t48.5 -28t33.5 -45t16.5 -48q4 -21 4.5 -40.5t-1.5 -38.5l63.5 46.5l64.5 47.5q32 24 70 49l18.5 12t20.5 12q12 7 26 12q5 2 10.5 3t16.5 2h5q2 0 4 -0.5t4 -0.5 q2 -1 4 -1t4 -1q3 -2 5.5 -3t4.5 -2q10 -6 16.5 -15t8.5 -16q5 -15 4 -22.5t-2 -12.5q-2 -11 -4 -17q-4 -14 -10 -24q-9 -21 -21 -40l-21.5 -37.5l-21.5 -35.5l-34.5 -55l-33.5 -53q33 15 64.5 32.5l61.5 34.5q124 71 219.5 138t152.5 121q34 32 41 28h1v0z" />
<glyph d="M491 1208q19 -3 19 -14t-20 -14q-38 -6 -98 -13t-132 -13t-151.5 -10.5t-156.5 -5.5q-20 -37 -39.5 -66.5t-33.5 -46.5q-3 -4 -7.5 -4t-8.5 2q-10 3 -10 14q3 37 14 100q-74 1 -135 5t-101 14q-27 7 -35 16t-8 22t7.5 22t35.5 16q43 11 110 15t147 3q12 51 29 94.5 t40 64.5q11 10 20.5 10t21.5 -4v-1q12 -5 20 -11t10 -20q4 -24 -4 -59.5t-23 -76.5q72 -3 144.5 -8t137.5 -10t118.5 -11z" />
<glyph unicode="&#xf708;" d="M491 1208q19 -3 19 -14t-20 -14q-38 -6 -98 -13t-132 -13t-151.5 -10.5t-156.5 -5.5q-20 -37 -39.5 -66.5t-33.5 -46.5q-3 -4 -7.5 -4t-8.5 2q-10 3 -10 14q3 37 14 100q-74 1 -135 5t-101 14q-27 7 -35 16t-8 22t7.5 22t35.5 16q43 11 110 15t147 3q12 51 29 94.5 t40 64.5q11 10 20.5 10t21.5 -4v-1q12 -5 20 -11t10 -20q4 -24 -4 -59.5t-23 -76.5q72 -3 144.5 -8t137.5 -10t118.5 -11z" />
<glyph unicode="&#x2030;" d="M491 1208q19 -3 19 -14t-20 -14q-38 -6 -98 -13t-132 -13t-151.5 -10.5t-156.5 -5.5q-20 -37 -39.5 -66.5t-33.5 -46.5q-3 -4 -7.5 -4t-8.5 2q-10 3 -10 14q3 37 14 100q-74 1 -135 5t-101 14q-27 7 -35 16t-8 22t7.5 22t35.5 16q43 11 110 15t147 3q12 51 29 94.5 t40 64.5q11 10 20.5 10t21.5 -4v-1q12 -5 20 -11t10 -20q4 -24 -4 -59.5t-23 -76.5q72 -3 144.5 -8t137.5 -10t118.5 -11z" />
<glyph d="M181 1406q4 -11 -13 -21q-26 -15 -67 -32.5t-92 -35.5l-106 -37.5t-111 -41.5q-55 -22 -105.5 -46.5t-88.5 -51.5t-61.5 -53.5t-37.5 -49.5q-11 -19 -21 -25t-23 -4q-7 1 -12 3t-9 7q-10 12 -9 40q2 19 8.5 41.5t20.5 45.5t34 45t44 40q49 38 108 63t120 42 q62 17 121 28.5t112 19.5t95.5 15.5t71.5 13.5q8 2 13.5 0t7.5 -6z" />
<glyph unicode="&#xf709;" d="M181 1406q4 -11 -13 -21q-26 -15 -67 -32.5t-92 -35.5l-106 -37.5t-111 -41.5q-55 -22 -105.5 -46.5t-88.5 -51.5t-61.5 -53.5t-37.5 -49.5q-11 -19 -21 -25t-23 -4q-7 1 -12 3t-9 7q-10 12 -9 40q2 19 8.5 41.5t20.5 45.5t34 45t44 40q49 38 108 63t120 42 q62 17 121 28.5t112 19.5t95.5 15.5t71.5 13.5q8 2 13.5 0t7.5 -6z" />
<glyph unicode="&#x160;" d="M181 1406q4 -11 -13 -21q-26 -15 -67 -32.5t-92 -35.5l-106 -37.5t-111 -41.5q-55 -22 -105.5 -46.5t-88.5 -51.5t-61.5 -53.5t-37.5 -49.5q-11 -19 -21 -25t-23 -4q-7 1 -12 3t-9 7q-10 12 -9 40q2 19 8.5 41.5t20.5 45.5t34 45t44 40q49 38 108 63t120 42 q62 17 121 28.5t112 19.5t95.5 15.5t71.5 13.5q8 2 13.5 0t7.5 -6z" />
<glyph d="M58 1419q1 -36 -19.5 -93.5t-50.5 -119.5q-31 -63 -65 -116q-17 -26 -32 -45.5t-26 -32.5q-8 -8 -17 -2q-4 2 -6.5 6.5t-0.5 9.5q3 16 8.5 40l12 52.5t14.5 60t17 63.5t19 64t22 59.5t25.5 49.5t28.5 35q11 11 21.5 11t21.5 -5l1 -1q11 -5 18 -12.5t8 -23.5z" />
<glyph unicode="&#xf70a;" d="M58 1419q1 -36 -19.5 -93.5t-50.5 -119.5q-31 -63 -65 -116q-17 -26 -32 -45.5t-26 -32.5q-8 -8 -17 -2q-4 2 -6.5 6.5t-0.5 9.5q3 16 8.5 40l12 52.5t14.5 60t17 63.5t19 64t22 59.5t25.5 49.5t28.5 35q11 11 21.5 11t21.5 -5l1 -1q11 -5 18 -12.5t8 -23.5z" />
<glyph unicode="&#x2039;" d="M58 1419q1 -36 -19.5 -93.5t-50.5 -119.5q-31 -63 -65 -116q-17 -26 -32 -45.5t-26 -32.5q-8 -8 -17 -2q-4 2 -6.5 6.5t-0.5 9.5q3 16 8.5 40l12 52.5t14.5 60t17 63.5t19 64t22 59.5t25.5 49.5t28.5 35q11 11 21.5 11t21.5 -5l1 -1q11 -5 18 -12.5t8 -23.5z" />
<glyph d="M920 1428q3 -10 -28 -25l-120 -54l-159.5 -68.5l-187.5 -75.5l-204 -76l-104 -35t-105 -32q-52 -15 -103 -27t-105 -17q-14 -1 -28.5 -1.5t-33.5 2.5q-5 2 -10 3t-11 3q-7 3 -14.5 7.5t-15.5 13.5q-7 7 -14 21q-1 3 -1.5 5t-1.5 5q-2 5 -2.5 10t-1.5 10q-2 21 2.5 38 t9.5 30q6 13 12.5 23.5l12.5 19.5q12 18 23.5 32t20.5 27q9 12 14.5 21.5t8.5 15.5q3 10 3 18q0 6 -2 16q-2 16 5 24v1q4 5 9.5 7.5t16.5 -0.5q5 -2 11 -5.5t14 -12.5q8 -8 13.5 -22.5t5.5 -32.5q0 -22 -6.5 -41t-14.5 -36l-18.5 -33.5t-17.5 -32.5q-7 -12 -12 -26 q3 0 6.5 0.5t6.5 0.5q43 5 91 16.5l99 24.5l103 27.5l105 29.5l207 61.5l193 57.5l166.5 49l126.5 36q31 8 35 -3z" />
<glyph unicode="&#xf70b;" d="M920 1428q3 -10 -28 -25l-120 -54l-159.5 -68.5l-187.5 -75.5l-204 -76l-104 -35t-105 -32q-52 -15 -103 -27t-105 -17q-14 -1 -28.5 -1.5t-33.5 2.5q-5 2 -10 3t-11 3q-7 3 -14.5 7.5t-15.5 13.5q-7 7 -14 21q-1 3 -1.5 5t-1.5 5q-2 5 -2.5 10t-1.5 10q-2 21 2.5 38 t9.5 30q6 13 12.5 23.5l12.5 19.5q12 18 23.5 32t20.5 27q9 12 14.5 21.5t8.5 15.5q3 10 3 18q0 6 -2 16q-2 16 5 24v1q4 5 9.5 7.5t16.5 -0.5q5 -2 11 -5.5t14 -12.5q8 -8 13.5 -22.5t5.5 -32.5q0 -22 -6.5 -41t-14.5 -36l-18.5 -33.5t-17.5 -32.5q-7 -12 -12 -26 q3 0 6.5 0.5t6.5 0.5q43 5 91 16.5l99 24.5l103 27.5l105 29.5l207 61.5l193 57.5l166.5 49l126.5 36q31 8 35 -3z" />
<glyph unicode="&#x152;" d="M920 1428q3 -10 -28 -25l-120 -54l-159.5 -68.5l-187.5 -75.5l-204 -76l-104 -35t-105 -32q-52 -15 -103 -27t-105 -17q-14 -1 -28.5 -1.5t-33.5 2.5q-5 2 -10 3t-11 3q-7 3 -14.5 7.5t-15.5 13.5q-7 7 -14 21q-1 3 -1.5 5t-1.5 5q-2 5 -2.5 10t-1.5 10q-2 21 2.5 38 t9.5 30q6 13 12.5 23.5l12.5 19.5q12 18 23.5 32t20.5 27q9 12 14.5 21.5t8.5 15.5q3 10 3 18q0 6 -2 16q-2 16 5 24v1q4 5 9.5 7.5t16.5 -0.5q5 -2 11 -5.5t14 -12.5q8 -8 13.5 -22.5t5.5 -32.5q0 -22 -6.5 -41t-14.5 -36l-18.5 -33.5t-17.5 -32.5q-7 -12 -12 -26 q3 0 6.5 0.5t6.5 0.5q43 5 91 16.5l99 24.5l103 27.5l105 29.5l207 61.5l193 57.5l166.5 49l126.5 36q31 8 35 -3z" />
<glyph d="M387 1467q3 -3 -2 -16t-22 -34q-53 -63 -144.5 -139.5t-212.5 -157.5l-62.5 -40t-66.5 -39q-16 -9 -37 -19q-10 -5 -19.5 -9t-25.5 -8q-4 -1 -9 -2t-17 1q-2 1 -3.5 1t-3.5 1t-4.5 2t-5.5 3q-4 2 -10 8.5t-8 12.5q-3 8 -3.5 13.5t-0.5 8.5q0 8 1 12.5t2 8.5q2 5 4 13 q5 12 9.5 21.5l9.5 19.5q18 37 37.5 71l39.5 69l-63.5 -49.5l-63.5 -47.5l-34 -25t-37 -23q-5 -3 -10.5 -6t-12.5 -6q-6 -3 -15 -6q-5 -1 -10.5 -2.5t-15.5 -1.5h-6q-7 0 -16.5 2.5t-17.5 7.5q-14 -1 -13 -0.5t11 1.5q-4 3 -7 7q-10 9 -14 23q-2 6 -2 6.5v3.5q0 2 -0.5 4 t-0.5 4q0 4 1 6q0 5 1 7q0 3 0.5 5t0.5 4q2 6 3 11t3 10q3 10 6 19l6 18q2 8 4 15t2 12q5 31 0 55q-2 12 -6 19.5t-9 12.5q-10 10 -28 10q-20 2 -43.5 -6.5t-43.5 -22.5q-42 -27 -68.5 -64t-40.5 -71q-11 -29 -16.5 -47.5t-10.5 -29.5t-10.5 -15t-11.5 -5q-7 0 -12.5 4 t-10.5 16q-5 13 -7 37t6 63q9 46 38 98.5t86 96.5q14 11 30 20t35 17q18 8 39 13t45 4q24 0 50.5 -8t48.5 -28t33.5 -45t16.5 -48q4 -21 4.5 -40.5t-1.5 -38.5l63.5 46.5l64.5 47.5q32 24 70 49l18.5 12t20.5 12q12 7 26 12q5 2 10.5 3t16.5 2h5q2 0 4 -0.5t4 -0.5 q2 -1 4 -1t4 -1q3 -2 5.5 -3t4.5 -2q10 -6 16.5 -15t8.5 -16q5 -15 4 -22.5t-2 -12.5q-2 -11 -4 -17q-4 -14 -10 -24q-9 -21 -21 -40l-21.5 -37.5l-21.5 -35.5l-34.5 -55l-33.5 -53q33 15 64.5 32.5l61.5 34.5q124 71 219.5 138t152.5 121q34 32 41 28h1v0z" />
<glyph unicode="&#xf70c;" d="M387 1467q3 -3 -2 -16t-22 -34q-53 -63 -144.5 -139.5t-212.5 -157.5l-62.5 -40t-66.5 -39q-16 -9 -37 -19q-10 -5 -19.5 -9t-25.5 -8q-4 -1 -9 -2t-17 1q-2 1 -3.5 1t-3.5 1t-4.5 2t-5.5 3q-4 2 -10 8.5t-8 12.5q-3 8 -3.5 13.5t-0.5 8.5q0 8 1 12.5t2 8.5q2 5 4 13 q5 12 9.5 21.5l9.5 19.5q18 37 37.5 71l39.5 69l-63.5 -49.5l-63.5 -47.5l-34 -25t-37 -23q-5 -3 -10.5 -6t-12.5 -6q-6 -3 -15 -6q-5 -1 -10.5 -2.5t-15.5 -1.5h-6q-7 0 -16.5 2.5t-17.5 7.5q-14 -1 -13 -0.5t11 1.5q-4 3 -7 7q-10 9 -14 23q-2 6 -2 6.5v3.5q0 2 -0.5 4 t-0.5 4q0 4 1 6q0 5 1 7q0 3 0.5 5t0.5 4q2 6 3 11t3 10q3 10 6 19l6 18q2 8 4 15t2 12q5 31 0 55q-2 12 -6 19.5t-9 12.5q-10 10 -28 10q-20 2 -43.5 -6.5t-43.5 -22.5q-42 -27 -68.5 -64t-40.5 -71q-11 -29 -16.5 -47.5t-10.5 -29.5t-10.5 -15t-11.5 -5q-7 0 -12.5 4 t-10.5 16q-5 13 -7 37t6 63q9 46 38 98.5t86 96.5q14 11 30 20t35 17q18 8 39 13t45 4q24 0 50.5 -8t48.5 -28t33.5 -45t16.5 -48q4 -21 4.5 -40.5t-1.5 -38.5l63.5 46.5l64.5 47.5q32 24 70 49l18.5 12t20.5 12q12 7 26 12q5 2 10.5 3t16.5 2h5q2 0 4 -0.5t4 -0.5 q2 -1 4 -1t4 -1q3 -2 5.5 -3t4.5 -2q10 -6 16.5 -15t8.5 -16q5 -15 4 -22.5t-2 -12.5q-2 -11 -4 -17q-4 -14 -10 -24q-9 -21 -21 -40l-21.5 -37.5l-21.5 -35.5l-34.5 -55l-33.5 -53q33 15 64.5 32.5l61.5 34.5q124 71 219.5 138t152.5 121q34 32 41 28h1v0z" />
<glyph d="M283 1203q19 -3 19 -14t-20 -14q-38 -6 -98 -13t-132 -13t-151.5 -10.5t-156.5 -5.5q-20 -37 -39.5 -66.5t-33.5 -46.5q-3 -4 -7.5 -4t-8.5 2q-10 3 -10 14q3 37 14 100q-74 1 -135 5t-101 14q-27 7 -35 16t-8 22t7.5 22t35.5 16q43 11 110 15t147 3q12 51 29 94.5 t40 64.5q11 10 20.5 10t21.5 -4v-1q12 -5 20 -11t10 -20q4 -24 -4 -59.5t-23 -76.5q72 -3 144.5 -8t137.5 -10t118.5 -11z" />
<glyph unicode="&#xf70d;" d="M283 1203q19 -3 19 -14t-20 -14q-38 -6 -98 -13t-132 -13t-151.5 -10.5t-156.5 -5.5q-20 -37 -39.5 -66.5t-33.5 -46.5q-3 -4 -7.5 -4t-8.5 2q-10 3 -10 14q3 37 14 100q-74 1 -135 5t-101 14q-27 7 -35 16t-8 22t7.5 22t35.5 16q43 11 110 15t147 3q12 51 29 94.5 t40 64.5q11 10 20.5 10t21.5 -4v-1q12 -5 20 -11t10 -20q4 -24 -4 -59.5t-23 -76.5q72 -3 144.5 -8t137.5 -10t118.5 -11z" />
<glyph unicode="&#x17d;" d="M283 1203q19 -3 19 -14t-20 -14q-38 -6 -98 -13t-132 -13t-151.5 -10.5t-156.5 -5.5q-20 -37 -39.5 -66.5t-33.5 -46.5q-3 -4 -7.5 -4t-8.5 2q-10 3 -10 14q3 37 14 100q-74 1 -135 5t-101 14q-27 7 -35 16t-8 22t7.5 22t35.5 16q43 11 110 15t147 3q12 51 29 94.5 t40 64.5q11 10 20.5 10t21.5 -4v-1q12 -5 20 -11t10 -20q4 -24 -4 -59.5t-23 -76.5q72 -3 144.5 -8t137.5 -10t118.5 -11z" />
<glyph d="M651 1412q4 -11 -13 -21q-26 -15 -67 -32.5t-92 -35.5l-106 -37.5t-111 -41.5q-55 -22 -105.5 -46.5t-88.5 -51.5t-61.5 -53.5t-37.5 -49.5q-11 -19 -21 -25t-23 -4q-7 1 -12 3t-9 7q-10 12 -9 40q2 19 8.5 41.5t20.5 45.5t34 45t44 40q49 38 108 63t120 42 q62 17 121 28.5t112 19.5t95.5 15.5t71.5 13.5q8 2 13.5 0t7.5 -6z" />
<glyph unicode="&#xf70e;" d="M651 1412q4 -11 -13 -21q-26 -15 -67 -32.5t-92 -35.5l-106 -37.5t-111 -41.5q-55 -22 -105.5 -46.5t-88.5 -51.5t-61.5 -53.5t-37.5 -49.5q-11 -19 -21 -25t-23 -4q-7 1 -12 3t-9 7q-10 12 -9 40q2 19 8.5 41.5t20.5 45.5t34 45t44 40q49 38 108 63t120 42 q62 17 121 28.5t112 19.5t95.5 15.5t71.5 13.5q8 2 13.5 0t7.5 -6z" />
<glyph horiz-adv-x="1764" d="M1714 775q4 -5 -3 -20.5t-28 -43.5l-68 -98l-82 -120l-44.5 -66.5l-47.5 -71t-54 -74.5t-63 -75q-17 -19 -35.5 -37t-39.5 -35q-43 -37 -93 -62q-51 -27 -107.5 -41.5t-113.5 -19.5q-14 -2 -28.5 -2.5t-28.5 -1.5q-11 -1 -24.5 -2t-30.5 -1h-16.5t-19.5 1q-5 1 -10.5 2 t-13.5 3q-7 2 -15 5.5t-18 11.5t-18.5 20.5t-11.5 26.5q-4 14 -3 25t3 19q3 14 9 27q1 2 2 4.5t2 4.5l3 5q0 1 0.5 1t0.5 1q23 45 44 93.5t37 97.5q17 49 27 97.5t8 92.5q-1 22 -4.5 40.5t-11.5 31.5q-13 25 -41 40q-15 7 -34 11t-42 6q-22 2 -44 1.5t-44 -2.5 q-44 -5 -85 -18t-79 -32q-76 -38 -132 -94t-87 -116q-32 -60 -39.5 -117.5t0.5 -105.5q7 -40 14 -65.5t9 -41.5t-1 -24.5t-10 -13.5h-1q-7 -5 -16.5 -5t-23.5 11t-34 36t-39 76q-11 30 -17.5 66t-5.5 77q1 40 10 83t28 85q38 86 108.5 161t168.5 126q49 26 103.5 43 t113.5 24q59 6 121 0q29 -3 63 -10.5t67 -24.5t62 -46.5t45 -65.5q17 -35 22.5 -70.5t4.5 -68.5q-2 -66 -17 -124.5t-35 -113.5q-34 -88 -79 -171h30h25.5t24.5 1q50 2 95.5 11t87.5 28q20 10 39.5 21t37.5 25q19 14 36 28.5l34 30.5q66 63 119.5 132.5l103.5 129.5 l93.5 111.5t79.5 90.5q20 23 35.5 32t20.5 5q1 0 1 -1z" />
<glyph unicode="&#xf70f;" horiz-adv-x="1764" d="M1714 775q4 -5 -3 -20.5t-28 -43.5l-68 -98l-82 -120l-44.5 -66.5l-47.5 -71t-54 -74.5t-63 -75q-17 -19 -35.5 -37t-39.5 -35q-43 -37 -93 -62q-51 -27 -107.5 -41.5t-113.5 -19.5q-14 -2 -28.5 -2.5t-28.5 -1.5q-11 -1 -24.5 -2t-30.5 -1h-16.5t-19.5 1q-5 1 -10.5 2 t-13.5 3q-7 2 -15 5.5t-18 11.5t-18.5 20.5t-11.5 26.5q-4 14 -3 25t3 19q3 14 9 27q1 2 2 4.5t2 4.5l3 5q0 1 0.5 1t0.5 1q23 45 44 93.5t37 97.5q17 49 27 97.5t8 92.5q-1 22 -4.5 40.5t-11.5 31.5q-13 25 -41 40q-15 7 -34 11t-42 6q-22 2 -44 1.5t-44 -2.5 q-44 -5 -85 -18t-79 -32q-76 -38 -132 -94t-87 -116q-32 -60 -39.5 -117.5t0.5 -105.5q7 -40 14 -65.5t9 -41.5t-1 -24.5t-10 -13.5h-1q-7 -5 -16.5 -5t-23.5 11t-34 36t-39 76q-11 30 -17.5 66t-5.5 77q1 40 10 83t28 85q38 86 108.5 161t168.5 126q49 26 103.5 43 t113.5 24q59 6 121 0q29 -3 63 -10.5t67 -24.5t62 -46.5t45 -65.5q17 -35 22.5 -70.5t4.5 -68.5q-2 -66 -17 -124.5t-35 -113.5q-34 -88 -79 -171h30h25.5t24.5 1q50 2 95.5 11t87.5 28q20 10 39.5 21t37.5 25q19 14 36 28.5l34 30.5q66 63 119.5 132.5l103.5 129.5 l93.5 111.5t79.5 90.5q20 23 35.5 32t20.5 5q1 0 1 -1z" />
<glyph horiz-adv-x="430" d="M352 960q11 -18 15.5 -34t-6.5 -35q-7 -11 -18.5 -22t-29.5 -20q-17 -8 -43 -13.5t-58 0.5q-33 6 -62 26q-28 19 -46 45q-18 25 -26.5 49.5t-12.5 47.5q-8 47 -3.5 87.5t13.5 75.5q9 34 20.5 60t22.5 43q4 5 11 6t15 -1q7 -2 12.5 -6t7.5 -10q5 -18 10.5 -42.5 t13.5 -53.5t18.5 -58t22.5 -52q6 -11 12 -19.5t10 -11.5t3 -2t-2 0q-2 -5 15 -8q7 -2 16 -3.5t19 -3.5q16 -5 27.5 -16t22.5 -28v-1v0z" />
<glyph unicode="&#x2018;" horiz-adv-x="430" d="M352 960q11 -18 15.5 -34t-6.5 -35q-7 -11 -18.5 -22t-29.5 -20q-17 -8 -43 -13.5t-58 0.5q-33 6 -62 26q-28 19 -46 45q-18 25 -26.5 49.5t-12.5 47.5q-8 47 -3.5 87.5t13.5 75.5q9 34 20.5 60t22.5 43q4 5 11 6t15 -1q7 -2 12.5 -6t7.5 -10q5 -18 10.5 -42.5 t13.5 -53.5t18.5 -58t22.5 -52q6 -11 12 -19.5t10 -11.5t3 -2t-2 0q-2 -5 15 -8q7 -2 16 -3.5t19 -3.5q16 -5 27.5 -16t22.5 -28v-1v0z" />
<glyph horiz-adv-x="400" d="M304 1106q22 -30 28.5 -59t7.5 -53q-1 -51 -17 -90t-36 -69q-20 -29 -42.5 -48.5t-39.5 -28.5q-5 -3 -12 0t-12 8t-8.5 12t-2.5 12q4 17 7.5 39t4.5 48t-2 52.5t-11 45.5l-3 6l-2 2q-4 1 -12 1l-18.5 2t-18.5 3q-17 4 -28.5 15t-22.5 29q-12 18 -17 34t4 34q6 11 16 21.5 t24 20.5q16 9 37 16.5t51 7.5q14 1 31.5 -2.5t34.5 -11.5t32.5 -20.5t26.5 -26.5z" />
<glyph unicode="&#x2019;" horiz-adv-x="400" d="M304 1106q22 -30 28.5 -59t7.5 -53q-1 -51 -17 -90t-36 -69q-20 -29 -42.5 -48.5t-39.5 -28.5q-5 -3 -12 0t-12 8t-8.5 12t-2.5 12q4 17 7.5 39t4.5 48t-2 52.5t-11 45.5l-3 6l-2 2q-4 1 -12 1l-18.5 2t-18.5 3q-17 4 -28.5 15t-22.5 29q-12 18 -17 34t4 34q6 11 16 21.5 t24 20.5q16 9 37 16.5t51 7.5q14 1 31.5 -2.5t34.5 -11.5t32.5 -20.5t26.5 -26.5z" />
<glyph horiz-adv-x="697" d="M613 374q4 -36 0.5 -69t-17.5 -59.5t-40 -44.5t-67 -25q-36 -6 -81 1t-103 21h-2q-60 15 -103 30t-71 38q-33 28 -45.5 59.5t-8.5 64.5t21.5 65.5t44.5 62.5t59 57t64.5 49.5t63 39t53.5 26.5q7 2 26.5 -2t41.5 -12q20 -6 37 -14.5t23 -15.5q18 -24 35 -56t31 -68 t24.5 -74t13.5 -74z" />
<glyph unicode="&#x2022;" horiz-adv-x="697" d="M613 374q4 -36 0.5 -69t-17.5 -59.5t-40 -44.5t-67 -25q-36 -6 -81 1t-103 21h-2q-60 15 -103 30t-71 38q-33 28 -45.5 59.5t-8.5 64.5t21.5 65.5t44.5 62.5t59 57t64.5 49.5t63 39t53.5 26.5q7 2 26.5 -2t41.5 -12q20 -6 37 -14.5t23 -15.5q18 -24 35 -56t31 -68 t24.5 -74t13.5 -74z" />
<glyph horiz-adv-x="619" d="M595 485q-1 -8 -5 -13.5t-11 -7.5q-21 -5 -50 -10.5l-63.5 -11.5l-73 -12.5l-77.5 -12.5t-78 -9.5t-74.5 -3.5t-65.5 4.5t-51 15.5q-18 10 -24.5 25t-8.5 36q-2 22 1.5 38t19.5 29q19 15 49 24.5t67 13.5t78.5 3.5t84.5 -5.5q42 -5 83.5 -13.5t77.5 -19.5 q37 -11 65.5 -23t47.5 -22q6 -3 8 -10t0 -15z" />
<glyph unicode="&#x2013;" horiz-adv-x="619" d="M595 485q-1 -8 -5 -13.5t-11 -7.5q-21 -5 -50 -10.5l-63.5 -11.5l-73 -12.5l-77.5 -12.5t-78 -9.5t-74.5 -3.5t-65.5 4.5t-51 15.5q-18 10 -24.5 25t-8.5 36q-2 22 1.5 38t19.5 29q19 15 49 24.5t67 13.5t78.5 3.5t84.5 -5.5q42 -5 83.5 -13.5t77.5 -19.5 q37 -11 65.5 -23t47.5 -22q6 -3 8 -10t0 -15z" />
<glyph horiz-adv-x="885" d="M864 518q9 -2 13.5 -8.5t4.5 -14t-4.5 -14.5t-14.5 -10q-40 -11 -104.5 -23.5t-142 -23t-161.5 -17t-162 -7.5t-144 6t-108 25q-26 11 -33 27t-7 37q0 22 7.5 38t33.5 27q42 18 108 24.5t144 4.5t162 -10t161.5 -18.5t142 -22t104.5 -20.5z" />
<glyph unicode="&#x2014;" horiz-adv-x="885" d="M864 518q9 -2 13.5 -8.5t4.5 -14t-4.5 -14.5t-14.5 -10q-40 -11 -104.5 -23.5t-142 -23t-161.5 -17t-162 -7.5t-144 6t-108 25q-26 11 -33 27t-7 37q0 22 7.5 38t33.5 27q42 18 108 24.5t144 4.5t162 -10t161.5 -18.5t142 -22t104.5 -20.5z" />
<glyph d="M449 1234q27 0 27 -13q0 -10 -27 -16q-42 -8 -103.5 -21t-135.5 -33q-75 -19 -157.5 -42.5t-170.5 -44.5q-88 -22 -176.5 -35.5t-169.5 -15.5q-82 -2 -149.5 8t-112.5 27q-37 14 -45 26t-6 24q3 14 15.5 21t49.5 7q45 1 107 -0.5t137 2.5t159 14.5t171 25.5l173.5 29 t163.5 24q78 10 142.5 12.5t107.5 0.5z" />
<glyph unicode="&#xf710;" d="M449 1234q27 0 27 -13q0 -10 -27 -16q-42 -8 -103.5 -21t-135.5 -33q-75 -19 -157.5 -42.5t-170.5 -44.5q-88 -22 -176.5 -35.5t-169.5 -15.5q-82 -2 -149.5 8t-112.5 27q-37 14 -45 26t-6 24q3 14 15.5 21t49.5 7q45 1 107 -0.5t137 2.5t159 14.5t171 25.5l173.5 29 t163.5 24q78 10 142.5 12.5t107.5 0.5z" />
<glyph unicode="&#x2dc;" d="M449 1234q27 0 27 -13q0 -10 -27 -16q-42 -8 -103.5 -21t-135.5 -33q-75 -19 -157.5 -42.5t-170.5 -44.5q-88 -22 -176.5 -35.5t-169.5 -15.5q-82 -2 -149.5 8t-112.5 27q-37 14 -45 26t-6 24q3 14 15.5 21t49.5 7q45 1 107 -0.5t137 2.5t159 14.5t171 25.5l173.5 29 t163.5 24q78 10 142.5 12.5t107.5 0.5z" />
<glyph d="M-468 1083q0 21 8 39.5t22 32.5t32.5 22t39.5 8t39.5 -8t32.5 -22t22 -32.5t8 -39.5t-8 -39.5t-22 -32.5t-32.5 -22t-39.5 -8t-39.5 8t-32.5 22t-22 32.5t-8 39.5zM-422 1082q0 -23 16.5 -39t39.5 -16t39 16t16 39t-16 39.5t-39 16.5t-39.5 -16.5t-16.5 -39.5z" />
<glyph unicode="&#xf711;" d="M-468 1083q0 21 8 39.5t22 32.5t32.5 22t39.5 8t39.5 -8t32.5 -22t22 -32.5t8 -39.5t-8 -39.5t-22 -32.5t-32.5 -22t-39.5 -8t-39.5 8t-32.5 22t-22 32.5t-8 39.5zM-422 1082q0 -23 16.5 -39t39.5 -16t39 16t16 39t-16 39.5t-39 16.5t-39.5 -16.5t-16.5 -39.5z" />
<glyph unicode="&#x2122;" d="M-468 1083q0 21 8 39.5t22 32.5t32.5 22t39.5 8t39.5 -8t32.5 -22t22 -32.5t8 -39.5t-8 -39.5t-22 -32.5t-32.5 -22t-39.5 -8t-39.5 8t-32.5 22t-22 32.5t-8 39.5zM-422 1082q0 -23 16.5 -39t39.5 -16t39 16t16 39t-16 39.5t-39 16.5t-39.5 -16.5t-16.5 -39.5z" />
<glyph d="M302 1548q1 -4 -8 -10.5t-31 -14.5q-66 -23 -163.5 -51.5l-215.5 -63.5q-118 -36 -246.5 -81t-250.5 -108q-60 -31 -115 -69l-26.5 -19.5t-24.5 -20.5q-2 -1 -2.5 -2t-2.5 -2h2q2 0 4.5 -0.5t4.5 -0.5q39 -3 72.5 -14t61.5 -25t51.5 -28t44.5 -25t36.5 -16t28 -4.5 t23.5 5.5t23 15q19 17 31 29.5t21 18.5t15 6.5t12 -1.5q6 -3 9.5 -9t2.5 -17q-1 -6 -2.5 -13.5t-5.5 -17.5t-10 -22t-17 -26l-15.5 -17t-19.5 -17q-22 -17 -55 -25q-17 -3 -33 -2t-31 4q-16 3 -29.5 8l-27.5 10q-26 11 -50 23t-49 23q-24 11 -48 17.5t-48 8.5h-6h-1h-1 q-1 0 -2.5 -0.5t-3.5 -0.5q-5 -2 -10.5 -4t-12.5 -4q-14 -6 -30 -12l-16.5 -6.5t-20.5 -7.5q-4 -1 -7 -1.5t-8 -1.5q-5 0 -10.5 -0.5t-15.5 1.5q-5 0 -11 3l-6 2t-7 3q-14 9 -23 25q-2 4 -3 7.5t-3 7.5q-1 5 -1 13q-1 6 -0.5 10.5t1.5 7.5q2 8 3.5 12.5t3.5 8.5t3.5 6.5 t3.5 5.5q3 5 6.5 9.5t6.5 9.5q12 16 24.5 29.5l25.5 26.5l12 12q3 4 6.5 7t7.5 7q7 7 14 13t15 12q14 13 29.5 23.5l31.5 21.5q32 21 64.5 38.5t66.5 33.5q67 31 135 55t135 44q67 19 131.5 34.5l124.5 29.5q122 26 222 44t166 32q20 5 31.5 3.5t12.5 -6.5z" />
<glyph unicode="&#xf712;" d="M302 1548q1 -4 -8 -10.5t-31 -14.5q-66 -23 -163.5 -51.5l-215.5 -63.5q-118 -36 -246.5 -81t-250.5 -108q-60 -31 -115 -69l-26.5 -19.5t-24.5 -20.5q-2 -1 -2.5 -2t-2.5 -2h2q2 0 4.5 -0.5t4.5 -0.5q39 -3 72.5 -14t61.5 -25t51.5 -28t44.5 -25t36.5 -16t28 -4.5 t23.5 5.5t23 15q19 17 31 29.5t21 18.5t15 6.5t12 -1.5q6 -3 9.5 -9t2.5 -17q-1 -6 -2.5 -13.5t-5.5 -17.5t-10 -22t-17 -26l-15.5 -17t-19.5 -17q-22 -17 -55 -25q-17 -3 -33 -2t-31 4q-16 3 -29.5 8l-27.5 10q-26 11 -50 23t-49 23q-24 11 -48 17.5t-48 8.5h-6h-1h-1 q-1 0 -2.5 -0.5t-3.5 -0.5q-5 -2 -10.5 -4t-12.5 -4q-14 -6 -30 -12l-16.5 -6.5t-20.5 -7.5q-4 -1 -7 -1.5t-8 -1.5q-5 0 -10.5 -0.5t-15.5 1.5q-5 0 -11 3l-6 2t-7 3q-14 9 -23 25q-2 4 -3 7.5t-3 7.5q-1 5 -1 13q-1 6 -0.5 10.5t1.5 7.5q2 8 3.5 12.5t3.5 8.5t3.5 6.5 t3.5 5.5q3 5 6.5 9.5t6.5 9.5q12 16 24.5 29.5l25.5 26.5l12 12q3 4 6.5 7t7.5 7q7 7 14 13t15 12q14 13 29.5 23.5l31.5 21.5q32 21 64.5 38.5t66.5 33.5q67 31 135 55t135 44q67 19 131.5 34.5l124.5 29.5q122 26 222 44t166 32q20 5 31.5 3.5t12.5 -6.5z" />
<glyph unicode="&#x161;" d="M302 1548q1 -4 -8 -10.5t-31 -14.5q-66 -23 -163.5 -51.5l-215.5 -63.5q-118 -36 -246.5 -81t-250.5 -108q-60 -31 -115 -69l-26.5 -19.5t-24.5 -20.5q-2 -1 -2.5 -2t-2.5 -2h2q2 0 4.5 -0.5t4.5 -0.5q39 -3 72.5 -14t61.5 -25t51.5 -28t44.5 -25t36.5 -16t28 -4.5 t23.5 5.5t23 15q19 17 31 29.5t21 18.5t15 6.5t12 -1.5q6 -3 9.5 -9t2.5 -17q-1 -6 -2.5 -13.5t-5.5 -17.5t-10 -22t-17 -26l-15.5 -17t-19.5 -17q-22 -17 -55 -25q-17 -3 -33 -2t-31 4q-16 3 -29.5 8l-27.5 10q-26 11 -50 23t-49 23q-24 11 -48 17.5t-48 8.5h-6h-1h-1 q-1 0 -2.5 -0.5t-3.5 -0.5q-5 -2 -10.5 -4t-12.5 -4q-14 -6 -30 -12l-16.5 -6.5t-20.5 -7.5q-4 -1 -7 -1.5t-8 -1.5q-5 0 -10.5 -0.5t-15.5 1.5q-5 0 -11 3l-6 2t-7 3q-14 9 -23 25q-2 4 -3 7.5t-3 7.5q-1 5 -1 13q-1 6 -0.5 10.5t1.5 7.5q2 8 3.5 12.5t3.5 8.5t3.5 6.5 t3.5 5.5q3 5 6.5 9.5t6.5 9.5q12 16 24.5 29.5l25.5 26.5l12 12q3 4 6.5 7t7.5 7q7 7 14 13t15 12q14 13 29.5 23.5l31.5 21.5q32 21 64.5 38.5t66.5 33.5q67 31 135 55t135 44q67 19 131.5 34.5l124.5 29.5q122 26 222 44t166 32q20 5 31.5 3.5t12.5 -6.5z" />
<glyph d="M-125 1984q1 -36 -19.5 -93.5t-50.5 -119.5q-31 -63 -65 -116q-17 -26 -32 -45.5t-26 -32.5q-8 -8 -17 -2q-4 2 -6.5 6.5t-0.5 9.5q3 16 8.5 40l12 52.5t14.5 60t17 63.5t19 64t22 59.5t25.5 49.5t28.5 35q11 11 21.5 11t21.5 -5l1 -1q11 -5 18 -12.5t8 -23.5z" />
<glyph unicode="&#xf713;" d="M-125 1984q1 -36 -19.5 -93.5t-50.5 -119.5q-31 -63 -65 -116q-17 -26 -32 -45.5t-26 -32.5q-8 -8 -17 -2q-4 2 -6.5 6.5t-0.5 9.5q3 16 8.5 40l12 52.5t14.5 60t17 63.5t19 64t22 59.5t25.5 49.5t28.5 35q11 11 21.5 11t21.5 -5l1 -1q11 -5 18 -12.5t8 -23.5z" />
<glyph unicode="&#x203a;" d="M-125 1984q1 -36 -19.5 -93.5t-50.5 -119.5q-31 -63 -65 -116q-17 -26 -32 -45.5t-26 -32.5q-8 -8 -17 -2q-4 2 -6.5 6.5t-0.5 9.5q3 16 8.5 40l12 52.5t14.5 60t17 63.5t19 64t22 59.5t25.5 49.5t28.5 35q11 11 21.5 11t21.5 -5l1 -1q11 -5 18 -12.5t8 -23.5z" />
<glyph d="M667 1804q3 -10 -28 -25l-120 -54l-159.5 -68.5l-187.5 -75.5l-204 -76l-104 -35t-105 -32q-52 -15 -103 -27t-105 -17q-14 -1 -28.5 -1.5t-33.5 2.5q-5 2 -10 3t-11 3q-7 3 -14.5 7.5t-15.5 13.5q-7 7 -14 21q-1 3 -1.5 5t-1.5 5q-2 5 -2.5 10t-1.5 10q-2 21 2.5 38 t9.5 30q6 13 12.5 23.5l12.5 19.5q12 18 23.5 32t20.5 27q9 12 14.5 21.5t8.5 15.5q3 10 3 18q0 6 -2 16q-2 16 5 24v1q4 5 9.5 7.5t16.5 -0.5q5 -2 11 -5.5t14 -12.5q8 -8 13.5 -22.5t5.5 -32.5q0 -22 -6.5 -41t-14.5 -36l-18.5 -33.5t-17.5 -32.5q-7 -12 -12 -26 q3 0 6.5 0.5t6.5 0.5q43 5 91 16.5l99 24.5l103 27.5l105 29.5l207 61.5l193 57.5l166.5 49l126.5 36q31 8 35 -3z" />
<glyph unicode="&#xf714;" d="M667 1804q3 -10 -28 -25l-120 -54l-159.5 -68.5l-187.5 -75.5l-204 -76l-104 -35t-105 -32q-52 -15 -103 -27t-105 -17q-14 -1 -28.5 -1.5t-33.5 2.5q-5 2 -10 3t-11 3q-7 3 -14.5 7.5t-15.5 13.5q-7 7 -14 21q-1 3 -1.5 5t-1.5 5q-2 5 -2.5 10t-1.5 10q-2 21 2.5 38 t9.5 30q6 13 12.5 23.5l12.5 19.5q12 18 23.5 32t20.5 27q9 12 14.5 21.5t8.5 15.5q3 10 3 18q0 6 -2 16q-2 16 5 24v1q4 5 9.5 7.5t16.5 -0.5q5 -2 11 -5.5t14 -12.5q8 -8 13.5 -22.5t5.5 -32.5q0 -22 -6.5 -41t-14.5 -36l-18.5 -33.5t-17.5 -32.5q-7 -12 -12 -26 q3 0 6.5 0.5t6.5 0.5q43 5 91 16.5l99 24.5l103 27.5l105 29.5l207 61.5l193 57.5l166.5 49l126.5 36q31 8 35 -3z" />
<glyph unicode="&#x153;" d="M667 1804q3 -10 -28 -25l-120 -54l-159.5 -68.5l-187.5 -75.5l-204 -76l-104 -35t-105 -32q-52 -15 -103 -27t-105 -17q-14 -1 -28.5 -1.5t-33.5 2.5q-5 2 -10 3t-11 3q-7 3 -14.5 7.5t-15.5 13.5q-7 7 -14 21q-1 3 -1.5 5t-1.5 5q-2 5 -2.5 10t-1.5 10q-2 21 2.5 38 t9.5 30q6 13 12.5 23.5l12.5 19.5q12 18 23.5 32t20.5 27q9 12 14.5 21.5t8.5 15.5q3 10 3 18q0 6 -2 16q-2 16 5 24v1q4 5 9.5 7.5t16.5 -0.5q5 -2 11 -5.5t14 -12.5q8 -8 13.5 -22.5t5.5 -32.5q0 -22 -6.5 -41t-14.5 -36l-18.5 -33.5t-17.5 -32.5q-7 -12 -12 -26 q3 0 6.5 0.5t6.5 0.5q43 5 91 16.5l99 24.5l103 27.5l105 29.5l207 61.5l193 57.5l166.5 49l126.5 36q31 8 35 -3z" />
<glyph d="M206 1860q3 -3 -2 -16t-22 -34q-53 -63 -144.5 -139.5t-212.5 -157.5l-62.5 -40t-66.5 -39q-16 -9 -37 -19q-10 -5 -19.5 -9t-25.5 -8q-4 -1 -9 -2t-17 1q-2 1 -3.5 1t-3.5 1t-4.5 2t-5.5 3q-4 2 -10 8.5t-8 12.5q-3 8 -3.5 13.5t-0.5 8.5q0 8 1 12.5t2 8.5q2 5 4 13 q5 12 9.5 21.5l9.5 19.5q18 37 37.5 71l39.5 69l-63.5 -49.5l-63.5 -47.5l-34 -25t-37 -23q-5 -3 -10.5 -6t-12.5 -6q-6 -3 -15 -6q-5 -1 -10.5 -2.5t-15.5 -1.5h-6q-7 0 -16.5 2.5t-17.5 7.5q-14 -1 -13 -0.5t11 1.5q-4 3 -7 7q-10 9 -14 23q-2 6 -2 6.5v3.5q0 2 -0.5 4 t-0.5 4q0 4 1 6q0 5 1 7q0 3 0.5 5t0.5 4q2 6 3 11t3 10q3 10 6 19l6 18q2 8 4 15t2 12q5 31 0 55q-2 12 -6 19.5t-9 12.5q-10 10 -28 10q-20 2 -43.5 -6.5t-43.5 -22.5q-42 -27 -68.5 -64t-40.5 -71q-11 -29 -16.5 -47.5t-10.5 -29.5t-10.5 -15t-11.5 -5q-7 0 -12.5 4 t-10.5 16q-5 13 -7 37t6 63q9 46 38 98.5t86 96.5q14 11 30 20t35 17q18 8 39 13t45 4q24 0 50.5 -8t48.5 -28t33.5 -45t16.5 -48q4 -21 4.5 -40.5t-1.5 -38.5l63.5 46.5l64.5 47.5q32 24 70 49l18.5 12t20.5 12q12 7 26 12q5 2 10.5 3t16.5 2h5q2 0 4 -0.5t4 -0.5 q2 -1 4 -1t4 -1q3 -2 5.5 -3t4.5 -2q10 -6 16.5 -15t8.5 -16q5 -15 4 -22.5t-2 -12.5q-2 -11 -4 -17q-4 -14 -10 -24q-9 -21 -21 -40l-21.5 -37.5l-21.5 -35.5l-34.5 -55l-33.5 -53q33 15 64.5 32.5l61.5 34.5q124 71 219.5 138t152.5 121q34 32 41 28h1v0z" />
<glyph unicode="&#xf715;" d="M206 1860q3 -3 -2 -16t-22 -34q-53 -63 -144.5 -139.5t-212.5 -157.5l-62.5 -40t-66.5 -39q-16 -9 -37 -19q-10 -5 -19.5 -9t-25.5 -8q-4 -1 -9 -2t-17 1q-2 1 -3.5 1t-3.5 1t-4.5 2t-5.5 3q-4 2 -10 8.5t-8 12.5q-3 8 -3.5 13.5t-0.5 8.5q0 8 1 12.5t2 8.5q2 5 4 13 q5 12 9.5 21.5l9.5 19.5q18 37 37.5 71l39.5 69l-63.5 -49.5l-63.5 -47.5l-34 -25t-37 -23q-5 -3 -10.5 -6t-12.5 -6q-6 -3 -15 -6q-5 -1 -10.5 -2.5t-15.5 -1.5h-6q-7 0 -16.5 2.5t-17.5 7.5q-14 -1 -13 -0.5t11 1.5q-4 3 -7 7q-10 9 -14 23q-2 6 -2 6.5v3.5q0 2 -0.5 4 t-0.5 4q0 4 1 6q0 5 1 7q0 3 0.5 5t0.5 4q2 6 3 11t3 10q3 10 6 19l6 18q2 8 4 15t2 12q5 31 0 55q-2 12 -6 19.5t-9 12.5q-10 10 -28 10q-20 2 -43.5 -6.5t-43.5 -22.5q-42 -27 -68.5 -64t-40.5 -71q-11 -29 -16.5 -47.5t-10.5 -29.5t-10.5 -15t-11.5 -5q-7 0 -12.5 4 t-10.5 16q-5 13 -7 37t6 63q9 46 38 98.5t86 96.5q14 11 30 20t35 17q18 8 39 13t45 4q24 0 50.5 -8t48.5 -28t33.5 -45t16.5 -48q4 -21 4.5 -40.5t-1.5 -38.5l63.5 46.5l64.5 47.5q32 24 70 49l18.5 12t20.5 12q12 7 26 12q5 2 10.5 3t16.5 2h5q2 0 4 -0.5t4 -0.5 q2 -1 4 -1t4 -1q3 -2 5.5 -3t4.5 -2q10 -6 16.5 -15t8.5 -16q5 -15 4 -22.5t-2 -12.5q-2 -11 -4 -17q-4 -14 -10 -24q-9 -21 -21 -40l-21.5 -37.5l-21.5 -35.5l-34.5 -55l-33.5 -53q33 15 64.5 32.5l61.5 34.5q124 71 219.5 138t152.5 121q34 32 41 28h1v0z" />
<glyph d="M284 1753q19 -3 19 -14t-20 -14q-38 -6 -98 -13t-132 -13t-151.5 -10.5t-156.5 -5.5q-20 -37 -39.5 -66.5t-33.5 -46.5q-3 -4 -7.5 -4t-8.5 2q-10 3 -10 14q3 37 14 100q-74 1 -135 5t-101 14q-27 7 -35 16t-8 22t7.5 22t35.5 16q43 11 110 15t147 3q12 51 29 94.5 t40 64.5q11 10 20.5 10t21.5 -4v-1q12 -5 20 -11t10 -20q4 -24 -4 -59.5t-23 -76.5q72 -3 144.5 -8t137.5 -10t118.5 -11z" />
<glyph unicode="&#xf716;" d="M284 1753q19 -3 19 -14t-20 -14q-38 -6 -98 -13t-132 -13t-151.5 -10.5t-156.5 -5.5q-20 -37 -39.5 -66.5t-33.5 -46.5q-3 -4 -7.5 -4t-8.5 2q-10 3 -10 14q3 37 14 100q-74 1 -135 5t-101 14q-27 7 -35 16t-8 22t7.5 22t35.5 16q43 11 110 15t147 3q12 51 29 94.5 t40 64.5q11 10 20.5 10t21.5 -4v-1q12 -5 20 -11t10 -20q4 -24 -4 -59.5t-23 -76.5q72 -3 144.5 -8t137.5 -10t118.5 -11z" />
<glyph unicode="&#x17e;" d="M284 1753q19 -3 19 -14t-20 -14q-38 -6 -98 -13t-132 -13t-151.5 -10.5t-156.5 -5.5q-20 -37 -39.5 -66.5t-33.5 -46.5q-3 -4 -7.5 -4t-8.5 2q-10 3 -10 14q3 37 14 100q-74 1 -135 5t-101 14q-27 7 -35 16t-8 22t7.5 22t35.5 16q43 11 110 15t147 3q12 51 29 94.5 t40 64.5q11 10 20.5 10t21.5 -4v-1q12 -5 20 -11t10 -20q4 -24 -4 -59.5t-23 -76.5q72 -3 144.5 -8t137.5 -10t118.5 -11z" />
<glyph d="M420 1784q4 -11 -13 -21q-26 -15 -67 -32.5t-92 -35.5l-106 -37.5t-111 -41.5q-55 -22 -105.5 -46.5t-88.5 -51.5t-61.5 -53.5t-37.5 -49.5q-11 -19 -21 -25t-23 -4q-7 1 -12 3t-9 7q-10 12 -9 40q2 19 8.5 41.5t20.5 45.5t34 45t44 40q49 38 108 63t120 42 q62 17 121 28.5t112 19.5t95.5 15.5t71.5 13.5q8 2 13.5 0t7.5 -6z" />
<glyph unicode="&#xf717;" d="M420 1784q4 -11 -13 -21q-26 -15 -67 -32.5t-92 -35.5l-106 -37.5t-111 -41.5q-55 -22 -105.5 -46.5t-88.5 -51.5t-61.5 -53.5t-37.5 -49.5q-11 -19 -21 -25t-23 -4q-7 1 -12 3t-9 7q-10 12 -9 40q2 19 8.5 41.5t20.5 45.5t34 45t44 40q49 38 108 63t120 42 q62 17 121 28.5t112 19.5t95.5 15.5t71.5 13.5q8 2 13.5 0t7.5 -6z" />
<glyph unicode="&#x178;" d="M420 1784q4 -11 -13 -21q-26 -15 -67 -32.5t-92 -35.5l-106 -37.5t-111 -41.5q-55 -22 -105.5 -46.5t-88.5 -51.5t-61.5 -53.5t-37.5 -49.5q-11 -19 -21 -25t-23 -4q-7 1 -12 3t-9 7q-10 12 -9 40q2 19 8.5 41.5t20.5 45.5t34 45t44 40q49 38 108 63t120 42 q62 17 121 28.5t112 19.5t95.5 15.5t71.5 13.5q8 2 13.5 0t7.5 -6z" />
<glyph unicode="&#xe00;" horiz-adv-x="925" />
<glyph unicode="&#xa1;" horiz-adv-x="1049" d="M70 111q4 37 11.5 80.5t21.5 94.5t34 105.5t49 113.5q29 58 68.5 117t98.5 112q30 26 65.5 48t77.5 36q41 14 84.5 16.5t85.5 -5.5q40 -7 79 -22.5t73.5 -39.5t62.5 -55.5t46 -69.5q18 -37 26 -74.5t10 -73.5q2 -35 -1 -68t-8 -65q-11 -63 -25.5 -116.5l-28.5 -100.5 l-26.5 -87t-20.5 -71q-9 -37 -25 -37q-6 1 -10.5 12t-2.5 35q3 34 8.5 75.5t13.5 90.5q8 48 15 101.5t9 110.5t-5.5 113.5t-35.5 100.5q-27 42 -74 69l-24 12q-4 2 -7 3l-6 2l-7 3h-1q3 -1 2 -0.5t0 0.5h-2l-4 1q-27 9 -54 12q-54 6 -100.5 -13.5t-87.5 -57.5t-73.5 -86.5 t-59.5 -98.5q-26 -51 -47.5 -99.5t-39.5 -93.5l-33.5 -84.5l-28.5 -70.5q-11 -27 -20 -42.5t-17.5 -24t-16.5 -10.5t-17 0t-15.5 7t-11 16t-6 30t0.5 49z" />
<glyph unicode="&#xe01;" horiz-adv-x="1049" d="M70 111q4 37 11.5 80.5t21.5 94.5t34 105.5t49 113.5q29 58 68.5 117t98.5 112q30 26 65.5 48t77.5 36q41 14 84.5 16.5t85.5 -5.5q40 -7 79 -22.5t73.5 -39.5t62.5 -55.5t46 -69.5q18 -37 26 -74.5t10 -73.5q2 -35 -1 -68t-8 -65q-11 -63 -25.5 -116.5l-28.5 -100.5 l-26.5 -87t-20.5 -71q-9 -37 -25 -37q-6 1 -10.5 12t-2.5 35q3 34 8.5 75.5t13.5 90.5q8 48 15 101.5t9 110.5t-5.5 113.5t-35.5 100.5q-27 42 -74 69l-24 12q-4 2 -7 3l-6 2l-7 3h-1q3 -1 2 -0.5t0 0.5h-2l-4 1q-27 9 -54 12q-54 6 -100.5 -13.5t-87.5 -57.5t-73.5 -86.5 t-59.5 -98.5q-26 -51 -47.5 -99.5t-39.5 -93.5l-33.5 -84.5l-28.5 -70.5q-11 -27 -20 -42.5t-17.5 -24t-16.5 -10.5t-17 0t-15.5 7t-11 16t-6 30t0.5 49z" />
<glyph unicode="&#xa2;" horiz-adv-x="594" d="M472 765q15 9 26 11t15 -3t0 -15t-20 -25q-17 -17 -38.5 -35.5l-44.5 -39.5q20 -38 36 -82t26 -93q13 -61 13 -131q-1 -20 -3 -37.5t-6 -34.5q-6 -36 -16 -68q-11 -33 -25.5 -66.5t-38.5 -68.5q-13 -17 -29.5 -33.5t-42.5 -30.5q-12 -7 -26.5 -11.5t-29.5 -6.5 q-16 -2 -30.5 0t-28.5 6q-6 2 -12.5 4.5t-11.5 5.5q-3 2 -5.5 2.5t-5.5 2.5l-3 2q6 -3 4 -2t-1 0v1h-2l-6 4q-25 14 -43 35q-18 22 -26.5 45t-12.5 44q-6 44 -1 79.5t13 69.5q17 66 43 122t57 107q8 14 16 25q4 7 10 13v1q2 2 0 -0.5t-1 -1.5l1 1l2 3l4 6l18 23t19 21 q1 2 5 6l-2 4l-2 4q-17 37 -36.5 67t-36.5 53l-23 32t-12 23q-4 11 -3 18.5t6 15.5t11.5 12.5t18.5 4.5t30 -6t44 -23q29 -19 58.5 -48t56.5 -69l49.5 31zM324 309q2 12 3.5 24.5t1.5 21.5q0 51 -9 101q-3 19 -7 37t-9 35q-3 -3 -4 -7l-3 -5l-1 -1v-1q-3 -5 -2 -3.5t0 0.5 l-2 -3q-1 -2 -2 -4.5t-3 -5.5q-3 -5 -5.5 -10.5t-5.5 -11.5q-20 -47 -37.5 -100.5t-25.5 -108.5q-4 -27 -4.5 -53t5.5 -45q4 -17 12 -23l6 -3h1v-1q2 0 0 0.5t4 -1.5v-1h2l4 -2q1 0 2 -0.5t2 -0.5q5 0 4.5 0.5t3.5 2.5q7 5 20 23q11 19 20.5 43t16.5 50q8 28 12 53z" />
<glyph unicode="&#xe02;" horiz-adv-x="594" d="M472 765q15 9 26 11t15 -3t0 -15t-20 -25q-17 -17 -38.5 -35.5l-44.5 -39.5q20 -38 36 -82t26 -93q13 -61 13 -131q-1 -20 -3 -37.5t-6 -34.5q-6 -36 -16 -68q-11 -33 -25.5 -66.5t-38.5 -68.5q-13 -17 -29.5 -33.5t-42.5 -30.5q-12 -7 -26.5 -11.5t-29.5 -6.5 q-16 -2 -30.5 0t-28.5 6q-6 2 -12.5 4.5t-11.5 5.5q-3 2 -5.5 2.5t-5.5 2.5l-3 2q6 -3 4 -2t-1 0v1h-2l-6 4q-25 14 -43 35q-18 22 -26.5 45t-12.5 44q-6 44 -1 79.5t13 69.5q17 66 43 122t57 107q8 14 16 25q4 7 10 13v1q2 2 0 -0.5t-1 -1.5l1 1l2 3l4 6l18 23t19 21 q1 2 5 6l-2 4l-2 4q-17 37 -36.5 67t-36.5 53l-23 32t-12 23q-4 11 -3 18.5t6 15.5t11.5 12.5t18.5 4.5t30 -6t44 -23q29 -19 58.5 -48t56.5 -69l49.5 31zM324 309q2 12 3.5 24.5t1.5 21.5q0 51 -9 101q-3 19 -7 37t-9 35q-3 -3 -4 -7l-3 -5l-1 -1v-1q-3 -5 -2 -3.5t0 0.5 l-2 -3q-1 -2 -2 -4.5t-3 -5.5q-3 -5 -5.5 -10.5t-5.5 -11.5q-20 -47 -37.5 -100.5t-25.5 -108.5q-4 -27 -4.5 -53t5.5 -45q4 -17 12 -23l6 -3h1v-1q2 0 0 0.5t4 -1.5v-1h2l4 -2q1 0 2 -0.5t2 -0.5q5 0 4.5 0.5t3.5 2.5q7 5 20 23q11 19 20.5 43t16.5 50q8 28 12 53z" />
<glyph unicode="&#xa3;" horiz-adv-x="776" d="M671 811q18 12 31 14.5t16.5 -2.5t-2.5 -16.5t-25 -28.5l-43.5 -41.5l-49.5 -49.5q1 -2 2 -5t2 -5q8 -22 13 -43.5t8 -42.5q5 -43 4.5 -84t-5.5 -82q-5 -42 -13.5 -81.5t-21.5 -80.5q-2 -5 -3.5 -10t-3.5 -10q-2 -6 -4 -11l-2 -6l-2 -6l-9.5 -20.5l-9.5 -19.5 q-20 -39 -45 -74q-13 -18 -28 -36t-36 -35q-11 -9 -24.5 -17.5t-33.5 -14.5q-22 -7 -46 -4q-24 4 -44 18q-9 6 -16 13l-7.5 7.5t-6.5 7.5q-6 8 -10 16t-7 16q-6 16 -8 29.5t-3 26.5q-1 25 1.5 46.5t6.5 41.5q3 20 8 39.5l10 37.5l5.5 18.5t5.5 17.5q3 10 6 19l6 18 q13 36 29 69.5t35 64.5q38 61 83 109q5 5 9 9.5t9 9.5q-8 16 -13 22q-4 4 -5.5 4.5t-6.5 2.5h-7h-3h-1q-4 0 -12 -4q-10 -4 -22.5 -11t-29.5 -15q-8 -5 -18.5 -9t-22.5 -7q-6 -2 -12.5 -3t-14.5 -2q-15 -2 -35 3q-19 3 -36 15q-14 10 -24 23q-9 11 -13.5 19.5t-7.5 16.5 q-6 13 -9 21q-2 0 -3.5 -1t-3.5 -2q-11 -5 -21.5 -11t-18.5 -11q-17 -10 -30 -13q-13 -4 -21 -1.5t-14 8.5q-6 7 -9 14.5t0 20.5t13 31q6 10 15 22t24 26q9 8 21 16.5t29 15.5q9 4 20.5 6.5t27.5 0.5q16 -1 31.5 -8.5t25.5 -16.5q11 -10 16.5 -18.5l10.5 -16.5q3 -4 5 -7 l4 -6l4 2q9 5 22.5 14t32.5 20q10 5 22 9.5t27 6.5q4 2 8 2t7 1q3 0 6 0.5t6 0.5h13t13 -1q30 -2 57 -15q14 -7 27 -15.5t23 -19.5q13 -13 20 -24q57 43 102 72zM469 443q4 45 3 87q-22 -33 -40 -73q-28 -58 -44 -121q-2 -8 -3.5 -16.5t-3.5 -16.5t-3.5 -17t-3.5 -18 q-4 -17 -6 -33.5l-4 -33.5q-2 -14 -2.5 -28.5t1.5 -26.5q7 8 14.5 18.5t14.5 21.5q8 14 16 29.5t15 30.5q4 8 7 15.5l6 14.5q1 2 1 3.5t1 3.5l2 8q2 4 2.5 8t2.5 9q18 65 24 135z" />
<glyph unicode="&#xe03;" horiz-adv-x="776" d="M671 811q18 12 31 14.5t16.5 -2.5t-2.5 -16.5t-25 -28.5l-43.5 -41.5l-49.5 -49.5q1 -2 2 -5t2 -5q8 -22 13 -43.5t8 -42.5q5 -43 4.5 -84t-5.5 -82q-5 -42 -13.5 -81.5t-21.5 -80.5q-2 -5 -3.5 -10t-3.5 -10q-2 -6 -4 -11l-2 -6l-2 -6l-9.5 -20.5l-9.5 -19.5 q-20 -39 -45 -74q-13 -18 -28 -36t-36 -35q-11 -9 -24.5 -17.5t-33.5 -14.5q-22 -7 -46 -4q-24 4 -44 18q-9 6 -16 13l-7.5 7.5t-6.5 7.5q-6 8 -10 16t-7 16q-6 16 -8 29.5t-3 26.5q-1 25 1.5 46.5t6.5 41.5q3 20 8 39.5l10 37.5l5.5 18.5t5.5 17.5q3 10 6 19l6 18 q13 36 29 69.5t35 64.5q38 61 83 109q5 5 9 9.5t9 9.5q-8 16 -13 22q-4 4 -5.5 4.5t-6.5 2.5h-7h-3h-1q-4 0 -12 -4q-10 -4 -22.5 -11t-29.5 -15q-8 -5 -18.5 -9t-22.5 -7q-6 -2 -12.5 -3t-14.5 -2q-15 -2 -35 3q-19 3 -36 15q-14 10 -24 23q-9 11 -13.5 19.5t-7.5 16.5 q-6 13 -9 21q-2 0 -3.5 -1t-3.5 -2q-11 -5 -21.5 -11t-18.5 -11q-17 -10 -30 -13q-13 -4 -21 -1.5t-14 8.5q-6 7 -9 14.5t0 20.5t13 31q6 10 15 22t24 26q9 8 21 16.5t29 15.5q9 4 20.5 6.5t27.5 0.5q16 -1 31.5 -8.5t25.5 -16.5q11 -10 16.5 -18.5l10.5 -16.5q3 -4 5 -7 l4 -6l4 2q9 5 22.5 14t32.5 20q10 5 22 9.5t27 6.5q4 2 8 2t7 1q3 0 6 0.5t6 0.5h13t13 -1q30 -2 57 -15q14 -7 27 -15.5t23 -19.5q13 -13 20 -24q57 43 102 72zM469 443q4 45 3 87q-22 -33 -40 -73q-28 -58 -44 -121q-2 -8 -3.5 -16.5t-3.5 -16.5t-3.5 -17t-3.5 -18 q-4 -17 -6 -33.5l-4 -33.5q-2 -14 -2.5 -28.5t1.5 -26.5q7 8 14.5 18.5t14.5 21.5q8 14 16 29.5t15 30.5q4 8 7 15.5l6 14.5q1 2 1 3.5t1 3.5l2 8q2 4 2.5 8t2.5 9q18 65 24 135z" />
<glyph unicode="&#xa4;" horiz-adv-x="1164" d="M812 403l-79.5 -78.5t-99.5 -90.5l-57 -48.5l-63 -49.5t-69.5 -49.5t-82.5 -47.5q-24 -13 -51 -20q-15 -5 -32.5 -8t-42.5 -1q-13 1 -28 6q-5 2 -8 3.5t-8 3.5q-8 3 -16 7.5t-16 9.5q-17 11 -31.5 26.5t-24.5 35.5q-19 39 -19 79q-1 18 1.5 34.5t6.5 31.5q7 30 18 56 t24 49q26 48 56 90t63 81q67 81 143 148q20 19 41 35l22 16.5t26 17.5q3 2 9 5l5 3l12 6q11 4 23 11l24 10l24 10q49 19 101 32.5t109 14.5q28 0 57 -5t57 -17q29 -12 52.5 -31t40.5 -42t28.5 -47.5t18.5 -48.5q8 -24 12 -47.5t6 -46.5q5 -46 3.5 -89t-6.5 -83 q-5 -41 -12 -78t-15 -72q-16 -69 -35 -126t-36 -102q-11 -26 -21.5 -38t-15.5 -10q-14 3 1 65q12 45 24 102.5t20 125.5q5 34 7.5 69.5t3.5 73.5t-1 76.5t-10 77.5q-7 38 -21 73.5t-37 59.5q-42 46 -121 40q-38 -4 -79 -17t-82 -32q-11 -5 -20.5 -10l-20.5 -11 q-10 -4 -20 -11l-10 -5l-3 -2q-1 0 -3 -2q-6 -5 -14.5 -11t-16.5 -14t-16.5 -15.5t-16.5 -15.5q-33 -32 -63.5 -67.5l-59.5 -71.5t-54 -73.5t-44 -74.5t-27 -70q-3 -15 -3 -25q1 -8 3 -10q0 -1 5 -5l4 -2l4 -2l2 -1q1 0 1.5 -0.5t-0.5 -0.5l-1 1h-3l-1 1q-2 -1 2.5 -0.5 t10.5 2.5q7 2 15 5t16 7q32 16 65 36.5t65 42.5l62 43.5l58 42.5l106.5 77.5l91.5 63.5q35 23 59.5 35t40 15t24 -1t12.5 -11q4 -8 4.5 -17t-6 -22t-23 -32z" />
<glyph unicode="&#xe04;" horiz-adv-x="1164" d="M812 403l-79.5 -78.5t-99.5 -90.5l-57 -48.5l-63 -49.5t-69.5 -49.5t-82.5 -47.5q-24 -13 -51 -20q-15 -5 -32.5 -8t-42.5 -1q-13 1 -28 6q-5 2 -8 3.5t-8 3.5q-8 3 -16 7.5t-16 9.5q-17 11 -31.5 26.5t-24.5 35.5q-19 39 -19 79q-1 18 1.5 34.5t6.5 31.5q7 30 18 56 t24 49q26 48 56 90t63 81q67 81 143 148q20 19 41 35l22 16.5t26 17.5q3 2 9 5l5 3l12 6q11 4 23 11l24 10l24 10q49 19 101 32.5t109 14.5q28 0 57 -5t57 -17q29 -12 52.5 -31t40.5 -42t28.5 -47.5t18.5 -48.5q8 -24 12 -47.5t6 -46.5q5 -46 3.5 -89t-6.5 -83 q-5 -41 -12 -78t-15 -72q-16 -69 -35 -126t-36 -102q-11 -26 -21.5 -38t-15.5 -10q-14 3 1 65q12 45 24 102.5t20 125.5q5 34 7.5 69.5t3.5 73.5t-1 76.5t-10 77.5q-7 38 -21 73.5t-37 59.5q-42 46 -121 40q-38 -4 -79 -17t-82 -32q-11 -5 -20.5 -10l-20.5 -11 q-10 -4 -20 -11l-10 -5l-3 -2q-1 0 -3 -2q-6 -5 -14.5 -11t-16.5 -14t-16.5 -15.5t-16.5 -15.5q-33 -32 -63.5 -67.5l-59.5 -71.5t-54 -73.5t-44 -74.5t-27 -70q-3 -15 -3 -25q1 -8 3 -10q0 -1 5 -5l4 -2l4 -2l2 -1q1 0 1.5 -0.5t-0.5 -0.5l-1 1h-3l-1 1q-2 -1 2.5 -0.5 t10.5 2.5q7 2 15 5t16 7q32 16 65 36.5t65 42.5l62 43.5l58 42.5l106.5 77.5l91.5 63.5q35 23 59.5 35t40 15t24 -1t12.5 -11q4 -8 4.5 -17t-6 -22t-23 -32z" />
<glyph unicode="&#xa5;" horiz-adv-x="1194" d="M1093 680q1 -23 0 -45v-11.5t-1 -11.5q0 -7 -1 -12v-3.5t-1 -4.5l-1 -6q-2 -11 -4.5 -21.5t-4.5 -21.5q-12 -42 -24.5 -79t-26.5 -73q-14 -35 -29 -68t-31 -62q-63 -120 -117 -195q-15 -21 -28 -29.5t-18 -5.5q-12 7 16 60l42.5 90t47 111t43.5 129t34 146q2 9 3 18.5 l2 18.5v5q0 6 -1 9v20q-1 3 -1 8q-2 -1 -3 -2t-3 -2q-10 -7 -20.5 -13.5t-24.5 -13.5t-33.5 -12t-42.5 -2q-24 3 -45 14q-11 7 -18 13l-13 11q-11 11 -18 19.5t-11 10.5q-7 6 -13.5 11t-12.5 7q-6 4 -10.5 5t-8.5 2q-8 0 -21 -3l-19 -5.5t-18 -6.5q-35 -13 -72 -35 q-70 -43 -129.5 -105.5t-109.5 -131.5q-25 -34 -47.5 -69.5t-38.5 -68.5q-8 -17 -14.5 -33t-9.5 -31q-4 -14 -4.5 -25t1.5 -16l1.5 -4.5t2.5 -3.5l6 2t7 3q22 11 47 32.5l52 44.5q48 40 88 80.5t75 72.5q30 27 50.5 42t34.5 20t23 3t15 -8q6 -7 8.5 -15.5t-2 -22t-16 -35 t-33.5 -53.5l-62 -86.5t-87 -100.5l-12 -12l-6 -6t-6 -7l-12.5 -12.5t-14.5 -13.5q-15 -14 -32 -27.5t-40 -26.5q-24 -15 -55 -23q-17 -4 -38 -3.5t-43 8.5q-21 8 -37 20t-27 25q-12 14 -21 30t-14 33q-10 35 -8 66t8 57q6 27 15.5 50.5t20.5 46.5q23 45 48.5 83.5 t54.5 77.5q29 38 61 74.5t69 71.5q36 35 77 65.5t87 55.5q23 12 47.5 22.5t50.5 18.5q13 5 26 8l27 6q17 2 34.5 3t35.5 -3q19 -4 35 -11.5t30 -15.5q25 -17 45 -38q12 -13 18.5 -21.5t11.5 -13.5l2 -2q1 0 1 -1l-1 -1q2 0 6 1t9 3q7 3 15 7.5t18 9.5l20.5 12t24.5 12 q7 3 14.5 5.5t16.5 4.5q5 1 9.5 2t9.5 1h3q9 0 20 -3q7 -3 14 -7q4 -2 5.5 -3.5l3.5 -3.5q2 -3 6 -7q2 -4 3 -5q3 -6 4 -9q3 -7 4 -11t2 -9q1 -4 1 -7t1 -7q1 -7 1.5 -13t0.5 -12z" />
<glyph unicode="&#xe05;" horiz-adv-x="1194" d="M1093 680q1 -23 0 -45v-11.5t-1 -11.5q0 -7 -1 -12v-3.5t-1 -4.5l-1 -6q-2 -11 -4.5 -21.5t-4.5 -21.5q-12 -42 -24.5 -79t-26.5 -73q-14 -35 -29 -68t-31 -62q-63 -120 -117 -195q-15 -21 -28 -29.5t-18 -5.5q-12 7 16 60l42.5 90t47 111t43.5 129t34 146q2 9 3 18.5 l2 18.5v5q0 6 -1 9v20q-1 3 -1 8q-2 -1 -3 -2t-3 -2q-10 -7 -20.5 -13.5t-24.5 -13.5t-33.5 -12t-42.5 -2q-24 3 -45 14q-11 7 -18 13l-13 11q-11 11 -18 19.5t-11 10.5q-7 6 -13.5 11t-12.5 7q-6 4 -10.5 5t-8.5 2q-8 0 -21 -3l-19 -5.5t-18 -6.5q-35 -13 -72 -35 q-70 -43 -129.5 -105.5t-109.5 -131.5q-25 -34 -47.5 -69.5t-38.5 -68.5q-8 -17 -14.5 -33t-9.5 -31q-4 -14 -4.5 -25t1.5 -16l1.5 -4.5t2.5 -3.5l6 2t7 3q22 11 47 32.5l52 44.5q48 40 88 80.5t75 72.5q30 27 50.5 42t34.5 20t23 3t15 -8q6 -7 8.5 -15.5t-2 -22t-16 -35 t-33.5 -53.5l-62 -86.5t-87 -100.5l-12 -12l-6 -6t-6 -7l-12.5 -12.5t-14.5 -13.5q-15 -14 -32 -27.5t-40 -26.5q-24 -15 -55 -23q-17 -4 -38 -3.5t-43 8.5q-21 8 -37 20t-27 25q-12 14 -21 30t-14 33q-10 35 -8 66t8 57q6 27 15.5 50.5t20.5 46.5q23 45 48.5 83.5 t54.5 77.5q29 38 61 74.5t69 71.5q36 35 77 65.5t87 55.5q23 12 47.5 22.5t50.5 18.5q13 5 26 8l27 6q17 2 34.5 3t35.5 -3q19 -4 35 -11.5t30 -15.5q25 -17 45 -38q12 -13 18.5 -21.5t11.5 -13.5l2 -2q1 0 1 -1l-1 -1q2 0 6 1t9 3q7 3 15 7.5t18 9.5l20.5 12t24.5 12 q7 3 14.5 5.5t16.5 4.5q5 1 9.5 2t9.5 1h3q9 0 20 -3q7 -3 14 -7q4 -2 5.5 -3.5l3.5 -3.5q2 -3 6 -7q2 -4 3 -5q3 -6 4 -9q3 -7 4 -11t2 -9q1 -4 1 -7t1 -7q1 -7 1.5 -13t0.5 -12z" />
<glyph unicode="&#xa6;" horiz-adv-x="1376" d="M1345 806q11 -7 -22 -71q-26 -49 -56 -111.5t-68 -134.5l-41 -74t-47 -78q-26 -39 -56 -79.5t-72 -78.5q-22 -18 -49 -34.5t-65 -22.5q-17 -3 -39 -1q-11 1 -18 3q-8 1 -17 5q-17 5 -33.5 13t-30.5 19q-23 18 -39.5 39t-29.5 42q-10 -19 -20.5 -37l-21.5 -37 q-17 -26 -38 -52.5t-50 -50.5q-14 -12 -31 -22t-31 -17q-15 -8 -32 -14.5t-37 -11.5t-44.5 -6.5t-54.5 9.5q-15 5 -28.5 15t-24.5 22q-11 13 -17 25.5t-10 25.5q-8 25 -8 45.5t2 40.5t6.5 37t10.5 34q24 65 70 119q23 27 51 49.5t63 37.5l2 1h1l-2 -1l1 1l4 1l7 3 q4 2 7.5 3.5t7.5 3.5q8 2 16 5t16 5q17 5 35 8.5t38 3.5q9 1 18 0t19 -3l6 22t5 22q3 12 5.5 24t4.5 24q2 14 5 26.5t5 24.5q4 17 6 34l-4 -1l-23.5 -7.5t-22.5 -7.5q-45 -14 -90 -21q-47 -9 -92 -9q-11 1 -23 1.5t-23 1.5q-5 2 -11 2.5t-11 1.5q-3 1 -5.5 1.5t-5.5 1.5 l-6 1l-2 1h-1q-5 2 -4 1.5t0 -0.5l-2 1q-16 5 -28 13t-22 16q-16 15 -28 30l-19.5 25.5t-14.5 16.5q-3 4 -5 6q0 1 0.5 1.5t0.5 1.5q0 2 -3.5 2t-8.5 -2q-10 -3 -18.5 -7.5l-16.5 -8.5q-14 -7 -23.5 -6.5t-16.5 6.5q-7 5 -10 14.5t5 26.5q4 9 10.5 21t23.5 26q8 7 20.5 14 t32.5 10q22 2 41 -4q21 -8 35 -18q17 -12 29 -24l23 -22q23 -21 30 -19q-5 2 -3.5 1.5t0.5 -0.5h1h1l4 -1h6q5 -1 15 -1h14.5t15.5 1q16 2 32.5 5t34.5 7q36 10 75 24q10 3 19.5 6.5l19.5 7.5q2 2 4.5 2.5t4.5 1.5q4 2 7 4q5 2 10 4.5t12 5.5l15.5 6.5t22.5 6.5q15 3 34 2 q11 -2 23 -5.5t23 -11.5q21 -15 29.5 -30.5t12.5 -26.5q4 -12 5.5 -21t3.5 -19q5 -36 1 -65.5t-9 -56.5q-2 -13 -4.5 -25.5t-4.5 -23.5q-2 -14 -5 -27l-6 -27q-6 -27 -13 -54t-16 -55q-2 -4 -2 -6q11 -18 18.5 -34.5t15.5 -31.5q11 -23 23 -40.5t26 -28.5q13 -11 29.5 -17 t29.5 -4q14 2 32 10.5t35 22.5q35 27 65.5 62t56.5 70q27 35 50.5 70.5l45.5 69.5l80 126.5t68 105.5q17 27 32 38.5t20 8.5zM491 252q16 26 29.5 53.5t25.5 56.5q-17 -3 -36.5 -10.5t-41.5 -18.5q-34 -18 -61.5 -55t-40.5 -79q-4 -11 -5.5 -21t-2.5 -19v-17l9 3 q8 2 17.5 6.5l19.5 9.5q4 2 10 6l3 1l1 1l4 2l7.5 5.5t6.5 6.5q15 13 29 31t26 38z" />
<glyph unicode="&#xe06;" horiz-adv-x="1376" d="M1345 806q11 -7 -22 -71q-26 -49 -56 -111.5t-68 -134.5l-41 -74t-47 -78q-26 -39 -56 -79.5t-72 -78.5q-22 -18 -49 -34.5t-65 -22.5q-17 -3 -39 -1q-11 1 -18 3q-8 1 -17 5q-17 5 -33.5 13t-30.5 19q-23 18 -39.5 39t-29.5 42q-10 -19 -20.5 -37l-21.5 -37 q-17 -26 -38 -52.5t-50 -50.5q-14 -12 -31 -22t-31 -17q-15 -8 -32 -14.5t-37 -11.5t-44.5 -6.5t-54.5 9.5q-15 5 -28.5 15t-24.5 22q-11 13 -17 25.5t-10 25.5q-8 25 -8 45.5t2 40.5t6.5 37t10.5 34q24 65 70 119q23 27 51 49.5t63 37.5l2 1h1l-2 -1l1 1l4 1l7 3 q4 2 7.5 3.5t7.5 3.5q8 2 16 5t16 5q17 5 35 8.5t38 3.5q9 1 18 0t19 -3l6 22t5 22q3 12 5.5 24t4.5 24q2 14 5 26.5t5 24.5q4 17 6 34l-4 -1l-23.5 -7.5t-22.5 -7.5q-45 -14 -90 -21q-47 -9 -92 -9q-11 1 -23 1.5t-23 1.5q-5 2 -11 2.5t-11 1.5q-3 1 -5.5 1.5t-5.5 1.5 l-6 1l-2 1h-1q-5 2 -4 1.5t0 -0.5l-2 1q-16 5 -28 13t-22 16q-16 15 -28 30l-19.5 25.5t-14.5 16.5q-3 4 -5 6q0 1 0.5 1.5t0.5 1.5q0 2 -3.5 2t-8.5 -2q-10 -3 -18.5 -7.5l-16.5 -8.5q-14 -7 -23.5 -6.5t-16.5 6.5q-7 5 -10 14.5t5 26.5q4 9 10.5 21t23.5 26q8 7 20.5 14 t32.5 10q22 2 41 -4q21 -8 35 -18q17 -12 29 -24l23 -22q23 -21 30 -19q-5 2 -3.5 1.5t0.5 -0.5h1h1l4 -1h6q5 -1 15 -1h14.5t15.5 1q16 2 32.5 5t34.5 7q36 10 75 24q10 3 19.5 6.5l19.5 7.5q2 2 4.5 2.5t4.5 1.5q4 2 7 4q5 2 10 4.5t12 5.5l15.5 6.5t22.5 6.5q15 3 34 2 q11 -2 23 -5.5t23 -11.5q21 -15 29.5 -30.5t12.5 -26.5q4 -12 5.5 -21t3.5 -19q5 -36 1 -65.5t-9 -56.5q-2 -13 -4.5 -25.5t-4.5 -23.5q-2 -14 -5 -27l-6 -27q-6 -27 -13 -54t-16 -55q-2 -4 -2 -6q11 -18 18.5 -34.5t15.5 -31.5q11 -23 23 -40.5t26 -28.5q13 -11 29.5 -17 t29.5 -4q14 2 32 10.5t35 22.5q35 27 65.5 62t56.5 70q27 35 50.5 70.5l45.5 69.5l80 126.5t68 105.5q17 27 32 38.5t20 8.5zM491 252q16 26 29.5 53.5t25.5 56.5q-17 -3 -36.5 -10.5t-41.5 -18.5q-34 -18 -61.5 -55t-40.5 -79q-4 -11 -5.5 -21t-2.5 -19v-17l9 3 q8 2 17.5 6.5l19.5 9.5q4 2 10 6l3 1l1 1l4 2l7.5 5.5t6.5 6.5q15 13 29 31t26 38z" />
<glyph unicode="&#xa7;" horiz-adv-x="849" d="M721 746q24 -43 29 -99q3 -28 1 -56t-7 -57q-11 -59 -34 -117.5t-56 -118.5q-17 -29 -36 -58t-42 -58t-48 -57t-57 -54l-35 -25.5t-42 -23.5l-11.5 -4t-10.5 -4t-11 -3.5t-12 -3.5q-12 -3 -25 -5t-27 -2q-28 -1 -58.5 8t-53.5 28q-23 18 -38 39t-26 42q-20 42 -27.5 82 t-12.5 78q-4 38 -4.5 75.5t1.5 72.5q3 72 11.5 139.5t20.5 130.5q23 125 53 224t59 164q9 19 19 27t15 5q12 -5 2 -48q-17 -66 -32 -166t-24 -222q-4 -61 -5.5 -125.5t1.5 -130.5q2 -33 5 -66t9 -65q5 -32 14 -61t22 -51t24 -27q5 -3 9.5 -4t12.5 0q9 0 18 4q3 1 11 3 q2 1 2.5 1.5t2.5 1.5l4 2q9 4 19.5 11.5t21.5 17.5q21 19 41.5 41.5t39.5 46.5q19 25 35.5 49.5t31.5 49.5q30 50 52 98t36 91q13 44 16.5 79t-1.5 59q-5 20 -10 33t-8 24q-4 19 5 34q5 8 11.5 12.5t20.5 2.5q14 -1 35 -15q11 -8 22 -20t21 -29z" />
<glyph unicode="&#xe07;" horiz-adv-x="849" d="M721 746q24 -43 29 -99q3 -28 1 -56t-7 -57q-11 -59 -34 -117.5t-56 -118.5q-17 -29 -36 -58t-42 -58t-48 -57t-57 -54l-35 -25.5t-42 -23.5l-11.5 -4t-10.5 -4t-11 -3.5t-12 -3.5q-12 -3 -25 -5t-27 -2q-28 -1 -58.5 8t-53.5 28q-23 18 -38 39t-26 42q-20 42 -27.5 82 t-12.5 78q-4 38 -4.5 75.5t1.5 72.5q3 72 11.5 139.5t20.5 130.5q23 125 53 224t59 164q9 19 19 27t15 5q12 -5 2 -48q-17 -66 -32 -166t-24 -222q-4 -61 -5.5 -125.5t1.5 -130.5q2 -33 5 -66t9 -65q5 -32 14 -61t22 -51t24 -27q5 -3 9.5 -4t12.5 0q9 0 18 4q3 1 11 3 q2 1 2.5 1.5t2.5 1.5l4 2q9 4 19.5 11.5t21.5 17.5q21 19 41.5 41.5t39.5 46.5q19 25 35.5 49.5t31.5 49.5q30 50 52 98t36 91q13 44 16.5 79t-1.5 59q-5 20 -10 33t-8 24q-4 19 5 34q5 8 11.5 12.5t20.5 2.5q14 -1 35 -15q11 -8 22 -20t21 -29z" />
<glyph unicode="&#xa8;" horiz-adv-x="830" d="M710 599q2 -39 -2.5 -76t-14.5 -72q-20 -70 -51.5 -131t-66.5 -115l-37 -53l-39 -51q-3 -3 -7 -8.5l-9 -12.5l-10.5 -12.5t-11.5 -14.5l-14.5 -14.5t-19.5 -16.5q-6 -4 -14 -8.5t-20 -8.5q-13 -5 -30 -5q-8 0 -17.5 1.5t-17.5 5.5q-18 7 -28.5 17t-16.5 18 q-6 9 -9.5 15.5t-6.5 14.5q-5 14 -7 27t-2 24q0 23 3 39.5t7 30.5q3 14 6.5 26t5.5 22q3 10 4.5 17.5t1.5 9.5q0 35 -9 62t-22 47q-11 17 -20 28t-14 21q-7 18 0 34q3 8 9 13.5t18 7.5t32 -3t48 -25q17 -12 33 -29.5t29 -40.5q7 -11 12 -23l10 -25l4 -13.5l4 -13.5 q1 -4 1.5 -7t1.5 -7q0 -2 0.5 -3.5t0.5 -3.5l1 -3v-5q1 -5 1 -9v-8l11.5 15t10.5 15q33 49 62.5 99.5t47.5 102.5q19 52 20.5 102.5t-19.5 88.5q-17 33 -58 43q-21 5 -45.5 4.5t-49.5 -5.5q-51 -8 -97.5 -23t-88.5 -30l-78 -29t-65 -24q-37 -11 -42 3q-7 13 29 34l59 34.5 l73 42.5q41 22 87.5 44.5t104.5 39.5q29 8 62.5 13.5t71.5 0.5q19 -2 38.5 -8.5t38.5 -17.5q39 -23 62 -59q13 -17 21 -35.5t14 -36.5q3 -11 5 -20t4 -19t3 -19.5z" />
<glyph unicode="&#xe08;" horiz-adv-x="830" d="M710 599q2 -39 -2.5 -76t-14.5 -72q-20 -70 -51.5 -131t-66.5 -115l-37 -53l-39 -51q-3 -3 -7 -8.5l-9 -12.5l-10.5 -12.5t-11.5 -14.5l-14.5 -14.5t-19.5 -16.5q-6 -4 -14 -8.5t-20 -8.5q-13 -5 -30 -5q-8 0 -17.5 1.5t-17.5 5.5q-18 7 -28.5 17t-16.5 18 q-6 9 -9.5 15.5t-6.5 14.5q-5 14 -7 27t-2 24q0 23 3 39.5t7 30.5q3 14 6.5 26t5.5 22q3 10 4.5 17.5t1.5 9.5q0 35 -9 62t-22 47q-11 17 -20 28t-14 21q-7 18 0 34q3 8 9 13.5t18 7.5t32 -3t48 -25q17 -12 33 -29.5t29 -40.5q7 -11 12 -23l10 -25l4 -13.5l4 -13.5 q1 -4 1.5 -7t1.5 -7q0 -2 0.5 -3.5t0.5 -3.5l1 -3v-5q1 -5 1 -9v-8l11.5 15t10.5 15q33 49 62.5 99.5t47.5 102.5q19 52 20.5 102.5t-19.5 88.5q-17 33 -58 43q-21 5 -45.5 4.5t-49.5 -5.5q-51 -8 -97.5 -23t-88.5 -30l-78 -29t-65 -24q-37 -11 -42 3q-7 13 29 34l59 34.5 l73 42.5q41 22 87.5 44.5t104.5 39.5q29 8 62.5 13.5t71.5 0.5q19 -2 38.5 -8.5t38.5 -17.5q39 -23 62 -59q13 -17 21 -35.5t14 -36.5q3 -11 5 -20t4 -19t3 -19.5z" />
<glyph unicode="&#xa9;" horiz-adv-x="1067" d="M1009 274q13 -19 20 -45.5t4 -52.5t-13.5 -47.5t-23.5 -37.5q-27 -32 -59 -50.5t-68 -28.5q-38 -9 -78 -5q-21 3 -41.5 10t-39.5 20q-3 3 -9 7l-2 2q-1 1 -2 1l-3 3q-4 3 -7.5 6t-7.5 7q-13 13 -25 31q-11 17 -18.5 35.5t-12.5 37.5v1q-16 -8 -34 -18.5t-38 -20.5 q-6 -3 -12 -5.5t-12 -5.5q-2 0 -6 -2q-1 0 -1.5 -0.5t-2.5 -0.5q-3 -2 -11 -4q-11 -5 -22.5 -8.5t-27.5 -7.5q-5 -1 -9.5 -1.5t-10.5 -0.5q-6 -1 -14 -1t-23 5q-2 1 -3.5 1t-3.5 2q-2 1 -4.5 2t-4.5 2q-3 2 -5 3t-4 3q-4 3 -8 6.5t-8 8.5q-15 19 -18 41q-3 20 -0.5 32.5 t5.5 21.5t6.5 15.5l6.5 12.5t6.5 10.5t6.5 9.5q2 5 5 8.5t4 5.5q7 10 12 16.5t10 14.5q11 14 20 27.5l18 26.5l31 48.5t24 42.5q4 8 6 14.5t4 10.5q3 9 5 8q6 0 5 3q0 2 -1.5 4t-3.5 4q-10 8 -15.5 14.5t-6.5 15.5q0 5 0.5 8.5t3.5 8.5q3 4 8.5 7.5t16.5 5.5q12 3 29 -1 q9 -2 21 -9.5t20 -21.5q8 -13 11 -27t3 -27q0 -27 -6 -52q-8 -31 -20 -60.5t-28 -61.5q0 -1 -2 -3q8 4 12 7l23 12t26 12q11 5 19.5 7.5t16.5 5.5q14 45 32.5 85.5l35.5 78.5l21 45.5t19 45.5q8 22 14.5 43t8.5 40q1 10 1.5 18t-1.5 16q-2 10 -3 14q-2 4 -2 6q-1 1 -1 1.5 t-1 1.5q-1 2 -2.5 3.5t-6.5 3.5q-12 4 -31 2q-19 -1 -39.5 -5.5t-40.5 -11.5q-21 -7 -41.5 -15t-40.5 -17q-80 -36 -150 -78t-131 -83q-60 -41 -109.5 -79t-85.5 -71q-41 -38 -51 -35q-6 2 -1.5 20t27.5 45q34 40 80.5 84t104.5 92q59 48 127.5 97t151.5 94l43 21.5t46 20.5 q23 10 49 17.5t56 11.5q15 2 32 1t37 -6q19 -5 39 -17.5t32 -32.5q23 -34 28 -69t3 -66q-3 -31 -10 -59t-15 -54t-17.5 -51l-19.5 -50l-15.5 -39l-15.5 -38q21 0 43 -2.5t45 -9.5q35 -11 65 -32q14 -10 29 -23t28 -33zM876 187q0 1 0.5 1t0.5 1l1 1l-5.5 5.5t-9.5 6.5 q-9 6 -23 11q-15 5 -35 5t-43 -4q1 -5 1.5 -9t1.5 -8q5 -14 11 -21q3 -5 9 -9q2 -2 6 -4l2 -2q6 -4 16.5 -5t24.5 4q13 4 25 12t17 15z" />
<glyph unicode="&#xe09;" horiz-adv-x="1067" d="M1009 274q13 -19 20 -45.5t4 -52.5t-13.5 -47.5t-23.5 -37.5q-27 -32 -59 -50.5t-68 -28.5q-38 -9 -78 -5q-21 3 -41.5 10t-39.5 20q-3 3 -9 7l-2 2q-1 1 -2 1l-3 3q-4 3 -7.5 6t-7.5 7q-13 13 -25 31q-11 17 -18.5 35.5t-12.5 37.5v1q-16 -8 -34 -18.5t-38 -20.5 q-6 -3 -12 -5.5t-12 -5.5q-2 0 -6 -2q-1 0 -1.5 -0.5t-2.5 -0.5q-3 -2 -11 -4q-11 -5 -22.5 -8.5t-27.5 -7.5q-5 -1 -9.5 -1.5t-10.5 -0.5q-6 -1 -14 -1t-23 5q-2 1 -3.5 1t-3.5 2q-2 1 -4.5 2t-4.5 2q-3 2 -5 3t-4 3q-4 3 -8 6.5t-8 8.5q-15 19 -18 41q-3 20 -0.5 32.5 t5.5 21.5t6.5 15.5l6.5 12.5t6.5 10.5t6.5 9.5q2 5 5 8.5t4 5.5q7 10 12 16.5t10 14.5q11 14 20 27.5l18 26.5l31 48.5t24 42.5q4 8 6 14.5t4 10.5q3 9 5 8q6 0 5 3q0 2 -1.5 4t-3.5 4q-10 8 -15.5 14.5t-6.5 15.5q0 5 0.5 8.5t3.5 8.5q3 4 8.5 7.5t16.5 5.5q12 3 29 -1 q9 -2 21 -9.5t20 -21.5q8 -13 11 -27t3 -27q0 -27 -6 -52q-8 -31 -20 -60.5t-28 -61.5q0 -1 -2 -3q8 4 12 7l23 12t26 12q11 5 19.5 7.5t16.5 5.5q14 45 32.5 85.5l35.5 78.5l21 45.5t19 45.5q8 22 14.5 43t8.5 40q1 10 1.5 18t-1.5 16q-2 10 -3 14q-2 4 -2 6q-1 1 -1 1.5 t-1 1.5q-1 2 -2.5 3.5t-6.5 3.5q-12 4 -31 2q-19 -1 -39.5 -5.5t-40.5 -11.5q-21 -7 -41.5 -15t-40.5 -17q-80 -36 -150 -78t-131 -83q-60 -41 -109.5 -79t-85.5 -71q-41 -38 -51 -35q-6 2 -1.5 20t27.5 45q34 40 80.5 84t104.5 92q59 48 127.5 97t151.5 94l43 21.5t46 20.5 q23 10 49 17.5t56 11.5q15 2 32 1t37 -6q19 -5 39 -17.5t32 -32.5q23 -34 28 -69t3 -66q-3 -31 -10 -59t-15 -54t-17.5 -51l-19.5 -50l-15.5 -39l-15.5 -38q21 0 43 -2.5t45 -9.5q35 -11 65 -32q14 -10 29 -23t28 -33zM876 187q0 1 0.5 1t0.5 1l1 1l-5.5 5.5t-9.5 6.5 q-9 6 -23 11q-15 5 -35 5t-43 -4q1 -5 1.5 -9t1.5 -8q5 -14 11 -21q3 -5 9 -9q2 -2 6 -4l2 -2q6 -4 16.5 -5t24.5 4q13 4 25 12t17 15z" />
<glyph unicode="&#xaa;" horiz-adv-x="758" d="M1238 1029q2 -16 -52 -33l-96 -30l-115 -36l-130 -44t-140 -55l-35.5 -16l-35.5 -16q-9 -5 -18 -9.5t-18 -9.5l-18 -9l-8 -5q1 1 0 0t-2 -1q-1 -1 -2 -1.5t-2 -1.5q-13 -8 -25.5 -16.5l-25.5 -17.5q12 -14 23 -28.5t21 -31.5q15 -26 23.5 -52.5t13.5 -52.5 q10 -54 9 -105.5t-11 -102.5t-28 -100.5t-48 -96.5q-15 -23 -33 -44.5t-41 -40.5q-22 -18 -51 -34q-7 -3 -13.5 -6.5t-14.5 -6.5q-7 -2 -13 -4.5t-13 -4.5q-14 -4 -28.5 -7.5t-34.5 -4.5q-9 -1 -20 -0.5t-25 4.5q-14 3 -29 11t-26 21q-13 13 -19.5 26.5t-9.5 24.5 q-4 12 -5 22t-1 19q-1 17 1 31.5t4 27.5q5 26 10.5 48t11.5 43l13.5 40.5t12.5 39.5l25 73.5t21 69.5q9 33 15 64t7 57q2 26 -3 44q-2 10 -4.5 17t-6.5 13q-8 11 -23 20.5t-33 15.5q-15 5 -28.5 8t-24.5 5l-19.5 5.5t-14.5 5.5q-13 5 -18 12t-7 16q-1 9 2.5 17t17.5 16 q7 4 16 7.5t23 6.5t31.5 5t40.5 0q14 -2 29.5 -5t32.5 -9t34.5 -16t32.5 -26q15 -15 25 -32q4 9 9 12q2 2 2.5 3.5t2.5 3.5q1 1 1.5 2t1.5 2t2 1l2 1l3 3q1 1 2 1.5t2 1.5q2 1 5 4l20.5 13t19.5 11l38.5 22.5l38.5 21.5q2 2 6 4l6 3l10 4q5 2 10 4.5t10 4.5q19 8 41 16 l39 15t39 13q78 26 150 43.5t137 31.5q64 13 118.5 22.5l99.5 17.5q26 5 40.5 2.5t16.5 -8.5zM341 313l-12 -38.5l-12 -38.5l-10 -36t-8 -34q16 5 25 10q7 3 13.5 7t12.5 9q24 19 46 51q21 30 36 67t24 76q10 40 12.5 80t-2.5 78q-3 19 -7.5 36t-11.5 31q-8 15 -18.5 29.5 t-24.5 29.5l-9 9q3 -13 4.5 -26t2.5 -26q2 -41 -3.5 -80.5t-14.5 -78.5q-8 -38 -19.5 -77z" />
<glyph unicode="&#xe0a;" horiz-adv-x="758" d="M1238 1029q2 -16 -52 -33l-96 -30l-115 -36l-130 -44t-140 -55l-35.5 -16l-35.5 -16q-9 -5 -18 -9.5t-18 -9.5l-18 -9l-8 -5q1 1 0 0t-2 -1q-1 -1 -2 -1.5t-2 -1.5q-13 -8 -25.5 -16.5l-25.5 -17.5q12 -14 23 -28.5t21 -31.5q15 -26 23.5 -52.5t13.5 -52.5 q10 -54 9 -105.5t-11 -102.5t-28 -100.5t-48 -96.5q-15 -23 -33 -44.5t-41 -40.5q-22 -18 -51 -34q-7 -3 -13.5 -6.5t-14.5 -6.5q-7 -2 -13 -4.5t-13 -4.5q-14 -4 -28.5 -7.5t-34.5 -4.5q-9 -1 -20 -0.5t-25 4.5q-14 3 -29 11t-26 21q-13 13 -19.5 26.5t-9.5 24.5 q-4 12 -5 22t-1 19q-1 17 1 31.5t4 27.5q5 26 10.5 48t11.5 43l13.5 40.5t12.5 39.5l25 73.5t21 69.5q9 33 15 64t7 57q2 26 -3 44q-2 10 -4.5 17t-6.5 13q-8 11 -23 20.5t-33 15.5q-15 5 -28.5 8t-24.5 5l-19.5 5.5t-14.5 5.5q-13 5 -18 12t-7 16q-1 9 2.5 17t17.5 16 q7 4 16 7.5t23 6.5t31.5 5t40.5 0q14 -2 29.5 -5t32.5 -9t34.5 -16t32.5 -26q15 -15 25 -32q4 9 9 12q2 2 2.5 3.5t2.5 3.5q1 1 1.5 2t1.5 2t2 1l2 1l3 3q1 1 2 1.5t2 1.5q2 1 5 4l20.5 13t19.5 11l38.5 22.5l38.5 21.5q2 2 6 4l6 3l10 4q5 2 10 4.5t10 4.5q19 8 41 16 l39 15t39 13q78 26 150 43.5t137 31.5q64 13 118.5 22.5l99.5 17.5q26 5 40.5 2.5t16.5 -8.5zM341 313l-12 -38.5l-12 -38.5l-10 -36t-8 -34q16 5 25 10q7 3 13.5 7t12.5 9q24 19 46 51q21 30 36 67t24 76q10 40 12.5 80t-2.5 78q-3 19 -7.5 36t-11.5 31q-8 15 -18.5 29.5 t-24.5 29.5l-9 9q3 -13 4.5 -26t2.5 -26q2 -41 -3.5 -80.5t-14.5 -78.5q-8 -38 -19.5 -77z" />
<glyph unicode="&#xab;" horiz-adv-x="824" d="M1278 943q2 -5 -7.5 -17t-36.5 -29q-40 -25 -93 -51t-117 -52q-65 -26 -138.5 -49t-154.5 -45l-20 -5q-13 -4 -22 -5q-11 -3 -21.5 -5.5t-21.5 -4.5h-1l8 -18.5t7 -19.5q10 -23 16 -50q4 -14 5.5 -28t2.5 -28q2 -28 0 -54.5t-7 -51.5q-6 -49 -18 -98q-6 -24 -13 -49 t-16 -50l-10 -25t-11 -25l-6 -12.5t-7 -12.5q-3 -5 -7 -12.5t-9 -13.5q-17 -25 -37.5 -46t-46.5 -40q-27 -20 -60 -32q-18 -6 -39 -9t-44 1q-23 3 -43.5 13t-35.5 23q-33 28 -49 68q-8 19 -11 37t-4 35q0 17 1.5 32.5t3.5 29.5q11 57 30.5 103t39.5 88l20 40q11 20 20 40 l20.5 38t17.5 35q5 13 10 22q-23 -9 -44.5 -16t-44.5 -12q-34 -7 -69.5 -6.5t-69.5 14.5q-29 12 -46 32q-9 9 -14.5 18t-8.5 17q-7 17 -8 29.5t1 20.5q2 17 9.5 22.5t15.5 7.5q17 3 34 -15l10 -10.5t11 -10.5q7 -5 13.5 -7.5t16.5 -3.5q12 -2 31.5 1.5t42.5 11.5 q23 9 48 21.5t51 29.5q3 1 15 14t35 30q7 5 15 9.5t23 9.5q8 2 18 3.5t24 -0.5t27 -9.5t21 -15.5q5 -5 7.5 -8.5t5.5 -8.5q2 -3 4 -7t4 -7v-2q5 2 11 4q7 2 13 3.5t12 2.5q12 3 23.5 4.5t22.5 3.5l41.5 5.5t40.5 7.5q164 29 292 65q65 18 118 37t95 38q49 21 58 11v-1z M520 564q-9 -23 -18 -42l-19.5 -40.5l-19.5 -39.5l-9.5 -19l-9.5 -20l-10 -19.5l-10 -19.5q-19 -38 -35 -76t-23 -73q-3 -17 -2.5 -31t2.5 -19t6 -9t5 -4h5.5t8.5 2q10 3 25 13q29 20 51 49q4 6 9 15t10 17l9.5 19t8.5 19q8 20 15 40.5l14 42.5q6 21 11 43l10 44 q5 21 7.5 41t2.5 39q0 18 -3 35q-2 9 -4.5 19t-4.5 19q-2 5 -3.5 10t-3.5 10q-2 -8 -5 -14.5t-5 -13.5q-5 -10 -8 -19q-1 -2 -2 -4.5t-2 -4.5q0 -2 -1 -4z" />
<glyph unicode="&#xe0b;" horiz-adv-x="824" d="M1278 943q2 -5 -7.5 -17t-36.5 -29q-40 -25 -93 -51t-117 -52q-65 -26 -138.5 -49t-154.5 -45l-20 -5q-13 -4 -22 -5q-11 -3 -21.5 -5.5t-21.5 -4.5h-1l8 -18.5t7 -19.5q10 -23 16 -50q4 -14 5.5 -28t2.5 -28q2 -28 0 -54.5t-7 -51.5q-6 -49 -18 -98q-6 -24 -13 -49 t-16 -50l-10 -25t-11 -25l-6 -12.5t-7 -12.5q-3 -5 -7 -12.5t-9 -13.5q-17 -25 -37.5 -46t-46.5 -40q-27 -20 -60 -32q-18 -6 -39 -9t-44 1q-23 3 -43.5 13t-35.5 23q-33 28 -49 68q-8 19 -11 37t-4 35q0 17 1.5 32.5t3.5 29.5q11 57 30.5 103t39.5 88l20 40q11 20 20 40 l20.5 38t17.5 35q5 13 10 22q-23 -9 -44.5 -16t-44.5 -12q-34 -7 -69.5 -6.5t-69.5 14.5q-29 12 -46 32q-9 9 -14.5 18t-8.5 17q-7 17 -8 29.5t1 20.5q2 17 9.5 22.5t15.5 7.5q17 3 34 -15l10 -10.5t11 -10.5q7 -5 13.5 -7.5t16.5 -3.5q12 -2 31.5 1.5t42.5 11.5 q23 9 48 21.5t51 29.5q3 1 15 14t35 30q7 5 15 9.5t23 9.5q8 2 18 3.5t24 -0.5t27 -9.5t21 -15.5q5 -5 7.5 -8.5t5.5 -8.5q2 -3 4 -7t4 -7v-2q5 2 11 4q7 2 13 3.5t12 2.5q12 3 23.5 4.5t22.5 3.5l41.5 5.5t40.5 7.5q164 29 292 65q65 18 118 37t95 38q49 21 58 11v-1z M520 564q-9 -23 -18 -42l-19.5 -40.5l-19.5 -39.5l-9.5 -19l-9.5 -20l-10 -19.5l-10 -19.5q-19 -38 -35 -76t-23 -73q-3 -17 -2.5 -31t2.5 -19t6 -9t5 -4h5.5t8.5 2q10 3 25 13q29 20 51 49q4 6 9 15t10 17l9.5 19t8.5 19q8 20 15 40.5l14 42.5q6 21 11 43l10 44 q5 21 7.5 41t2.5 39q0 18 -3 35q-2 9 -4.5 19t-4.5 19q-2 5 -3.5 10t-3.5 10q-2 -8 -5 -14.5t-5 -13.5q-5 -10 -8 -19q-1 -2 -2 -4.5t-2 -4.5q0 -2 -1 -4z" />
<glyph unicode="&#xac;" horiz-adv-x="1419" d="M709 792v-1v1zM710 791h-1h1zM1393 659q5 -4 -3.5 -21.5t-32.5 -52.5l-34.5 -55.5l-37.5 -62.5l-41 -69.5l-44 -76.5q-11 -20 -23.5 -40.5l-25.5 -40.5l-28 -42.5t-36 -44.5q-11 -11 -26 -22t-39 -16q-11 -3 -26 -1q-8 0 -14.5 2.5t-13.5 5.5q-12 7 -20.5 15t-14.5 16 q-11 17 -18 32t-12 29q-5 15 -8.5 29.5t-7.5 28.5l-6 28l-6 28q-3 15 -6 27q-2 8 -3 11q0 2 -1 5t-2 7q-5 14 -10.5 28t-11.5 27q-2 -8 -3 -14.5t-3 -14.5q-15 -71 -44.5 -135t-72.5 -123q-6 -8 -12 -15l-12 -14q-9 -12 -22 -25q-12 -14 -25.5 -27.5t-32.5 -27.5 q-9 -7 -20.5 -13.5t-26.5 -11.5q-14 -5 -34.5 -7t-40.5 4q-22 6 -39 22q-9 7 -15 14.5t-11 15.5q-8 15 -12.5 28t-6.5 25q-4 23 -4 42.5t1 36.5q0 11 1 16v9t1 9q0 18 3 35q5 36 13 71t21 69t31 66t41 61q12 15 25 28t28 26q33 26 69 41q5 2 9 3t8 3q-19 25 -51 44 q-17 11 -33 15t-33 4q-34 -1 -71 -22t-69 -52t-58.5 -67t-48.5 -73q-44 -75 -70 -145.5t-42 -130.5q-14 -50 -20.5 -81t-13.5 -49q-7 -17 -14.5 -23.5t-15.5 -6.5q-9 -1 -17 5t-14 26q-7 19 -11 54.5t1 92.5q7 69 28.5 152t66.5 174q23 45 53 90.5t72 88.5q21 22 46 42 t54 37t64.5 28.5t76.5 13.5q40 2 80 -9.5t72 -31.5q5 -2 8.5 -5t7.5 -6l4 -3h2v-1h1l8 -6q8 -5 15 -11.5l14 -13.5q29 -27 50 -62q14 -21 23 -43.5t15 -45.5q9 -6 17.5 -13l16.5 -14q14 -14 25 -29t20 -31q17 -31 28 -61.5t19 -59.5q5 -18 7 -33l4 -29l4 -27.5l4 -26.5 t5 -25.5t6 -23.5q6 -24 15 -36q2 -2 2 -3h1q10 2 27 17q16 15 30 33.5l28 38.5l28 38l26 37l50 73l47 66l44 60.5t41 52.5q23 28 40.5 39t22.5 7zM685 438q4 20 6 39.5t1 38.5q-3 -1 -5.5 -2t-5.5 -3l-18 -10.5t-17 -13.5q-18 -18 -33 -39q-31 -43 -47 -95q-16 -51 -21 -109 q0 -7 -0.5 -14t-0.5 -14v-31v-16l10 10.5l10 11.5q5 5 9.5 11.5t9.5 12.5q5 5 8.5 10.5t8.5 11.5q31 45 53 97t32 104z" />
<glyph unicode="&#xe0c;" horiz-adv-x="1419" d="M709 792v-1v1zM710 791h-1h1zM1393 659q5 -4 -3.5 -21.5t-32.5 -52.5l-34.5 -55.5l-37.5 -62.5l-41 -69.5l-44 -76.5q-11 -20 -23.5 -40.5l-25.5 -40.5l-28 -42.5t-36 -44.5q-11 -11 -26 -22t-39 -16q-11 -3 -26 -1q-8 0 -14.5 2.5t-13.5 5.5q-12 7 -20.5 15t-14.5 16 q-11 17 -18 32t-12 29q-5 15 -8.5 29.5t-7.5 28.5l-6 28l-6 28q-3 15 -6 27q-2 8 -3 11q0 2 -1 5t-2 7q-5 14 -10.5 28t-11.5 27q-2 -8 -3 -14.5t-3 -14.5q-15 -71 -44.5 -135t-72.5 -123q-6 -8 -12 -15l-12 -14q-9 -12 -22 -25q-12 -14 -25.5 -27.5t-32.5 -27.5 q-9 -7 -20.5 -13.5t-26.5 -11.5q-14 -5 -34.5 -7t-40.5 4q-22 6 -39 22q-9 7 -15 14.5t-11 15.5q-8 15 -12.5 28t-6.5 25q-4 23 -4 42.5t1 36.5q0 11 1 16v9t1 9q0 18 3 35q5 36 13 71t21 69t31 66t41 61q12 15 25 28t28 26q33 26 69 41q5 2 9 3t8 3q-19 25 -51 44 q-17 11 -33 15t-33 4q-34 -1 -71 -22t-69 -52t-58.5 -67t-48.5 -73q-44 -75 -70 -145.5t-42 -130.5q-14 -50 -20.5 -81t-13.5 -49q-7 -17 -14.5 -23.5t-15.5 -6.5q-9 -1 -17 5t-14 26q-7 19 -11 54.5t1 92.5q7 69 28.5 152t66.5 174q23 45 53 90.5t72 88.5q21 22 46 42 t54 37t64.5 28.5t76.5 13.5q40 2 80 -9.5t72 -31.5q5 -2 8.5 -5t7.5 -6l4 -3h2v-1h1l8 -6q8 -5 15 -11.5l14 -13.5q29 -27 50 -62q14 -21 23 -43.5t15 -45.5q9 -6 17.5 -13l16.5 -14q14 -14 25 -29t20 -31q17 -31 28 -61.5t19 -59.5q5 -18 7 -33l4 -29l4 -27.5l4 -26.5 t5 -25.5t6 -23.5q6 -24 15 -36q2 -2 2 -3h1q10 2 27 17q16 15 30 33.5l28 38.5l28 38l26 37l50 73l47 66l44 60.5t41 52.5q23 28 40.5 39t22.5 7zM685 438q4 20 6 39.5t1 38.5q-3 -1 -5.5 -2t-5.5 -3l-18 -10.5t-17 -13.5q-18 -18 -33 -39q-31 -43 -47 -95q-16 -51 -21 -109 q0 -7 -0.5 -14t-0.5 -14v-31v-16l10 10.5l10 11.5q5 5 9.5 11.5t9.5 12.5q5 5 8.5 10.5t8.5 11.5q31 45 53 97t32 104z" />
<glyph unicode="&#xad;" horiz-adv-x="1752" d="M1414 69q8 4 14.5 1.5t10.5 -7.5t3.5 -12t-6.5 -14q-17 -22 -44.5 -51.5t-64.5 -63.5q-37 -35 -83 -69.5t-103 -61.5t-118 -41t-117 -12t-100 15t-70 31q-22 14 -25 28.5t2 31.5t14.5 27.5t33.5 14.5q28 5 65 5t79 2q43 2 89.5 8.5t94.5 20.5t95.5 35t90.5 42l78 40.5 t61 29.5zM1726 775q4 -5 -3 -20.5t-28 -43.5l-68 -98l-82 -120l-44.5 -66.5l-47.5 -71t-54 -74.5t-63 -75q-17 -19 -35.5 -37t-39.5 -35q-43 -37 -93 -62q-51 -27 -107.5 -41.5t-113.5 -19.5q-14 -2 -28.5 -2.5t-28.5 -1.5q-11 -1 -24.5 -2t-30.5 -1h-16.5t-19.5 1 q-5 1 -10.5 2t-13.5 3q-7 2 -15 5.5t-18 11.5t-18.5 20.5t-11.5 26.5q-4 14 -3 25t3 19q3 14 9 27q1 2 2 4.5t2 4.5l3 5q0 1 0.5 1t0.5 1q23 45 44 93.5t37 97.5q17 49 27 97.5t8 92.5q-1 22 -4.5 40.5t-11.5 31.5q-13 25 -41 40q-15 7 -34 11t-42 6q-22 2 -44 1.5t-44 -2.5 q-44 -5 -85 -18t-79 -32q-76 -38 -132 -94t-87 -116q-32 -60 -39.5 -117.5t0.5 -105.5q7 -40 14 -65.5t9 -41.5t-1 -24.5t-10 -13.5h-1q-7 -5 -16.5 -5t-23.5 11t-34 36t-39 76q-11 30 -17.5 66t-5.5 77q1 40 10 83t28 85q38 86 108.5 161t168.5 126q49 26 103.5 43 t113.5 24q59 6 121 0q29 -3 63 -10.5t67 -24.5t62 -46.5t45 -65.5q17 -35 22.5 -70.5t4.5 -68.5q-2 -66 -17 -124.5t-35 -113.5q-34 -88 -79 -171h30h25.5t24.5 1q50 2 95.5 11t87.5 28q20 10 39.5 21t37.5 25q19 14 36 28.5l34 30.5q66 63 119.5 132.5l103.5 129.5 l93.5 111.5t79.5 90.5q20 23 35.5 32t20.5 5q1 0 1 -1z" />
<glyph unicode="&#xe0d;" horiz-adv-x="1752" d="M1414 69q8 4 14.5 1.5t10.5 -7.5t3.5 -12t-6.5 -14q-17 -22 -44.5 -51.5t-64.5 -63.5q-37 -35 -83 -69.5t-103 -61.5t-118 -41t-117 -12t-100 15t-70 31q-22 14 -25 28.5t2 31.5t14.5 27.5t33.5 14.5q28 5 65 5t79 2q43 2 89.5 8.5t94.5 20.5t95.5 35t90.5 42l78 40.5 t61 29.5zM1726 775q4 -5 -3 -20.5t-28 -43.5l-68 -98l-82 -120l-44.5 -66.5l-47.5 -71t-54 -74.5t-63 -75q-17 -19 -35.5 -37t-39.5 -35q-43 -37 -93 -62q-51 -27 -107.5 -41.5t-113.5 -19.5q-14 -2 -28.5 -2.5t-28.5 -1.5q-11 -1 -24.5 -2t-30.5 -1h-16.5t-19.5 1 q-5 1 -10.5 2t-13.5 3q-7 2 -15 5.5t-18 11.5t-18.5 20.5t-11.5 26.5q-4 14 -3 25t3 19q3 14 9 27q1 2 2 4.5t2 4.5l3 5q0 1 0.5 1t0.5 1q23 45 44 93.5t37 97.5q17 49 27 97.5t8 92.5q-1 22 -4.5 40.5t-11.5 31.5q-13 25 -41 40q-15 7 -34 11t-42 6q-22 2 -44 1.5t-44 -2.5 q-44 -5 -85 -18t-79 -32q-76 -38 -132 -94t-87 -116q-32 -60 -39.5 -117.5t0.5 -105.5q7 -40 14 -65.5t9 -41.5t-1 -24.5t-10 -13.5h-1q-7 -5 -16.5 -5t-23.5 11t-34 36t-39 76q-11 30 -17.5 66t-5.5 77q1 40 10 83t28 85q38 86 108.5 161t168.5 126q49 26 103.5 43 t113.5 24q59 6 121 0q29 -3 63 -10.5t67 -24.5t62 -46.5t45 -65.5q17 -35 22.5 -70.5t4.5 -68.5q-2 -66 -17 -124.5t-35 -113.5q-34 -88 -79 -171h30h25.5t24.5 1q50 2 95.5 11t87.5 28q20 10 39.5 21t37.5 25q19 14 36 28.5l34 30.5q66 63 119.5 132.5l103.5 129.5 l93.5 111.5t79.5 90.5q20 23 35.5 32t20.5 5q1 0 1 -1z" />
<glyph unicode="&#xde;" horiz-adv-x="1752" d="M1414 69q8 4 14.5 1.5t10.5 -7.5t3.5 -12t-6.5 -14q-17 -22 -44.5 -51.5t-64.5 -63.5q-37 -35 -83 -69.5t-103 -61.5t-118 -41t-117 -12t-100 15t-70 31q-22 14 -25 28.5t2 31.5t14.5 27.5t33.5 14.5q28 5 65 5t79 2q43 2 89.5 8.5t94.5 20.5t95.5 35t90.5 42l78 40.5 t61 29.5zM1726 775q4 -5 -3 -20.5t-28 -43.5l-68 -98l-82 -120l-44.5 -66.5l-47.5 -71t-54 -74.5t-63 -75q-17 -19 -35.5 -37t-39.5 -35q-43 -37 -93 -62q-51 -27 -107.5 -41.5t-113.5 -19.5q-14 -2 -28.5 -2.5t-28.5 -1.5q-11 -1 -24.5 -2t-30.5 -1h-16.5t-19.5 1 q-5 1 -10.5 2t-13.5 3q-7 2 -15 5.5t-18 11.5t-18.5 20.5t-11.5 26.5q-4 14 -3 25t3 19q3 14 9 27q1 2 2 4.5t2 4.5l3 5q0 1 0.5 1t0.5 1q23 45 44 93.5t37 97.5q17 49 27 97.5t8 92.5q-1 22 -4.5 40.5t-11.5 31.5q-13 25 -41 40q-15 7 -34 11t-42 6q-22 2 -44 1.5t-44 -2.5 q-44 -5 -85 -18t-79 -32q-76 -38 -132 -94t-87 -116q-32 -60 -39.5 -117.5t0.5 -105.5q7 -40 14 -65.5t9 -41.5t-1 -24.5t-10 -13.5h-1q-7 -5 -16.5 -5t-23.5 11t-34 36t-39 76q-11 30 -17.5 66t-5.5 77q1 40 10 83t28 85q38 86 108.5 161t168.5 126q49 26 103.5 43 t113.5 24q59 6 121 0q29 -3 63 -10.5t67 -24.5t62 -46.5t45 -65.5q17 -35 22.5 -70.5t4.5 -68.5q-2 -66 -17 -124.5t-35 -113.5q-34 -88 -79 -171h30h25.5t24.5 1q50 2 95.5 11t87.5 28q20 10 39.5 21t37.5 25q19 14 36 28.5l34 30.5q66 63 119.5 132.5l103.5 129.5 l93.5 111.5t79.5 90.5q20 23 35.5 32t20.5 5q1 0 1 -1z" />
<glyph unicode="&#xae;" horiz-adv-x="1018" d="M868 521q11 -39 14 -76.5t2 -73.5q-3 -73 -16.5 -141.5t-32.5 -136.5q-38 -135 -91.5 -264t-114.5 -256l-30.5 -63l-32.5 -62l-16 -31.5t-16 -29.5q-9 -20 -27 -42l-11.5 -11.5t-17.5 -13.5q-11 -8 -28 -11q-19 -5 -37 0q-19 5 -29.5 13.5t-17.5 15.5q-6 8 -10 14.5 l-8 12.5q-6 12 -10 22.5t-7 21.5q-6 20 -9 40q-2 10 -2.5 18t-2.5 17q-4 35 -8 66t-12 60q-7 24 -12.5 46.5t-12.5 45.5q-39 -16 -82 -32t-92 -29l-25 -6t-27 -5l-26 -4t-28 -3q-7 -1 -15 -1h-16q-8 1 -17.5 2.5t-20.5 6.5q-13 5 -23 15q-12 11 -17 27q-3 8 -3.5 15t-0.5 13 q0 5 0.5 8.5t0.5 8.5q4 32 16.5 64.5t32.5 59.5q20 28 45 50t51 40l24 18q2 1 5 4q6 4 10 6q9 6 19 11q41 17 85 14q24 -2 45 -10q13 -5 23 -11q5 -3 9 -6l8 -6q17 -14 30 -28.5t24 -29.5q35 -50 56 -107l20.5 7.5t18.5 6.5q35 14 56.5 17t24.5 -2q1 0 1 -1q2 -6 -15 -19 t-58 -33q-15 -8 -33 -15q11 -29 19.5 -56.5l16.5 -55.5q10 -35 16 -68l12 -64q1 2 2 4.5t2 4.5l29 61.5l28 62.5q56 125 103.5 250.5t81.5 250.5q17 63 27.5 123.5t12.5 117.5q1 28 -1.5 54t-8.5 48q-6 20 -16 37q-2 4 -5 7t-5 6l-6 6q-2 2 -4.5 4t-4.5 4q-37 31 -68 36 q-14 2 -27.5 -0.5t-30.5 -12.5t-33 -25t-31 -32q-16 -17 -29.5 -36l-27.5 -39q-54 -79 -97 -154t-87 -134q-35 -50 -66.5 -76.5t-54.5 -34.5t-33.5 -3.5t-13.5 12.5q-3 9 0 18t11 23l25.5 40.5t42.5 76.5l31.5 65l35.5 74l40.5 81t48.5 88l29 46.5t35 46.5q19 23 42 47 t55 44q16 10 34.5 18.5t39.5 13.5q43 11 87 3q45 -7 79.5 -26.5t62.5 -42.5q7 -5 15 -13l16 -16q15 -17 27 -36q11 -18 19.5 -37.5t13.5 -38.5zM19 -303q9 0 13 1q8 0 12 1q11 1 23 3l23 4q45 9 87 21t80 24q-9 24 -19 46t-23 41q-14 22 -31 36l-4 3l-2 2q-4 2 -7 3 q-3 2 -7 2.5t-9 1.5q-22 2 -37 -6q-2 -1 -3.5 -2t-3.5 -2q-6 -3 -14 -9l-13 -7.5t-12 -7.5q-23 -16 -43 -32t-35 -35q-28 -37 -36 -83v-4q6 -2 16 -2.5t21 -0.5q6 1 12 1t12 1z" />
<glyph unicode="&#xe0e;" horiz-adv-x="1018" d="M868 521q11 -39 14 -76.5t2 -73.5q-3 -73 -16.5 -141.5t-32.5 -136.5q-38 -135 -91.5 -264t-114.5 -256l-30.5 -63l-32.5 -62l-16 -31.5t-16 -29.5q-9 -20 -27 -42l-11.5 -11.5t-17.5 -13.5q-11 -8 -28 -11q-19 -5 -37 0q-19 5 -29.5 13.5t-17.5 15.5q-6 8 -10 14.5 l-8 12.5q-6 12 -10 22.5t-7 21.5q-6 20 -9 40q-2 10 -2.5 18t-2.5 17q-4 35 -8 66t-12 60q-7 24 -12.5 46.5t-12.5 45.5q-39 -16 -82 -32t-92 -29l-25 -6t-27 -5l-26 -4t-28 -3q-7 -1 -15 -1h-16q-8 1 -17.5 2.5t-20.5 6.5q-13 5 -23 15q-12 11 -17 27q-3 8 -3.5 15t-0.5 13 q0 5 0.5 8.5t0.5 8.5q4 32 16.5 64.5t32.5 59.5q20 28 45 50t51 40l24 18q2 1 5 4q6 4 10 6q9 6 19 11q41 17 85 14q24 -2 45 -10q13 -5 23 -11q5 -3 9 -6l8 -6q17 -14 30 -28.5t24 -29.5q35 -50 56 -107l20.5 7.5t18.5 6.5q35 14 56.5 17t24.5 -2q1 0 1 -1q2 -6 -15 -19 t-58 -33q-15 -8 -33 -15q11 -29 19.5 -56.5l16.5 -55.5q10 -35 16 -68l12 -64q1 2 2 4.5t2 4.5l29 61.5l28 62.5q56 125 103.5 250.5t81.5 250.5q17 63 27.5 123.5t12.5 117.5q1 28 -1.5 54t-8.5 48q-6 20 -16 37q-2 4 -5 7t-5 6l-6 6q-2 2 -4.5 4t-4.5 4q-37 31 -68 36 q-14 2 -27.5 -0.5t-30.5 -12.5t-33 -25t-31 -32q-16 -17 -29.5 -36l-27.5 -39q-54 -79 -97 -154t-87 -134q-35 -50 -66.5 -76.5t-54.5 -34.5t-33.5 -3.5t-13.5 12.5q-3 9 0 18t11 23l25.5 40.5t42.5 76.5l31.5 65l35.5 74l40.5 81t48.5 88l29 46.5t35 46.5q19 23 42 47 t55 44q16 10 34.5 18.5t39.5 13.5q43 11 87 3q45 -7 79.5 -26.5t62.5 -42.5q7 -5 15 -13l16 -16q15 -17 27 -36q11 -18 19.5 -37.5t13.5 -38.5zM19 -303q9 0 13 1q8 0 12 1q11 1 23 3l23 4q45 9 87 21t80 24q-9 24 -19 46t-23 41q-14 22 -31 36l-4 3l-2 2q-4 2 -7 3 q-3 2 -7 2.5t-9 1.5q-22 2 -37 -6q-2 -1 -3.5 -2t-3.5 -2q-6 -3 -14 -9l-13 -7.5t-12 -7.5q-23 -16 -43 -32t-35 -35q-28 -37 -36 -83v-4q6 -2 16 -2.5t21 -0.5q6 1 12 1t12 1z" />
<glyph unicode="&#xaf;" horiz-adv-x="1024" d="M902 367q2 -43 -2 -84.5t-12 -83.5q-3 -21 -7.5 -41.5t-9.5 -40.5t-10.5 -38.5t-10.5 -38.5q-22 -78 -48 -156t-61 -156q-17 -38 -37 -76.5t-44 -75.5l-25.5 -36.5t-27.5 -35.5q-14 -18 -33 -36t-45 -35q-13 -8 -29 -14t-35 -9q-19 -2 -38.5 0.5t-35.5 9.5q-17 7 -30 16 t-24 19t-20 20.5l-17 20.5q-14 22 -24.5 42t-19.5 39l-2 5l-3 6q-2 5 -3 8.5t-3 7.5q-5 14 -6 23l-5.5 20.5t-4.5 18.5q-1 5 -2 9.5t-3 9.5q0 -1 -0.5 -1.5t-0.5 -1.5q-3 -4 -5.5 -8l-5.5 -9l-7 -11.5t-12 -15.5l-5 -5t-7 -6l-11 -6.5t-16 -5.5q-20 -5 -39 2q-4 2 -7.5 3.5 t-6.5 3.5q-6 4 -9 7q-7 7 -13 15l-14 -4t-13 -4l-56 -16l-60 -16q-31 -7 -64.5 -11.5t-70.5 -2.5q-19 1 -38 4.5t-39 11.5t-38 20t-33 29t-26 40t-12 49q-2 26 5 49t18 43q21 39 51 67.5t65 51.5q18 11 37.5 20.5t42.5 16.5q25 7 50 8q12 0 24 -1t24 -3q48 -8 91 -35 q20 -14 37.5 -30.5t31.5 -35.5q14 -18 25.5 -37.5t20.5 -39.5l6 -13.5t5 -12.5q2 0 2 2q6 6 13.5 12t17.5 11q21 12 45 13q12 2 23 0q6 -2 10 -2t17 -5q16 -8 24.5 -16t13.5 -15l47.5 17.5l44.5 16.5q42 16 66.5 20t28.5 -1v-1q2 -6 -19 -20t-68 -36q-18 -9 -37.5 -17.5 t-39.5 -18.5l3.5 -9l3.5 -9q4 -11 7 -21.5l6 -20.5l5.5 -20.5l4.5 -17.5q3 -11 5 -12v-1q0 -2 2 -4q1 -2 2 -4.5t2 -4.5q9 -17 17.5 -31.5t17.5 -25.5q5 -5 8.5 -9.5t7.5 -7.5q5 -3 8 -4.5l5 -2.5q2 0 4 1q3 0 12 6q17 12 39.5 42t41.5 60q19 32 35.5 66t31.5 69 q29 70 52 143.5t43 148.5l10 38t10 36q4 18 7.5 35.5t6.5 35.5q6 35 9 69t1 67q-2 66 -20.5 126t-52.5 110q-17 24 -36 43.5t-37 30.5q-21 10 -32 11q-7 0 -12.5 -1t-13.5 -4q-7 -4 -14.5 -10t-15.5 -14q-10 -10 -18.5 -20t-16.5 -21q-17 -22 -30.5 -45.5t-25.5 -47.5 q-25 -49 -44 -98l-39 -97l-36.5 -90t-39.5 -83q-35 -65 -70.5 -98t-58.5 -44q-25 -11 -36 -8.5t-15 9.5v1q-5 8 -2.5 18t14.5 27l30 49.5t42 91.5q14 35 26.5 77.5l27.5 92.5l32.5 101.5t43.5 111.5q13 29 28.5 59t35.5 59l21.5 28.5t23.5 28.5q14 15 32 30t41 26 q22 11 49 17t54 4q28 -2 52 -10.5t44 -20.5q42 -23 71.5 -54t53.5 -66q47 -68 73 -151q25 -81 27 -168zM44 -296q3 0 9 2q-1 1 -1 2t-1 3q-1 3 -1.5 5.5t-1.5 5.5l-2 8q-4 9 -5 17l-6 15.5t-7 15.5q-7 16 -14.5 30t-16.5 26q-37 51 -90 60q-3 1 -6.5 1t-7.5 1h-7h-5 q-6 0 -12 -1t-14 -3q-14 -4 -27.5 -10t-26.5 -14q-27 -16 -49.5 -37t-34.5 -44q-14 -23 -12 -42q1 -17 17 -36q16 -17 39.5 -26.5t52.5 -11.5q28 -3 57 0t58 8t57.5 11.5z" />
<glyph unicode="&#xe0f;" horiz-adv-x="1024" d="M902 367q2 -43 -2 -84.5t-12 -83.5q-3 -21 -7.5 -41.5t-9.5 -40.5t-10.5 -38.5t-10.5 -38.5q-22 -78 -48 -156t-61 -156q-17 -38 -37 -76.5t-44 -75.5l-25.5 -36.5t-27.5 -35.5q-14 -18 -33 -36t-45 -35q-13 -8 -29 -14t-35 -9q-19 -2 -38.5 0.5t-35.5 9.5q-17 7 -30 16 t-24 19t-20 20.5l-17 20.5q-14 22 -24.5 42t-19.5 39l-2 5l-3 6q-2 5 -3 8.5t-3 7.5q-5 14 -6 23l-5.5 20.5t-4.5 18.5q-1 5 -2 9.5t-3 9.5q0 -1 -0.5 -1.5t-0.5 -1.5q-3 -4 -5.5 -8l-5.5 -9l-7 -11.5t-12 -15.5l-5 -5t-7 -6l-11 -6.5t-16 -5.5q-20 -5 -39 2q-4 2 -7.5 3.5 t-6.5 3.5q-6 4 -9 7q-7 7 -13 15l-14 -4t-13 -4l-56 -16l-60 -16q-31 -7 -64.5 -11.5t-70.5 -2.5q-19 1 -38 4.5t-39 11.5t-38 20t-33 29t-26 40t-12 49q-2 26 5 49t18 43q21 39 51 67.5t65 51.5q18 11 37.5 20.5t42.5 16.5q25 7 50 8q12 0 24 -1t24 -3q48 -8 91 -35 q20 -14 37.5 -30.5t31.5 -35.5q14 -18 25.5 -37.5t20.5 -39.5l6 -13.5t5 -12.5q2 0 2 2q6 6 13.5 12t17.5 11q21 12 45 13q12 2 23 0q6 -2 10 -2t17 -5q16 -8 24.5 -16t13.5 -15l47.5 17.5l44.5 16.5q42 16 66.5 20t28.5 -1v-1q2 -6 -19 -20t-68 -36q-18 -9 -37.5 -17.5 t-39.5 -18.5l3.5 -9l3.5 -9q4 -11 7 -21.5l6 -20.5l5.5 -20.5l4.5 -17.5q3 -11 5 -12v-1q0 -2 2 -4q1 -2 2 -4.5t2 -4.5q9 -17 17.5 -31.5t17.5 -25.5q5 -5 8.5 -9.5t7.5 -7.5q5 -3 8 -4.5l5 -2.5q2 0 4 1q3 0 12 6q17 12 39.5 42t41.5 60q19 32 35.5 66t31.5 69 q29 70 52 143.5t43 148.5l10 38t10 36q4 18 7.5 35.5t6.5 35.5q6 35 9 69t1 67q-2 66 -20.5 126t-52.5 110q-17 24 -36 43.5t-37 30.5q-21 10 -32 11q-7 0 -12.5 -1t-13.5 -4q-7 -4 -14.5 -10t-15.5 -14q-10 -10 -18.5 -20t-16.5 -21q-17 -22 -30.5 -45.5t-25.5 -47.5 q-25 -49 -44 -98l-39 -97l-36.5 -90t-39.5 -83q-35 -65 -70.5 -98t-58.5 -44q-25 -11 -36 -8.5t-15 9.5v1q-5 8 -2.5 18t14.5 27l30 49.5t42 91.5q14 35 26.5 77.5l27.5 92.5l32.5 101.5t43.5 111.5q13 29 28.5 59t35.5 59l21.5 28.5t23.5 28.5q14 15 32 30t41 26 q22 11 49 17t54 4q28 -2 52 -10.5t44 -20.5q42 -23 71.5 -54t53.5 -66q47 -68 73 -151q25 -81 27 -168zM44 -296q3 0 9 2q-1 1 -1 2t-1 3q-1 3 -1.5 5.5t-1.5 5.5l-2 8q-4 9 -5 17l-6 15.5t-7 15.5q-7 16 -14.5 30t-16.5 26q-37 51 -90 60q-3 1 -6.5 1t-7.5 1h-7h-5 q-6 0 -12 -1t-14 -3q-14 -4 -27.5 -10t-26.5 -14q-27 -16 -49.5 -37t-34.5 -44q-14 -23 -12 -42q1 -17 17 -36q16 -17 39.5 -26.5t52.5 -11.5q28 -3 57 0t58 8t57.5 11.5z" />
<glyph unicode="&#xb0;" horiz-adv-x="976" d="M930 717q1 -6 -10 -15t-37 -18l-88 -30.5t-108 -34.5q-11 -3 -22.5 -6.5l-23.5 -7.5q5 -35 7 -69.5t1 -68.5q-1 -45 -6.5 -89t-15.5 -87t-24.5 -84t-37.5 -82q-12 -20 -27 -39.5t-38 -37.5q-12 -9 -25.5 -17t-29.5 -13q-33 -11 -67 -6q-8 2 -16 3.5t-15 4.5q-14 4 -27 12 q-14 8 -27.5 19.5t-22.5 27.5q-10 16 -14.5 31.5t-5.5 29.5q-2 14 -1.5 25.5t2.5 21.5q3 21 8 37.5l10 31.5t10 28l10 25q10 24 17 44t12 37q8 28 8.5 41t1.5 24q0 21 11 33q5 7 14 9.5t25 -5.5q7 -5 15 -14.5t16 -23.5q7 -15 11 -34t4 -41q-1 -27 -5 -54t-10 -53 q-3 -14 -6.5 -27t-5.5 -26q-3 -13 -5 -25t-2 -23v-10q2 0 4 -1h2l1 1q1 1 3 2t5 4q5 5 12.5 14.5t14.5 22.5q14 25 25 57t19 67t13 72t7 75q1 23 0.5 45.5t-2.5 45.5q-17 -5 -35 -8.5l-37 -7.5q-37 -8 -76 -14.5t-83 -8.5q-22 -1 -46 0l-27 4t-33 10q-5 3 -10 5.5t-10 7.5 t-10 11t-10 14t-7 16.5t-3 16.5t0 15t2 13q6 23 14.5 36.5t16.5 24.5q17 20 33.5 36.5t33.5 31.5l35.5 29t40.5 28t46.5 24t55.5 16q15 2 31.5 2.5t33.5 -2.5q17 -2 34 -8.5t32 -15.5q29 -19 48.5 -43.5t32.5 -48.5q10 -19 17 -37.5t12 -37.5q13 2 25.5 4.5t24.5 4.5 l110 20.5l90 17.5q24 5 38 3t16 -8zM411 643l34 4l34 4q-3 10 -6 18.5t-7 16.5q-13 27 -28 37q-12 9 -35 8q-12 -2 -27 -7.5t-30 -13.5q-16 -8 -31 -18.5l-31 -22.5q-11 -8 -21.5 -17l-19.5 -17q6 -1 11.5 -1h10.5q36 -1 73 1.5t73 7.5zM451 -68q6 -8 12 -23.5t11 -42.5 q2 -17 3.5 -35.5t-0.5 -40.5t-8 -45.5t-18 -48.5q-6 -12 -13 -24t-20 -26q-6 -7 -14.5 -14t-20.5 -12q-26 -11 -53 -8q-13 2 -23.5 5.5t-19.5 8.5q-18 9 -31 22q-11 8 -18.5 17t-15.5 17q-3 -8 -8 -16.5t-16 -16.5q-13 -10 -26 -14q-11 -3 -24 -3q-14 -1 -27.5 4.5 t-21.5 12.5q-17 14 -22 25t-10 19l-3.5 7l-2.5 5q-2 3 -3 6.5t-3 6.5q-5 -2 -8.5 -5t-8.5 -6q-7 -4 -13.5 -7l-13.5 -6t-15 -6t-16 -5q-34 -8 -68 -5q-17 2 -35 7t-35 15q-17 11 -32 28t-23 39q-4 11 -5.5 21t-2.5 21q0 11 1.5 22.5t5.5 22.5q7 23 21.5 41t31.5 30 q18 12 37 19t39 11q20 3 41 2.5t41 -7.5q42 -12 73 -42q14 -13 25 -27.5t20 -28.5l13.5 15.5t12.5 15.5q26 32 45 61.5l34 53.5q19 30 29 25q9 -7 -4 -41q-11 -26 -27 -59.5t-39 -70.5l-14.5 -22.5t-16.5 -22.5q12 12 30 17q11 5 22.5 4.5t21.5 -2.5t17 -5.5t13 -7.5 q11 -7 18 -13.5l13 -12.5t10.5 -11.5t9.5 -10.5q17 -21 29 -32q6 -6 9 -8q2 0 2 -1q9 9 17 22q17 28 24 59t11 59q4 46 11 62q4 9 8.5 12.5t11.5 4.5q7 2 13 -0.5t12 -10.5zM8 -229q5 2 9.5 4.5t9.5 4.5q-2 5 -4 8t-4 7q-6 11 -12.5 20t-12.5 16q-13 13 -30 19 q-15 6 -36 3.5t-35 -11.5q-13 -9 -18 -20q-3 -5 -3.5 -14t1.5 -14q3 -13 17 -23q15 -10 35 -13q20 -4 42 -1q9 2 19.5 5.5t21.5 8.5z" />
<glyph unicode="&#xe10;" horiz-adv-x="976" d="M930 717q1 -6 -10 -15t-37 -18l-88 -30.5t-108 -34.5q-11 -3 -22.5 -6.5l-23.5 -7.5q5 -35 7 -69.5t1 -68.5q-1 -45 -6.5 -89t-15.5 -87t-24.5 -84t-37.5 -82q-12 -20 -27 -39.5t-38 -37.5q-12 -9 -25.5 -17t-29.5 -13q-33 -11 -67 -6q-8 2 -16 3.5t-15 4.5q-14 4 -27 12 q-14 8 -27.5 19.5t-22.5 27.5q-10 16 -14.5 31.5t-5.5 29.5q-2 14 -1.5 25.5t2.5 21.5q3 21 8 37.5l10 31.5t10 28l10 25q10 24 17 44t12 37q8 28 8.5 41t1.5 24q0 21 11 33q5 7 14 9.5t25 -5.5q7 -5 15 -14.5t16 -23.5q7 -15 11 -34t4 -41q-1 -27 -5 -54t-10 -53 q-3 -14 -6.5 -27t-5.5 -26q-3 -13 -5 -25t-2 -23v-10q2 0 4 -1h2l1 1q1 1 3 2t5 4q5 5 12.5 14.5t14.5 22.5q14 25 25 57t19 67t13 72t7 75q1 23 0.5 45.5t-2.5 45.5q-17 -5 -35 -8.5l-37 -7.5q-37 -8 -76 -14.5t-83 -8.5q-22 -1 -46 0l-27 4t-33 10q-5 3 -10 5.5t-10 7.5 t-10 11t-10 14t-7 16.5t-3 16.5t0 15t2 13q6 23 14.5 36.5t16.5 24.5q17 20 33.5 36.5t33.5 31.5l35.5 29t40.5 28t46.5 24t55.5 16q15 2 31.5 2.5t33.5 -2.5q17 -2 34 -8.5t32 -15.5q29 -19 48.5 -43.5t32.5 -48.5q10 -19 17 -37.5t12 -37.5q13 2 25.5 4.5t24.5 4.5 l110 20.5l90 17.5q24 5 38 3t16 -8zM411 643l34 4l34 4q-3 10 -6 18.5t-7 16.5q-13 27 -28 37q-12 9 -35 8q-12 -2 -27 -7.5t-30 -13.5q-16 -8 -31 -18.5l-31 -22.5q-11 -8 -21.5 -17l-19.5 -17q6 -1 11.5 -1h10.5q36 -1 73 1.5t73 7.5zM451 -68q6 -8 12 -23.5t11 -42.5 q2 -17 3.5 -35.5t-0.5 -40.5t-8 -45.5t-18 -48.5q-6 -12 -13 -24t-20 -26q-6 -7 -14.5 -14t-20.5 -12q-26 -11 -53 -8q-13 2 -23.5 5.5t-19.5 8.5q-18 9 -31 22q-11 8 -18.5 17t-15.5 17q-3 -8 -8 -16.5t-16 -16.5q-13 -10 -26 -14q-11 -3 -24 -3q-14 -1 -27.5 4.5 t-21.5 12.5q-17 14 -22 25t-10 19l-3.5 7l-2.5 5q-2 3 -3 6.5t-3 6.5q-5 -2 -8.5 -5t-8.5 -6q-7 -4 -13.5 -7l-13.5 -6t-15 -6t-16 -5q-34 -8 -68 -5q-17 2 -35 7t-35 15q-17 11 -32 28t-23 39q-4 11 -5.5 21t-2.5 21q0 11 1.5 22.5t5.5 22.5q7 23 21.5 41t31.5 30 q18 12 37 19t39 11q20 3 41 2.5t41 -7.5q42 -12 73 -42q14 -13 25 -27.5t20 -28.5l13.5 15.5t12.5 15.5q26 32 45 61.5l34 53.5q19 30 29 25q9 -7 -4 -41q-11 -26 -27 -59.5t-39 -70.5l-14.5 -22.5t-16.5 -22.5q12 12 30 17q11 5 22.5 4.5t21.5 -2.5t17 -5.5t13 -7.5 q11 -7 18 -13.5l13 -12.5t10.5 -11.5t9.5 -10.5q17 -21 29 -32q6 -6 9 -8q2 0 2 -1q9 9 17 22q17 28 24 59t11 59q4 46 11 62q4 9 8.5 12.5t11.5 4.5q7 2 13 -0.5t12 -10.5zM8 -229q5 2 9.5 4.5t9.5 4.5q-2 5 -4 8t-4 7q-6 11 -12.5 20t-12.5 16q-13 13 -30 19 q-15 6 -36 3.5t-35 -11.5q-13 -9 -18 -20q-3 -5 -3.5 -14t1.5 -14q3 -13 17 -23q15 -10 35 -13q20 -4 42 -1q9 2 19.5 5.5t21.5 8.5z" />
<glyph unicode="&#xb1;" horiz-adv-x="1224" d="M1044 260q-10 -35 -16 -66.5t-6 -60.5q-1 -56 21 -99l19.5 -37t2.5 -19v-1q-4 -4 -19 3q-8 5 -18 13.5t-21 24.5q-15 23 -25 53.5t-12 64.5q-3 35 0.5 70.5t10.5 72.5q6 38 13.5 76t12.5 77q3 20 4.5 39t0.5 39q-1 10 -1.5 19.5t-2.5 18.5q-1 5 -1.5 9.5t-1.5 9.5l-1 4 l-1 3v-1v2q-1 2 -3 8q-7 17 -16 34.5t-20 29.5q-3 5 -7 7.5t-6 4.5l-2 -2q-5 -3 -11.5 -8.5t-13.5 -13.5l-14 -16t-14 -17q-14 -17 -27.5 -37l-27.5 -40l-51.5 -83.5l-51.5 -87.5l-51 -89.5l-54 -92.5q-6 -12 -15 -24q-4 -6 -10 -14l-5 -6.5t-4 -5.5l-19 -22.5t-21 -22.5 t-23.5 -21.5t-29.5 -21.5q-16 -10 -36 -18.5t-49 -10.5q-14 0 -29 2.5t-29 8.5q-25 11 -45 31q-17 18 -26.5 35.5t-17.5 36.5q-2 6 -3 11q0 -3 0 9t0.5 24.5t0.5 19t0 -7.5v1l1 1l1 4q1 4 5 14q2 7 5 13.5t5 13.5q5 13 11 25.5l12 24.5q23 50 47.5 92.5t41.5 82.5l40 87 t34 80q3 8 5.5 16t4.5 16q-17 -9 -35 -16q-40 -18 -80 -27q-41 -9 -81 -9q-39 0 -74 8.5t-64 23.5q-24 13 -40 26t-27 25t-17.5 22.5t-9.5 18.5q-6 17 -3.5 25.5t9.5 13.5v1q7 5 16 6t23 -4t34.5 -16t54.5 -20q20 -5 43 -7t49 2q25 3 53 12q14 5 28 11t28 14q8 4 15 8.5 t14 8.5q5 3 12.5 8.5t16.5 11.5l18 11.5t24 14.5q7 3 15 7t21 7q15 3 34 2q11 -1 24.5 -5.5t24.5 -13.5q11 -8 17.5 -18t10.5 -18t5.5 -15t3.5 -12q2 -12 2.5 -21t0.5 -17q0 -16 -1.5 -29t-3.5 -26q-5 -26 -11.5 -50.5t-14.5 -48.5q-9 -25 -18 -47.5t-20 -45.5l-10 -22 l-10 -22l-9 -21q-3 -5 -5.5 -10.5l-5.5 -12.5q-23 -49 -48 -92.5t-45 -85.5l-10 -21l-10 -21v-1q0 1 1 1l14.5 10.5t15.5 13.5q8 7 15 15l15 17q6 6 7 8q2 2 6 8q3 5 6.5 9.5t6.5 9.5l55.5 86l56.5 89l57.5 87t60.5 85l32 41.5t34 40.5q18 19 39 39l23.5 18.5t30.5 17.5 q9 4 21 7.5t27 2.5q23 -3 43 -13q19 -11 30.5 -23t20.5 -24q17 -26 27 -50t17 -50q12 -54 7.5 -101.5t-13.5 -90.5q-10 -42 -21 -80t-20 -73z" />
<glyph unicode="&#xe11;" horiz-adv-x="1224" d="M1044 260q-10 -35 -16 -66.5t-6 -60.5q-1 -56 21 -99l19.5 -37t2.5 -19v-1q-4 -4 -19 3q-8 5 -18 13.5t-21 24.5q-15 23 -25 53.5t-12 64.5q-3 35 0.5 70.5t10.5 72.5q6 38 13.5 76t12.5 77q3 20 4.5 39t0.5 39q-1 10 -1.5 19.5t-2.5 18.5q-1 5 -1.5 9.5t-1.5 9.5l-1 4 l-1 3v-1v2q-1 2 -3 8q-7 17 -16 34.5t-20 29.5q-3 5 -7 7.5t-6 4.5l-2 -2q-5 -3 -11.5 -8.5t-13.5 -13.5l-14 -16t-14 -17q-14 -17 -27.5 -37l-27.5 -40l-51.5 -83.5l-51.5 -87.5l-51 -89.5l-54 -92.5q-6 -12 -15 -24q-4 -6 -10 -14l-5 -6.5t-4 -5.5l-19 -22.5t-21 -22.5 t-23.5 -21.5t-29.5 -21.5q-16 -10 -36 -18.5t-49 -10.5q-14 0 -29 2.5t-29 8.5q-25 11 -45 31q-17 18 -26.5 35.5t-17.5 36.5q-2 6 -3 11q0 -3 0 9t0.5 24.5t0.5 19t0 -7.5v1l1 1l1 4q1 4 5 14q2 7 5 13.5t5 13.5q5 13 11 25.5l12 24.5q23 50 47.5 92.5t41.5 82.5l40 87 t34 80q3 8 5.5 16t4.5 16q-17 -9 -35 -16q-40 -18 -80 -27q-41 -9 -81 -9q-39 0 -74 8.5t-64 23.5q-24 13 -40 26t-27 25t-17.5 22.5t-9.5 18.5q-6 17 -3.5 25.5t9.5 13.5v1q7 5 16 6t23 -4t34.5 -16t54.5 -20q20 -5 43 -7t49 2q25 3 53 12q14 5 28 11t28 14q8 4 15 8.5 t14 8.5q5 3 12.5 8.5t16.5 11.5l18 11.5t24 14.5q7 3 15 7t21 7q15 3 34 2q11 -1 24.5 -5.5t24.5 -13.5q11 -8 17.5 -18t10.5 -18t5.5 -15t3.5 -12q2 -12 2.5 -21t0.5 -17q0 -16 -1.5 -29t-3.5 -26q-5 -26 -11.5 -50.5t-14.5 -48.5q-9 -25 -18 -47.5t-20 -45.5l-10 -22 l-10 -22l-9 -21q-3 -5 -5.5 -10.5l-5.5 -12.5q-23 -49 -48 -92.5t-45 -85.5l-10 -21l-10 -21v-1q0 1 1 1l14.5 10.5t15.5 13.5q8 7 15 15l15 17q6 6 7 8q2 2 6 8q3 5 6.5 9.5t6.5 9.5l55.5 86l56.5 89l57.5 87t60.5 85l32 41.5t34 40.5q18 19 39 39l23.5 18.5t30.5 17.5 q9 4 21 7.5t27 2.5q23 -3 43 -13q19 -11 30.5 -23t20.5 -24q17 -26 27 -50t17 -50q12 -54 7.5 -101.5t-13.5 -90.5q-10 -42 -21 -80t-20 -73z" />
<glyph unicode="&#xb2;" horiz-adv-x="1691" d="M1665 663q8 -9 -42 -84q-40 -58 -84 -133.5l-97 -165.5l-26.5 -45l-27.5 -47q-8 -12 -15 -24l-15 -25l-16.5 -24t-15.5 -24l-17.5 -25t-20.5 -26q-6 -7 -12.5 -13.5t-14.5 -13.5q-9 -6 -20.5 -12.5t-30.5 -8.5q-9 -1 -19 0q-5 1 -9.5 2.5t-8.5 2.5q-15 8 -26 18 q-11 11 -17 22t-10 21q-8 20 -11 37.5t-5 33.5l-6 33.5t-7 33.5q-2 -3 -4.5 -6t-5.5 -6q-13 -17 -26.5 -32.5t-34.5 -32.5q-19 -16 -46 -28.5t-59 -13.5q-32 -2 -60.5 9t-48.5 28q-21 17 -36.5 35.5t-26.5 39.5t-19 43.5t-10 49.5q-2 14 -0.5 29.5t8.5 32.5q4 11 9 20.5 t10 20.5q23 40 59 70q18 15 39 25.5t43 17.5q21 7 43 9q24 3 49 0q29 -3 56 -17q-4 25 -16 43q-23 37 -68 47q-22 5 -48.5 3.5t-50.5 -9.5l-31 -11.5t-41 -12.5q-12 -3 -27.5 -5t-35.5 0q-11 2 -21.5 5t-21.5 8t-19.5 12t-15.5 14q-14 16 -21 30t-12 27q-3 7 -3 9 q-1 2 -1.5 3.5t-1.5 3.5q-4 10 -5 14q-2 4 -3.5 7.5t-3.5 6.5l-17.5 -10t-19.5 -12q-47 -32 -90 -75q-22 -20 -43 -42l-41 -44t-37 -43t-33 -44q-31 -44 -53 -88.5t-29 -82.5q-6 -36 4 -62q6 -14 15 -24t19 -17q18 -11 36 -8q8 2 17 8t17 17q14 17 20 34t9 33t4 28.5t2 22.5 q2 20 7.5 28.5t13.5 11.5t18 -1.5t21 -25.5q6 -11 11.5 -27t7.5 -39t-1.5 -54.5t-23.5 -68.5q-12 -21 -32.5 -42t-51.5 -34q-15 -6 -32 -9.5t-35 -1.5q-34 1 -67 17q-32 16 -54 39q-12 12 -22.5 26t-18.5 31q-17 32 -21.5 68.5t-0.5 69.5q4 34 13.5 65t22.5 60 q14 30 29.5 57.5t32.5 54.5q36 54 80 104l43.5 48.5t47.5 48.5t52 47t59 45l16 10t17 10q8 5 19 10.5t24 10.5q12 4 27.5 7.5t35.5 2.5t41.5 -9.5t35.5 -21.5q15 -12 24 -24.5t15 -23.5t10.5 -21.5l8.5 -19.5q2 -5 3.5 -9.5t3.5 -9.5q0 -1 0.5 -2t0.5 -2q11 3 26.5 8.5 t34.5 11.5q23 7 45 10t45 5q23 0 46.5 -2t47.5 -9q48 -14 90 -44q41 -32 66 -79q25 -45 31.5 -91.5t2.5 -91.5q-3 -24 -8 -46.5t-12 -45.5q5 -15 9 -30.5t8 -29.5q4 -17 7 -34l6 -34l4 -33.5t4 -31.5q3 -34 9 -50q2 -4 2 -5q2 1 5 4q4 3 8 7l9 9q9 10 17.5 21l17.5 22 q5 6 9 11.5t9 11.5l8 11.5l8 11.5q18 22 32 44l30 44.5l30 43.5l108.5 158.5t96.5 128.5q26 32 44.5 45.5t23.5 9.5h1zM954 246q5 6 9.5 12t9.5 12l16 26.5t14 27.5q5 9 9 19t7 20q-13 13 -25 21q-16 9 -36 11q-5 0 -10 -0.5t-11 -1.5q-6 -2 -12 -3.5t-11 -3.5 q-21 -8 -39 -25q-18 -18 -28 -40l-6 -12q-1 -3 -2 -6.5t0 -1.5v-3q0 -2 -0.5 -4t0.5 -4q3 -19 17.5 -41.5t30.5 -31.5q8 -5 13.5 -6t9.5 0q5 1 11.5 4t14.5 11q6 6 8 9l5 5t5 6z" />
<glyph unicode="&#xe12;" horiz-adv-x="1691" d="M1665 663q8 -9 -42 -84q-40 -58 -84 -133.5l-97 -165.5l-26.5 -45l-27.5 -47q-8 -12 -15 -24l-15 -25l-16.5 -24t-15.5 -24l-17.5 -25t-20.5 -26q-6 -7 -12.5 -13.5t-14.5 -13.5q-9 -6 -20.5 -12.5t-30.5 -8.5q-9 -1 -19 0q-5 1 -9.5 2.5t-8.5 2.5q-15 8 -26 18 q-11 11 -17 22t-10 21q-8 20 -11 37.5t-5 33.5l-6 33.5t-7 33.5q-2 -3 -4.5 -6t-5.5 -6q-13 -17 -26.5 -32.5t-34.5 -32.5q-19 -16 -46 -28.5t-59 -13.5q-32 -2 -60.5 9t-48.5 28q-21 17 -36.5 35.5t-26.5 39.5t-19 43.5t-10 49.5q-2 14 -0.5 29.5t8.5 32.5q4 11 9 20.5 t10 20.5q23 40 59 70q18 15 39 25.5t43 17.5q21 7 43 9q24 3 49 0q29 -3 56 -17q-4 25 -16 43q-23 37 -68 47q-22 5 -48.5 3.5t-50.5 -9.5l-31 -11.5t-41 -12.5q-12 -3 -27.5 -5t-35.5 0q-11 2 -21.5 5t-21.5 8t-19.5 12t-15.5 14q-14 16 -21 30t-12 27q-3 7 -3 9 q-1 2 -1.5 3.5t-1.5 3.5q-4 10 -5 14q-2 4 -3.5 7.5t-3.5 6.5l-17.5 -10t-19.5 -12q-47 -32 -90 -75q-22 -20 -43 -42l-41 -44t-37 -43t-33 -44q-31 -44 -53 -88.5t-29 -82.5q-6 -36 4 -62q6 -14 15 -24t19 -17q18 -11 36 -8q8 2 17 8t17 17q14 17 20 34t9 33t4 28.5t2 22.5 q2 20 7.5 28.5t13.5 11.5t18 -1.5t21 -25.5q6 -11 11.5 -27t7.5 -39t-1.5 -54.5t-23.5 -68.5q-12 -21 -32.5 -42t-51.5 -34q-15 -6 -32 -9.5t-35 -1.5q-34 1 -67 17q-32 16 -54 39q-12 12 -22.5 26t-18.5 31q-17 32 -21.5 68.5t-0.5 69.5q4 34 13.5 65t22.5 60 q14 30 29.5 57.5t32.5 54.5q36 54 80 104l43.5 48.5t47.5 48.5t52 47t59 45l16 10t17 10q8 5 19 10.5t24 10.5q12 4 27.5 7.5t35.5 2.5t41.5 -9.5t35.5 -21.5q15 -12 24 -24.5t15 -23.5t10.5 -21.5l8.5 -19.5q2 -5 3.5 -9.5t3.5 -9.5q0 -1 0.5 -2t0.5 -2q11 3 26.5 8.5 t34.5 11.5q23 7 45 10t45 5q23 0 46.5 -2t47.5 -9q48 -14 90 -44q41 -32 66 -79q25 -45 31.5 -91.5t2.5 -91.5q-3 -24 -8 -46.5t-12 -45.5q5 -15 9 -30.5t8 -29.5q4 -17 7 -34l6 -34l4 -33.5t4 -31.5q3 -34 9 -50q2 -4 2 -5q2 1 5 4q4 3 8 7l9 9q9 10 17.5 21l17.5 22 q5 6 9 11.5t9 11.5l8 11.5l8 11.5q18 22 32 44l30 44.5l30 43.5l108.5 158.5t96.5 128.5q26 32 44.5 45.5t23.5 9.5h1zM954 246q5 6 9.5 12t9.5 12l16 26.5t14 27.5q5 9 9 19t7 20q-13 13 -25 21q-16 9 -36 11q-5 0 -10 -0.5t-11 -1.5q-6 -2 -12 -3.5t-11 -3.5 q-21 -8 -39 -25q-18 -18 -28 -40l-6 -12q-1 -3 -2 -6.5t0 -1.5v-3q0 -2 -0.5 -4t0.5 -4q3 -19 17.5 -41.5t30.5 -31.5q8 -5 13.5 -6t9.5 0q5 1 11.5 4t14.5 11q6 6 8 9l5 5t5 6z" />
<glyph unicode="&#xb3;" horiz-adv-x="1291" d="M1260 166q4 -12 3.5 -22t-2.5 -18q-4 -16 -9.5 -25.5t-11.5 -17.5q-5 -8 -11 -14.5t-11 -13.5q-5 -6 -11 -11.5l-11 -10.5q-3 -2 -6 -5t-6 -5l-5 -5l-2 -1v-1q2 2 -1 -0.5t-3 -1.5l-3 -3q-24 -18 -51 -33q-14 -8 -30.5 -14.5t-36.5 -10.5q-10 -2 -21.5 -1.5t-23.5 3.5 q-13 3 -24.5 10t-19.5 15q-17 18 -23.5 35.5t-9.5 32.5q-2 8 -3 15t-2 15q-22 -5 -44 -11l-44 -12l-58 -16l-59 -16q-15 -4 -30 -7.5l-32 -7.5q-5 -1 -9.5 -1.5t-9.5 -1.5q-3 -1 -5.5 -1.5t-7.5 -0.5h-14q-5 0 -17 3q-6 2 -9 3.5t-12 7.5q-17 13 -17 17q-3 5 -6.5 9.5 t-7.5 11.5t-7.5 17t-4.5 25q-2 14 1 28t8 23l8 14l6 10l9.5 13l7.5 11q8 11 14.5 22.5l13.5 23.5q13 24 24 49t21 51q19 51 30 103.5t9 100.5q-1 23 -5.5 43.5t-12.5 36.5t-19 26t-27 18q-6 4 -16 7l-4 2q2 -2 -2 -0.5t-3 1.5h-1l-1 1q-3 0 -4 1q-8 1 -24 -2 q-14 -4 -32.5 -13t-35.5 -22q-36 -26 -69 -60.5t-62 -69.5q-59 -73 -98 -143q-8 -13 -15 -30.5t-13 -34.5l-10 -35t-9 -34t-6.5 -33t-4.5 -30q-2 -26 0 -39l1 1q11 3 21.5 7.5t18.5 7.5q17 5 26 4t15 -7q7 -6 8 -16t-8 -27q-5 -9 -13.5 -19.5t-24.5 -23.5l-20.5 -13.5 t-33.5 -10.5q-11 -1 -25 1.5t-27 10.5q-14 9 -22 19.5t-13 20.5q-11 25 -14 45.5t-5 41.5q-1 20 0.5 40t3.5 41q4 41 15 85q5 23 12 45.5t20 49.5l2 3l1 2v1q0 -1 -1 -2.5t0 -0.5l2 6q2 3 3 5.5t3 5.5l6 11.5l6 10.5l12 21.5t13 21.5q13 21 27.5 42t30.5 42q32 42 69 83.5 t88 79.5q26 18 56 34.5t69 26.5q20 5 42.5 6t45.5 -4q10 -1 23 -6l3 -1l3 -1l9 -3q9 -3 17.5 -6.5t17.5 -8.5q36 -18 66 -48.5t47 -67.5q18 -37 24.5 -74t7.5 -72q0 -71 -16 -135.5t-40 -125.5t-58 -119l-2 -2l44.5 10l44.5 10q31 7 61 13l61 12v3q8 51 19 96t23 87 q25 84 51 153t52 123q15 31 30 45t21 10q5 -5 0.5 -22.5t-17.5 -52.5q-20 -55 -39 -124.5t-36 -153.5q-7 -35 -13 -73t-10 -78q9 2 18.5 3l18.5 2q32 5 63 6q17 0 34 -0.5t37 -4.5q11 -2 23 -6t28 -17q8 -6 15 -16t10 -23zM1107 94q14 12 22 23q-3 -1 -6.5 -1t-7.5 -1 q-13 -1 -26 -3l-27 -4q-13 -2 -25.5 -4.5t-25.5 -5.5q2 -9 3.5 -17t3.5 -16q3 -8 6.5 -13.5t4.5 -4.5v1h3.5t5.5 1q7 2 16 6.5t18 11.5q5 3 9.5 6t9.5 7q2 2 4.5 4t5.5 4l4 4l1 1z" />
<glyph unicode="&#xe13;" horiz-adv-x="1291" d="M1260 166q4 -12 3.5 -22t-2.5 -18q-4 -16 -9.5 -25.5t-11.5 -17.5q-5 -8 -11 -14.5t-11 -13.5q-5 -6 -11 -11.5l-11 -10.5q-3 -2 -6 -5t-6 -5l-5 -5l-2 -1v-1q2 2 -1 -0.5t-3 -1.5l-3 -3q-24 -18 -51 -33q-14 -8 -30.5 -14.5t-36.5 -10.5q-10 -2 -21.5 -1.5t-23.5 3.5 q-13 3 -24.5 10t-19.5 15q-17 18 -23.5 35.5t-9.5 32.5q-2 8 -3 15t-2 15q-22 -5 -44 -11l-44 -12l-58 -16l-59 -16q-15 -4 -30 -7.5l-32 -7.5q-5 -1 -9.5 -1.5t-9.5 -1.5q-3 -1 -5.5 -1.5t-7.5 -0.5h-14q-5 0 -17 3q-6 2 -9 3.5t-12 7.5q-17 13 -17 17q-3 5 -6.5 9.5 t-7.5 11.5t-7.5 17t-4.5 25q-2 14 1 28t8 23l8 14l6 10l9.5 13l7.5 11q8 11 14.5 22.5l13.5 23.5q13 24 24 49t21 51q19 51 30 103.5t9 100.5q-1 23 -5.5 43.5t-12.5 36.5t-19 26t-27 18q-6 4 -16 7l-4 2q2 -2 -2 -0.5t-3 1.5h-1l-1 1q-3 0 -4 1q-8 1 -24 -2 q-14 -4 -32.5 -13t-35.5 -22q-36 -26 -69 -60.5t-62 -69.5q-59 -73 -98 -143q-8 -13 -15 -30.5t-13 -34.5l-10 -35t-9 -34t-6.5 -33t-4.5 -30q-2 -26 0 -39l1 1q11 3 21.5 7.5t18.5 7.5q17 5 26 4t15 -7q7 -6 8 -16t-8 -27q-5 -9 -13.5 -19.5t-24.5 -23.5l-20.5 -13.5 t-33.5 -10.5q-11 -1 -25 1.5t-27 10.5q-14 9 -22 19.5t-13 20.5q-11 25 -14 45.5t-5 41.5q-1 20 0.5 40t3.5 41q4 41 15 85q5 23 12 45.5t20 49.5l2 3l1 2v1q0 -1 -1 -2.5t0 -0.5l2 6q2 3 3 5.5t3 5.5l6 11.5l6 10.5l12 21.5t13 21.5q13 21 27.5 42t30.5 42q32 42 69 83.5 t88 79.5q26 18 56 34.5t69 26.5q20 5 42.5 6t45.5 -4q10 -1 23 -6l3 -1l3 -1l9 -3q9 -3 17.5 -6.5t17.5 -8.5q36 -18 66 -48.5t47 -67.5q18 -37 24.5 -74t7.5 -72q0 -71 -16 -135.5t-40 -125.5t-58 -119l-2 -2l44.5 10l44.5 10q31 7 61 13l61 12v3q8 51 19 96t23 87 q25 84 51 153t52 123q15 31 30 45t21 10q5 -5 0.5 -22.5t-17.5 -52.5q-20 -55 -39 -124.5t-36 -153.5q-7 -35 -13 -73t-10 -78q9 2 18.5 3l18.5 2q32 5 63 6q17 0 34 -0.5t37 -4.5q11 -2 23 -6t28 -17q8 -6 15 -16t10 -23zM1107 94q14 12 22 23q-3 -1 -6.5 -1t-7.5 -1 q-13 -1 -26 -3l-27 -4q-13 -2 -25.5 -4.5t-25.5 -5.5q2 -9 3.5 -17t3.5 -16q3 -8 6.5 -13.5t4.5 -4.5v1h3.5t5.5 1q7 2 16 6.5t18 11.5q5 3 9.5 6t9.5 7q2 2 4.5 4t5.5 4l4 4l1 1z" />
<glyph unicode="&#xb4;" horiz-adv-x="1030" d="M910 531q7 -45 5 -86.5t-10 -79.5q-7 -38 -17.5 -72t-21.5 -66q-23 -62 -46.5 -112l-42.5 -90q-11 -23 -21 -34.5t-15 -8.5q-14 5 2 60l29.5 95.5t32.5 113.5q8 31 14 63t8 66q3 34 1 68.5t-11 67.5q-19 68 -67 118l-4 4l-1 1l-1 1l1 -1q-3 2 -7 6q-7 6 -14 11t-14 9.5 l-15 9.5q-30 16 -66 24q-35 8 -72 6t-73 -12.5t-70.5 -28.5t-62.5 -43q-3 -3 -6.5 -6t-6.5 -6l-7 -7l-1 -1q-11 -14 -18 -30q-9 -16 -16 -33.5t-13 -36.5q-11 -38 -16.5 -76.5t-4.5 -76.5t7.5 -72.5t20.5 -59.5q13 -24 31 -39q17 -11 40 -16q6 -1 12.5 -1.5t13.5 0.5h1h2h6 q2 1 5 1.5t5 1.5q23 6 44 21q22 16 40 37t32 44q28 46 36 91q9 42 1 75q-6 26 -16 41t-16 26q-11 20 -4 35v1q4 8 11 13.5t24 3.5q8 -2 19 -5.5t25 -12.5q13 -9 27.5 -23.5t26.5 -37.5q15 -28 22 -61t5 -68q-3 -71 -38 -144q-17 -36 -42.5 -70.5t-63.5 -64.5 q-19 -14 -41.5 -27t-49.5 -21q-14 -4 -27 -6.5t-30 -3.5q-26 -2 -54 3q-29 4 -57 15t-53 30t-43.5 42t-31.5 49q-26 51 -35 102.5t-9 102.5q2 104 34 200q9 25 20 49t25 48q8 11 15.5 23t17.5 23l1 1q8 8 5.5 6t-0.5 0h1l2 3q2 1 3 2t3 2q5 6 10 9q9 9 20 17q43 33 91.5 55 t99.5 33q52 11 104.5 10t103.5 -17q51 -15 94 -44q22 -15 40 -31l18 -18l4 -4l1 -1l2 -2l1 -1l2 -2q2 -2 3.5 -4.5t3.5 -4.5q31 -38 50 -82t27 -89z" />
<glyph unicode="&#xe14;" horiz-adv-x="1030" d="M910 531q7 -45 5 -86.5t-10 -79.5q-7 -38 -17.5 -72t-21.5 -66q-23 -62 -46.5 -112l-42.5 -90q-11 -23 -21 -34.5t-15 -8.5q-14 5 2 60l29.5 95.5t32.5 113.5q8 31 14 63t8 66q3 34 1 68.5t-11 67.5q-19 68 -67 118l-4 4l-1 1l-1 1l1 -1q-3 2 -7 6q-7 6 -14 11t-14 9.5 l-15 9.5q-30 16 -66 24q-35 8 -72 6t-73 -12.5t-70.5 -28.5t-62.5 -43q-3 -3 -6.5 -6t-6.5 -6l-7 -7l-1 -1q-11 -14 -18 -30q-9 -16 -16 -33.5t-13 -36.5q-11 -38 -16.5 -76.5t-4.5 -76.5t7.5 -72.5t20.5 -59.5q13 -24 31 -39q17 -11 40 -16q6 -1 12.5 -1.5t13.5 0.5h1h2h6 q2 1 5 1.5t5 1.5q23 6 44 21q22 16 40 37t32 44q28 46 36 91q9 42 1 75q-6 26 -16 41t-16 26q-11 20 -4 35v1q4 8 11 13.5t24 3.5q8 -2 19 -5.5t25 -12.5q13 -9 27.5 -23.5t26.5 -37.5q15 -28 22 -61t5 -68q-3 -71 -38 -144q-17 -36 -42.5 -70.5t-63.5 -64.5 q-19 -14 -41.5 -27t-49.5 -21q-14 -4 -27 -6.5t-30 -3.5q-26 -2 -54 3q-29 4 -57 15t-53 30t-43.5 42t-31.5 49q-26 51 -35 102.5t-9 102.5q2 104 34 200q9 25 20 49t25 48q8 11 15.5 23t17.5 23l1 1q8 8 5.5 6t-0.5 0h1l2 3q2 1 3 2t3 2q5 6 10 9q9 9 20 17q43 33 91.5 55 t99.5 33q52 11 104.5 10t103.5 -17q51 -15 94 -44q22 -15 40 -31l18 -18l4 -4l1 -1l2 -2l1 -1l2 -2q2 -2 3.5 -4.5t3.5 -4.5q31 -38 50 -82t27 -89z" />
</font>
</defs>
</svg>
