<?xml version="1.0" standalone="no"?>
<!DOCTYPE svg PUBLIC "-//W3C//DTD SVG 1.1//EN" "http://www.w3.org/Graphics/SVG/1.1/DTD/svg11.dtd" >
<svg xmlns="http://www.w3.org/2000/svg">
<metadata>
This is a custom SVG webfont generated by Font Squirrel.
Copyright   : Copyright c 2006 by ProfDr Srisakdi Charmonman wwwcharmaueduCollege of Internet Distance Education wwweLearningaueduSrisakdi Charmonman IT Center wwwscitaueduAssumption University of Thailand wwwaueduAll rights reserved
Designer    : ekaluck peanpanawate
Foundry     : Ekaluck Peanpanawate
Foundry URL : wwwb513designyahoocom
</metadata>
<defs>
<font id="THCharmonmanBold" horiz-adv-x="0" >
<font-face units-per-em="2048" ascent="1638" descent="-410" />
<missing-glyph horiz-adv-x="512" />
<glyph unicode="A&#x300;" horiz-adv-x="1658" d="M863 1630q0 6 12 18.5t27.5 24t29.5 20.5t17 9h12q8 0 12 -6l37 -71q18 -36 43 -78l56.5 -91t76.5 -110q0 -6 -8 -14.5t-19.5 -15.5t-20.5 -11t-11 0q-31 39 -68 81l-73 83l-68 83q-32 41 -55 78zM-10 -84q-12 51 11.5 91t72.5 95q418 500 671.5 775.5t331.5 336.5 q18 12 61.5 13.5t69.5 -2.5q25 -4 31 -8.5t-2 -14.5q-14 -20 -15 -50t1 -65q0 -23 3 -90t8 -157t10 -191.5t11.5 -192.5t12.5 -159t10 -90q16 -68 43 -83t49 -15q14 0 34.5 9t37.5 13q10 4 19 -7t15.5 -25.5t5.5 -28t-12 -17.5q-8 -2 -35.5 -12t-62.5 -21l-70 -20 q-36 -10 -63 -14q-20 0 -58 14t-53 43q2 16 3.5 59t2.5 92.5t1 94.5t-2 61q-8 29 -28 54.5t-73 41.5q-18 6 -81.5 6.5t-137.5 2.5t-143.5 8t-100.5 22l-145 -172q-63 -76 -110.5 -139t-81 -117.5t-58.5 -107.5q-12 -37 -13 -61.5t9 -71.5q-2 -10 -21.5 -25.5t-23.5 -11.5z M633 592q10 -25 60 -32t181 -7q88 0 143.5 -7t80.5 -14q31 -8 35 0.5t6 26.5q4 55 -4.5 135t-17.5 156t-17 133t-8 68q-2 4 -6.5 14t-22.5 -6l-33 -32l-65 -64l-85 -86l-93 -98q-46 -50 -85.5 -98t-68.5 -89z" />
<glyph unicode="A&#x301;" horiz-adv-x="1658" d="M1151 1354l175 178l167 178q4 6 9 6h7q4 0 18 -9l28 -20q15 -11 28.5 -22.5t15.5 -15.5q4 -14 -2 -21q-45 -41 -90 -77l-93 -72l-99 -79q-51 -42 -107 -93q-6 -6 -17 0t-20.5 15t-15.5 19.5t-4 12.5zM-10 -84q-12 51 11.5 91t72.5 95q418 500 671.5 775.5t331.5 336.5 q18 12 61.5 13.5t69.5 -2.5q25 -4 31 -8.5t-2 -14.5q-14 -20 -15 -50t1 -65q0 -23 3 -90t8 -157t10 -191.5t11.5 -192.5t12.5 -159t10 -90q16 -68 43 -83t49 -15q14 0 34.5 9t37.5 13q10 4 19 -7t15.5 -25.5t5.5 -28t-12 -17.5q-8 -2 -35.5 -12t-62.5 -21l-70 -20 q-36 -10 -63 -14q-20 0 -58 14t-53 43q2 16 3.5 59t2.5 92.5t1 94.5t-2 61q-8 29 -28 54.5t-73 41.5q-18 6 -81.5 6.5t-137.5 2.5t-143.5 8t-100.5 22l-145 -172q-63 -76 -110.5 -139t-81 -117.5t-58.5 -107.5q-12 -37 -13 -61.5t9 -71.5q-2 -10 -21.5 -25.5t-23.5 -11.5z M633 592q10 -25 60 -32t181 -7q88 0 143.5 -7t80.5 -14q31 -8 35 0.5t6 26.5q4 55 -4.5 135t-17.5 156t-17 133t-8 68q-2 4 -6.5 14t-22.5 -6l-33 -32l-65 -64l-85 -86l-93 -98q-46 -50 -85.5 -98t-68.5 -89z" />
<glyph unicode="A&#x303;" horiz-adv-x="1658" d="M865 1386q4 20 19 51t38.5 61t57.5 51.5t75 21.5q35 0 71 -18.5t69 -40.5l66 -40q32 -18 58 -18q35 0 54.5 21.5t9.5 56.5q-2 6 12 13t32.5 9t36 -2t19.5 -20q4 -37 -5 -71t-27.5 -60.5t-46 -43t-62.5 -16.5q-43 0 -82 16.5t-75 37t-69.5 37t-64.5 16.5q-23 0 -35 -6.5 t-19 -16.5t-12.5 -25.5t-13.5 -31.5q-6 -10 -24.5 -14.5t-38 -2t-32.5 11.5t-11 23zM-10 -84q-12 51 11.5 91t72.5 95q418 500 671.5 775.5t331.5 336.5q18 12 61.5 13.5t69.5 -2.5q25 -4 31 -8.5t-2 -14.5q-14 -20 -15 -50t1 -65q0 -23 3 -90t8 -157t10 -191.5t11.5 -192.5 t12.5 -159t10 -90q16 -68 43 -83t49 -15q14 0 34.5 9t37.5 13q10 4 19 -7t15.5 -25.5t5.5 -28t-12 -17.5q-8 -2 -35.5 -12t-62.5 -21l-70 -20q-36 -10 -63 -14q-20 0 -58 14t-53 43q2 16 3.5 59t2.5 92.5t1 94.5t-2 61q-8 29 -28 54.5t-73 41.5q-18 6 -81.5 6.5t-137.5 2.5 t-143.5 8t-100.5 22l-145 -172q-63 -76 -110.5 -139t-81 -117.5t-58.5 -107.5q-12 -37 -13 -61.5t9 -71.5q-2 -10 -21.5 -25.5t-23.5 -11.5zM633 592q10 -25 60 -32t181 -7q88 0 143.5 -7t80.5 -14q31 -8 35 0.5t6 26.5q4 55 -4.5 135t-17.5 156t-17 133t-8 68q-2 4 -6.5 14 t-22.5 -6l-33 -32l-65 -64l-85 -86l-93 -98q-46 -50 -85.5 -98t-68.5 -89z" />
<glyph unicode="E&#x300;" horiz-adv-x="1320" d="M204 1113q1 22 5 44.5t9 41t9 22.5q86 -6 181.5 -9.5t181.5 -3.5q20 0 64 1t102.5 3t126 5.5t134 5.5t127 3t103.5 1q14 0 19 -17l-9 -28l-13 -50q-7 -28 -13 -55.5t-8 -42.5l-11 2q-8 16 -16 29.5t-18 17.5q-90 12 -190.5 18.5t-201.5 6.5q-41 0 -57 -29 q-29 -49 -48 -88t-34.5 -79l-31.5 -85l-35 -104q-6 -25 24 -25q10 0 21.5 -1t28 -2t42.5 -1h68q127 0 219 7.5t186 29.5l9 -8q-2 -6 -10.5 -21.5t-15.5 -33.5l-13 -35q-6 -16 -6 -23q-2 -10 -23 -10q-72 0 -156 2t-170 2h-101q-40 0 -65.5 -1t-41 -2t-27.5 -1q-20 0 -27 -16 l-51 -155q-25 -71 -41 -157q-4 -18 -4 -34v-31q4 -76 58.5 -98.5t166.5 -22.5q72 0 170.5 11.5t197.5 34t186 55t134 75.5q8 6 15 -10q-6 -8 -12.5 -28.5t-11.5 -45t-8 -46t-5 -30.5q-16 -35 -70 -49q-66 -16 -142.5 -29.5t-156.5 -23.5t-159.5 -16.5t-149.5 -6.5 q-111 0 -188.5 7.5t-127 25t-73 46t-25.5 69.5q0 39 13 72l12 35l25 72l32 90l31 91q14 43 23.5 75t9.5 40q0 6 -8.5 9t-40.5 3q-10 0 -19 9q0 6 6 18t17.5 25.5t22.5 23.5t20 12q57 10 75 68l22 69l32 103q16 53 27.5 98t6.5 58q-4 10 -18 10q-84 0 -166 -6t-137 -23l-6 2 q-1 8 -2 21q1 6 1 13zM685 1648q0 6 12 18.5t27.5 24t29.5 20.5t17 9h12q8 0 12 -6l37 -71q18 -36 43 -78l56.5 -91t76.5 -110q0 -6 -8 -14.5t-19.5 -15.5t-20.5 -11t-11 0q-31 39 -68 81l-73 83l-68 83q-32 41 -55 78z" />
<glyph unicode="E&#x301;" horiz-adv-x="1320" d="M204 1113q1 22 5 44.5t9 41t9 22.5q86 -6 181.5 -9.5t181.5 -3.5q20 0 64 1t102.5 3t126 5.5t134 5.5t127 3t103.5 1q14 0 19 -17l-9 -28l-13 -50q-7 -28 -13 -55.5t-8 -42.5l-11 2q-8 16 -16 29.5t-18 17.5q-90 12 -190.5 18.5t-201.5 6.5q-41 0 -57 -29 q-29 -49 -48 -88t-34.5 -79l-31.5 -85l-35 -104q-6 -25 24 -25q10 0 21.5 -1t28 -2t42.5 -1h68q127 0 219 7.5t186 29.5l9 -8q-2 -6 -10.5 -21.5t-15.5 -33.5l-13 -35q-6 -16 -6 -23q-2 -10 -23 -10q-72 0 -156 2t-170 2h-101q-40 0 -65.5 -1t-41 -2t-27.5 -1q-20 0 -27 -16 l-51 -155q-25 -71 -41 -157q-4 -18 -4 -34v-31q4 -76 58.5 -98.5t166.5 -22.5q72 0 170.5 11.5t197.5 34t186 55t134 75.5q8 6 15 -10q-6 -8 -12.5 -28.5t-11.5 -45t-8 -46t-5 -30.5q-16 -35 -70 -49q-66 -16 -142.5 -29.5t-156.5 -23.5t-159.5 -16.5t-149.5 -6.5 q-111 0 -188.5 7.5t-127 25t-73 46t-25.5 69.5q0 39 13 72l12 35l25 72l32 90l31 91q14 43 23.5 75t9.5 40q0 6 -8.5 9t-40.5 3q-10 0 -19 9q0 6 6 18t17.5 25.5t22.5 23.5t20 12q57 10 75 68l22 69l32 103q16 53 27.5 98t6.5 58q-4 10 -18 10q-84 0 -166 -6t-137 -23l-6 2 q-1 8 -2 21q1 6 1 13zM834 1401l175 178l167 178q4 6 9 6h7q4 0 18 -9l28 -20q15 -11 28.5 -22.5t15.5 -15.5q4 -14 -2 -21q-45 -41 -90 -77l-93 -72l-99 -79q-51 -42 -107 -93q-6 -6 -17 0t-20.5 15t-15.5 19.5t-4 12.5z" />
<glyph unicode="I&#x300;" horiz-adv-x="749" d="M90 14q47 4 72 41q25 43 61 118l79 165q42 90 84 191l78 196q36 94 61.5 177t31.5 138q2 10 1 17.5t-3 15.5q-4 16 -27.5 22.5t-60.5 6.5q-35 0 -76 -3t-76 -9l-10 2q0 4 4 20l8.5 34.5l8.5 34t6 19.5q57 4 122 7l126 6q61 3 114.5 8.5t87.5 11.5q12 -4 16.5 -27.5 t6.5 -31.5q4 -6 -12 -11q-18 -6 -29.5 -15t-20.5 -34q-41 -104 -87 -234l-94 -270l-99 -278q-51 -139 -103 -262q-18 -33 -49.5 -50.5t-66.5 -23.5q-30 -5 -61 -5h-11q-37 1 -68 3q-2 2 -6 8zM420 1624q0 6 12 18.5t27.5 24t29.5 20.5t17 9h12q8 0 12 -6l37 -71 q18 -36 43 -78l56.5 -91t76.5 -110q0 -6 -8 -14.5t-19.5 -15.5t-20.5 -11t-11 0q-31 39 -68 81l-73 83l-68 83q-32 41 -55 78z" />
<glyph unicode="I&#x301;" horiz-adv-x="749" d="M90 14q47 4 72 41q25 43 61 118l79 165q42 90 84 191l78 196q36 94 61.5 177t31.5 138q2 10 1 17.5t-3 15.5q-4 16 -27.5 22.5t-60.5 6.5q-35 0 -76 -3t-76 -9l-10 2q0 4 4 20l8.5 34.5l8.5 34t6 19.5q57 4 122 7l126 6q61 3 114.5 8.5t87.5 11.5q12 -4 16.5 -27.5 t6.5 -31.5q4 -6 -12 -11q-18 -6 -29.5 -15t-20.5 -34q-41 -104 -87 -234l-94 -270l-99 -278q-51 -139 -103 -262q-18 -33 -49.5 -50.5t-66.5 -23.5q-30 -5 -61 -5h-11q-37 1 -68 3q-2 2 -6 8zM547 1370l175 178l167 178q4 6 9 6h7q4 0 18 -9l28 -20q15 -11 28.5 -22.5 t15.5 -15.5q4 -14 -2 -21q-45 -41 -90 -77l-93 -72l-99 -79q-51 -42 -107 -93q-6 -6 -17 0t-20.5 15t-15.5 19.5t-4 12.5z" />
<glyph unicode="O&#x300;" horiz-adv-x="1609" d="M240 457q-1 21 -1 41q0 150 40 276q45 143 134 246.5t220 160t299 56.5q115 0 220 -29.5t188 -91t135.5 -157t56.5 -228.5q1 -19 1 -38q0 -133 -38 -253q-43 -137 -129 -240.5t-213 -165t-291 -61.5q-123 0 -233.5 28t-195.5 86t-137 149.5t-56 220.5zM420 428 q4 -94 39 -157.5t92 -102.5t131 -56.5t154 -17.5q143 0 243.5 51.5t162 140.5t87.5 209q23 104 23 220v37q-6 184 -118 277t-292 93q-147 0 -249.5 -54t-164 -147.5t-87.5 -220.5q-22 -109 -22 -232q0 -20 1 -40zM777 1665q0 6 12 18.5t27.5 24t29.5 20.5t17 9h12q8 0 12 -6 l37 -71q18 -36 43 -78l56.5 -91t76.5 -110q0 -6 -8 -14.5t-19.5 -15.5t-20.5 -11t-11 0q-31 39 -68 81l-73 83l-68 83q-32 41 -55 78z" />
<glyph unicode="O&#x301;" horiz-adv-x="1609" d="M240 457q-1 21 -1 41q0 150 40 276q45 143 134 246.5t220 160t299 56.5q115 0 220 -29.5t188 -91t135.5 -157t56.5 -228.5q1 -19 1 -38q0 -133 -38 -253q-43 -137 -129 -240.5t-213 -165t-291 -61.5q-123 0 -233.5 28t-195.5 86t-137 149.5t-56 220.5zM420 428 q4 -94 39 -157.5t92 -102.5t131 -56.5t154 -17.5q143 0 243.5 51.5t162 140.5t87.5 209q23 104 23 220v37q-6 184 -118 277t-292 93q-147 0 -249.5 -54t-164 -147.5t-87.5 -220.5q-22 -109 -22 -232q0 -20 1 -40zM881 1385l175 178l167 178q4 6 9 6h7q4 0 18 -9l28 -20 q15 -11 28.5 -22.5t15.5 -15.5q4 -14 -2 -21q-45 -41 -90 -77l-93 -72l-99 -79q-51 -42 -107 -93q-6 -6 -17 0t-20.5 15t-15.5 19.5t-4 12.5z" />
<glyph unicode="O&#x303;" horiz-adv-x="1609" d="M240 457q-1 21 -1 41q0 150 40 276q45 143 134 246.5t220 160t299 56.5q115 0 220 -29.5t188 -91t135.5 -157t56.5 -228.5q1 -19 1 -38q0 -133 -38 -253q-43 -137 -129 -240.5t-213 -165t-291 -61.5q-123 0 -233.5 28t-195.5 86t-137 149.5t-56 220.5zM420 428 q4 -94 39 -157.5t92 -102.5t131 -56.5t154 -17.5q143 0 243.5 51.5t162 140.5t87.5 209q23 104 23 220v37q-6 184 -118 277t-292 93q-147 0 -249.5 -54t-164 -147.5t-87.5 -220.5q-22 -109 -22 -232q0 -20 1 -40zM699 1405q4 20 19 51t38.5 61t57.5 51.5t75 21.5 q35 0 71 -18.5t69 -40.5l66 -40q32 -18 58 -18q35 0 54.5 21.5t9.5 56.5q-2 6 12 13t32.5 9t36 -2t19.5 -20q4 -37 -5 -71t-27.5 -60.5t-46 -43t-62.5 -16.5q-43 0 -82 16.5t-75 37t-69.5 37t-64.5 16.5q-23 0 -35 -6.5t-19 -16.5t-12.5 -25.5t-13.5 -31.5 q-6 -10 -24.5 -14.5t-38 -2t-32.5 11.5t-11 23z" />
<glyph unicode="U&#x300;" horiz-adv-x="1767" d="M264 254q-2 86 35 191.5t86 211.5l96 206q47 99 64 171q6 18 2 33q-6 25 -47 25q-18 0 -44 -1t-65 -1q-18 0 -34.5 1t-32.5 1q-10 0 -17.5 17t-9.5 36.5t1 37t15 17.5q29 0 91.5 -4t134.5 -4q66 0 113.5 3t83.5 8t62.5 8t51.5 3q4 0 6 -12t4 -27.5t3 -30t1 -16.5 q6 -10 -8 -14q-23 -6 -56.5 -11t-49.5 -34l-54 -110l-63 -137l-65 -149q-32 -77 -57.5 -147.5t-39.5 -130t-14 -98.5q4 -109 63.5 -146.5t165.5 -37.5q102 0 198.5 45t181.5 118.5t152.5 168t110.5 194.5q25 59 48 125l46 129l42 121l34 98q10 31 25.5 50.5t48.5 35.5 q10 2 39.5 9l62.5 14.5t60.5 12.5t36.5 5q6 0 12 -13.5t9 -29.5t2 -29.5t-9 -13.5q-12 -2 -34.5 -9t-33.5 -24q-90 -141 -146 -291.5t-106 -310.5q-20 -63 -41 -148q-19 -77 -18 -151v-14q2 -57 29.5 -93t109.5 -36q35 0 72 12t67.5 25.5t51 26t22.5 12.5q8 0 17.5 -15.5 t15.5 -34.5q9 -26 9 -40q0 -11 -7 -15q-72 -37 -149.5 -63.5t-165.5 -26.5q-66 0 -115 16.5t-81 42t-48 58t-18 63.5q0 35 5 62.5t12 47t13 32t6 14.5q-4 2 -6 4t-6 2q-63 -96 -134 -159.5t-148.5 -101.5t-162.5 -53.5t-178 -15.5q-59 0 -120.5 16.5t-112.5 52.5t-84 89 t-37 127zM912 1661q0 6 12 18.5t27.5 24t29.5 20.5t17 9h12q8 0 12 -6l37 -71q18 -36 43 -78l56.5 -91t76.5 -110q0 -6 -8 -14.5t-19.5 -15.5t-20.5 -11t-11 0q-31 39 -68 81l-73 83l-68 83q-32 41 -55 78z" />
<glyph unicode="U&#x301;" horiz-adv-x="1767" d="M264 254q-2 86 35 191.5t86 211.5l96 206q47 99 64 171q6 18 2 33q-6 25 -47 25q-18 0 -44 -1t-65 -1q-18 0 -34.5 1t-32.5 1q-10 0 -17.5 17t-9.5 36.5t1 37t15 17.5q29 0 91.5 -4t134.5 -4q66 0 113.5 3t83.5 8t62.5 8t51.5 3q4 0 6 -12t4 -27.5t3 -30t1 -16.5 q6 -10 -8 -14q-23 -6 -56.5 -11t-49.5 -34l-54 -110l-63 -137l-65 -149q-32 -77 -57.5 -147.5t-39.5 -130t-14 -98.5q4 -109 63.5 -146.5t165.5 -37.5q102 0 198.5 45t181.5 118.5t152.5 168t110.5 194.5q25 59 48 125l46 129l42 121l34 98q10 31 25.5 50.5t48.5 35.5 q10 2 39.5 9l62.5 14.5t60.5 12.5t36.5 5q6 0 12 -13.5t9 -29.5t2 -29.5t-9 -13.5q-12 -2 -34.5 -9t-33.5 -24q-90 -141 -146 -291.5t-106 -310.5q-20 -63 -41 -148q-19 -77 -18 -151v-14q2 -57 29.5 -93t109.5 -36q35 0 72 12t67.5 25.5t51 26t22.5 12.5q8 0 17.5 -15.5 t15.5 -34.5q9 -26 9 -40q0 -11 -7 -15q-72 -37 -149.5 -63.5t-165.5 -26.5q-66 0 -115 16.5t-81 42t-48 58t-18 63.5q0 35 5 62.5t12 47t13 32t6 14.5q-4 2 -6 4t-6 2q-63 -96 -134 -159.5t-148.5 -101.5t-162.5 -53.5t-178 -15.5q-59 0 -120.5 16.5t-112.5 52.5t-84 89 t-37 127zM1004 1356l175 178l167 178q4 6 9 6h7q4 0 18 -9l28 -20q15 -11 28.5 -22.5t15.5 -15.5q4 -14 -2 -21q-45 -41 -90 -77l-93 -72l-99 -79q-51 -42 -107 -93q-6 -6 -17 0t-20.5 15t-15.5 19.5t-4 12.5z" />
<glyph unicode="Y&#x301;" horiz-adv-x="1171" d="M92 1160q98 60 227 61q98 0 177 -51.5t133.5 -131.5t84 -175t29.5 -183q0 -12 10.5 -18.5t14.5 2.5l158 209q88 114 189.5 213.5t215 166t234.5 66.5q16 0 48 -13.5t65.5 -31t61 -34.5t36.5 -28q0 -2 -3.5 -13t-9.5 -22l-11 -21q-5 -9 -7 -7q-6 2 -34 8t-60 6 q-84 0 -176.5 -36.5t-182.5 -98t-175 -140.5t-156.5 -162t-124 -163t-78.5 -145q-47 -121 -66.5 -225.5t-23.5 -169.5q-2 -10 -6.5 -18.5t-26.5 -4.5q-32 5 -60 5t-52 -5q-48 -10 -89 -45q-2 -1 -4 -1q-7 0 -17 11q-13 14 -7 25q37 43 77.5 118.5t75.5 164.5t57.5 182.5 t22.5 169.5q0 88 -22.5 168.5t-68.5 143t-113.5 99.5t-158.5 37q-80 0 -144 -32.5t-112 -100.5q-2 -6 -16 -2t-29.5 12t-27.5 21q-9 9 -9 17q0 42 51.5 91t102.5 81zM899 1379l175 178l167 178q4 6 9 6h7q4 0 18 -9l28 -20q15 -11 28.5 -22.5t15.5 -15.5q4 -14 -2 -21 q-45 -41 -90 -77l-93 -72l-99 -79q-51 -42 -107 -93q-6 -6 -17 0t-20.5 15t-15.5 19.5t-4 12.5z" />
<glyph unicode="a&#x300;" horiz-adv-x="876" d="M47 152v20q0 95 34 182q38 96 110.5 169t174 116t224.5 43q6 31 15 40t22 15l121 25l6 -2q-14 -16 -19.5 -35.5t-17.5 -44.5q12 0 31.5 -3t37 -8t31.5 -11.5t17 -14.5q0 -2 -5 -15l-9 -29q-5 -15 -10 -27.5t-7 -12.5q-8 6 -22.5 12.5t-31 11.5t-30.5 8t-25 3 q-39 -109 -62.5 -180.5t-37.5 -121.5t-18.5 -86t-4.5 -75q2 -23 17.5 -43t52.5 -20q41 0 101.5 28.5t126 78.5t129 121t108.5 153q4 6 8 6q2 0 12.5 -8.5t21.5 -18.5t20 -19l12 -12q-51 -88 -120 -164.5t-145.5 -133t-155.5 -88t-151 -31.5q-68 0 -113.5 33.5t-48.5 76.5 q0 14 2.5 46t14.5 65q-57 -98 -133 -154.5t-154 -56.5q-20 0 -42.5 15t-41 40t-32 53.5t-13.5 53.5zM199 193q2 -43 15 -74t32 -31q45 0 102.5 64.5t120.5 193.5l51 131l49 121l-2 4q-98 0 -169.5 -38t-115.5 -98t-65 -133q-19 -66 -19 -128q1 -6 1 -12zM394 1163 q0 6 12 18.5t27.5 24t29.5 20.5t17 9h12q8 0 12 -6l37 -71q18 -36 43 -78l56.5 -91t76.5 -110q0 -6 -8 -14.5t-19.5 -15.5t-20.5 -11t-11 0q-31 39 -68 81l-73 83l-68 83q-32 41 -55 78z" />
<glyph unicode="a&#x301;" horiz-adv-x="876" d="M47 152v20q0 95 34 182q38 96 110.5 169t174 116t224.5 43q6 31 15 40t22 15l121 25l6 -2q-14 -16 -19.5 -35.5t-17.5 -44.5q12 0 31.5 -3t37 -8t31.5 -11.5t17 -14.5q0 -2 -5 -15l-9 -29q-5 -15 -10 -27.5t-7 -12.5q-8 6 -22.5 12.5t-31 11.5t-30.5 8t-25 3 q-39 -109 -62.5 -180.5t-37.5 -121.5t-18.5 -86t-4.5 -75q2 -23 17.5 -43t52.5 -20q41 0 101.5 28.5t126 78.5t129 121t108.5 153q4 6 8 6q2 0 12.5 -8.5t21.5 -18.5t20 -19l12 -12q-51 -88 -120 -164.5t-145.5 -133t-155.5 -88t-151 -31.5q-68 0 -113.5 33.5t-48.5 76.5 q0 14 2.5 46t14.5 65q-57 -98 -133 -154.5t-154 -56.5q-20 0 -42.5 15t-41 40t-32 53.5t-13.5 53.5zM199 193q2 -43 15 -74t32 -31q45 0 102.5 64.5t120.5 193.5l51 131l49 121l-2 4q-98 0 -169.5 -38t-115.5 -98t-65 -133q-19 -66 -19 -128q1 -6 1 -12zM408 887l175 178 l167 178q4 6 9 6h7q4 0 18 -9l28 -20q15 -11 28.5 -22.5t15.5 -15.5q4 -14 -2 -21q-45 -41 -90 -77l-93 -72l-99 -79q-51 -42 -107 -93q-6 -6 -17 0t-20.5 15t-15.5 19.5t-4 12.5z" />
<glyph unicode="a&#x303;" horiz-adv-x="876" d="M47 152v20q0 95 34 182q38 96 110.5 169t174 116t224.5 43q6 31 15 40t22 15l121 25l6 -2q-14 -16 -19.5 -35.5t-17.5 -44.5q12 0 31.5 -3t37 -8t31.5 -11.5t17 -14.5q0 -2 -5 -15l-9 -29q-5 -15 -10 -27.5t-7 -12.5q-8 6 -22.5 12.5t-31 11.5t-30.5 8t-25 3 q-39 -109 -62.5 -180.5t-37.5 -121.5t-18.5 -86t-4.5 -75q2 -23 17.5 -43t52.5 -20q41 0 101.5 28.5t126 78.5t129 121t108.5 153q4 6 8 6q2 0 12.5 -8.5t21.5 -18.5t20 -19l12 -12q-51 -88 -120 -164.5t-145.5 -133t-155.5 -88t-151 -31.5q-68 0 -113.5 33.5t-48.5 76.5 q0 14 2.5 46t14.5 65q-57 -98 -133 -154.5t-154 -56.5q-20 0 -42.5 15t-41 40t-32 53.5t-13.5 53.5zM199 193q2 -43 15 -74t32 -31q45 0 102.5 64.5t120.5 193.5l51 131l49 121l-2 4q-98 0 -169.5 -38t-115.5 -98t-65 -133q-19 -66 -19 -128q1 -6 1 -12zM207 952q4 20 19 51 t38.5 61t57.5 51.5t75 21.5q35 0 71 -18.5t69 -40.5l66 -40q32 -18 58 -18q35 0 54.5 21.5t9.5 56.5q-2 6 12 13t32.5 9t36 -2t19.5 -20q4 -37 -5 -71t-27.5 -60.5t-46 -43t-62.5 -16.5q-43 0 -82 16.5t-75 37t-69.5 37t-64.5 16.5q-23 0 -35 -6.5t-19 -16.5t-12.5 -25.5 t-13.5 -31.5q-6 -10 -24.5 -14.5t-38 -2t-32.5 11.5t-11 23z" />
<glyph unicode="e&#x300;" horiz-adv-x="630" d="M108 176v12q0 78 25 160q27 88 75 161t116.5 120t148.5 47q47 0 86 -25q43 -27 43 -89q0 -39 -19 -79q-20 -43 -63 -76.5t-107.5 -55t-150.5 -21.5q-6 -23 -10 -61q-3 -25 -3 -49q0 -12 1 -23q4 -76 28.5 -94.5t65.5 -18.5q70 0 137.5 28.5t126.5 74.5t106.5 101.5 t73.5 106.5q4 4 14.5 -2t22.5 -15t22.5 -18.5t12.5 -13.5q-37 -66 -96.5 -131t-134 -118.5t-159.5 -86.5t-173 -33q-72 0 -128.5 53.5t-60.5 145.5zM280 418q20 -4 43 -4q31 0 62.5 11t57.5 29.5t41 42t15 48.5q0 20 -9 29.5t-40 9.5q-14 0 -38.5 -10.5t-50 -32t-47.5 -52 t-34 -71.5zM373 1163q0 6 12 18.5t27.5 24t29.5 20.5t17 9h12q8 0 12 -6l37 -71q18 -36 43 -78l56.5 -91t76.5 -110q0 -6 -8 -14.5t-19.5 -15.5t-20.5 -11t-11 0q-31 39 -68 81l-73 83l-68 83q-32 41 -55 78z" />
<glyph unicode="e&#x301;" horiz-adv-x="630" d="M108 176v12q0 78 25 160q27 88 75 161t116.5 120t148.5 47q47 0 86 -25q43 -27 43 -89q0 -39 -19 -79q-20 -43 -63 -76.5t-107.5 -55t-150.5 -21.5q-6 -23 -10 -61q-3 -25 -3 -49q0 -12 1 -23q4 -76 28.5 -94.5t65.5 -18.5q70 0 137.5 28.5t126.5 74.5t106.5 101.5 t73.5 106.5q4 4 14.5 -2t22.5 -15t22.5 -18.5t12.5 -13.5q-37 -66 -96.5 -131t-134 -118.5t-159.5 -86.5t-173 -33q-72 0 -128.5 53.5t-60.5 145.5zM280 418q20 -4 43 -4q31 0 62.5 11t57.5 29.5t41 42t15 48.5q0 20 -9 29.5t-40 9.5q-14 0 -38.5 -10.5t-50 -32t-47.5 -52 t-34 -71.5zM408 887l175 178l167 178q4 6 9 6h7q4 0 18 -9l28 -20q15 -11 28.5 -22.5t15.5 -15.5q4 -14 -2 -21q-45 -41 -90 -77l-93 -72l-99 -79q-51 -42 -107 -93q-6 -6 -17 0t-20.5 15t-15.5 19.5t-4 12.5z" />
<glyph unicode="i&#x300;" horiz-adv-x="573" d="M98 111q-2 45 17.5 118.5t45 149.5t53.5 142.5t44 99.5q6 12 25.5 22t41 18.5t41 12.5t25.5 4q16 0 19 -8q0 -6 -1 -18.5t-8 -18.5q-27 -53 -54.5 -118.5t-50 -131.5t-36.5 -123t-12 -94q2 -47 10 -61.5t43 -14.5q59 0 121.5 37t119 90t102.5 112.5t71 104.5q4 8 16 4 t25.5 -14t22.5 -22.5t5 -18.5q-39 -72 -95 -143.5t-123.5 -130t-144.5 -94t-159 -35.5q-25 0 -53.5 6t-53 20t-41 40t-16.5 65zM150 1163q0 6 12 18.5t27.5 24t29.5 20.5t17 9h12q8 0 12 -6l37 -71q18 -36 43 -78l56.5 -91t76.5 -110q0 -6 -8 -14.5t-19.5 -15.5t-20.5 -11 t-11 0q-31 39 -68 81l-73 83l-68 83q-32 41 -55 78z" />
<glyph unicode="i&#x301;" horiz-adv-x="573" d="M98 111q-2 45 17.5 118.5t45 149.5t53.5 142.5t44 99.5q6 12 25.5 22t41 18.5t41 12.5t25.5 4q16 0 19 -8q0 -6 -1 -18.5t-8 -18.5q-27 -53 -54.5 -118.5t-50 -131.5t-36.5 -123t-12 -94q2 -47 10 -61.5t43 -14.5q59 0 121.5 37t119 90t102.5 112.5t71 104.5q4 8 16 4 t25.5 -14t22.5 -22.5t5 -18.5q-39 -72 -95 -143.5t-123.5 -130t-144.5 -94t-159 -35.5q-25 0 -53.5 6t-53 20t-41 40t-16.5 65zM123 887l175 178l167 178q4 6 9 6h7q4 0 18 -9l28 -20q15 -11 28.5 -22.5t15.5 -15.5q4 -14 -2 -21q-45 -41 -90 -77l-93 -72l-99 -79 q-51 -42 -107 -93q-6 -6 -17 0t-20.5 15t-15.5 19.5t-4 12.5z" />
<glyph unicode="o&#x300;" horiz-adv-x="780" d="M86 176v12q0 92 31 174q33 88 91 156t136 109t164 43q4 25 8 56.5t33 37.5q14 4 40 7t36 9q3 3 8 4q4 0 9 -3q11 -5 7 -17q-6 -16 -11 -42t-3 -52q2 -51 10.5 -95.5t28.5 -77t52 -52t81 -19.5q31 0 62.5 12.5t60.5 33t54.5 48t41.5 58.5q2 6 15.5 0.5t29 -15.5t25.5 -21 q6 -7 6 -12q0 -3 -2 -6q-18 -35 -49 -67.5t-70 -59t-84 -42t-94 -15.5q-51 0 -94 13.5t-82 47.5q-8 -61 -26.5 -133.5t-54.5 -137t-96.5 -107.5t-154.5 -43q-47 0 -85 17t-65.5 46t-42 63.5t-16.5 69.5zM238 186q0 -14 2 -32.5t8 -33t17.5 -24.5t31.5 -10q53 0 99.5 51 t80 121t51.5 142q14 59 14 99q0 9 -1 17q-6 14 -9 26l-10 33q-2 14 -14 15q-55 0 -104.5 -39t-87 -98.5t-59.5 -129.5q-20 -65 -19 -125v-12zM424 1163q0 6 12 18.5t27.5 24t29.5 20.5t17 9h12q8 0 12 -6l37 -71q18 -36 43 -78l56.5 -91t76.5 -110q0 -6 -8 -14.5 t-19.5 -15.5t-20.5 -11t-11 0q-31 39 -68 81l-73 83l-68 83q-32 41 -55 78z" />
<glyph unicode="o&#x301;" horiz-adv-x="780" d="M86 176v12q0 92 31 174q33 88 91 156t136 109t164 43q4 25 8 56.5t33 37.5q14 4 40 7t36 9q3 3 8 4q4 0 9 -3q11 -5 7 -17q-6 -16 -11 -42t-3 -52q2 -51 10.5 -95.5t28.5 -77t52 -52t81 -19.5q31 0 62.5 12.5t60.5 33t54.5 48t41.5 58.5q2 6 15.5 0.5t29 -15.5t25.5 -21 q6 -7 6 -12q0 -3 -2 -6q-18 -35 -49 -67.5t-70 -59t-84 -42t-94 -15.5q-51 0 -94 13.5t-82 47.5q-8 -61 -26.5 -133.5t-54.5 -137t-96.5 -107.5t-154.5 -43q-47 0 -85 17t-65.5 46t-42 63.5t-16.5 69.5zM238 186q0 -14 2 -32.5t8 -33t17.5 -24.5t31.5 -10q53 0 99.5 51 t80 121t51.5 142q14 59 14 99q0 9 -1 17q-6 14 -9 26l-10 33q-2 14 -14 15q-55 0 -104.5 -39t-87 -98.5t-59.5 -129.5q-20 -65 -19 -125v-12zM397 887l175 178l167 178q4 6 9 6h7q4 0 18 -9l28 -20q15 -11 28.5 -22.5t15.5 -15.5q4 -14 -2 -21q-45 -41 -90 -77l-93 -72 l-99 -79q-51 -42 -107 -93q-6 -6 -17 0t-20.5 15t-15.5 19.5t-4 12.5z" />
<glyph unicode="o&#x303;" horiz-adv-x="780" d="M86 176v12q0 92 31 174q33 88 91 156t136 109t164 43q4 25 8 56.5t33 37.5q14 4 40 7t36 9q3 3 8 4q4 0 9 -3q11 -5 7 -17q-6 -16 -11 -42t-3 -52q2 -51 10.5 -95.5t28.5 -77t52 -52t81 -19.5q31 0 62.5 12.5t60.5 33t54.5 48t41.5 58.5q2 6 15.5 0.5t29 -15.5t25.5 -21 q6 -7 6 -12q0 -3 -2 -6q-18 -35 -49 -67.5t-70 -59t-84 -42t-94 -15.5q-51 0 -94 13.5t-82 47.5q-8 -61 -26.5 -133.5t-54.5 -137t-96.5 -107.5t-154.5 -43q-47 0 -85 17t-65.5 46t-42 63.5t-16.5 69.5zM238 186q0 -14 2 -32.5t8 -33t17.5 -24.5t31.5 -10q53 0 99.5 51 t80 121t51.5 142q14 59 14 99q0 9 -1 17q-6 14 -9 26l-10 33q-2 14 -14 15q-55 0 -104.5 -39t-87 -98.5t-59.5 -129.5q-20 -65 -19 -125v-12zM238 952q4 20 19 51t38.5 61t57.5 51.5t75 21.5q35 0 71 -18.5t69 -40.5l66 -40q32 -18 58 -18q35 0 54.5 21.5t9.5 56.5 q-2 6 12 13t32.5 9t36 -2t19.5 -20q4 -37 -5 -71t-27.5 -60.5t-46 -43t-62.5 -16.5q-43 0 -82 16.5t-75 37t-69.5 37t-64.5 16.5q-23 0 -35 -6.5t-19 -16.5t-12.5 -25.5t-13.5 -31.5q-6 -10 -24.5 -14.5t-38 -2t-32.5 11.5t-11 23z" />
<glyph unicode="u&#x300;" horiz-adv-x="790" d="M100 84q-1 8 0 18q0 20 2 46q4 40 21.5 107t47.5 164l75 236q10 31 22 31q6 0 25.5 -7t40 -16.5t38 -19.5t17.5 -18t-12 -37q-59 -150 -94 -264.5t-33 -173.5q6 -23 21.5 -31t31.5 -8t37.5 19.5t47.5 55t52.5 83.5t48.5 104l30 87l24 67l19 55l18 49q6 20 16 20t30.5 -14 t40 -35.5t31 -44t4.5 -41.5l-46 -91q-24 -46 -43 -89t-31 -85q-11 -36 -11 -68v-11q2 -47 22.5 -69.5t51.5 -22.5q33 0 79 17.5t99.5 57.5t109.5 106.5t107 164.5q4 2 16.5 -4t27 -15.5t25.5 -18.5t13 -15q-37 -74 -90 -144.5t-117.5 -126t-135 -89t-142.5 -33.5 q-74 0 -129 31.5t-57 90.5q-2 25 0 50q-10 -20 -31 -47t-48.5 -50.5t-60 -39t-67.5 -15.5q-18 0 -40 5t-42.5 15.5t-38 27t-23.5 36.5zM377 1163q0 6 12 18.5t27.5 24t29.5 20.5t17 9h12q8 0 12 -6l37 -71q18 -36 43 -78l56.5 -91t76.5 -110q0 -6 -8 -14.5t-19.5 -15.5 t-20.5 -11t-11 0q-31 39 -68 81l-73 83l-68 83q-32 41 -55 78z" />
<glyph unicode="u&#x301;" horiz-adv-x="790" d="M100 84q-1 8 0 18q0 20 2 46q4 40 21.5 107t47.5 164l75 236q10 31 22 31q6 0 25.5 -7t40 -16.5t38 -19.5t17.5 -18t-12 -37q-59 -150 -94 -264.5t-33 -173.5q6 -23 21.5 -31t31.5 -8t37.5 19.5t47.5 55t52.5 83.5t48.5 104l30 87l24 67l19 55l18 49q6 20 16 20t30.5 -14 t40 -35.5t31 -44t4.5 -41.5l-46 -91q-24 -46 -43 -89t-31 -85q-11 -36 -11 -68v-11q2 -47 22.5 -69.5t51.5 -22.5q33 0 79 17.5t99.5 57.5t109.5 106.5t107 164.5q4 2 16.5 -4t27 -15.5t25.5 -18.5t13 -15q-37 -74 -90 -144.5t-117.5 -126t-135 -89t-142.5 -33.5 q-74 0 -129 31.5t-57 90.5q-2 25 0 50q-10 -20 -31 -47t-48.5 -50.5t-60 -39t-67.5 -15.5q-18 0 -40 5t-42.5 15.5t-38 27t-23.5 36.5zM447 887l175 178l167 178q4 6 9 6h7q4 0 18 -9l28 -20q15 -11 28.5 -22.5t15.5 -15.5q4 -14 -2 -21q-45 -41 -90 -77l-93 -72l-99 -79 q-51 -42 -107 -93q-6 -6 -17 0t-20.5 15t-15.5 19.5t-4 12.5z" />
<glyph unicode="y&#x301;" horiz-adv-x="712" d="M-768 -498q31 -113 107.5 -180t222.5 -67q150 0 272.5 45t226 145t191.5 258t166 385q6 12 0 9t-8 -5q-29 -29 -78 -60.5t-111 -31.5q-27 0 -54.5 9t-49 23.5t-35.5 35t-14 41.5q0 5 -1 10q0 31 10 81q11 58 31.5 129.5t49 150.5t59.5 155q4 16 12.5 23.5t14.5 13.5 q8 2 27 3l40 2q20 1 38 1h20q12 0 12 -12q-33 -78 -61 -159l-52 -150q-23 -69 -35 -122t-12 -75q0 -23 11.5 -40.5t46.5 -17.5q18 0 47.5 18.5t58.5 43t54.5 51.5t37.5 41q10 12 17.5 34.5t15.5 56.5t21.5 84t35.5 118q23 68 41.5 113t38.5 45q10 -2 29 -12l38 -19 q19 -10 33.5 -23.5t16.5 -25.5q-43 -117 -97.5 -243t-95.5 -243q-31 -88 -74.5 -200.5t-105 -229.5t-139.5 -227.5t-177.5 -197.5t-219 -140t-265.5 -53q-104 0 -179 42t-119 103.5t-59 132.5q-8 37 -8 71q0 31 7 60zM350 887l175 178l167 178q4 6 9 6h7q4 0 18 -9l28 -20 q15 -11 28.5 -22.5t15.5 -15.5q4 -14 -2 -21q-45 -41 -90 -77l-93 -72l-99 -79q-51 -42 -107 -93q-6 -6 -17 0t-20.5 15t-15.5 19.5t-4 12.5z" />
<glyph unicode="I&#x303;" horiz-adv-x="749" d="M90 14q47 4 72 41q25 43 61 118l79 165q42 90 84 191l78 196q36 94 61.5 177t31.5 138q2 10 1 17.5t-3 15.5q-4 16 -27.5 22.5t-60.5 6.5q-35 0 -76 -3t-76 -9l-10 2q0 4 4 20l8.5 34.5l8.5 34t6 19.5q57 4 122 7l126 6q61 3 114.5 8.5t87.5 11.5q12 -4 16.5 -27.5 t6.5 -31.5q4 -6 -12 -11q-18 -6 -29.5 -15t-20.5 -34q-41 -104 -87 -234l-94 -270l-99 -278q-51 -139 -103 -262q-18 -33 -49.5 -50.5t-66.5 -23.5q-30 -5 -61 -5h-11q-37 1 -68 3q-2 2 -6 8zM336 1390q4 20 19 51t38.5 61t57.5 51.5t75 21.5q35 0 71 -18.5t69 -40.5l66 -40 q32 -18 58 -18q35 0 54.5 21.5t9.5 56.5q-2 6 12 13t32.5 9t36 -2t19.5 -20q4 -37 -5 -71t-27.5 -60.5t-46 -43t-62.5 -16.5q-43 0 -82 16.5t-75 37t-69.5 37t-64.5 16.5q-23 0 -35 -6.5t-19 -16.5t-12.5 -25.5t-13.5 -31.5q-6 -10 -24.5 -14.5t-38 -2t-32.5 11.5t-11 23z " />
<glyph unicode="i&#x303;" horiz-adv-x="573" d="M98 111q-2 45 17.5 118.5t45 149.5t53.5 142.5t44 99.5q6 12 25.5 22t41 18.5t41 12.5t25.5 4q16 0 19 -8q0 -6 -1 -18.5t-8 -18.5q-27 -53 -54.5 -118.5t-50 -131.5t-36.5 -123t-12 -94q2 -47 10 -61.5t43 -14.5q59 0 121.5 37t119 90t102.5 112.5t71 104.5q4 8 16 4 t25.5 -14t22.5 -22.5t5 -18.5q-39 -72 -95 -143.5t-123.5 -130t-144.5 -94t-159 -35.5q-25 0 -53.5 6t-53 20t-41 40t-16.5 65zM25 952q4 20 19 51t38.5 61t57.5 51.5t75 21.5q35 0 71 -18.5t69 -40.5l66 -40q32 -18 58 -18q35 0 54.5 21.5t9.5 56.5q-2 6 12 13t32.5 9 t36 -2t19.5 -20q4 -37 -5 -71t-27.5 -60.5t-46 -43t-62.5 -16.5q-43 0 -82 16.5t-75 37t-69.5 37t-64.5 16.5q-23 0 -35 -6.5t-19 -16.5t-12.5 -25.5t-13.5 -31.5q-6 -10 -24.5 -14.5t-38 -2t-32.5 11.5t-11 23z" />
<glyph unicode="U&#x303;" horiz-adv-x="1767" d="M264 254q-2 86 35 191.5t86 211.5l96 206q47 99 64 171q6 18 2 33q-6 25 -47 25q-18 0 -44 -1t-65 -1q-18 0 -34.5 1t-32.5 1q-10 0 -17.5 17t-9.5 36.5t1 37t15 17.5q29 0 91.5 -4t134.5 -4q66 0 113.5 3t83.5 8t62.5 8t51.5 3q4 0 6 -12t4 -27.5t3 -30t1 -16.5 q6 -10 -8 -14q-23 -6 -56.5 -11t-49.5 -34l-54 -110l-63 -137l-65 -149q-32 -77 -57.5 -147.5t-39.5 -130t-14 -98.5q4 -109 63.5 -146.5t165.5 -37.5q102 0 198.5 45t181.5 118.5t152.5 168t110.5 194.5q25 59 48 125l46 129l42 121l34 98q10 31 25.5 50.5t48.5 35.5 q10 2 39.5 9l62.5 14.5t60.5 12.5t36.5 5q6 0 12 -13.5t9 -29.5t2 -29.5t-9 -13.5q-12 -2 -34.5 -9t-33.5 -24q-90 -141 -146 -291.5t-106 -310.5q-20 -63 -41 -148q-19 -77 -18 -151v-14q2 -57 29.5 -93t109.5 -36q35 0 72 12t67.5 25.5t51 26t22.5 12.5q8 0 17.5 -15.5 t15.5 -34.5q9 -26 9 -40q0 -11 -7 -15q-72 -37 -149.5 -63.5t-165.5 -26.5q-66 0 -115 16.5t-81 42t-48 58t-18 63.5q0 35 5 62.5t12 47t13 32t6 14.5q-4 2 -6 4t-6 2q-63 -96 -134 -159.5t-148.5 -101.5t-162.5 -53.5t-178 -15.5q-59 0 -120.5 16.5t-112.5 52.5t-84 89 t-37 127zM865 1390q4 20 19 51t38.5 61t57.5 51.5t75 21.5q35 0 71 -18.5t69 -40.5l66 -40q32 -18 58 -18q35 0 54.5 21.5t9.5 56.5q-2 6 12 13t32.5 9t36 -2t19.5 -20q4 -37 -5 -71t-27.5 -60.5t-46 -43t-62.5 -16.5q-43 0 -82 16.5t-75 37t-69.5 37t-64.5 16.5 q-23 0 -35 -6.5t-19 -16.5t-12.5 -25.5t-13.5 -31.5q-6 -10 -24.5 -14.5t-38 -2t-32.5 11.5t-11 23z" />
<glyph unicode="u&#x303;" horiz-adv-x="790" d="M100 84q-1 8 0 18q0 20 2 46q4 40 21.5 107t47.5 164l75 236q10 31 22 31q6 0 25.5 -7t40 -16.5t38 -19.5t17.5 -18t-12 -37q-59 -150 -94 -264.5t-33 -173.5q6 -23 21.5 -31t31.5 -8t37.5 19.5t47.5 55t52.5 83.5t48.5 104l30 87l24 67l19 55l18 49q6 20 16 20t30.5 -14 t40 -35.5t31 -44t4.5 -41.5l-46 -91q-24 -46 -43 -89t-31 -85q-11 -36 -11 -68v-11q2 -47 22.5 -69.5t51.5 -22.5q33 0 79 17.5t99.5 57.5t109.5 106.5t107 164.5q4 2 16.5 -4t27 -15.5t25.5 -18.5t13 -15q-37 -74 -90 -144.5t-117.5 -126t-135 -89t-142.5 -33.5 q-74 0 -129 31.5t-57 90.5q-2 25 0 50q-10 -20 -31 -47t-48.5 -50.5t-60 -39t-67.5 -15.5q-18 0 -40 5t-42.5 15.5t-38 27t-23.5 36.5zM301 952q4 20 19 51t38.5 61t57.5 51.5t75 21.5q35 0 71 -18.5t69 -40.5l66 -40q32 -18 58 -18q35 0 54.5 21.5t9.5 56.5q-2 6 12 13 t32.5 9t36 -2t19.5 -20q4 -37 -5 -71t-27.5 -60.5t-46 -43t-62.5 -16.5q-43 0 -82 16.5t-75 37t-69.5 37t-64.5 16.5q-23 0 -35 -6.5t-19 -16.5t-12.5 -25.5t-13.5 -31.5q-6 -10 -24.5 -14.5t-38 -2t-32.5 11.5t-11 23z" />
<glyph unicode="&#xe2f;&#xe2f;" horiz-adv-x="802" d="M-815 -244q276 10 473 49t334 103.5t225 153t143 196.5q29 55 49.5 100t33 84t19.5 73t11 71q-45 -104 -115.5 -147.5t-162.5 -43.5q-72 0 -115 50.5t-43 121.5q0 45 20.5 87t53 76t73.5 54.5t82 20.5q27 0 49.5 -15.5t22.5 -50.5q0 -33 -19.5 -75.5t-54.5 -69.5 q-16 -12 -52 -19.5t-56 3.5q68 41 87 75.5t19 61.5q0 6 -6 9t-10 3q-10 0 -29.5 -9t-39 -27.5t-34 -47.5t-14.5 -70t18.5 -67.5t59.5 -26.5q57 0 101 26.5t77 69.5t57.5 96.5t42.5 106.5q27 2 50 2q20 0 38.5 -1t28.5 -5q-2 -16 -5 -53t-11 -86q29 16 47 37.5t30.5 42 t17.5 38t5 25.5q27 2 49 2q20 0 39 -1t29 -5q-2 -20 -9.5 -71.5l-18.5 -123t-27.5 -156.5t-36.5 -171q-49 -217 -161 -361.5t-266.5 -218t-345 -79t-399.5 56.5q266 -2 450.5 47t306.5 134t189.5 194.5t102.5 228.5l22 83l25 96q12 50 22 99l19 93q-14 -31 -45 -51.5 t-62 -32.5q-14 -66 -34.5 -139.5t-51.5 -145.5q-80 -190 -199.5 -310t-281.5 -179.5t-365.5 -59.5t-451.5 49z" />
<glyph unicode="A&#x323;" horiz-adv-x="1658" d="M559 -297q-2 35 20.5 64.5t65.5 29.5q31 0 56.5 -19.5t27.5 -70.5q2 -35 -24.5 -63.5t-61.5 -28.5q-33 0 -58.5 24.5t-25.5 63.5zM-10 -84q-12 51 11.5 91t72.5 95q418 500 671.5 775.5t331.5 336.5q18 12 61.5 13.5t69.5 -2.5q25 -4 31 -8.5t-2 -14.5q-14 -20 -15 -50 t1 -65q0 -23 3 -90t8 -157t10 -191.5t11.5 -192.5t12.5 -159t10 -90q16 -68 43 -83t49 -15q14 0 34.5 9t37.5 13q10 4 19 -7t15.5 -25.5t5.5 -28t-12 -17.5q-8 -2 -35.5 -12t-62.5 -21l-70 -20q-36 -10 -63 -14q-20 0 -58 14t-53 43q2 16 3.5 59t2.5 92.5t1 94.5t-2 61 q-8 29 -28 54.5t-73 41.5q-18 6 -81.5 6.5t-137.5 2.5t-143.5 8t-100.5 22l-145 -172q-63 -76 -110.5 -139t-81 -117.5t-58.5 -107.5q-12 -37 -13 -61.5t9 -71.5q-2 -10 -21.5 -25.5t-23.5 -11.5zM633 592q10 -25 60 -32t181 -7q88 0 143.5 -7t80.5 -14q31 -8 35 0.5t6 26.5 q4 55 -4.5 135t-17.5 156t-17 133t-8 68q-2 4 -6.5 14t-22.5 -6l-33 -32l-65 -64l-85 -86l-93 -98q-46 -50 -85.5 -98t-68.5 -89z" />
<glyph unicode="a&#x323;" horiz-adv-x="876" d="M47 152v20q0 95 34 182q38 96 110.5 169t174 116t224.5 43q6 31 15 40t22 15l121 25l6 -2q-14 -16 -19.5 -35.5t-17.5 -44.5q12 0 31.5 -3t37 -8t31.5 -11.5t17 -14.5q0 -2 -5 -15l-9 -29q-5 -15 -10 -27.5t-7 -12.5q-8 6 -22.5 12.5t-31 11.5t-30.5 8t-25 3 q-39 -109 -62.5 -180.5t-37.5 -121.5t-18.5 -86t-4.5 -75q2 -23 17.5 -43t52.5 -20q41 0 101.5 28.5t126 78.5t129 121t108.5 153q4 6 8 6q2 0 12.5 -8.5t21.5 -18.5t20 -19l12 -12q-51 -88 -120 -164.5t-145.5 -133t-155.5 -88t-151 -31.5q-68 0 -113.5 33.5t-48.5 76.5 q0 14 2.5 46t14.5 65q-57 -98 -133 -154.5t-154 -56.5q-20 0 -42.5 15t-41 40t-32 53.5t-13.5 53.5zM199 193q2 -43 15 -74t32 -31q45 0 102.5 64.5t120.5 193.5l51 131l49 121l-2 4q-98 0 -169.5 -38t-115.5 -98t-65 -133q-19 -66 -19 -128q1 -6 1 -12zM277 -297 q-2 35 20.5 64.5t65.5 29.5q31 0 56.5 -19.5t27.5 -70.5q2 -35 -24.5 -63.5t-61.5 -28.5q-33 0 -58.5 24.5t-25.5 63.5z" />
<glyph unicode="A&#x309;" horiz-adv-x="1658" d="M1151 1335q0 4 2 18.5t6 16.5q80 33 117 80t37 88q-2 37 -21.5 54t-66.5 17q-23 0 -35.5 -4t-22.5 -4q-6 0 -8 12.5t-2 26.5t3 27.5t9 15.5q25 6 55.5 12.5t63.5 6.5q66 0 109 -33t47 -94q2 -57 -32 -107.5t-81 -87.5t-95 -57.5t-75 -20.5q-4 0 -7 14.5t-3 18.5zM-10 -84 q-12 51 11.5 91t72.5 95q418 500 671.5 775.5t331.5 336.5q18 12 61.5 13.5t69.5 -2.5q25 -4 31 -8.5t-2 -14.5q-14 -20 -15 -50t1 -65q0 -23 3 -90t8 -157t10 -191.5t11.5 -192.5t12.5 -159t10 -90q16 -68 43 -83t49 -15q14 0 34.5 9t37.5 13q10 4 19 -7t15.5 -25.5 t5.5 -28t-12 -17.5q-8 -2 -35.5 -12t-62.5 -21l-70 -20q-36 -10 -63 -14q-20 0 -58 14t-53 43q2 16 3.5 59t2.5 92.5t1 94.5t-2 61q-8 29 -28 54.5t-73 41.5q-18 6 -81.5 6.5t-137.5 2.5t-143.5 8t-100.5 22l-145 -172q-63 -76 -110.5 -139t-81 -117.5t-58.5 -107.5 q-12 -37 -13 -61.5t9 -71.5q-2 -10 -21.5 -25.5t-23.5 -11.5zM633 592q10 -25 60 -32t181 -7q88 0 143.5 -7t80.5 -14q31 -8 35 0.5t6 26.5q4 55 -4.5 135t-17.5 156t-17 133t-8 68q-2 4 -6.5 14t-22.5 -6l-33 -32l-65 -64l-85 -86l-93 -98q-46 -50 -85.5 -98t-68.5 -89z " />
<glyph unicode="a&#x309;" horiz-adv-x="876" d="M47 152v20q0 95 34 182q38 96 110.5 169t174 116t224.5 43q6 31 15 40t22 15l121 25l6 -2q-14 -16 -19.5 -35.5t-17.5 -44.5q12 0 31.5 -3t37 -8t31.5 -11.5t17 -14.5q0 -2 -5 -15l-9 -29q-5 -15 -10 -27.5t-7 -12.5q-8 6 -22.5 12.5t-31 11.5t-30.5 8t-25 3 q-39 -109 -62.5 -180.5t-37.5 -121.5t-18.5 -86t-4.5 -75q2 -23 17.5 -43t52.5 -20q41 0 101.5 28.5t126 78.5t129 121t108.5 153q4 6 8 6q2 0 12.5 -8.5t21.5 -18.5t20 -19l12 -12q-51 -88 -120 -164.5t-145.5 -133t-155.5 -88t-151 -31.5q-68 0 -113.5 33.5t-48.5 76.5 q0 14 2.5 46t14.5 65q-57 -98 -133 -154.5t-154 -56.5q-20 0 -42.5 15t-41 40t-32 53.5t-13.5 53.5zM199 193q2 -43 15 -74t32 -31q45 0 102.5 64.5t120.5 193.5l51 131l49 121l-2 4q-98 0 -169.5 -38t-115.5 -98t-65 -133q-19 -66 -19 -128q1 -6 1 -12zM260 852q0 4 2 18.5 t6 16.5q80 33 117 80t37 88q-2 37 -21.5 54t-66.5 17q-23 0 -35.5 -4t-22.5 -4q-6 0 -8 12.5t-2 26.5t3 27.5t9 15.5q25 6 55.5 12.5t63.5 6.5q66 0 109 -33t47 -94q2 -57 -32 -107.5t-81 -87.5t-95 -57.5t-75 -20.5q-4 0 -7 14.5t-3 18.5z" />
<glyph unicode="&#xc2;&#x301;" horiz-adv-x="1658" d="M928 1292q-4 16 14 41q27 35 61 73l69 78l72 77l66 67q8 8 20.5 6t16.5 -10q14 -43 33 -85l36 -81l30.5 -72.5t17.5 -58.5q6 -39 -2 -47q-2 -2 -15.5 -8t-28.5 -12l-29.5 -11.5t-20.5 -5.5t-10 23q-6 31 -11 54l-8 45q-4 22 -10 44.5t-19 50.5q-4 14 -12 17.5t-16 -8.5 q-18 -25 -35 -44l-31 -37l-29 -35q-15 -17 -32 -42q-20 -33 -29 -33q-2 0 -17.5 1l-32.5 2t-31.5 4t-16.5 7zM1348 1546l175 178l167 178q4 6 9 6h7q4 0 18 -9l28 -20q15 -11 28.5 -22.5t15.5 -15.5q4 -14 -2 -21q-45 -41 -90 -77l-93 -72l-99 -79q-51 -42 -107 -93 q-6 -6 -17 0t-20.5 15t-15.5 19.5t-4 12.5zM-10 -84q-12 51 11.5 91t72.5 95q418 500 671.5 775.5t331.5 336.5q18 12 61.5 13.5t69.5 -2.5q25 -4 31 -8.5t-2 -14.5q-14 -20 -15 -50t1 -65q0 -23 3 -90t8 -157t10 -191.5t11.5 -192.5t12.5 -159t10 -90q16 -68 43 -83t49 -15 q14 0 34.5 9t37.5 13q10 4 19 -7t15.5 -25.5t5.5 -28t-12 -17.5q-8 -2 -35.5 -12t-62.5 -21l-70 -20q-36 -10 -63 -14q-20 0 -58 14t-53 43q2 16 3.5 59t2.5 92.5t1 94.5t-2 61q-8 29 -28 54.5t-73 41.5q-18 6 -81.5 6.5t-137.5 2.5t-143.5 8t-100.5 22l-145 -172 q-63 -76 -110.5 -139t-81 -117.5t-58.5 -107.5q-12 -37 -13 -61.5t9 -71.5q-2 -10 -21.5 -25.5t-23.5 -11.5zM633 592q10 -25 60 -32t181 -7q88 0 143.5 -7t80.5 -14q31 -8 35 0.5t6 26.5q4 55 -4.5 135t-17.5 156t-17 133t-8 68q-2 4 -6.5 14t-22.5 -6l-33 -32l-65 -64 l-85 -86l-93 -98q-46 -50 -85.5 -98t-68.5 -89z" />
<glyph unicode="&#xe2;&#x301;" horiz-adv-x="876" d="M47 152v20q0 95 34 182q38 96 110.5 169t174 116t224.5 43q6 31 15 40t22 15l121 25l6 -2q-14 -16 -19.5 -35.5t-17.5 -44.5q12 0 31.5 -3t37 -8t31.5 -11.5t17 -14.5q0 -2 -5 -15l-9 -29q-5 -15 -10 -27.5t-7 -12.5q-8 6 -22.5 12.5t-31 11.5t-30.5 8t-25 3 q-39 -109 -62.5 -180.5t-37.5 -121.5t-18.5 -86t-4.5 -75q2 -23 17.5 -43t52.5 -20q41 0 101.5 28.5t126 78.5t129 121t108.5 153q4 6 8 6q2 0 12.5 -8.5t21.5 -18.5t20 -19l12 -12q-51 -88 -120 -164.5t-145.5 -133t-155.5 -88t-151 -31.5q-68 0 -113.5 33.5t-48.5 76.5 q0 14 2.5 46t14.5 65q-57 -98 -133 -154.5t-154 -56.5q-20 0 -42.5 15t-41 40t-32 53.5t-13.5 53.5zM199 193q2 -43 15 -74t32 -31q45 0 102.5 64.5t120.5 193.5l51 131l49 121l-2 4q-98 0 -169.5 -38t-115.5 -98t-65 -133q-19 -66 -19 -128q1 -6 1 -12zM361 890 q-4 16 14 41q27 35 61 73l69 78l72 77l66 67q8 8 20.5 6t16.5 -10q14 -43 33 -85l36 -81l30.5 -72.5t17.5 -58.5q6 -39 -2 -47q-2 -2 -15.5 -8t-28.5 -12l-29.5 -11.5t-20.5 -5.5t-10 23q-6 31 -11 54l-8 45q-4 22 -10 44.5t-19 50.5q-4 14 -12 17.5t-16 -8.5 q-18 -25 -35 -44l-31 -37l-29 -35q-15 -17 -32 -42q-20 -33 -29 -33q-2 0 -17.5 1l-32.5 2t-31.5 4t-16.5 7zM760 1235l175 178l167 178q4 6 9 6h7q4 0 18 -9l28 -20q15 -11 28.5 -22.5t15.5 -15.5q4 -14 -2 -21q-45 -41 -90 -77l-93 -72l-99 -79q-51 -42 -107 -93 q-6 -6 -17 0t-20.5 15t-15.5 19.5t-4 12.5z" />
<glyph unicode="&#xc2;&#x300;" horiz-adv-x="1658" d="M901 1306q-4 16 14 41q27 35 61 73l69 78l72 77l66 67q8 8 20.5 6t16.5 -10q14 -43 33 -85l36 -81l30.5 -72.5t17.5 -58.5q6 -39 -2 -47q-2 -2 -15.5 -8t-28.5 -12l-29.5 -11.5t-20.5 -5.5t-10 23q-6 31 -11 54l-8 45q-4 22 -10 44.5t-19 50.5q-4 14 -12 17.5t-16 -8.5 q-18 -25 -35 -44l-31 -37l-29 -35q-15 -17 -32 -42q-20 -33 -29 -33q-2 0 -17.5 1l-32.5 2t-31.5 4t-16.5 7zM1211 1855q0 6 12 18.5t27.5 24t29.5 20.5t17 9h12q8 0 12 -6l37 -71q18 -36 43 -78l56.5 -91t76.5 -110q0 -6 -8 -14.5t-19.5 -15.5t-20.5 -11t-11 0 q-31 39 -68 81l-73 83l-68 83q-32 41 -55 78zM-10 -84q-12 51 11.5 91t72.5 95q418 500 671.5 775.5t331.5 336.5q18 12 61.5 13.5t69.5 -2.5q25 -4 31 -8.5t-2 -14.5q-14 -20 -15 -50t1 -65q0 -23 3 -90t8 -157t10 -191.5t11.5 -192.5t12.5 -159t10 -90q16 -68 43 -83 t49 -15q14 0 34.5 9t37.5 13q10 4 19 -7t15.5 -25.5t5.5 -28t-12 -17.5q-8 -2 -35.5 -12t-62.5 -21l-70 -20q-36 -10 -63 -14q-20 0 -58 14t-53 43q2 16 3.5 59t2.5 92.5t1 94.5t-2 61q-8 29 -28 54.5t-73 41.5q-18 6 -81.5 6.5t-137.5 2.5t-143.5 8t-100.5 22l-145 -172 q-63 -76 -110.5 -139t-81 -117.5t-58.5 -107.5q-12 -37 -13 -61.5t9 -71.5q-2 -10 -21.5 -25.5t-23.5 -11.5zM633 592q10 -25 60 -32t181 -7q88 0 143.5 -7t80.5 -14q31 -8 35 0.5t6 26.5q4 55 -4.5 135t-17.5 156t-17 133t-8 68q-2 4 -6.5 14t-22.5 -6l-33 -32l-65 -64 l-85 -86l-93 -98q-46 -50 -85.5 -98t-68.5 -89z" />
<glyph unicode="&#xe2;&#x300;" horiz-adv-x="876" d="M47 152v20q0 95 34 182q38 96 110.5 169t174 116t224.5 43q6 31 15 40t22 15l121 25l6 -2q-14 -16 -19.5 -35.5t-17.5 -44.5q12 0 31.5 -3t37 -8t31.5 -11.5t17 -14.5q0 -2 -5 -15l-9 -29q-5 -15 -10 -27.5t-7 -12.5q-8 6 -22.5 12.5t-31 11.5t-30.5 8t-25 3 q-39 -109 -62.5 -180.5t-37.5 -121.5t-18.5 -86t-4.5 -75q2 -23 17.5 -43t52.5 -20q41 0 101.5 28.5t126 78.5t129 121t108.5 153q4 6 8 6q2 0 12.5 -8.5t21.5 -18.5t20 -19l12 -12q-51 -88 -120 -164.5t-145.5 -133t-155.5 -88t-151 -31.5q-68 0 -113.5 33.5t-48.5 76.5 q0 14 2.5 46t14.5 65q-57 -98 -133 -154.5t-154 -56.5q-20 0 -42.5 15t-41 40t-32 53.5t-13.5 53.5zM199 193q2 -43 15 -74t32 -31q45 0 102.5 64.5t120.5 193.5l51 131l49 121l-2 4q-98 0 -169.5 -38t-115.5 -98t-65 -133q-19 -66 -19 -128q1 -6 1 -12zM275 886 q-4 16 14 41q27 35 61 73l69 78l72 77l66 67q8 8 20.5 6t16.5 -10q14 -43 33 -85l36 -81l30.5 -72.5t17.5 -58.5q6 -39 -2 -47q-2 -2 -15.5 -8t-28.5 -12l-29.5 -11.5t-20.5 -5.5t-10 23q-6 31 -11 54l-8 45q-4 22 -10 44.5t-19 50.5q-4 14 -12 17.5t-16 -8.5 q-18 -25 -35 -44l-31 -37l-29 -35q-15 -17 -32 -42q-20 -33 -29 -33q-2 0 -17.5 1l-32.5 2t-31.5 4t-16.5 7zM562 1415q0 6 12 18.5t27.5 24t29.5 20.5t17 9h12q8 0 12 -6l37 -71q18 -36 43 -78l56.5 -91t76.5 -110q0 -6 -8 -14.5t-19.5 -15.5t-20.5 -11t-11 0 q-31 39 -68 81l-73 83l-68 83q-32 41 -55 78z" />
<glyph unicode="&#xc2;&#x309;" horiz-adv-x="1658" d="M924 1286q-4 16 14 41q27 35 61 73l69 78l72 77l66 67q8 8 20.5 6t16.5 -10q14 -43 33 -85l36 -81l30.5 -72.5t17.5 -58.5q6 -39 -2 -47q-2 -2 -15.5 -8t-28.5 -12l-29.5 -11.5t-20.5 -5.5t-10 23q-6 31 -11 54l-8 45q-4 22 -10 44.5t-19 50.5q-4 14 -12 17.5t-16 -8.5 q-18 -25 -35 -44l-31 -37l-29 -35q-15 -17 -32 -42q-20 -33 -29 -33q-2 0 -17.5 1l-32.5 2t-31.5 4t-16.5 7zM1264 1520q0 4 2 18.5t6 16.5q80 33 117 80t37 88q-2 37 -21.5 54t-66.5 17q-23 0 -35.5 -4t-22.5 -4q-6 0 -8 12.5t-2 26.5t3 27.5t9 15.5q25 6 55.5 12.5 t63.5 6.5q66 0 109 -33t47 -94q2 -57 -32 -107.5t-81 -87.5t-95 -57.5t-75 -20.5q-4 0 -7 14.5t-3 18.5zM-10 -84q-12 51 11.5 91t72.5 95q418 500 671.5 775.5t331.5 336.5q18 12 61.5 13.5t69.5 -2.5q25 -4 31 -8.5t-2 -14.5q-14 -20 -15 -50t1 -65q0 -23 3 -90t8 -157 t10 -191.5t11.5 -192.5t12.5 -159t10 -90q16 -68 43 -83t49 -15q14 0 34.5 9t37.5 13q10 4 19 -7t15.5 -25.5t5.5 -28t-12 -17.5q-8 -2 -35.5 -12t-62.5 -21l-70 -20q-36 -10 -63 -14q-20 0 -58 14t-53 43q2 16 3.5 59t2.5 92.5t1 94.5t-2 61q-8 29 -28 54.5t-73 41.5 q-18 6 -81.5 6.5t-137.5 2.5t-143.5 8t-100.5 22l-145 -172q-63 -76 -110.5 -139t-81 -117.5t-58.5 -107.5q-12 -37 -13 -61.5t9 -71.5q-2 -10 -21.5 -25.5t-23.5 -11.5zM633 592q10 -25 60 -32t181 -7q88 0 143.5 -7t80.5 -14q31 -8 35 0.5t6 26.5q4 55 -4.5 135t-17.5 156 t-17 133t-8 68q-2 4 -6.5 14t-22.5 -6l-33 -32l-65 -64l-85 -86l-93 -98q-46 -50 -85.5 -98t-68.5 -89z" />
<glyph unicode="&#xe2;&#x309;" horiz-adv-x="876" d="M47 152v20q0 95 34 182q38 96 110.5 169t174 116t224.5 43q6 31 15 40t22 15l121 25l6 -2q-14 -16 -19.5 -35.5t-17.5 -44.5q12 0 31.5 -3t37 -8t31.5 -11.5t17 -14.5q0 -2 -5 -15l-9 -29q-5 -15 -10 -27.5t-7 -12.5q-8 6 -22.5 12.5t-31 11.5t-30.5 8t-25 3 q-39 -109 -62.5 -180.5t-37.5 -121.5t-18.5 -86t-4.5 -75q2 -23 17.5 -43t52.5 -20q41 0 101.5 28.5t126 78.5t129 121t108.5 153q4 6 8 6q2 0 12.5 -8.5t21.5 -18.5t20 -19l12 -12q-51 -88 -120 -164.5t-145.5 -133t-155.5 -88t-151 -31.5q-68 0 -113.5 33.5t-48.5 76.5 q0 14 2.5 46t14.5 65q-57 -98 -133 -154.5t-154 -56.5q-20 0 -42.5 15t-41 40t-32 53.5t-13.5 53.5zM199 193q2 -43 15 -74t32 -31q45 0 102.5 64.5t120.5 193.5l51 131l49 121l-2 4q-98 0 -169.5 -38t-115.5 -98t-65 -133q-19 -66 -19 -128q1 -6 1 -12zM336 886 q-4 16 14 41q27 35 61 73l69 78l72 77l66 67q8 8 20.5 6t16.5 -10q14 -43 33 -85l36 -81l30.5 -72.5t17.5 -58.5q6 -39 -2 -47q-2 -2 -15.5 -8t-28.5 -12l-29.5 -11.5t-20.5 -5.5t-10 23q-6 31 -11 54l-8 45q-4 22 -10 44.5t-19 50.5q-4 14 -12 17.5t-16 -8.5 q-18 -25 -35 -44l-31 -37l-29 -35q-15 -17 -32 -42q-20 -33 -29 -33q-2 0 -17.5 1l-32.5 2t-31.5 4t-16.5 7zM625 1114q0 4 2 18.5t6 16.5q80 33 117 80t37 88q-2 37 -21.5 54t-66.5 17q-23 0 -35.5 -4t-22.5 -4q-6 0 -8 12.5t-2 26.5t3 27.5t9 15.5q25 6 55.5 12.5 t63.5 6.5q66 0 109 -33t47 -94q2 -57 -32 -107.5t-81 -87.5t-95 -57.5t-75 -20.5q-4 0 -7 14.5t-3 18.5z" />
<glyph unicode="&#xc2;&#x303;" horiz-adv-x="1658" d="M903 1345q-4 16 14 41q27 35 61 73l69 78l72 77l66 67q8 8 20.5 6t16.5 -10q14 -43 33 -85l36 -81l30.5 -72.5t17.5 -58.5q6 -39 -2 -47q-2 -2 -15.5 -8t-28.5 -12l-29.5 -11.5t-20.5 -5.5t-10 23q-6 31 -11 54l-8 45q-4 22 -10 44.5t-19 50.5q-4 14 -12 17.5t-16 -8.5 q-18 -25 -35 -44l-31 -37l-29 -35q-15 -17 -32 -42q-20 -33 -29 -33q-2 0 -17.5 1l-32.5 2t-31.5 4t-16.5 7zM908 1794q4 20 19 51t38.5 61t57.5 51.5t75 21.5q35 0 71 -18.5t69 -40.5l66 -40q32 -18 58 -18q35 0 54.5 21.5t9.5 56.5q-2 6 12 13t32.5 9t36 -2t19.5 -20 q4 -37 -5 -71t-27.5 -60.5t-46 -43t-62.5 -16.5q-43 0 -82 16.5t-75 37t-69.5 37t-64.5 16.5q-23 0 -35 -6.5t-19 -16.5t-12.5 -25.5t-13.5 -31.5q-6 -10 -24.5 -14.5t-38 -2t-32.5 11.5t-11 23zM-10 -84q-12 51 11.5 91t72.5 95q418 500 671.5 775.5t331.5 336.5 q18 12 61.5 13.5t69.5 -2.5q25 -4 31 -8.5t-2 -14.5q-14 -20 -15 -50t1 -65q0 -23 3 -90t8 -157t10 -191.5t11.5 -192.5t12.5 -159t10 -90q16 -68 43 -83t49 -15q14 0 34.5 9t37.5 13q10 4 19 -7t15.5 -25.5t5.5 -28t-12 -17.5q-8 -2 -35.5 -12t-62.5 -21l-70 -20 q-36 -10 -63 -14q-20 0 -58 14t-53 43q2 16 3.5 59t2.5 92.5t1 94.5t-2 61q-8 29 -28 54.5t-73 41.5q-18 6 -81.5 6.5t-137.5 2.5t-143.5 8t-100.5 22l-145 -172q-63 -76 -110.5 -139t-81 -117.5t-58.5 -107.5q-12 -37 -13 -61.5t9 -71.5q-2 -10 -21.5 -25.5t-23.5 -11.5z M633 592q10 -25 60 -32t181 -7q88 0 143.5 -7t80.5 -14q31 -8 35 0.5t6 26.5q4 55 -4.5 135t-17.5 156t-17 133t-8 68q-2 4 -6.5 14t-22.5 -6l-33 -32l-65 -64l-85 -86l-93 -98q-46 -50 -85.5 -98t-68.5 -89z" />
<glyph unicode="&#xe2;&#x303;" horiz-adv-x="876" d="M47 152v20q0 95 34 182q38 96 110.5 169t174 116t224.5 43q6 31 15 40t22 15l121 25l6 -2q-14 -16 -19.5 -35.5t-17.5 -44.5q12 0 31.5 -3t37 -8t31.5 -11.5t17 -14.5q0 -2 -5 -15l-9 -29q-5 -15 -10 -27.5t-7 -12.5q-8 6 -22.5 12.5t-31 11.5t-30.5 8t-25 3 q-39 -109 -62.5 -180.5t-37.5 -121.5t-18.5 -86t-4.5 -75q2 -23 17.5 -43t52.5 -20q41 0 101.5 28.5t126 78.5t129 121t108.5 153q4 6 8 6q2 0 12.5 -8.5t21.5 -18.5t20 -19l12 -12q-51 -88 -120 -164.5t-145.5 -133t-155.5 -88t-151 -31.5q-68 0 -113.5 33.5t-48.5 76.5 q0 14 2.5 46t14.5 65q-57 -98 -133 -154.5t-154 -56.5q-20 0 -42.5 15t-41 40t-32 53.5t-13.5 53.5zM199 193q2 -43 15 -74t32 -31q45 0 102.5 64.5t120.5 193.5l51 131l49 121l-2 4q-98 0 -169.5 -38t-115.5 -98t-65 -133q-19 -66 -19 -128q1 -6 1 -12zM291 886 q-4 16 14 41q27 35 61 73l69 78l72 77l66 67q8 8 20.5 6t16.5 -10q14 -43 33 -85l36 -81l30.5 -72.5t17.5 -58.5q6 -39 -2 -47q-2 -2 -15.5 -8t-28.5 -12l-29.5 -11.5t-20.5 -5.5t-10 23q-6 31 -11 54l-8 45q-4 22 -10 44.5t-19 50.5q-4 14 -12 17.5t-16 -8.5 q-18 -25 -35 -44l-31 -37l-29 -35q-15 -17 -32 -42q-20 -33 -29 -33q-2 0 -17.5 1l-32.5 2t-31.5 4t-16.5 7zM312 1362q4 20 19 51t38.5 61t57.5 51.5t75 21.5q35 0 71 -18.5t69 -40.5l66 -40q32 -18 58 -18q35 0 54.5 21.5t9.5 56.5q-2 6 12 13t32.5 9t36 -2t19.5 -20 q4 -37 -5 -71t-27.5 -60.5t-46 -43t-62.5 -16.5q-43 0 -82 16.5t-75 37t-69.5 37t-64.5 16.5q-23 0 -35 -6.5t-19 -16.5t-12.5 -25.5t-13.5 -31.5q-6 -10 -24.5 -14.5t-38 -2t-32.5 11.5t-11 23z" />
<glyph unicode="&#xc2;&#x323;" horiz-adv-x="1658" d="M354 -297q-2 35 20.5 64.5t65.5 29.5q31 0 56.5 -19.5t27.5 -70.5q2 -35 -24.5 -63.5t-61.5 -28.5q-33 0 -58.5 24.5t-25.5 63.5zM928 1335q-4 16 14 41q27 35 61 73l69 78l72 77l66 67q8 8 20.5 6t16.5 -10q14 -43 33 -85l36 -81l30.5 -72.5t17.5 -58.5q6 -39 -2 -47 q-2 -2 -15.5 -8t-28.5 -12l-29.5 -11.5t-20.5 -5.5t-10 23q-6 31 -11 54l-8 45q-4 22 -10 44.5t-19 50.5q-4 14 -12 17.5t-16 -8.5q-18 -25 -35 -44l-31 -37l-29 -35q-15 -17 -32 -42q-20 -33 -29 -33q-2 0 -17.5 1l-32.5 2t-31.5 4t-16.5 7zM-10 -84q-12 51 11.5 91 t72.5 95q418 500 671.5 775.5t331.5 336.5q18 12 61.5 13.5t69.5 -2.5q25 -4 31 -8.5t-2 -14.5q-14 -20 -15 -50t1 -65q0 -23 3 -90t8 -157t10 -191.5t11.5 -192.5t12.5 -159t10 -90q16 -68 43 -83t49 -15q14 0 34.5 9t37.5 13q10 4 19 -7t15.5 -25.5t5.5 -28t-12 -17.5 q-8 -2 -35.5 -12t-62.5 -21l-70 -20q-36 -10 -63 -14q-20 0 -58 14t-53 43q2 16 3.5 59t2.5 92.5t1 94.5t-2 61q-8 29 -28 54.5t-73 41.5q-18 6 -81.5 6.5t-137.5 2.5t-143.5 8t-100.5 22l-145 -172q-63 -76 -110.5 -139t-81 -117.5t-58.5 -107.5q-12 -37 -13 -61.5t9 -71.5 q-2 -10 -21.5 -25.5t-23.5 -11.5zM633 592q10 -25 60 -32t181 -7q88 0 143.5 -7t80.5 -14q31 -8 35 0.5t6 26.5q4 55 -4.5 135t-17.5 156t-17 133t-8 68q-2 4 -6.5 14t-22.5 -6l-33 -32l-65 -64l-85 -86l-93 -98q-46 -50 -85.5 -98t-68.5 -89z" />
<glyph unicode="&#xe2;&#x323;" horiz-adv-x="876" d="M47 152v20q0 95 34 182q38 96 110.5 169t174 116t224.5 43q6 31 15 40t22 15l121 25l6 -2q-14 -16 -19.5 -35.5t-17.5 -44.5q12 0 31.5 -3t37 -8t31.5 -11.5t17 -14.5q0 -2 -5 -15l-9 -29q-5 -15 -10 -27.5t-7 -12.5q-8 6 -22.5 12.5t-31 11.5t-30.5 8t-25 3 q-39 -109 -62.5 -180.5t-37.5 -121.5t-18.5 -86t-4.5 -75q2 -23 17.5 -43t52.5 -20q41 0 101.5 28.5t126 78.5t129 121t108.5 153q4 6 8 6q2 0 12.5 -8.5t21.5 -18.5t20 -19l12 -12q-51 -88 -120 -164.5t-145.5 -133t-155.5 -88t-151 -31.5q-68 0 -113.5 33.5t-48.5 76.5 q0 14 2.5 46t14.5 65q-57 -98 -133 -154.5t-154 -56.5q-20 0 -42.5 15t-41 40t-32 53.5t-13.5 53.5zM199 193q2 -43 15 -74t32 -31q45 0 102.5 64.5t120.5 193.5l51 131l49 121l-2 4q-98 0 -169.5 -38t-115.5 -98t-65 -133q-19 -66 -19 -128q1 -6 1 -12zM277 -297 q-2 35 20.5 64.5t65.5 29.5q31 0 56.5 -19.5t27.5 -70.5q2 -35 -24.5 -63.5t-61.5 -28.5q-33 0 -58.5 24.5t-25.5 63.5zM260 886q-4 16 14 41q27 35 61 73l69 78l72 77l66 67q8 8 20.5 6t16.5 -10q14 -43 33 -85l36 -81l30.5 -72.5t17.5 -58.5q6 -39 -2 -47q-2 -2 -15.5 -8 t-28.5 -12l-29.5 -11.5t-20.5 -5.5t-10 23q-6 31 -11 54l-8 45q-4 22 -10 44.5t-19 50.5q-4 14 -12 17.5t-16 -8.5q-18 -25 -35 -44l-31 -37l-29 -35q-15 -17 -32 -42q-20 -33 -29 -33q-2 0 -17.5 1l-32.5 2t-31.5 4t-16.5 7z" />
<glyph unicode="&#x102;&#x301;" horiz-adv-x="1658" d="M995 1478q-4 12 6.5 24.5t25.5 23t31.5 16.5t24.5 6q12 0 15 -18q14 -57 38.5 -91t86.5 -34q59 0 86.5 34.5t36.5 77.5q4 14 3 23.5t5 9.5t21.5 -4t31.5 -10t28.5 -12.5t12.5 -12.5v-15q0 -9 -4 -22q-23 -72 -79 -121t-157 -49q-86 0 -141.5 50t-71.5 124zM1200 1581 l175 178l167 178q4 6 9 6h7q4 0 18 -9l28 -20q15 -11 28.5 -22.5t15.5 -15.5q4 -14 -2 -21q-45 -41 -90 -77l-93 -72l-99 -79q-51 -42 -107 -93q-6 -6 -17 0t-20.5 15t-15.5 19.5t-4 12.5zM-10 -84q-12 51 11.5 91t72.5 95q418 500 671.5 775.5t331.5 336.5q18 12 61.5 13.5 t69.5 -2.5q25 -4 31 -8.5t-2 -14.5q-14 -20 -15 -50t1 -65q0 -23 3 -90t8 -157t10 -191.5t11.5 -192.5t12.5 -159t10 -90q16 -68 43 -83t49 -15q14 0 34.5 9t37.5 13q10 4 19 -7t15.5 -25.5t5.5 -28t-12 -17.5q-8 -2 -35.5 -12t-62.5 -21l-70 -20q-36 -10 -63 -14 q-20 0 -58 14t-53 43q2 16 3.5 59t2.5 92.5t1 94.5t-2 61q-8 29 -28 54.5t-73 41.5q-18 6 -81.5 6.5t-137.5 2.5t-143.5 8t-100.5 22l-145 -172q-63 -76 -110.5 -139t-81 -117.5t-58.5 -107.5q-12 -37 -13 -61.5t9 -71.5q-2 -10 -21.5 -25.5t-23.5 -11.5zM633 592 q10 -25 60 -32t181 -7q88 0 143.5 -7t80.5 -14q31 -8 35 0.5t6 26.5q4 55 -4.5 135t-17.5 156t-17 133t-8 68q-2 4 -6.5 14t-22.5 -6l-33 -32l-65 -64l-85 -86l-93 -98q-46 -50 -85.5 -98t-68.5 -89z" />
<glyph unicode="&#x103;&#x301;" horiz-adv-x="876" d="M47 152v20q0 95 34 182q38 96 110.5 169t174 116t224.5 43q6 31 15 40t22 15l121 25l6 -2q-14 -16 -19.5 -35.5t-17.5 -44.5q12 0 31.5 -3t37 -8t31.5 -11.5t17 -14.5q0 -2 -5 -15l-9 -29q-5 -15 -10 -27.5t-7 -12.5q-8 6 -22.5 12.5t-31 11.5t-30.5 8t-25 3 q-39 -109 -62.5 -180.5t-37.5 -121.5t-18.5 -86t-4.5 -75q2 -23 17.5 -43t52.5 -20q41 0 101.5 28.5t126 78.5t129 121t108.5 153q4 6 8 6q2 0 12.5 -8.5t21.5 -18.5t20 -19l12 -12q-51 -88 -120 -164.5t-145.5 -133t-155.5 -88t-151 -31.5q-68 0 -113.5 33.5t-48.5 76.5 q0 14 2.5 46t14.5 65q-57 -98 -133 -154.5t-154 -56.5q-20 0 -42.5 15t-41 40t-32 53.5t-13.5 53.5zM199 193q2 -43 15 -74t32 -31q45 0 102.5 64.5t120.5 193.5l51 131l49 121l-2 4q-98 0 -169.5 -38t-115.5 -98t-65 -133q-19 -66 -19 -128q1 -6 1 -12zM311 1067 q-4 12 6.5 24.5t25.5 23t31.5 16.5t24.5 6q12 0 15 -18q14 -57 38.5 -91t86.5 -34q59 0 86.5 34.5t36.5 77.5q4 14 3 23.5t5 9.5t21.5 -4t31.5 -10t28.5 -12.5t12.5 -12.5v-15q0 -9 -4 -22q-23 -72 -79 -121t-157 -49q-86 0 -141.5 50t-71.5 124zM506 1198l175 178l167 178 q4 6 9 6h7q4 0 18 -9l28 -20q15 -11 28.5 -22.5t15.5 -15.5q4 -14 -2 -21q-45 -41 -90 -77l-93 -72l-99 -79q-51 -42 -107 -93q-6 -6 -17 0t-20.5 15t-15.5 19.5t-4 12.5z" />
<glyph unicode="&#x102;&#x300;" horiz-adv-x="1658" d="M960 1456q-4 12 6.5 24.5t25.5 23t31.5 16.5t24.5 6q12 0 15 -18q14 -57 38.5 -91t86.5 -34q59 0 86.5 34.5t36.5 77.5q4 14 3 23.5t5 9.5t21.5 -4t31.5 -10t28.5 -12.5t12.5 -12.5v-15q0 -9 -4 -22q-23 -72 -79 -121t-157 -49q-86 0 -141.5 50t-71.5 124zM949 1822 q0 6 12 18.5t27.5 24t29.5 20.5t17 9h12q8 0 12 -6l37 -71q18 -36 43 -78l56.5 -91t76.5 -110q0 -6 -8 -14.5t-19.5 -15.5t-20.5 -11t-11 0q-31 39 -68 81l-73 83l-68 83q-32 41 -55 78zM-10 -84q-12 51 11.5 91t72.5 95q418 500 671.5 775.5t331.5 336.5q18 12 61.5 13.5 t69.5 -2.5q25 -4 31 -8.5t-2 -14.5q-14 -20 -15 -50t1 -65q0 -23 3 -90t8 -157t10 -191.5t11.5 -192.5t12.5 -159t10 -90q16 -68 43 -83t49 -15q14 0 34.5 9t37.5 13q10 4 19 -7t15.5 -25.5t5.5 -28t-12 -17.5q-8 -2 -35.5 -12t-62.5 -21l-70 -20q-36 -10 -63 -14 q-20 0 -58 14t-53 43q2 16 3.5 59t2.5 92.5t1 94.5t-2 61q-8 29 -28 54.5t-73 41.5q-18 6 -81.5 6.5t-137.5 2.5t-143.5 8t-100.5 22l-145 -172q-63 -76 -110.5 -139t-81 -117.5t-58.5 -107.5q-12 -37 -13 -61.5t9 -71.5q-2 -10 -21.5 -25.5t-23.5 -11.5zM633 592 q10 -25 60 -32t181 -7q88 0 143.5 -7t80.5 -14q31 -8 35 0.5t6 26.5q4 55 -4.5 135t-17.5 156t-17 133t-8 68q-2 4 -6.5 14t-22.5 -6l-33 -32l-65 -64l-85 -86l-93 -98q-46 -50 -85.5 -98t-68.5 -89z" />
<glyph unicode="&#x103;&#x300;" horiz-adv-x="876" d="M47 152v20q0 95 34 182q38 96 110.5 169t174 116t224.5 43q6 31 15 40t22 15l121 25l6 -2q-14 -16 -19.5 -35.5t-17.5 -44.5q12 0 31.5 -3t37 -8t31.5 -11.5t17 -14.5q0 -2 -5 -15l-9 -29q-5 -15 -10 -27.5t-7 -12.5q-8 6 -22.5 12.5t-31 11.5t-30.5 8t-25 3 q-39 -109 -62.5 -180.5t-37.5 -121.5t-18.5 -86t-4.5 -75q2 -23 17.5 -43t52.5 -20q41 0 101.5 28.5t126 78.5t129 121t108.5 153q4 6 8 6q2 0 12.5 -8.5t21.5 -18.5t20 -19l12 -12q-51 -88 -120 -164.5t-145.5 -133t-155.5 -88t-151 -31.5q-68 0 -113.5 33.5t-48.5 76.5 q0 14 2.5 46t14.5 65q-57 -98 -133 -154.5t-154 -56.5q-20 0 -42.5 15t-41 40t-32 53.5t-13.5 53.5zM199 193q2 -43 15 -74t32 -31q45 0 102.5 64.5t120.5 193.5l51 131l49 121l-2 4q-98 0 -169.5 -38t-115.5 -98t-65 -133q-19 -66 -19 -128q1 -6 1 -12zM293 1044 q-4 12 6.5 24.5t25.5 23t31.5 16.5t24.5 6q12 0 15 -18q14 -57 38.5 -91t86.5 -34q59 0 86.5 34.5t36.5 77.5q4 14 3 23.5t5 9.5t21.5 -4t31.5 -10t28.5 -12.5t12.5 -12.5v-15q0 -9 -4 -22q-23 -72 -79 -121t-157 -49q-86 0 -141.5 50t-71.5 124zM306 1407q0 6 12 18.5 t27.5 24t29.5 20.5t17 9h12q8 0 12 -6l37 -71q18 -36 43 -78l56.5 -91t76.5 -110q0 -6 -8 -14.5t-19.5 -15.5t-20.5 -11t-11 0q-31 39 -68 81l-73 83l-68 83q-32 41 -55 78z" />
<glyph unicode="&#x102;&#x309;" horiz-adv-x="1658" d="M970 1464q-4 12 6.5 24.5t25.5 23t31.5 16.5t24.5 6q12 0 15 -18q14 -57 38.5 -91t86.5 -34q59 0 86.5 34.5t36.5 77.5q4 14 3 23.5t5 9.5t21.5 -4t31.5 -10t28.5 -12.5t12.5 -12.5v-15q0 -9 -4 -22q-23 -72 -79 -121t-157 -49q-86 0 -141.5 50t-71.5 124zM1145 1557 q0 4 2 18.5t6 16.5q80 33 117 80t37 88q-2 37 -21.5 54t-66.5 17q-23 0 -35.5 -4t-22.5 -4q-6 0 -8 12.5t-2 26.5t3 27.5t9 15.5q25 6 55.5 12.5t63.5 6.5q66 0 109 -33t47 -94q2 -57 -32 -107.5t-81 -87.5t-95 -57.5t-75 -20.5q-4 0 -7 14.5t-3 18.5zM-10 -84 q-12 51 11.5 91t72.5 95q418 500 671.5 775.5t331.5 336.5q18 12 61.5 13.5t69.5 -2.5q25 -4 31 -8.5t-2 -14.5q-14 -20 -15 -50t1 -65q0 -23 3 -90t8 -157t10 -191.5t11.5 -192.5t12.5 -159t10 -90q16 -68 43 -83t49 -15q14 0 34.5 9t37.5 13q10 4 19 -7t15.5 -25.5 t5.5 -28t-12 -17.5q-8 -2 -35.5 -12t-62.5 -21l-70 -20q-36 -10 -63 -14q-20 0 -58 14t-53 43q2 16 3.5 59t2.5 92.5t1 94.5t-2 61q-8 29 -28 54.5t-73 41.5q-18 6 -81.5 6.5t-137.5 2.5t-143.5 8t-100.5 22l-145 -172q-63 -76 -110.5 -139t-81 -117.5t-58.5 -107.5 q-12 -37 -13 -61.5t9 -71.5q-2 -10 -21.5 -25.5t-23.5 -11.5zM633 592q10 -25 60 -32t181 -7q88 0 143.5 -7t80.5 -14q31 -8 35 0.5t6 26.5q4 55 -4.5 135t-17.5 156t-17 133t-8 68q-2 4 -6.5 14t-22.5 -6l-33 -32l-65 -64l-85 -86l-93 -98q-46 -50 -85.5 -98t-68.5 -89z " />
<glyph unicode="&#x103;&#x309;" horiz-adv-x="876" d="M47 152v20q0 95 34 182q38 96 110.5 169t174 116t224.5 43q6 31 15 40t22 15l121 25l6 -2q-14 -16 -19.5 -35.5t-17.5 -44.5q12 0 31.5 -3t37 -8t31.5 -11.5t17 -14.5q0 -2 -5 -15l-9 -29q-5 -15 -10 -27.5t-7 -12.5q-8 6 -22.5 12.5t-31 11.5t-30.5 8t-25 3 q-39 -109 -62.5 -180.5t-37.5 -121.5t-18.5 -86t-4.5 -75q2 -23 17.5 -43t52.5 -20q41 0 101.5 28.5t126 78.5t129 121t108.5 153q4 6 8 6q2 0 12.5 -8.5t21.5 -18.5t20 -19l12 -12q-51 -88 -120 -164.5t-145.5 -133t-155.5 -88t-151 -31.5q-68 0 -113.5 33.5t-48.5 76.5 q0 14 2.5 46t14.5 65q-57 -98 -133 -154.5t-154 -56.5q-20 0 -42.5 15t-41 40t-32 53.5t-13.5 53.5zM199 193q2 -43 15 -74t32 -31q45 0 102.5 64.5t120.5 193.5l51 131l49 121l-2 4q-98 0 -169.5 -38t-115.5 -98t-65 -133q-19 -66 -19 -128q1 -6 1 -12zM299 1069 q-4 12 6.5 24.5t25.5 23t31.5 16.5t24.5 6q12 0 15 -18q14 -57 38.5 -91t86.5 -34q59 0 86.5 34.5t36.5 77.5q4 14 3 23.5t5 9.5t21.5 -4t31.5 -10t28.5 -12.5t12.5 -12.5v-15q0 -9 -4 -22q-23 -72 -79 -121t-157 -49q-86 0 -141.5 50t-71.5 124zM502 1161q0 4 2 18.5 t6 16.5q80 33 117 80t37 88q-2 37 -21.5 54t-66.5 17q-23 0 -35.5 -4t-22.5 -4q-6 0 -8 12.5t-2 26.5t3 27.5t9 15.5q25 6 55.5 12.5t63.5 6.5q66 0 109 -33t47 -94q2 -57 -32 -107.5t-81 -87.5t-95 -57.5t-75 -20.5q-4 0 -7 14.5t-3 18.5z" />
<glyph unicode="&#x102;&#x303;" horiz-adv-x="1658" d="M962 1464q-4 12 6.5 24.5t25.5 23t31.5 16.5t24.5 6q12 0 15 -18q14 -57 38.5 -91t86.5 -34q59 0 86.5 34.5t36.5 77.5q4 14 3 23.5t5 9.5t21.5 -4t31.5 -10t28.5 -12.5t12.5 -12.5v-15q0 -9 -4 -22q-23 -72 -79 -121t-157 -49q-86 0 -141.5 50t-71.5 124zM920 1636 q4 20 19 51t38.5 61t57.5 51.5t75 21.5q35 0 71 -18.5t69 -40.5l66 -40q32 -18 58 -18q35 0 54.5 21.5t9.5 56.5q-2 6 12 13t32.5 9t36 -2t19.5 -20q4 -37 -5 -71t-27.5 -60.5t-46 -43t-62.5 -16.5q-43 0 -82 16.5t-75 37t-69.5 37t-64.5 16.5q-23 0 -35 -6.5t-19 -16.5 t-12.5 -25.5t-13.5 -31.5q-6 -10 -24.5 -14.5t-38 -2t-32.5 11.5t-11 23zM-10 -84q-12 51 11.5 91t72.5 95q418 500 671.5 775.5t331.5 336.5q18 12 61.5 13.5t69.5 -2.5q25 -4 31 -8.5t-2 -14.5q-14 -20 -15 -50t1 -65q0 -23 3 -90t8 -157t10 -191.5t11.5 -192.5t12.5 -159 t10 -90q16 -68 43 -83t49 -15q14 0 34.5 9t37.5 13q10 4 19 -7t15.5 -25.5t5.5 -28t-12 -17.5q-8 -2 -35.5 -12t-62.5 -21l-70 -20q-36 -10 -63 -14q-20 0 -58 14t-53 43q2 16 3.5 59t2.5 92.5t1 94.5t-2 61q-8 29 -28 54.5t-73 41.5q-18 6 -81.5 6.5t-137.5 2.5t-143.5 8 t-100.5 22l-145 -172q-63 -76 -110.5 -139t-81 -117.5t-58.5 -107.5q-12 -37 -13 -61.5t9 -71.5q-2 -10 -21.5 -25.5t-23.5 -11.5zM633 592q10 -25 60 -32t181 -7q88 0 143.5 -7t80.5 -14q31 -8 35 0.5t6 26.5q4 55 -4.5 135t-17.5 156t-17 133t-8 68q-2 4 -6.5 14t-22.5 -6 l-33 -32l-65 -64l-85 -86l-93 -98q-46 -50 -85.5 -98t-68.5 -89z" />
<glyph unicode="&#x103;&#x303;" horiz-adv-x="876" d="M47 152v20q0 95 34 182q38 96 110.5 169t174 116t224.5 43q6 31 15 40t22 15l121 25l6 -2q-14 -16 -19.5 -35.5t-17.5 -44.5q12 0 31.5 -3t37 -8t31.5 -11.5t17 -14.5q0 -2 -5 -15l-9 -29q-5 -15 -10 -27.5t-7 -12.5q-8 6 -22.5 12.5t-31 11.5t-30.5 8t-25 3 q-39 -109 -62.5 -180.5t-37.5 -121.5t-18.5 -86t-4.5 -75q2 -23 17.5 -43t52.5 -20q41 0 101.5 28.5t126 78.5t129 121t108.5 153q4 6 8 6q2 0 12.5 -8.5t21.5 -18.5t20 -19l12 -12q-51 -88 -120 -164.5t-145.5 -133t-155.5 -88t-151 -31.5q-68 0 -113.5 33.5t-48.5 76.5 q0 14 2.5 46t14.5 65q-57 -98 -133 -154.5t-154 -56.5q-20 0 -42.5 15t-41 40t-32 53.5t-13.5 53.5zM199 193q2 -43 15 -74t32 -31q45 0 102.5 64.5t120.5 193.5l51 131l49 121l-2 4q-98 0 -169.5 -38t-115.5 -98t-65 -133q-19 -66 -19 -128q1 -6 1 -12zM305 1046 q-4 12 6.5 24.5t25.5 23t31.5 16.5t24.5 6q12 0 15 -18q14 -57 38.5 -91t86.5 -34q59 0 86.5 34.5t36.5 77.5q4 14 3 23.5t5 9.5t21.5 -4t31.5 -10t28.5 -12.5t12.5 -12.5v-15q0 -9 -4 -22q-23 -72 -79 -121t-157 -49q-86 0 -141.5 50t-71.5 124zM226 1194q4 20 19 51 t38.5 61t57.5 51.5t75 21.5q35 0 71 -18.5t69 -40.5l66 -40q32 -18 58 -18q35 0 54.5 21.5t9.5 56.5q-2 6 12 13t32.5 9t36 -2t19.5 -20q4 -37 -5 -71t-27.5 -60.5t-46 -43t-62.5 -16.5q-43 0 -82 16.5t-75 37t-69.5 37t-64.5 16.5q-23 0 -35 -6.5t-19 -16.5t-12.5 -25.5 t-13.5 -31.5q-6 -10 -24.5 -14.5t-38 -2t-32.5 11.5t-11 23z" />
<glyph unicode="&#x102;&#x323;" horiz-adv-x="1658" d="M514 -297q-2 35 20.5 64.5t65.5 29.5q31 0 56.5 -19.5t27.5 -70.5q2 -35 -24.5 -63.5t-61.5 -28.5q-33 0 -58.5 24.5t-25.5 63.5zM946 1466q-4 12 6.5 24.5t25.5 23t31.5 16.5t24.5 6q12 0 15 -18q14 -57 38.5 -91t86.5 -34q59 0 86.5 34.5t36.5 77.5q4 14 3 23.5t5 9.5 t21.5 -4t31.5 -10t28.5 -12.5t12.5 -12.5v-15q0 -9 -4 -22q-23 -72 -79 -121t-157 -49q-86 0 -141.5 50t-71.5 124zM-10 -84q-12 51 11.5 91t72.5 95q418 500 671.5 775.5t331.5 336.5q18 12 61.5 13.5t69.5 -2.5q25 -4 31 -8.5t-2 -14.5q-14 -20 -15 -50t1 -65q0 -23 3 -90 t8 -157t10 -191.5t11.5 -192.5t12.5 -159t10 -90q16 -68 43 -83t49 -15q14 0 34.5 9t37.5 13q10 4 19 -7t15.5 -25.5t5.5 -28t-12 -17.5q-8 -2 -35.5 -12t-62.5 -21l-70 -20q-36 -10 -63 -14q-20 0 -58 14t-53 43q2 16 3.5 59t2.5 92.5t1 94.5t-2 61q-8 29 -28 54.5 t-73 41.5q-18 6 -81.5 6.5t-137.5 2.5t-143.5 8t-100.5 22l-145 -172q-63 -76 -110.5 -139t-81 -117.5t-58.5 -107.5q-12 -37 -13 -61.5t9 -71.5q-2 -10 -21.5 -25.5t-23.5 -11.5zM633 592q10 -25 60 -32t181 -7q88 0 143.5 -7t80.5 -14q31 -8 35 0.5t6 26.5q4 55 -4.5 135 t-17.5 156t-17 133t-8 68q-2 4 -6.5 14t-22.5 -6l-33 -32l-65 -64l-85 -86l-93 -98q-46 -50 -85.5 -98t-68.5 -89z" />
<glyph unicode="&#x103;&#x323;" horiz-adv-x="876" d="M47 152v20q0 95 34 182q38 96 110.5 169t174 116t224.5 43q6 31 15 40t22 15l121 25l6 -2q-14 -16 -19.5 -35.5t-17.5 -44.5q12 0 31.5 -3t37 -8t31.5 -11.5t17 -14.5q0 -2 -5 -15l-9 -29q-5 -15 -10 -27.5t-7 -12.5q-8 6 -22.5 12.5t-31 11.5t-30.5 8t-25 3 q-39 -109 -62.5 -180.5t-37.5 -121.5t-18.5 -86t-4.5 -75q2 -23 17.5 -43t52.5 -20q41 0 101.5 28.5t126 78.5t129 121t108.5 153q4 6 8 6q2 0 12.5 -8.5t21.5 -18.5t20 -19l12 -12q-51 -88 -120 -164.5t-145.5 -133t-155.5 -88t-151 -31.5q-68 0 -113.5 33.5t-48.5 76.5 q0 14 2.5 46t14.5 65q-57 -98 -133 -154.5t-154 -56.5q-20 0 -42.5 15t-41 40t-32 53.5t-13.5 53.5zM199 193q2 -43 15 -74t32 -31q45 0 102.5 64.5t120.5 193.5l51 131l49 121l-2 4q-98 0 -169.5 -38t-115.5 -98t-65 -133q-19 -66 -19 -128q1 -6 1 -12zM277 -297 q-2 35 20.5 64.5t65.5 29.5q31 0 56.5 -19.5t27.5 -70.5q2 -35 -24.5 -63.5t-61.5 -28.5q-33 0 -58.5 24.5t-25.5 63.5zM372 1046q-4 12 6.5 24.5t25.5 23t31.5 16.5t24.5 6q12 0 15 -18q14 -57 38.5 -91t86.5 -34q59 0 86.5 34.5t36.5 77.5q4 14 3 23.5t5 9.5t21.5 -4 t31.5 -10t28.5 -12.5t12.5 -12.5v-15q0 -9 -4 -22q-23 -72 -79 -121t-157 -49q-86 0 -141.5 50t-71.5 124z" />
<glyph unicode="E&#x323;" horiz-adv-x="1320" d="M204 1113q1 22 5 44.5t9 41t9 22.5q86 -6 181.5 -9.5t181.5 -3.5q20 0 64 1t102.5 3t126 5.5t134 5.5t127 3t103.5 1q14 0 19 -17l-9 -28l-13 -50q-7 -28 -13 -55.5t-8 -42.5l-11 2q-8 16 -16 29.5t-18 17.5q-90 12 -190.5 18.5t-201.5 6.5q-41 0 -57 -29 q-29 -49 -48 -88t-34.5 -79l-31.5 -85l-35 -104q-6 -25 24 -25q10 0 21.5 -1t28 -2t42.5 -1h68q127 0 219 7.5t186 29.5l9 -8q-2 -6 -10.5 -21.5t-15.5 -33.5l-13 -35q-6 -16 -6 -23q-2 -10 -23 -10q-72 0 -156 2t-170 2h-101q-40 0 -65.5 -1t-41 -2t-27.5 -1q-20 0 -27 -16 l-51 -155q-25 -71 -41 -157q-4 -18 -4 -34v-31q4 -76 58.5 -98.5t166.5 -22.5q72 0 170.5 11.5t197.5 34t186 55t134 75.5q8 6 15 -10q-6 -8 -12.5 -28.5t-11.5 -45t-8 -46t-5 -30.5q-16 -35 -70 -49q-66 -16 -142.5 -29.5t-156.5 -23.5t-159.5 -16.5t-149.5 -6.5 q-111 0 -188.5 7.5t-127 25t-73 46t-25.5 69.5q0 39 13 72l12 35l25 72l32 90l31 91q14 43 23.5 75t9.5 40q0 6 -8.5 9t-40.5 3q-10 0 -19 9q0 6 6 18t17.5 25.5t22.5 23.5t20 12q57 10 75 68l22 69l32 103q16 53 27.5 98t6.5 58q-4 10 -18 10q-84 0 -166 -6t-137 -23l-6 2 q-1 8 -2 21q1 6 1 13zM496 -297q-2 35 20.5 64.5t65.5 29.5q31 0 56.5 -19.5t27.5 -70.5q2 -35 -24.5 -63.5t-61.5 -28.5q-33 0 -58.5 24.5t-25.5 63.5z" />
<glyph unicode="e&#x323;" horiz-adv-x="630" d="M108 176v12q0 78 25 160q27 88 75 161t116.5 120t148.5 47q47 0 86 -25q43 -27 43 -89q0 -39 -19 -79q-20 -43 -63 -76.5t-107.5 -55t-150.5 -21.5q-6 -23 -10 -61q-3 -25 -3 -49q0 -12 1 -23q4 -76 28.5 -94.5t65.5 -18.5q70 0 137.5 28.5t126.5 74.5t106.5 101.5 t73.5 106.5q4 4 14.5 -2t22.5 -15t22.5 -18.5t12.5 -13.5q-37 -66 -96.5 -131t-134 -118.5t-159.5 -86.5t-173 -33q-72 0 -128.5 53.5t-60.5 145.5zM280 418q20 -4 43 -4q31 0 62.5 11t57.5 29.5t41 42t15 48.5q0 20 -9 29.5t-40 9.5q-14 0 -38.5 -10.5t-50 -32t-47.5 -52 t-34 -71.5zM254 -297q-2 35 20.5 64.5t65.5 29.5q31 0 56.5 -19.5t27.5 -70.5q2 -35 -24.5 -63.5t-61.5 -28.5q-33 0 -58.5 24.5t-25.5 63.5z" />
<glyph unicode="E&#x309;" horiz-adv-x="1320" d="M204 1113q1 22 5 44.5t9 41t9 22.5q86 -6 181.5 -9.5t181.5 -3.5q20 0 64 1t102.5 3t126 5.5t134 5.5t127 3t103.5 1q14 0 19 -17l-9 -28l-13 -50q-7 -28 -13 -55.5t-8 -42.5l-11 2q-8 16 -16 29.5t-18 17.5q-90 12 -190.5 18.5t-201.5 6.5q-41 0 -57 -29 q-29 -49 -48 -88t-34.5 -79l-31.5 -85l-35 -104q-6 -25 24 -25q10 0 21.5 -1t28 -2t42.5 -1h68q127 0 219 7.5t186 29.5l9 -8q-2 -6 -10.5 -21.5t-15.5 -33.5l-13 -35q-6 -16 -6 -23q-2 -10 -23 -10q-72 0 -156 2t-170 2h-101q-40 0 -65.5 -1t-41 -2t-27.5 -1q-20 0 -27 -16 l-51 -155q-25 -71 -41 -157q-4 -18 -4 -34v-31q4 -76 58.5 -98.5t166.5 -22.5q72 0 170.5 11.5t197.5 34t186 55t134 75.5q8 6 15 -10q-6 -8 -12.5 -28.5t-11.5 -45t-8 -46t-5 -30.5q-16 -35 -70 -49q-66 -16 -142.5 -29.5t-156.5 -23.5t-159.5 -16.5t-149.5 -6.5 q-111 0 -188.5 7.5t-127 25t-73 46t-25.5 69.5q0 39 13 72l12 35l25 72l32 90l31 91q14 43 23.5 75t9.5 40q0 6 -8.5 9t-40.5 3q-10 0 -19 9q0 6 6 18t17.5 25.5t22.5 23.5t20 12q57 10 75 68l22 69l32 103q16 53 27.5 98t6.5 58q-4 10 -18 10q-84 0 -166 -6t-137 -23l-6 2 q-1 8 -2 21q1 6 1 13zM805 1331q0 4 2 18.5t6 16.5q80 33 117 80t37 88q-2 37 -21.5 54t-66.5 17q-23 0 -35.5 -4t-22.5 -4q-6 0 -8 12.5t-2 26.5t3 27.5t9 15.5q25 6 55.5 12.5t63.5 6.5q66 0 109 -33t47 -94q2 -57 -32 -107.5t-81 -87.5t-95 -57.5t-75 -20.5q-4 0 -7 14.5 t-3 18.5z" />
<glyph unicode="e&#x309;" horiz-adv-x="630" d="M108 176v12q0 78 25 160q27 88 75 161t116.5 120t148.5 47q47 0 86 -25q43 -27 43 -89q0 -39 -19 -79q-20 -43 -63 -76.5t-107.5 -55t-150.5 -21.5q-6 -23 -10 -61q-3 -25 -3 -49q0 -12 1 -23q4 -76 28.5 -94.5t65.5 -18.5q70 0 137.5 28.5t126.5 74.5t106.5 101.5 t73.5 106.5q4 4 14.5 -2t22.5 -15t22.5 -18.5t12.5 -13.5q-37 -66 -96.5 -131t-134 -118.5t-159.5 -86.5t-173 -33q-72 0 -128.5 53.5t-60.5 145.5zM280 418q20 -4 43 -4q31 0 62.5 11t57.5 29.5t41 42t15 48.5q0 20 -9 29.5t-40 9.5q-14 0 -38.5 -10.5t-50 -32t-47.5 -52 t-34 -71.5zM399 852q0 4 2 18.5t6 16.5q80 33 117 80t37 88q-2 37 -21.5 54t-66.5 17q-23 0 -35.5 -4t-22.5 -4q-6 0 -8 12.5t-2 26.5t3 27.5t9 15.5q25 6 55.5 12.5t63.5 6.5q66 0 109 -33t47 -94q2 -57 -32 -107.5t-81 -87.5t-95 -57.5t-75 -20.5q-4 0 -7 14.5t-3 18.5z " />
<glyph unicode="E&#x303;" horiz-adv-x="1320" d="M204 1113q1 22 5 44.5t9 41t9 22.5q86 -6 181.5 -9.5t181.5 -3.5q20 0 64 1t102.5 3t126 5.5t134 5.5t127 3t103.5 1q14 0 19 -17l-9 -28l-13 -50q-7 -28 -13 -55.5t-8 -42.5l-11 2q-8 16 -16 29.5t-18 17.5q-90 12 -190.5 18.5t-201.5 6.5q-41 0 -57 -29 q-29 -49 -48 -88t-34.5 -79l-31.5 -85l-35 -104q-6 -25 24 -25q10 0 21.5 -1t28 -2t42.5 -1h68q127 0 219 7.5t186 29.5l9 -8q-2 -6 -10.5 -21.5t-15.5 -33.5l-13 -35q-6 -16 -6 -23q-2 -10 -23 -10q-72 0 -156 2t-170 2h-101q-40 0 -65.5 -1t-41 -2t-27.5 -1q-20 0 -27 -16 l-51 -155q-25 -71 -41 -157q-4 -18 -4 -34v-31q4 -76 58.5 -98.5t166.5 -22.5q72 0 170.5 11.5t197.5 34t186 55t134 75.5q8 6 15 -10q-6 -8 -12.5 -28.5t-11.5 -45t-8 -46t-5 -30.5q-16 -35 -70 -49q-66 -16 -142.5 -29.5t-156.5 -23.5t-159.5 -16.5t-149.5 -6.5 q-111 0 -188.5 7.5t-127 25t-73 46t-25.5 69.5q0 39 13 72l12 35l25 72l32 90l31 91q14 43 23.5 75t9.5 40q0 6 -8.5 9t-40.5 3q-10 0 -19 9q0 6 6 18t17.5 25.5t22.5 23.5t20 12q57 10 75 68l22 69l32 103q16 53 27.5 98t6.5 58q-4 10 -18 10q-84 0 -166 -6t-137 -23l-6 2 q-1 8 -2 21q1 6 1 13zM547 1398q4 20 19 51t38.5 61t57.5 51.5t75 21.5q35 0 71 -18.5t69 -40.5l66 -40q32 -18 58 -18q35 0 54.5 21.5t9.5 56.5q-2 6 12 13t32.5 9t36 -2t19.5 -20q4 -37 -5 -71t-27.5 -60.5t-46 -43t-62.5 -16.5q-43 0 -82 16.5t-75 37t-69.5 37 t-64.5 16.5q-23 0 -35 -6.5t-19 -16.5t-12.5 -25.5t-13.5 -31.5q-6 -10 -24.5 -14.5t-38 -2t-32.5 11.5t-11 23z" />
<glyph unicode="e&#x303;" horiz-adv-x="630" d="M108 176v12q0 78 25 160q27 88 75 161t116.5 120t148.5 47q47 0 86 -25q43 -27 43 -89q0 -39 -19 -79q-20 -43 -63 -76.5t-107.5 -55t-150.5 -21.5q-6 -23 -10 -61q-3 -25 -3 -49q0 -12 1 -23q4 -76 28.5 -94.5t65.5 -18.5q70 0 137.5 28.5t126.5 74.5t106.5 101.5 t73.5 106.5q4 4 14.5 -2t22.5 -15t22.5 -18.5t12.5 -13.5q-37 -66 -96.5 -131t-134 -118.5t-159.5 -86.5t-173 -33q-72 0 -128.5 53.5t-60.5 145.5zM280 418q20 -4 43 -4q31 0 62.5 11t57.5 29.5t41 42t15 48.5q0 20 -9 29.5t-40 9.5q-14 0 -38.5 -10.5t-50 -32t-47.5 -52 t-34 -71.5zM248 952q4 20 19 51t38.5 61t57.5 51.5t75 21.5q35 0 71 -18.5t69 -40.5l66 -40q32 -18 58 -18q35 0 54.5 21.5t9.5 56.5q-2 6 12 13t32.5 9t36 -2t19.5 -20q4 -37 -5 -71t-27.5 -60.5t-46 -43t-62.5 -16.5q-43 0 -82 16.5t-75 37t-69.5 37t-64.5 16.5 q-23 0 -35 -6.5t-19 -16.5t-12.5 -25.5t-13.5 -31.5q-6 -10 -24.5 -14.5t-38 -2t-32.5 11.5t-11 23z" />
<glyph unicode="&#xca;&#x301;" horiz-adv-x="1320" d="M204 1113q1 22 5 44.5t9 41t9 22.5q86 -6 181.5 -9.5t181.5 -3.5q20 0 64 1t102.5 3t126 5.5t134 5.5t127 3t103.5 1q14 0 19 -17l-9 -28l-13 -50q-7 -28 -13 -55.5t-8 -42.5l-11 2q-8 16 -16 29.5t-18 17.5q-90 12 -190.5 18.5t-201.5 6.5q-41 0 -57 -29 q-29 -49 -48 -88t-34.5 -79l-31.5 -85l-35 -104q-6 -25 24 -25q10 0 21.5 -1t28 -2t42.5 -1h68q127 0 219 7.5t186 29.5l9 -8q-2 -6 -10.5 -21.5t-15.5 -33.5l-13 -35q-6 -16 -6 -23q-2 -10 -23 -10q-72 0 -156 2t-170 2h-101q-40 0 -65.5 -1t-41 -2t-27.5 -1q-20 0 -27 -16 l-51 -155q-25 -71 -41 -157q-4 -18 -4 -34v-31q4 -76 58.5 -98.5t166.5 -22.5q72 0 170.5 11.5t197.5 34t186 55t134 75.5q8 6 15 -10q-6 -8 -12.5 -28.5t-11.5 -45t-8 -46t-5 -30.5q-16 -35 -70 -49q-66 -16 -142.5 -29.5t-156.5 -23.5t-159.5 -16.5t-149.5 -6.5 q-111 0 -188.5 7.5t-127 25t-73 46t-25.5 69.5q0 39 13 72l12 35l25 72l32 90l31 91q14 43 23.5 75t9.5 40q0 6 -8.5 9t-40.5 3q-10 0 -19 9q0 6 6 18t17.5 25.5t22.5 23.5t20 12q57 10 75 68l22 69l32 103q16 53 27.5 98t6.5 58q-4 10 -18 10q-84 0 -166 -6t-137 -23l-6 2 q-1 8 -2 21q1 6 1 13zM674 1341q-4 16 14 41q27 35 61 73l69 78l72 77l66 67q8 8 20.5 6t16.5 -10q14 -43 33 -85l36 -81l30.5 -72.5t17.5 -58.5q6 -39 -2 -47q-2 -2 -15.5 -8t-28.5 -12l-29.5 -11.5t-20.5 -5.5t-10 23q-6 31 -11 54l-8 45q-4 22 -10 44.5t-19 50.5 q-4 14 -12 17.5t-16 -8.5q-18 -25 -35 -44l-31 -37l-29 -35q-15 -17 -32 -42q-20 -33 -29 -33q-2 0 -17.5 1l-32.5 2t-31.5 4t-16.5 7zM1086 1622l175 178l167 178q4 6 9 6h7q4 0 18 -9l28 -20q15 -11 28.5 -22.5t15.5 -15.5q4 -14 -2 -21q-45 -41 -90 -77l-93 -72l-99 -79 q-51 -42 -107 -93q-6 -6 -17 0t-20.5 15t-15.5 19.5t-4 12.5z" />
<glyph unicode="&#xea;&#x301;" horiz-adv-x="630" d="M108 176v12q0 78 25 160q27 88 75 161t116.5 120t148.5 47q47 0 86 -25q43 -27 43 -89q0 -39 -19 -79q-20 -43 -63 -76.5t-107.5 -55t-150.5 -21.5q-6 -23 -10 -61q-3 -25 -3 -49q0 -12 1 -23q4 -76 28.5 -94.5t65.5 -18.5q70 0 137.5 28.5t126.5 74.5t106.5 101.5 t73.5 106.5q4 4 14.5 -2t22.5 -15t22.5 -18.5t12.5 -13.5q-37 -66 -96.5 -131t-134 -118.5t-159.5 -86.5t-173 -33q-72 0 -128.5 53.5t-60.5 145.5zM280 418q20 -4 43 -4q31 0 62.5 11t57.5 29.5t41 42t15 48.5q0 20 -9 29.5t-40 9.5q-14 0 -38.5 -10.5t-50 -32t-47.5 -52 t-34 -71.5zM275 872q-4 16 14 41q27 35 61 73l69 78l72 77l66 67q8 8 20.5 6t16.5 -10q14 -43 33 -85l36 -81l30.5 -72.5t17.5 -58.5q6 -39 -2 -47q-2 -2 -15.5 -8t-28.5 -12l-29.5 -11.5t-20.5 -5.5t-10 23q-6 31 -11 54l-8 45q-4 22 -10 44.5t-19 50.5q-4 14 -12 17.5 t-16 -8.5q-18 -25 -35 -44l-31 -37l-29 -35q-15 -17 -32 -42q-20 -33 -29 -33q-2 0 -17.5 1l-32.5 2t-31.5 4t-16.5 7zM686 1145l175 178l167 178q4 6 9 6h7q4 0 18 -9l28 -20q15 -11 28.5 -22.5t15.5 -15.5q4 -14 -2 -21q-45 -41 -90 -77l-93 -72l-99 -79q-51 -42 -107 -93 q-6 -6 -17 0t-20.5 15t-15.5 19.5t-4 12.5z" />
<glyph unicode="&#xca;&#x300;" horiz-adv-x="1320" d="M204 1113q1 22 5 44.5t9 41t9 22.5q86 -6 181.5 -9.5t181.5 -3.5q20 0 64 1t102.5 3t126 5.5t134 5.5t127 3t103.5 1q14 0 19 -17l-9 -28l-13 -50q-7 -28 -13 -55.5t-8 -42.5l-11 2q-8 16 -16 29.5t-18 17.5q-90 12 -190.5 18.5t-201.5 6.5q-41 0 -57 -29 q-29 -49 -48 -88t-34.5 -79l-31.5 -85l-35 -104q-6 -25 24 -25q10 0 21.5 -1t28 -2t42.5 -1h68q127 0 219 7.5t186 29.5l9 -8q-2 -6 -10.5 -21.5t-15.5 -33.5l-13 -35q-6 -16 -6 -23q-2 -10 -23 -10q-72 0 -156 2t-170 2h-101q-40 0 -65.5 -1t-41 -2t-27.5 -1q-20 0 -27 -16 l-51 -155q-25 -71 -41 -157q-4 -18 -4 -34v-31q4 -76 58.5 -98.5t166.5 -22.5q72 0 170.5 11.5t197.5 34t186 55t134 75.5q8 6 15 -10q-6 -8 -12.5 -28.5t-11.5 -45t-8 -46t-5 -30.5q-16 -35 -70 -49q-66 -16 -142.5 -29.5t-156.5 -23.5t-159.5 -16.5t-149.5 -6.5 q-111 0 -188.5 7.5t-127 25t-73 46t-25.5 69.5q0 39 13 72l12 35l25 72l32 90l31 91q14 43 23.5 75t9.5 40q0 6 -8.5 9t-40.5 3q-10 0 -19 9q0 6 6 18t17.5 25.5t22.5 23.5t20 12q57 10 75 68l22 69l32 103q16 53 27.5 98t6.5 58q-4 10 -18 10q-84 0 -166 -6t-137 -23l-6 2 q-1 8 -2 21q1 6 1 13zM655 1349q-4 16 14 41q27 35 61 73l69 78l72 77l66 67q8 8 20.5 6t16.5 -10q14 -43 33 -85l36 -81l30.5 -72.5t17.5 -58.5q6 -39 -2 -47q-2 -2 -15.5 -8t-28.5 -12l-29.5 -11.5t-20.5 -5.5t-10 23q-6 31 -11 54l-8 45q-4 22 -10 44.5t-19 50.5 q-4 14 -12 17.5t-16 -8.5q-18 -25 -35 -44l-31 -37l-29 -35q-15 -17 -32 -42q-20 -33 -29 -33q-2 0 -17.5 1l-32.5 2t-31.5 4t-16.5 7zM998 1917q0 6 12 18.5t27.5 24t29.5 20.5t17 9h12q8 0 12 -6l37 -71q18 -36 43 -78l56.5 -91t76.5 -110q0 -6 -8 -14.5t-19.5 -15.5 t-20.5 -11t-11 0q-31 39 -68 81l-73 83l-68 83q-32 41 -55 78z" />
<glyph unicode="&#xea;&#x300;" horiz-adv-x="630" d="M108 176v12q0 78 25 160q27 88 75 161t116.5 120t148.5 47q47 0 86 -25q43 -27 43 -89q0 -39 -19 -79q-20 -43 -63 -76.5t-107.5 -55t-150.5 -21.5q-6 -23 -10 -61q-3 -25 -3 -49q0 -12 1 -23q4 -76 28.5 -94.5t65.5 -18.5q70 0 137.5 28.5t126.5 74.5t106.5 101.5 t73.5 106.5q4 4 14.5 -2t22.5 -15t22.5 -18.5t12.5 -13.5q-37 -66 -96.5 -131t-134 -118.5t-159.5 -86.5t-173 -33q-72 0 -128.5 53.5t-60.5 145.5zM280 418q20 -4 43 -4q31 0 62.5 11t57.5 29.5t41 42t15 48.5q0 20 -9 29.5t-40 9.5q-14 0 -38.5 -10.5t-50 -32t-47.5 -52 t-34 -71.5zM234 872q-4 16 14 41q27 35 61 73l69 78l72 77l66 67q8 8 20.5 6t16.5 -10q14 -43 33 -85l36 -81l30.5 -72.5t17.5 -58.5q6 -39 -2 -47q-2 -2 -15.5 -8t-28.5 -12l-29.5 -11.5t-20.5 -5.5t-10 23q-6 31 -11 54l-8 45q-4 22 -10 44.5t-19 50.5q-4 14 -12 17.5 t-16 -8.5q-18 -25 -35 -44l-31 -37l-29 -35q-15 -17 -32 -42q-20 -33 -29 -33q-2 0 -17.5 1l-32.5 2t-31.5 4t-16.5 7zM502 1472q0 6 12 18.5t27.5 24t29.5 20.5t17 9h12q8 0 12 -6l37 -71q18 -36 43 -78l56.5 -91t76.5 -110q0 -6 -8 -14.5t-19.5 -15.5t-20.5 -11t-11 0 q-31 39 -68 81l-73 83l-68 83q-32 41 -55 78z" />
<glyph unicode="&#xca;&#x309;" horiz-adv-x="1320" d="M204 1113q1 22 5 44.5t9 41t9 22.5q86 -6 181.5 -9.5t181.5 -3.5q20 0 64 1t102.5 3t126 5.5t134 5.5t127 3t103.5 1q14 0 19 -17l-9 -28l-13 -50q-7 -28 -13 -55.5t-8 -42.5l-11 2q-8 16 -16 29.5t-18 17.5q-90 12 -190.5 18.5t-201.5 6.5q-41 0 -57 -29 q-29 -49 -48 -88t-34.5 -79l-31.5 -85l-35 -104q-6 -25 24 -25q10 0 21.5 -1t28 -2t42.5 -1h68q127 0 219 7.5t186 29.5l9 -8q-2 -6 -10.5 -21.5t-15.5 -33.5l-13 -35q-6 -16 -6 -23q-2 -10 -23 -10q-72 0 -156 2t-170 2h-101q-40 0 -65.5 -1t-41 -2t-27.5 -1q-20 0 -27 -16 l-51 -155q-25 -71 -41 -157q-4 -18 -4 -34v-31q4 -76 58.5 -98.5t166.5 -22.5q72 0 170.5 11.5t197.5 34t186 55t134 75.5q8 6 15 -10q-6 -8 -12.5 -28.5t-11.5 -45t-8 -46t-5 -30.5q-16 -35 -70 -49q-66 -16 -142.5 -29.5t-156.5 -23.5t-159.5 -16.5t-149.5 -6.5 q-111 0 -188.5 7.5t-127 25t-73 46t-25.5 69.5q0 39 13 72l12 35l25 72l32 90l31 91q14 43 23.5 75t9.5 40q0 6 -8.5 9t-40.5 3q-10 0 -19 9q0 6 6 18t17.5 25.5t22.5 23.5t20 12q57 10 75 68l22 69l32 103q16 53 27.5 98t6.5 58q-4 10 -18 10q-84 0 -166 -6t-137 -23l-6 2 q-1 8 -2 21q1 6 1 13zM676 1388q-4 16 14 41q27 35 61 73l69 78l72 77l66 67q8 8 20.5 6t16.5 -10q14 -43 33 -85l36 -81l30.5 -72.5t17.5 -58.5q6 -39 -2 -47q-2 -2 -15.5 -8t-28.5 -12l-29.5 -11.5t-20.5 -5.5t-10 23q-6 31 -11 54l-8 45q-4 22 -10 44.5t-19 50.5 q-4 14 -12 17.5t-16 -8.5q-18 -25 -35 -44l-31 -37l-29 -35q-15 -17 -32 -42q-20 -33 -29 -33q-2 0 -17.5 1l-32.5 2t-31.5 4t-16.5 7zM1118 1651q0 4 2 18.5t6 16.5q80 33 117 80t37 88q-2 37 -21.5 54t-66.5 17q-23 0 -35.5 -4t-22.5 -4q-6 0 -8 12.5t-2 26.5t3 27.5 t9 15.5q25 6 55.5 12.5t63.5 6.5q66 0 109 -33t47 -94q2 -57 -32 -107.5t-81 -87.5t-95 -57.5t-75 -20.5q-4 0 -7 14.5t-3 18.5z" />
<glyph unicode="&#xea;&#x309;" horiz-adv-x="630" d="M108 176v12q0 78 25 160q27 88 75 161t116.5 120t148.5 47q47 0 86 -25q43 -27 43 -89q0 -39 -19 -79q-20 -43 -63 -76.5t-107.5 -55t-150.5 -21.5q-6 -23 -10 -61q-3 -25 -3 -49q0 -12 1 -23q4 -76 28.5 -94.5t65.5 -18.5q70 0 137.5 28.5t126.5 74.5t106.5 101.5 t73.5 106.5q4 4 14.5 -2t22.5 -15t22.5 -18.5t12.5 -13.5q-37 -66 -96.5 -131t-134 -118.5t-159.5 -86.5t-173 -33q-72 0 -128.5 53.5t-60.5 145.5zM280 418q20 -4 43 -4q31 0 62.5 11t57.5 29.5t41 42t15 48.5q0 20 -9 29.5t-40 9.5q-14 0 -38.5 -10.5t-50 -32t-47.5 -52 t-34 -71.5zM305 884q-4 16 14 41q27 35 61 73l69 78l72 77l66 67q8 8 20.5 6t16.5 -10q14 -43 33 -85l36 -81l30.5 -72.5t17.5 -58.5q6 -39 -2 -47q-2 -2 -15.5 -8t-28.5 -12l-29.5 -11.5t-20.5 -5.5t-10 23q-6 31 -11 54l-8 45q-4 22 -10 44.5t-19 50.5q-4 14 -12 17.5 t-16 -8.5q-18 -25 -35 -44l-31 -37l-29 -35q-15 -17 -32 -42q-20 -33 -29 -33q-2 0 -17.5 1l-32.5 2t-31.5 4t-16.5 7zM719 1135q0 4 2 18.5t6 16.5q80 33 117 80t37 88q-2 37 -21.5 54t-66.5 17q-23 0 -35.5 -4t-22.5 -4q-6 0 -8 12.5t-2 26.5t3 27.5t9 15.5 q25 6 55.5 12.5t63.5 6.5q66 0 109 -33t47 -94q2 -57 -32 -107.5t-81 -87.5t-95 -57.5t-75 -20.5q-4 0 -7 14.5t-3 18.5z" />
<glyph unicode="&#xca;&#x303;" horiz-adv-x="1320" d="M204 1113q1 22 5 44.5t9 41t9 22.5q86 -6 181.5 -9.5t181.5 -3.5q20 0 64 1t102.5 3t126 5.5t134 5.5t127 3t103.5 1q14 0 19 -17l-9 -28l-13 -50q-7 -28 -13 -55.5t-8 -42.5l-11 2q-8 16 -16 29.5t-18 17.5q-90 12 -190.5 18.5t-201.5 6.5q-41 0 -57 -29 q-29 -49 -48 -88t-34.5 -79l-31.5 -85l-35 -104q-6 -25 24 -25q10 0 21.5 -1t28 -2t42.5 -1h68q127 0 219 7.5t186 29.5l9 -8q-2 -6 -10.5 -21.5t-15.5 -33.5l-13 -35q-6 -16 -6 -23q-2 -10 -23 -10q-72 0 -156 2t-170 2h-101q-40 0 -65.5 -1t-41 -2t-27.5 -1q-20 0 -27 -16 l-51 -155q-25 -71 -41 -157q-4 -18 -4 -34v-31q4 -76 58.5 -98.5t166.5 -22.5q72 0 170.5 11.5t197.5 34t186 55t134 75.5q8 6 15 -10q-6 -8 -12.5 -28.5t-11.5 -45t-8 -46t-5 -30.5q-16 -35 -70 -49q-66 -16 -142.5 -29.5t-156.5 -23.5t-159.5 -16.5t-149.5 -6.5 q-111 0 -188.5 7.5t-127 25t-73 46t-25.5 69.5q0 39 13 72l12 35l25 72l32 90l31 91q14 43 23.5 75t9.5 40q0 6 -8.5 9t-40.5 3q-10 0 -19 9q0 6 6 18t17.5 25.5t22.5 23.5t20 12q57 10 75 68l22 69l32 103q16 53 27.5 98t6.5 58q-4 10 -18 10q-84 0 -166 -6t-137 -23l-6 2 q-1 8 -2 21q1 6 1 13zM658 1394q-4 16 14 41q27 35 61 73l69 78l72 77l66 67q8 8 20.5 6t16.5 -10q14 -43 33 -85l36 -81l30.5 -72.5t17.5 -58.5q6 -39 -2 -47q-2 -2 -15.5 -8t-28.5 -12l-29.5 -11.5t-20.5 -5.5t-10 23q-6 31 -11 54l-8 45q-4 22 -10 44.5t-19 50.5 q-4 14 -12 17.5t-16 -8.5q-18 -25 -35 -44l-31 -37l-29 -35q-15 -17 -32 -42q-20 -33 -29 -33q-2 0 -17.5 1l-32.5 2t-31.5 4t-16.5 7zM695 1822q4 20 19 51t38.5 61t57.5 51.5t75 21.5q35 0 71 -18.5t69 -40.5l66 -40q32 -18 58 -18q35 0 54.5 21.5t9.5 56.5q-2 6 12 13 t32.5 9t36 -2t19.5 -20q4 -37 -5 -71t-27.5 -60.5t-46 -43t-62.5 -16.5q-43 0 -82 16.5t-75 37t-69.5 37t-64.5 16.5q-23 0 -35 -6.5t-19 -16.5t-12.5 -25.5t-13.5 -31.5q-6 -10 -24.5 -14.5t-38 -2t-32.5 11.5t-11 23z" />
<glyph unicode="&#xea;&#x303;" horiz-adv-x="630" d="M108 176v12q0 78 25 160q27 88 75 161t116.5 120t148.5 47q47 0 86 -25q43 -27 43 -89q0 -39 -19 -79q-20 -43 -63 -76.5t-107.5 -55t-150.5 -21.5q-6 -23 -10 -61q-3 -25 -3 -49q0 -12 1 -23q4 -76 28.5 -94.5t65.5 -18.5q70 0 137.5 28.5t126.5 74.5t106.5 101.5 t73.5 106.5q4 4 14.5 -2t22.5 -15t22.5 -18.5t12.5 -13.5q-37 -66 -96.5 -131t-134 -118.5t-159.5 -86.5t-173 -33q-72 0 -128.5 53.5t-60.5 145.5zM280 418q20 -4 43 -4q31 0 62.5 11t57.5 29.5t41 42t15 48.5q0 20 -9 29.5t-40 9.5q-14 0 -38.5 -10.5t-50 -32t-47.5 -52 t-34 -71.5zM307 872q-4 16 14 41q27 35 61 73l69 78l72 77l66 67q8 8 20.5 6t16.5 -10q14 -43 33 -85l36 -81l30.5 -72.5t17.5 -58.5q6 -39 -2 -47q-2 -2 -15.5 -8t-28.5 -12l-29.5 -11.5t-20.5 -5.5t-10 23q-6 31 -11 54l-8 45q-4 22 -10 44.5t-19 50.5q-4 14 -12 17.5 t-16 -8.5q-18 -25 -35 -44l-31 -37l-29 -35q-15 -17 -32 -42q-20 -33 -29 -33q-2 0 -17.5 1l-32.5 2t-31.5 4t-16.5 7zM332 1351q4 20 19 51t38.5 61t57.5 51.5t75 21.5q35 0 71 -18.5t69 -40.5l66 -40q32 -18 58 -18q35 0 54.5 21.5t9.5 56.5q-2 6 12 13t32.5 9t36 -2 t19.5 -20q4 -37 -5 -71t-27.5 -60.5t-46 -43t-62.5 -16.5q-43 0 -82 16.5t-75 37t-69.5 37t-64.5 16.5q-23 0 -35 -6.5t-19 -16.5t-12.5 -25.5t-13.5 -31.5q-6 -10 -24.5 -14.5t-38 -2t-32.5 11.5t-11 23z" />
<glyph unicode="&#xca;&#x323;" horiz-adv-x="1320" d="M204 1113q1 22 5 44.5t9 41t9 22.5q86 -6 181.5 -9.5t181.5 -3.5q20 0 64 1t102.5 3t126 5.5t134 5.5t127 3t103.5 1q14 0 19 -17l-9 -28l-13 -50q-7 -28 -13 -55.5t-8 -42.5l-11 2q-8 16 -16 29.5t-18 17.5q-90 12 -190.5 18.5t-201.5 6.5q-41 0 -57 -29 q-29 -49 -48 -88t-34.5 -79l-31.5 -85l-35 -104q-6 -25 24 -25q10 0 21.5 -1t28 -2t42.5 -1h68q127 0 219 7.5t186 29.5l9 -8q-2 -6 -10.5 -21.5t-15.5 -33.5l-13 -35q-6 -16 -6 -23q-2 -10 -23 -10q-72 0 -156 2t-170 2h-101q-40 0 -65.5 -1t-41 -2t-27.5 -1q-20 0 -27 -16 l-51 -155q-25 -71 -41 -157q-4 -18 -4 -34v-31q4 -76 58.5 -98.5t166.5 -22.5q72 0 170.5 11.5t197.5 34t186 55t134 75.5q8 6 15 -10q-6 -8 -12.5 -28.5t-11.5 -45t-8 -46t-5 -30.5q-16 -35 -70 -49q-66 -16 -142.5 -29.5t-156.5 -23.5t-159.5 -16.5t-149.5 -6.5 q-111 0 -188.5 7.5t-127 25t-73 46t-25.5 69.5q0 39 13 72l12 35l25 72l32 90l31 91q14 43 23.5 75t9.5 40q0 6 -8.5 9t-40.5 3q-10 0 -19 9q0 6 6 18t17.5 25.5t22.5 23.5t20 12q57 10 75 68l22 69l32 103q16 53 27.5 98t6.5 58q-4 10 -18 10q-84 0 -166 -6t-137 -23l-6 2 q-1 8 -2 21q1 6 1 13zM483 -297q-2 35 20.5 64.5t65.5 29.5q31 0 56.5 -19.5t27.5 -70.5q2 -35 -24.5 -63.5t-61.5 -28.5q-33 0 -58.5 24.5t-25.5 63.5zM660 1388q-4 16 14 41q27 35 61 73l69 78l72 77l66 67q8 8 20.5 6t16.5 -10q14 -43 33 -85l36 -81l30.5 -72.5 t17.5 -58.5q6 -39 -2 -47q-2 -2 -15.5 -8t-28.5 -12l-29.5 -11.5t-20.5 -5.5t-10 23q-6 31 -11 54l-8 45q-4 22 -10 44.5t-19 50.5q-4 14 -12 17.5t-16 -8.5q-18 -25 -35 -44l-31 -37l-29 -35q-15 -17 -32 -42q-20 -33 -29 -33q-2 0 -17.5 1l-32.5 2t-31.5 4t-16.5 7z" />
<glyph unicode="&#xea;&#x323;" horiz-adv-x="630" d="M108 176v12q0 78 25 160q27 88 75 161t116.5 120t148.5 47q47 0 86 -25q43 -27 43 -89q0 -39 -19 -79q-20 -43 -63 -76.5t-107.5 -55t-150.5 -21.5q-6 -23 -10 -61q-3 -25 -3 -49q0 -12 1 -23q4 -76 28.5 -94.5t65.5 -18.5q70 0 137.5 28.5t126.5 74.5t106.5 101.5 t73.5 106.5q4 4 14.5 -2t22.5 -15t22.5 -18.5t12.5 -13.5q-37 -66 -96.5 -131t-134 -118.5t-159.5 -86.5t-173 -33q-72 0 -128.5 53.5t-60.5 145.5zM280 418q20 -4 43 -4q31 0 62.5 11t57.5 29.5t41 42t15 48.5q0 20 -9 29.5t-40 9.5q-14 0 -38.5 -10.5t-50 -32t-47.5 -52 t-34 -71.5zM307 -297q-2 35 20.5 64.5t65.5 29.5q31 0 56.5 -19.5t27.5 -70.5q2 -35 -24.5 -63.5t-61.5 -28.5q-33 0 -58.5 24.5t-25.5 63.5zM246 872q-4 16 14 41q27 35 61 73l69 78l72 77l66 67q8 8 20.5 6t16.5 -10q14 -43 33 -85l36 -81l30.5 -72.5t17.5 -58.5 q6 -39 -2 -47q-2 -2 -15.5 -8t-28.5 -12l-29.5 -11.5t-20.5 -5.5t-10 23q-6 31 -11 54l-8 45q-4 22 -10 44.5t-19 50.5q-4 14 -12 17.5t-16 -8.5q-18 -25 -35 -44l-31 -37l-29 -35q-15 -17 -32 -42q-20 -33 -29 -33q-2 0 -17.5 1l-32.5 2t-31.5 4t-16.5 7z" />
<glyph unicode="I&#x309;" horiz-adv-x="749" d="M90 14q47 4 72 41q25 43 61 118l79 165q42 90 84 191l78 196q36 94 61.5 177t31.5 138q2 10 1 17.5t-3 15.5q-4 16 -27.5 22.5t-60.5 6.5q-35 0 -76 -3t-76 -9l-10 2q0 4 4 20l8.5 34.5l8.5 34t6 19.5q57 4 122 7l126 6q61 3 114.5 8.5t87.5 11.5q12 -4 16.5 -27.5 t6.5 -31.5q4 -6 -12 -11q-18 -6 -29.5 -15t-20.5 -34q-41 -104 -87 -234l-94 -270l-99 -278q-51 -139 -103 -262q-18 -33 -49.5 -50.5t-66.5 -23.5q-30 -5 -61 -5h-11q-37 1 -68 3q-2 2 -6 8zM545 1374q0 4 2 18.5t6 16.5q80 33 117 80t37 88q-2 37 -21.5 54t-66.5 17 q-23 0 -35.5 -4t-22.5 -4q-6 0 -8 12.5t-2 26.5t3 27.5t9 15.5q25 6 55.5 12.5t63.5 6.5q66 0 109 -33t47 -94q2 -57 -32 -107.5t-81 -87.5t-95 -57.5t-75 -20.5q-4 0 -7 14.5t-3 18.5z" />
<glyph unicode="i&#x309;" horiz-adv-x="573" d="M273 852q0 4 2 18.5t6 16.5q80 33 117 80t37 88q-2 37 -21.5 54t-66.5 17q-23 0 -35.5 -4t-22.5 -4q-6 0 -8 12.5t-2 26.5t3 27.5t9 15.5q25 6 55.5 12.5t63.5 6.5q66 0 109 -33t47 -94q2 -57 -32 -107.5t-81 -87.5t-95 -57.5t-75 -20.5q-4 0 -7 14.5t-3 18.5zM98 111 q-2 45 17.5 118.5t45 149.5t53.5 142.5t44 99.5q6 12 25.5 22t41 18.5t41 12.5t25.5 4q16 0 19 -8q0 -6 -1 -18.5t-8 -18.5q-27 -53 -54.5 -118.5t-50 -131.5t-36.5 -123t-12 -94q2 -47 10 -61.5t43 -14.5q59 0 121.5 37t119 90t102.5 112.5t71 104.5q4 8 16 4t25.5 -14 t22.5 -22.5t5 -18.5q-39 -72 -95 -143.5t-123.5 -130t-144.5 -94t-159 -35.5q-25 0 -53.5 6t-53 20t-41 40t-16.5 65z" />
<glyph unicode="I&#x323;" horiz-adv-x="749" d="M90 14q47 4 72 41q25 43 61 118l79 165q42 90 84 191l78 196q36 94 61.5 177t31.5 138q2 10 1 17.5t-3 15.5q-4 16 -27.5 22.5t-60.5 6.5q-35 0 -76 -3t-76 -9l-10 2q0 4 4 20l8.5 34.5l8.5 34t6 19.5q57 4 122 7l126 6q61 3 114.5 8.5t87.5 11.5q12 -4 16.5 -27.5 t6.5 -31.5q4 -6 -12 -11q-18 -6 -29.5 -15t-20.5 -34q-41 -104 -87 -234l-94 -270l-99 -278q-51 -139 -103 -262q-18 -33 -49.5 -50.5t-66.5 -23.5q-30 -5 -61 -5h-11q-37 1 -68 3q-2 2 -6 8zM156 -297q-2 35 20.5 64.5t65.5 29.5q31 0 56.5 -19.5t27.5 -70.5 q2 -35 -24.5 -63.5t-61.5 -28.5q-33 0 -58.5 24.5t-25.5 63.5z" />
<glyph unicode="i&#x323;" horiz-adv-x="552" d="M98 119q0 43 18 110q19 74 44.5 150t53.5 142.5t44 99.5q6 12 25.5 22t41 18.5t41 12.5t25.5 4q16 0 19 -8q0 -6 -1 -18.5t-8 -18.5q-27 -53 -54.5 -118.5t-50 -131.5t-36.5 -123q-13 -50 -12 -85v-9q2 -47 10 -61.5t43 -14.5q59 0 121.5 37t119 90t102.5 112.5t71 104.5 q4 8 16 4t25.5 -14t22.5 -23q6 -9 7 -14q0 -2 -2 -4q-39 -72 -95 -143.5t-123.5 -130t-144.5 -94t-159 -35.5q-25 0 -53.5 6t-53 20t-41 40t-16.5 73zM340 1004q-2 9 -2 18q0 12 3 25q5 23 18.5 41t33 29t39.5 11t37.5 -10t22.5 -31q2 -8 1 -17q0 -11 -3 -22 q-5 -22 -17 -39.5t-30.5 -29.5t-39.5 -12q-18 0 -37.5 9.5t-25.5 27.5zM94 -297q-2 35 20.5 64.5t65.5 29.5q31 0 56.5 -19.5t27.5 -70.5q2 -35 -24.5 -63.5t-61.5 -28.5q-33 0 -58.5 24.5t-25.5 63.5z" />
<glyph unicode="O&#x323;" horiz-adv-x="1609" d="M240 457q-1 21 -1 41q0 150 40 276q45 143 134 246.5t220 160t299 56.5q115 0 220 -29.5t188 -91t135.5 -157t56.5 -228.5q1 -19 1 -38q0 -133 -38 -253q-43 -137 -129 -240.5t-213 -165t-291 -61.5q-123 0 -233.5 28t-195.5 86t-137 149.5t-56 220.5zM420 428 q4 -94 39 -157.5t92 -102.5t131 -56.5t154 -17.5q143 0 243.5 51.5t162 140.5t87.5 209q23 104 23 220v37q-6 184 -118 277t-292 93q-147 0 -249.5 -54t-164 -147.5t-87.5 -220.5q-22 -109 -22 -232q0 -20 1 -40zM735 -297q-2 35 20.5 64.5t65.5 29.5q31 0 56.5 -19.5 t27.5 -70.5q2 -35 -24.5 -63.5t-61.5 -28.5q-33 0 -58.5 24.5t-25.5 63.5z" />
<glyph unicode="o&#x323;" horiz-adv-x="780" d="M86 176v12q0 92 31 174q33 88 91 156t136 109t164 43q4 25 8 56.5t33 37.5q14 4 40 7t36 9q3 3 8 4q4 0 9 -3q11 -5 7 -17q-6 -16 -11 -42t-3 -52q2 -51 10.5 -95.5t28.5 -77t52 -52t81 -19.5q31 0 62.5 12.5t60.5 33t54.5 48t41.5 58.5q2 6 15.5 0.5t29 -15.5t25.5 -21 q6 -7 6 -12q0 -3 -2 -6q-18 -35 -49 -67.5t-70 -59t-84 -42t-94 -15.5q-51 0 -94 13.5t-82 47.5q-8 -61 -26.5 -133.5t-54.5 -137t-96.5 -107.5t-154.5 -43q-47 0 -85 17t-65.5 46t-42 63.5t-16.5 69.5zM238 186q0 -14 2 -32.5t8 -33t17.5 -24.5t31.5 -10q53 0 99.5 51 t80 121t51.5 142q14 59 14 99q0 9 -1 17q-6 14 -9 26l-10 33q-2 14 -14 15q-55 0 -104.5 -39t-87 -98.5t-59.5 -129.5q-20 -65 -19 -125v-12zM184 -297q-2 35 20.5 64.5t65.5 29.5q31 0 56.5 -19.5t27.5 -70.5q2 -35 -24.5 -63.5t-61.5 -28.5q-33 0 -58.5 24.5t-25.5 63.5z " />
<glyph unicode="O&#x309;" horiz-adv-x="1609" d="M240 457q-1 21 -1 41q0 150 40 276q45 143 134 246.5t220 160t299 56.5q115 0 220 -29.5t188 -91t135.5 -157t56.5 -228.5q1 -19 1 -38q0 -133 -38 -253q-43 -137 -129 -240.5t-213 -165t-291 -61.5q-123 0 -233.5 28t-195.5 86t-137 149.5t-56 220.5zM420 428 q4 -94 39 -157.5t92 -102.5t131 -56.5t154 -17.5q143 0 243.5 51.5t162 140.5t87.5 209q23 104 23 220v37q-6 184 -118 277t-292 93q-147 0 -249.5 -54t-164 -147.5t-87.5 -220.5q-22 -109 -22 -232q0 -20 1 -40zM993 1346q0 4 2 18.5t6 16.5q80 33 117 80t37 88 q-2 37 -21.5 54t-66.5 17q-23 0 -35.5 -4t-22.5 -4q-6 0 -8 12.5t-2 26.5t3 27.5t9 15.5q25 6 55.5 12.5t63.5 6.5q66 0 109 -33t47 -94q2 -57 -32 -107.5t-81 -87.5t-95 -57.5t-75 -20.5q-4 0 -7 14.5t-3 18.5z" />
<glyph unicode="o&#x309;" horiz-adv-x="780" d="M86 176v12q0 92 31 174q33 88 91 156t136 109t164 43q4 25 8 56.5t33 37.5q14 4 40 7t36 9q3 3 8 4q4 0 9 -3q11 -5 7 -17q-6 -16 -11 -42t-3 -52q2 -51 10.5 -95.5t28.5 -77t52 -52t81 -19.5q31 0 62.5 12.5t60.5 33t54.5 48t41.5 58.5q2 6 15.5 0.5t29 -15.5t25.5 -21 q6 -7 6 -12q0 -3 -2 -6q-18 -35 -49 -67.5t-70 -59t-84 -42t-94 -15.5q-51 0 -94 13.5t-82 47.5q-8 -61 -26.5 -133.5t-54.5 -137t-96.5 -107.5t-154.5 -43q-47 0 -85 17t-65.5 46t-42 63.5t-16.5 69.5zM238 186q0 -14 2 -32.5t8 -33t17.5 -24.5t31.5 -10q53 0 99.5 51 t80 121t51.5 142q14 59 14 99q0 9 -1 17q-6 14 -9 26l-10 33q-2 14 -14 15q-55 0 -104.5 -39t-87 -98.5t-59.5 -129.5q-20 -65 -19 -125v-12zM410 852q0 4 2 18.5t6 16.5q80 33 117 80t37 88q-2 37 -21.5 54t-66.5 17q-23 0 -35.5 -4t-22.5 -4q-6 0 -8 12.5t-2 26.5t3 27.5 t9 15.5q25 6 55.5 12.5t63.5 6.5q66 0 109 -33t47 -94q2 -57 -32 -107.5t-81 -87.5t-95 -57.5t-75 -20.5q-4 0 -7 14.5t-3 18.5z" />
<glyph unicode="&#xd4;&#x301;" horiz-adv-x="1609" d="M240 457q-1 21 -1 41q0 150 40 276q45 143 134 246.5t220 160t299 56.5q115 0 220 -29.5t188 -91t135.5 -157t56.5 -228.5q1 -19 1 -38q0 -133 -38 -253q-43 -137 -129 -240.5t-213 -165t-291 -61.5q-123 0 -233.5 28t-195.5 86t-137 149.5t-56 220.5zM420 428 q4 -94 39 -157.5t92 -102.5t131 -56.5t154 -17.5q143 0 243.5 51.5t162 140.5t87.5 209q23 104 23 220v37q-6 184 -118 277t-292 93q-147 0 -249.5 -54t-164 -147.5t-87.5 -220.5q-22 -109 -22 -232q0 -20 1 -40zM782 1376q-4 16 14 41q27 35 61 73l69 78l72 77l66 67 q8 8 20.5 6t16.5 -10q14 -43 33 -85l36 -81l30.5 -72.5t17.5 -58.5q6 -39 -2 -47q-2 -2 -15.5 -8t-28.5 -12l-29.5 -11.5t-20.5 -5.5t-10 23q-6 31 -11 54l-8 45q-4 22 -10 44.5t-19 50.5q-4 14 -12 17.5t-16 -8.5q-18 -25 -35 -44l-31 -37l-29 -35q-15 -17 -32 -42 q-20 -33 -29 -33q-2 0 -17.5 1l-32.5 2t-31.5 4t-16.5 7zM1208 1618l175 178l167 178q4 6 9 6h7q4 0 18 -9l28 -20q15 -11 28.5 -22.5t15.5 -15.5q4 -14 -2 -21q-45 -41 -90 -77l-93 -72l-99 -79q-51 -42 -107 -93q-6 -6 -17 0t-20.5 15t-15.5 19.5t-4 12.5z" />
<glyph unicode="&#xf4;&#x301;" horiz-adv-x="780" d="M86 176v12q0 92 31 174q33 88 91 156t136 109t164 43q4 25 8 56.5t33 37.5q14 4 40 7t36 9q3 3 8 4q4 0 9 -3q11 -5 7 -17q-6 -16 -11 -42t-3 -52q2 -51 10.5 -95.5t28.5 -77t52 -52t81 -19.5q31 0 62.5 12.5t60.5 33t54.5 48t41.5 58.5q2 6 15.5 0.5t29 -15.5t25.5 -21 q6 -7 6 -12q0 -3 -2 -6q-18 -35 -49 -67.5t-70 -59t-84 -42t-94 -15.5q-51 0 -94 13.5t-82 47.5q-8 -61 -26.5 -133.5t-54.5 -137t-96.5 -107.5t-154.5 -43q-47 0 -85 17t-65.5 46t-42 63.5t-16.5 69.5zM238 186q0 -14 2 -32.5t8 -33t17.5 -24.5t31.5 -10q53 0 99.5 51 t80 121t51.5 142q14 59 14 99q0 9 -1 17q-6 14 -9 26l-10 33q-2 14 -14 15q-55 0 -104.5 -39t-87 -98.5t-59.5 -129.5q-20 -65 -19 -125v-12zM303 872q-4 16 14 41q27 35 61 73l69 78l72 77l66 67q8 8 20.5 6t16.5 -10q14 -43 33 -85l36 -81l30.5 -72.5t17.5 -58.5 q6 -39 -2 -47q-2 -2 -15.5 -8t-28.5 -12l-29.5 -11.5t-20.5 -5.5t-10 23q-6 31 -11 54l-8 45q-4 22 -10 44.5t-19 50.5q-4 14 -12 17.5t-16 -8.5q-18 -25 -35 -44l-31 -37l-29 -35q-15 -17 -32 -42q-20 -33 -29 -33q-2 0 -17.5 1l-32.5 2t-31.5 4t-16.5 7zM729 1161l175 178 l167 178q4 6 9 6h7q4 0 18 -9l28 -20q15 -11 28.5 -22.5t15.5 -15.5q4 -14 -2 -21q-45 -41 -90 -77l-93 -72l-99 -79q-51 -42 -107 -93q-6 -6 -17 0t-20.5 15t-15.5 19.5t-4 12.5z" />
<glyph unicode="&#xd4;&#x300;" horiz-adv-x="1609" d="M240 457q-1 21 -1 41q0 150 40 276q45 143 134 246.5t220 160t299 56.5q115 0 220 -29.5t188 -91t135.5 -157t56.5 -228.5q1 -19 1 -38q0 -133 -38 -253q-43 -137 -129 -240.5t-213 -165t-291 -61.5q-123 0 -233.5 28t-195.5 86t-137 149.5t-56 220.5zM420 428 q4 -94 39 -157.5t92 -102.5t131 -56.5t154 -17.5q143 0 243.5 51.5t162 140.5t87.5 209q23 104 23 220v37q-6 184 -118 277t-292 93q-147 0 -249.5 -54t-164 -147.5t-87.5 -220.5q-22 -109 -22 -232q0 -20 1 -40zM797 1386q-4 16 14 41q27 35 61 73l69 78l72 77l66 67 q8 8 20.5 6t16.5 -10q14 -43 33 -85l36 -81l30.5 -72.5t17.5 -58.5q6 -39 -2 -47q-2 -2 -15.5 -8t-28.5 -12l-29.5 -11.5t-20.5 -5.5t-10 23q-6 31 -11 54l-8 45q-4 22 -10 44.5t-19 50.5q-4 14 -12 17.5t-16 -8.5q-18 -25 -35 -44l-31 -37l-29 -35q-15 -17 -32 -42 q-20 -33 -29 -33q-2 0 -17.5 1l-32.5 2t-31.5 4t-16.5 7zM1106 1939q0 6 12 18.5t27.5 24t29.5 20.5t17 9h12q8 0 12 -6l37 -71q18 -36 43 -78l56.5 -91t76.5 -110q0 -6 -8 -14.5t-19.5 -15.5t-20.5 -11t-11 0q-31 39 -68 81l-73 83l-68 83q-32 41 -55 78z" />
<glyph unicode="&#xf4;&#x300;" horiz-adv-x="780" d="M86 176v12q0 92 31 174q33 88 91 156t136 109t164 43q4 25 8 56.5t33 37.5q14 4 40 7t36 9q3 3 8 4q4 0 9 -3q11 -5 7 -17q-6 -16 -11 -42t-3 -52q2 -51 10.5 -95.5t28.5 -77t52 -52t81 -19.5q31 0 62.5 12.5t60.5 33t54.5 48t41.5 58.5q2 6 15.5 0.5t29 -15.5t25.5 -21 q6 -7 6 -12q0 -3 -2 -6q-18 -35 -49 -67.5t-70 -59t-84 -42t-94 -15.5q-51 0 -94 13.5t-82 47.5q-8 -61 -26.5 -133.5t-54.5 -137t-96.5 -107.5t-154.5 -43q-47 0 -85 17t-65.5 46t-42 63.5t-16.5 69.5zM238 186q0 -14 2 -32.5t8 -33t17.5 -24.5t31.5 -10q53 0 99.5 51 t80 121t51.5 142q14 59 14 99q0 9 -1 17q-6 14 -9 26l-10 33q-2 14 -14 15q-55 0 -104.5 -39t-87 -98.5t-59.5 -129.5q-20 -65 -19 -125v-12zM287 872q-4 16 14 41q27 35 61 73l69 78l72 77l66 67q8 8 20.5 6t16.5 -10q14 -43 33 -85l36 -81l30.5 -72.5t17.5 -58.5 q6 -39 -2 -47q-2 -2 -15.5 -8t-28.5 -12l-29.5 -11.5t-20.5 -5.5t-10 23q-6 31 -11 54l-8 45q-4 22 -10 44.5t-19 50.5q-4 14 -12 17.5t-16 -8.5q-18 -25 -35 -44l-31 -37l-29 -35q-15 -17 -32 -42q-20 -33 -29 -33q-2 0 -17.5 1l-32.5 2t-31.5 4t-16.5 7zM596 1458 q0 6 12 18.5t27.5 24t29.5 20.5t17 9h12q8 0 12 -6l37 -71q18 -36 43 -78l56.5 -91t76.5 -110q0 -6 -8 -14.5t-19.5 -15.5t-20.5 -11t-11 0q-31 39 -68 81l-73 83l-68 83q-32 41 -55 78z" />
<glyph unicode="&#xd4;&#x309;" horiz-adv-x="1609" d="M240 457q-1 21 -1 41q0 150 40 276q45 143 134 246.5t220 160t299 56.5q115 0 220 -29.5t188 -91t135.5 -157t56.5 -228.5q1 -19 1 -38q0 -133 -38 -253q-43 -137 -129 -240.5t-213 -165t-291 -61.5q-123 0 -233.5 28t-195.5 86t-137 149.5t-56 220.5zM420 428 q4 -94 39 -157.5t92 -102.5t131 -56.5t154 -17.5q143 0 243.5 51.5t162 140.5t87.5 209q23 104 23 220v37q-6 184 -118 277t-292 93q-147 0 -249.5 -54t-164 -147.5t-87.5 -220.5q-22 -109 -22 -232q0 -20 1 -40zM785 1382q-4 16 14 41q27 35 61 73l69 78l72 77l66 67 q8 8 20.5 6t16.5 -10q14 -43 33 -85l36 -81l30.5 -72.5t17.5 -58.5q6 -39 -2 -47q-2 -2 -15.5 -8t-28.5 -12l-29.5 -11.5t-20.5 -5.5t-10 23q-6 31 -11 54l-8 45q-4 22 -10 44.5t-19 50.5q-4 14 -12 17.5t-16 -8.5q-18 -25 -35 -44l-31 -37l-29 -35q-15 -17 -32 -42 q-20 -33 -29 -33q-2 0 -17.5 1l-32.5 2t-31.5 4t-16.5 7zM1251 1624q0 4 2 18.5t6 16.5q80 33 117 80t37 88q-2 37 -21.5 54t-66.5 17q-23 0 -35.5 -4t-22.5 -4q-6 0 -8 12.5t-2 26.5t3 27.5t9 15.5q25 6 55.5 12.5t63.5 6.5q66 0 109 -33t47 -94q2 -57 -32 -107.5 t-81 -87.5t-95 -57.5t-75 -20.5q-4 0 -7 14.5t-3 18.5z" />
<glyph unicode="&#xf4;&#x309;" horiz-adv-x="780" d="M86 176v12q0 92 31 174q33 88 91 156t136 109t164 43q4 25 8 56.5t33 37.5q14 4 40 7t36 9q3 3 8 4q4 0 9 -3q11 -5 7 -17q-6 -16 -11 -42t-3 -52q2 -51 10.5 -95.5t28.5 -77t52 -52t81 -19.5q31 0 62.5 12.5t60.5 33t54.5 48t41.5 58.5q2 6 15.5 0.5t29 -15.5t25.5 -21 q6 -7 6 -12q0 -3 -2 -6q-18 -35 -49 -67.5t-70 -59t-84 -42t-94 -15.5q-51 0 -94 13.5t-82 47.5q-8 -61 -26.5 -133.5t-54.5 -137t-96.5 -107.5t-154.5 -43q-47 0 -85 17t-65.5 46t-42 63.5t-16.5 69.5zM238 186q0 -14 2 -32.5t8 -33t17.5 -24.5t31.5 -10q53 0 99.5 51 t80 121t51.5 142q14 59 14 99q0 9 -1 17q-6 14 -9 26l-10 33q-2 14 -14 15q-55 0 -104.5 -39t-87 -98.5t-59.5 -129.5q-20 -65 -19 -125v-12zM285 872q-4 16 14 41q27 35 61 73l69 78l72 77l66 67q8 8 20.5 6t16.5 -10q14 -43 33 -85l36 -81l30.5 -72.5t17.5 -58.5 q6 -39 -2 -47q-2 -2 -15.5 -8t-28.5 -12l-29.5 -11.5t-20.5 -5.5t-10 23q-6 31 -11 54l-8 45q-4 22 -10 44.5t-19 50.5q-4 14 -12 17.5t-16 -8.5q-18 -25 -35 -44l-31 -37l-29 -35q-15 -17 -32 -42q-20 -33 -29 -33q-2 0 -17.5 1l-32.5 2t-31.5 4t-16.5 7zM707 1151 q0 4 2 18.5t6 16.5q80 33 117 80t37 88q-2 37 -21.5 54t-66.5 17q-23 0 -35.5 -4t-22.5 -4q-6 0 -8 12.5t-2 26.5t3 27.5t9 15.5q25 6 55.5 12.5t63.5 6.5q66 0 109 -33t47 -94q2 -57 -32 -107.5t-81 -87.5t-95 -57.5t-75 -20.5q-4 0 -7 14.5t-3 18.5z" />
<glyph unicode="&#xd4;&#x303;" horiz-adv-x="1609" d="M240 457q-1 21 -1 41q0 150 40 276q45 143 134 246.5t220 160t299 56.5q115 0 220 -29.5t188 -91t135.5 -157t56.5 -228.5q1 -19 1 -38q0 -133 -38 -253q-43 -137 -129 -240.5t-213 -165t-291 -61.5q-123 0 -233.5 28t-195.5 86t-137 149.5t-56 220.5zM420 428 q4 -94 39 -157.5t92 -102.5t131 -56.5t154 -17.5q143 0 243.5 51.5t162 140.5t87.5 209q23 104 23 220v37q-6 184 -118 277t-292 93q-147 0 -249.5 -54t-164 -147.5t-87.5 -220.5q-22 -109 -22 -232q0 -20 1 -40zM793 1370q-4 16 14 41q27 35 61 73l69 78l72 77l66 67 q8 8 20.5 6t16.5 -10q14 -43 33 -85l36 -81l30.5 -72.5t17.5 -58.5q6 -39 -2 -47q-2 -2 -15.5 -8t-28.5 -12l-29.5 -11.5t-20.5 -5.5t-10 23q-6 31 -11 54l-8 45q-4 22 -10 44.5t-19 50.5q-4 14 -12 17.5t-16 -8.5q-18 -25 -35 -44l-31 -37l-29 -35q-15 -17 -32 -42 q-20 -33 -29 -33q-2 0 -17.5 1l-32.5 2t-31.5 4t-16.5 7zM846 1810q4 20 19 51t38.5 61t57.5 51.5t75 21.5q35 0 71 -18.5t69 -40.5l66 -40q32 -18 58 -18q35 0 54.5 21.5t9.5 56.5q-2 6 12 13t32.5 9t36 -2t19.5 -20q4 -37 -5 -71t-27.5 -60.5t-46 -43t-62.5 -16.5 q-43 0 -82 16.5t-75 37t-69.5 37t-64.5 16.5q-23 0 -35 -6.5t-19 -16.5t-12.5 -25.5t-13.5 -31.5q-6 -10 -24.5 -14.5t-38 -2t-32.5 11.5t-11 23z" />
<glyph unicode="&#xf4;&#x303;" horiz-adv-x="780" d="M86 176v12q0 92 31 174q33 88 91 156t136 109t164 43q4 25 8 56.5t33 37.5q14 4 40 7t36 9q3 3 8 4q4 0 9 -3q11 -5 7 -17q-6 -16 -11 -42t-3 -52q2 -51 10.5 -95.5t28.5 -77t52 -52t81 -19.5q31 0 62.5 12.5t60.5 33t54.5 48t41.5 58.5q2 6 15.5 0.5t29 -15.5t25.5 -21 q6 -7 6 -12q0 -3 -2 -6q-18 -35 -49 -67.5t-70 -59t-84 -42t-94 -15.5q-51 0 -94 13.5t-82 47.5q-8 -61 -26.5 -133.5t-54.5 -137t-96.5 -107.5t-154.5 -43q-47 0 -85 17t-65.5 46t-42 63.5t-16.5 69.5zM238 186q0 -14 2 -32.5t8 -33t17.5 -24.5t31.5 -10q53 0 99.5 51 t80 121t51.5 142q14 59 14 99q0 9 -1 17q-6 14 -9 26l-10 33q-2 14 -14 15q-55 0 -104.5 -39t-87 -98.5t-59.5 -129.5q-20 -65 -19 -125v-12zM287 872q-4 16 14 41q27 35 61 73l69 78l72 77l66 67q8 8 20.5 6t16.5 -10q14 -43 33 -85l36 -81l30.5 -72.5t17.5 -58.5 q6 -39 -2 -47q-2 -2 -15.5 -8t-28.5 -12l-29.5 -11.5t-20.5 -5.5t-10 23q-6 31 -11 54l-8 45q-4 22 -10 44.5t-19 50.5q-4 14 -12 17.5t-16 -8.5q-18 -25 -35 -44l-31 -37l-29 -35q-15 -17 -32 -42q-20 -33 -29 -33q-2 0 -17.5 1l-32.5 2t-31.5 4t-16.5 7zM338 1321 q4 20 19 51t38.5 61t57.5 51.5t75 21.5q35 0 71 -18.5t69 -40.5l66 -40q32 -18 58 -18q35 0 54.5 21.5t9.5 56.5q-2 6 12 13t32.5 9t36 -2t19.5 -20q4 -37 -5 -71t-27.5 -60.5t-46 -43t-62.5 -16.5q-43 0 -82 16.5t-75 37t-69.5 37t-64.5 16.5q-23 0 -35 -6.5t-19 -16.5 t-12.5 -25.5t-13.5 -31.5q-6 -10 -24.5 -14.5t-38 -2t-32.5 11.5t-11 23z" />
<glyph unicode="&#xd4;&#x323;" horiz-adv-x="1609" d="M240 457q-1 21 -1 41q0 150 40 276q45 143 134 246.5t220 160t299 56.5q115 0 220 -29.5t188 -91t135.5 -157t56.5 -228.5q1 -19 1 -38q0 -133 -38 -253q-43 -137 -129 -240.5t-213 -165t-291 -61.5q-123 0 -233.5 28t-195.5 86t-137 149.5t-56 220.5zM420 428 q4 -94 39 -157.5t92 -102.5t131 -56.5t154 -17.5q143 0 243.5 51.5t162 140.5t87.5 209q23 104 23 220v37q-6 184 -118 277t-292 93q-147 0 -249.5 -54t-164 -147.5t-87.5 -220.5q-22 -109 -22 -232q0 -20 1 -40zM674 -297q-2 35 20.5 64.5t65.5 29.5q31 0 56.5 -19.5 t27.5 -70.5q2 -35 -24.5 -63.5t-61.5 -28.5q-33 0 -58.5 24.5t-25.5 63.5zM817 1366q-4 16 14 41q27 35 61 73l69 78l72 77l66 67q8 8 20.5 6t16.5 -10q14 -43 33 -85l36 -81l30.5 -72.5t17.5 -58.5q6 -39 -2 -47q-2 -2 -15.5 -8t-28.5 -12l-29.5 -11.5t-20.5 -5.5t-10 23 q-6 31 -11 54l-8 45q-4 22 -10 44.5t-19 50.5q-4 14 -12 17.5t-16 -8.5q-18 -25 -35 -44l-31 -37l-29 -35q-15 -17 -32 -42q-20 -33 -29 -33q-2 0 -17.5 1l-32.5 2t-31.5 4t-16.5 7z" />
<glyph unicode="&#xf4;&#x323;" horiz-adv-x="780" d="M86 176v12q0 92 31 174q33 88 91 156t136 109t164 43q4 25 8 56.5t33 37.5q14 4 40 7t36 9q3 3 8 4q4 0 9 -3q11 -5 7 -17q-6 -16 -11 -42t-3 -52q2 -51 10.5 -95.5t28.5 -77t52 -52t81 -19.5q31 0 62.5 12.5t60.5 33t54.5 48t41.5 58.5q2 6 15.5 0.5t29 -15.5t25.5 -21 q6 -7 6 -12q0 -3 -2 -6q-18 -35 -49 -67.5t-70 -59t-84 -42t-94 -15.5q-51 0 -94 13.5t-82 47.5q-8 -61 -26.5 -133.5t-54.5 -137t-96.5 -107.5t-154.5 -43q-47 0 -85 17t-65.5 46t-42 63.5t-16.5 69.5zM238 186q0 -14 2 -32.5t8 -33t17.5 -24.5t31.5 -10q53 0 99.5 51 t80 121t51.5 142q14 59 14 99q0 9 -1 17q-6 14 -9 26l-10 33q-2 14 -14 15q-55 0 -104.5 -39t-87 -98.5t-59.5 -129.5q-20 -65 -19 -125v-12zM176 -297q-2 35 20.5 64.5t65.5 29.5q31 0 56.5 -19.5t27.5 -70.5q2 -35 -24.5 -63.5t-61.5 -28.5q-33 0 -58.5 24.5t-25.5 63.5z M289 872q-4 16 14 41q27 35 61 73l69 78l72 77l66 67q8 8 20.5 6t16.5 -10q14 -43 33 -85l36 -81l30.5 -72.5t17.5 -58.5q6 -39 -2 -47q-2 -2 -15.5 -8t-28.5 -12l-29.5 -11.5t-20.5 -5.5t-10 23q-6 31 -11 54l-8 45q-4 22 -10 44.5t-19 50.5q-4 14 -12 17.5t-16 -8.5 q-18 -25 -35 -44l-31 -37l-29 -35q-15 -17 -32 -42q-20 -33 -29 -33q-2 0 -17.5 1l-32.5 2t-31.5 4t-16.5 7z" />
<glyph unicode="&#x1a0;&#x301;" horiz-adv-x="1589" d="M238 477q-6 174 39 314.5t135 239.5t221 152.5t299 53.5q115 0 220 -29.5t188 -91t135.5 -157t56.5 -228.5q6 -154 -37 -291t-129 -240.5t-213 -165t-291 -61.5q-123 0 -233.5 31t-196.5 92.5t-138 156.5t-56 224zM420 449q4 -94 39 -161t92 -110t131 -63.5t154 -20.5 q143 0 243.5 51.5t162 140.5t88 208.5t22.5 257.5q-6 184 -118 277t-292 93q-147 0 -249.5 -51t-165 -141t-88 -213t-19.5 -268zM1376 887l45 37q10 -16 24.5 -27.5t45.5 -11.5q47 0 73.5 18.5t24.5 52.5q0 27 -15 66t-38 61q0 4 13.5 11.5t30.5 13.5l32 11q14 5 16 3 q37 -23 60.5 -72t25.5 -102q2 -45 -12 -74.5t-37 -48t-51.5 -26.5t-54.5 -8q-70 0 -115 25.5t-68 70.5zM893 1422l175 178l167 178q4 6 9 6h7q4 0 18 -9l28 -20q15 -11 28.5 -22.5t15.5 -15.5q4 -14 -2 -21q-45 -41 -90 -77l-93 -72l-99 -79q-51 -42 -107 -93q-6 -6 -17 0 t-20.5 15t-15.5 19.5t-4 12.5z" />
<glyph unicode="&#x1a1;&#x301;" horiz-adv-x="780" d="M74 176q-2 98 30.5 186.5t91 156t136.5 108.5t164 43q4 25 8 56.5t33 37.5q14 4 39.5 7t35.5 9q6 6 17.5 1t7.5 -17q-6 -16 -11 -42t-3 -52q2 -51 10 -95.5t28.5 -77t52 -52t81.5 -19.5q31 0 62.5 12.5t60 33t54 48t42.5 58.5q2 6 15 0.5t28.5 -15.5t26 -21.5t3.5 -17.5 q-18 -35 -48.5 -67.5t-69.5 -59t-84 -42t-94 -15.5q-51 0 -94.5 13.5t-82.5 47.5q-8 -61 -26.5 -133.5t-54 -137t-96 -107.5t-154.5 -43q-47 0 -85 17t-66 46t-42 63.5t-16 69.5zM225 186q0 -14 2 -32.5t8.5 -33t17.5 -24.5t32 -10q53 0 99 51t80 121t51 142.5t13 115.5 q-6 14 -9 26l-9 33q-2 14 -14 15q-55 0 -104.5 -39t-87.5 -98.5t-59.5 -130t-19.5 -136.5zM561 606l27 58q10 -29 29.5 -38.5t52.5 -9.5q43 0 64.5 33t19.5 90q0 10 -2 22.5t-4 22.5q4 4 10 4t17 -2l23 -4q11 -2 20 -4t11 -4q18 -31 23 -76q0 -33 -12.5 -63.5t-35 -53 t-53 -36t-65.5 -13.5q-31 0 -51.5 8.5t-34.5 20.5t-23 25zM488 887l175 178l167 178q4 6 9 6h7q4 0 18 -9l28 -20q15 -11 28.5 -22.5t15.5 -15.5q4 -14 -2 -21q-45 -41 -90 -77l-93 -72l-99 -79q-51 -42 -107 -93q-6 -6 -17 0t-20.5 15t-15.5 19.5t-4 12.5z" />
<glyph unicode="&#x1a0;&#x300;" horiz-adv-x="1589" d="M238 477q-6 174 39 314.5t135 239.5t221 152.5t299 53.5q115 0 220 -29.5t188 -91t135.5 -157t56.5 -228.5q6 -154 -37 -291t-129 -240.5t-213 -165t-291 -61.5q-123 0 -233.5 31t-196.5 92.5t-138 156.5t-56 224zM420 449q4 -94 39 -161t92 -110t131 -63.5t154 -20.5 q143 0 243.5 51.5t162 140.5t88 208.5t22.5 257.5q-6 184 -118 277t-292 93q-147 0 -249.5 -51t-165 -141t-88 -213t-19.5 -268zM1376 887l45 37q10 -16 24.5 -27.5t45.5 -11.5q47 0 73.5 18.5t24.5 52.5q0 27 -15 66t-38 61q0 4 13.5 11.5t30.5 13.5l32 11q14 5 16 3 q37 -23 60.5 -72t25.5 -102q2 -45 -12 -74.5t-37 -48t-51.5 -26.5t-54.5 -8q-70 0 -115 25.5t-68 70.5zM777 1673q0 6 12 18.5t27.5 24t29.5 20.5t17 9h12q8 0 12 -6l37 -71q18 -36 43 -78l56.5 -91t76.5 -110q0 -6 -8 -14.5t-19.5 -15.5t-20.5 -11t-11 0q-31 39 -68 81 l-73 83l-68 83q-32 41 -55 78z" />
<glyph unicode="&#x1a1;&#x300;" horiz-adv-x="780" d="M74 176q-2 98 30.5 186.5t91 156t136.5 108.5t164 43q4 25 8 56.5t33 37.5q14 4 39.5 7t35.5 9q6 6 17.5 1t7.5 -17q-6 -16 -11 -42t-3 -52q2 -51 10 -95.5t28.5 -77t52 -52t81.5 -19.5q31 0 62.5 12.5t60 33t54 48t42.5 58.5q2 6 15 0.5t28.5 -15.5t26 -21.5t3.5 -17.5 q-18 -35 -48.5 -67.5t-69.5 -59t-84 -42t-94 -15.5q-51 0 -94.5 13.5t-82.5 47.5q-8 -61 -26.5 -133.5t-54 -137t-96 -107.5t-154.5 -43q-47 0 -85 17t-66 46t-42 63.5t-16 69.5zM225 186q0 -14 2 -32.5t8.5 -33t17.5 -24.5t32 -10q53 0 99 51t80 121t51 142.5t13 115.5 q-6 14 -9 26l-9 33q-2 14 -14 15q-55 0 -104.5 -39t-87.5 -98.5t-59.5 -130t-19.5 -136.5zM561 606l27 58q10 -29 29.5 -38.5t52.5 -9.5q43 0 64.5 33t19.5 90q0 10 -2 22.5t-4 22.5q4 4 10 4t17 -2l23 -4q11 -2 20 -4t11 -4q18 -31 23 -76q0 -33 -12.5 -63.5t-35 -53 t-53 -36t-65.5 -13.5q-31 0 -51.5 8.5t-34.5 20.5t-23 25zM365 1163q0 6 12 18.5t27.5 24t29.5 20.5t17 9h12q8 0 12 -6l37 -71q18 -36 43 -78l56.5 -91t76.5 -110q0 -6 -8 -14.5t-19.5 -15.5t-20.5 -11t-11 0q-31 39 -68 81l-73 83l-68 83q-32 41 -55 78z" />
<glyph unicode="&#x1a0;&#x309;" horiz-adv-x="1589" d="M238 477q-6 174 39 314.5t135 239.5t221 152.5t299 53.5q115 0 220 -29.5t188 -91t135.5 -157t56.5 -228.5q6 -154 -37 -291t-129 -240.5t-213 -165t-291 -61.5q-123 0 -233.5 31t-196.5 92.5t-138 156.5t-56 224zM420 449q4 -94 39 -161t92 -110t131 -63.5t154 -20.5 q143 0 243.5 51.5t162 140.5t88 208.5t22.5 257.5q-6 184 -118 277t-292 93q-147 0 -249.5 -51t-165 -141t-88 -213t-19.5 -268zM1376 887l45 37q10 -16 24.5 -27.5t45.5 -11.5q47 0 73.5 18.5t24.5 52.5q0 27 -15 66t-38 61q0 4 13.5 11.5t30.5 13.5l32 11q14 5 16 3 q37 -23 60.5 -72t25.5 -102q2 -45 -12 -74.5t-37 -48t-51.5 -26.5t-54.5 -8q-70 0 -115 25.5t-68 70.5zM942 1391q0 4 2 18.5t6 16.5q80 33 117 80t37 88q-2 37 -21.5 54t-66.5 17q-23 0 -35.5 -4t-22.5 -4q-6 0 -8 12.5t-2 26.5t3 27.5t9 15.5q25 6 55.5 12.5t63.5 6.5 q66 0 109 -33t47 -94q2 -57 -32 -107.5t-81 -87.5t-95 -57.5t-75 -20.5q-4 0 -7 14.5t-3 18.5z" />
<glyph unicode="&#x1a1;&#x309;" horiz-adv-x="780" d="M74 176q-2 98 30.5 186.5t91 156t136.5 108.5t164 43q4 25 8 56.5t33 37.5q14 4 39.5 7t35.5 9q6 6 17.5 1t7.5 -17q-6 -16 -11 -42t-3 -52q2 -51 10 -95.5t28.5 -77t52 -52t81.5 -19.5q31 0 62.5 12.5t60 33t54 48t42.5 58.5q2 6 15 0.5t28.5 -15.5t26 -21.5t3.5 -17.5 q-18 -35 -48.5 -67.5t-69.5 -59t-84 -42t-94 -15.5q-51 0 -94.5 13.5t-82.5 47.5q-8 -61 -26.5 -133.5t-54 -137t-96 -107.5t-154.5 -43q-47 0 -85 17t-66 46t-42 63.5t-16 69.5zM225 186q0 -14 2 -32.5t8.5 -33t17.5 -24.5t32 -10q53 0 99 51t80 121t51 142.5t13 115.5 q-6 14 -9 26l-9 33q-2 14 -14 15q-55 0 -104.5 -39t-87.5 -98.5t-59.5 -130t-19.5 -136.5zM561 606l27 58q10 -29 29.5 -38.5t52.5 -9.5q43 0 64.5 33t19.5 90q0 10 -2 22.5t-4 22.5q4 4 10 4t17 -2l23 -4q11 -2 20 -4t11 -4q18 -31 23 -76q0 -33 -12.5 -63.5t-35 -53 t-53 -36t-65.5 -13.5q-31 0 -51.5 8.5t-34.5 20.5t-23 25zM432 852q0 4 2 18.5t6 16.5q80 33 117 80t37 88q-2 37 -21.5 54t-66.5 17q-23 0 -35.5 -4t-22.5 -4q-6 0 -8 12.5t-2 26.5t3 27.5t9 15.5q25 6 55.5 12.5t63.5 6.5q66 0 109 -33t47 -94q2 -57 -32 -107.5t-81 -87.5 t-95 -57.5t-75 -20.5q-4 0 -7 14.5t-3 18.5z" />
<glyph unicode="&#x1a0;&#x303;" horiz-adv-x="1589" d="M238 477q-6 174 39 314.5t135 239.5t221 152.5t299 53.5q115 0 220 -29.5t188 -91t135.5 -157t56.5 -228.5q6 -154 -37 -291t-129 -240.5t-213 -165t-291 -61.5q-123 0 -233.5 31t-196.5 92.5t-138 156.5t-56 224zM420 449q4 -94 39 -161t92 -110t131 -63.5t154 -20.5 q143 0 243.5 51.5t162 140.5t88 208.5t22.5 257.5q-6 184 -118 277t-292 93q-147 0 -249.5 -51t-165 -141t-88 -213t-19.5 -268zM1376 887l45 37q10 -16 24.5 -27.5t45.5 -11.5q47 0 73.5 18.5t24.5 52.5q0 27 -15 66t-38 61q0 4 13.5 11.5t30.5 13.5l32 11q14 5 16 3 q37 -23 60.5 -72t25.5 -102q2 -45 -12 -74.5t-37 -48t-51.5 -26.5t-54.5 -8q-70 0 -115 25.5t-68 70.5zM682 1462q4 20 19 51t38.5 61t57.5 51.5t75 21.5q35 0 71 -18.5t69 -40.5l66 -40q32 -18 58 -18q35 0 54.5 21.5t9.5 56.5q-2 6 12 13t32.5 9t36 -2t19.5 -20 q4 -37 -5 -71t-27.5 -60.5t-46 -43t-62.5 -16.5q-43 0 -82 16.5t-75 37t-69.5 37t-64.5 16.5q-23 0 -35 -6.5t-19 -16.5t-12.5 -25.5t-13.5 -31.5q-6 -10 -24.5 -14.5t-38 -2t-32.5 11.5t-11 23z" />
<glyph unicode="&#x1a1;&#x303;" horiz-adv-x="780" d="M74 176q-2 98 30.5 186.5t91 156t136.5 108.5t164 43q4 25 8 56.5t33 37.5q14 4 39.5 7t35.5 9q6 6 17.5 1t7.5 -17q-6 -16 -11 -42t-3 -52q2 -51 10 -95.5t28.5 -77t52 -52t81.5 -19.5q31 0 62.5 12.5t60 33t54 48t42.5 58.5q2 6 15 0.5t28.5 -15.5t26 -21.5t3.5 -17.5 q-18 -35 -48.5 -67.5t-69.5 -59t-84 -42t-94 -15.5q-51 0 -94.5 13.5t-82.5 47.5q-8 -61 -26.5 -133.5t-54 -137t-96 -107.5t-154.5 -43q-47 0 -85 17t-66 46t-42 63.5t-16 69.5zM225 186q0 -14 2 -32.5t8.5 -33t17.5 -24.5t32 -10q53 0 99 51t80 121t51 142.5t13 115.5 q-6 14 -9 26l-9 33q-2 14 -14 15q-55 0 -104.5 -39t-87.5 -98.5t-59.5 -130t-19.5 -136.5zM561 606l27 58q10 -29 29.5 -38.5t52.5 -9.5q43 0 64.5 33t19.5 90q0 10 -2 22.5t-4 22.5q4 4 10 4t17 -2l23 -4q11 -2 20 -4t11 -4q18 -31 23 -76q0 -33 -12.5 -63.5t-35 -53 t-53 -36t-65.5 -13.5q-31 0 -51.5 8.5t-34.5 20.5t-23 25zM232 952q4 20 19 51t38.5 61t57.5 51.5t75 21.5q35 0 71 -18.5t69 -40.5l66 -40q32 -18 58 -18q35 0 54.5 21.5t9.5 56.5q-2 6 12 13t32.5 9t36 -2t19.5 -20q4 -37 -5 -71t-27.5 -60.5t-46 -43t-62.5 -16.5 q-43 0 -82 16.5t-75 37t-69.5 37t-64.5 16.5q-23 0 -35 -6.5t-19 -16.5t-12.5 -25.5t-13.5 -31.5q-6 -10 -24.5 -14.5t-38 -2t-32.5 11.5t-11 23z" />
<glyph unicode="&#x1a0;&#x323;" horiz-adv-x="1589" d="M238 477q-6 174 39 314.5t135 239.5t221 152.5t299 53.5q115 0 220 -29.5t188 -91t135.5 -157t56.5 -228.5q6 -154 -37 -291t-129 -240.5t-213 -165t-291 -61.5q-123 0 -233.5 31t-196.5 92.5t-138 156.5t-56 224zM420 449q4 -94 39 -161t92 -110t131 -63.5t154 -20.5 q143 0 243.5 51.5t162 140.5t88 208.5t22.5 257.5q-6 184 -118 277t-292 93q-147 0 -249.5 -51t-165 -141t-88 -213t-19.5 -268zM1376 887l45 37q10 -16 24.5 -27.5t45.5 -11.5q47 0 73.5 18.5t24.5 52.5q0 27 -15 66t-38 61q0 4 13.5 11.5t30.5 13.5l32 11q14 5 16 3 q37 -23 60.5 -72t25.5 -102q2 -45 -12 -74.5t-37 -48t-51.5 -26.5t-54.5 -8q-70 0 -115 25.5t-68 70.5zM705 -297q-2 35 20.5 64.5t65.5 29.5q31 0 56.5 -19.5t27.5 -70.5q2 -35 -24.5 -63.5t-61.5 -28.5q-33 0 -58.5 24.5t-25.5 63.5z" />
<glyph unicode="&#x1a1;&#x323;" horiz-adv-x="780" d="M74 176q-2 98 30.5 186.5t91 156t136.5 108.5t164 43q4 25 8 56.5t33 37.5q14 4 39.5 7t35.5 9q6 6 17.5 1t7.5 -17q-6 -16 -11 -42t-3 -52q2 -51 10 -95.5t28.5 -77t52 -52t81.5 -19.5q31 0 62.5 12.5t60 33t54 48t42.5 58.5q2 6 15 0.5t28.5 -15.5t26 -21.5t3.5 -17.5 q-18 -35 -48.5 -67.5t-69.5 -59t-84 -42t-94 -15.5q-51 0 -94.5 13.5t-82.5 47.5q-8 -61 -26.5 -133.5t-54 -137t-96 -107.5t-154.5 -43q-47 0 -85 17t-66 46t-42 63.5t-16 69.5zM225 186q0 -14 2 -32.5t8.5 -33t17.5 -24.5t32 -10q53 0 99 51t80 121t51 142.5t13 115.5 q-6 14 -9 26l-9 33q-2 14 -14 15q-55 0 -104.5 -39t-87.5 -98.5t-59.5 -130t-19.5 -136.5zM561 606l27 58q10 -29 29.5 -38.5t52.5 -9.5q43 0 64.5 33t19.5 90q0 10 -2 22.5t-4 22.5q4 4 10 4t17 -2l23 -4q11 -2 20 -4t11 -4q18 -31 23 -76q0 -33 -12.5 -63.5t-35 -53 t-53 -36t-65.5 -13.5q-31 0 -51.5 8.5t-34.5 20.5t-23 25zM193 -297q-2 35 20.5 64.5t65.5 29.5q31 0 56.5 -19.5t27.5 -70.5q2 -35 -24.5 -63.5t-61.5 -28.5q-33 0 -58.5 24.5t-25.5 63.5z" />
<glyph unicode="U&#x323;" horiz-adv-x="1767" d="M264 254q-2 86 35 191.5t86 211.5l96 206q47 99 64 171q6 18 2 33q-6 25 -47 25q-18 0 -44 -1t-65 -1q-18 0 -34.5 1t-32.5 1q-10 0 -17.5 17t-9.5 36.5t1 37t15 17.5q29 0 91.5 -4t134.5 -4q66 0 113.5 3t83.5 8t62.5 8t51.5 3q4 0 6 -12t4 -27.5t3 -30t1 -16.5 q6 -10 -8 -14q-23 -6 -56.5 -11t-49.5 -34l-54 -110l-63 -137l-65 -149q-32 -77 -57.5 -147.5t-39.5 -130t-14 -98.5q4 -109 63.5 -146.5t165.5 -37.5q102 0 198.5 45t181.5 118.5t152.5 168t110.5 194.5q25 59 48 125l46 129l42 121l34 98q10 31 25.5 50.5t48.5 35.5 q10 2 39.5 9l62.5 14.5t60.5 12.5t36.5 5q6 0 12 -13.5t9 -29.5t2 -29.5t-9 -13.5q-12 -2 -34.5 -9t-33.5 -24q-90 -141 -146 -291.5t-106 -310.5q-20 -63 -41 -148q-19 -77 -18 -151v-14q2 -57 29.5 -93t109.5 -36q35 0 72 12t67.5 25.5t51 26t22.5 12.5q8 0 17.5 -15.5 t15.5 -34.5q9 -26 9 -40q0 -11 -7 -15q-72 -37 -149.5 -63.5t-165.5 -26.5q-66 0 -115 16.5t-81 42t-48 58t-18 63.5q0 35 5 62.5t12 47t13 32t6 14.5q-4 2 -6 4t-6 2q-63 -96 -134 -159.5t-148.5 -101.5t-162.5 -53.5t-178 -15.5q-59 0 -120.5 16.5t-112.5 52.5t-84 89 t-37 127zM539 -297q-2 35 20.5 64.5t65.5 29.5q31 0 56.5 -19.5t27.5 -70.5q2 -35 -24.5 -63.5t-61.5 -28.5q-33 0 -58.5 24.5t-25.5 63.5z" />
<glyph unicode="u&#x323;" horiz-adv-x="790" d="M100 84q-1 8 0 18q0 20 2 46q4 40 21.5 107t47.5 164l75 236q10 31 22 31q6 0 25.5 -7t40 -16.5t38 -19.5t17.5 -18t-12 -37q-59 -150 -94 -264.5t-33 -173.5q6 -23 21.5 -31t31.5 -8t37.5 19.5t47.5 55t52.5 83.5t48.5 104l30 87l24 67l19 55l18 49q6 20 16 20t30.5 -14 t40 -35.5t31 -44t4.5 -41.5l-46 -91q-24 -46 -43 -89t-31 -85q-11 -36 -11 -68v-11q2 -47 22.5 -69.5t51.5 -22.5q33 0 79 17.5t99.5 57.5t109.5 106.5t107 164.5q4 2 16.5 -4t27 -15.5t25.5 -18.5t13 -15q-37 -74 -90 -144.5t-117.5 -126t-135 -89t-142.5 -33.5 q-74 0 -129 31.5t-57 90.5q-2 25 0 50q-10 -20 -31 -47t-48.5 -50.5t-60 -39t-67.5 -15.5q-18 0 -40 5t-42.5 15.5t-38 27t-23.5 36.5zM148 -297q-2 35 20.5 64.5t65.5 29.5q31 0 56.5 -19.5t27.5 -70.5q2 -35 -24.5 -63.5t-61.5 -28.5q-33 0 -58.5 24.5t-25.5 63.5z" />
<glyph unicode="U&#x309;" horiz-adv-x="1767" d="M264 254q-2 86 35 191.5t86 211.5l96 206q47 99 64 171q6 18 2 33q-6 25 -47 25q-18 0 -44 -1t-65 -1q-18 0 -34.5 1t-32.5 1q-10 0 -17.5 17t-9.5 36.5t1 37t15 17.5q29 0 91.5 -4t134.5 -4q66 0 113.5 3t83.5 8t62.5 8t51.5 3q4 0 6 -12t4 -27.5t3 -30t1 -16.5 q6 -10 -8 -14q-23 -6 -56.5 -11t-49.5 -34l-54 -110l-63 -137l-65 -149q-32 -77 -57.5 -147.5t-39.5 -130t-14 -98.5q4 -109 63.5 -146.5t165.5 -37.5q102 0 198.5 45t181.5 118.5t152.5 168t110.5 194.5q25 59 48 125l46 129l42 121l34 98q10 31 25.5 50.5t48.5 35.5 q10 2 39.5 9l62.5 14.5t60.5 12.5t36.5 5q6 0 12 -13.5t9 -29.5t2 -29.5t-9 -13.5q-12 -2 -34.5 -9t-33.5 -24q-90 -141 -146 -291.5t-106 -310.5q-20 -63 -41 -148q-19 -77 -18 -151v-14q2 -57 29.5 -93t109.5 -36q35 0 72 12t67.5 25.5t51 26t22.5 12.5q8 0 17.5 -15.5 t15.5 -34.5q9 -26 9 -40q0 -11 -7 -15q-72 -37 -149.5 -63.5t-165.5 -26.5q-66 0 -115 16.5t-81 42t-48 58t-18 63.5q0 35 5 62.5t12 47t13 32t6 14.5q-4 2 -6 4t-6 2q-63 -96 -134 -159.5t-148.5 -101.5t-162.5 -53.5t-178 -15.5q-59 0 -120.5 16.5t-112.5 52.5t-84 89 t-37 127zM1077 1321q0 4 2 18.5t6 16.5q80 33 117 80t37 88q-2 37 -21.5 54t-66.5 17q-23 0 -35.5 -4t-22.5 -4q-6 0 -8 12.5t-2 26.5t3 27.5t9 15.5q25 6 55.5 12.5t63.5 6.5q66 0 109 -33t47 -94q2 -57 -32 -107.5t-81 -87.5t-95 -57.5t-75 -20.5q-4 0 -7 14.5t-3 18.5z " />
<glyph unicode="u&#x309;" horiz-adv-x="790" d="M100 84q-1 8 0 18q0 20 2 46q4 40 21.5 107t47.5 164l75 236q10 31 22 31q6 0 25.5 -7t40 -16.5t38 -19.5t17.5 -18t-12 -37q-59 -150 -94 -264.5t-33 -173.5q6 -23 21.5 -31t31.5 -8t37.5 19.5t47.5 55t52.5 83.5t48.5 104l30 87l24 67l19 55l18 49q6 20 16 20t30.5 -14 t40 -35.5t31 -44t4.5 -41.5l-46 -91q-24 -46 -43 -89t-31 -85q-11 -36 -11 -68v-11q2 -47 22.5 -69.5t51.5 -22.5q33 0 79 17.5t99.5 57.5t109.5 106.5t107 164.5q4 2 16.5 -4t27 -15.5t25.5 -18.5t13 -15q-37 -74 -90 -144.5t-117.5 -126t-135 -89t-142.5 -33.5 q-74 0 -129 31.5t-57 90.5q-2 25 0 50q-10 -20 -31 -47t-48.5 -50.5t-60 -39t-67.5 -15.5q-18 0 -40 5t-42.5 15.5t-38 27t-23.5 36.5zM406 852q0 4 2 18.5t6 16.5q80 33 117 80t37 88q-2 37 -21.5 54t-66.5 17q-23 0 -35.5 -4t-22.5 -4q-6 0 -8 12.5t-2 26.5t3 27.5t9 15.5 q25 6 55.5 12.5t63.5 6.5q66 0 109 -33t47 -94q2 -57 -32 -107.5t-81 -87.5t-95 -57.5t-75 -20.5q-4 0 -7 14.5t-3 18.5z" />
<glyph unicode="&#x1af;&#x301;" horiz-adv-x="1644" d="M264 254q-2 86 35 191.5t86 211.5l96 206q47 99 64 171q6 18 2 33q-6 25 -47 25q-18 0 -44 -1t-65 -1q-18 0 -34.5 1t-32.5 1q-10 0 -17.5 17t-9.5 36.5t1 37t15 17.5q29 0 91.5 -4t134.5 -4q66 0 113.5 3t83.5 8t62.5 8t51.5 3q4 0 6 -12t4 -27.5t3 -30t1 -16.5 q6 -10 -8 -14q-23 -6 -56.5 -11t-49.5 -34l-54 -110l-63 -137l-65 -149q-32 -77 -57.5 -147.5t-39.5 -130t-14 -98.5q4 -109 63.5 -146.5t165.5 -37.5q102 0 198.5 45t181.5 118.5t152.5 168t110.5 194.5q25 59 48 125l46 129l42 121l34 98q10 31 25.5 50.5t48.5 35.5 q10 2 39.5 9l62.5 14.5t60.5 12.5t36.5 5q6 0 12 -13.5t9 -29.5t2 -29.5t-9 -13.5q-12 -2 -34.5 -9t-33.5 -24q-90 -141 -146 -291.5t-106 -310.5q-20 -63 -40.5 -148t-18.5 -165q2 -57 29.5 -93t109.5 -36q35 0 72 12t67.5 25.5t51 26t22.5 12.5q8 0 17.5 -15.5t15.5 -34 t8 -35t-6 -20.5q-72 -37 -149.5 -63.5t-165.5 -26.5q-66 0 -115 16.5t-81 42t-48 58t-18 63.5q0 35 5 62.5t12 47t13 32t6 14.5q-4 2 -6 4t-6 2q-63 -96 -134 -159.5t-148.5 -101.5t-162.5 -53.5t-178 -15.5q-59 0 -120.5 16.5t-112.5 52.5t-84 89t-37 127zM1483 885l57 61 q-6 -14 1 -35.5t24.5 -41t44 -33t57.5 -13.5q51 0 86 34t31 99q0 23 -12 48q8 4 22 5t29.5 -1t27 -4.5t13.5 -4.5q10 -16 13 -40.5t5 -45.5q2 -37 -12.5 -72.5t-42 -63t-66.5 -44t-88 -16.5q-37 0 -72.5 16.5t-63.5 42t-43 55t-11 54.5zM1038 1413l175 178l167 178q4 6 9 6 h7q4 0 18 -9l28 -20q15 -11 28.5 -22.5t15.5 -15.5q4 -14 -2 -21q-45 -41 -90 -77l-93 -72l-99 -79q-51 -42 -107 -93q-6 -6 -17 0t-20.5 15t-15.5 19.5t-4 12.5z" />
<glyph unicode="&#x1b0;&#x301;" horiz-adv-x="790" d="M100 84q-2 25 2 64.5t21.5 106.5t47.5 164l75 236q10 31 22 31q6 0 25.5 -7t40 -16.5t38 -19.5t17.5 -18t-12 -37q-59 -150 -94 -264.5t-33 -173.5q6 -23 21.5 -31t31.5 -8t37.5 19.5t47.5 55t52.5 83.5t48.5 104l30 87l24 67l19 55l18 49q6 20 16 20t30.5 -14t40 -35.5 t31 -44t4.5 -41.5l-46 -91q-24 -46 -43 -89t-31.5 -85t-10.5 -79q2 -47 22.5 -69.5t51.5 -22.5q33 0 79 17.5t99.5 57.5t109.5 106.5t107 164.5q4 2 16.5 -4t27 -15.5t25.5 -18.5t13 -15q-37 -74 -90 -144.5t-117.5 -126t-135 -89t-142.5 -33.5q-74 0 -129 31.5t-57 90.5 q-2 25 0 50q-10 -20 -31 -47t-48.5 -50.5t-60 -39t-67.5 -15.5q-18 0 -40 5t-42.5 15.5t-38 27t-23.5 36.5zM602 487l27 58q10 -29 29.5 -38t52.5 -9q43 0 64.5 32.5t19.5 90.5q0 10 -2 22t-5 23q4 4 11 4q6 0 17 -2l23 -4q11 -2 20 -4.5t11 -4.5q18 -31 23 -75 q0 -33 -12.5 -64t-35 -53.5t-53 -35.5t-65.5 -13q-31 0 -51.5 8t-34.5 20.5t-24 24.5zM453 887l175 178l167 178q4 6 9 6h7q4 0 18 -9l28 -20q15 -11 28.5 -22.5t15.5 -15.5q4 -14 -2 -21q-45 -41 -90 -77l-93 -72l-99 -79q-51 -42 -107 -93q-6 -6 -17 0t-20.5 15 t-15.5 19.5t-4 12.5z" />
<glyph unicode="&#x1af;&#x300;" horiz-adv-x="1644" d="M264 254q-2 86 35 191.5t86 211.5l96 206q47 99 64 171q6 18 2 33q-6 25 -47 25q-18 0 -44 -1t-65 -1q-18 0 -34.5 1t-32.5 1q-10 0 -17.5 17t-9.5 36.5t1 37t15 17.5q29 0 91.5 -4t134.5 -4q66 0 113.5 3t83.5 8t62.5 8t51.5 3q4 0 6 -12t4 -27.5t3 -30t1 -16.5 q6 -10 -8 -14q-23 -6 -56.5 -11t-49.5 -34l-54 -110l-63 -137l-65 -149q-32 -77 -57.5 -147.5t-39.5 -130t-14 -98.5q4 -109 63.5 -146.5t165.5 -37.5q102 0 198.5 45t181.5 118.5t152.5 168t110.5 194.5q25 59 48 125l46 129l42 121l34 98q10 31 25.5 50.5t48.5 35.5 q10 2 39.5 9l62.5 14.5t60.5 12.5t36.5 5q6 0 12 -13.5t9 -29.5t2 -29.5t-9 -13.5q-12 -2 -34.5 -9t-33.5 -24q-90 -141 -146 -291.5t-106 -310.5q-20 -63 -40.5 -148t-18.5 -165q2 -57 29.5 -93t109.5 -36q35 0 72 12t67.5 25.5t51 26t22.5 12.5q8 0 17.5 -15.5t15.5 -34 t8 -35t-6 -20.5q-72 -37 -149.5 -63.5t-165.5 -26.5q-66 0 -115 16.5t-81 42t-48 58t-18 63.5q0 35 5 62.5t12 47t13 32t6 14.5q-4 2 -6 4t-6 2q-63 -96 -134 -159.5t-148.5 -101.5t-162.5 -53.5t-178 -15.5q-59 0 -120.5 16.5t-112.5 52.5t-84 89t-37 127zM1483 885l57 61 q-6 -14 1 -35.5t24.5 -41t44 -33t57.5 -13.5q51 0 86 34t31 99q0 23 -12 48q8 4 22 5t29.5 -1t27 -4.5t13.5 -4.5q10 -16 13 -40.5t5 -45.5q2 -37 -12.5 -72.5t-42 -63t-66.5 -44t-88 -16.5q-37 0 -72.5 16.5t-63.5 42t-43 55t-11 54.5zM883 1704q0 6 12 18.5t27.5 24 t29.5 20.5t17 9h12q8 0 12 -6l37 -71q18 -36 43 -78l56.5 -91t76.5 -110q0 -6 -8 -14.5t-19.5 -15.5t-20.5 -11t-11 0q-31 39 -68 81l-73 83l-68 83q-32 41 -55 78z" />
<glyph unicode="&#x1b0;&#x300;" horiz-adv-x="790" d="M100 84q-2 25 2 64.5t21.5 106.5t47.5 164l75 236q10 31 22 31q6 0 25.5 -7t40 -16.5t38 -19.5t17.5 -18t-12 -37q-59 -150 -94 -264.5t-33 -173.5q6 -23 21.5 -31t31.5 -8t37.5 19.5t47.5 55t52.5 83.5t48.5 104l30 87l24 67l19 55l18 49q6 20 16 20t30.5 -14t40 -35.5 t31 -44t4.5 -41.5l-46 -91q-24 -46 -43 -89t-31.5 -85t-10.5 -79q2 -47 22.5 -69.5t51.5 -22.5q33 0 79 17.5t99.5 57.5t109.5 106.5t107 164.5q4 2 16.5 -4t27 -15.5t25.5 -18.5t13 -15q-37 -74 -90 -144.5t-117.5 -126t-135 -89t-142.5 -33.5q-74 0 -129 31.5t-57 90.5 q-2 25 0 50q-10 -20 -31 -47t-48.5 -50.5t-60 -39t-67.5 -15.5q-18 0 -40 5t-42.5 15.5t-38 27t-23.5 36.5zM602 487l27 58q10 -29 29.5 -38t52.5 -9q43 0 64.5 32.5t19.5 90.5q0 10 -2 22t-5 23q4 4 11 4q6 0 17 -2l23 -4q11 -2 20 -4.5t11 -4.5q18 -31 23 -75 q0 -33 -12.5 -64t-35 -53.5t-53 -35.5t-65.5 -13q-31 0 -51.5 8t-34.5 20.5t-24 24.5zM248 1163q0 6 12 18.5t27.5 24t29.5 20.5t17 9h12q8 0 12 -6l37 -71q18 -36 43 -78l56.5 -91t76.5 -110q0 -6 -8 -14.5t-19.5 -15.5t-20.5 -11t-11 0q-31 39 -68 81l-73 83l-68 83 q-32 41 -55 78z" />
<glyph unicode="&#x1af;&#x309;" horiz-adv-x="1644" d="M264 254q-2 86 35 191.5t86 211.5l96 206q47 99 64 171q6 18 2 33q-6 25 -47 25q-18 0 -44 -1t-65 -1q-18 0 -34.5 1t-32.5 1q-10 0 -17.5 17t-9.5 36.5t1 37t15 17.5q29 0 91.5 -4t134.5 -4q66 0 113.5 3t83.5 8t62.5 8t51.5 3q4 0 6 -12t4 -27.5t3 -30t1 -16.5 q6 -10 -8 -14q-23 -6 -56.5 -11t-49.5 -34l-54 -110l-63 -137l-65 -149q-32 -77 -57.5 -147.5t-39.5 -130t-14 -98.5q4 -109 63.5 -146.5t165.5 -37.5q102 0 198.5 45t181.5 118.5t152.5 168t110.5 194.5q25 59 48 125l46 129l42 121l34 98q10 31 25.5 50.5t48.5 35.5 q10 2 39.5 9l62.5 14.5t60.5 12.5t36.5 5q6 0 12 -13.5t9 -29.5t2 -29.5t-9 -13.5q-12 -2 -34.5 -9t-33.5 -24q-90 -141 -146 -291.5t-106 -310.5q-20 -63 -40.5 -148t-18.5 -165q2 -57 29.5 -93t109.5 -36q35 0 72 12t67.5 25.5t51 26t22.5 12.5q8 0 17.5 -15.5t15.5 -34 t8 -35t-6 -20.5q-72 -37 -149.5 -63.5t-165.5 -26.5q-66 0 -115 16.5t-81 42t-48 58t-18 63.5q0 35 5 62.5t12 47t13 32t6 14.5q-4 2 -6 4t-6 2q-63 -96 -134 -159.5t-148.5 -101.5t-162.5 -53.5t-178 -15.5q-59 0 -120.5 16.5t-112.5 52.5t-84 89t-37 127zM1483 885l57 61 q-6 -14 1 -35.5t24.5 -41t44 -33t57.5 -13.5q51 0 86 34t31 99q0 23 -12 48q8 4 22 5t29.5 -1t27 -4.5t13.5 -4.5q10 -16 13 -40.5t5 -45.5q2 -37 -12.5 -72.5t-42 -63t-66.5 -44t-88 -16.5q-37 0 -72.5 16.5t-63.5 42t-43 55t-11 54.5zM1133 1393q0 4 2 18.5t6 16.5 q80 33 117 80t37 88q-2 37 -21.5 54t-66.5 17q-23 0 -35.5 -4t-22.5 -4q-6 0 -8 12.5t-2 26.5t3 27.5t9 15.5q25 6 55.5 12.5t63.5 6.5q66 0 109 -33t47 -94q2 -57 -32 -107.5t-81 -87.5t-95 -57.5t-75 -20.5q-4 0 -7 14.5t-3 18.5z" />
<glyph unicode="&#x1b0;&#x309;" horiz-adv-x="790" d="M100 84q-2 25 2 64.5t21.5 106.5t47.5 164l75 236q10 31 22 31q6 0 25.5 -7t40 -16.5t38 -19.5t17.5 -18t-12 -37q-59 -150 -94 -264.5t-33 -173.5q6 -23 21.5 -31t31.5 -8t37.5 19.5t47.5 55t52.5 83.5t48.5 104l30 87l24 67l19 55l18 49q6 20 16 20t30.5 -14t40 -35.5 t31 -44t4.5 -41.5l-46 -91q-24 -46 -43 -89t-31.5 -85t-10.5 -79q2 -47 22.5 -69.5t51.5 -22.5q33 0 79 17.5t99.5 57.5t109.5 106.5t107 164.5q4 2 16.5 -4t27 -15.5t25.5 -18.5t13 -15q-37 -74 -90 -144.5t-117.5 -126t-135 -89t-142.5 -33.5q-74 0 -129 31.5t-57 90.5 q-2 25 0 50q-10 -20 -31 -47t-48.5 -50.5t-60 -39t-67.5 -15.5q-18 0 -40 5t-42.5 15.5t-38 27t-23.5 36.5zM602 487l27 58q10 -29 29.5 -38t52.5 -9q43 0 64.5 32.5t19.5 90.5q0 10 -2 22t-5 23q4 4 11 4q6 0 17 -2l23 -4q11 -2 20 -4.5t11 -4.5q18 -31 23 -75 q0 -33 -12.5 -64t-35 -53.5t-53 -35.5t-65.5 -13q-31 0 -51.5 8t-34.5 20.5t-24 24.5zM436 852q0 4 2 18.5t6 16.5q80 33 117 80t37 88q-2 37 -21.5 54t-66.5 17q-23 0 -35.5 -4t-22.5 -4q-6 0 -8 12.5t-2 26.5t3 27.5t9 15.5q25 6 55.5 12.5t63.5 6.5q66 0 109 -33t47 -94 q2 -57 -32 -107.5t-81 -87.5t-95 -57.5t-75 -20.5q-4 0 -7 14.5t-3 18.5z" />
<glyph unicode="&#x1af;&#x303;" horiz-adv-x="1644" d="M264 254q-2 86 35 191.5t86 211.5l96 206q47 99 64 171q6 18 2 33q-6 25 -47 25q-18 0 -44 -1t-65 -1q-18 0 -34.5 1t-32.5 1q-10 0 -17.5 17t-9.5 36.5t1 37t15 17.5q29 0 91.5 -4t134.5 -4q66 0 113.5 3t83.5 8t62.5 8t51.5 3q4 0 6 -12t4 -27.5t3 -30t1 -16.5 q6 -10 -8 -14q-23 -6 -56.5 -11t-49.5 -34l-54 -110l-63 -137l-65 -149q-32 -77 -57.5 -147.5t-39.5 -130t-14 -98.5q4 -109 63.5 -146.5t165.5 -37.5q102 0 198.5 45t181.5 118.5t152.5 168t110.5 194.5q25 59 48 125l46 129l42 121l34 98q10 31 25.5 50.5t48.5 35.5 q10 2 39.5 9l62.5 14.5t60.5 12.5t36.5 5q6 0 12 -13.5t9 -29.5t2 -29.5t-9 -13.5q-12 -2 -34.5 -9t-33.5 -24q-90 -141 -146 -291.5t-106 -310.5q-20 -63 -40.5 -148t-18.5 -165q2 -57 29.5 -93t109.5 -36q35 0 72 12t67.5 25.5t51 26t22.5 12.5q8 0 17.5 -15.5t15.5 -34 t8 -35t-6 -20.5q-72 -37 -149.5 -63.5t-165.5 -26.5q-66 0 -115 16.5t-81 42t-48 58t-18 63.5q0 35 5 62.5t12 47t13 32t6 14.5q-4 2 -6 4t-6 2q-63 -96 -134 -159.5t-148.5 -101.5t-162.5 -53.5t-178 -15.5q-59 0 -120.5 16.5t-112.5 52.5t-84 89t-37 127zM1483 885l57 61 q-6 -14 1 -35.5t24.5 -41t44 -33t57.5 -13.5q51 0 86 34t31 99q0 23 -12 48q8 4 22 5t29.5 -1t27 -4.5t13.5 -4.5q10 -16 13 -40.5t5 -45.5q2 -37 -12.5 -72.5t-42 -63t-66.5 -44t-88 -16.5q-37 0 -72.5 16.5t-63.5 42t-43 55t-11 54.5zM875 1433q4 20 19 51t38.5 61 t57.5 51.5t75 21.5q35 0 71 -18.5t69 -40.5l66 -40q32 -18 58 -18q35 0 54.5 21.5t9.5 56.5q-2 6 12 13t32.5 9t36 -2t19.5 -20q4 -37 -5 -71t-27.5 -60.5t-46 -43t-62.5 -16.5q-43 0 -82 16.5t-75 37t-69.5 37t-64.5 16.5q-23 0 -35 -6.5t-19 -16.5t-12.5 -25.5 t-13.5 -31.5q-6 -10 -24.5 -14.5t-38 -2t-32.5 11.5t-11 23z" />
<glyph unicode="&#x1b0;&#x303;" horiz-adv-x="790" d="M100 84q-2 25 2 64.5t21.5 106.5t47.5 164l75 236q10 31 22 31q6 0 25.5 -7t40 -16.5t38 -19.5t17.5 -18t-12 -37q-59 -150 -94 -264.5t-33 -173.5q6 -23 21.5 -31t31.5 -8t37.5 19.5t47.5 55t52.5 83.5t48.5 104l30 87l24 67l19 55l18 49q6 20 16 20t30.5 -14t40 -35.5 t31 -44t4.5 -41.5l-46 -91q-24 -46 -43 -89t-31.5 -85t-10.5 -79q2 -47 22.5 -69.5t51.5 -22.5q33 0 79 17.5t99.5 57.5t109.5 106.5t107 164.5q4 2 16.5 -4t27 -15.5t25.5 -18.5t13 -15q-37 -74 -90 -144.5t-117.5 -126t-135 -89t-142.5 -33.5q-74 0 -129 31.5t-57 90.5 q-2 25 0 50q-10 -20 -31 -47t-48.5 -50.5t-60 -39t-67.5 -15.5q-18 0 -40 5t-42.5 15.5t-38 27t-23.5 36.5zM602 487l27 58q10 -29 29.5 -38t52.5 -9q43 0 64.5 32.5t19.5 90.5q0 10 -2 22t-5 23q4 4 11 4q6 0 17 -2l23 -4q11 -2 20 -4.5t11 -4.5q18 -31 23 -75 q0 -33 -12.5 -64t-35 -53.5t-53 -35.5t-65.5 -13q-31 0 -51.5 8t-34.5 20.5t-24 24.5zM211 952q4 20 19 51t38.5 61t57.5 51.5t75 21.5q35 0 71 -18.5t69 -40.5l66 -40q32 -18 58 -18q35 0 54.5 21.5t9.5 56.5q-2 6 12 13t32.5 9t36 -2t19.5 -20q4 -37 -5 -71t-27.5 -60.5 t-46 -43t-62.5 -16.5q-43 0 -82 16.5t-75 37t-69.5 37t-64.5 16.5q-23 0 -35 -6.5t-19 -16.5t-12.5 -25.5t-13.5 -31.5q-6 -10 -24.5 -14.5t-38 -2t-32.5 11.5t-11 23z" />
<glyph unicode="&#x1af;&#x323;" horiz-adv-x="1644" d="M264 254q-2 86 35 191.5t86 211.5l96 206q47 99 64 171q6 18 2 33q-6 25 -47 25q-18 0 -44 -1t-65 -1q-18 0 -34.5 1t-32.5 1q-10 0 -17.5 17t-9.5 36.5t1 37t15 17.5q29 0 91.5 -4t134.5 -4q66 0 113.5 3t83.5 8t62.5 8t51.5 3q4 0 6 -12t4 -27.5t3 -30t1 -16.5 q6 -10 -8 -14q-23 -6 -56.5 -11t-49.5 -34l-54 -110l-63 -137l-65 -149q-32 -77 -57.5 -147.5t-39.5 -130t-14 -98.5q4 -109 63.5 -146.5t165.5 -37.5q102 0 198.5 45t181.5 118.5t152.5 168t110.5 194.5q25 59 48 125l46 129l42 121l34 98q10 31 25.5 50.5t48.5 35.5 q10 2 39.5 9l62.5 14.5t60.5 12.5t36.5 5q6 0 12 -13.5t9 -29.5t2 -29.5t-9 -13.5q-12 -2 -34.5 -9t-33.5 -24q-90 -141 -146 -291.5t-106 -310.5q-20 -63 -40.5 -148t-18.5 -165q2 -57 29.5 -93t109.5 -36q35 0 72 12t67.5 25.5t51 26t22.5 12.5q8 0 17.5 -15.5t15.5 -34 t8 -35t-6 -20.5q-72 -37 -149.5 -63.5t-165.5 -26.5q-66 0 -115 16.5t-81 42t-48 58t-18 63.5q0 35 5 62.5t12 47t13 32t6 14.5q-4 2 -6 4t-6 2q-63 -96 -134 -159.5t-148.5 -101.5t-162.5 -53.5t-178 -15.5q-59 0 -120.5 16.5t-112.5 52.5t-84 89t-37 127zM1483 885l57 61 q-6 -14 1 -35.5t24.5 -41t44 -33t57.5 -13.5q51 0 86 34t31 99q0 23 -12 48q8 4 22 5t29.5 -1t27 -4.5t13.5 -4.5q10 -16 13 -40.5t5 -45.5q2 -37 -12.5 -72.5t-42 -63t-66.5 -44t-88 -16.5q-37 0 -72.5 16.5t-63.5 42t-43 55t-11 54.5zM438 -297q-2 35 20.5 64.5t65.5 29.5 q31 0 56.5 -19.5t27.5 -70.5q2 -35 -24.5 -63.5t-61.5 -28.5q-33 0 -58.5 24.5t-25.5 63.5z" />
<glyph unicode="&#x1b0;&#x323;" horiz-adv-x="790" d="M100 84q-2 25 2 64.5t21.5 106.5t47.5 164l75 236q10 31 22 31q6 0 25.5 -7t40 -16.5t38 -19.5t17.5 -18t-12 -37q-59 -150 -94 -264.5t-33 -173.5q6 -23 21.5 -31t31.5 -8t37.5 19.5t47.5 55t52.5 83.5t48.5 104l30 87l24 67l19 55l18 49q6 20 16 20t30.5 -14t40 -35.5 t31 -44t4.5 -41.5l-46 -91q-24 -46 -43 -89t-31.5 -85t-10.5 -79q2 -47 22.5 -69.5t51.5 -22.5q33 0 79 17.5t99.5 57.5t109.5 106.5t107 164.5q4 2 16.5 -4t27 -15.5t25.5 -18.5t13 -15q-37 -74 -90 -144.5t-117.5 -126t-135 -89t-142.5 -33.5q-74 0 -129 31.5t-57 90.5 q-2 25 0 50q-10 -20 -31 -47t-48.5 -50.5t-60 -39t-67.5 -15.5q-18 0 -40 5t-42.5 15.5t-38 27t-23.5 36.5zM602 487l27 58q10 -29 29.5 -38t52.5 -9q43 0 64.5 32.5t19.5 90.5q0 10 -2 22t-5 23q4 4 11 4q6 0 17 -2l23 -4q11 -2 20 -4.5t11 -4.5q18 -31 23 -75 q0 -33 -12.5 -64t-35 -53.5t-53 -35.5t-65.5 -13q-31 0 -51.5 8t-34.5 20.5t-24 24.5zM229 -297q-2 35 20.5 64.5t65.5 29.5q31 0 56.5 -19.5t27.5 -70.5q2 -35 -24.5 -63.5t-61.5 -28.5q-33 0 -58.5 24.5t-25.5 63.5z" />
<glyph unicode="Y&#x300;" horiz-adv-x="1171" d="M92 1160q98 60 227 61q98 0 177 -51.5t133.5 -131.5t84 -175t29.5 -183q0 -12 10.5 -18.5t14.5 2.5l158 209q88 114 189.5 213.5t215 166t234.5 66.5q16 0 48 -13.5t65.5 -31t61 -34.5t36.5 -28q0 -2 -3.5 -13t-9.5 -22l-11 -21q-5 -9 -7 -7q-6 2 -34 8t-60 6 q-84 0 -176.5 -36.5t-182.5 -98t-175 -140.5t-156.5 -162t-124 -163t-78.5 -145q-47 -121 -66.5 -225.5t-23.5 -169.5q-2 -10 -6.5 -18.5t-26.5 -4.5q-32 5 -60 5t-52 -5q-48 -10 -89 -45q-2 -1 -4 -1q-7 0 -17 11q-13 14 -7 25q37 43 77.5 118.5t75.5 164.5t57.5 182.5 t22.5 169.5q0 88 -22.5 168.5t-68.5 143t-113.5 99.5t-158.5 37q-80 0 -144 -32.5t-112 -100.5q-2 -6 -16 -2t-29.5 12t-27.5 21q-9 9 -9 17q0 42 51.5 91t102.5 81zM666 1607q0 6 12 18.5t27.5 24t29.5 20.5t17 9h12q8 0 12 -6l37 -71q18 -36 43 -78l56.5 -91t76.5 -110 q0 -6 -8 -14.5t-19.5 -15.5t-20.5 -11t-11 0q-31 39 -68 81l-73 83l-68 83q-32 41 -55 78z" />
<glyph unicode="y&#x300;" horiz-adv-x="712" d="M-768 -498q31 -113 107.5 -180t222.5 -67q150 0 272.5 45t226 145t191.5 258t166 385q6 12 0 9t-8 -5q-29 -29 -78 -60.5t-111 -31.5q-27 0 -54.5 9t-49 23.5t-35.5 35t-14 41.5q0 5 -1 10q0 31 10 81q11 58 31.5 129.5t49 150.5t59.5 155q4 16 12.5 23.5t14.5 13.5 q8 2 27 3l40 2q20 1 38 1h20q12 0 12 -12q-33 -78 -61 -159l-52 -150q-23 -69 -35 -122t-12 -75q0 -23 11.5 -40.5t46.5 -17.5q18 0 47.5 18.5t58.5 43t54.5 51.5t37.5 41q10 12 17.5 34.5t15.5 56.5t21.5 84t35.5 118q23 68 41.5 113t38.5 45q10 -2 29 -12l38 -19 q19 -10 33.5 -23.5t16.5 -25.5q-43 -117 -97.5 -243t-95.5 -243q-31 -88 -74.5 -200.5t-105 -229.5t-139.5 -227.5t-177.5 -197.5t-219 -140t-265.5 -53q-104 0 -179 42t-119 103.5t-59 132.5q-8 37 -8 71q0 31 7 60zM281 1163q0 6 12 18.5t27.5 24t29.5 20.5t17 9h12 q8 0 12 -6l37 -71q18 -36 43 -78l56.5 -91t76.5 -110q0 -6 -8 -14.5t-19.5 -15.5t-20.5 -11t-11 0q-31 39 -68 81l-73 83l-68 83q-32 41 -55 78z" />
<glyph unicode="Y&#x323;" horiz-adv-x="1171" d="M92 1160q98 60 227 61q98 0 177 -51.5t133.5 -131.5t84 -175t29.5 -183q0 -12 10.5 -18.5t14.5 2.5l158 209q88 114 189.5 213.5t215 166t234.5 66.5q16 0 48 -13.5t65.5 -31t61 -34.5t36.5 -28q0 -2 -3.5 -13t-9.5 -22l-11 -21q-5 -9 -7 -7q-6 2 -34 8t-60 6 q-84 0 -176.5 -36.5t-182.5 -98t-175 -140.5t-156.5 -162t-124 -163t-78.5 -145q-47 -121 -66.5 -225.5t-23.5 -169.5q-2 -10 -6.5 -18.5t-26.5 -4.5q-32 5 -60 5t-52 -5q-48 -10 -89 -45q-2 -1 -4 -1q-7 0 -17 11q-13 14 -7 25q37 43 77.5 118.5t75.5 164.5t57.5 182.5 t22.5 169.5q0 88 -22.5 168.5t-68.5 143t-113.5 99.5t-158.5 37q-80 0 -144 -32.5t-112 -100.5q-2 -6 -16 -2t-29.5 12t-27.5 21q-9 9 -9 17q0 42 51.5 91t102.5 81zM432 -297q-2 35 20.5 64.5t65.5 29.5q31 0 56.5 -19.5t27.5 -70.5q2 -35 -24.5 -63.5t-61.5 -28.5 q-33 0 -58.5 24.5t-25.5 63.5z" />
<glyph unicode="y&#x323;" horiz-adv-x="712" d="M-768 -498q31 -113 107.5 -180t222.5 -67q150 0 272.5 45t226 145t191.5 258t166 385q6 12 0 9t-8 -5q-29 -29 -78 -60.5t-111 -31.5q-27 0 -54.5 9t-49 23.5t-35.5 35t-14 41.5q0 5 -1 10q0 31 10 81q11 58 31.5 129.5t49 150.5t59.5 155q4 16 12.5 23.5t14.5 13.5 q8 2 27 3l40 2q20 1 38 1h20q12 0 12 -12q-33 -78 -61 -159l-52 -150q-23 -69 -35 -122t-12 -75q0 -23 11.5 -40.5t46.5 -17.5q18 0 47.5 18.5t58.5 43t54.5 51.5t37.5 41q10 12 17.5 34.5t15.5 56.5t21.5 84t35.5 118q23 68 41.5 113t38.5 45q10 -2 29 -12l38 -19 q19 -10 33.5 -23.5t16.5 -25.5q-43 -117 -97.5 -243t-95.5 -243q-31 -88 -74.5 -200.5t-105 -229.5t-139.5 -227.5t-177.5 -197.5t-219 -140t-265.5 -53q-104 0 -179 42t-119 103.5t-59 132.5q-8 37 -8 71q0 31 7 60zM506 -297q-2 35 20.5 64.5t65.5 29.5q31 0 56.5 -19.5 t27.5 -70.5q2 -35 -24.5 -63.5t-61.5 -28.5q-33 0 -58.5 24.5t-25.5 63.5z" />
<glyph unicode="Y&#x309;" horiz-adv-x="1171" d="M92 1160q98 60 227 61q98 0 177 -51.5t133.5 -131.5t84 -175t29.5 -183q0 -12 10.5 -18.5t14.5 2.5l158 209q88 114 189.5 213.5t215 166t234.5 66.5q16 0 48 -13.5t65.5 -31t61 -34.5t36.5 -28q0 -2 -3.5 -13t-9.5 -22l-11 -21q-5 -9 -7 -7q-6 2 -34 8t-60 6 q-84 0 -176.5 -36.5t-182.5 -98t-175 -140.5t-156.5 -162t-124 -163t-78.5 -145q-47 -121 -66.5 -225.5t-23.5 -169.5q-2 -10 -6.5 -18.5t-26.5 -4.5q-32 5 -60 5t-52 -5q-48 -10 -89 -45q-2 -1 -4 -1q-7 0 -17 11q-13 14 -7 25q37 43 77.5 118.5t75.5 164.5t57.5 182.5 t22.5 169.5q0 88 -22.5 168.5t-68.5 143t-113.5 99.5t-158.5 37q-80 0 -144 -32.5t-112 -100.5q-2 -6 -16 -2t-29.5 12t-27.5 21q-9 9 -9 17q0 42 51.5 91t102.5 81zM860 1221q0 4 2 18.5t6 16.5q80 33 117 80t37 88q-2 37 -21.5 54t-66.5 17q-23 0 -35.5 -4t-22.5 -4 q-6 0 -8 12.5t-2 26.5t3 27.5t9 15.5q25 6 55.5 12.5t63.5 6.5q66 0 109 -33t47 -94q2 -57 -32 -107.5t-81 -87.5t-95 -57.5t-75 -20.5q-4 0 -7 14.5t-3 18.5z" />
<glyph unicode="y&#x309;" horiz-adv-x="712" d="M-768 -498q31 -113 107.5 -180t222.5 -67q150 0 272.5 45t226 145t191.5 258t166 385q6 12 0 9t-8 -5q-29 -29 -78 -60.5t-111 -31.5q-27 0 -54.5 9t-49 23.5t-35.5 35t-14 41.5q0 5 -1 10q0 31 10 81q11 58 31.5 129.5t49 150.5t59.5 155q4 16 12.5 23.5t14.5 13.5 q8 2 27 3l40 2q20 1 38 1h20q12 0 12 -12q-33 -78 -61 -159l-52 -150q-23 -69 -35 -122t-12 -75q0 -23 11.5 -40.5t46.5 -17.5q18 0 47.5 18.5t58.5 43t54.5 51.5t37.5 41q10 12 17.5 34.5t15.5 56.5t21.5 84t35.5 118q23 68 41.5 113t38.5 45q10 -2 29 -12l38 -19 q19 -10 33.5 -23.5t16.5 -25.5q-43 -117 -97.5 -243t-95.5 -243q-31 -88 -74.5 -200.5t-105 -229.5t-139.5 -227.5t-177.5 -197.5t-219 -140t-265.5 -53q-104 0 -179 42t-119 103.5t-59 132.5q-8 37 -8 71q0 31 7 60zM402 856q0 4 2 18.5t6 16.5q80 33 117 80t37 88 q-2 37 -21.5 54t-66.5 17q-23 0 -35.5 -4t-22.5 -4q-6 0 -8 12.5t-2 26.5t3 27.5t9 15.5q25 6 55.5 12.5t63.5 6.5q66 0 109 -33t47 -94q2 -57 -32 -107.5t-81 -87.5t-95 -57.5t-75 -20.5q-4 0 -7 14.5t-3 18.5z" />
<glyph unicode="Y&#x303;" horiz-adv-x="1171" d="M92 1160q98 60 227 61q98 0 177 -51.5t133.5 -131.5t84 -175t29.5 -183q0 -12 10.5 -18.5t14.5 2.5l158 209q88 114 189.5 213.5t215 166t234.5 66.5q16 0 48 -13.5t65.5 -31t61 -34.5t36.5 -28q0 -2 -3.5 -13t-9.5 -22l-11 -21q-5 -9 -7 -7q-6 2 -34 8t-60 6 q-84 0 -176.5 -36.5t-182.5 -98t-175 -140.5t-156.5 -162t-124 -163t-78.5 -145q-47 -121 -66.5 -225.5t-23.5 -169.5q-2 -10 -6.5 -18.5t-26.5 -4.5q-32 5 -60 5t-52 -5q-48 -10 -89 -45q-2 -1 -4 -1q-7 0 -17 11q-13 14 -7 25q37 43 77.5 118.5t75.5 164.5t57.5 182.5 t22.5 169.5q0 88 -22.5 168.5t-68.5 143t-113.5 99.5t-158.5 37q-80 0 -144 -32.5t-112 -100.5q-2 -6 -16 -2t-29.5 12t-27.5 21q-9 9 -9 17q0 42 51.5 91t102.5 81zM641 1384q4 20 19 51t38.5 61t57.5 51.5t75 21.5q35 0 71 -18.5t69 -40.5l66 -40q32 -18 58 -18 q35 0 54.5 21.5t9.5 56.5q-2 6 12 13t32.5 9t36 -2t19.5 -20q4 -37 -5 -71t-27.5 -60.5t-46 -43t-62.5 -16.5q-43 0 -82 16.5t-75 37t-69.5 37t-64.5 16.5q-23 0 -35 -6.5t-19 -16.5t-12.5 -25.5t-13.5 -31.5q-6 -10 -24.5 -14.5t-38 -2t-32.5 11.5t-11 23z" />
<glyph unicode="y&#x303;" horiz-adv-x="712" d="M-768 -498q31 -113 107.5 -180t222.5 -67q150 0 272.5 45t226 145t191.5 258t166 385q6 12 0 9t-8 -5q-29 -29 -78 -60.5t-111 -31.5q-27 0 -54.5 9t-49 23.5t-35.5 35t-14 41.5q0 5 -1 10q0 31 10 81q11 58 31.5 129.5t49 150.5t59.5 155q4 16 12.5 23.5t14.5 13.5 q8 2 27 3l40 2q20 1 38 1h20q12 0 12 -12q-33 -78 -61 -159l-52 -150q-23 -69 -35 -122t-12 -75q0 -23 11.5 -40.5t46.5 -17.5q18 0 47.5 18.5t58.5 43t54.5 51.5t37.5 41q10 12 17.5 34.5t15.5 56.5t21.5 84t35.5 118q23 68 41.5 113t38.5 45q10 -2 29 -12l38 -19 q19 -10 33.5 -23.5t16.5 -25.5q-43 -117 -97.5 -243t-95.5 -243q-31 -88 -74.5 -200.5t-105 -229.5t-139.5 -227.5t-177.5 -197.5t-219 -140t-265.5 -53q-104 0 -179 42t-119 103.5t-59 132.5q-8 37 -8 71q0 31 7 60zM201 952q4 20 19 51t38.5 61t57.5 51.5t75 21.5 q35 0 71 -18.5t69 -40.5l66 -40q32 -18 58 -18q35 0 54.5 21.5t9.5 56.5q-2 6 12 13t32.5 9t36 -2t19.5 -20q4 -37 -5 -71t-27.5 -60.5t-46 -43t-62.5 -16.5q-43 0 -82 16.5t-75 37t-69.5 37t-64.5 16.5q-23 0 -35 -6.5t-19 -16.5t-12.5 -25.5t-13.5 -31.5 q-6 -10 -24.5 -14.5t-38 -2t-32.5 11.5t-11 23z" />
<glyph unicode="&#xe4f;&#x22;" horiz-adv-x="985" d="M113 432q0 84 31.5 153.5t84 119t121 77t144.5 27.5q74 0 142.5 -27.5t120.5 -77t83.5 -119t31.5 -153.5q0 -82 -31.5 -150.5t-83.5 -117.5t-121 -77t-142 -28q-76 0 -144.5 28t-121 77t-84 117.5t-31.5 150.5zM201 432q0 -61 22.5 -114.5t62.5 -93.5t93 -62.5t115 -22.5 q59 0 112 22.5t93 62.5t62.5 93.5t22.5 114.5t-22.5 115.5t-62.5 94.5t-93 63.5t-112 23.5q-61 0 -114.5 -23.5t-93.5 -63.5t-62.5 -94.5t-22.5 -115.5zM315 438q0 74 53.5 126t127.5 52t127 -52t53 -126q0 -78 -53.5 -129t-126.5 -51q-74 0 -127.5 51t-53.5 129zM348 1114 h105l-9 -235h-63zM391 438q0 -45 31 -75.5t74 -30.5t73.5 30.5t30.5 75.5q0 41 -30.5 72t-73.5 31t-74 -31t-31 -72zM524 1114h105l-33 -235h-64z" />
<glyph unicode="&#xe24;&#xe32;" horiz-adv-x="811" d="M-477 -504q242 -31 424 -2t305 109t191.5 204.5t82.5 284.5q0 61 13.5 137t30.5 147l31 127q13 56 13 77q0 14 -16 37.5t-37.5 46t-45 39t-36.5 16.5q-86 0 -149.5 -14.5t-126.5 -53.5q27 -10 40 -27.5t17 -39.5q4 4 28.5 15t37.5 11q12 0 18 -14q-41 -51 -69.5 -97 t-47 -96.5t-28 -108.5t-9.5 -136q0 -18 7.5 -48t27.5 -30q33 0 44.5 36t11.5 70q0 63 -39 115q20 -4 43.5 -21.5t38.5 -39.5q10 -18 19 -53t9 -52q0 -25 -7 -50.5t-22.5 -47t-39 -34.5t-58.5 -13q-74 0 -112.5 55t-38.5 137q0 66 12 120t31.5 98t42 80t41.5 63 q0 23 -23.5 47t-71.5 24l-22 60q92 74 193.5 100.5t224.5 26.5q18 0 55 -19.5t76 -49.5t67.5 -64.5t28.5 -65.5q0 -20 -13.5 -79.5t-28.5 -135.5t-28.5 -155.5t-13.5 -141.5q-10 -139 -68.5 -261t-149.5 -217t-204.5 -157.5t-235.5 -82t-242 8t-222 115.5z" />
<glyph unicode="&#xe26;&#xe32;" horiz-adv-x="811" d="M-477 -504q242 -31 424 -2t305 109t191.5 204.5t82.5 284.5q6 61 20.5 137t30.5 147l26 127q11 56 11 77q0 14 -16 37.5t-37.5 46t-45 39t-36.5 16.5q-39 0 -70.5 -3t-61.5 -11.5t-59.5 -21.5t-64.5 -32q45 -27 53.5 -73t8.5 -86q0 -25 -4.5 -71t-14.5 -101.5 t-28.5 -112.5t-47 -103.5t-69.5 -76t-96 -29.5q-43 0 -73 26.5t-30 86.5q0 39 24.5 83t71.5 62q29 10 48.5 9t35.5 -11q-43 -23 -71.5 -54.5t-28.5 -78.5q0 -23 9 -30t22 -7q33 0 59.5 53t45 124t28.5 140.5t10 100.5q0 35 -11 64.5t-59 29.5l-22 57q49 37 96 64.5t97.5 46 t104.5 28t120 9.5q18 0 55 -19.5t76 -49.5t67.5 -64.5t28.5 -65.5q0 -20 -11 -80l-26 -135l-28 -156q-14 -80 -19 -141q-10 -139 -68.5 -261t-149.5 -217t-204.5 -157.5t-235.5 -82t-242 8t-222 115.5z" />
<glyph unicode="&#xfb01;" horiz-adv-x="1277" d="M-805 -506q0 16 16.5 39t38 45.5t46 41t42.5 26.5q10 4 18.5 -1l16.5 -10q-8 -14 -16 -32q-6 -16 -10 -36t-4 -44q0 -55 7 -120t29.5 -118t62.5 -89t107 -36q80 0 167 42t172 133.5t166 232.5t149 338l51 144l59 167l62 173l55 163q-131 2 -210 6t-144 25q-4 29 2 60.5 t20 37.5q20 -4 47 -11t67 -13.5t96.5 -11.5t135.5 -5q37 115 82 239t103.5 240.5t134.5 215t176 161.5q43 29 96.5 47.5t104.5 18.5q70 0 111.5 -27t52.5 -45q4 -6 4 -29.5t-2 -52.5l-4 -56q-2 -28 -7 -40q-2 -6 -11 -7t-21 1q-14 2 -31 6q-4 35 -9 60.5t-20.5 43 t-46.5 26.5t-86 9q-86 0 -150.5 -57.5t-121 -163t-108.5 -256t-111 -338.5q12 0 58 1t110.5 5t140.5 15.5t145 29.5q12 4 32.5 5t40 0t34 -3t16.5 -6q4 -10 1 -27.5t-9 -23.5q-29 -53 -58.5 -117.5t-54 -127t-41 -119t-16.5 -93.5q0 -47 28.5 -61.5t63.5 -14.5q59 0 124 35 t123 86t105 109.5t74 103.5q4 8 16.5 4t24.5 -14t21.5 -22.5t5.5 -18.5q-43 -72 -101.5 -140.5t-128 -122.5t-147.5 -87t-160 -33q-25 0 -59.5 4t-66.5 17.5t-53.5 37t-21.5 62.5q0 41 17.5 100.5t43 122t53.5 121.5l48 102q6 10 1 20.5t-29 4.5q-119 -23 -226.5 -33 t-173.5 -10q-25 -82 -48 -150l-45 -128l-41 -116l-40 -118q-78 -246 -190.5 -433.5t-236.5 -313.5t-249 -190.5t-227 -64.5q-55 0 -109.5 38t-95.5 101.5t-64.5 146.5t-19.5 173zM1112 995q4 -20 27.5 -30.5t44.5 -10.5q23 0 45 11.5t38.5 30t24.5 40t4 41.5q-4 23 -27.5 34 t-45.5 11q-25 0 -46.5 -11t-38 -29.5t-23.5 -41t-3 -45.5z" />
<glyph unicode="&#xfb02;" horiz-adv-x="1392" d="M-1206 -647q37 -47 71.5 -86t92 -66.5t146.5 -42t230 -14.5q164 0 296 47t237.5 142.5t187.5 238.5t148 334l51 144l59 167l62 173l55 163q-131 2 -210 6t-144 25q-4 29 2 60.5t20 37.5q20 -4 47 -11t67 -13.5t96.5 -11.5t135.5 -5q37 115 82 239t103.5 240.5t134.5 215 t176 161.5q43 29 96.5 47.5t104.5 18.5q72 0 108.5 -15.5t63.5 -62.5l7 -23l11 -36q6 -19 11.5 -38.5t7.5 -31.5l91 166q44 80 85 145q57 96 107 127t98 31q47 0 77.5 -20.5t49 -53.5t25.5 -69.5t7 -71.5q0 -129 -36.5 -247t-97 -222.5t-138.5 -192.5t-160 -155.5 t-163 -112.5t-146 -64l-52 -122q-26 -59 -46.5 -111.5t-32.5 -95.5t-12 -72q0 -59 16 -82.5t70 -23.5q74 0 150.5 34.5t146 88t126 116t89.5 115.5q10 12 25.5 6t30.5 -18.5t25.5 -26.5t6.5 -21q-45 -70 -121 -143.5t-167 -133.5t-190.5 -99t-191.5 -39q-86 0 -133 48 t-47 114q0 39 14 90t35.5 109.5t49.5 119.5l54 123q-59 -12 -121.5 -21.5t-121 -13.5t-107.5 -6t-84 -2q-25 -82 -48 -150l-45 -128l-41 -116l-40 -118q-84 -264 -202.5 -461t-262 -327t-305.5 -194.5t-330 -64.5q-104 0 -192 21.5t-153.5 65.5t-104.5 113t-43 163zM580 637 q12 0 57 1t109.5 5t139.5 14.5t144 28.5l41 89q18 40 29 69q14 35 39 88l57 120l71 141l79 150q-47 51 -119 80t-158 29q-78 0 -141.5 -57.5t-121.5 -163t-112.5 -256t-113.5 -338.5zM1165 715q100 45 204 132t187.5 203.5t137 258t53.5 295.5q0 39 -7 68.5t-34 29.5 q-12 0 -23.5 -6t-30 -31t-46.5 -73l-78 -130l-53 -96q-29 -53 -57 -111l-56 -116l-53 -115l-119 -266z" />
<glyph unicode="B&#x35;&#x31;&#x33;DS&#x21;GN" horiz-adv-x="9920" d="M174 6q14 18 29 42l26 44l22 37q9 16 11 23l80 257l73 225l72 223l80 251q2 4 -2 14q-2 8 -18 8q-37 0 -82 -5t-88 -12t-81 -12t-60 -5q-43 0 -52 26v27v38q0 19 2 36.5t4 21.5q2 0 11 -8q6 -4 11 -7t17.5 -4t33 -2t54.5 -1q88 0 185.5 4t214.5 4q127 0 229.5 -8.5 t175 -36t113.5 -79.5t43 -138q2 -41 -6 -86t-34 -86t-72 -77t-119 -58q-6 -2 -7 -7q0 -6 7 -6q45 -4 89 -23.5t79.5 -54t58 -87t24.5 -119.5q4 -72 -29.5 -142.5t-100 -126t-166 -90.5t-226.5 -35q-88 0 -153.5 16.5t-112.5 36t-77 36t-48 16.5q-23 0 -44 -27l-46 -59z M455 223q4 -16 28.5 -41.5t64.5 -49t92 -40t110 -16.5q84 0 153.5 18.5t118.5 56t76.5 96t23.5 140.5q-2 41 -14 77t-39 62.5t-72 41t-110 14.5q-39 0 -79 -4.5t-89 -4.5q-2 0 -6 9.5t-7 21.5l-7 25q-3 12 -3 20q0 14 4.5 32.5t20.5 18.5q29 0 57.5 -2t59.5 -2 q25 0 55.5 4.5t52.5 12.5q82 23 121 73t35 158q-2 59 -19.5 95t-50.5 56.5t-81 26.5t-109 6q-41 0 -67.5 -15t-45 -39.5t-31.5 -56.5l-24 -67l-52 -155l-53 -159q-27 -81 -53 -171l-55 -193q-10 -33 -6 -49zM1415 152q0 10 9.5 26.5t21.5 32.5t25.5 28.5t23.5 12.5 q25 0 43 -21l39 -44q20 -24 48 -44t71 -20q47 0 97 21.5t90 56.5t65.5 81t23.5 97q-2 47 -28.5 80t-66.5 56.5t-86 37.5l-87 27q-18 6 -30.5 19t-18.5 29.5t-8 33t0 26.5q12 43 29 90l34 95q16 48 29.5 94.5t17.5 87.5q4 20 21.5 38.5t36.5 28.5q29 12 49 -6 q23 -16 52.5 -26.5t86.5 -14.5q98 -8 211 -8t216 3t185 7t117 6q25 2 42 12.5t33 23.5l28 25q13 11 32 13h2q10 0 25.5 -6t31 -17.5t28 -23.5t14.5 -25q4 -16 -5.5 -30.5t-21.5 -24.5q-29 -29 -43 -58l-37 -79l-34 -90l-47 -136q-26 -77 -51.5 -167t-47.5 -181 q-8 -31 -15.5 -63.5t-7.5 -60t7.5 -45t27.5 -17.5q23 0 112 -4t253 -4q197 0 315.5 30.5t182 74.5t84 93.5t20.5 86.5q-2 43 -26.5 74.5t-61.5 51t-79 28.5t-77 9t-39 54q0 23 4 42t17 19q20 0 69 23.5t99.5 59.5t89.5 79t37 84q-2 49 -40 76.5t-118 27.5q-33 0 -61.5 -17 t-43.5 -48q-4 -23 -25.5 -43.5t-29.5 -20.5t-24.5 11.5t-32 26t-26.5 30.5t-11 24q0 25 25.5 50.5t67.5 47t93 36t101 14.5q55 0 103 -17.5t85 -46t59.5 -62.5t24.5 -69q0 -43 -16.5 -85t-43 -77.5t-61.5 -65.5t-69 -48q-43 -23 -9 -37q80 -29 132.5 -76t56.5 -143 q2 -80 -35 -154.5t-132 -131t-256 -91.5t-407 -35h-87q-62 0 -142 2t-167 5t-158.5 9.5t-119 14.5t-47.5 18q-2 0 -5 15.5t-5 37t0 42t10 32.5q2 4 35 -4l72 -18q39 -10 71.5 -15.5t32.5 5.5q8 90 35 189t60.5 199.5t69.5 197t63 178.5q10 29 -0.5 40t-20.5 11 q-121 -6 -220 -7t-187 0t-169 3l-167 4q-35 0 -54.5 -12.5t-41.5 -49.5q-29 -49 -36 -101t-5 -81q2 -35 24.5 -56.5t57 -40t74.5 -37t76 -43t59.5 -60t25.5 -91.5q-4 -74 -43 -145.5t-100.5 -126.5t-141.5 -90t-166 -35q-33 0 -78.5 18.5t-87.5 43t-72 50.5t-30 40zM4104 6 q29 39 58.5 85t39.5 75l34 95l57 159l68 191l69 196q33 94 57.5 172t32.5 121q-2 8 -10 11t-15 3q-43 0 -78.5 -5t-70.5 -12t-71 -13.5t-79 -6.5q-12 0 -19 15.5t-12.5 35t-8.5 40t-7 30.5q-2 6 -3 22.5t9 16.5q2 0 14.5 -5t31 -11.5t40 -11.5t39.5 -5q78 0 140.5 3t119 8.5 t113.5 8.5t125 3q125 0 248 -21.5t221 -78t161.5 -153.5t69.5 -251q2 -78 -13 -163t-52 -168t-96.5 -157.5t-145.5 -132t-200.5 -91.5t-260.5 -34q-66 0 -148.5 16.5t-178.5 53.5l-28 10q-11 4 -21 4q-23 0 -51.5 -19t-59.5 -52zM4404 219q-1 -6 1 -10q2 -10 8.5 -20.5 t18.5 -18.5q57 -47 116.5 -62.5t131.5 -15.5q141 0 256.5 45t196.5 127t123 195.5t36 251.5q-2 104 -26.5 181t-83 128t-154.5 76.5t-244 25.5q-33 0 -52.5 -4t-29.5 -28l-153 -432q-76 -208 -140 -416q-4 -17 -5 -23zM5530 59q2 23 2 57v69q0 36 1 68t1 50q0 4 15 4h20 q4 0 20 -3t18 -11q-2 -12 -1 -33.5t6 -34.5q16 -78 79.5 -108.5t147.5 -30.5q61 0 118.5 16.5t100.5 46t67.5 70.5t22.5 90q0 25 -6 47.5t-21.5 49t-43 60.5t-74.5 81q-86 82 -138.5 166t-56.5 178q-2 68 22.5 127t72.5 105t117 73t155 27q45 0 83 -12.5t67.5 -30t50 -38 t26.5 -38.5q0 -18 -1 -44t-3 -51.5t-5 -49t-7 -39.5q-4 -4 -29 -2t-29 10q2 8 1 27.5t-5 31.5q-10 51 -50 81t-144 30q-35 0 -62.5 -14.5t-47 -37t-29 -50t-9.5 -54.5q4 -90 49 -160.5t111 -142.5l89 -92q38 -39 62.5 -72t38 -64.5t15.5 -74.5q4 -90 -47.5 -157.5 t-130 -111.5t-171 -65.5t-171.5 -21.5q-66 0 -129.5 12t-120.5 37q-41 16 -47 30zM6642 41q-10 43 19.5 79t78.5 36q35 0 64.5 -23.5t33.5 -56.5q4 -20 -6 -38t-26.5 -31t-38 -19t-39.5 -6q-29 0 -54.5 15t-31.5 44zM6719 377q16 133 33 240.5t34 200.5t37.5 175t45.5 162 q23 96 123 96q25 0 62.5 -6t56.5 -12q14 -6 14 -15.5t-8 -9.5q-20 0 -39 -14t-29 -31q-41 -55 -70.5 -136t-54 -183.5t-47.5 -220.5l-49 -252q-2 -6 -19.5 -8.5t-37 -1.5t-36 5.5t-16.5 10.5zM7160 360q-4 145 54 299t172 280t279 207t369 81q47 0 102.5 -6.5t110 -19.5 t103.5 -34.5t84 -50.5q-2 -49 -11.5 -115.5t-19.5 -117.5q-2 0 -6 -2q-8 -4 -25 -4q-8 0 -20 4q-6 2 -10 4q0 16 1 22t-1 27q-6 51 -37 86t-80 56.5t-114.5 31.5t-139.5 10q-137 0 -257 -69.5t-206 -180t-134 -248t-42 -274.5q2 -55 19.5 -106.5t54 -91t95 -63.5t140.5 -24 q125 0 231.5 48.5t184.5 113t125 130t51 98.5q4 31 -1 43t-34 12q-45 0 -89 -6t-122 -11v91q55 0 128 2t147.5 6t142.5 12t113 23q2 -2 4 -13.5t2 -25.5v-27q0 -12 -2 -16q-41 -12 -75 -26.5t-44 -53.5l-66 -212q-35 -110 -73.5 -214.5t-81.5 -195.5t-86 -154 q-39 -57 -93.5 -115.5t-127 -107t-167 -79t-212.5 -30.5q-55 0 -115.5 15.5t-114.5 31.5q-4 14 -6 31q-4 31 8 71q16 -8 46 -17t63 -17.5t63.5 -13.5t49.5 -5q94 0 175 36t149.5 94.5t124.5 135t100 157.5t76 162t50 146q-2 20 -16 6q-20 -23 -60 -60.5t-101.5 -72.5 t-144.5 -61.5t-192 -28.5q-229 0 -356 106.5t-135 290.5zM8720 51q-4 29 6.5 75t20.5 85q8 29 30 89l51 137l60 163q31 86 56.5 167t42 147.5t14.5 105.5q-2 33 -12.5 54.5t-51.5 21.5q-33 0 -65.5 -2t-61.5 -4q-6 0 -11 15t-9 35l-8 38q-4 18 -8 26q0 10 10 10 q29 -10 67.5 -13t79.5 -3q27 0 59.5 2t65.5 6t60.5 9.5t42.5 11.5q16 0 26 -27l211 -448l226 -461q10 -23 16 -29t18 -6q6 0 11.5 5t9.5 22l67 259l68 256q35 126 73 243.5t81 224.5q14 29 34.5 58.5t46 55t57.5 42t66 16.5q10 0 40 -5.5t61.5 -12.5t59.5 -17t34 -23 q0 -6 -10 -6q-31 0 -63 -8t-64.5 -30.5t-63 -62.5t-61.5 -106q-57 -131 -106.5 -277.5t-89.5 -299t-73 -305.5l-61 -299q-8 -18 -16 -19q-2 0 -20.5 1t-40 3t-40 5.5t-22.5 9.5l-99 202l-115 229l-118 223q-57 108 -104 187q-10 18 -20.5 26.5t-16.5 8.5q-10 0 -20.5 -8 t-16.5 -25l-68 -183l-52 -138l-46 -128q-23 -65 -47 -153l-14 -55q-8 -33 -12.5 -69.5t-5.5 -74.5t7 -71h-8l-32 16l-50 26q-27 13 -49.5 27.5t-26.5 24.5z" />
<glyph unicode=" "  horiz-adv-x="512" />
<glyph unicode="&#x09;" horiz-adv-x="512" />
<glyph unicode="&#xa0;" horiz-adv-x="512" />
<glyph unicode="!" horiz-adv-x="675" d="M209 41q-10 43 19.5 79t78.5 36q35 0 64.5 -23.5t34.5 -56.5q4 -20 -6.5 -38t-27 -31t-38 -19t-39.5 -6q-29 0 -54.5 15t-31.5 44zM287 377q16 133 32.5 240.5t34 200.5t38 175t44.5 162q23 96 123 96q25 0 62.5 -6t56.5 -12q14 -6 14 -15.5t-8 -9.5q-20 0 -38.5 -14 t-29.5 -31q-41 -55 -70.5 -136t-54 -183.5t-47.5 -220.5l-49 -252q-2 -6 -19.5 -8.5t-37 -1.5t-35.5 5.5t-16 10.5z" />
<glyph unicode="&#x22;" horiz-adv-x="1005" d="M166 854l61 138l53 119l52 120l61 141q12 29 43 29q12 0 31.5 -5t36 -14.5t27 -20.5t1.5 -26l-82 -146l-63 -115l-58 -112q-30 -58 -67 -143q-2 -6 -20.5 -6t-37 4t-31.5 13.5t-7 23.5zM446 836l51 115l43 106l49 125l70 170q10 25 48 24q10 0 28.5 -4t35.5 -11 t28.5 -17.5t5.5 -22.5l-82 -151l-56 -104l-55 -104q-29 -56 -73 -153q-4 -6 -20.5 -7t-34 3t-30 12.5t-8.5 18.5z" />
<glyph unicode="#" horiz-adv-x="944" d="M90 368.5q0 14.5 2 29t4 20.5q6 16 15.5 19t19.5 5q16 2 42 4.5t46 6.5l20 63l13 51q6 25 13 50l18 63q-31 -4 -60.5 -7t-58.5 -7q-10 0 -10 8q0 4 1 14t4 24l6 25q3 12 7 21q4 16 29 16q23 0 47 1t53 1q20 59 26.5 116.5t18.5 104.5q6 18 29.5 26.5t48.5 9.5t43 -4 t14 -13q-27 -55 -37 -117.5t-30 -122.5q43 4 86 3t86 3q18 47 31.5 93.5t22.5 85t14 68.5t10 42q2 6 17 11t32.5 7.5t34 2.5t22.5 -2q10 -4 13 -9.5t-3 -21.5q0 -4 -6 -28.5t-17 -63.5l-26 -86l-31 -99q41 2 67 4l52 5q12 0 12 -15q-10 -16 -15 -43.5t-11 -40.5 q-8 -10 -24.5 -6t-57.5 4h-22q-11 0 -21 -2q-12 -37 -18 -62l-12 -48q-5 -23 -10 -48.5t-17 -62.5q55 0 102 -6t51 -33q4 -12 -3 -40t-15 -50q-18 16 -50 21.5t-110 5.5q-20 -90 -35 -167l-26 -143q-8 -23 -19 -22q-4 0 -21.5 4t-37 10t-34.5 12.5t-15 8.5q-4 8 -3 15t3 15 q23 68 39 128l36 139q-39 0 -84 -2.5t-90 -6.5q-27 -100 -48 -169.5t-32 -143.5q-6 -33 -22 -33q-6 0 -22.5 3t-35 8.5t-34 11.5t-19.5 12q-4 12 2 25l23 67l20 66q10 33 22.5 68.5t29.5 78.5q-41 -4 -66 -11t-35 -7q-2 0 -3 11t-1 25.5zM338 459q39 4 83 4t85 4 q10 37 16 62l12 49l11 48q6 26 16 62q-45 0 -88 1t-74 -5q-10 -33 -17 -58.5t-13 -50.5l-14 -52z" />
<glyph unicode="$" horiz-adv-x="911" d="M49 59q2 23 2 57v69q0 36 1 68t1 50q0 4 16 4h19q4 0 20.5 -3t18.5 -11q-2 -12 -1 -33.5t5 -34.5q16 -78 79.5 -108.5t147.5 -30.5q61 0 119 16.5t101 46t67.5 70.5t22.5 90q0 25 -6.5 47.5t-21.5 49t-43 60.5t-75 81q-86 82 -138 166t-56 178q-2 68 22.5 127t72.5 105 t116.5 73t154.5 27q45 0 83 -12.5t67.5 -30t50 -38t27.5 -38.5q0 -18 -1 -44t-3.5 -51.5t-5.5 -49t-7 -39.5q-4 -4 -28.5 -2t-28.5 10q2 8 1 27.5t-5 31.5q-10 51 -50 81t-145 30q-35 0 -62.5 -14.5t-47 -37t-28.5 -50t-9 -54.5q4 -90 49 -160.5t111 -142.5l89 -92 q38 -39 62.5 -72t37.5 -64.5t15 -74.5q4 -90 -47 -157.5t-130 -111.5t-171 -65.5t-172 -21.5q-66 0 -129 12t-121 37q-41 16 -47 30zM311 -449q57 504 193.5 996.5t322.5 994.5q6 6 16.5 8t22 0t20.5 -7t11 -13q-100 -266 -179 -509t-140.5 -482.5t-106.5 -486.5t-80 -523 q-2 -12 -13 -14t-24.5 2t-26 13t-16.5 21z" />
<glyph unicode="%" horiz-adv-x="1337" d="M236 727q-2 66 35.5 130.5t92 116.5t109.5 84t86 32q37 0 67.5 -19.5t53 -50.5t36 -70t15.5 -76q2 -63 -30.5 -117.5t-84 -92t-114 -59t-121.5 -21.5q-61 0 -101 36.5t-44 106.5zM322 -12q14 23 66 96l125 173l158 212l164 214l142 180q63 79 92 110q23 27 35 40t29 13h2 q12 0 30.5 -3t36 -8t31.5 -11.5t16 -14.5q4 -14 -4 -27.5t-22 -21.5q-41 -20 -96.5 -80.5t-119 -140.5t-128.5 -172l-125 -177l-108 -154q-48 -69 -79 -103q-16 -18 -31.5 -44t-27.5 -52.5t-21 -48.5l-12 -31q-4 -8 -31.5 -7.5t-58.5 9t-51 22t-12 27.5zM365 750 q0 -23 16 -39.5t45 -16.5t61.5 13.5t60 36t45 52t17.5 64.5q-2 35 -16 65.5t-47 30.5q-37 4 -71 -20.5t-58.5 -59t-38.5 -70.5t-14 -56zM831 145q0 33 26 89.5t67 109.5t92 93t100 40q41 0 81 -13t70.5 -37t51 -53.5t20.5 -64.5q2 -53 -35.5 -111.5t-92 -107.5t-115 -81 t-103.5 -32q-16 0 -42.5 8.5t-53.5 29t-45.5 52t-20.5 78.5zM952 170q0 -29 15.5 -49.5t44.5 -20.5q33 0 68.5 20.5t65.5 51.5t49 64.5t17 60.5q0 23 -30.5 48.5t-57.5 25.5q-31 0 -61.5 -22.5t-56 -53.5t-41 -65.5t-13.5 -59.5z" />
<glyph unicode="&#x26;" horiz-adv-x="1634" d="M135 401q-4 133 41 255t130 214.5t205 145.5t267 53q4 12 16.5 32.5t33 40t46 34t58.5 14.5q35 0 58.5 -18.5t36.5 -44t18.5 -52t1.5 -45.5q59 -18 113 -56t96 -90.5t68 -117t28 -135.5q4 -125 -37 -228.5t-131 -173.5q70 -41 153 -41q37 0 73 11.5t63.5 35t45 59.5 t15.5 85q-2 43 -11.5 83t-27.5 70.5t-44 49t-58 18.5q-4 0 -5.5 12.5t1.5 12.5q18 0 39.5 6t33.5 6q37 0 70 -21.5t56.5 -55.5t36.5 -76t15 -81q2 -66 -15 -122t-54 -97t-95.5 -63.5t-136.5 -22.5q-25 0 -56.5 6.5t-65 15.5t-64.5 20.5t-51 23.5q-63 -39 -133 -60.5 t-156 -21.5q-68 0 -132.5 16.5t-115.5 52t-82.5 91t-36.5 133.5q-2 76 28 133t77 103t104.5 87t110.5 84q-8 92 0 189q-80 0 -170 -34t-165 -102.5t-122 -174t-43 -248.5q4 -106 44 -195.5t112 -154t173 -101.5t228 -37q53 0 110.5 5t114 20.5t111.5 43t105 70.5q6 4 14 -8 t16.5 -29.5t11.5 -35t-1 -23.5q-20 -27 -66.5 -55.5t-111 -52t-143.5 -39t-165 -15.5q-145 0 -268 43t-214 122t-144.5 188.5t-57.5 242.5zM580 356q2 -51 20 -85.5t49 -55t71 -30t85 -9.5q53 0 97 9.5t97 37.5q-55 41 -95 93.5t-66.5 112.5t-41 127t-18.5 132l-83 -77 q-38 -34 -63.5 -70.5t-39.5 -81t-12 -103.5zM837 902q-1 -36 1 -79q18 14 40.5 39t40 47.5t26.5 38t1 10.5q-25 4 -51.5 9.5t-52.5 5.5q-4 -35 -5 -71zM850 733q6 -70 19.5 -133t40 -120.5t69.5 -107.5t108 -91q49 41 79 78.5t47.5 75.5t22.5 79t3 90q-4 117 -64.5 206 t-150.5 130q-23 -57 -65.5 -105.5t-108.5 -101.5zM852 1071q27 0 61.5 -5t63.5 -11q4 27 -9.5 51t-37.5 24q-20 0 -44 -18t-34 -41z" />
<glyph unicode="'" horiz-adv-x="669" d="M125 809q55 164 97 314.5t110 306.5q14 27 43 26q6 0 22.5 -3t32.5 -7t30.5 -11.5t14.5 -15.5q-23 -68 -58 -145l-75 -159l-76 -163q-37 -82 -65 -161q-2 -8 -16.5 -11.5t-30 -0.5t-25.5 10.5t-4 19.5z" />
<glyph unicode="(" horiz-adv-x="890" d="M152 379q-6 172 29.5 347t110.5 336t189.5 297t266.5 228q16 0 45 -28q16 -14 31.5 -32t9.5 -22q-100 -53 -177 -136t-134.5 -181t-96.5 -207t-62.5 -215.5t-31.5 -203.5t-6 -175q2 -63 19 -134t50 -136.5t79 -118.5t104 -84q12 -6 2 -37q-4 -16 -19.5 -31.5t-19.5 -11.5 q-84 37 -154 95.5t-121 129t-80.5 152.5t-33.5 168z" />
<glyph unicode=")" horiz-adv-x="1247" d="M403 -100q143 63 247 183t169.5 267.5t94 308t22.5 308.5q-4 150 -61.5 290t-161.5 228q-10 8 8 41q10 16 28.5 33.5t22.5 13.5q70 -45 130.5 -119t104.5 -160t70.5 -177t28.5 -175q4 -102 -14.5 -217t-56.5 -228.5t-94 -221t-128 -198.5t-158 -160t-184 -101 q-23 0 -41 28l-22 33q-13 19 -5 23z" />
<glyph unicode="*" horiz-adv-x="780" d="M94 956q0 18 10.5 34t32.5 16h166l-131 116q-14 14 -14 35q0 20 14 36.5t33 16.5q18 0 37 -20l116 -148l31 160q8 47 49 47q18 0 34.5 -10t16.5 -31q0 -6 -4 -18l-67 -166l160 27q27 4 44 -8.5t17 -43.5q0 -20 -12.5 -33.5t-40.5 -11.5l-160 7l135 -117q16 -12 17 -35 q0 -23 -17.5 -39t-40.5 -16q-25 0 -37 18l-104 148l-37 -152q-4 -18 -16.5 -26.5t-26.5 -8.5q-20 0 -37.5 12.5t-17.5 32.5q0 6 4 19l69 145q-66 -12 -102.5 -18t-53 -9.5t-20.5 -4.5t-6 -1q-23 0 -32 14.5t-9 32.5z" />
<glyph unicode="+" horiz-adv-x="819" d="M61 287l2 112q20 -4 82 -3t160 -3q8 66 17 120l16 112h117q-12 -47 -22 -106l-19 -126q78 0 152.5 -1t117.5 -9l-6 -113q-59 12 -127 16.5t-143 4.5l-10.5 -78t-7.5 -64.5t-5 -57.5t-6 -58h-127l10 55l12 68q6 35 11.5 70.5t11.5 66.5h-52q-32 0 -67 -1l-66 -2 q-33 -1 -51 -3z" />
<glyph unicode="," horiz-adv-x="645" d="M35 -381q-2 14 6 25q98 154 175 315.5t165 327.5q6 20 29 20q6 0 18 -3t25.5 -13t27 -28.5t21.5 -49.5q10 -31 -13 -55l-109 -151l-90 -129l-84 -126l-93 -139q0 -4 -11.5 -7t-25 -4t-25.5 2t-16 15z" />
<glyph unicode="-" horiz-adv-x="970" d="M211 383q0 18 5 39.5t24 21.5q43 0 110.5 1t136 1t130 1.5t94.5 1.5q16 0 27.5 -21.5t13.5 -38.5q0 -16 -7.5 -34.5t-27.5 -20.5l-471 -4q-16 0 -25.5 19.5t-9.5 33.5z" />
<glyph unicode="." horiz-adv-x="706" d="M248 82q-2 61 30.5 95t86.5 34q35 0 60.5 -29.5t27.5 -68.5q0 -20 -5.5 -43t-18.5 -42.5t-34.5 -31.5t-56.5 -12q-41 0 -64.5 29.5t-25.5 68.5z" />
<glyph unicode="/" horiz-adv-x="1130" d="M319 -483q8 49 30 151.5l53 238.5l70 298l78 333l81 340l77 319l66 274l51 204q0 18 45 29q12 2 27.5 2t30 -3t25 -8t12.5 -12q0 20 -20.5 -48t-53.5 -198l-75 -308l-87 -370l-89 -390l-81 -366q-37 -169 -62.5 -297t-33.5 -185q-6 -20 -53 -25h-27q-14 0 -28.5 3 t-25 7.5t-10.5 10.5z" />
<glyph unicode="0" horiz-adv-x="819" d="M20 211q-2 61 16.5 137t51.5 150.5t76 143.5t90 118q31 33 67.5 62.5t73.5 53t68 37t49 13.5q23 0 33 -6.5t37 -6.5q35 0 64.5 -20.5t51 -54t33.5 -75.5t14 -85v-2q-2 -61 -15 -138t-40.5 -155t-69.5 -151.5t-99.5 -131t-130.5 -92.5t-163 -35q-43 0 -79.5 23.5 t-64.5 59.5t-44.5 77t-18.5 78zM172 223q2 -49 10 -76.5t19.5 -41t24 -16.5t22.5 -3q53 0 99 32t85 83t69.5 115.5t52 130t34 128t12.5 107.5v2q-2 55 -17.5 88t-47.5 33q-18 0 -41 -10.5t-45.5 -25.5t-42 -32.5t-33.5 -34.5q-31 -35 -68 -90t-66.5 -119.5t-49 -134 t-17.5 -135.5z" />
<glyph unicode="1" horiz-adv-x="819" d="M129 688q0 14 31 23q20 6 53 17l73 26q40 14 84 32.5t83 40.5q18 12 34.5 31t33 35l31.5 29.5t32 15.5h2q10 0 24.5 -6t27.5 -15.5t23.5 -20.5t12.5 -22q4 -16 -4 -28t-19 -23q-29 -25 -41 -51l-32 -74q-12 -27 -31 -74l-42 -112q-24 -63 -47.5 -138t-43.5 -157 q-8 -29 -7 -53.5t5 -45t9 -33.5t5 -19q0 -12 -20.5 -31t-49 -35t-55.5 -28.5t-39 -12.5q-6 0 -14 16.5t-4 61.5q6 80 25.5 156.5t44.5 151.5l54 149q28 74 52 147q16 51 -6 51q-20 0 -43 -13t-44 -30l-40 -29q-18 -13 -29 -14q-10 0 -31.5 9.5t-43 21.5t-38 26.5t-16.5 24.5 z" />
<glyph unicode="2" horiz-adv-x="819" d="M39 76q0 10 13.5 23.5t25.5 21.5q59 33 125.5 90t130 121.5t118.5 127.5l91 105q47 55 64.5 94t15.5 74q-2 49 -31 64.5t-68 15.5q-29 0 -61.5 -13.5t-62 -36t-52 -50t-29.5 -58.5q-2 -14 -20 -16t-38.5 5t-37 20.5t-16.5 27.5q-2 39 25.5 80t74.5 74t108.5 53.5 t125.5 20.5q39 0 78.5 -12.5t72.5 -35t54.5 -55.5t23.5 -74q0 -35 -12.5 -69.5t-32.5 -67.5t-43 -61l-41 -51l-82 -93l-97 -105l-87 -94q-39 -42 -49 -61q-12 -18 61 -24q35 -4 64 -4h57q72 0 115 12t65 12q12 0 22.5 -11t10.5 -15q0 -10 -10.5 -31t-24.5 -42.5t-31.5 -36.5 t-31.5 -15t-27.5 4t-36 8t-58.5 8t-98 4q-102 0 -150 1t-77 1q-35 -2 -53.5 -11t-24.5 -9t-16 11t-19.5 26.5t-16.5 29t-7 17.5z" />
<glyph unicode="3" horiz-adv-x="819" d="M61 43q0 6 8.5 19.5t22.5 27.5t33.5 24.5t40.5 10.5q10 0 23 -10l29 -23q15 -12 32.5 -22.5t32.5 -10.5q51 0 105 21.5t98 54.5t72 72t28 72q-2 41 -24.5 68.5t-56.5 46t-72 26.5t-71 8q-31 0 -34 49q0 18 4 35.5t16 17.5q18 0 62.5 18.5t90.5 48.5t80.5 65.5t32.5 72.5 q-4 96 -141 96q-29 0 -55.5 -16t-40.5 -45q-4 -20 -23.5 -37.5t-27.5 -17.5q-6 0 -20.5 9t-29 23.5t-24.5 29t-10 22.5q0 20 23.5 43.5t61.5 43t84 32t91 12.5q49 0 94 -15.5t79 -41t53.5 -56.5t21.5 -61q0 -39 -14.5 -75t-39 -65.5t-56.5 -53t-65 -40.5q-41 -20 -8 -33 q74 -27 122 -69.5t50 -128.5q2 -74 -52 -135.5t-134 -106.5t-172 -70.5t-164 -25.5q-66 0 -111 29.5t-45 60.5z" />
<glyph unicode="4" horiz-adv-x="819" d="M47 338q0 29 24.5 73t64.5 94t90 101t102.5 96.5t98.5 80t79 51.5q25 12 36 21t21 19q14 16 39 30t41 14q8 0 22.5 -10.5t27 -24t21.5 -26.5t9 -19q2 -16 -6 -21.5t-17 -9.5q-27 -16 -46 -75.5t-34.5 -130.5t-26.5 -138.5t-22 -97.5q-4 -23 11 -23q41 0 83 12.5t76 12.5 q16 0 21.5 -16.5t3.5 -36t-7 -37t-9 -21.5q-8 -8 -31 -10t-49.5 -1t-52 3t-39.5 0q-39 -6 -48 -29q-16 -68 -28.5 -132t-9.5 -110q0 -20 -24 -33.5t-52.5 -18.5t-52 -2t-23.5 16q-4 47 15.5 108.5t43.5 163.5q10 25 -16 25q-72 0 -122 4t-84 10t-54.5 13t-32.5 13 q-43 23 -43 62zM203 365q6 -6 13 -11.5t27.5 -9.5t58.5 -7t101 -3q25 0 31 31q12 33 24 74l21 84l20 79l15 60q12 29 1 32.5t-34 -8.5q-14 -8 -43.5 -30.5t-63.5 -53.5t-70 -67.5t-61.5 -69.5t-37.5 -59.5t-2 -40.5z" />
<glyph unicode="5" horiz-adv-x="819" d="M-14 63q0 8 8 23.5t19.5 30t23.5 26t20 11.5q25 0 41 -19l35 -40q18 -22 43 -40t66 -18q43 0 88 16.5t82 45t59.5 68.5t20.5 85q-2 43 -27 72.5t-60.5 50t-77.5 35t-79 24.5q-33 10 -44 44t-7 52q23 80 56.5 160t41.5 156q4 18 20.5 34.5t32.5 26.5q25 10 45 -6 q18 -14 47 -20.5t80 -6.5q37 0 76 8.5t73 18.5l60 19q27 8 39 8q10 0 10 -16.5t-6 -37t-17.5 -39t-27.5 -22.5l-58 -18q-26 -8 -52.5 -14.5t-59.5 -10.5t-82 -4q-31 0 -49 -9t-39 -44q-25 -47 -32 -84t-5 -64q2 -31 22.5 -51t52.5 -36.5t67.5 -33t67.5 -39t53.5 -55.5 t23.5 -82q-2 -68 -37 -129t-91 -108t-129 -76t-151 -29q-31 0 -71.5 16.5t-78.5 39t-65.5 45t-27.5 36.5z" />
<glyph unicode="6" horiz-adv-x="819" d="M23 295q-2 53 17 122.5t55 143.5t90.5 144.5t122 127t149.5 90t174 33.5q18 0 39.5 -8t39 -19t30 -24.5t12.5 -23.5q2 -16 -20.5 -45t-53.5 -39q-18 -6 -27.5 -2t-19.5 16q-33 33 -74 33q-45 0 -108.5 -46t-123 -111.5t-102.5 -135.5t-45 -117q0 -8 4 -15t15 1 q49 41 94 64.5t104 23.5q43 0 82 -18.5t68.5 -48t47 -68.5t19.5 -80q2 -59 -28.5 -115.5t-77.5 -100.5t-104.5 -70.5t-110.5 -26.5q-63 0 -112.5 27.5t-83.5 72.5t-52 101.5t-20 113.5zM174 240q0 -25 9.5 -51.5t24.5 -49t37.5 -37t49.5 -14.5q29 0 61.5 15.5t61 41t48 61.5 t17.5 79q0 18 -5 38.5t-17 38t-31.5 28.5t-50.5 11q-33 -4 -69 -19t-66.5 -37.5t-50 -49t-19.5 -55.5z" />
<glyph unicode="7" horiz-adv-x="819" d="M63 -20q0 18 12.5 41.5t32 49l42 52.5t40.5 51q61 80 118 165t101 158.5t73 128.5l40 72q18 35 25.5 52.5t5.5 33.5q0 20 -51 23q-23 2 -50 2h-57q-68 0 -105.5 -6t-57 -14.5t-28.5 -14.5t-22 -6q-8 0 -20 13.5t-24.5 33t-22 41t-9.5 35.5q0 16 22 20t52 4q14 0 57.5 -5 t104.5 -5q29 0 76 1l96 2q49 1 91 2t59 1q16 0 29.5 -15t21.5 -35.5t10 -41t-6 -33.5q-47 -86 -105 -180l-115 -186l-112 -178l-94 -158q-25 -43 -34 -77t-12 -57.5t-5 -36.5t-13 -13q-8 0 -35.5 5t-56 15t-51.5 26t-23 34z" />
<glyph unicode="8" horiz-adv-x="819" d="M29 168q-2 43 21.5 78t59 65.5t78.5 57t82 53.5q27 14 0 35q-49 43 -72.5 82t-25.5 69q-2 47 24.5 88t64.5 75t82 60.5t77 42.5q27 12 20 23q-6 10 2.5 20.5t20.5 19.5t27.5 14t23.5 5q23 0 59 -24l62 -45q33 -25 59.5 -54.5t45 -63.5t20.5 -77q0 -39 -27.5 -74.5 t-66.5 -68.5t-81 -60l-71 -45q-27 -18 -4 -34q55 -47 81.5 -92.5t26.5 -79.5q2 -63 -34.5 -114.5t-92 -85.5t-119 -52.5t-116.5 -18.5q-33 0 -73 17.5t-73.5 45t-57 64.5t-23.5 74zM168 170q2 -49 38 -70.5t83 -21.5h2q29 0 63.5 9t63 27.5t48 44t19.5 58.5q-2 31 -10 58.5 t-31 50.5q-29 29 -47 37t-26 8t-36 -14.5t-61 -37.5q-53 -39 -80.5 -73.5t-25.5 -75.5zM303 625q0 -18 11.5 -48t64.5 -71q12 -10 24.5 -8t22.5 6q25 10 58.5 29.5t66.5 44t54.5 53t21.5 57.5q-2 35 -28 63.5t-58 47.5q-20 12 -62 -6q-31 -12 -62.5 -31t-57 -40.5t-41 -46 t-15.5 -48.5v-2z" />
<glyph unicode="9" horiz-adv-x="819" d="M18 66q0 10 19.5 13t46.5 3h55q29 0 49 6q86 25 159 73t128 104.5t88 115.5t37 104q0 27 -31 2q-43 -35 -105.5 -63.5t-127.5 -28.5q-66 0 -113 38t-51 124q-2 66 27.5 127t79 110.5t113 79t126.5 29.5q115 0 169 -60.5t65 -160.5v-2q2 -66 -10.5 -139.5t-32.5 -130.5 q-61 -154 -172 -269.5t-258 -171.5q-63 -23 -95 -37t-55 -14q-10 0 -28.5 17.5t-37 42t-32 49.5t-13.5 39zM295 578q2 -41 21.5 -56.5t48.5 -15.5q31 0 74.5 21.5t83.5 53t69 66.5t26 60q-2 59 -25.5 75.5t-76.5 16.5q-29 0 -67.5 -17.5t-73.5 -48.5t-58.5 -70.5 t-21.5 -84.5z" />
<glyph unicode=":" horiz-adv-x="735" d="M169 90q5 31 20.5 53.5t40 37t51.5 14.5q18 0 42.5 -12.5t34.5 -47.5q0 -18 -6 -46t-20.5 -54.5t-36 -46t-51.5 -19.5q-23 0 -45.5 13.5t-26.5 42.5q-8 34 -3 65zM299 605q6 30 21.5 53.5t40 37t51.5 13.5q20 0 44.5 -10.5t32.5 -45.5q4 -18 -3 -45.5t-22 -55.5 t-38 -47.5t-51 -19.5q-23 0 -46.5 13.5t-27.5 42.5q-8 34 -2 64z" />
<glyph unicode=";" horiz-adv-x="710" d="M-102 -434q-2 14 8 28l325 627q6 23 35 23q8 0 23.5 -17.5t32.5 -85.5q10 -35 -15 -61l-44 -62l-65 -91l-75 -105l-75 -107l-63 -92l-42 -63q-2 -6 -19.5 -12.5t-25.5 18.5zM307 588.5q6 29.5 21.5 53.5t40 37t51.5 13q18 0 42.5 -11t35.5 -46q4 -18 -4.5 -47 t-23.5 -55.5t-37.5 -45t-51.5 -18.5q-23 0 -46.5 13.5t-25.5 41.5q-8 35 -2 64.5z" />
<glyph unicode="&#x3c;" horiz-adv-x="1228" d="M319 465q16 2 59.5 15.5t102.5 33.5l129 45l139 50l130 50l104 41l27 -131q-39 -14 -115 -39l-161 -51l-169 -53l-139 -45q51 -14 120 -39l138 -51q70 -27 130 -52.5t97 -43.5l-18 -123q-45 25 -121 59.5l-158 68.5l-159 63q-78 30 -131 44z" />
<glyph unicode="=" horiz-adv-x="819" d="M94 209l6 110h537v-110h-543zM113 473l6 111h520l-6 -111h-520z" />
<glyph unicode="&#x3e;" horiz-adv-x="1228" d="M336 201l123 40l164 55l169 58l138 47q-47 8 -119 29t-143 45l-133 46q-61 22 -91 30l31 119q45 -18 117 -44l150 -52l156 -50q77 -25 132 -39l6 -178q-14 -2 -57 -14t-103 -33l-132 -46l-140 -51l-132 -51l-107 -44z" />
<glyph unicode="?" horiz-adv-x="720" d="M201 96q0 35 28.5 57.5t57.5 22.5q35 0 64.5 -24.5t31.5 -65.5q0 -18 -8 -32.5t-22.5 -25t-30 -15.5t-29.5 -5h-2q-12 0 -26.5 4t-29 14.5t-24.5 27.5t-10 42zM242 485q-2 43 20.5 77t56 62.5t73.5 53t75 50.5t57.5 52.5t20.5 59.5q0 25 -9.5 41t-27.5 16 q-20 0 -37.5 -10t-31 -22.5t-22.5 -23t-16 -10.5q-12 0 -34.5 8.5t-46 21.5t-40 28.5t-16.5 30.5q0 12 18.5 29.5t50.5 32.5t75 26.5t90 11.5q88 0 139 -45t55 -107q2 -43 -7 -69.5t-24.5 -45t-36 -30.5t-40.5 -29l-75 -46q-40 -24 -75 -49.5t-57.5 -53t-22.5 -58.5 q2 -41 24.5 -56t39.5 -15q25 0 38 14t23 14t22.5 -7t24 -17t18.5 -21.5t7 -19.5t-16.5 -22.5t-39 -28t-47 -22.5t-40.5 -9q-27 0 -56.5 17.5t-53.5 45t-39 60t-17 65.5z" />
<glyph unicode="@" horiz-adv-x="1298" d="M106 268q-6 147 44.5 277.5t145.5 228.5t231.5 154.5t301.5 56.5h2q90 0 166 -29.5t132.5 -83t89 -128t36.5 -164.5q2 -80 -23.5 -155t-73.5 -133.5t-115.5 -94t-149.5 -35.5q-57 0 -91 28.5t-44 65.5q-4 23 -5 33t-1 22q0 25 -15 11l-45 -48q-27 -29 -62.5 -55 t-78.5 -45.5t-92 -19.5q-12 0 -32.5 17t-23.5 62q-2 57 34 140.5t93.5 161t129 133t141.5 55.5q14 0 25.5 -11.5t15.5 -21.5q6 -12 24 -2q6 6 11.5 8t17.5 -6q6 -6 15.5 -10t16.5 -10t10 -12.5t-1 -16.5q-43 -76 -70.5 -148.5t-31.5 -136.5q-4 -47 14 -73.5t53 -26.5 q43 0 84 23.5t74 64.5t52 99.5t17 127.5q-2 82 -27.5 137.5t-68.5 90.5t-104.5 50t-136.5 15q-141 0 -249 -46t-178.5 -125t-104.5 -181t-30 -217q6 -172 97.5 -257t287.5 -85q53 0 103.5 12t92.5 28.5t73.5 33t48.5 26.5q6 4 12 -7t10 -26.5t5.5 -31t-3.5 -19.5 q-98 -76 -203.5 -101.5t-211.5 -25.5q-84 0 -161 31t-137.5 87t-96.5 135t-40 173zM527 304.5q-5 -25.5 8 -25.5q35 0 69.5 27.5t66 66.5t59.5 81l48 72l10 25q6 14 5 24q-4 12 -14.5 23.5t-28.5 11.5h-2q-43 -12 -78 -47t-60.5 -76t-43.5 -78l-25 -57q-9 -22 -14 -47.5z " />
<glyph unicode="A" horiz-adv-x="1796" d="M-109 324q0 84 33 155.5t80 120.5q2 0 17.5 -2t33 -5t32.5 -6t17 -5q-31 -41 -52 -107.5t-21 -126.5q0 -119 62.5 -182.5t148.5 -63.5q84 0 150.5 10.5t128 42t125 89t140.5 151.5q-94 0 -100 19q0 6 3 23.5t8 36t10.5 33.5t7.5 15q20 -10 55 -14t70 -6l111 142l105 129 l106 134l116 158q-20 -8 -68.5 -20.5t-99.5 -12.5q-61 0 -125.5 17.5t-128 38t-124 38t-116.5 17.5q-61 0 -106 -13.5t-71.5 -47t-35.5 -93.5q-4 -26 -3 -59q0 -41 6 -90q0 -6 -13.5 -7.5t-31 -1.5t-32 2.5t-14.5 4.5q-13 54 -13 106q0 29 4 56q11 79 52 141.5t112 100.5 t167 38q74 0 144.5 -22.5t139 -50t134 -51t131.5 -23.5q27 0 60.5 7t53.5 36q27 37 70 71.5t82 34.5q23 0 51.5 -4t54 -11t46 -16.5t22.5 -19.5t-5 -43t-17 -55q-12 12 -38 22t-38 10q-39 0 -49.5 -40t-16.5 -101q-22 -216 -21 -391q0 -40 1 -79q6 -204 37 -327 q12 -53 41.5 -83.5t56.5 -30.5q12 0 32.5 8t41 20.5t40 26.5t27.5 25q4 0 10.5 -10.5t13.5 -24t12 -25.5q4 -9 4 -12q0 -10 -49 -43q-34 -23 -73 -43.5t-76.5 -33.5t-64.5 -13q-18 0 -46 7t-53.5 21.5t-46 33t-26.5 42.5q-12 49 -16 103.5l-11 148.5q-2 18 -20.5 38.5 t-40.5 20.5q-14 0 -47 -1t-75 -3t-90 -3t-95 -1q-74 -106 -146.5 -186t-153.5 -132t-173.5 -78t-204.5 -26q-86 0 -153.5 30t-112.5 79t-69 111.5t-24 130.5zM977 496q25 -2 47.5 -3t32.5 -1h106q29 0 61.5 1t65.5 3q4 96 9.5 201.5t29.5 242.5q0 6 -3 11q-1 2 -3 2 q-4 0 -10 -7l-92 -127l-84 -113l-80 -106z" />
<glyph unicode="B" horiz-adv-x="1468" d="M174 6q14 18 29 42l26 44l22 37q9 16 11 23l80 257l73 225l72 223l80 251q2 4 -2 14q-2 8 -18 8q-37 0 -82 -5t-88 -12t-81 -12t-60 -5q-43 0 -52 26v27v38q0 19 2 36.5t4 21.5q2 0 11 -8q6 -4 11 -7t17.5 -4t33 -2t54.5 -1q88 0 185.5 4t214.5 4q127 0 229.5 -8.5 t175 -36t113.5 -79.5t43 -138v-17q0 -33 -6 -69q-8 -45 -34 -86t-72 -77t-119 -58q-6 -2 -7 -7q0 -6 7 -6q45 -4 89 -23.5t79.5 -54t58 -87t24.5 -119.5q0 -8 1 -16q0 -64 -30 -127q-34 -71 -100.5 -126t-166 -90t-226.5 -35q-88 0 -153.5 16.5t-112.5 36t-77 36t-48 16.5 q-23 0 -44 -27l-46 -59zM455 223q4 -16 28.5 -41.5t64.5 -49t92 -40t110 -16.5q84 0 153.5 18.5t118.5 56t77 96.5q24 51 24 119q0 10 -1 21q-2 41 -14 77t-39 62.5t-72 41t-110 14.5q-39 0 -79 -4.5t-89 -4.5q-2 0 -6 9.5t-7 21.5l-7 25q-3 12 -3 20q0 14 4.5 32.5 t20.5 18.5q29 0 57.5 -2t59.5 -2q25 0 55.5 4.5t52.5 12.5q82 23 121 72q35 45 35 139v20q-2 59 -19.5 95t-50.5 56.5t-81 26.5t-109 6q-41 0 -67.5 -15t-45 -39.5t-31.5 -56.5l-24 -67l-52 -155l-53 -159q-27 -81 -53 -171l-55 -193q-7 -23 -8 -38q1 -6 2 -11z" />
<glyph unicode="C" horiz-adv-x="1427" d="M215 424q-1 16 -1 32q0 141 49 272q54 146 152.5 259t233.5 179.5t291 66.5q98 0 207.5 -20.5t208.5 -73.5q23 -8 33 -33q-6 -16 -11.5 -52t-15.5 -71q-6 -35 -11 -56.5t-8 -49.5l-83 -9q0 16 -1.5 34t-9.5 40q-8 43 -23.5 78t-49 60.5t-92 39t-156.5 13.5 q-111 0 -210.5 -58.5t-173 -157t-114.5 -225.5q-37 -115 -37 -237v-25q6 -176 92 -259t228 -83q203 0 361.5 96.5t277.5 329.5q2 6 6 7t8 1t13.5 -10t18.5 -24.5t16 -29t7 -24.5q0 -29 -6 -53q-88 -190 -270 -300t-432 -110q-98 0 -186.5 28t-156 84t-109.5 141t-46 200z " />
<glyph unicode="D" horiz-adv-x="1636" d="M158 6q29 39 58.5 85t39.5 75q8 27 33 95l57 159l69 191l68 196q33 94 57.5 172t32.5 121q-2 8 -10 11t-14 3q-88 0 -170 -17.5t-170 -19.5q-12 0 -19.5 15.5t-12.5 35t-8 40t-7 30.5q-2 6 -3 22.5t9 16.5q2 0 14.5 -5t30.5 -11.5t39.5 -11.5t40.5 -5q78 0 146.5 3 t133 8.5t128 8.5t130.5 3q125 0 248 -21.5t221.5 -78t162 -153.5t69.5 -251v-18q0 -69 -13 -145q-15 -85 -52 -168t-96.5 -157.5t-145.5 -132t-201 -91.5t-260 -34q-66 0 -149 16.5t-179 53.5l-27 10q-11 4 -22 4q-23 0 -51.5 -19t-59.5 -52zM457 215q0 -4 2 -6 q2 -10 8 -20.5t18 -18.5q57 -47 117 -62.5t131 -15.5q141 0 257 45t197 127t123 196q37 99 36 216v35q-2 104 -27 181t-83 128t-154.5 76.5t-243.5 25.5q-33 0 -52.5 -4t-29.5 -28l-154 -432q-76 -208 -139 -416q-6 -22 -6 -27z" />
<glyph unicode="E" horiz-adv-x="1320" d="M204 1113q1 22 5 44.5t9 41t9 22.5q86 -6 181.5 -9.5t181.5 -3.5q20 0 64 1t102.5 3t126 5.5t134 5.5t127 3t103.5 1q14 0 19 -17l-9 -28l-13 -50q-7 -28 -13 -55.5t-8 -42.5l-11 2q-8 16 -16 29.5t-18 17.5q-90 12 -190.5 18.5t-201.5 6.5q-41 0 -57 -29 q-29 -49 -48 -88t-34.5 -79l-31.5 -85l-35 -104q-6 -25 24 -25q10 0 21.5 -1t28 -2t42.5 -1h68q127 0 219 7.5t186 29.5l9 -8q-2 -6 -10.5 -21.5t-15.5 -33.5l-13 -35q-6 -16 -6 -23q-2 -10 -23 -10q-72 0 -156 2t-170 2h-101q-40 0 -65.5 -1t-41 -2t-27.5 -1q-20 0 -27 -16 l-51 -155q-25 -71 -41 -157q-4 -18 -4 -34v-31q4 -76 58.5 -98.5t166.5 -22.5q72 0 170.5 11.5t197.5 34t186 55t134 75.5q8 6 15 -10q-6 -8 -12.5 -28.5t-11.5 -45t-8 -46t-5 -30.5q-16 -35 -70 -49q-66 -16 -142.5 -29.5t-156.5 -23.5t-159.5 -16.5t-149.5 -6.5 q-111 0 -188.5 7.5t-127 25t-73 46t-25.5 69.5q0 39 13 72l12 35l25 72l32 90l31 91q14 43 23.5 75t9.5 40q0 6 -8.5 9t-40.5 3q-10 0 -19 9q0 6 6 18t17.5 25.5t22.5 23.5t20 12q57 10 75 68l22 69l32 103q16 53 27.5 98t6.5 58q-4 10 -18 10q-84 0 -166 -6t-137 -23l-6 2 q-1 8 -2 21q1 6 1 13z" />
<glyph unicode="F" horiz-adv-x="1021" d="M163 55q0 9 3 21q49 127 95 264l89 269l82 251l72 211q6 14 -4.5 26.5t-22.5 14.5q-18 2 -54 3t-58 1q-20 0 -21 8q0 4 3 18.5t8 31t10.5 30t7.5 13.5q25 -2 54 -3h71h184q61 0 133 4.5t143.5 13.5t137 24.5t112.5 37.5q8 4 11 4q12 0 16 -10q-4 -6 -10 -25l-13 -41 l-11 -42l-7 -29q-10 -29 -29 -29q-45 -2 -104.5 -4t-118.5 -3l-116 -2q-56 -1 -97 -5q-23 -2 -32 -10t-17 -25q-14 -37 -31.5 -90t-34.5 -110l-32 -111l-27 -96q6 -16 54 -30.5t139 -14.5q98 0 190 10t168 33l6 -7q0 -2 -4 -21.5t-10 -41.5l-13 -43q-6 -20 -12 -25 q-47 0 -124 -2t-148 -2h-88q-45 0 -95.5 1t-82.5 5q-25 0 -33 -22q-20 -63 -38 -113l-31 -88l-23 -71l-19 -60q-6 -23 -4 -42t16.5 -33.5t45 -22.5t79.5 -8q10 0 15.5 -11.5t7.5 -26t-1 -26.5t-13 -14q-8 -2 -20.5 -3t-43.5 -1q-86 0 -144.5 3t-93 9t-51 14t-18.5 21 q-3 12 -3 22z" />
<glyph unicode="G" horiz-adv-x="1574" d="M231 360v20q0 136 55 279q58 154 171.5 280t278.5 207t370 81q47 0 102.5 -6.5t109.5 -19.5t103 -34.5t84 -50.5q-2 -49 -11 -115.5t-19 -117.5q-2 0 -7 -2q-8 -4 -24 -4q-8 0 -21 4q-6 2 -10 4q0 16 1 22t-1 27q-6 51 -36.5 86t-80 56.5t-115 31.5t-139.5 10 q-137 0 -256.5 -69.5t-205.5 -180t-135 -247.5q-43 -122 -42 -244v-31q2 -55 19.5 -106.5t54.5 -91t95.5 -63.5t140.5 -24q125 0 231.5 48.5t184 113t124.5 130t52 98.5q4 31 -1.5 43t-33.5 12q-45 0 -89 -6t-122 -11v91q55 0 121.5 2t133 6t128 12t106.5 23q2 -2 4 -13.5 t2 -25.5v-27q0 -12 -2 -16q-20 -6 -33.5 -12.5t-21.5 -14.5t-13 -21.5t-9 -31.5l-69 -229q-38 -126 -80 -248.5t-84 -231t-81 -176.5q-20 -37 -62 -90t-106.5 -100.5t-154.5 -81t-209 -33.5q-39 0 -87 5t-102 22l-4 57l6 45q35 -16 88.5 -24.5t92.5 -8.5q94 0 170.5 42 t138 109.5t110 154.5t85 177.5t64.5 177.5t46 152q-2 20 -16 6q-20 -23 -60.5 -60.5t-102 -72.5t-144.5 -61.5t-191 -28.5q-229 0 -356.5 106.5t-135.5 290.5z" />
<glyph unicode="H" horiz-adv-x="1642" d="M166 -8q10 27 26.5 56.5t44.5 84.5l70 149q43 93 105 246l-41 46q-18 22 -27 34q0 6 6 26.5t19 20.5h55q18 0 31 23q12 23 32.5 78t40 116.5t33.5 115.5q11 42 11 65q0 7 -1 12q-6 35 -24.5 42t-57.5 7q-29 0 -69.5 -1t-69.5 -5q-8 0 -13 23.5t-7 31.5q-4 8 1 21.5 t15 13.5q33 0 87 1t115.5 4t122 7t103.5 11q31 0 14 -37l-39 -82q-22 -43 -38 -103q-23 -74 -50.5 -154.5t-48.5 -156.5q-6 -29 11 -31q31 -2 53 -3t41 -1h36h40q25 0 77 1t112 3t116.5 6.5t89.5 12.5q27 6 33 33l52 147l45 134l41 125q19 60 42 122q14 23 29 29 q27 16 83 41.5t117.5 49t116.5 40t80 16.5q6 0 18.5 -8t12.5 -25q0 -29 -17 -28q-12 0 -37.5 -7.5t-56.5 -19.5t-61.5 -30.5t-53.5 -41.5q-55 -59 -94 -128.5t-67.5 -145.5t-51.5 -154l-47 -155q-29 -102 -45 -177t-23.5 -130.5t-7.5 -94.5t4 -69q10 -53 36 -70.5t81 -17.5 q18 0 45 5t54.5 13t53 19.5t40.5 21.5q6 0 9 -12.5t5 -28.5t0 -30.5t-6 -20.5l-55 -27q-31 -14 -71 -26.5t-90 -22.5t-114 -12q-31 0 -58.5 12t-50 31.5t-37 44t-14.5 49.5v14q0 72 20 150l38 149q6 23 0 47q-4 20 -18.5 34t-35 21t-43 10t-40.5 3q-133 0 -242 -2t-205 -18 q-16 -4 -22 -15l-17 -28l-95 -213q-46 -106 -69 -234q0 -16 -4 -22.5t-26 -6.5q-53 0 -100.5 -1t-94.5 -27z" />
<glyph unicode="I" horiz-adv-x="749" d="M90 14q47 4 72 41q25 43 61 118l79 165q42 90 84 191l78 196q36 94 61.5 177t31.5 138q2 10 1 17.5t-3 15.5q-4 16 -27.5 22.5t-60.5 6.5q-35 0 -76 -3t-76 -9l-10 2q0 4 4 20l8.5 34.5l8.5 34t6 19.5q57 4 122 7l126 6q61 3 114.5 8.5t87.5 11.5q12 -4 16.5 -27.5 t6.5 -31.5q4 -6 -12 -11q-18 -6 -29.5 -15t-20.5 -34q-41 -104 -87 -234l-94 -270l-99 -278q-51 -139 -103 -262q-18 -33 -49.5 -50.5t-66.5 -23.5q-30 -5 -61 -5h-11q-37 1 -68 3q-2 2 -6 8z" />
<glyph unicode="J" horiz-adv-x="1015" d="M-322 -43l58 6q14 -37 32.5 -64.5t47 -48t73.5 -30.5t111 -10q141 0 241.5 55t174 147t127 214t102.5 255l118 312q58 152 97 286q2 4 2 17q-6 12 -22 12q-57 0 -116.5 -1t-115 -7t-105.5 -19.5t-91 -38.5q-64 -40 -64 -121q0 -23 4 -49t15 -43q0 -2 -12 -6l-25 -9 q-14 -5 -27.5 -8t-15.5 -3q-10 4 -22.5 19.5t-24 37t-18.5 47t-7 49.5v14q0 69 38 117q42 53 140 78q39 10 98.5 21.5t150.5 22t218 16.5t301 6q6 -2 10 -14l7 -19v-12q0 -10 -1 -20.5t-3.5 -18.5t-4.5 -8q-10 2 -21 2h-48q-27 0 -46.5 -13.5t-32.5 -36t-22.5 -49 t-17.5 -55.5q-51 -174 -113 -348l-120 -334q-43 -117 -113 -225.5t-168 -192.5t-224 -135t-280 -51q-125 0 -223 35q-12 6 -21.5 13t-13.5 26q0 10 -3 32.5t-7 49t-9.5 54.5t-7.5 46z" />
<glyph unicode="K" horiz-adv-x="1603" d="M188 -47l69 135q42 84 85 195q82 205 142 397l120 399q4 8 -1 15.5t-15 7.5q-78 0 -156 -8.5t-139 -8.5q-31 0 -35 17q0 4 5 29.5t12.5 54t16.5 52.5t15 24q0 -20 31 -31q43 -8 97 -13.5t111.5 -6.5t113 -1t98.5 2q39 2 85 6.5t99 8.5q4 -4 3 -21.5t-4 -37t-6 -36 t-5 -20.5h-49q-33 0 -56 -4q-18 0 -30 -23q-25 -55 -40 -98l-32 -88l-36 -101q-19 -56 -52 -143q-4 -23 5 -25.5t15 7.5q63 43 113 81l94 75l88 72q43 36 92 73q6 4 35 29l69 57l86 71l86 69q40 32 70.5 53.5t38.5 21.5h11l26 -13l40 -20l41 -18l30 -12q4 -6 0 -15 q-14 -4 -44 -22.5t-85 -57.5l-140 -101l-212 -159l-148 -111q-78 -58 -149 -124q-12 -10 -11 -17l146 -144l155 -144q84 -76 190 -163l247 -198q104 -78 192 -126t163 -74.5t138.5 -35t120.5 -8.5q113 0 207 35t152 80q10 8 21 4t11 -8v-24v-35v-34q0 -15 -2 -18 q-70 -51 -184.5 -81.5t-247.5 -30.5q-82 0 -181 18.5t-215 68.5t-250 137t-286 222l-276 243q-137 116 -271 253q-10 16 -14 14t-12 -20q-27 -68 -46.5 -122t-34.5 -106l-30 -101q-14 -50 -33 -105l-8 -40q-4 -19 0 -32q-12 2 -28.5 4t-26.5 2q-18 0 -46 -5t-54.5 -13.5 t-48 -18.5t-29.5 -18q-17 0 -17 8z" />
<glyph unicode="L" horiz-adv-x="1277" d="M25 68q-4 16 18 16q51 0 86 6t64 21l27 14q15 8 32.5 24.5t37 46t38.5 78.5q37 94 74 212l76 238l74 234q36 115 69 203q4 16 16 22.5t25 10.5q27 12 67.5 21.5t86.5 15.5t92 10t81 4q8 -2 9 -17.5t0 -31.5t-6 -30.5t-9 -16.5q-16 4 -36.5 7t-53.5 3q-51 0 -83 -31.5 t-48 -72.5q-63 -166 -119 -336l-125 -371q-35 -100 -62.5 -143t-62.5 -62q-4 -2 -4 -10t10 -8q70 0 170 11l208 23q108 11 210 15q23 1 44 1q75 0 134 -11q43 -6 52 -39q2 -6 3 -32.5t1 -58.5t-2 -60.5t-7 -39.5q-4 0 -10 11q0 12 -8 26.5t-25 18.5q-45 16 -100 25.5 t-111.5 14.5t-110.5 6t-99 1q-160 0 -274 -5t-194.5 -13.5t-132 -19.5t-84.5 -22q-6 0 -12 12.5t-10 27.5l-8 30q-4 15 -8 21z" />
<glyph unicode="M" horiz-adv-x="2084" d="M-68 313q-1 10 0 20q0 30 5 64q6 45 20 89t35.5 83t50.5 64q2 4 17.5 -1t34 -14.5t31.5 -18.5t13 -15q-41 -51 -56 -106q-14 -48 -14 -93q0 -6 1 -12q4 -125 55 -180.5t160 -55.5q92 0 183 43t172 107.5t145.5 139.5t103.5 138q-27 193 -30 331v14q0 129 52 229 q20 41 53 67.5t66 44t58.5 24.5t31.5 7q25 0 52.5 -11t52 -29.5t41 -41t16.5 -45.5v-15q0 -73 -17 -148q-19 -83 -52 -162.5t-76 -155.5l-86 -146q4 -29 8 -64.5t9 -72.5t8 -70.5t5 -58.5l74 112l92 138l103 152l103 150l96 135l81 106l94 124q39 52 70 88t54.5 53t47.5 17 q16 0 45 -17t58 -40t50.5 -47.5t23.5 -36.5q0 -2 -8 -9l-15 -16q-8 -8 -16.5 -13t-12.5 -3q-12 12 -32 12q-53 0 -95.5 -37.5t-76 -101t-57 -146.5t-39 -175.5t-20.5 -184.5q-4 -66 -4 -127q0 -25 1 -49q2 -45 8 -89t23.5 -79t47 -55.5t76.5 -20.5q72 0 137.5 56.5 t98.5 140.5q2 2 16.5 -13.5t29.5 -34.5l29 -36q13 -16 13 -20q-8 -29 -40 -72t-81 -82t-109.5 -66.5t-125.5 -27.5q-61 0 -112.5 29.5t-88.5 78.5t-58.5 112.5t-23.5 129.5v92q0 51 5 108.5t17.5 118t32.5 117.5q6 12 -1 19.5t-15 -2.5q-53 -61 -103.5 -134t-97.5 -150 l-92 -154l-88 -148q-12 -18 -26.5 -43t-18.5 -43q-2 -16 4 -27.5t-8 -15.5q-10 -2 -38 -5t-58.5 -8.5t-57 -12.5t-35.5 -17q-2 -4 -16 3t-18 11q0 4 3 6t7 11.5t8 28t4 54.5q0 66 -8 138.5t-20 156.5q-127 -190 -297 -301.5t-385 -111.5q-57 0 -110.5 22.5t-95.5 64.5 t-69 102t-29 136zM991 890q0 -85 19 -204q41 76 66.5 135.5t39.5 105.5t18.5 81.5t4.5 62.5q0 23 -10.5 43.5t-38.5 20.5q-27 0 -49.5 -26t-36 -80t-13.5 -139z" />
<glyph unicode="N" horiz-adv-x="1619" d="M215 51q-1 8 -1 18q0 24 7 57q10 46 21 85q8 29 29 89l52 137l60 163q31 86 56.5 167t41.5 147q15 59 15 96.5t-13 63.5q-10 22 -51 22q-33 0 -65.5 -2t-61.5 -4q-6 0 -11 15t-9 35l-9 38q-4 18 -8 26q0 10 11 10q29 -10 67.5 -13t79.5 -3q27 0 59.5 2t65.5 6t60.5 9.5 t41.5 11.5q16 0 27 -27l211 -448l225 -461q10 -23 16.5 -29t18.5 -6q6 0 11 5t9 22l68 259l68 256q35 126 72.5 243.5t80.5 224.5q14 29 35 58.5t46.5 55t57 42t66.5 16.5q10 0 40 -5.5t61.5 -12.5t59 -17t34.5 -23q0 -6 -11 -6q-31 0 -62.5 -8t-64 -30.5t-63.5 -62.5 t-62 -106q-57 -131 -106 -277.5t-89 -299t-73 -305.5l-61 -299q-8 -18 -17 -19q-2 0 -20.5 1t-40 3t-39.5 5.5t-23 9.5l-98 202l-116 229l-117 223q-57 108 -105 187q-10 18 -20 26.5t-17 8.5q-10 0 -20 -8t-17 -25l-67 -183l-52 -138l-46 -128q-23 -65 -47 -153l-15 -55 q-8 -33 -12 -70q-5 -47 -5 -83q0 -33 7 -62h-8l-32 16l-50 26q-27 13 -49.5 27.5t-26.5 24.5z" />
<glyph unicode="O" horiz-adv-x="1609" d="M240 457q-1 21 -1 41q0 150 40 276q45 143 134 246.5t220 160t299 56.5q115 0 220 -29.5t188 -91t135.5 -157t56.5 -228.5q1 -19 1 -38q0 -133 -38 -253q-43 -137 -129 -240.5t-213 -165t-291 -61.5q-123 0 -233.5 28t-195.5 86t-137 149.5t-56 220.5zM420 428 q4 -94 39 -157.5t92 -102.5t131 -56.5t154 -17.5q143 0 243.5 51.5t162 140.5t87.5 209q23 104 23 220v37q-6 184 -118 277t-292 93q-147 0 -249.5 -54t-164 -147.5t-87.5 -220.5q-22 -109 -22 -232q0 -20 1 -40z" />
<glyph unicode="P" horiz-adv-x="1292" d="M135 1114v23q0 20 1 43.5t3 43t6 19.5t11 -12q10 -14 39 -21q23 -4 59.5 -5t69.5 -1q84 0 175 6.5t172 13.5l146 13q66 6 98 6q78 0 152 -15.5t131 -50t93 -92t38 -143.5q0 -8 1 -15q0 -61 -28 -129q-32 -77 -97.5 -141.5t-165 -106.5t-232.5 -42q-70 0 -123 18 q-2 0 -6 17.5t-5 37t-1 36t4 14.5q16 -6 55 -12.5t72 -6.5q80 0 146.5 23.5t113.5 65.5t72 101q23 54 22 119v11q-10 201 -252 201q-35 0 -72.5 -3.5t-66.5 -11.5q-31 -10 -43 -47q-37 -88 -75 -195l-76 -219l-73 -219l-65 -198q-4 -23 -10 -45.5t-4 -38.5q2 -53 56 -62.5 t149 -9.5q6 0 9 -12.5t2 -26.5t-4 -26.5t-7 -12.5q-43 -8 -104.5 -14t-121.5 -6q-14 0 -45.5 3t-63.5 11t-57.5 23.5t-27.5 39.5q0 14 6 39l151 451l154 444q4 6 8 19.5t7.5 29t4.5 30t-1 22.5q-2 10 -17 10q-90 -2 -162.5 -13.5t-162.5 -11.5q-54 0 -58 31z" />
<glyph unicode="Q" horiz-adv-x="1574" d="M170 -45q35 55 80 107.5t86 91.5q-45 43 -84 128t-43 181q-1 16 -1 32q0 140 48 266q53 140 149.5 244.5t226.5 165t275 60.5q16 0 21.5 -23.5t5.5 -29.5q2 -4 1 -26t-3 -22q-10 2 -25 3h-20q-129 0 -224.5 -64.5t-158 -163t-91.5 -217.5q-26 -104 -26 -201v-26 q2 -57 19.5 -123t39.5 -100q82 66 169 95t143 29q31 0 68.5 -4t79.5 -20t87 -51t90 -97q76 66 125 142t78 149.5t40 140.5q10 56 10 100q0 8 -1 15q-2 72 -11 136.5t-32.5 115.5t-65.5 86t-110 47q-4 4 -8 18.5t-5 31t1 29.5t8 16q16 4 48 4h61q31 0 77 -31q37 -25 72 -65 t62.5 -92t45 -113.5t19.5 -128.5q1 -22 1 -44q0 -65 -9 -132q-12 -89 -50 -177t-111 -174t-191 -166l75.5 -107.5t94 -107.5t112 -81.5t129.5 -32.5q29 0 60.5 7t64.5 27.5t62.5 57.5t52.5 96q4 4 16.5 -4t26.5 -22l28 -25q13 -12 15 -19q-14 -59 -44 -113.5t-73 -96.5 t-99 -67.5t-122 -25.5q-86 0 -163 47t-141.5 116t-116.5 147l-89 137q-63 -23 -117.5 -34t-120.5 -11q-45 0 -96 4t-102 14t-100.5 30.5t-90.5 51.5q-43 -35 -83 -94.5t-68 -112.5q-4 0 -16.5 10.5t-25.5 23.5l-25 26q-11 12 -11 16zM512 168q20 -18 53 -33.5t70 -26 t71.5 -16.5t61.5 -6q53 0 106.5 10t102.5 29q-39 61 -95.5 97t-148.5 36q-68 0 -118 -25.5t-103 -64.5z" />
<glyph unicode="R" horiz-adv-x="1552" d="M227 -25l149 338l120 279q53 129 96 245.5t78 237.5q4 23 -2 28t-19 5q-41 -2 -71.5 -8t-57 -16.5t-52.5 -24.5l-58 -33q-43 -29 -74 -75t-47 -101q-2 0 -10.5 -1t-18.5 0t-18.5 3t-8.5 4v34v49v49v36q0 31 25 47q63 39 145 73t168 50q74 16 160 24.5t172 8.5 q111 0 205 -12.5t161.5 -41t106.5 -79t41 -125.5v-13q0 -50 -13 -108q-15 -66 -57 -122t-116 -98t-187 -53q-25 -2 -8 -22q37 -49 72 -101l77 -113q42 -60 96 -129t130 -151q82 -82 169 -150.5t182.5 -117.5t196.5 -76.5t210 -27.5q84 0 159.5 22.5t147.5 63.5q8 6 17.5 3 t13.5 -12q2 -4 7 -18l10 -30q5 -15 7 -27q1 -6 1 -9.5t-1 -3.5q-80 -47 -169 -76.5t-199 -29.5q-158 0 -288 31.5t-249 99.5t-235.5 173.5t-249.5 252.5l-87 111l-104 134l-102 133l-84 107q0 10 8 11q223 0 341 73q114 71 114 214q0 116 -79 165q-75 47 -190 47 q-29 0 -52 -7t-40 -30q-20 -35 -56 -113.5t-77 -180.5l-85 -218l-83 -223q-39 -109 -68.5 -200t-41.5 -144q-14 2 -40 2h-51q-26 0 -45.5 -2t-25.5 -6q-16 -10 -19.5 -17.5t-13.5 -17.5q-4 0 -20.5 3t-12.5 7z" />
<glyph unicode="S" horiz-adv-x="911" d="M49 59q2 23 2 57v69q0 36 1 68t1 50q0 4 16 4h19q4 0 20.5 -3t18.5 -11q-2 -12 -1 -33.5t5 -34.5q16 -78 79.5 -108.5t147.5 -30.5q61 0 119 16.5t101 46t67 70.5q23 38 23 83q0 32 -6 54q-6 23 -21.5 49.5t-43.5 60.5t-75 81q-86 82 -138 166t-56 178v10q0 62 22 117 q25 59 73 105t116.5 73t154.5 27q45 0 83 -12.5t67.5 -30t50 -38t27.5 -38.5q0 -18 -1 -44t-3.5 -51.5t-5.5 -49t-7 -39.5q-4 -4 -28.5 -2t-28.5 10q2 8 1 27.5t-5 31.5q-10 51 -50 81t-145 30q-35 0 -62.5 -14.5t-47 -37t-28.5 -50t-9 -54.5q4 -90 49 -160.5t111 -142.5 l89 -92q38 -39 62.5 -72t37.5 -64.5t15 -74.5q0 -7 1 -13q0 -82 -48 -145q-51 -68 -130 -111.5t-171 -65t-172 -21.5q-66 0 -129 12t-121 37q-41 16 -47 30z" />
<glyph unicode="T" horiz-adv-x="1064" d="M12 780q8 76 23.5 159t41 154.5t65.5 123t100 61.5q37 6 80 6q40 0 85 -5q93 -11 198.5 -29.5t218 -36t223.5 -17.5q31 0 85 -2h19q44 0 86 7q51 9 88 37q35 26 35 81q0 26 -22 50q-19 22 -42 38q0 2 21.5 9t47.5 14.5t48.5 12.5t24.5 5q39 -20 72 -48q36 -29 36 -100 q0 -58 -24 -100q-27 -45 -71 -73.5t-99.5 -42t-110.5 -13.5q-29 0 -66.5 3t-76.5 7t-74 6.5t-59 2.5q-45 0 -58 -31l-78 -222q-33 -95 -59 -181l-53 -167l-62 -182q-12 -35 -22 -77q-9 -35 -9 -60q0 -50 46 -62q43 -11 94 -12q39 0 80 9.5t49 11.5q2 -2 3 -19.5t1 -38.5v-37 q0 -17 -2 -22q-49 -6 -107.5 -11t-109.5 -5q-80 0 -136.5 9t-89 31.5t-40.5 62.5q-2 11 -3 25q0 33 15 76l81 239l80 223l77 216l71 215q4 16 2 21.5t-18 5.5l-92 8q-152 16 -242 16.5t-143.5 -34.5t-82 -113t-55.5 -219q-2 -6 -13 -7t-26.5 1t-30 7t-20.5 13z" />
<glyph unicode="U" horiz-adv-x="1767" d="M264 254q-2 86 35 191.5t86 211.5l96 206q47 99 64 171q6 18 2 33q-6 25 -47 25q-18 0 -44 -1t-65 -1q-18 0 -34.5 1t-32.5 1q-10 0 -17.5 17t-9.5 36.5t1 37t15 17.5q29 0 91.5 -4t134.5 -4q66 0 113.5 3t83.5 8t62.5 8t51.5 3q4 0 6 -12t4 -27.5t3 -30t1 -16.5 q6 -10 -8 -14q-23 -6 -56.5 -11t-49.5 -34l-54 -110l-63 -137l-65 -149q-32 -77 -57.5 -147.5t-39.5 -130t-14 -98.5q4 -109 63.5 -146.5t165.5 -37.5q102 0 198.5 45t181.5 118.5t152.5 168t110.5 194.5q25 59 48 125l46 129l42 121l34 98q10 31 25.5 50.5t48.5 35.5 q10 2 39.5 9l62.5 14.5t60.5 12.5t36.5 5q6 0 12 -13.5t9 -29.5t2 -29.5t-9 -13.5q-12 -2 -34.5 -9t-33.5 -24q-90 -141 -146 -291.5t-106 -310.5q-20 -63 -41 -148q-19 -77 -18 -151v-14q2 -57 29.5 -93t109.5 -36q35 0 72 12t67.5 25.5t51 26t22.5 12.5q8 0 17.5 -15.5 t15.5 -34.5q9 -26 9 -40q0 -11 -7 -15q-72 -37 -149.5 -63.5t-165.5 -26.5q-66 0 -115 16.5t-81 42t-48 58t-18 63.5q0 35 5 62.5t12 47t13 32t6 14.5q-4 2 -6 4t-6 2q-63 -96 -134 -159.5t-148.5 -101.5t-162.5 -53.5t-178 -15.5q-59 0 -120.5 16.5t-112.5 52.5t-84 89 t-37 127z" />
<glyph unicode="V" horiz-adv-x="1241" d="M-51 1077q35 29 79 55.5t92 47t98 34t99 13.5q104 0 161 -57.5t77 -145.5q16 -76 25.5 -172t15.5 -193.5t9 -187.5t9 -156q0 -12 9 -12q8 0 10 6q117 145 218 284.5l185 266.5t147.5 238.5t100.5 199.5q20 43 20 80q0 16 -4 31l-5 14.5l-5 14.5q-2 10 2 10q10 0 17 -6 q8 -8 37 -20l59 -23q31 -12 56.5 -23.5t25.5 -19.5q1 -7 1 -15q0 -38 -25 -95q-30 -69 -84 -153.5t-126 -184.5l-149 -200l-156 -202l-142 -191q-65 -90 -111 -164.5t-62 -123.5q-12 -37 -47 -37q-51 -4 -95.5 -19.5t-60.5 -15.5q-10 0 -16 12q0 6 6 29.5t10 52.5 q8 72 11 156q2 50 2 101q0 34 -1 69q-2 86 -7 168t-11 151.5t-12 120.5t-11 76q-16 100 -59 161.5t-119 61.5q-27 0 -58.5 -10t-60 -26.5t-53 -37t-41.5 -39.5q-6 -4 -17 5.5t-21.5 22.5t-17.5 27.5t-5 20.5z" />
<glyph unicode="W" horiz-adv-x="2308" d="M215 1094q-1 7 -1 14q0 11 2 20q3 16 11 17l200 41l117 25l56 13q14 3 21 3q14 0 14 -13q0 -12 -4 -16q-6 -8 -12.5 -29.5t-12.5 -50t-12 -61.5t-10 -64l-27 -182q-12 -86 -22.5 -172t-18.5 -176t-12 -193q-2 -29 5 -31.5t11 7.5l360 470q177 241 357 455q4 0 36 -2 t68.5 -5t66.5 -7t26 -6q-45 -29 -60 -62q-13 -30 -12 -56q0 -54 18 -171q16 -102 38 -216l44 -222q23 -109 41 -182q6 -18 15 -19q12 0 14 13q35 59 85 163l112 226q61 121 131.5 245.5t144.5 225t151.5 165t151.5 64.5q6 0 48 -4l90 -9q48 -5 89 -10.5t45 -9.5q9 -7 9 -11 t-6 -7q-8 2 -23 2h-16q-18 0 -42 -1t-59 -16.5t-81 -50t-109.5 -103.5t-146.5 -177.5t-191 -270.5l-88 -150l-101 -176q-49 -89 -89 -171t-58 -133q-4 -12 -10 -22.5t-23 -14.5q-16 -2 -42.5 -6t-53.5 -10.5t-49.5 -14.5t-32.5 -20q-27 0 -14 28q8 8 6 57.5t-11.5 123 l-22.5 166t-30 185.5l-32 182q-16 89 -31 157q-12 37 -33 36q-10 0 -22 -12q-18 -18 -58 -67l-92 -118l-118 -153l-132 -172l-134 -176l-124 -166q0 -10 -7 -18t-17 -8q-20 0 -50 -3.5t-61 -7.5t-57.5 -10t-38.5 -12q-18 0 -13 22q14 35 24.5 89.5t27.5 125.5q6 33 16 103.5 l22 158.5l22 181l21 176q9 82 13 142q2 30 2 50t-2 29q-8 39 -49 39q-39 0 -76 -11.5t-61 -11.5q-8 0 -13.5 16t-7.5 34z" />
<glyph unicode="X" horiz-adv-x="1536" d="M27 -76q-2 8 -2 17q0 24 13 51q17 37 52 77t82 83l96 86l255 220q128 110 265 216l-66 154l-69 161q-35 80 -90 100.5t-123 20.5q-55 0 -118.5 -17.5t-110.5 -56.5q-8 -6 -21.5 7.5t-22.5 32t-14.5 35.5t1.5 22q78 47 182 78.5t209 31.5q47 0 85 -8t68.5 -30.5t54 -62.5 t44.5 -102q10 -31 24 -69l31 -80l31 -79q14 -38 22 -62l135 119l126 116l126 118l138 128q25 20 6 49q-2 4 13 20.5t24 16.5q4 0 27 -19l50 -41q27 -23 49.5 -44t22.5 -27q3 -6 3 -12q0 -12 -13 -21l-147 -112l-169 -131l-176 -139l-170 -134q18 -55 34 -96l30 -80 q14 -39 32 -80l39 -96q45 -109 90.5 -150t108.5 -41q49 0 103.5 28t103.5 77q6 6 18.5 -2.5t24.5 -21.5t19.5 -26.5t0.5 -15.5q-20 -31 -58 -60.5t-84 -53t-95 -37t-96 -13.5q-88 0 -146.5 53.5t-107.5 186.5q-31 82 -57.5 161t-65.5 177l-135 -113l-123 -111l-119 -114 l-125 -121l-52 -52q-32 -32 -58.5 -69t-43.5 -78q-11 -27 -11 -53q0 -13 3 -26q4 -16 -4 -19l-33 25l-50 39q-26 20 -45 39.5t-21 29.5z" />
<glyph unicode="Y" horiz-adv-x="1171" d="M92 1160q98 60 227 61q98 0 177 -51.5t133.5 -131.5t84 -175t29.5 -183q0 -12 10.5 -18.5t14.5 2.5l158 209q88 114 189.5 213.5t215 166t234.5 66.5q16 0 48 -13.5t65.5 -31t61 -34.5t36.5 -28q0 -2 -3.5 -13t-9.5 -22l-11 -21q-5 -9 -7 -7q-6 2 -34 8t-60 6 q-84 0 -176.5 -36.5t-182.5 -98t-175 -140.5t-156.5 -162t-124 -163t-78.5 -145q-47 -121 -66.5 -225.5t-23.5 -169.5q-2 -10 -6.5 -18.5t-26.5 -4.5q-32 5 -60 5t-52 -5q-48 -10 -89 -45q-2 -1 -4 -1q-7 0 -17 11q-13 14 -7 25q37 43 77.5 118.5t75.5 164.5t57.5 182.5 t22.5 169.5q0 88 -22.5 168.5t-68.5 143t-113.5 99.5t-158.5 37q-80 0 -144 -32.5t-112 -100.5q-2 -6 -16 -2t-29.5 12t-27.5 21q-9 9 -9 17q0 42 51.5 91t102.5 81z" />
<glyph unicode="Z" horiz-adv-x="1280" d="M123 56q-1 8 -1 15q0 11 2 20q3 15 13 15q37 0 74 12.5t59 35.5l97 101l136 144l157 170l162 177l149 165l119 136q16 25 8 38q-4 23 -58 23q-39 0 -73.5 1t-100.5 1q-74 0 -149.5 -4t-143 -15.5t-122 -32t-84.5 -54.5q-8 -14 -24.5 -13.5t-20.5 17.5q6 25 10 54.5t10 57 t17.5 47t29.5 21.5q57 4 142 7t183 6l200 6q103 3 196.5 5t171.5 3.5t123 1.5q14 0 21.5 -13.5t9.5 -29t-2 -30t-15 -14.5q-12 -4 -34.5 -15t-34.5 -28l-189 -213l-214 -240l-215 -252q-105 -128 -189 -245q-12 -18 -6 -28q4 -16 26 -23l166 -45q100 -27 220 -50.5t252 -41 t263 -17.5q109 0 175.5 13.5t104.5 47.5t51 89q12 48 12 116q0 10 -1 21q0 10 10.5 13.5t14.5 3.5q2 0 13 -1.5t24.5 -4.5t24 -6t12.5 -9v-16q0 -73 -17 -156q-18 -92 -59 -154q-43 -66 -105.5 -93t-146.5 -27q-139 2 -306 35.5t-352.5 75.5t-382 80t-395.5 44 q-6 0 -11 16.5t-7 35.5z" />
<glyph unicode="[" horiz-adv-x="1038" d="M137 -207q0 4 2 20.5t5 36t8.5 40t9.5 32.5q61 229 105 422t79 367t64 336l59 329q2 10 -1 21.5t-4 20.5t1 15.5t14 6.5q43 0 103.5 -3t103.5 -3q25 0 57 1l65 2l62 2q31 1 52 1q10 0 12 -13.5t4 -19.5q2 -8 -7 -20.5t-16 -12.5h-106q-59 0 -94 -1t-52.5 -4t-22.5 -9 t-5 -19q-55 -209 -92 -376.5t-67 -330.5l-59 -335l-71 -389q-4 -20 6 -31q6 -31 47 -31h123q49 0 81 2.5t50 2.5h35q12 0 20.5 -12.5t11.5 -26t-1 -25.5t-17 -12q-55 0 -118.5 2t-124.5 2q-68 0 -149 -2t-148 -2q-21 0 -25 16z" />
<glyph unicode="\" horiz-adv-x="1130" d="M104 1683q0 6 10.5 10.5t25 7.5t28.5 3h20q29 -4 35 -16q4 -6 17.5 -32t40.5 -73l113 -209l156 -287l179 -332l185 -347l175 -329l147 -279l102 -197q38 -76 40 -84q2 -10 -13 -15.5t-32 -5.5q-23 0 -46 7.5t-27 15.5l-1090 2040q-66 120 -66 122z" />
<glyph unicode="]" horiz-adv-x="1081" d="M349 -172q1 10 3 17.5t6 7.5h179q45 0 70.5 1t38.5 4t16.5 9t5.5 18q55 211 92 379t66.5 328l58.5 331l67 388q10 20 4 30q-12 31 -53 31q-98 0 -151.5 -5t-94.5 -5q-8 0 -13 10t-7 19q-4 16 4 29.5t21 13.5q156 0 274.5 3t204.5 3q6 0 15 -3t11 -12q6 -10 -6 -23 t-22 -67q-53 -219 -92 -409.5t-70 -365.5l-58 -341q-28 -166 -61 -336q0 -12 4 -29.5t7 -35t1 -29.5t-14 -12q-41 0 -105.5 3t-115.5 3q-72 0 -142.5 -3t-119.5 -3q-16 0 -21 16q-2 4 -3 14.5t0 20.5z" />
<glyph unicode="^" horiz-adv-x="1228" d="M180 692l119 123l125 128l118 129q56 65 99 126h160q4 -45 18.5 -117.5t32.5 -148.5l37 -145q18 -69 31 -109l-127 -14q-10 49 -26 103l-30 110q-14 55 -26.5 109t-16.5 104q-57 -80 -160 -189l-217 -233z" />
<glyph unicode="_" horiz-adv-x="1536" d="M4 -143l16 143h1536l-16 -143h-1536z" />
<glyph unicode="`" horiz-adv-x="706" d="M150 1163q0 6 12 18.5t27.5 24t29.5 20.5t17 9h12q8 0 12 -6l37 -71q18 -36 43 -78l56.5 -91t76.5 -110q0 -6 -8 -14.5t-19.5 -15.5t-20.5 -11t-11 0q-31 39 -68 81l-73 83l-68 83q-32 41 -55 78z" />
<glyph unicode="a" horiz-adv-x="937" d="M47 152v20q0 95 34 182q38 96 110.5 169t174 116t224.5 43q6 31 15 40t22 15l121 25l6 -2q-14 -16 -19.5 -35.5t-17.5 -44.5q12 0 31.5 -3t37 -8t31.5 -11.5t17 -14.5q0 -2 -5 -15l-9 -29q-5 -15 -10 -27.5t-7 -12.5q-8 6 -22.5 12.5t-31 11.5t-30.5 8t-25 3 q-39 -109 -62.5 -180.5t-37.5 -121.5t-18.5 -86t-4.5 -75q2 -23 17.5 -43t52.5 -20q41 0 101.5 28.5t126 78.5t129 121t108.5 153q4 6 8 6q2 0 12.5 -8.5t21.5 -18.5t20 -19l12 -12q-51 -88 -120 -164.5t-145.5 -133t-155.5 -88t-151 -31.5q-68 0 -113.5 33.5t-48.5 76.5 q0 14 2.5 46t14.5 65q-57 -98 -133 -154.5t-154 -56.5q-20 0 -42.5 15t-41 40t-32 53.5t-13.5 53.5zM199 193q2 -43 15 -74t32 -31q45 0 102.5 64.5t120.5 193.5l51 131l49 121l-2 4q-98 0 -169.5 -38t-115.5 -98t-65 -133q-19 -66 -19 -128q1 -6 1 -12z" />
<glyph unicode="b" horiz-adv-x="858" d="M174 268q-1 24 -1 47q0 168 39 330q44 184 123 348t184.5 303.5t218 244t225 168t207.5 76.5q23 3 44 3q68 0 120 -33q69 -43 93 -151q-84 23 -166 23q-64 0 -125 -14q-142 -32 -267.5 -119t-231 -220t-179 -295t-111.5 -342q-33 -155 -32 -312v-51q2 -70 13.5 -106.5 t27 -54t35 -20.5t37.5 -3q27 0 56.5 15.5t54 47t41.5 83.5q13 41 13 95q0 14 -1 27q0 29 -5 63t-12.5 66.5t-16.5 59t-21 41.5q0 18 18 48t47 44q10 0 12 -6q14 -61 51 -97t83.5 -54.5t95.5 -24.5t86 -6q72 0 120 28.5t103 69.5q4 2 10 2q2 0 6.5 -7t8.5 -16.5t7 -18.5 t3 -11q0 -8 -4 -13q-72 -63 -133.5 -96t-157.5 -33q-25 0 -56.5 7.5t-62.5 19.5t-57.5 29.5t-42.5 38.5q27 -59 26 -119q1 -15 1 -30q0 -78 -18 -140q-22 -74 -63.5 -123t-99 -74.5t-127.5 -25.5q-23 0 -58.5 10t-70.5 41.5t-60.5 88t-29.5 148.5z" />
<glyph unicode="c" horiz-adv-x="677" d="M121 188v12q0 80 26 161q29 87 79 157t116 114t133 44q66 0 111 -41t47 -100q2 -25 -22.5 -48.5t-53.5 -42.5l-8 2q2 6 2 13q0 16 -5 37.5t-15.5 41t-30 34t-49.5 14.5q-41 0 -77 -34t-62.5 -86t-41.5 -116q-13 -56 -12 -109v-16q2 -78 29.5 -116.5t62.5 -38.5 q43 0 96.5 21.5t112.5 67.5t121.5 118.5t124.5 173.5q6 8 14 8q2 0 12.5 -7.5t21.5 -16.5l21 -17q10 -8 11 -10q0 -8 -8 -17q-47 -82 -108.5 -156.5t-133.5 -131t-150.5 -89t-160.5 -32.5q-98 0 -148.5 56t-54.5 150z" />
<glyph unicode="d" horiz-adv-x="700" d="M-360 1638q81 48 173 48h22q105 -6 212 -63.5t207 -161t178 -246t129 -318.5t57 -379q1 -15 1 -31q0 -81 -18 -161q-22 -96 -65.5 -172t-112.5 -123t-159 -47q-35 0 -68.5 13t-61.5 38.5t-46 62.5q-21 41 -21 95q0 64 29 132q31 73 86.5 140t131 122.5t163.5 88.5 q14 8 15 24q-2 33 -20.5 108t-60.5 170t-107.5 200.5t-160 198.5t-219 163.5t-284.5 97.5zM207 182q2 -47 22.5 -76.5t51.5 -29.5q41 0 84 34.5t76.5 94t55.5 137.5q18 65 18 137q0 14 -1 27q-4 90 -20 90q-59 -20 -112.5 -65.5t-92.5 -101.5t-62 -121q-21 -59 -20 -115v-11 z" />
<glyph unicode="e" horiz-adv-x="636" d="M94 176v12q0 78 25 160q27 88 75 161t116.5 120t148.5 47q47 0 86 -25q43 -27 43 -89q0 -39 -19 -79q-20 -43 -63 -76.5t-107.5 -55t-150.5 -21.5q-6 -23 -10 -61q-3 -25 -3 -49q0 -12 1 -23q4 -76 28.5 -94.5t65.5 -18.5q70 0 137.5 28.5t126.5 74.5t106.5 101.5 t73.5 106.5q4 4 14.5 -2t22.5 -15t22.5 -18.5t12.5 -13.5q-37 -66 -96.5 -131t-134 -118.5t-159.5 -86.5t-173 -33q-72 0 -128.5 53.5t-60.5 145.5zM266 418q20 -4 43 -4q31 0 62.5 11t57.5 29.5t41 42t15 48.5q0 20 -9 29.5t-40 9.5q-14 0 -38.5 -10.5t-50 -32t-47.5 -52 t-34 -71.5z" />
<glyph unicode="f" horiz-adv-x="667" d="M-827 -369q45 -111 141 -180t213 -69q63 0 156.5 28.5t188.5 92t179 162.5t133 241l49 144l54 167l53 173l49 163q-100 -4 -163.5 -12.5t-100.5 -26.5t-56.5 -52t-35.5 -89l-62 6q20 100 57.5 160.5t71.5 72.5q20 6 58.5 11.5t81.5 9.5t86 6t75 2l73 251q40 136 94.5 266 t127 240.5t170.5 174.5q41 29 94.5 47t104.5 18q72 0 102.5 -15t32.5 -56q0 -8 -3 -25.5t-9 -36t-18.5 -32t-30.5 -13.5q-23 0 -40 9l-36 20q-18 10 -37.5 19.5t-48.5 9.5q-78 0 -136.5 -67t-108.5 -183.5t-95 -276.5l-98 -348h36q25 0 71 1t119 1h181q4 -2 7 -14.5t4 -25.5 t0 -26.5t-5 -17.5q-119 0 -230.5 -3t-199.5 -3l-43 -151l-40 -130l-38 -118l-36 -119q-57 -201 -149.5 -345.5t-207 -236.5t-246 -136t-266.5 -44q-209 0 -293 97q-51 60 -51 144q0 52 21 115z" />
<glyph unicode="g" horiz-adv-x="770" d="M-1051 -606q27 -68 73 -124t112.5 -98t149.5 -66t184 -24q164 0 289.5 48.5t221 131.5t162 195.5t109.5 243.5l50 153l31 92l17 51l11 33q5 15 12.5 34.5t19.5 56.5q-57 -90 -105 -123t-108 -33q-20 0 -43.5 11.5t-44 33t-34 51t-15.5 66.5v11q0 49 16 113 q18 71 54 141.5t89.5 133t121.5 101.5q16 10 41.5 20t54 18.5t56.5 14.5t46 6t35 -4q8 23 13 34t8.5 22.5l7.5 24.5t10 38q6 41 31 41q6 0 20 -8.5t29.5 -19.5t28 -25.5t14.5 -26.5q5 -13 5 -27t-5 -28l-97 -312l-65 -200l-45 -135q-18 -54 -41 -113l-52 -141l-79 -212 q-33 -88 -100.5 -200.5t-179 -214t-270.5 -171t-374 -69.5q-123 0 -211 40t-144 104.5t-83 145.5t-27 165zM195 164q0 -23 12 -47.5t35 -24.5q16 0 53 35t80 97.5t87 152.5t73 201q-12 4 -25 4q-59 0 -106.5 -20.5t-67.5 -43.5q-51 -57 -80 -107.5t-43 -93.5t-17 -80 q-2 -23 -2 -45q0 -14 1 -28z" />
<glyph unicode="h" horiz-adv-x="817" d="M55 59l152 441q74 205 158 403q86 213 179 385t193.5 294t209 186.5t227.5 64.5q59 0 112 -18.5t92 -57.5t60 -101q16 -48 15 -113q0 -19 -1 -40q-20 59 -52 94t-72 52.5t-87 22.5t-100 5q-90 0 -174 -50t-162 -137t-146.5 -204t-128 -250t-108.5 -273t-86 -278 q14 18 49 50t78 64t88 54.5t80 22.5q6 0 22.5 -7t31.5 -16.5t27.5 -18.5t12.5 -16q0 -20 -22 -74l-48 -120q-27 -66 -49 -129q-21 -58 -20 -98q0 -44 16 -71q14 -24 66 -24q35 0 77.5 10.5t94 46.5t109 101.5t120.5 175.5q4 6 10 6q2 0 12 -7l20 -15l22 -17q10 -8 10 -12 q-43 -82 -103.5 -155.5t-128 -131t-140.5 -91t-142 -33.5q-31 0 -64 11t-58.5 29.5t-43 44t-19.5 56.5v14q0 52 14 99q15 54 35 103l35 87q16 39 17 68q-6 14 -15 14q-12 0 -42.5 -18.5t-68.5 -52.5t-77 -80t-68 -99l-21 -66l-17 -50l-15 -47l-14 -54q-14 -51 -37 -51 q-6 0 -23.5 2t-36 6t-34 11t-19.5 20q-2 9 -2 32z" />
<glyph unicode="i" horiz-adv-x="573" d="M98 119q0 43 18 110q19 74 44.5 150t53.5 142.5t44 99.5q6 12 25.5 22t41 18.5t41 12.5t25.5 4q16 0 19 -8q0 -6 -1 -18.5t-8 -18.5q-27 -53 -54.5 -118.5t-50 -131.5t-36.5 -123q-13 -50 -12 -85v-9q2 -47 10 -61.5t43 -14.5q59 0 121.5 37t119 90t102.5 112.5t71 104.5 q4 8 16 4t25.5 -14t22.5 -23q6 -9 7 -14q0 -2 -2 -4q-39 -72 -95 -143.5t-123.5 -130t-144.5 -94t-159 -35.5q-25 0 -53.5 6t-53 20t-41 40t-16.5 73zM340 1004q-2 9 -2 18q0 12 3 25q5 23 18.5 41t33 29t39.5 11t37.5 -10t22.5 -31q2 -8 1 -17q0 -11 -3 -22 q-5 -22 -17 -39.5t-30.5 -29.5t-39.5 -12q-18 0 -37.5 9.5t-25.5 27.5z" />
<glyph unicode="j" horiz-adv-x="684" d="M-307 -891q-3 13 -3 23q0 14 5 22q25 49 48.5 79t45.5 51l43 40q20 18 42 44t42.5 63t40.5 96l70 226l65 218l67 234l72 270q2 16 3.5 26.5t1.5 16.5q-8 27 -33 27q-2 0 -15.5 -3t-31 -6.5l-37 -7.5t-35.5 -4q-6 0 -8 14.5t-2 32t3 32.5t9 15q131 25 194.5 44.5 t92.5 19.5q31 0 39 -33q4 -14 -2 -43l-88 -281l-78 -239l-83 -242l-100 -290q37 59 95 117l119 119l125 123q62 62 112.5 131t80.5 145q26 67 26 143q0 10 -1 20q-2 72 -20 107l-29 57q33 -6 67 -23.5t61.5 -42t45 -54t19.5 -58.5v-20q0 -92 -34 -168q-38 -84 -103.5 -160 t-150.5 -150l-175 -155q-90 -82 -177 -178.5t-159 -219.5q-23 -41 -51.5 -105.5t-91.5 -139.5q-4 -6 -19 -7q-8 0 -25.5 8.5t-34.5 20.5t-31.5 24.5t-16.5 20.5zM301 1027q0 34 24 60q26 29 62 29q23 0 43.5 -15.5t20.5 -37.5v-5q0 -32 -25 -62q-27 -32 -61 -31 q-27 0 -44 17q-20 19 -20 45z" />
<glyph unicode="k" horiz-adv-x="921" d="M61 66q-2 4 2 12q18 43 42 113l58 171l83 234.5t119 306.5q86 213 179 385t193.5 294t209 186.5t227.5 64.5q59 0 112 -18.5t92 -57.5t60 -101q16 -48 15 -113q0 -19 -1 -40q-37 59 -70.5 94t-67.5 52.5t-65.5 22.5t-66.5 5q-106 0 -208 -69.5t-194 -184t-174 -264 t-149.5 -309.5t-121.5 -318.5t-91 -291.5q-2 -25 0 -25q4 0 10 4t14 14l35 47l33 43q16 22 36 44l44 51q-6 12 -13 41q-6 25 29 47l36 23q19 13 30 18q8 0 10 -12q0 -6 8 -15q10 12 44 49l71 77q37 40 70.5 72t43.5 32q4 0 14.5 -10.5t22 -25t21.5 -30.5t16 -29 q4 -10 -2 -14l-20 -14q-72 -47 -129.5 -104.5t-104.5 -112.5l31 -124q14 -60 32.5 -105.5t44 -73t64.5 -27.5q78 0 141.5 32.5t112.5 86t84 123t53 143.5q4 6 19.5 0t32 -17.5t30 -23.5t13.5 -16q-33 -88 -82 -167t-109.5 -136.5t-128 -91t-137.5 -33.5q-39 0 -77 5 t-73.5 36.5t-70.5 99t-70 192.5l-150 -179q-73 -85 -110 -161q-10 -16 -25 -16q-12 0 -31.5 10t-39 25.5t-34.5 32t-20 28.5z" />
<glyph unicode="l" horiz-adv-x="698" d="M115 150v11q0 59 19 131q22 79 52 157l62 148q31 71 49 120q20 53 68 153l106 220l123 239q63 121 117 213q31 55 63.5 86t59 46.5t45 19.5t24.5 4q23 0 49.5 -14.5t50 -39t40 -55t18.5 -65.5v-21q0 -100 -36 -203q-40 -113 -105.5 -220t-147.5 -204.5t-164 -178.5 t-154.5 -141t-119.5 -93l-41 -103q-16 -39 -24.5 -66.5t-10.5 -49t-2 -49.5q4 -59 41 -83t90 -24q59 0 122.5 39t123 95.5t110 122t82.5 118.5q8 12 24.5 6t32 -18.5t27 -26.5t6.5 -21q-43 -70 -103 -143.5t-134 -133.5t-159 -99t-177 -39q-43 0 -83 13t-71.5 34.5t-52 51.5 t-20.5 63zM410 653q98 66 194 169.5t171 218t121 230.5q42 106 42 191v15q-2 39 -9 68.5t-34 29.5q-12 0 -24.5 -6t-31 -31t-45.5 -72l-73 -129q-25 -43 -50 -95l-53 -108l-52 -114l-48 -111z" />
<glyph unicode="m" horiz-adv-x="1224" d="M59 82q-1 6 0 11q0 16 4 30q53 131 102 269l95 274q10 29 33 28q6 0 20.5 -5t29.5 -13t28.5 -17.5t15.5 -15.5q-4 -18 -11 -32.5t-17 -38.5l-23 -59q-14 -36 -35 -97q45 72 86 114.5t76 66.5t64.5 32t50.5 8q12 0 27.5 -6t29.5 -15.5t24.5 -21.5t10.5 -25q0 -10 -3 -26.5 t-8.5 -33.5t-9.5 -32.5t-8 -25.5q-4 -12 0 -12.5t8 7.5q53 86 125 138.5t137 79.5q16 6 40 2t45.5 -15.5t34.5 -26t9 -30.5q-8 -31 -29.5 -83t-43 -112.5t-37.5 -122.5q-15 -55 -15 -99v-11q2 -39 14.5 -61.5t51.5 -22.5q55 0 102 19.5t87 50t74 70.5t63 83q6 10 22.5 7 t32.5 -13t27 -26q6 -10 6 -18q0 -6 -2 -11q-33 -49 -79 -96.5t-102.5 -85t-120 -60t-130.5 -22.5q-31 0 -62 8t-55.5 24.5t-41 40t-16.5 53.5v18q0 58 12 110q13 60 29 113l30 95q13 43 13 76q-2 10 -9 14.5t-15 4.5q-16 0 -50 -31t-73 -73t-73 -87t-50 -76 q-12 -31 -23.5 -73.5t-23.5 -82.5t-25.5 -69t-27.5 -29q-6 0 -20.5 5.5t-30 12.5t-26.5 15t-13 14q-2 4 -2 11q0 24 22 80q25 61 41 117.5t26.5 101.5t14.5 73.5t4 34.5q-2 25 -14 25q-18 0 -56 -33t-78 -82t-78 -105.5t-57 -105.5q-29 -63 -48 -113.5t-35 -50.5 q-25 0 -54 23t-37 43z" />
<glyph unicode="n" horiz-adv-x="935" d="M100 80q-2 6 -1 14q0 25 22 62q29 47 59 106q29 98 54 207l47 195q4 16 22 16q10 0 25.5 -4t32 -11.5t29.5 -15.5q18 -11 18 -20q0 -12 -27 -84q-14 -35 -19.5 -51.5t-17.5 -49.5q100 104 177 174t118 70q6 0 25.5 -4t40 -10t38 -13.5t19.5 -13.5q4 -8 -6 -37l-47 -105 q-27 -60 -50.5 -125t-38.5 -127q-14 -55 -14 -100v-12q2 -31 13.5 -48t44.5 -17q47 0 104 33.5t113.5 87t104.5 121t75 135.5q2 4 20.5 -2.5t38 -16.5t32.5 -22q9 -8 9 -16q0 -3 -2 -7q-37 -76 -95 -149.5t-129 -131t-149.5 -93t-156.5 -35.5q-25 0 -53.5 6t-51 20t-39 35 t-16.5 59q0 46 17 105q19 66 44 130l45 115q20 50 21 68q-4 27 -29 14l-64 -56l-78 -72q-40 -38 -76 -78.5t-56 -75.5l-27 -62q-10 -25 -18 -48l-18 -50l-23 -67q-8 -20 -12 -21q-6 0 -21.5 10.5t-32 23.5t-29 26.5t-12.5 17.5z" />
<glyph unicode="o" horiz-adv-x="817" d="M94 176v12q0 92 31 174q33 88 91 156t136 109t164 43q4 25 8 56.5t33 37.5q14 4 40 7t36 9q3 3 8 4q4 0 9 -3q11 -5 7 -17q-6 -16 -11 -42t-3 -52q2 -51 10.5 -95.5t28.5 -77t52 -52t81 -19.5q31 0 62.5 12.5t60.5 33t54.5 48t41.5 58.5q2 6 15.5 0.5t29 -15.5t25.5 -21 q6 -7 6 -12q0 -3 -2 -6q-18 -35 -49 -67.5t-70 -59t-84 -42t-94 -15.5q-51 0 -94 13.5t-82 47.5q-8 -61 -26.5 -133.5t-54.5 -137t-96.5 -107.5t-154.5 -43q-47 0 -85 17t-65.5 46t-42 63.5t-16.5 69.5zM246 186q0 -14 2 -32.5t8 -33t17.5 -24.5t31.5 -10q53 0 99.5 51 t80 121t51.5 142q14 59 14 99q0 9 -1 17q-6 14 -9 26l-10 33q-2 14 -14 15q-55 0 -104.5 -39t-87 -98.5t-59.5 -129.5q-20 -65 -19 -125v-12z" />
<glyph unicode="p" horiz-adv-x="831" d="M-549 -1038q74 31 122 54t84 55t64.5 81t61.5 131l36 100l30 81l31 83l37 103l50 141l70 201q-20 6 -27 35q-2 10 4 19t15.5 17.5t20.5 14.5t18 6l105 276l86 223q40 99 77 179t74 147l16 15.5t18 13.5q6 2 31 5t52.5 6t49 5t23.5 2q14 0 14 -14q4 -6 0 -14l-73 -94 q-33 -43 -59.5 -85t-50 -86.5t-48.5 -99.5q16 25 44 45.5t57.5 34.5t56 22.5t41.5 8.5q18 0 43.5 -11.5t49 -29t41 -41t17.5 -47.5v-13q0 -42 -11 -89q-13 -54 -50 -111.5t-103.5 -116.5t-171.5 -115q61 12 142.5 36t165 68t162.5 115.5t137 178.5q2 4 16 -3.5t29.5 -17.5 t29 -21.5t13.5 -17.5q-74 -129 -180.5 -210t-232.5 -130t-261 -72.5t-264 -33.5q-43 -115 -71 -199t-47.5 -151.5t-33.5 -126t-31.5 -123t-42 -143t-63.5 -187.5q-12 -37 -50 -56.5t-93 -33.5l-120 -31q-67 -16 -137 -45q-3 -1 -5 -1q-6 0 -11 6q-6 9 -9 22q-2 7 -2 14 q0 20 13 25zM186 94q90 27 164 73t126 101.5t81 114.5q27 55 27 107q0 28 -17.5 41.5t-40.5 13.5q-12 0 -39.5 -10.5t-59.5 -34t-64.5 -60.5t-55.5 -90q-16 -37 -32 -64l-29 -56l-29 -59.5t-31 -76.5z" />
<glyph unicode="q" horiz-adv-x="901" d="M72 -809q0 45 30.5 135t75.5 199l93 222q48 114 83 210q-4 6 -9 11t-9 16q-4 10 10 17t33 13q10 23 17 34t12 30q-45 -47 -90.5 -67.5t-98.5 -20.5q-18 0 -41.5 11t-43 29.5t-35 41t-19.5 43.5q-5 20 -5 43q0 46 19 102q29 84 85.5 164t132 144.5t153.5 84.5 q33 10 85 12.5t85 2.5q12 29 19 50l13 38q5 16 12 24t21 8q6 0 24.5 -1t37 -4t34 -8t17.5 -11q4 -4 -2 -14q-8 -18 -15.5 -29.5t-11.5 -22.5l-8 -21q-4 -11 -10 -30q43 -4 79 -24.5t60 -49.5q0 -10 -7 -25.5t-16.5 -30.5t-19.5 -25.5t-18 -12.5q-23 37 -56.5 56.5 t-58.5 21.5l-65 -151l-119 -281l106 71l114 76l131 87l159 100q8 6 21.5 -7.5t25.5 -32t18 -36.5q3 -9 3 -15t-3 -8q-127 -86 -216 -138l-160 -90l-131 -71q-60 -33 -130 -77q0 -6 -4 -11q47 -78 71.5 -184t24.5 -211q0 -90 -20 -181t-66.5 -164t-118 -119t-175.5 -46 q-12 0 -33 9.5t-40.5 25.5t-34.5 38.5t-15 49.5zM197 -768q0 -16 7 -31.5t32 -15.5q43 0 84.5 37t75.5 99.5t54.5 146t20.5 178.5q0 53 -7 115.5t-24 115.5l-87 -214l-79 -192q-35 -87 -56 -150.5t-21 -88.5zM231 137q4 -14 15.5 -20t21.5 -6q12 0 36 9t51.5 27.5t54 44 t45.5 56.5q23 37 36 62.5t27 56t31.5 76.5t50.5 124q-18 5 -37 6l-33 -5q-35 -9 -59 -21q-49 -25 -96 -78t-82 -114.5t-53 -121.5q-12 -38 -12 -67q-1 -16 3 -29z" />
<glyph unicode="r" horiz-adv-x="671" d="M55 35q-3 8 -3 18q0 17 9 37l62 174l57 164l47 133q20 57 27 84q6 29 16 29q4 0 19.5 -4t35 -11.5t36 -18.5t20.5 -26q0 -4 -8 -26.5t-18.5 -48t-17.5 -46t-5 -20.5q10 0 14 4q25 31 60.5 64.5t76.5 62.5t84 47.5t82 18.5q27 0 50.5 -13.5t27.5 -29.5q-6 -10 -15.5 -31 t-17.5 -42l-15 -41q-7 -19 -9 -28q-6 -8 -13 -8q-4 0 -5 7.5t-7 14.5t-21.5 14t-45.5 7q-20 0 -52 -15.5t-65 -37t-61.5 -44t-43.5 -38.5q-47 -53 -72.5 -94t-42 -84t-31.5 -92t-40 -119q-6 -8 -18 -8q-2 0 -18.5 5t-33.5 13l-30 16q-15 7 -15 13z" />
<glyph unicode="s" horiz-adv-x="589" d="M-57 100q0 10 5 26.5t14 33t19.5 31t20.5 18.5q43 -78 102.5 -112t116.5 -34q66 0 94 30q27 28 27 60q0 36 -32 80l-64 85q-35 44 -65 88q-32 46 -32 86q0 37 20 70q22 36 57.5 63.5t79.5 44t87 16.5q12 0 35 -6t44.5 -14.5t37.5 -17.5t18 -17q0 -6 -6 -23.5t-14 -37.5 l-15 -36l-10 -24q-4 -18 -14 -4l-20 25q-12 15 -27.5 28.5t-32 24t-31.5 10.5q-80 0 -80 -76q0 -42 32 -85q30 -40 65 -81t64 -83q32 -45 32 -92q0 -39 -18 -75q-20 -39 -57.5 -67.5t-86.5 -46t-108 -17.5q-82 0 -150.5 38t-107.5 91z" />
<glyph unicode="t" horiz-adv-x="649" d="M66 561q2 6 7 19l11 26q6 14 12 26.5t10 18.5l156 4q41 94 81 206t77 202q16 8 45 19.5t61 22.5l65 21l52 17q4 0 9 -9.5t9.5 -19.5t5.5 -20.5t-5 -14.5q-12 -2 -32 -9t-39.5 -16.5t-35.5 -20.5t-23 -23q-23 -49 -39 -91t-30 -83l-30 -84l-34 -97h381q10 -6 15 -16 q0 -4 -6.5 -27.5t-8.5 -25.5q-25 0 -74 -1t-107 -3t-117.5 -6.5t-106.5 -8.5q-41 -125 -75 -209q-32 -79 -32 -149q0 -121 111 -121q25 0 67.5 16.5t91 41t93.5 52.5l76 48q4 4 15 -6.5t23.5 -25.5t19.5 -28.5t3 -17.5q-47 -33 -103.5 -66.5t-114.5 -59.5t-113.5 -42 t-102.5 -16q-31 0 -66 12t-64.5 34.5t-50 54.5t-22.5 73q-1 9 0 19q0 61 22 142q26 94 83 242q-18 -2 -40 -3t-49 -5l-41 -3q-14 -1 -18 -1q-16 0 -22 12z" />
<glyph unicode="u" horiz-adv-x="892" d="M100 84q-1 8 0 18q0 20 2 46q4 40 21.5 107t47.5 164l75 236q10 31 22 31q6 0 25.5 -7t40 -16.5t38 -19.5t17.5 -18t-12 -37q-59 -150 -94 -264.5t-33 -173.5q6 -23 21.5 -31t31.5 -8t37.5 19.5t47.5 55t52.5 83.5t48.5 104l30 87l24 67l19 55l18 49q6 20 16 20t30.5 -14 t40 -35.5t31 -44t4.5 -41.5l-46 -91q-24 -46 -43 -89t-31 -85q-11 -36 -11 -68v-11q2 -47 22.5 -69.5t51.5 -22.5q33 0 79 17.5t99.5 57.5t109.5 106.5t107 164.5q4 2 16.5 -4t27 -15.5t25.5 -18.5t13 -15q-37 -74 -90 -144.5t-117.5 -126t-135 -89t-142.5 -33.5 q-74 0 -129 31.5t-57 90.5q-2 25 0 50q-10 -20 -31 -47t-48.5 -50.5t-60 -39t-67.5 -15.5q-18 0 -40 5t-42.5 15.5t-38 27t-23.5 36.5z" />
</font>
</defs>
</svg>
