<?xml version="1.0" standalone="no"?>
<!DOCTYPE svg PUBLIC "-//W3C//DTD SVG 1.1//EN" "http://www.w3.org/Graphics/SVG/1.1/DTD/svg11.dtd" >
<svg xmlns="http://www.w3.org/2000/svg">
<metadata>
This is a custom SVG webfont generated by Font Squirrel.
Copyright   : Copyright c 2006 by ProfDr Srisakdi Charmonman wwwcharmaueduCollege of Internet Distance Education wwweLearningaueduSrisakdi Charmonman IT Center wwwscitaueduAssumption University of Thailand wwwaueduAll rights reserved
Designer    : ekaluck peanpanawate
Foundry     : Ekaluck Peanpanawate
Foundry URL : wwwb513designyahoocom
</metadata>
<defs>
<font id="THCharmonmanRegular" horiz-adv-x="0" >
<font-face units-per-em="2048" ascent="1638" descent="-410" />
<missing-glyph horiz-adv-x="512" />
<glyph unicode="A&#x300;" horiz-adv-x="1658" d="M883 1610q0 6 6 18.5t14.5 23.5t16.5 20t10 9h11q7 0 12 -6l38 -70l43 -78q24 -42 55.5 -91t76.5 -111q0 -12 -17.5 -20.5t-21.5 0.5l-130 153q-67 76 -114 152zM-10 -84q-12 51 11.5 91t72.5 95q418 500 671.5 775.5t331.5 336.5q18 12 35.5 13.5t44.5 -2.5 q25 -4 31 -8.5t-2 -14.5q-14 -20 -15.5 -50t0.5 -65q0 -23 3.5 -91l8.5 -161l11 -198q6 -104 12 -196.5t11.5 -162t9.5 -92.5q16 -68 42.5 -83t49.5 -15q14 0 35.5 9t38.5 14q8 4 17 -4.5t15.5 -18.5t5.5 -20.5t-12 -14.5q-8 -2 -32.5 -12t-55.5 -21l-63 -20 q-33 -10 -60 -14q-43 0 -69 57q2 16 -2 64.5t-11 104.5l-11 106q-5 50 -9 67q-8 29 -26.5 54.5t-73.5 41.5q-18 6 -82 6t-137.5 2.5t-142.5 8.5t-99 22q-166 -193 -269.5 -340t-150.5 -252q-12 -37 -14 -61.5t8 -71.5q-4 -10 -12.5 -15t-12.5 -1zM602 592q10 -25 60.5 -32 t181.5 -7q88 0 143 -7t80 -14q31 -8 35 0.5t6 26.5q2 37 1 88t-4 106.5t-8 112t-8.5 101.5t-6.5 76.5t-3 37.5q0 4 -4 14.5t-22 -5.5l-35 -34l-70 -70l-89 -94l-96 -106l-90 -103q-42 -50 -71 -91z" />
<glyph unicode="A&#x301;" horiz-adv-x="1658" d="M1173 1324q-2 7 0 9l176 178l166 179q4 6 10 6h7q4 0 13 -6l21 -14q11 -7 21 -15t12 -12q4 -14 -2 -21q-45 -41 -90 -77l-93 -72l-99 -79q-51 -42 -107 -93q-6 -6 -13 -4t-13.5 8t-8.5 13zM-10 -84q-12 51 11.5 91t72.5 95q418 500 671.5 775.5t331.5 336.5 q18 12 35.5 13.5t44.5 -2.5q25 -4 31 -8.5t-2 -14.5q-14 -20 -15.5 -50t0.5 -65q0 -23 3.5 -91l8.5 -161l11 -198q6 -104 12 -196.5t11.5 -162t9.5 -92.5q16 -68 42.5 -83t49.5 -15q14 0 35.5 9t38.5 14q8 4 17 -4.5t15.5 -18.5t5.5 -20.5t-12 -14.5q-8 -2 -32.5 -12 t-55.5 -21l-63 -20q-33 -10 -60 -14q-43 0 -69 57q2 16 -2 64.5t-11 104.5l-11 106q-5 50 -9 67q-8 29 -26.5 54.5t-73.5 41.5q-18 6 -82 6t-137.5 2.5t-142.5 8.5t-99 22q-166 -193 -269.5 -340t-150.5 -252q-12 -37 -14 -61.5t8 -71.5q-4 -10 -12.5 -15t-12.5 -1zM602 592 q10 -25 60.5 -32t181.5 -7q88 0 143 -7t80 -14q31 -8 35 0.5t6 26.5q2 37 1 88t-4 106.5t-8 112t-8.5 101.5t-6.5 76.5t-3 37.5q0 4 -4 14.5t-22 -5.5l-35 -34l-70 -70l-89 -94l-96 -106l-90 -103q-42 -50 -71 -91z" />
<glyph unicode="A&#x303;" horiz-adv-x="1658" d="M865 1386q4 20 19 51t38.5 61t57.5 51.5t75 21.5q35 0 73 -25t75.5 -54.5t75.5 -54t73 -24.5t55.5 35t5.5 84q-2 6 8.5 13t22.5 9t24.5 -2t14.5 -20q4 -37 -5 -71t-27.5 -60.5t-46 -43t-62.5 -16.5q-43 0 -85 23.5t-82 51.5t-77 50.5t-68 22.5q-23 0 -37 -12.5t-23 -31 t-15 -40t-15 -37.5q-6 -10 -19 -14.5t-26.5 -2t-22.5 11.5t-7 23zM-10 -84q-12 51 11.5 91t72.5 95q418 500 671.5 775.5t331.5 336.5q18 12 35.5 13.5t44.5 -2.5q25 -4 31 -8.5t-2 -14.5q-14 -20 -15.5 -50t0.5 -65q0 -23 3.5 -91l8.5 -161l11 -198q6 -104 12 -196.5 t11.5 -162t9.5 -92.5q16 -68 42.5 -83t49.5 -15q14 0 35.5 9t38.5 14q8 4 17 -4.5t15.5 -18.5t5.5 -20.5t-12 -14.5q-8 -2 -32.5 -12t-55.5 -21l-63 -20q-33 -10 -60 -14q-43 0 -69 57q2 16 -2 64.5t-11 104.5l-11 106q-5 50 -9 67q-8 29 -26.5 54.5t-73.5 41.5q-18 6 -82 6 t-137.5 2.5t-142.5 8.5t-99 22q-166 -193 -269.5 -340t-150.5 -252q-12 -37 -14 -61.5t8 -71.5q-4 -10 -12.5 -15t-12.5 -1zM602 592q10 -25 60.5 -32t181.5 -7q88 0 143 -7t80 -14q31 -8 35 0.5t6 26.5q2 37 1 88t-4 106.5t-8 112t-8.5 101.5t-6.5 76.5t-3 37.5 q0 4 -4 14.5t-22 -5.5l-35 -34l-70 -70l-89 -94l-96 -106l-90 -103q-42 -50 -71 -91z" />
<glyph unicode="E&#x300;" horiz-adv-x="1259" d="M204 1139q1 16 5 33.5t9 31t9 17.5q86 -6 181.5 -9.5t181.5 -3.5q29 0 101.5 3t160.5 7l179 6q91 3 155 3q14 0 18 -17l-8 -24l-13 -40l-14 -44l-10 -37l-10 2q-14 39 -33 47q-92 12 -197.5 18.5t-205.5 6.5q-23 0 -35 -6.5t-21 -22.5q-29 -49 -49 -96t-37.5 -96.5 t-34 -102.5l-36.5 -113q-6 -25 22 -24q59 -4 136 -5h31q62 0 125 3q79 4 151.5 12t121.5 23l11 -9q-2 -6 -7.5 -18t-9.5 -26.5t-7 -28t-3 -19.5q-2 -10 -22 -10q-41 0 -123 1t-169 1h-163q-76 0 -107 -2q-20 0 -26 -16q-41 -104 -79 -215q-34 -100 -34 -200v-22 q2 -63 50 -77.5t134 -14.5q76 0 182.5 9.5t214 30t202 54t149.5 82.5q8 8 14 -10q-8 -8 -14 -24.5t-11 -35t-8.5 -34.5l-5.5 -25q-16 -35 -69 -49q-66 -16 -142.5 -29.5t-156.5 -23.5t-160 -16.5t-149 -6.5q-111 0 -179.5 10.5t-106.5 28t-51.5 42t-13.5 57.5q0 29 17 91 q18 69 43 145l49 148l35 101q2 6 -7.5 9t-41.5 3q-16 0 -17 11q0 10 11.5 31.5t27.5 25.5q20 4 32.5 5t21 7t14.5 18.5t14 37.5l25 75l37 121q19 63 33 117q10 41 10 57q0 18 -19 19q-84 0 -166 -6.5t-135 -22.5l-6 2q-1 8 -2 18q1 6 1 11zM705 1628q0 6 6 18.5t14.5 23.5 t16.5 20t10 9h11q7 0 12 -6l38 -70l43 -78q24 -42 55.5 -91t76.5 -111q0 -12 -17.5 -20.5t-21.5 0.5l-130 153q-67 76 -114 152z" />
<glyph unicode="E&#x301;" horiz-adv-x="1259" d="M204 1139q1 16 5 33.5t9 31t9 17.5q86 -6 181.5 -9.5t181.5 -3.5q29 0 101.5 3t160.5 7l179 6q91 3 155 3q14 0 18 -17l-8 -24l-13 -40l-14 -44l-10 -37l-10 2q-14 39 -33 47q-92 12 -197.5 18.5t-205.5 6.5q-23 0 -35 -6.5t-21 -22.5q-29 -49 -49 -96t-37.5 -96.5 t-34 -102.5l-36.5 -113q-6 -25 22 -24q59 -4 136 -5h31q62 0 125 3q79 4 151.5 12t121.5 23l11 -9q-2 -6 -7.5 -18t-9.5 -26.5t-7 -28t-3 -19.5q-2 -10 -22 -10q-41 0 -123 1t-169 1h-163q-76 0 -107 -2q-20 0 -26 -16q-41 -104 -79 -215q-34 -100 -34 -200v-22 q2 -63 50 -77.5t134 -14.5q76 0 182.5 9.5t214 30t202 54t149.5 82.5q8 8 14 -10q-8 -8 -14 -24.5t-11 -35t-8.5 -34.5l-5.5 -25q-16 -35 -69 -49q-66 -16 -142.5 -29.5t-156.5 -23.5t-160 -16.5t-149 -6.5q-111 0 -179.5 10.5t-106.5 28t-51.5 42t-13.5 57.5q0 29 17 91 q18 69 43 145l49 148l35 101q2 6 -7.5 9t-41.5 3q-16 0 -17 11q0 10 11.5 31.5t27.5 25.5q20 4 32.5 5t21 7t14.5 18.5t14 37.5l25 75l37 121q19 63 33 117q10 41 10 57q0 18 -19 19q-84 0 -166 -6.5t-135 -22.5l-6 2q-1 8 -2 18q1 6 1 11zM856 1371q-2 7 0 9l176 178 l166 179q4 6 10 6h7q4 0 13 -6l21 -14q11 -7 21 -15t12 -12q4 -14 -2 -21q-45 -41 -90 -77l-93 -72l-99 -79q-51 -42 -107 -93q-6 -6 -13 -4t-13.5 8t-8.5 13z" />
<glyph unicode="I&#x300;" horiz-adv-x="677" d="M90 14q47 4 72 41q25 43 60 119l77 169q41 93 82 196.5t76 201t59.5 181.5t30.5 139q6 39 -11.5 50t-70.5 11q-35 0 -76 -3t-74 -9q-4 20 4.5 46t12.5 34q115 6 215 8t172 14q10 -4 13 -23.5t1 -29.5q0 -2 -8 -6t-19.5 -9t-20.5 -12.5t-13 -17.5q-41 -104 -85 -236 l-92 -272l-101 -278q-52 -139 -111 -258q-16 -35 -35 -52.5t-40 -22.5q-18 -4 -39 -4h-8q-26 1 -57 3q-2 2 -6 8zM440 1604q0 6 6 18.5t14.5 23.5t16.5 20t10 9h11q7 0 12 -6l38 -70l43 -78q24 -42 55.5 -91t76.5 -111q0 -12 -17.5 -20.5t-21.5 0.5l-130 153 q-67 76 -114 152z" />
<glyph unicode="I&#x301;" horiz-adv-x="677" d="M90 14q47 4 72 41q25 43 60 119l77 169q41 93 82 196.5t76 201t59.5 181.5t30.5 139q6 39 -11.5 50t-70.5 11q-35 0 -76 -3t-74 -9q-4 20 4.5 46t12.5 34q115 6 215 8t172 14q10 -4 13 -23.5t1 -29.5q0 -2 -8 -6t-19.5 -9t-20.5 -12.5t-13 -17.5q-41 -104 -85 -236 l-92 -272l-101 -278q-52 -139 -111 -258q-16 -35 -35 -52.5t-40 -22.5q-18 -4 -39 -4h-8q-26 1 -57 3q-2 2 -6 8zM569 1340q-2 7 0 9l176 178l166 179q4 6 10 6h7q4 0 13 -6l21 -14q11 -7 21 -15t12 -12q4 -14 -2 -21q-45 -41 -90 -77l-93 -72l-99 -79q-51 -42 -107 -93 q-6 -6 -13 -4t-13.5 8t-8.5 13z" />
<glyph unicode="O&#x300;" horiz-adv-x="1507" d="M240 510q-1 22 -1 43q0 148 37 266q43 135 127 228.5t208 141.5t280 48q115 0 211 -38t167.5 -107.5t113.5 -167t47 -213.5q1 -22 0 -45q0 -129 -30 -243q-36 -134 -115 -233.5t-199.5 -158t-284.5 -58.5q-123 0 -223.5 36t-174 103.5t-116.5 168t-47 229.5zM348 502 q4 -94 41 -175t97.5 -140.5t135 -94.5t154.5 -35q143 0 247.5 47.5t173.5 132.5t99 200q27 102 27 221v32q-2 92 -35 176t-89 149.5t-132 104.5t-166 39q-147 0 -254.5 -48t-175.5 -135t-98 -208q-26 -101 -26 -218q0 -24 1 -48zM797 1645q0 6 6 18.5t14.5 23.5t16.5 20 t10 9h11q7 0 12 -6l38 -70l43 -78q24 -42 55.5 -91t76.5 -111q0 -12 -17.5 -20.5t-21.5 0.5l-130 153q-67 76 -114 152z" />
<glyph unicode="O&#x301;" horiz-adv-x="1507" d="M240 510q-1 22 -1 43q0 148 37 266q43 135 127 228.5t208 141.5t280 48q115 0 211 -38t167.5 -107.5t113.5 -167t47 -213.5q1 -22 0 -45q0 -129 -30 -243q-36 -134 -115 -233.5t-199.5 -158t-284.5 -58.5q-123 0 -223.5 36t-174 103.5t-116.5 168t-47 229.5zM348 502 q4 -94 41 -175t97.5 -140.5t135 -94.5t154.5 -35q143 0 247.5 47.5t173.5 132.5t99 200q27 102 27 221v32q-2 92 -35 176t-89 149.5t-132 104.5t-166 39q-147 0 -254.5 -48t-175.5 -135t-98 -208q-26 -101 -26 -218q0 -24 1 -48zM903 1355q-2 7 0 9l176 178l166 179 q4 6 10 6h7q4 0 13 -6l21 -14q11 -7 21 -15t12 -12q4 -14 -2 -21q-45 -41 -90 -77l-93 -72l-99 -79q-51 -42 -107 -93q-6 -6 -13 -4t-13.5 8t-8.5 13z" />
<glyph unicode="O&#x303;" horiz-adv-x="1507" d="M240 510q-1 22 -1 43q0 148 37 266q43 135 127 228.5t208 141.5t280 48q115 0 211 -38t167.5 -107.5t113.5 -167t47 -213.5q1 -22 0 -45q0 -129 -30 -243q-36 -134 -115 -233.5t-199.5 -158t-284.5 -58.5q-123 0 -223.5 36t-174 103.5t-116.5 168t-47 229.5zM348 502 q4 -94 41 -175t97.5 -140.5t135 -94.5t154.5 -35q143 0 247.5 47.5t173.5 132.5t99 200q27 102 27 221v32q-2 92 -35 176t-89 149.5t-132 104.5t-166 39q-147 0 -254.5 -48t-175.5 -135t-98 -208q-26 -101 -26 -218q0 -24 1 -48zM699 1405q4 20 19 51t38.5 61t57.5 51.5 t75 21.5q35 0 73 -25t75.5 -54.5t75.5 -54t73 -24.5t55.5 35t5.5 84q-2 6 8.5 13t22.5 9t24.5 -2t14.5 -20q4 -37 -5 -71t-27.5 -60.5t-46 -43t-62.5 -16.5q-43 0 -85 23.5t-82 51.5t-77 50.5t-68 22.5q-23 0 -37 -12.5t-23 -31t-15 -40t-15 -37.5q-6 -10 -19 -14.5 t-26.5 -2t-22.5 11.5t-7 23z" />
<glyph unicode="U&#x300;" horiz-adv-x="1644" d="M264 254q-2 86 35 194.5t86 219.5l96 213q47 102 64 174q6 29 -2 43t-43 14h-156q-10 0 -17.5 13.5t-9.5 31t1.5 30.5t15.5 13q199 0 316.5 7t125.5 7q4 0 6 -9t4 -21.5l3.5 -22.5t1.5 -12q-2 -12 -8.5 -13t-14.5 -3q-23 -6 -50.5 -10.5t-41.5 -32.5l-53 -113l-64 -141 l-65 -156q-33 -80 -57.5 -153.5t-40.5 -135.5q-14 -54 -13 -91q0 -116 61 -175q57 -55 197 -55q96 0 184 52t167 138t145.5 196.5t123 226.5t101.5 227.5t76 201.5q10 31 25.5 50.5t47.5 35.5q10 2 31 9l41 15q20 7 38.5 12t27.5 5q6 0 12 -10t8 -22.5t1 -22.5t-9 -10 q-10 -2 -32.5 -9.5t-33.5 -23.5q-61 -92 -121.5 -216t-107.5 -256t-76 -260q-27 -119 -27 -217q0 -7 1 -14q4 -78 41.5 -103.5t119.5 -25.5q35 0 72 12.5t66.5 25.5t50 25.5t22.5 12.5q8 0 17.5 -11.5t15.5 -24.5q9 -19 9 -30q0 -9 -7 -12q-72 -37 -139.5 -63.5 t-155.5 -26.5q-66 0 -107.5 16.5t-66 42t-35 58t-12.5 63.5q0 35 6 71t13.5 65.5t14.5 49t7 21.5q-6 6 -10 6q-74 -111 -142.5 -184.5t-139 -117.5t-150.5 -61.5t-176 -17.5q-59 0 -114.5 16.5t-98.5 52.5t-70 89t-31 127zM932 1641q0 6 6 18.5t14.5 23.5t16.5 20t10 9h11 q7 0 12 -6l38 -70l43 -78q24 -42 55.5 -91t76.5 -111q0 -12 -17.5 -20.5t-21.5 0.5l-130 153q-67 76 -114 152z" />
<glyph unicode="U&#x301;" horiz-adv-x="1644" d="M264 254q-2 86 35 194.5t86 219.5l96 213q47 102 64 174q6 29 -2 43t-43 14h-156q-10 0 -17.5 13.5t-9.5 31t1.5 30.5t15.5 13q199 0 316.5 7t125.5 7q4 0 6 -9t4 -21.5l3.5 -22.5t1.5 -12q-2 -12 -8.5 -13t-14.5 -3q-23 -6 -50.5 -10.5t-41.5 -32.5l-53 -113l-64 -141 l-65 -156q-33 -80 -57.5 -153.5t-40.5 -135.5q-14 -54 -13 -91q0 -116 61 -175q57 -55 197 -55q96 0 184 52t167 138t145.5 196.5t123 226.5t101.5 227.5t76 201.5q10 31 25.5 50.5t47.5 35.5q10 2 31 9l41 15q20 7 38.5 12t27.5 5q6 0 12 -10t8 -22.5t1 -22.5t-9 -10 q-10 -2 -32.5 -9.5t-33.5 -23.5q-61 -92 -121.5 -216t-107.5 -256t-76 -260q-27 -119 -27 -217q0 -7 1 -14q4 -78 41.5 -103.5t119.5 -25.5q35 0 72 12.5t66.5 25.5t50 25.5t22.5 12.5q8 0 17.5 -11.5t15.5 -24.5q9 -19 9 -30q0 -9 -7 -12q-72 -37 -139.5 -63.5 t-155.5 -26.5q-66 0 -107.5 16.5t-66 42t-35 58t-12.5 63.5q0 35 6 71t13.5 65.5t14.5 49t7 21.5q-6 6 -10 6q-74 -111 -142.5 -184.5t-139 -117.5t-150.5 -61.5t-176 -17.5q-59 0 -114.5 16.5t-98.5 52.5t-70 89t-31 127zM1026 1326q-2 7 0 9l176 178l166 179q4 6 10 6h7 q4 0 13 -6l21 -14q11 -7 21 -15t12 -12q4 -14 -2 -21q-45 -41 -90 -77l-93 -72l-99 -79q-51 -42 -107 -93q-6 -6 -13 -4t-13.5 8t-8.5 13z" />
<glyph unicode="Y&#x301;" horiz-adv-x="1110" d="M-61 993q55 106 143 167t217 61q119 0 195.5 -56.5t122 -142.5t64.5 -188.5t24 -194.5q0 -12 10 -18.5t14 2.5q70 96 164 212.5t202.5 220t228.5 173t241 69.5q16 0 38.5 -10t44 -23.5t40 -27.5t26.5 -25q0 -2 -3 -10t-9 -15l-11 -13q-5 -6 -8 -5q-6 2 -35 17 q-19 9 -39 9q-12 0 -24 -3q-139 -31 -263 -101.5t-230.5 -168t-192.5 -213t-146.5 -235.5t-93 -236.5t-32.5 -214.5q0 -10 -5.5 -18.5t-27.5 -4.5q-31 4 -51.5 5t-35.5 -2t-29 -10l-34 -18q-2 -1 -3 0q-7 0 -18 11q-13 14 -9 24q37 43 74.5 118t67.5 163t47 179 q16 82 16 151q0 8 -1 16q-2 86 -26.5 172t-68.5 153.5t-110.5 109.5t-156.5 42q-80 0 -144.5 -43t-111.5 -110q-2 -6 -13.5 -5.5t-22.5 5t-20 13.5q-6 6 -7 13zM901 1349q-2 7 0 9l176 178l166 179q4 6 10 6h7q4 0 13 -6l21 -14q11 -7 21 -15t12 -12q4 -14 -2 -21 q-45 -41 -90 -77l-93 -72l-99 -79q-51 -42 -107 -93q-6 -6 -13 -4t-13.5 8t-8.5 13z" />
<glyph unicode="a&#x300;" horiz-adv-x="876" d="M47 152v20q0 95 34 182q38 96 110.5 169t174 116t224.5 43q6 31 15 40t22 15l80 25l6 -2q-14 -16 -19.5 -35.5t-17.5 -44.5q12 0 31.5 -3t37 -8t32 -11.5t16.5 -14.5q0 -2 -4.5 -12l-9.5 -21.5t-10 -20.5t-7 -9q-18 10 -54 22t-55 12q-39 -109 -62.5 -183.5t-37.5 -129.5 t-18.5 -95t-4.5 -79q4 -53 19.5 -66.5t52.5 -13.5q41 0 100.5 32t125 86t129 128t108.5 156q4 6 8 6t22 -17l21 -20q-51 -88 -116.5 -168t-137 -139.5t-147.5 -95t-148 -35.5q-68 0 -98.5 33.5t-32.5 76.5q0 14 2 46t15 65q-57 -98 -128 -154.5t-149 -56.5q-20 0 -42.5 15 t-41 40t-32 53.5t-13.5 53.5zM174 98q12 -31 31 -30q23 0 54.5 19t68.5 55t73.5 88.5t67.5 115.5q29 74 50.5 141.5t49.5 130.5l-2 5q-98 0 -176 -45.5t-130 -113t-78 -146.5q-24 -73 -23 -136q0 -48 14 -84zM414 1143q0 6 6 18.5t14.5 23.5t16.5 20t10 9h11q7 0 12 -6 l38 -70l43 -78q24 -42 55.5 -91t76.5 -111q0 -12 -17.5 -20.5t-21.5 0.5l-130 153q-67 76 -114 152z" />
<glyph unicode="a&#x301;" horiz-adv-x="876" d="M47 152v20q0 95 34 182q38 96 110.5 169t174 116t224.5 43q6 31 15 40t22 15l80 25l6 -2q-14 -16 -19.5 -35.5t-17.5 -44.5q12 0 31.5 -3t37 -8t32 -11.5t16.5 -14.5q0 -2 -4.5 -12l-9.5 -21.5t-10 -20.5t-7 -9q-18 10 -54 22t-55 12q-39 -109 -62.5 -183.5t-37.5 -129.5 t-18.5 -95t-4.5 -79q4 -53 19.5 -66.5t52.5 -13.5q41 0 100.5 32t125 86t129 128t108.5 156q4 6 8 6t22 -17l21 -20q-51 -88 -116.5 -168t-137 -139.5t-147.5 -95t-148 -35.5q-68 0 -98.5 33.5t-32.5 76.5q0 14 2 46t15 65q-57 -98 -128 -154.5t-149 -56.5q-20 0 -42.5 15 t-41 40t-32 53.5t-13.5 53.5zM174 98q12 -31 31 -30q23 0 54.5 19t68.5 55t73.5 88.5t67.5 115.5q29 74 50.5 141.5t49.5 130.5l-2 5q-98 0 -176 -45.5t-130 -113t-78 -146.5q-24 -73 -23 -136q0 -48 14 -84zM430 857q-2 7 0 9l176 178l166 179q4 6 10 6h7q4 0 13 -6l21 -14 q11 -7 21 -15t12 -12q4 -14 -2 -21q-45 -41 -90 -77l-93 -72l-99 -79q-51 -42 -107 -93q-6 -6 -13 -4t-13.5 8t-8.5 13z" />
<glyph unicode="a&#x303;" horiz-adv-x="876" d="M47 152v20q0 95 34 182q38 96 110.5 169t174 116t224.5 43q6 31 15 40t22 15l80 25l6 -2q-14 -16 -19.5 -35.5t-17.5 -44.5q12 0 31.5 -3t37 -8t32 -11.5t16.5 -14.5q0 -2 -4.5 -12l-9.5 -21.5t-10 -20.5t-7 -9q-18 10 -54 22t-55 12q-39 -109 -62.5 -183.5t-37.5 -129.5 t-18.5 -95t-4.5 -79q4 -53 19.5 -66.5t52.5 -13.5q41 0 100.5 32t125 86t129 128t108.5 156q4 6 8 6t22 -17l21 -20q-51 -88 -116.5 -168t-137 -139.5t-147.5 -95t-148 -35.5q-68 0 -98.5 33.5t-32.5 76.5q0 14 2 46t15 65q-57 -98 -128 -154.5t-149 -56.5q-20 0 -42.5 15 t-41 40t-32 53.5t-13.5 53.5zM174 98q12 -31 31 -30q23 0 54.5 19t68.5 55t73.5 88.5t67.5 115.5q29 74 50.5 141.5t49.5 130.5l-2 5q-98 0 -176 -45.5t-130 -113t-78 -146.5q-24 -73 -23 -136q0 -48 14 -84zM207 952q4 20 19 51t38.5 61t57.5 51.5t75 21.5q35 0 73 -25 t75.5 -54.5t75.5 -54t73 -24.5t55.5 35t5.5 84q-2 6 8.5 13t22.5 9t24.5 -2t14.5 -20q4 -37 -5 -71t-27.5 -60.5t-46 -43t-62.5 -16.5q-43 0 -85 23.5t-82 51.5t-77 50.5t-68 22.5q-23 0 -37 -12.5t-23 -31t-15 -40t-15 -37.5q-6 -10 -19 -14.5t-26.5 -2t-22.5 11.5t-7 23z " />
<glyph unicode="e&#x300;" horiz-adv-x="630" d="M108 176v14q0 78 22 158q24 88 67.5 161t109 120t145.5 47q47 0 76 -25q33 -28 33 -90q0 -83 -78 -140q-82 -60 -254 -61q-4 -23 -13 -67q-8 -37 -8 -78q0 -9 1 -18q4 -76 33.5 -105t101.5 -29q70 0 137.5 33t126.5 82t106.5 107.5t73.5 109.5q6 6 26.5 -7t22.5 -21 q-37 -66 -92 -134.5t-125.5 -126t-152.5 -93.5t-170 -36q-72 0 -128.5 53.5t-60.5 145.5zM239 418q8 -2 23.5 -4t25.5 -2q31 0 66 10t62.5 29.5t45 46t17.5 57.5q0 20 -10.5 34.5t-40.5 14.5q-61 0 -113.5 -52t-75.5 -134zM393 1143q0 6 6 18.5t14.5 23.5t16.5 20t10 9h11 q7 0 12 -6l38 -70l43 -78q24 -42 55.5 -91t76.5 -111q0 -12 -17.5 -20.5t-21.5 0.5l-130 153q-67 76 -114 152z" />
<glyph unicode="e&#x301;" horiz-adv-x="630" d="M108 176v14q0 78 22 158q24 88 67.5 161t109 120t145.5 47q47 0 76 -25q33 -28 33 -90q0 -83 -78 -140q-82 -60 -254 -61q-4 -23 -13 -67q-8 -37 -8 -78q0 -9 1 -18q4 -76 33.5 -105t101.5 -29q70 0 137.5 33t126.5 82t106.5 107.5t73.5 109.5q6 6 26.5 -7t22.5 -21 q-37 -66 -92 -134.5t-125.5 -126t-152.5 -93.5t-170 -36q-72 0 -128.5 53.5t-60.5 145.5zM239 418q8 -2 23.5 -4t25.5 -2q31 0 66 10t62.5 29.5t45 46t17.5 57.5q0 20 -10.5 34.5t-40.5 14.5q-61 0 -113.5 -52t-75.5 -134zM430 857q-2 7 0 9l176 178l166 179q4 6 10 6h7 q4 0 13 -6l21 -14q11 -7 21 -15t12 -12q4 -14 -2 -21q-45 -41 -90 -77l-93 -72l-99 -79q-51 -42 -107 -93q-6 -6 -13 -4t-13.5 8t-8.5 13z" />
<glyph unicode="i&#x300;" horiz-adv-x="557" d="M115 104q-8 39 5 109t36.5 144.5t51.5 141t44 101.5q14 25 47 41t45 16t24.5 -17t6.5 -28q-39 -70 -67.5 -138t-47 -128.5t-24 -110t3.5 -79.5q14 -72 86 -72q59 0 117.5 35t109.5 86t93 109.5t67 103.5q4 8 14 10t19.5 -1t16.5 -10t5 -14q-51 -98 -126 -183t-146 -136 q-106 -84 -220 -84q-20 0 -45.5 4t-49 14.5t-42 31.5t-24.5 54zM170 1143q0 6 6 18.5t14.5 23.5t16.5 20t10 9h11q7 0 12 -6l38 -70l43 -78q24 -42 55.5 -91t76.5 -111q0 -12 -17.5 -20.5t-21.5 0.5l-130 153q-67 76 -114 152z" />
<glyph unicode="i&#x301;" horiz-adv-x="557" d="M115 104q-8 39 5 109t36.5 144.5t51.5 141t44 101.5q14 25 47 41t45 16t24.5 -17t6.5 -28q-39 -70 -67.5 -138t-47 -128.5t-24 -110t3.5 -79.5q14 -72 86 -72q59 0 117.5 35t109.5 86t93 109.5t67 103.5q4 8 14 10t19.5 -1t16.5 -10t5 -14q-51 -98 -126 -183t-146 -136 q-106 -84 -220 -84q-20 0 -45.5 4t-49 14.5t-42 31.5t-24.5 54zM145 857q-2 7 0 9l176 178l166 179q4 6 10 6h7q4 0 13 -6l21 -14q11 -7 21 -15t12 -12q4 -14 -2 -21q-45 -41 -90 -77l-93 -72l-99 -79q-51 -42 -107 -93q-6 -6 -13 -4t-13.5 8t-8.5 13z" />
<glyph unicode="o&#x300;" horiz-adv-x="780" d="M100 156v23q0 86 26 166q30 91 85 162t129 116t160 47q4 25 8 56.5t33 37.5q14 4 29.5 7t25.5 9q3 3 8 4q4 0 9 -3q11 -5 7 -17q-6 -16 -11 -42t-3 -52q2 -51 14.5 -98.5t36 -84t59.5 -59t85 -22.5q31 0 61.5 12t60 32.5t54 48t41.5 58.5q2 6 13 4t21.5 -8t17.5 -14 q4 -4 4 -9q0 -3 -3 -6q-18 -35 -46 -67.5t-62.5 -59t-76.5 -42t-91 -15.5q-51 0 -104.5 20.5t-94.5 71.5q-8 -61 -28.5 -139t-58.5 -147.5t-97.5 -117.5t-145.5 -48q-80 0 -122 53t-44 123zM219 186q0 -14 4 -35.5t11.5 -40t20.5 -31.5t34 -13q53 0 99 57t79 135t50 157 q14 64 14 104q0 9 -1 18q-2 6 -4 10t-3 9t-4 13.5t-7 26.5q0 14 -12 14q-55 0 -106.5 -42t-91.5 -104.5t-62 -136.5q-21 -69 -21 -130v-11zM444 1143q0 6 6 18.5t14.5 23.5t16.5 20t10 9h11q7 0 12 -6l38 -70l43 -78q24 -42 55.5 -91t76.5 -111q0 -12 -17.5 -20.5t-21.5 0.5 l-130 153q-67 76 -114 152z" />
<glyph unicode="o&#x301;" horiz-adv-x="780" d="M100 156v23q0 86 26 166q30 91 85 162t129 116t160 47q4 25 8 56.5t33 37.5q14 4 29.5 7t25.5 9q3 3 8 4q4 0 9 -3q11 -5 7 -17q-6 -16 -11 -42t-3 -52q2 -51 14.5 -98.5t36 -84t59.5 -59t85 -22.5q31 0 61.5 12t60 32.5t54 48t41.5 58.5q2 6 13 4t21.5 -8t17.5 -14 q4 -4 4 -9q0 -3 -3 -6q-18 -35 -46 -67.5t-62.5 -59t-76.5 -42t-91 -15.5q-51 0 -104.5 20.5t-94.5 71.5q-8 -61 -28.5 -139t-58.5 -147.5t-97.5 -117.5t-145.5 -48q-80 0 -122 53t-44 123zM219 186q0 -14 4 -35.5t11.5 -40t20.5 -31.5t34 -13q53 0 99 57t79 135t50 157 q14 64 14 104q0 9 -1 18q-2 6 -4 10t-3 9t-4 13.5t-7 26.5q0 14 -12 14q-55 0 -106.5 -42t-91.5 -104.5t-62 -136.5q-21 -69 -21 -130v-11zM419 857q-2 7 0 9l176 178l166 179q4 6 10 6h7q4 0 13 -6l21 -14q11 -7 21 -15t12 -12q4 -14 -2 -21q-45 -41 -90 -77l-93 -72 l-99 -79q-51 -42 -107 -93q-6 -6 -13 -4t-13.5 8t-8.5 13z" />
<glyph unicode="o&#x303;" horiz-adv-x="780" d="M100 156v23q0 86 26 166q30 91 85 162t129 116t160 47q4 25 8 56.5t33 37.5q14 4 29.5 7t25.5 9q3 3 8 4q4 0 9 -3q11 -5 7 -17q-6 -16 -11 -42t-3 -52q2 -51 14.5 -98.5t36 -84t59.5 -59t85 -22.5q31 0 61.5 12t60 32.5t54 48t41.5 58.5q2 6 13 4t21.5 -8t17.5 -14 q4 -4 4 -9q0 -3 -3 -6q-18 -35 -46 -67.5t-62.5 -59t-76.5 -42t-91 -15.5q-51 0 -104.5 20.5t-94.5 71.5q-8 -61 -28.5 -139t-58.5 -147.5t-97.5 -117.5t-145.5 -48q-80 0 -122 53t-44 123zM219 186q0 -14 4 -35.5t11.5 -40t20.5 -31.5t34 -13q53 0 99 57t79 135t50 157 q14 64 14 104q0 9 -1 18q-2 6 -4 10t-3 9t-4 13.5t-7 26.5q0 14 -12 14q-55 0 -106.5 -42t-91.5 -104.5t-62 -136.5q-21 -69 -21 -130v-11zM238 952q4 20 19 51t38.5 61t57.5 51.5t75 21.5q35 0 73 -25t75.5 -54.5t75.5 -54t73 -24.5t55.5 35t5.5 84q-2 6 8.5 13t22.5 9 t24.5 -2t14.5 -20q4 -37 -5 -71t-27.5 -60.5t-46 -43t-62.5 -16.5q-43 0 -85 23.5t-82 51.5t-77 50.5t-68 22.5q-23 0 -37 -12.5t-23 -31t-15 -40t-15 -37.5q-6 -10 -19 -14.5t-26.5 -2t-22.5 11.5t-7 23z" />
<glyph unicode="u&#x300;" horiz-adv-x="790" d="M100 84q-1 8 0 18q0 20 2 46q4 40 21.5 107t47.5 164l75 236q10 31 22 31q6 0 19.5 -7t27 -16.5t23.5 -19.5t10 -18t-12 -37q-31 -74 -55.5 -144.5t-43 -130t-28.5 -107.5t-10 -77q8 -23 22.5 -31t30.5 -8t39.5 23.5t51.5 62.5t55.5 90t50.5 107l29 87l24 67l19 55l18 49 q6 20 16 20t24.5 -14t25.5 -35.5t16.5 -44t-0.5 -41.5q-23 -45 -46.5 -86t-44 -82t-31.5 -88q-10 -40 -10 -90v-18q2 -47 22.5 -70t51.5 -23q33 0 79 20.5t99.5 64.5t109.5 114t107 168q4 2 13.5 -1t19.5 -8t18.5 -11.5t10.5 -12.5q-37 -74 -87 -147.5t-110.5 -133t-128 -96 t-139.5 -36.5q-74 0 -108.5 41.5t-38.5 101.5v24q0 12 2 25q-10 -20 -31 -50t-48.5 -57.5t-60 -46t-67.5 -18.5q-76 0 -103 84zM397 1143q0 6 6 18.5t14.5 23.5t16.5 20t10 9h11q7 0 12 -6l38 -70l43 -78q24 -42 55.5 -91t76.5 -111q0 -12 -17.5 -20.5t-21.5 0.5l-130 153 q-67 76 -114 152z" />
<glyph unicode="u&#x301;" horiz-adv-x="790" d="M100 84q-1 8 0 18q0 20 2 46q4 40 21.5 107t47.5 164l75 236q10 31 22 31q6 0 19.5 -7t27 -16.5t23.5 -19.5t10 -18t-12 -37q-31 -74 -55.5 -144.5t-43 -130t-28.5 -107.5t-10 -77q8 -23 22.5 -31t30.5 -8t39.5 23.5t51.5 62.5t55.5 90t50.5 107l29 87l24 67l19 55l18 49 q6 20 16 20t24.5 -14t25.5 -35.5t16.5 -44t-0.5 -41.5q-23 -45 -46.5 -86t-44 -82t-31.5 -88q-10 -40 -10 -90v-18q2 -47 22.5 -70t51.5 -23q33 0 79 20.5t99.5 64.5t109.5 114t107 168q4 2 13.5 -1t19.5 -8t18.5 -11.5t10.5 -12.5q-37 -74 -87 -147.5t-110.5 -133t-128 -96 t-139.5 -36.5q-74 0 -108.5 41.5t-38.5 101.5v24q0 12 2 25q-10 -20 -31 -50t-48.5 -57.5t-60 -46t-67.5 -18.5q-76 0 -103 84zM469 857q-2 7 0 9l176 178l166 179q4 6 10 6h7q4 0 13 -6l21 -14q11 -7 21 -15t12 -12q4 -14 -2 -21q-45 -41 -90 -77l-93 -72l-99 -79 q-51 -42 -107 -93q-6 -6 -13 -4t-13.5 8t-8.5 13z" />
<glyph unicode="y&#x301;" horiz-adv-x="712" d="M-809 -498q31 -113 107.5 -180t222.5 -67q150 0 272.5 45t226 145t191.5 258t166 385q6 12 0 9t-8 -5q-29 -29 -78 -60.5t-111 -31.5q-53 0 -81.5 33t-30.5 76q0 5 -1 10q0 31 10 81q11 58 31.5 129.5t49 150.5t59.5 155q4 16 12.5 23.5t14.5 13.5q16 4 47 5t37 1 q12 0 12 -12q-33 -78 -65 -162l-58 -157q-27 -73 -42 -129t-15 -79q2 -23 12 -40t45 -17q18 0 48 18.5t58.5 43t54 51t38.5 41.5q20 27 42.5 101.5t67.5 211.5q23 68 41.5 113t38.5 45q20 -6 46 -31t30 -49q-43 -117 -97.5 -243t-95.5 -243l-72.5 -197.5t-98 -221t-129 -218 t-167 -188.5t-212 -132t-263.5 -50q-104 0 -179 35.5t-119 90t-58 118.5q-7 32 -7 63t7 61zM372 857q-2 7 0 9l176 178l166 179q4 6 10 6h7q4 0 13 -6l21 -14q11 -7 21 -15t12 -12q4 -14 -2 -21q-45 -41 -90 -77l-93 -72l-99 -79q-51 -42 -107 -93q-6 -6 -13 -4t-13.5 8 t-8.5 13z" />
<glyph unicode="I&#x303;" horiz-adv-x="677" d="M90 14q47 4 72 41q25 43 60 119l77 169q41 93 82 196.5t76 201t59.5 181.5t30.5 139q6 39 -11.5 50t-70.5 11q-35 0 -76 -3t-74 -9q-4 20 4.5 46t12.5 34q115 6 215 8t172 14q10 -4 13 -23.5t1 -29.5q0 -2 -8 -6t-19.5 -9t-20.5 -12.5t-13 -17.5q-41 -104 -85 -236 l-92 -272l-101 -278q-52 -139 -111 -258q-16 -35 -35 -52.5t-40 -22.5q-18 -4 -39 -4h-8q-26 1 -57 3q-2 2 -6 8zM336 1390q4 20 19 51t38.5 61t57.5 51.5t75 21.5q35 0 73 -25t75.5 -54.5t75.5 -54t73 -24.5t55.5 35t5.5 84q-2 6 8.5 13t22.5 9t24.5 -2t14.5 -20 q4 -37 -5 -71t-27.5 -60.5t-46 -43t-62.5 -16.5q-43 0 -85 23.5t-82 51.5t-77 50.5t-68 22.5q-23 0 -37 -12.5t-23 -31t-15 -40t-15 -37.5q-6 -10 -19 -14.5t-26.5 -2t-22.5 11.5t-7 23z" />
<glyph unicode="i&#x303;" horiz-adv-x="557" d="M115 104q-8 39 5 109t36.5 144.5t51.5 141t44 101.5q14 25 47 41t45 16t24.5 -17t6.5 -28q-39 -70 -67.5 -138t-47 -128.5t-24 -110t3.5 -79.5q14 -72 86 -72q59 0 117.5 35t109.5 86t93 109.5t67 103.5q4 8 14 10t19.5 -1t16.5 -10t5 -14q-51 -98 -126 -183t-146 -136 q-106 -84 -220 -84q-20 0 -45.5 4t-49 14.5t-42 31.5t-24.5 54zM25 952q4 20 19 51t38.5 61t57.5 51.5t75 21.5q35 0 73 -25t75.5 -54.5t75.5 -54t73 -24.5t55.5 35t5.5 84q-2 6 8.5 13t22.5 9t24.5 -2t14.5 -20q4 -37 -5 -71t-27.5 -60.5t-46 -43t-62.5 -16.5 q-43 0 -85 23.5t-82 51.5t-77 50.5t-68 22.5q-23 0 -37 -12.5t-23 -31t-15 -40t-15 -37.5q-6 -10 -19 -14.5t-26.5 -2t-22.5 11.5t-7 23z" />
<glyph unicode="U&#x303;" horiz-adv-x="1644" d="M264 254q-2 86 35 194.5t86 219.5l96 213q47 102 64 174q6 29 -2 43t-43 14h-156q-10 0 -17.5 13.5t-9.5 31t1.5 30.5t15.5 13q199 0 316.5 7t125.5 7q4 0 6 -9t4 -21.5l3.5 -22.5t1.5 -12q-2 -12 -8.5 -13t-14.5 -3q-23 -6 -50.5 -10.5t-41.5 -32.5l-53 -113l-64 -141 l-65 -156q-33 -80 -57.5 -153.5t-40.5 -135.5q-14 -54 -13 -91q0 -116 61 -175q57 -55 197 -55q96 0 184 52t167 138t145.5 196.5t123 226.5t101.5 227.5t76 201.5q10 31 25.5 50.5t47.5 35.5q10 2 31 9l41 15q20 7 38.5 12t27.5 5q6 0 12 -10t8 -22.5t1 -22.5t-9 -10 q-10 -2 -32.5 -9.5t-33.5 -23.5q-61 -92 -121.5 -216t-107.5 -256t-76 -260q-27 -119 -27 -217q0 -7 1 -14q4 -78 41.5 -103.5t119.5 -25.5q35 0 72 12.5t66.5 25.5t50 25.5t22.5 12.5q8 0 17.5 -11.5t15.5 -24.5q9 -19 9 -30q0 -9 -7 -12q-72 -37 -139.5 -63.5 t-155.5 -26.5q-66 0 -107.5 16.5t-66 42t-35 58t-12.5 63.5q0 35 6 71t13.5 65.5t14.5 49t7 21.5q-6 6 -10 6q-74 -111 -142.5 -184.5t-139 -117.5t-150.5 -61.5t-176 -17.5q-59 0 -114.5 16.5t-98.5 52.5t-70 89t-31 127zM865 1390q4 20 19 51t38.5 61t57.5 51.5t75 21.5 q35 0 73 -25t75.5 -54.5t75.5 -54t73 -24.5t55.5 35t5.5 84q-2 6 8.5 13t22.5 9t24.5 -2t14.5 -20q4 -37 -5 -71t-27.5 -60.5t-46 -43t-62.5 -16.5q-43 0 -85 23.5t-82 51.5t-77 50.5t-68 22.5q-23 0 -37 -12.5t-23 -31t-15 -40t-15 -37.5q-6 -10 -19 -14.5t-26.5 -2 t-22.5 11.5t-7 23z" />
<glyph unicode="u&#x303;" horiz-adv-x="790" d="M100 84q-1 8 0 18q0 20 2 46q4 40 21.5 107t47.5 164l75 236q10 31 22 31q6 0 19.5 -7t27 -16.5t23.5 -19.5t10 -18t-12 -37q-31 -74 -55.5 -144.5t-43 -130t-28.5 -107.5t-10 -77q8 -23 22.5 -31t30.5 -8t39.5 23.5t51.5 62.5t55.5 90t50.5 107l29 87l24 67l19 55l18 49 q6 20 16 20t24.5 -14t25.5 -35.5t16.5 -44t-0.5 -41.5q-23 -45 -46.5 -86t-44 -82t-31.5 -88q-10 -40 -10 -90v-18q2 -47 22.5 -70t51.5 -23q33 0 79 20.5t99.5 64.5t109.5 114t107 168q4 2 13.5 -1t19.5 -8t18.5 -11.5t10.5 -12.5q-37 -74 -87 -147.5t-110.5 -133t-128 -96 t-139.5 -36.5q-74 0 -108.5 41.5t-38.5 101.5v24q0 12 2 25q-10 -20 -31 -50t-48.5 -57.5t-60 -46t-67.5 -18.5q-76 0 -103 84zM301 952q4 20 19 51t38.5 61t57.5 51.5t75 21.5q35 0 73 -25t75.5 -54.5t75.5 -54t73 -24.5t55.5 35t5.5 84q-2 6 8.5 13t22.5 9t24.5 -2 t14.5 -20q4 -37 -5 -71t-27.5 -60.5t-46 -43t-62.5 -16.5q-43 0 -85 23.5t-82 51.5t-77 50.5t-68 22.5q-23 0 -37 -12.5t-23 -31t-15 -40t-15 -37.5q-6 -10 -19 -14.5t-26.5 -2t-22.5 11.5t-7 23z" />
<glyph unicode="&#xe2f;&#xe2f;" horiz-adv-x="774" d="M-815 -244q281 14 478.5 53t333.5 102.5t222 151t141 195.5q59 113 82 205t31 164q-45 -104 -123 -157.5t-155 -53.5q-43 0 -74 13t-49.5 34.5t-26.5 49.5t-8 54q0 45 17.5 87t46 76t66.5 54.5t79 20.5q27 0 44 -15.5t17 -50.5q0 -33 -19.5 -73.5t-54.5 -67.5 q-16 -12 -46.5 -21.5t-51.5 1.5q68 41 87.5 86t19.5 71q0 6 -6.5 9.5t-10.5 3.5q-10 0 -29.5 -12.5t-39 -35t-33.5 -54.5t-14 -73t18 -67.5t59 -26.5q57 0 104.5 26.5t84.5 69.5t64.5 96.5t45.5 106.5q14 2 29 2q12 0 24.5 -1t22.5 -5q-2 -16 -5 -49t-9 -78q33 14 52 34.5 t29.5 40t13.5 35t3 21.5q14 2 29 2q12 0 24.5 -1t22.5 -5q-2 -20 -9 -71.5t-18.5 -123t-28 -156.5t-36.5 -171q-49 -217 -163 -352.5t-262.5 -204t-321.5 -75.5t-343 30q264 8 441.5 59t292 133t177 187.5t97.5 224.5q12 43 24.5 93t22.5 103l20 104q10 52 17 97 q-12 -29 -40 -44t-54 -19q-12 -74 -36 -160t-59 -172q-80 -190 -217 -302t-306 -164t-358.5 -56.5t-375.5 22.5z" />
<glyph unicode="A&#x323;" horiz-adv-x="1658" d="M573 -236q-2 29 15.5 53.5t54.5 24.5q25 0 47.5 -16t22.5 -57q2 -29 -20.5 -52.5t-51.5 -23.5q-27 0 -47.5 19t-20.5 52zM-10 -84q-12 51 11.5 91t72.5 95q418 500 671.5 775.5t331.5 336.5q18 12 35.5 13.5t44.5 -2.5q25 -4 31 -8.5t-2 -14.5q-14 -20 -15.5 -50t0.5 -65 q0 -23 3.5 -91l8.5 -161l11 -198q6 -104 12 -196.5t11.5 -162t9.5 -92.5q16 -68 42.5 -83t49.5 -15q14 0 35.5 9t38.5 14q8 4 17 -4.5t15.5 -18.5t5.5 -20.5t-12 -14.5q-8 -2 -32.5 -12t-55.5 -21l-63 -20q-33 -10 -60 -14q-43 0 -69 57q2 16 -2 64.5t-11 104.5l-11 106 q-5 50 -9 67q-8 29 -26.5 54.5t-73.5 41.5q-18 6 -82 6t-137.5 2.5t-142.5 8.5t-99 22q-166 -193 -269.5 -340t-150.5 -252q-12 -37 -14 -61.5t8 -71.5q-4 -10 -12.5 -15t-12.5 -1zM602 592q10 -25 60.5 -32t181.5 -7q88 0 143 -7t80 -14q31 -8 35 0.5t6 26.5q2 37 1 88 t-4 106.5t-8 112t-8.5 101.5t-6.5 76.5t-3 37.5q0 4 -4 14.5t-22 -5.5l-35 -34l-70 -70l-89 -94l-96 -106l-90 -103q-42 -50 -71 -91z" />
<glyph unicode="a&#x323;" horiz-adv-x="876" d="M47 152v20q0 95 34 182q38 96 110.5 169t174 116t224.5 43q6 31 15 40t22 15l80 25l6 -2q-14 -16 -19.5 -35.5t-17.5 -44.5q12 0 31.5 -3t37 -8t32 -11.5t16.5 -14.5q0 -2 -4.5 -12l-9.5 -21.5t-10 -20.5t-7 -9q-18 10 -54 22t-55 12q-39 -109 -62.5 -183.5t-37.5 -129.5 t-18.5 -95t-4.5 -79q4 -53 19.5 -66.5t52.5 -13.5q41 0 100.5 32t125 86t129 128t108.5 156q4 6 8 6t22 -17l21 -20q-51 -88 -116.5 -168t-137 -139.5t-147.5 -95t-148 -35.5q-68 0 -98.5 33.5t-32.5 76.5q0 14 2 46t15 65q-57 -98 -128 -154.5t-149 -56.5q-20 0 -42.5 15 t-41 40t-32 53.5t-13.5 53.5zM174 98q12 -31 31 -30q23 0 54.5 19t68.5 55t73.5 88.5t67.5 115.5q29 74 50.5 141.5t49.5 130.5l-2 5q-98 0 -176 -45.5t-130 -113t-78 -146.5q-24 -73 -23 -136q0 -48 14 -84zM291 -236q-2 29 15.5 53.5t54.5 24.5q25 0 47.5 -16t22.5 -57 q2 -29 -20.5 -52.5t-51.5 -23.5q-27 0 -47.5 19t-20.5 52z" />
<glyph unicode="A&#x309;" horiz-adv-x="1490" d="M1106 1304q0 4 2 13.5t6 11.5q80 33 127 80t47 88q-4 47 -27.5 60t-70.5 13q-23 0 -40.5 -3t-27.5 -3q-6 0 -8 9.5t-2 19.5t3 20.5t9 12.5q25 6 45.5 10t53.5 4q66 0 109.5 -29.5t45.5 -76.5q2 -49 -29.5 -95.5t-74.5 -81t-88 -55t-72 -20.5q-4 0 -6 9t-2 13zM-10 -84 q-12 51 11.5 91t72.5 95q418 500 671.5 775.5t331.5 336.5q18 12 35.5 13.5t44.5 -2.5q25 -4 31 -8.5t-2 -14.5q-14 -20 -15.5 -50t0.5 -65q0 -23 3.5 -91l8.5 -161l11 -198q6 -104 12 -196.5t11.5 -162t9.5 -92.5q16 -68 42.5 -83t49.5 -15q14 0 35.5 9t38.5 14 q8 4 17 -4.5t15.5 -18.5t5.5 -20.5t-12 -14.5q-8 -2 -32.5 -12t-55.5 -21l-63 -20q-33 -10 -60 -14q-43 0 -69 57q2 16 -2 64.5t-11 104.5l-11 106q-5 50 -9 67q-8 29 -26.5 54.5t-73.5 41.5q-18 6 -82 6t-137.5 2.5t-142.5 8.5t-99 22q-166 -193 -269.5 -340t-150.5 -252 q-12 -37 -14 -61.5t8 -71.5q-4 -10 -12.5 -15t-12.5 -1zM602 592q10 -25 60.5 -32t181.5 -7q88 0 143 -7t80 -14q31 -8 35 0.5t6 26.5q2 37 1 88t-4 106.5t-8 112t-8.5 101.5t-6.5 76.5t-3 37.5q0 4 -4 14.5t-22 -5.5l-35 -34l-70 -70l-89 -94l-96 -106l-90 -103 q-42 -50 -71 -91z" />
<glyph unicode="a&#x309;" horiz-adv-x="876" d="M47 152v20q0 95 34 182q38 96 110.5 169t174 116t224.5 43q6 31 15 40t22 15l80 25l6 -2q-14 -16 -19.5 -35.5t-17.5 -44.5q12 0 31.5 -3t37 -8t32 -11.5t16.5 -14.5q0 -2 -4.5 -12l-9.5 -21.5t-10 -20.5t-7 -9q-18 10 -54 22t-55 12q-39 -109 -62.5 -183.5t-37.5 -129.5 t-18.5 -95t-4.5 -79q4 -53 19.5 -66.5t52.5 -13.5q41 0 100.5 32t125 86t129 128t108.5 156q4 6 8 6t22 -17l21 -20q-51 -88 -116.5 -168t-137 -139.5t-147.5 -95t-148 -35.5q-68 0 -98.5 33.5t-32.5 76.5q0 14 2 46t15 65q-57 -98 -128 -154.5t-149 -56.5q-20 0 -42.5 15 t-41 40t-32 53.5t-13.5 53.5zM174 98q12 -31 31 -30q23 0 54.5 19t68.5 55t73.5 88.5t67.5 115.5q29 74 50.5 141.5t49.5 130.5l-2 5q-98 0 -176 -45.5t-130 -113t-78 -146.5q-24 -73 -23 -136q0 -48 14 -84zM518 862q0 4 2 13.5t6 11.5q80 33 127 80t47 88q-4 47 -27.5 60 t-70.5 13q-23 0 -40.5 -3t-27.5 -3q-6 0 -8 9.5t-2 19.5t3 20.5t9 12.5q25 6 45.5 10t53.5 4q66 0 109.5 -29.5t45.5 -76.5q2 -49 -29.5 -95.5t-74.5 -81t-88 -55t-72 -20.5q-4 0 -6 9t-2 13z" />
<glyph unicode="&#xc2;&#x301;" horiz-adv-x="1658" d="M948 1292q-4 16 15 41l57 73l62 78q32 40 65 77t63 67q8 8 20.5 6t16.5 -10l58 -166q29 -80 39 -131q6 -39 -2 -47q-4 -6 -23.5 -21.5t-30.5 -15.5q-6 0 -10 23q-14 61 -30.5 118.5t-39.5 116.5q-4 14 -11 17.5t-17 -8.5l-75 -102l-71 -97q-20 -33 -28 -33q-2 0 -12 1 l-18 2q-9 1 -17.5 4t-10.5 7zM1370 1516q-2 7 0 9l176 178l166 179q4 6 10 6h7q4 0 13 -6l21 -14q11 -7 21 -15t12 -12q4 -14 -2 -21q-45 -41 -90 -77l-93 -72l-99 -79q-51 -42 -107 -93q-6 -6 -13 -4t-13.5 8t-8.5 13zM-10 -84q-12 51 11.5 91t72.5 95q418 500 671.5 775.5 t331.5 336.5q18 12 35.5 13.5t44.5 -2.5q25 -4 31 -8.5t-2 -14.5q-14 -20 -15.5 -50t0.5 -65q0 -23 3.5 -91l8.5 -161l11 -198q6 -104 12 -196.5t11.5 -162t9.5 -92.5q16 -68 42.5 -83t49.5 -15q14 0 35.5 9t38.5 14q8 4 17 -4.5t15.5 -18.5t5.5 -20.5t-12 -14.5 q-8 -2 -32.5 -12t-55.5 -21l-63 -20q-33 -10 -60 -14q-43 0 -69 57q2 16 -2 64.5t-11 104.5l-11 106q-5 50 -9 67q-8 29 -26.5 54.5t-73.5 41.5q-18 6 -82 6t-137.5 2.5t-142.5 8.5t-99 22q-166 -193 -269.5 -340t-150.5 -252q-12 -37 -14 -61.5t8 -71.5q-4 -10 -12.5 -15 t-12.5 -1zM602 592q10 -25 60.5 -32t181.5 -7q88 0 143 -7t80 -14q31 -8 35 0.5t6 26.5q2 37 1 88t-4 106.5t-8 112t-8.5 101.5t-6.5 76.5t-3 37.5q0 4 -4 14.5t-22 -5.5l-35 -34l-70 -70l-89 -94l-96 -106l-90 -103q-42 -50 -71 -91z" />
<glyph unicode="&#xe2;&#x301;" horiz-adv-x="876" d="M47 152v20q0 95 34 182q38 96 110.5 169t174 116t224.5 43q6 31 15 40t22 15l80 25l6 -2q-14 -16 -19.5 -35.5t-17.5 -44.5q12 0 31.5 -3t37 -8t32 -11.5t16.5 -14.5q0 -2 -4.5 -12l-9.5 -21.5t-10 -20.5t-7 -9q-18 10 -54 22t-55 12q-39 -109 -62.5 -183.5t-37.5 -129.5 t-18.5 -95t-4.5 -79q4 -53 19.5 -66.5t52.5 -13.5q41 0 100.5 32t125 86t129 128t108.5 156q4 6 8 6t22 -17l21 -20q-51 -88 -116.5 -168t-137 -139.5t-147.5 -95t-148 -35.5q-68 0 -98.5 33.5t-32.5 76.5q0 14 2 46t15 65q-57 -98 -128 -154.5t-149 -56.5q-20 0 -42.5 15 t-41 40t-32 53.5t-13.5 53.5zM174 98q12 -31 31 -30q23 0 54.5 19t68.5 55t73.5 88.5t67.5 115.5q29 74 50.5 141.5t49.5 130.5l-2 5q-98 0 -176 -45.5t-130 -113t-78 -146.5q-24 -73 -23 -136q0 -48 14 -84zM381 890q-4 16 15 41l57 73l62 78q32 40 65 77t63 67q8 8 20.5 6 t16.5 -10l58 -166q29 -80 39 -131q6 -39 -2 -47q-4 -6 -23.5 -21.5t-30.5 -15.5q-6 0 -10 23q-14 61 -30.5 118.5t-39.5 116.5q-4 14 -11 17.5t-17 -8.5l-75 -102l-71 -97q-20 -33 -28 -33q-2 0 -12 1l-18 2q-9 1 -17.5 4t-10.5 7zM782 1205q-2 7 0 9l176 178l166 179 q4 6 10 6h7q4 0 13 -6l21 -14q11 -7 21 -15t12 -12q4 -14 -2 -21q-45 -41 -90 -77l-93 -72l-99 -79q-51 -42 -107 -93q-6 -6 -13 -4t-13.5 8t-8.5 13z" />
<glyph unicode="&#xc2;&#x300;" horiz-adv-x="1658" d="M921 1306q-4 16 15 41l57 73l62 78q32 40 65 77t63 67q8 8 20.5 6t16.5 -10l58 -166q29 -80 39 -131q6 -39 -2 -47q-4 -6 -23.5 -21.5t-30.5 -15.5q-6 0 -10 23q-14 61 -30.5 118.5t-39.5 116.5q-4 14 -11 17.5t-17 -8.5l-75 -102l-71 -97q-20 -33 -28 -33q-2 0 -12 1 l-18 2q-9 1 -17.5 4t-10.5 7zM1225 1835q0 6 6 18.5t14.5 23.5t16.5 20t10 9h11q7 0 12 -6l38 -70l43 -78q24 -42 55.5 -91t76.5 -111q0 -12 -17.5 -20.5t-21.5 0.5l-130 153q-67 76 -114 152zM-10 -84q-12 51 11.5 91t72.5 95q418 500 671.5 775.5t331.5 336.5 q18 12 35.5 13.5t44.5 -2.5q25 -4 31 -8.5t-2 -14.5q-14 -20 -15.5 -50t0.5 -65q0 -23 3.5 -91l8.5 -161l11 -198q6 -104 12 -196.5t11.5 -162t9.5 -92.5q16 -68 42.5 -83t49.5 -15q14 0 35.5 9t38.5 14q8 4 17 -4.5t15.5 -18.5t5.5 -20.5t-12 -14.5q-8 -2 -32.5 -12 t-55.5 -21l-63 -20q-33 -10 -60 -14q-43 0 -69 57q2 16 -2 64.5t-11 104.5l-11 106q-5 50 -9 67q-8 29 -26.5 54.5t-73.5 41.5q-18 6 -82 6t-137.5 2.5t-142.5 8.5t-99 22q-166 -193 -269.5 -340t-150.5 -252q-12 -37 -14 -61.5t8 -71.5q-4 -10 -12.5 -15t-12.5 -1zM602 592 q10 -25 60.5 -32t181.5 -7q88 0 143 -7t80 -14q31 -8 35 0.5t6 26.5q2 37 1 88t-4 106.5t-8 112t-8.5 101.5t-6.5 76.5t-3 37.5q0 4 -4 14.5t-22 -5.5l-35 -34l-70 -70l-89 -94l-96 -106l-90 -103q-42 -50 -71 -91z" />
<glyph unicode="&#xe2;&#x300;" horiz-adv-x="876" d="M47 152v20q0 95 34 182q38 96 110.5 169t174 116t224.5 43q6 31 15 40t22 15l80 25l6 -2q-14 -16 -19.5 -35.5t-17.5 -44.5q12 0 31.5 -3t37 -8t32 -11.5t16.5 -14.5q0 -2 -4.5 -12l-9.5 -21.5t-10 -20.5t-7 -9q-18 10 -54 22t-55 12q-39 -109 -62.5 -183.5t-37.5 -129.5 t-18.5 -95t-4.5 -79q4 -53 19.5 -66.5t52.5 -13.5q41 0 100.5 32t125 86t129 128t108.5 156q4 6 8 6t22 -17l21 -20q-51 -88 -116.5 -168t-137 -139.5t-147.5 -95t-148 -35.5q-68 0 -98.5 33.5t-32.5 76.5q0 14 2 46t15 65q-57 -98 -128 -154.5t-149 -56.5q-20 0 -42.5 15 t-41 40t-32 53.5t-13.5 53.5zM174 98q12 -31 31 -30q23 0 54.5 19t68.5 55t73.5 88.5t67.5 115.5q29 74 50.5 141.5t49.5 130.5l-2 5q-98 0 -176 -45.5t-130 -113t-78 -146.5q-24 -73 -23 -136q0 -48 14 -84zM295 886q-4 16 15 41l57 73l62 78q32 40 65 77t63 67q8 8 20.5 6 t16.5 -10l58 -166q29 -80 39 -131q6 -39 -2 -47q-4 -6 -23.5 -21.5t-30.5 -15.5q-6 0 -10 23q-14 61 -30.5 118.5t-39.5 116.5q-4 14 -11 17.5t-17 -8.5l-75 -102l-71 -97q-20 -33 -28 -33q-2 0 -12 1l-18 2q-9 1 -17.5 4t-10.5 7zM596 1405q0 6 6 18.5t14.5 23.5t16.5 20 t10 9h11q7 0 12 -6l38 -70l43 -78q24 -42 55.5 -91t76.5 -111q0 -12 -17.5 -20.5t-21.5 0.5l-130 153q-67 76 -114 152z" />
<glyph unicode="&#xc2;&#x309;" horiz-adv-x="1658" d="M944 1286q-4 16 15 41l57 73l62 78q32 40 65 77t63 67q8 8 20.5 6t16.5 -10l58 -166q29 -80 39 -131q6 -39 -2 -47q-4 -6 -23.5 -21.5t-30.5 -15.5q-6 0 -10 23q-14 61 -30.5 118.5t-39.5 116.5q-4 14 -11 17.5t-17 -8.5l-75 -102l-71 -97q-20 -33 -28 -33q-2 0 -12 1 l-18 2q-9 1 -17.5 4t-10.5 7zM1344 1538q0 4 2 13.5t6 11.5q80 33 127 80t47 88q-4 47 -27.5 60t-70.5 13q-23 0 -40.5 -3t-27.5 -3q-6 0 -8 9.5t-2 19.5t3 20.5t9 12.5q25 6 45.5 10t53.5 4q66 0 109.5 -29.5t45.5 -76.5q2 -49 -29.5 -95.5t-74.5 -81t-88 -55t-72 -20.5 q-4 0 -6 9t-2 13zM-10 -84q-12 51 11.5 91t72.5 95q418 500 671.5 775.5t331.5 336.5q18 12 35.5 13.5t44.5 -2.5q25 -4 31 -8.5t-2 -14.5q-14 -20 -15.5 -50t0.5 -65q0 -23 3.5 -91l8.5 -161l11 -198q6 -104 12 -196.5t11.5 -162t9.5 -92.5q16 -68 42.5 -83t49.5 -15 q14 0 35.5 9t38.5 14q8 4 17 -4.5t15.5 -18.5t5.5 -20.5t-12 -14.5q-8 -2 -32.5 -12t-55.5 -21l-63 -20q-33 -10 -60 -14q-43 0 -69 57q2 16 -2 64.5t-11 104.5l-11 106q-5 50 -9 67q-8 29 -26.5 54.5t-73.5 41.5q-18 6 -82 6t-137.5 2.5t-142.5 8.5t-99 22 q-166 -193 -269.5 -340t-150.5 -252q-12 -37 -14 -61.5t8 -71.5q-4 -10 -12.5 -15t-12.5 -1zM602 592q10 -25 60.5 -32t181.5 -7q88 0 143 -7t80 -14q31 -8 35 0.5t6 26.5q2 37 1 88t-4 106.5t-8 112t-8.5 101.5t-6.5 76.5t-3 37.5q0 4 -4 14.5t-22 -5.5l-35 -34l-70 -70 l-89 -94l-96 -106l-90 -103q-42 -50 -71 -91z" />
<glyph unicode="&#xe2;&#x309;" horiz-adv-x="876" d="M47 152v20q0 95 34 182q38 96 110.5 169t174 116t224.5 43q6 31 15 40t22 15l80 25l6 -2q-14 -16 -19.5 -35.5t-17.5 -44.5q12 0 31.5 -3t37 -8t32 -11.5t16.5 -14.5q0 -2 -4.5 -12l-9.5 -21.5t-10 -20.5t-7 -9q-18 10 -54 22t-55 12q-39 -109 -62.5 -183.5t-37.5 -129.5 t-18.5 -95t-4.5 -79q4 -53 19.5 -66.5t52.5 -13.5q41 0 100.5 32t125 86t129 128t108.5 156q4 6 8 6t22 -17l21 -20q-51 -88 -116.5 -168t-137 -139.5t-147.5 -95t-148 -35.5q-68 0 -98.5 33.5t-32.5 76.5q0 14 2 46t15 65q-57 -98 -128 -154.5t-149 -56.5q-20 0 -42.5 15 t-41 40t-32 53.5t-13.5 53.5zM174 98q12 -31 31 -30q23 0 54.5 19t68.5 55t73.5 88.5t67.5 115.5q29 74 50.5 141.5t49.5 130.5l-2 5q-98 0 -176 -45.5t-130 -113t-78 -146.5q-24 -73 -23 -136q0 -48 14 -84zM356 886q-4 16 15 41l57 73l62 78q32 40 65 77t63 67q8 8 20.5 6 t16.5 -10l58 -166q29 -80 39 -131q6 -39 -2 -47q-4 -6 -23.5 -21.5t-30.5 -15.5q-6 0 -10 23q-14 61 -30.5 118.5t-39.5 116.5q-4 14 -11 17.5t-17 -8.5l-75 -102l-71 -97q-20 -33 -28 -33q-2 0 -12 1l-18 2q-9 1 -17.5 4t-10.5 7zM762 1116q0 4 2 13.5t6 11.5q80 33 127 80 t47 88q-4 47 -27.5 60t-70.5 13q-23 0 -40.5 -3t-27.5 -3q-6 0 -8 9.5t-2 19.5t3 20.5t9 12.5q25 6 45.5 10t53.5 4q66 0 109.5 -29.5t45.5 -76.5q2 -49 -29.5 -95.5t-74.5 -81t-88 -55t-72 -20.5q-4 0 -6 9t-2 13z" />
<glyph unicode="&#xc2;&#x303;" horiz-adv-x="1658" d="M923 1345q-4 16 15 41l57 73l62 78q32 40 65 77t63 67q8 8 20.5 6t16.5 -10l58 -166q29 -80 39 -131q6 -39 -2 -47q-4 -6 -23.5 -21.5t-30.5 -15.5q-6 0 -10 23q-14 61 -30.5 118.5t-39.5 116.5q-4 14 -11 17.5t-17 -8.5l-75 -102l-71 -97q-20 -33 -28 -33q-2 0 -12 1 l-18 2q-9 1 -17.5 4t-10.5 7zM908 1794q4 20 19 51t38.5 61t57.5 51.5t75 21.5q35 0 73 -25t75.5 -54.5t75.5 -54t73 -24.5t55.5 35t5.5 84q-2 6 8.5 13t22.5 9t24.5 -2t14.5 -20q4 -37 -5 -71t-27.5 -60.5t-46 -43t-62.5 -16.5q-43 0 -85 23.5t-82 51.5t-77 50.5t-68 22.5 q-23 0 -37 -12.5t-23 -31t-15 -40t-15 -37.5q-6 -10 -19 -14.5t-26.5 -2t-22.5 11.5t-7 23zM-10 -84q-12 51 11.5 91t72.5 95q418 500 671.5 775.5t331.5 336.5q18 12 35.5 13.5t44.5 -2.5q25 -4 31 -8.5t-2 -14.5q-14 -20 -15.5 -50t0.5 -65q0 -23 3.5 -91l8.5 -161 l11 -198q6 -104 12 -196.5t11.5 -162t9.5 -92.5q16 -68 42.5 -83t49.5 -15q14 0 35.5 9t38.5 14q8 4 17 -4.5t15.5 -18.5t5.5 -20.5t-12 -14.5q-8 -2 -32.5 -12t-55.5 -21l-63 -20q-33 -10 -60 -14q-43 0 -69 57q2 16 -2 64.5t-11 104.5l-11 106q-5 50 -9 67 q-8 29 -26.5 54.5t-73.5 41.5q-18 6 -82 6t-137.5 2.5t-142.5 8.5t-99 22q-166 -193 -269.5 -340t-150.5 -252q-12 -37 -14 -61.5t8 -71.5q-4 -10 -12.5 -15t-12.5 -1zM602 592q10 -25 60.5 -32t181.5 -7q88 0 143 -7t80 -14q31 -8 35 0.5t6 26.5q2 37 1 88t-4 106.5t-8 112 t-8.5 101.5t-6.5 76.5t-3 37.5q0 4 -4 14.5t-22 -5.5l-35 -34l-70 -70l-89 -94l-96 -106l-90 -103q-42 -50 -71 -91z" />
<glyph unicode="&#xe2;&#x303;" horiz-adv-x="876" d="M47 152v20q0 95 34 182q38 96 110.5 169t174 116t224.5 43q6 31 15 40t22 15l80 25l6 -2q-14 -16 -19.5 -35.5t-17.5 -44.5q12 0 31.5 -3t37 -8t32 -11.5t16.5 -14.5q0 -2 -4.5 -12l-9.5 -21.5t-10 -20.5t-7 -9q-18 10 -54 22t-55 12q-39 -109 -62.5 -183.5t-37.5 -129.5 t-18.5 -95t-4.5 -79q4 -53 19.5 -66.5t52.5 -13.5q41 0 100.5 32t125 86t129 128t108.5 156q4 6 8 6t22 -17l21 -20q-51 -88 -116.5 -168t-137 -139.5t-147.5 -95t-148 -35.5q-68 0 -98.5 33.5t-32.5 76.5q0 14 2 46t15 65q-57 -98 -128 -154.5t-149 -56.5q-20 0 -42.5 15 t-41 40t-32 53.5t-13.5 53.5zM174 98q12 -31 31 -30q23 0 54.5 19t68.5 55t73.5 88.5t67.5 115.5q29 74 50.5 141.5t49.5 130.5l-2 5q-98 0 -176 -45.5t-130 -113t-78 -146.5q-24 -73 -23 -136q0 -48 14 -84zM311 886q-4 16 15 41l57 73l62 78q32 40 65 77t63 67q8 8 20.5 6 t16.5 -10l58 -166q29 -80 39 -131q6 -39 -2 -47q-4 -6 -23.5 -21.5t-30.5 -15.5q-6 0 -10 23q-14 61 -30.5 118.5t-39.5 116.5q-4 14 -11 17.5t-17 -8.5l-75 -102l-71 -97q-20 -33 -28 -33q-2 0 -12 1l-18 2q-9 1 -17.5 4t-10.5 7zM312 1362q4 20 19 51t38.5 61t57.5 51.5 t75 21.5q35 0 73 -25t75.5 -54.5t75.5 -54t73 -24.5t55.5 35t5.5 84q-2 6 8.5 13t22.5 9t24.5 -2t14.5 -20q4 -37 -5 -71t-27.5 -60.5t-46 -43t-62.5 -16.5q-43 0 -85 23.5t-82 51.5t-77 50.5t-68 22.5q-23 0 -37 -12.5t-23 -31t-15 -40t-15 -37.5q-6 -10 -19 -14.5 t-26.5 -2t-22.5 11.5t-7 23z" />
<glyph unicode="&#xc2;&#x323;" horiz-adv-x="1658" d="M368 -236q-2 29 15.5 53.5t54.5 24.5q25 0 47.5 -16t22.5 -57q2 -29 -20.5 -52.5t-51.5 -23.5q-27 0 -47.5 19t-20.5 52zM948 1335q-4 16 15 41l57 73l62 78q32 40 65 77t63 67q8 8 20.5 6t16.5 -10l58 -166q29 -80 39 -131q6 -39 -2 -47q-4 -6 -23.5 -21.5t-30.5 -15.5 q-6 0 -10 23q-14 61 -30.5 118.5t-39.5 116.5q-4 14 -11 17.5t-17 -8.5l-75 -102l-71 -97q-20 -33 -28 -33q-2 0 -12 1l-18 2q-9 1 -17.5 4t-10.5 7zM-10 -84q-12 51 11.5 91t72.5 95q418 500 671.5 775.5t331.5 336.5q18 12 35.5 13.5t44.5 -2.5q25 -4 31 -8.5t-2 -14.5 q-14 -20 -15.5 -50t0.5 -65q0 -23 3.5 -91l8.5 -161l11 -198q6 -104 12 -196.5t11.5 -162t9.5 -92.5q16 -68 42.5 -83t49.5 -15q14 0 35.5 9t38.5 14q8 4 17 -4.5t15.5 -18.5t5.5 -20.5t-12 -14.5q-8 -2 -32.5 -12t-55.5 -21l-63 -20q-33 -10 -60 -14q-43 0 -69 57 q2 16 -2 64.5t-11 104.5l-11 106q-5 50 -9 67q-8 29 -26.5 54.5t-73.5 41.5q-18 6 -82 6t-137.5 2.5t-142.5 8.5t-99 22q-166 -193 -269.5 -340t-150.5 -252q-12 -37 -14 -61.5t8 -71.5q-4 -10 -12.5 -15t-12.5 -1zM602 592q10 -25 60.5 -32t181.5 -7q88 0 143 -7t80 -14 q31 -8 35 0.5t6 26.5q2 37 1 88t-4 106.5t-8 112t-8.5 101.5t-6.5 76.5t-3 37.5q0 4 -4 14.5t-22 -5.5l-35 -34l-70 -70l-89 -94l-96 -106l-90 -103q-42 -50 -71 -91z" />
<glyph unicode="&#xe2;&#x323;" horiz-adv-x="876" d="M47 152v20q0 95 34 182q38 96 110.5 169t174 116t224.5 43q6 31 15 40t22 15l80 25l6 -2q-14 -16 -19.5 -35.5t-17.5 -44.5q12 0 31.5 -3t37 -8t32 -11.5t16.5 -14.5q0 -2 -4.5 -12l-9.5 -21.5t-10 -20.5t-7 -9q-18 10 -54 22t-55 12q-39 -109 -62.5 -183.5t-37.5 -129.5 t-18.5 -95t-4.5 -79q4 -53 19.5 -66.5t52.5 -13.5q41 0 100.5 32t125 86t129 128t108.5 156q4 6 8 6t22 -17l21 -20q-51 -88 -116.5 -168t-137 -139.5t-147.5 -95t-148 -35.5q-68 0 -98.5 33.5t-32.5 76.5q0 14 2 46t15 65q-57 -98 -128 -154.5t-149 -56.5q-20 0 -42.5 15 t-41 40t-32 53.5t-13.5 53.5zM174 98q12 -31 31 -30q23 0 54.5 19t68.5 55t73.5 88.5t67.5 115.5q29 74 50.5 141.5t49.5 130.5l-2 5q-98 0 -176 -45.5t-130 -113t-78 -146.5q-24 -73 -23 -136q0 -48 14 -84zM291 -236q-2 29 15.5 53.5t54.5 24.5q25 0 47.5 -16t22.5 -57 q2 -29 -20.5 -52.5t-51.5 -23.5q-27 0 -47.5 19t-20.5 52zM280 886q-4 16 15 41l57 73l62 78q32 40 65 77t63 67q8 8 20.5 6t16.5 -10l58 -166q29 -80 39 -131q6 -39 -2 -47q-4 -6 -23.5 -21.5t-30.5 -15.5q-6 0 -10 23q-14 61 -30.5 118.5t-39.5 116.5q-4 14 -11 17.5 t-17 -8.5l-75 -102l-71 -97q-20 -33 -28 -33q-2 0 -12 1l-18 2q-9 1 -17.5 4t-10.5 7z" />
<glyph unicode="&#x102;&#x301;" horiz-adv-x="1658" d="M981 1468q-4 12 3 21.5t18.5 15.5t24.5 9.5t21 3.5q12 0 15 -19q14 -57 38.5 -91t86.5 -34q59 0 93 24.5t42 67.5q2 14 2 23.5t6 9.5q12 0 36.5 -4t24.5 -14q4 -16 -4 -37q-23 -72 -76 -111t-139 -39q-72 0 -124 50t-68 124zM1183 1506q-2 7 0 9l176 178l166 179 q4 6 10 6h7q4 0 13 -6l21 -14q11 -7 21 -15t12 -12q4 -14 -2 -21q-45 -41 -90 -77l-93 -72l-99 -79q-51 -42 -107 -93q-6 -6 -13 -4t-13.5 8t-8.5 13zM-10 -84q-12 51 11.5 91t72.5 95q418 500 671.5 775.5t331.5 336.5q18 12 35.5 13.5t44.5 -2.5q25 -4 31 -8.5t-2 -14.5 q-14 -20 -15.5 -50t0.5 -65q0 -23 3.5 -91l8.5 -161l11 -198q6 -104 12 -196.5t11.5 -162t9.5 -92.5q16 -68 42.5 -83t49.5 -15q14 0 35.5 9t38.5 14q8 4 17 -4.5t15.5 -18.5t5.5 -20.5t-12 -14.5q-8 -2 -32.5 -12t-55.5 -21l-63 -20q-33 -10 -60 -14q-43 0 -69 57 q2 16 -2 64.5t-11 104.5l-11 106q-5 50 -9 67q-8 29 -26.5 54.5t-73.5 41.5q-18 6 -82 6t-137.5 2.5t-142.5 8.5t-99 22q-166 -193 -269.5 -340t-150.5 -252q-12 -37 -14 -61.5t8 -71.5q-4 -10 -12.5 -15t-12.5 -1zM602 592q10 -25 60.5 -32t181.5 -7q88 0 143 -7t80 -14 q31 -8 35 0.5t6 26.5q2 37 1 88t-4 106.5t-8 112t-8.5 101.5t-6.5 76.5t-3 37.5q0 4 -4 14.5t-22 -5.5l-35 -34l-70 -70l-89 -94l-96 -106l-90 -103q-42 -50 -71 -91z" />
<glyph unicode="&#x103;&#x301;" horiz-adv-x="876" d="M47 152v20q0 95 34 182q38 96 110.5 169t174 116t224.5 43q6 31 15 40t22 15l80 25l6 -2q-14 -16 -19.5 -35.5t-17.5 -44.5q12 0 31.5 -3t37 -8t32 -11.5t16.5 -14.5q0 -2 -4.5 -12l-9.5 -21.5t-10 -20.5t-7 -9q-18 10 -54 22t-55 12q-39 -109 -62.5 -183.5t-37.5 -129.5 t-18.5 -95t-4.5 -79q4 -53 19.5 -66.5t52.5 -13.5q41 0 100.5 32t125 86t129 128t108.5 156q4 6 8 6t22 -17l21 -20q-51 -88 -116.5 -168t-137 -139.5t-147.5 -95t-148 -35.5q-68 0 -98.5 33.5t-32.5 76.5q0 14 2 46t15 65q-57 -98 -128 -154.5t-149 -56.5q-20 0 -42.5 15 t-41 40t-32 53.5t-13.5 53.5zM174 98q12 -31 31 -30q23 0 54.5 19t68.5 55t73.5 88.5t67.5 115.5q29 74 50.5 141.5t49.5 130.5l-2 5q-98 0 -176 -45.5t-130 -113t-78 -146.5q-24 -73 -23 -136q0 -48 14 -84zM332 1067q-4 12 3 21.5t18.5 15.5t24.5 9.5t21 3.5q12 0 15 -19 q14 -57 38.5 -91t86.5 -34q59 0 93 24.5t42 67.5q2 14 2 23.5t6 9.5q12 0 36.5 -4t24.5 -14q4 -16 -4 -37q-23 -72 -76 -111t-139 -39q-72 0 -124 50t-68 124zM532 1150q-2 7 0 9l176 178l166 179q4 6 10 6h7q4 0 13 -6l21 -14q11 -7 21 -15t12 -12q4 -14 -2 -21 q-45 -41 -90 -77l-93 -72l-99 -79q-51 -42 -107 -93q-6 -6 -13 -4t-13.5 8t-8.5 13z" />
<glyph unicode="&#x102;&#x300;" horiz-adv-x="1658" d="M981 1456q-4 12 3 21.5t18.5 15.5t24.5 9.5t21 3.5q12 0 15 -19q14 -57 38.5 -91t86.5 -34q59 0 93 24.5t42 67.5q2 14 2 23.5t6 9.5q12 0 36.5 -4t24.5 -14q4 -16 -4 -37q-23 -72 -76 -111t-139 -39q-72 0 -124 50t-68 124zM969 1802q0 6 6 18.5t14.5 23.5t16.5 20t10 9 h11q7 0 12 -6l38 -70l43 -78q24 -42 55.5 -91t76.5 -111q0 -12 -17.5 -20.5t-21.5 0.5l-130 153q-67 76 -114 152zM-10 -84q-12 51 11.5 91t72.5 95q418 500 671.5 775.5t331.5 336.5q18 12 35.5 13.5t44.5 -2.5q25 -4 31 -8.5t-2 -14.5q-14 -20 -15.5 -50t0.5 -65 q0 -23 3.5 -91l8.5 -161l11 -198q6 -104 12 -196.5t11.5 -162t9.5 -92.5q16 -68 42.5 -83t49.5 -15q14 0 35.5 9t38.5 14q8 4 17 -4.5t15.5 -18.5t5.5 -20.5t-12 -14.5q-8 -2 -32.5 -12t-55.5 -21l-63 -20q-33 -10 -60 -14q-43 0 -69 57q2 16 -2 64.5t-11 104.5l-11 106 q-5 50 -9 67q-8 29 -26.5 54.5t-73.5 41.5q-18 6 -82 6t-137.5 2.5t-142.5 8.5t-99 22q-166 -193 -269.5 -340t-150.5 -252q-12 -37 -14 -61.5t8 -71.5q-4 -10 -12.5 -15t-12.5 -1zM602 592q10 -25 60.5 -32t181.5 -7q88 0 143 -7t80 -14q31 -8 35 0.5t6 26.5q2 37 1 88 t-4 106.5t-8 112t-8.5 101.5t-6.5 76.5t-3 37.5q0 4 -4 14.5t-22 -5.5l-35 -34l-70 -70l-89 -94l-96 -106l-90 -103q-42 -50 -71 -91z" />
<glyph unicode="&#x103;&#x300;" horiz-adv-x="876" d="M47 152v20q0 95 34 182q38 96 110.5 169t174 116t224.5 43q6 31 15 40t22 15l80 25l6 -2q-14 -16 -19.5 -35.5t-17.5 -44.5q12 0 31.5 -3t37 -8t32 -11.5t16.5 -14.5q0 -2 -4.5 -12l-9.5 -21.5t-10 -20.5t-7 -9q-18 10 -54 22t-55 12q-39 -109 -62.5 -183.5t-37.5 -129.5 t-18.5 -95t-4.5 -79q4 -53 19.5 -66.5t52.5 -13.5q41 0 100.5 32t125 86t129 128t108.5 156q4 6 8 6t22 -17l21 -20q-51 -88 -116.5 -168t-137 -139.5t-147.5 -95t-148 -35.5q-68 0 -98.5 33.5t-32.5 76.5q0 14 2 46t15 65q-57 -98 -128 -154.5t-149 -56.5q-20 0 -42.5 15 t-41 40t-32 53.5t-13.5 53.5zM174 98q12 -31 31 -30q23 0 54.5 19t68.5 55t73.5 88.5t67.5 115.5q29 74 50.5 141.5t49.5 130.5l-2 5q-98 0 -176 -45.5t-130 -113t-78 -146.5q-24 -73 -23 -136q0 -48 14 -84zM314 1044q-4 12 3 21.5t18.5 15.5t24.5 9.5t21 3.5q12 0 15 -19 q14 -57 38.5 -91t86.5 -34q59 0 93 24.5t42 67.5q2 14 2 23.5t6 9.5q12 0 36.5 -4t24.5 -14q4 -16 -4 -37q-23 -72 -76 -111t-139 -39q-72 0 -124 50t-68 124zM326 1387q0 6 6 18.5t14.5 23.5t16.5 20t10 9h11q7 0 12 -6l38 -70l43 -78q24 -42 55.5 -91t76.5 -111 q0 -12 -17.5 -20.5t-21.5 0.5l-130 153q-67 76 -114 152z" />
<glyph unicode="&#x102;&#x309;" horiz-adv-x="1658" d="M952 1468q-4 12 3 21.5t18.5 15.5t24.5 9.5t21 3.5q12 0 15 -19q14 -57 38.5 -91t86.5 -34q59 0 93 24.5t42 67.5q2 14 2 23.5t6 9.5q12 0 36.5 -4t24.5 -14q4 -16 -4 -37q-23 -72 -76 -111t-139 -39q-72 0 -124 50t-68 124zM1133 1521q0 4 2 13.5t6 11.5q80 33 127 80 t47 88q-4 47 -27.5 60t-70.5 13q-23 0 -40.5 -3t-27.5 -3q-6 0 -8 9.5t-2 19.5t3 20.5t9 12.5q25 6 45.5 10t53.5 4q66 0 109.5 -29.5t45.5 -76.5q2 -49 -29.5 -95.5t-74.5 -81t-88 -55t-72 -20.5q-4 0 -6 9t-2 13zM-10 -84q-12 51 11.5 91t72.5 95q418 500 671.5 775.5 t331.5 336.5q18 12 35.5 13.5t44.5 -2.5q25 -4 31 -8.5t-2 -14.5q-14 -20 -15.5 -50t0.5 -65q0 -23 3.5 -91l8.5 -161l11 -198q6 -104 12 -196.5t11.5 -162t9.5 -92.5q16 -68 42.5 -83t49.5 -15q14 0 35.5 9t38.5 14q8 4 17 -4.5t15.5 -18.5t5.5 -20.5t-12 -14.5 q-8 -2 -32.5 -12t-55.5 -21l-63 -20q-33 -10 -60 -14q-43 0 -69 57q2 16 -2 64.5t-11 104.5l-11 106q-5 50 -9 67q-8 29 -26.5 54.5t-73.5 41.5q-18 6 -82 6t-137.5 2.5t-142.5 8.5t-99 22q-166 -193 -269.5 -340t-150.5 -252q-12 -37 -14 -61.5t8 -71.5q-4 -10 -12.5 -15 t-12.5 -1zM602 592q10 -25 60.5 -32t181.5 -7q88 0 143 -7t80 -14q31 -8 35 0.5t6 26.5q2 37 1 88t-4 106.5t-8 112t-8.5 101.5t-6.5 76.5t-3 37.5q0 4 -4 14.5t-22 -5.5l-35 -34l-70 -70l-89 -94l-96 -106l-90 -103q-42 -50 -71 -91z" />
<glyph unicode="&#x103;&#x309;" horiz-adv-x="876" d="M47 152v20q0 95 34 182q38 96 110.5 169t174 116t224.5 43q6 31 15 40t22 15l80 25l6 -2q-14 -16 -19.5 -35.5t-17.5 -44.5q12 0 31.5 -3t37 -8t32 -11.5t16.5 -14.5q0 -2 -4.5 -12l-9.5 -21.5t-10 -20.5t-7 -9q-18 10 -54 22t-55 12q-39 -109 -62.5 -183.5t-37.5 -129.5 t-18.5 -95t-4.5 -79q4 -53 19.5 -66.5t52.5 -13.5q41 0 100.5 32t125 86t129 128t108.5 156q4 6 8 6t22 -17l21 -20q-51 -88 -116.5 -168t-137 -139.5t-147.5 -95t-148 -35.5q-68 0 -98.5 33.5t-32.5 76.5q0 14 2 46t15 65q-57 -98 -128 -154.5t-149 -56.5q-20 0 -42.5 15 t-41 40t-32 53.5t-13.5 53.5zM174 98q12 -31 31 -30q23 0 54.5 19t68.5 55t73.5 88.5t67.5 115.5q29 74 50.5 141.5t49.5 130.5l-2 5q-98 0 -176 -45.5t-130 -113t-78 -146.5q-24 -73 -23 -136q0 -48 14 -84zM320 1069q-4 12 3 21.5t18.5 15.5t24.5 9.5t21 3.5q12 0 15 -19 q14 -57 38.5 -91t86.5 -34q59 0 93 24.5t42 67.5q2 14 2 23.5t6 9.5q12 0 36.5 -4t24.5 -14q4 -16 -4 -37q-23 -72 -76 -111t-139 -39q-72 0 -124 50t-68 124zM502 1171q0 4 2 13.5t6 11.5q80 33 127 80t47 88q-4 47 -27.5 60t-70.5 13q-23 0 -40.5 -3t-27.5 -3q-6 0 -8 9.5 t-2 19.5t3 20.5t9 12.5q25 6 45.5 10t53.5 4q66 0 109.5 -29.5t45.5 -76.5q2 -49 -29.5 -95.5t-74.5 -81t-88 -55t-72 -20.5q-4 0 -6 9t-2 13z" />
<glyph unicode="&#x102;&#x303;" horiz-adv-x="1658" d="M983 1464q-4 12 3 21.5t18.5 15.5t24.5 9.5t21 3.5q12 0 15 -19q14 -57 38.5 -91t86.5 -34q59 0 93 24.5t42 67.5q2 14 2 23.5t6 9.5q12 0 36.5 -4t24.5 -14q4 -16 -4 -37q-23 -72 -76 -111t-139 -39q-72 0 -124 50t-68 124zM920 1636q4 20 19 51t38.5 61t57.5 51.5 t75 21.5q35 0 73 -25t75.5 -54.5t75.5 -54t73 -24.5t55.5 35t5.5 84q-2 6 8.5 13t22.5 9t24.5 -2t14.5 -20q4 -37 -5 -71t-27.5 -60.5t-46 -43t-62.5 -16.5q-43 0 -85 23.5t-82 51.5t-77 50.5t-68 22.5q-23 0 -37 -12.5t-23 -31t-15 -40t-15 -37.5q-6 -10 -19 -14.5 t-26.5 -2t-22.5 11.5t-7 23zM-10 -84q-12 51 11.5 91t72.5 95q418 500 671.5 775.5t331.5 336.5q18 12 35.5 13.5t44.5 -2.5q25 -4 31 -8.5t-2 -14.5q-14 -20 -15.5 -50t0.5 -65q0 -23 3.5 -91l8.5 -161l11 -198q6 -104 12 -196.5t11.5 -162t9.5 -92.5q16 -68 42.5 -83 t49.5 -15q14 0 35.5 9t38.5 14q8 4 17 -4.5t15.5 -18.5t5.5 -20.5t-12 -14.5q-8 -2 -32.5 -12t-55.5 -21l-63 -20q-33 -10 -60 -14q-43 0 -69 57q2 16 -2 64.5t-11 104.5l-11 106q-5 50 -9 67q-8 29 -26.5 54.5t-73.5 41.5q-18 6 -82 6t-137.5 2.5t-142.5 8.5t-99 22 q-166 -193 -269.5 -340t-150.5 -252q-12 -37 -14 -61.5t8 -71.5q-4 -10 -12.5 -15t-12.5 -1zM602 592q10 -25 60.5 -32t181.5 -7q88 0 143 -7t80 -14q31 -8 35 0.5t6 26.5q2 37 1 88t-4 106.5t-8 112t-8.5 101.5t-6.5 76.5t-3 37.5q0 4 -4 14.5t-22 -5.5l-35 -34l-70 -70 l-89 -94l-96 -106l-90 -103q-42 -50 -71 -91z" />
<glyph unicode="&#x103;&#x303;" horiz-adv-x="876" d="M47 152v20q0 95 34 182q38 96 110.5 169t174 116t224.5 43q6 31 15 40t22 15l80 25l6 -2q-14 -16 -19.5 -35.5t-17.5 -44.5q12 0 31.5 -3t37 -8t32 -11.5t16.5 -14.5q0 -2 -4.5 -12l-9.5 -21.5t-10 -20.5t-7 -9q-18 10 -54 22t-55 12q-39 -109 -62.5 -183.5t-37.5 -129.5 t-18.5 -95t-4.5 -79q4 -53 19.5 -66.5t52.5 -13.5q41 0 100.5 32t125 86t129 128t108.5 156q4 6 8 6t22 -17l21 -20q-51 -88 -116.5 -168t-137 -139.5t-147.5 -95t-148 -35.5q-68 0 -98.5 33.5t-32.5 76.5q0 14 2 46t15 65q-57 -98 -128 -154.5t-149 -56.5q-20 0 -42.5 15 t-41 40t-32 53.5t-13.5 53.5zM174 98q12 -31 31 -30q23 0 54.5 19t68.5 55t73.5 88.5t67.5 115.5q29 74 50.5 141.5t49.5 130.5l-2 5q-98 0 -176 -45.5t-130 -113t-78 -146.5q-24 -73 -23 -136q0 -48 14 -84zM326 1069q-4 12 3 21.5t18.5 15.5t24.5 9.5t21 3.5q12 0 15 -19 q14 -57 38.5 -91t86.5 -34q59 0 93 24.5t42 67.5q2 14 2 23.5t6 9.5q12 0 36.5 -4t24.5 -14q4 -16 -4 -37q-23 -72 -76 -111t-139 -39q-72 0 -124 50t-68 124zM226 1194q4 20 19 51t38.5 61t57.5 51.5t75 21.5q35 0 73 -25t75.5 -54.5t75.5 -54t73 -24.5t55.5 35t5.5 84 q-2 6 8.5 13t22.5 9t24.5 -2t14.5 -20q4 -37 -5 -71t-27.5 -60.5t-46 -43t-62.5 -16.5q-43 0 -85 23.5t-82 51.5t-77 50.5t-68 22.5q-23 0 -37 -12.5t-23 -31t-15 -40t-15 -37.5q-6 -10 -19 -14.5t-26.5 -2t-22.5 11.5t-7 23z" />
<glyph unicode="&#x102;&#x323;" horiz-adv-x="1658" d="M528 -236q-2 29 15.5 53.5t54.5 24.5q25 0 47.5 -16t22.5 -57q2 -29 -20.5 -52.5t-51.5 -23.5q-27 0 -47.5 19t-20.5 52zM967 1466q-4 12 3 21.5t18.5 15.5t24.5 9.5t21 3.5q12 0 15 -19q14 -57 38.5 -91t86.5 -34q59 0 93 24.5t42 67.5q2 14 2 23.5t6 9.5q12 0 36.5 -4 t24.5 -14q4 -16 -4 -37q-23 -72 -76 -111t-139 -39q-72 0 -124 50t-68 124zM-10 -84q-12 51 11.5 91t72.5 95q418 500 671.5 775.5t331.5 336.5q18 12 35.5 13.5t44.5 -2.5q25 -4 31 -8.5t-2 -14.5q-14 -20 -15.5 -50t0.5 -65q0 -23 3.5 -91l8.5 -161l11 -198 q6 -104 12 -196.5t11.5 -162t9.5 -92.5q16 -68 42.5 -83t49.5 -15q14 0 35.5 9t38.5 14q8 4 17 -4.5t15.5 -18.5t5.5 -20.5t-12 -14.5q-8 -2 -32.5 -12t-55.5 -21l-63 -20q-33 -10 -60 -14q-43 0 -69 57q2 16 -2 64.5t-11 104.5l-11 106q-5 50 -9 67q-8 29 -26.5 54.5 t-73.5 41.5q-18 6 -82 6t-137.5 2.5t-142.5 8.5t-99 22q-166 -193 -269.5 -340t-150.5 -252q-12 -37 -14 -61.5t8 -71.5q-4 -10 -12.5 -15t-12.5 -1zM602 592q10 -25 60.5 -32t181.5 -7q88 0 143 -7t80 -14q31 -8 35 0.5t6 26.5q2 37 1 88t-4 106.5t-8 112t-8.5 101.5 t-6.5 76.5t-3 37.5q0 4 -4 14.5t-22 -5.5l-35 -34l-70 -70l-89 -94l-96 -106l-90 -103q-42 -50 -71 -91z" />
<glyph unicode="&#x103;&#x323;" horiz-adv-x="876" d="M47 152v20q0 95 34 182q38 96 110.5 169t174 116t224.5 43q6 31 15 40t22 15l80 25l6 -2q-14 -16 -19.5 -35.5t-17.5 -44.5q12 0 31.5 -3t37 -8t32 -11.5t16.5 -14.5q0 -2 -4.5 -12l-9.5 -21.5t-10 -20.5t-7 -9q-18 10 -54 22t-55 12q-39 -109 -62.5 -183.5t-37.5 -129.5 t-18.5 -95t-4.5 -79q4 -53 19.5 -66.5t52.5 -13.5q41 0 100.5 32t125 86t129 128t108.5 156q4 6 8 6t22 -17l21 -20q-51 -88 -116.5 -168t-137 -139.5t-147.5 -95t-148 -35.5q-68 0 -98.5 33.5t-32.5 76.5q0 14 2 46t15 65q-57 -98 -128 -154.5t-149 -56.5q-20 0 -42.5 15 t-41 40t-32 53.5t-13.5 53.5zM174 98q12 -31 31 -30q23 0 54.5 19t68.5 55t73.5 88.5t67.5 115.5q29 74 50.5 141.5t49.5 130.5l-2 5q-98 0 -176 -45.5t-130 -113t-78 -146.5q-24 -73 -23 -136q0 -48 14 -84zM291 -236q-2 29 15.5 53.5t54.5 24.5q25 0 47.5 -16t22.5 -57 q2 -29 -20.5 -52.5t-51.5 -23.5q-27 0 -47.5 19t-20.5 52zM393 1046q-4 12 3 21.5t18.5 15.5t24.5 9.5t21 3.5q12 0 15 -19q14 -57 38.5 -91t86.5 -34q59 0 93 24.5t42 67.5q2 14 2 23.5t6 9.5q12 0 36.5 -4t24.5 -14q4 -16 -4 -37q-23 -72 -76 -111t-139 -39q-72 0 -124 50 t-68 124z" />
<glyph unicode="E&#x323;" horiz-adv-x="1259" d="M204 1139q1 16 5 33.5t9 31t9 17.5q86 -6 181.5 -9.5t181.5 -3.5q29 0 101.5 3t160.5 7l179 6q91 3 155 3q14 0 18 -17l-8 -24l-13 -40l-14 -44l-10 -37l-10 2q-14 39 -33 47q-92 12 -197.5 18.5t-205.5 6.5q-23 0 -35 -6.5t-21 -22.5q-29 -49 -49 -96t-37.5 -96.5 t-34 -102.5l-36.5 -113q-6 -25 22 -24q59 -4 136 -5h31q62 0 125 3q79 4 151.5 12t121.5 23l11 -9q-2 -6 -7.5 -18t-9.5 -26.5t-7 -28t-3 -19.5q-2 -10 -22 -10q-41 0 -123 1t-169 1h-163q-76 0 -107 -2q-20 0 -26 -16q-41 -104 -79 -215q-34 -100 -34 -200v-22 q2 -63 50 -77.5t134 -14.5q76 0 182.5 9.5t214 30t202 54t149.5 82.5q8 8 14 -10q-8 -8 -14 -24.5t-11 -35t-8.5 -34.5l-5.5 -25q-16 -35 -69 -49q-66 -16 -142.5 -29.5t-156.5 -23.5t-160 -16.5t-149 -6.5q-111 0 -179.5 10.5t-106.5 28t-51.5 42t-13.5 57.5q0 29 17 91 q18 69 43 145l49 148l35 101q2 6 -7.5 9t-41.5 3q-16 0 -17 11q0 10 11.5 31.5t27.5 25.5q20 4 32.5 5t21 7t14.5 18.5t14 37.5l25 75l37 121q19 63 33 117q10 41 10 57q0 18 -19 19q-84 0 -166 -6.5t-135 -22.5l-6 2q-1 8 -2 18q1 6 1 11zM510 -236q-2 29 15.5 53.5 t54.5 24.5q25 0 47.5 -16t22.5 -57q2 -29 -20.5 -52.5t-51.5 -23.5q-27 0 -47.5 19t-20.5 52z" />
<glyph unicode="e&#x323;" horiz-adv-x="630" d="M108 176v14q0 78 22 158q24 88 67.5 161t109 120t145.5 47q47 0 76 -25q33 -28 33 -90q0 -83 -78 -140q-82 -60 -254 -61q-4 -23 -13 -67q-8 -37 -8 -78q0 -9 1 -18q4 -76 33.5 -105t101.5 -29q70 0 137.5 33t126.5 82t106.5 107.5t73.5 109.5q6 6 26.5 -7t22.5 -21 q-37 -66 -92 -134.5t-125.5 -126t-152.5 -93.5t-170 -36q-72 0 -128.5 53.5t-60.5 145.5zM239 418q8 -2 23.5 -4t25.5 -2q31 0 66 10t62.5 29.5t45 46t17.5 57.5q0 20 -10.5 34.5t-40.5 14.5q-61 0 -113.5 -52t-75.5 -134zM268 -236q-2 29 15.5 53.5t54.5 24.5 q25 0 47.5 -16t22.5 -57q2 -29 -20.5 -52.5t-51.5 -23.5q-27 0 -47.5 19t-20.5 52z" />
<glyph unicode="E&#x309;" horiz-adv-x="1259" d="M204 1139q1 16 5 33.5t9 31t9 17.5q86 -6 181.5 -9.5t181.5 -3.5q29 0 101.5 3t160.5 7l179 6q91 3 155 3q14 0 18 -17l-8 -24l-13 -40l-14 -44l-10 -37l-10 2q-14 39 -33 47q-92 12 -197.5 18.5t-205.5 6.5q-23 0 -35 -6.5t-21 -22.5q-29 -49 -49 -96t-37.5 -96.5 t-34 -102.5l-36.5 -113q-6 -25 22 -24q59 -4 136 -5h31q62 0 125 3q79 4 151.5 12t121.5 23l11 -9q-2 -6 -7.5 -18t-9.5 -26.5t-7 -28t-3 -19.5q-2 -10 -22 -10q-41 0 -123 1t-169 1h-163q-76 0 -107 -2q-20 0 -26 -16q-41 -104 -79 -215q-34 -100 -34 -200v-22 q2 -63 50 -77.5t134 -14.5q76 0 182.5 9.5t214 30t202 54t149.5 82.5q8 8 14 -10q-8 -8 -14 -24.5t-11 -35t-8.5 -34.5l-5.5 -25q-16 -35 -69 -49q-66 -16 -142.5 -29.5t-156.5 -23.5t-160 -16.5t-149 -6.5q-111 0 -179.5 10.5t-106.5 28t-51.5 42t-13.5 57.5q0 29 17 91 q18 69 43 145l49 148l35 101q2 6 -7.5 9t-41.5 3q-16 0 -17 11q0 10 11.5 31.5t27.5 25.5q20 4 32.5 5t21 7t14.5 18.5t14 37.5l25 75l37 121q19 63 33 117q10 41 10 57q0 18 -19 19q-84 0 -166 -6.5t-135 -22.5l-6 2q-1 8 -2 18q1 6 1 11zM805 1341q0 4 2 13.5t6 11.5 q80 33 127 80t47 88q-4 47 -27.5 60t-70.5 13q-23 0 -40.5 -3t-27.5 -3q-6 0 -8 9.5t-2 19.5t3 20.5t9 12.5q25 6 45.5 10t53.5 4q66 0 109.5 -29.5t45.5 -76.5q2 -49 -29.5 -95.5t-74.5 -81t-88 -55t-72 -20.5q-4 0 -6 9t-2 13z" />
<glyph unicode="e&#x309;" horiz-adv-x="630" d="M108 176v14q0 78 22 158q24 88 67.5 161t109 120t145.5 47q47 0 76 -25q33 -28 33 -90q0 -83 -78 -140q-82 -60 -254 -61q-4 -23 -13 -67q-8 -37 -8 -78q0 -9 1 -18q4 -76 33.5 -105t101.5 -29q70 0 137.5 33t126.5 82t106.5 107.5t73.5 109.5q6 6 26.5 -7t22.5 -21 q-37 -66 -92 -134.5t-125.5 -126t-152.5 -93.5t-170 -36q-72 0 -128.5 53.5t-60.5 145.5zM239 418q8 -2 23.5 -4t25.5 -2q31 0 66 10t62.5 29.5t45 46t17.5 57.5q0 20 -10.5 34.5t-40.5 14.5q-61 0 -113.5 -52t-75.5 -134zM399 862q0 4 2 13.5t6 11.5q80 33 127 80t47 88 q-4 47 -27.5 60t-70.5 13q-23 0 -40.5 -3t-27.5 -3q-6 0 -8 9.5t-2 19.5t3 20.5t9 12.5q25 6 45.5 10t53.5 4q66 0 109.5 -29.5t45.5 -76.5q2 -49 -29.5 -95.5t-74.5 -81t-88 -55t-72 -20.5q-4 0 -6 9t-2 13z" />
<glyph unicode="E&#x303;" horiz-adv-x="1259" d="M204 1139q1 16 5 33.5t9 31t9 17.5q86 -6 181.5 -9.5t181.5 -3.5q29 0 101.5 3t160.5 7l179 6q91 3 155 3q14 0 18 -17l-8 -24l-13 -40l-14 -44l-10 -37l-10 2q-14 39 -33 47q-92 12 -197.5 18.5t-205.5 6.5q-23 0 -35 -6.5t-21 -22.5q-29 -49 -49 -96t-37.5 -96.5 t-34 -102.5l-36.5 -113q-6 -25 22 -24q59 -4 136 -5h31q62 0 125 3q79 4 151.5 12t121.5 23l11 -9q-2 -6 -7.5 -18t-9.5 -26.5t-7 -28t-3 -19.5q-2 -10 -22 -10q-41 0 -123 1t-169 1h-163q-76 0 -107 -2q-20 0 -26 -16q-41 -104 -79 -215q-34 -100 -34 -200v-22 q2 -63 50 -77.5t134 -14.5q76 0 182.5 9.5t214 30t202 54t149.5 82.5q8 8 14 -10q-8 -8 -14 -24.5t-11 -35t-8.5 -34.5l-5.5 -25q-16 -35 -69 -49q-66 -16 -142.5 -29.5t-156.5 -23.5t-160 -16.5t-149 -6.5q-111 0 -179.5 10.5t-106.5 28t-51.5 42t-13.5 57.5q0 29 17 91 q18 69 43 145l49 148l35 101q2 6 -7.5 9t-41.5 3q-16 0 -17 11q0 10 11.5 31.5t27.5 25.5q20 4 32.5 5t21 7t14.5 18.5t14 37.5l25 75l37 121q19 63 33 117q10 41 10 57q0 18 -19 19q-84 0 -166 -6.5t-135 -22.5l-6 2q-1 8 -2 18q1 6 1 11zM547 1398q4 20 19 51t38.5 61 t57.5 51.5t75 21.5q35 0 73 -25t75.5 -54.5t75.5 -54t73 -24.5t55.5 35t5.5 84q-2 6 8.5 13t22.5 9t24.5 -2t14.5 -20q4 -37 -5 -71t-27.5 -60.5t-46 -43t-62.5 -16.5q-43 0 -85 23.5t-82 51.5t-77 50.5t-68 22.5q-23 0 -37 -12.5t-23 -31t-15 -40t-15 -37.5 q-6 -10 -19 -14.5t-26.5 -2t-22.5 11.5t-7 23z" />
<glyph unicode="e&#x303;" horiz-adv-x="630" d="M108 176v14q0 78 22 158q24 88 67.5 161t109 120t145.5 47q47 0 76 -25q33 -28 33 -90q0 -83 -78 -140q-82 -60 -254 -61q-4 -23 -13 -67q-8 -37 -8 -78q0 -9 1 -18q4 -76 33.5 -105t101.5 -29q70 0 137.5 33t126.5 82t106.5 107.5t73.5 109.5q6 6 26.5 -7t22.5 -21 q-37 -66 -92 -134.5t-125.5 -126t-152.5 -93.5t-170 -36q-72 0 -128.5 53.5t-60.5 145.5zM239 418q8 -2 23.5 -4t25.5 -2q31 0 66 10t62.5 29.5t45 46t17.5 57.5q0 20 -10.5 34.5t-40.5 14.5q-61 0 -113.5 -52t-75.5 -134zM248 952q4 20 19 51t38.5 61t57.5 51.5t75 21.5 q35 0 73 -25t75.5 -54.5t75.5 -54t73 -24.5t55.5 35t5.5 84q-2 6 8.5 13t22.5 9t24.5 -2t14.5 -20q4 -37 -5 -71t-27.5 -60.5t-46 -43t-62.5 -16.5q-43 0 -85 23.5t-82 51.5t-77 50.5t-68 22.5q-23 0 -37 -12.5t-23 -31t-15 -40t-15 -37.5q-6 -10 -19 -14.5t-26.5 -2 t-22.5 11.5t-7 23z" />
<glyph unicode="&#xca;&#x301;" horiz-adv-x="1259" d="M204 1139q1 16 5 33.5t9 31t9 17.5q86 -6 181.5 -9.5t181.5 -3.5q29 0 101.5 3t160.5 7l179 6q91 3 155 3q14 0 18 -17l-8 -24l-13 -40l-14 -44l-10 -37l-10 2q-14 39 -33 47q-92 12 -197.5 18.5t-205.5 6.5q-23 0 -35 -6.5t-21 -22.5q-29 -49 -49 -96t-37.5 -96.5 t-34 -102.5l-36.5 -113q-6 -25 22 -24q59 -4 136 -5h31q62 0 125 3q79 4 151.5 12t121.5 23l11 -9q-2 -6 -7.5 -18t-9.5 -26.5t-7 -28t-3 -19.5q-2 -10 -22 -10q-41 0 -123 1t-169 1h-163q-76 0 -107 -2q-20 0 -26 -16q-41 -104 -79 -215q-34 -100 -34 -200v-22 q2 -63 50 -77.5t134 -14.5q76 0 182.5 9.5t214 30t202 54t149.5 82.5q8 8 14 -10q-8 -8 -14 -24.5t-11 -35t-8.5 -34.5l-5.5 -25q-16 -35 -69 -49q-66 -16 -142.5 -29.5t-156.5 -23.5t-160 -16.5t-149 -6.5q-111 0 -179.5 10.5t-106.5 28t-51.5 42t-13.5 57.5q0 29 17 91 q18 69 43 145l49 148l35 101q2 6 -7.5 9t-41.5 3q-16 0 -17 11q0 10 11.5 31.5t27.5 25.5q20 4 32.5 5t21 7t14.5 18.5t14 37.5l25 75l37 121q19 63 33 117q10 41 10 57q0 18 -19 19q-84 0 -166 -6.5t-135 -22.5l-6 2q-1 8 -2 18q1 6 1 11zM694 1341q-4 16 15 41l57 73 l62 78q32 40 65 77t63 67q8 8 20.5 6t16.5 -10l58 -166q29 -80 39 -131q6 -39 -2 -47q-4 -6 -23.5 -21.5t-30.5 -15.5q-6 0 -10 23q-14 61 -30.5 118.5t-39.5 116.5q-4 14 -11 17.5t-17 -8.5l-75 -102l-71 -97q-20 -33 -28 -33q-2 0 -12 1l-18 2q-9 1 -17.5 4t-10.5 7z M1108 1592q-2 7 0 9l176 178l166 179q4 6 10 6h7q4 0 13 -6l21 -14q11 -7 21 -15t12 -12q4 -14 -2 -21q-45 -41 -90 -77l-93 -72l-99 -79q-51 -42 -107 -93q-6 -6 -13 -4t-13.5 8t-8.5 13z" />
<glyph unicode="&#xea;&#x301;" horiz-adv-x="630" d="M108 176v14q0 78 22 158q24 88 67.5 161t109 120t145.5 47q47 0 76 -25q33 -28 33 -90q0 -83 -78 -140q-82 -60 -254 -61q-4 -23 -13 -67q-8 -37 -8 -78q0 -9 1 -18q4 -76 33.5 -105t101.5 -29q70 0 137.5 33t126.5 82t106.5 107.5t73.5 109.5q6 6 26.5 -7t22.5 -21 q-37 -66 -92 -134.5t-125.5 -126t-152.5 -93.5t-170 -36q-72 0 -128.5 53.5t-60.5 145.5zM239 418q8 -2 23.5 -4t25.5 -2q31 0 66 10t62.5 29.5t45 46t17.5 57.5q0 20 -10.5 34.5t-40.5 14.5q-61 0 -113.5 -52t-75.5 -134zM295 872q-4 16 15 41l57 73l62 78q32 40 65 77 t63 67q8 8 20.5 6t16.5 -10l58 -166q29 -80 39 -131q6 -39 -2 -47q-4 -6 -23.5 -21.5t-30.5 -15.5q-6 0 -10 23q-14 61 -30.5 118.5t-39.5 116.5q-4 14 -11 17.5t-17 -8.5l-75 -102l-71 -97q-20 -33 -28 -33q-2 0 -12 1l-18 2q-9 1 -17.5 4t-10.5 7zM708 1115q-2 7 0 9 l176 178l166 179q4 6 10 6h7q4 0 13 -6l21 -14q11 -7 21 -15t12 -12q4 -14 -2 -21q-45 -41 -90 -77l-93 -72l-99 -79q-51 -42 -107 -93q-6 -6 -13 -4t-13.5 8t-8.5 13z" />
<glyph unicode="&#xca;&#x300;" horiz-adv-x="1259" d="M204 1139q1 16 5 33.5t9 31t9 17.5q86 -6 181.5 -9.5t181.5 -3.5q29 0 101.5 3t160.5 7l179 6q91 3 155 3q14 0 18 -17l-8 -24l-13 -40l-14 -44l-10 -37l-10 2q-14 39 -33 47q-92 12 -197.5 18.5t-205.5 6.5q-23 0 -35 -6.5t-21 -22.5q-29 -49 -49 -96t-37.5 -96.5 t-34 -102.5l-36.5 -113q-6 -25 22 -24q59 -4 136 -5h31q62 0 125 3q79 4 151.5 12t121.5 23l11 -9q-2 -6 -7.5 -18t-9.5 -26.5t-7 -28t-3 -19.5q-2 -10 -22 -10q-41 0 -123 1t-169 1h-163q-76 0 -107 -2q-20 0 -26 -16q-41 -104 -79 -215q-34 -100 -34 -200v-22 q2 -63 50 -77.5t134 -14.5q76 0 182.5 9.5t214 30t202 54t149.5 82.5q8 8 14 -10q-8 -8 -14 -24.5t-11 -35t-8.5 -34.5l-5.5 -25q-16 -35 -69 -49q-66 -16 -142.5 -29.5t-156.5 -23.5t-160 -16.5t-149 -6.5q-111 0 -179.5 10.5t-106.5 28t-51.5 42t-13.5 57.5q0 29 17 91 q18 69 43 145l49 148l35 101q2 6 -7.5 9t-41.5 3q-16 0 -17 11q0 10 11.5 31.5t27.5 25.5q20 4 32.5 5t21 7t14.5 18.5t14 37.5l25 75l37 121q19 63 33 117q10 41 10 57q0 18 -19 19q-84 0 -166 -6.5t-135 -22.5l-6 2q-1 8 -2 18q1 6 1 11zM675 1349q-4 16 15 41l57 73 l62 78q32 40 65 77t63 67q8 8 20.5 6t16.5 -10l58 -166q29 -80 39 -131q6 -39 -2 -47q-4 -6 -23.5 -21.5t-30.5 -15.5q-6 0 -10 23q-14 61 -30.5 118.5t-39.5 116.5q-4 14 -11 17.5t-17 -8.5l-75 -102l-71 -97q-20 -33 -28 -33q-2 0 -12 1l-18 2q-9 1 -17.5 4t-10.5 7z M932 1897q0 6 6 18.5t14.5 23.5t16.5 20t10 9h11q7 0 12 -6l38 -70l43 -78q24 -42 55.5 -91t76.5 -111q0 -12 -17.5 -20.5t-21.5 0.5l-130 153q-67 76 -114 152z" />
<glyph unicode="&#xea;&#x300;" horiz-adv-x="630" d="M108 176v14q0 78 22 158q24 88 67.5 161t109 120t145.5 47q47 0 76 -25q33 -28 33 -90q0 -83 -78 -140q-82 -60 -254 -61q-4 -23 -13 -67q-8 -37 -8 -78q0 -9 1 -18q4 -76 33.5 -105t101.5 -29q70 0 137.5 33t126.5 82t106.5 107.5t73.5 109.5q6 6 26.5 -7t22.5 -21 q-37 -66 -92 -134.5t-125.5 -126t-152.5 -93.5t-170 -36q-72 0 -128.5 53.5t-60.5 145.5zM239 418q8 -2 23.5 -4t25.5 -2q31 0 66 10t62.5 29.5t45 46t17.5 57.5q0 20 -10.5 34.5t-40.5 14.5q-61 0 -113.5 -52t-75.5 -134zM254 872q-4 16 15 41l57 73l62 78q32 40 65 77 t63 67q8 8 20.5 6t16.5 -10l58 -166q29 -80 39 -131q6 -39 -2 -47q-4 -6 -23.5 -21.5t-30.5 -15.5q-6 0 -10 23q-14 61 -30.5 118.5t-39.5 116.5q-4 14 -11 17.5t-17 -8.5l-75 -102l-71 -97q-20 -33 -28 -33q-2 0 -12 1l-18 2q-9 1 -17.5 4t-10.5 7zM492 1452q0 6 6 18.5 t14.5 23.5t16.5 20t10 9h11q7 0 12 -6l38 -70l43 -78q24 -42 55.5 -91t76.5 -111q0 -12 -17.5 -20.5t-21.5 0.5l-130 153q-67 76 -114 152z" />
<glyph unicode="&#xca;&#x309;" horiz-adv-x="1259" d="M204 1139q1 16 5 33.5t9 31t9 17.5q86 -6 181.5 -9.5t181.5 -3.5q29 0 101.5 3t160.5 7l179 6q91 3 155 3q14 0 18 -17l-8 -24l-13 -40l-14 -44l-10 -37l-10 2q-14 39 -33 47q-92 12 -197.5 18.5t-205.5 6.5q-23 0 -35 -6.5t-21 -22.5q-29 -49 -49 -96t-37.5 -96.5 t-34 -102.5l-36.5 -113q-6 -25 22 -24q59 -4 136 -5h31q62 0 125 3q79 4 151.5 12t121.5 23l11 -9q-2 -6 -7.5 -18t-9.5 -26.5t-7 -28t-3 -19.5q-2 -10 -22 -10q-41 0 -123 1t-169 1h-163q-76 0 -107 -2q-20 0 -26 -16q-41 -104 -79 -215q-34 -100 -34 -200v-22 q2 -63 50 -77.5t134 -14.5q76 0 182.5 9.5t214 30t202 54t149.5 82.5q8 8 14 -10q-8 -8 -14 -24.5t-11 -35t-8.5 -34.5l-5.5 -25q-16 -35 -69 -49q-66 -16 -142.5 -29.5t-156.5 -23.5t-160 -16.5t-149 -6.5q-111 0 -179.5 10.5t-106.5 28t-51.5 42t-13.5 57.5q0 29 17 91 q18 69 43 145l49 148l35 101q2 6 -7.5 9t-41.5 3q-16 0 -17 11q0 10 11.5 31.5t27.5 25.5q20 4 32.5 5t21 7t14.5 18.5t14 37.5l25 75l37 121q19 63 33 117q10 41 10 57q0 18 -19 19q-84 0 -166 -6.5t-135 -22.5l-6 2q-1 8 -2 18q1 6 1 11zM696 1388q-4 16 15 41l57 73 l62 78q32 40 65 77t63 67q8 8 20.5 6t16.5 -10l58 -166q29 -80 39 -131q6 -39 -2 -47q-4 -6 -23.5 -21.5t-30.5 -15.5q-6 0 -10 23q-14 61 -30.5 118.5t-39.5 116.5q-4 14 -11 17.5t-17 -8.5l-75 -102l-71 -97q-20 -33 -28 -33q-2 0 -12 1l-18 2q-9 1 -17.5 4t-10.5 7z M1118 1661q0 4 2 13.5t6 11.5q80 33 127 80t47 88q-4 47 -27.5 60t-70.5 13q-23 0 -40.5 -3t-27.5 -3q-6 0 -8 9.5t-2 19.5t3 20.5t9 12.5q25 6 45.5 10t53.5 4q66 0 109.5 -29.5t45.5 -76.5q2 -49 -29.5 -95.5t-74.5 -81t-88 -55t-72 -20.5q-4 0 -6 9t-2 13z" />
<glyph unicode="&#xea;&#x309;" horiz-adv-x="630" d="M108 176v14q0 78 22 158q24 88 67.5 161t109 120t145.5 47q47 0 76 -25q33 -28 33 -90q0 -83 -78 -140q-82 -60 -254 -61q-4 -23 -13 -67q-8 -37 -8 -78q0 -9 1 -18q4 -76 33.5 -105t101.5 -29q70 0 137.5 33t126.5 82t106.5 107.5t73.5 109.5q6 6 26.5 -7t22.5 -21 q-37 -66 -92 -134.5t-125.5 -126t-152.5 -93.5t-170 -36q-72 0 -128.5 53.5t-60.5 145.5zM239 418q8 -2 23.5 -4t25.5 -2q31 0 66 10t62.5 29.5t45 46t17.5 57.5q0 20 -10.5 34.5t-40.5 14.5q-61 0 -113.5 -52t-75.5 -134zM325 884q-4 16 15 41l57 73l62 78q32 40 65 77 t63 67q8 8 20.5 6t16.5 -10l58 -166q29 -80 39 -131q6 -39 -2 -47q-4 -6 -23.5 -21.5t-30.5 -15.5q-6 0 -10 23q-14 61 -30.5 118.5t-39.5 116.5q-4 14 -11 17.5t-17 -8.5l-75 -102l-71 -97q-20 -33 -28 -33q-2 0 -12 1l-18 2q-9 1 -17.5 4t-10.5 7zM719 1145q0 4 2 13.5 t6 11.5q80 33 127 80t47 88q-4 47 -27.5 60t-70.5 13q-23 0 -40.5 -3t-27.5 -3q-6 0 -8 9.5t-2 19.5t3 20.5t9 12.5q25 6 45.5 10t53.5 4q66 0 109.5 -29.5t45.5 -76.5q2 -49 -29.5 -95.5t-74.5 -81t-88 -55t-72 -20.5q-4 0 -6 9t-2 13z" />
<glyph unicode="&#xca;&#x303;" horiz-adv-x="1259" d="M204 1139q1 16 5 33.5t9 31t9 17.5q86 -6 181.5 -9.5t181.5 -3.5q29 0 101.5 3t160.5 7l179 6q91 3 155 3q14 0 18 -17l-8 -24l-13 -40l-14 -44l-10 -37l-10 2q-14 39 -33 47q-92 12 -197.5 18.5t-205.5 6.5q-23 0 -35 -6.5t-21 -22.5q-29 -49 -49 -96t-37.5 -96.5 t-34 -102.5l-36.5 -113q-6 -25 22 -24q59 -4 136 -5h31q62 0 125 3q79 4 151.5 12t121.5 23l11 -9q-2 -6 -7.5 -18t-9.5 -26.5t-7 -28t-3 -19.5q-2 -10 -22 -10q-41 0 -123 1t-169 1h-163q-76 0 -107 -2q-20 0 -26 -16q-41 -104 -79 -215q-34 -100 -34 -200v-22 q2 -63 50 -77.5t134 -14.5q76 0 182.5 9.5t214 30t202 54t149.5 82.5q8 8 14 -10q-8 -8 -14 -24.5t-11 -35t-8.5 -34.5l-5.5 -25q-16 -35 -69 -49q-66 -16 -142.5 -29.5t-156.5 -23.5t-160 -16.5t-149 -6.5q-111 0 -179.5 10.5t-106.5 28t-51.5 42t-13.5 57.5q0 29 17 91 q18 69 43 145l49 148l35 101q2 6 -7.5 9t-41.5 3q-16 0 -17 11q0 10 11.5 31.5t27.5 25.5q20 4 32.5 5t21 7t14.5 18.5t14 37.5l25 75l37 121q19 63 33 117q10 41 10 57q0 18 -19 19q-84 0 -166 -6.5t-135 -22.5l-6 2q-1 8 -2 18q1 6 1 11zM678 1394q-4 16 15 41l57 73 l62 78q32 40 65 77t63 67q8 8 20.5 6t16.5 -10l58 -166q29 -80 39 -131q6 -39 -2 -47q-4 -6 -23.5 -21.5t-30.5 -15.5q-6 0 -10 23q-14 61 -30.5 118.5t-39.5 116.5q-4 14 -11 17.5t-17 -8.5l-75 -102l-71 -97q-20 -33 -28 -33q-2 0 -12 1l-18 2q-9 1 -17.5 4t-10.5 7z M695 1822q4 20 19 51t38.5 61t57.5 51.5t75 21.5q35 0 73 -25t75.5 -54.5t75.5 -54t73 -24.5t55.5 35t5.5 84q-2 6 8.5 13t22.5 9t24.5 -2t14.5 -20q4 -37 -5 -71t-27.5 -60.5t-46 -43t-62.5 -16.5q-43 0 -85 23.5t-82 51.5t-77 50.5t-68 22.5q-23 0 -37 -12.5t-23 -31 t-15 -40t-15 -37.5q-6 -10 -19 -14.5t-26.5 -2t-22.5 11.5t-7 23z" />
<glyph unicode="&#xea;&#x303;" horiz-adv-x="630" d="M108 176v14q0 78 22 158q24 88 67.5 161t109 120t145.5 47q47 0 76 -25q33 -28 33 -90q0 -83 -78 -140q-82 -60 -254 -61q-4 -23 -13 -67q-8 -37 -8 -78q0 -9 1 -18q4 -76 33.5 -105t101.5 -29q70 0 137.5 33t126.5 82t106.5 107.5t73.5 109.5q6 6 26.5 -7t22.5 -21 q-37 -66 -92 -134.5t-125.5 -126t-152.5 -93.5t-170 -36q-72 0 -128.5 53.5t-60.5 145.5zM239 418q8 -2 23.5 -4t25.5 -2q31 0 66 10t62.5 29.5t45 46t17.5 57.5q0 20 -10.5 34.5t-40.5 14.5q-61 0 -113.5 -52t-75.5 -134zM327 872q-4 16 15 41l57 73l62 78q32 40 65 77 t63 67q8 8 20.5 6t16.5 -10l58 -166q29 -80 39 -131q6 -39 -2 -47q-4 -6 -23.5 -21.5t-30.5 -15.5q-6 0 -10 23q-14 61 -30.5 118.5t-39.5 116.5q-4 14 -11 17.5t-17 -8.5l-75 -102l-71 -97q-20 -33 -28 -33q-2 0 -12 1l-18 2q-9 1 -17.5 4t-10.5 7zM332 1351q4 20 19 51 t38.5 61t57.5 51.5t75 21.5q35 0 73 -25t75.5 -54.5t75.5 -54t73 -24.5t55.5 35t5.5 84q-2 6 8.5 13t22.5 9t24.5 -2t14.5 -20q4 -37 -5 -71t-27.5 -60.5t-46 -43t-62.5 -16.5q-43 0 -85 23.5t-82 51.5t-77 50.5t-68 22.5q-23 0 -37 -12.5t-23 -31t-15 -40t-15 -37.5 q-6 -10 -19 -14.5t-26.5 -2t-22.5 11.5t-7 23z" />
<glyph unicode="&#xca;&#x323;" horiz-adv-x="1259" d="M204 1139q1 16 5 33.5t9 31t9 17.5q86 -6 181.5 -9.5t181.5 -3.5q29 0 101.5 3t160.5 7l179 6q91 3 155 3q14 0 18 -17l-8 -24l-13 -40l-14 -44l-10 -37l-10 2q-14 39 -33 47q-92 12 -197.5 18.5t-205.5 6.5q-23 0 -35 -6.5t-21 -22.5q-29 -49 -49 -96t-37.5 -96.5 t-34 -102.5l-36.5 -113q-6 -25 22 -24q59 -4 136 -5h31q62 0 125 3q79 4 151.5 12t121.5 23l11 -9q-2 -6 -7.5 -18t-9.5 -26.5t-7 -28t-3 -19.5q-2 -10 -22 -10q-41 0 -123 1t-169 1h-163q-76 0 -107 -2q-20 0 -26 -16q-41 -104 -79 -215q-34 -100 -34 -200v-22 q2 -63 50 -77.5t134 -14.5q76 0 182.5 9.5t214 30t202 54t149.5 82.5q8 8 14 -10q-8 -8 -14 -24.5t-11 -35t-8.5 -34.5l-5.5 -25q-16 -35 -69 -49q-66 -16 -142.5 -29.5t-156.5 -23.5t-160 -16.5t-149 -6.5q-111 0 -179.5 10.5t-106.5 28t-51.5 42t-13.5 57.5q0 29 17 91 q18 69 43 145l49 148l35 101q2 6 -7.5 9t-41.5 3q-16 0 -17 11q0 10 11.5 31.5t27.5 25.5q20 4 32.5 5t21 7t14.5 18.5t14 37.5l25 75l37 121q19 63 33 117q10 41 10 57q0 18 -19 19q-84 0 -166 -6.5t-135 -22.5l-6 2q-1 8 -2 18q1 6 1 11zM497 -236q-2 29 15.5 53.5 t54.5 24.5q25 0 47.5 -16t22.5 -57q2 -29 -20.5 -52.5t-51.5 -23.5q-27 0 -47.5 19t-20.5 52zM680 1388q-4 16 15 41l57 73l62 78q32 40 65 77t63 67q8 8 20.5 6t16.5 -10l58 -166q29 -80 39 -131q6 -39 -2 -47q-4 -6 -23.5 -21.5t-30.5 -15.5q-6 0 -10 23 q-14 61 -30.5 118.5t-39.5 116.5q-4 14 -11 17.5t-17 -8.5l-75 -102l-71 -97q-20 -33 -28 -33q-2 0 -12 1l-18 2q-9 1 -17.5 4t-10.5 7z" />
<glyph unicode="&#xea;&#x323;" horiz-adv-x="630" d="M108 176v14q0 78 22 158q24 88 67.5 161t109 120t145.5 47q47 0 76 -25q33 -28 33 -90q0 -83 -78 -140q-82 -60 -254 -61q-4 -23 -13 -67q-8 -37 -8 -78q0 -9 1 -18q4 -76 33.5 -105t101.5 -29q70 0 137.5 33t126.5 82t106.5 107.5t73.5 109.5q6 6 26.5 -7t22.5 -21 q-37 -66 -92 -134.5t-125.5 -126t-152.5 -93.5t-170 -36q-72 0 -128.5 53.5t-60.5 145.5zM239 418q8 -2 23.5 -4t25.5 -2q31 0 66 10t62.5 29.5t45 46t17.5 57.5q0 20 -10.5 34.5t-40.5 14.5q-61 0 -113.5 -52t-75.5 -134zM321 -236q-2 29 15.5 53.5t54.5 24.5 q25 0 47.5 -16t22.5 -57q2 -29 -20.5 -52.5t-51.5 -23.5q-27 0 -47.5 19t-20.5 52zM266 872q-4 16 15 41l57 73l62 78q32 40 65 77t63 67q8 8 20.5 6t16.5 -10l58 -166q29 -80 39 -131q6 -39 -2 -47q-4 -6 -23.5 -21.5t-30.5 -15.5q-6 0 -10 23q-14 61 -30.5 118.5 t-39.5 116.5q-4 14 -11 17.5t-17 -8.5l-75 -102l-71 -97q-20 -33 -28 -33q-2 0 -12 1l-18 2q-9 1 -17.5 4t-10.5 7z" />
<glyph unicode="I&#x309;" horiz-adv-x="677" d="M90 14q47 4 72 41q25 43 60 119l77 169q41 93 82 196.5t76 201t59.5 181.5t30.5 139q6 39 -11.5 50t-70.5 11q-35 0 -76 -3t-74 -9q-4 20 4.5 46t12.5 34q115 6 215 8t172 14q10 -4 13 -23.5t1 -29.5q0 -2 -8 -6t-19.5 -9t-20.5 -12.5t-13 -17.5q-41 -104 -85 -236 l-92 -272l-101 -278q-52 -139 -111 -258q-16 -35 -35 -52.5t-40 -22.5q-18 -4 -39 -4h-8q-26 1 -57 3q-2 2 -6 8zM545 1384q0 4 2 13.5t6 11.5q80 33 127 80t47 88q-4 47 -27.5 60t-70.5 13q-23 0 -40.5 -3t-27.5 -3q-6 0 -8 9.5t-2 19.5t3 20.5t9 12.5q25 6 45.5 10t53.5 4 q66 0 109.5 -29.5t45.5 -76.5q2 -49 -29.5 -95.5t-74.5 -81t-88 -55t-72 -20.5q-4 0 -6 9t-2 13z" />
<glyph unicode="i&#x309;" horiz-adv-x="557" d="M273 862q0 4 2 13.5t6 11.5q80 33 127 80t47 88q-4 47 -27.5 60t-70.5 13q-23 0 -40.5 -3t-27.5 -3q-6 0 -8 9.5t-2 19.5t3 20.5t9 12.5q25 6 45.5 10t53.5 4q66 0 109.5 -29.5t45.5 -76.5q2 -49 -29.5 -95.5t-74.5 -81t-88 -55t-72 -20.5q-4 0 -6 9t-2 13zM115 104 q-8 39 5 109t36.5 144.5t51.5 141t44 101.5q14 25 47 41t45 16t24.5 -17t6.5 -28q-39 -70 -67.5 -138t-47 -128.5t-24 -110t3.5 -79.5q14 -72 86 -72q59 0 117.5 35t109.5 86t93 109.5t67 103.5q4 8 14 10t19.5 -1t16.5 -10t5 -14q-51 -98 -126 -183t-146 -136 q-106 -84 -220 -84q-20 0 -45.5 4t-49 14.5t-42 31.5t-24.5 54z" />
<glyph unicode="I&#x323;" horiz-adv-x="677" d="M90 14q47 4 72 41q25 43 60 119l77 169q41 93 82 196.5t76 201t59.5 181.5t30.5 139q6 39 -11.5 50t-70.5 11q-35 0 -76 -3t-74 -9q-4 20 4.5 46t12.5 34q115 6 215 8t172 14q10 -4 13 -23.5t1 -29.5q0 -2 -8 -6t-19.5 -9t-20.5 -12.5t-13 -17.5q-41 -104 -85 -236 l-92 -272l-101 -278q-52 -139 -111 -258q-16 -35 -35 -52.5t-40 -22.5q-18 -4 -39 -4h-8q-26 1 -57 3q-2 2 -6 8zM170 -236q-2 29 15.5 53.5t54.5 24.5q25 0 47.5 -16t22.5 -57q2 -29 -20.5 -52.5t-51.5 -23.5q-27 0 -47.5 19t-20.5 52z" />
<glyph unicode="i&#x323;" horiz-adv-x="557" d="M102 119q0 43 18 110q19 74 44.5 150t53.5 142.5t44 99.5q12 25 46 41t46 16q16 0 19 -8q0 -6 -1 -18.5t-8 -18.5q-27 -53 -54 -122t-50 -138.5t-37 -129.5q-13 -53 -12 -88v-10q2 -47 30.5 -61t63.5 -14q59 0 121.5 40t119 97t102.5 119.5t71 107.5q4 8 13 7t17.5 -7 t14.5 -15q5 -7 4 -12v-4q-39 -72 -92.5 -146.5t-116.5 -136t-137 -101t-156 -39.5q-25 0 -53.5 6t-53 20t-41 40t-16.5 73zM350 1014q-3 13 -3 26q0 27 14 52q22 37 65 36q39 0 49 -41q3 -11 3 -22q0 -26 -16 -51q-24 -37 -65 -37q-35 0 -47 37zM112 -236q-2 29 15.5 53.5 t54.5 24.5q25 0 47.5 -16t22.5 -57q2 -29 -20.5 -52.5t-51.5 -23.5q-27 0 -47.5 19t-20.5 52z" />
<glyph unicode="O&#x323;" horiz-adv-x="1507" d="M240 510q-1 22 -1 43q0 148 37 266q43 135 127 228.5t208 141.5t280 48q115 0 211 -38t167.5 -107.5t113.5 -167t47 -213.5q1 -22 0 -45q0 -129 -30 -243q-36 -134 -115 -233.5t-199.5 -158t-284.5 -58.5q-123 0 -223.5 36t-174 103.5t-116.5 168t-47 229.5zM348 502 q4 -94 41 -175t97.5 -140.5t135 -94.5t154.5 -35q143 0 247.5 47.5t173.5 132.5t99 200q27 102 27 221v32q-2 92 -35 176t-89 149.5t-132 104.5t-166 39q-147 0 -254.5 -48t-175.5 -135t-98 -208q-26 -101 -26 -218q0 -24 1 -48zM749 -236q-2 29 15.5 53.5t54.5 24.5 q25 0 47.5 -16t22.5 -57q2 -29 -20.5 -52.5t-51.5 -23.5q-27 0 -47.5 19t-20.5 52z" />
<glyph unicode="o&#x323;" horiz-adv-x="780" d="M100 156v23q0 86 26 166q30 91 85 162t129 116t160 47q4 25 8 56.5t33 37.5q14 4 29.5 7t25.5 9q3 3 8 4q4 0 9 -3q11 -5 7 -17q-6 -16 -11 -42t-3 -52q2 -51 14.5 -98.5t36 -84t59.5 -59t85 -22.5q31 0 61.5 12t60 32.5t54 48t41.5 58.5q2 6 13 4t21.5 -8t17.5 -14 q4 -4 4 -9q0 -3 -3 -6q-18 -35 -46 -67.5t-62.5 -59t-76.5 -42t-91 -15.5q-51 0 -104.5 20.5t-94.5 71.5q-8 -61 -28.5 -139t-58.5 -147.5t-97.5 -117.5t-145.5 -48q-80 0 -122 53t-44 123zM219 186q0 -14 4 -35.5t11.5 -40t20.5 -31.5t34 -13q53 0 99 57t79 135t50 157 q14 64 14 104q0 9 -1 18q-2 6 -4 10t-3 9t-4 13.5t-7 26.5q0 14 -12 14q-55 0 -106.5 -42t-91.5 -104.5t-62 -136.5q-21 -69 -21 -130v-11zM198 -236q-2 29 15.5 53.5t54.5 24.5q25 0 47.5 -16t22.5 -57q2 -29 -20.5 -52.5t-51.5 -23.5q-27 0 -47.5 19t-20.5 52z" />
<glyph unicode="O&#x309;" horiz-adv-x="1507" d="M240 510q-1 22 -1 43q0 148 37 266q43 135 127 228.5t208 141.5t280 48q115 0 211 -38t167.5 -107.5t113.5 -167t47 -213.5q1 -22 0 -45q0 -129 -30 -243q-36 -134 -115 -233.5t-199.5 -158t-284.5 -58.5q-123 0 -223.5 36t-174 103.5t-116.5 168t-47 229.5zM348 502 q4 -94 41 -175t97.5 -140.5t135 -94.5t154.5 -35q143 0 247.5 47.5t173.5 132.5t99 200q27 102 27 221v32q-2 92 -35 176t-89 149.5t-132 104.5t-166 39q-147 0 -254.5 -48t-175.5 -135t-98 -208q-26 -101 -26 -218q0 -24 1 -48zM993 1356q0 4 2 13.5t6 11.5q80 33 127 80 t47 88q-4 47 -27.5 60t-70.5 13q-23 0 -40.5 -3t-27.5 -3q-6 0 -8 9.5t-2 19.5t3 20.5t9 12.5q25 6 45.5 10t53.5 4q66 0 109.5 -29.5t45.5 -76.5q2 -49 -29.5 -95.5t-74.5 -81t-88 -55t-72 -20.5q-4 0 -6 9t-2 13z" />
<glyph unicode="o&#x309;" horiz-adv-x="780" d="M100 156v23q0 86 26 166q30 91 85 162t129 116t160 47q4 25 8 56.5t33 37.5q14 4 29.5 7t25.5 9q3 3 8 4q4 0 9 -3q11 -5 7 -17q-6 -16 -11 -42t-3 -52q2 -51 14.5 -98.5t36 -84t59.5 -59t85 -22.5q31 0 61.5 12t60 32.5t54 48t41.5 58.5q2 6 13 4t21.5 -8t17.5 -14 q4 -4 4 -9q0 -3 -3 -6q-18 -35 -46 -67.5t-62.5 -59t-76.5 -42t-91 -15.5q-51 0 -104.5 20.5t-94.5 71.5q-8 -61 -28.5 -139t-58.5 -147.5t-97.5 -117.5t-145.5 -48q-80 0 -122 53t-44 123zM219 186q0 -14 4 -35.5t11.5 -40t20.5 -31.5t34 -13q53 0 99 57t79 135t50 157 q14 64 14 104q0 9 -1 18q-2 6 -4 10t-3 9t-4 13.5t-7 26.5q0 14 -12 14q-55 0 -106.5 -42t-91.5 -104.5t-62 -136.5q-21 -69 -21 -130v-11zM410 862q0 4 2 13.5t6 11.5q80 33 127 80t47 88q-4 47 -27.5 60t-70.5 13q-23 0 -40.5 -3t-27.5 -3q-6 0 -8 9.5t-2 19.5t3 20.5 t9 12.5q25 6 45.5 10t53.5 4q66 0 109.5 -29.5t45.5 -76.5q2 -49 -29.5 -95.5t-74.5 -81t-88 -55t-72 -20.5q-4 0 -6 9t-2 13z" />
<glyph unicode="&#xd4;&#x301;" horiz-adv-x="1507" d="M240 510q-1 22 -1 43q0 148 37 266q43 135 127 228.5t208 141.5t280 48q115 0 211 -38t167.5 -107.5t113.5 -167t47 -213.5q1 -22 0 -45q0 -129 -30 -243q-36 -134 -115 -233.5t-199.5 -158t-284.5 -58.5q-123 0 -223.5 36t-174 103.5t-116.5 168t-47 229.5zM348 502 q4 -94 41 -175t97.5 -140.5t135 -94.5t154.5 -35q143 0 247.5 47.5t173.5 132.5t99 200q27 102 27 221v32q-2 92 -35 176t-89 149.5t-132 104.5t-166 39q-147 0 -254.5 -48t-175.5 -135t-98 -208q-26 -101 -26 -218q0 -24 1 -48zM802 1376q-4 16 15 41l57 73l62 78 q32 40 65 77t63 67q8 8 20.5 6t16.5 -10l58 -166q29 -80 39 -131q6 -39 -2 -47q-4 -6 -23.5 -21.5t-30.5 -15.5q-6 0 -10 23q-14 61 -30.5 118.5t-39.5 116.5q-4 14 -11 17.5t-17 -8.5l-75 -102l-71 -97q-20 -33 -28 -33q-2 0 -12 1l-18 2q-9 1 -17.5 4t-10.5 7zM1230 1588 q-2 7 0 9l176 178l166 179q4 6 10 6h7q4 0 13 -6l21 -14q11 -7 21 -15t12 -12q4 -14 -2 -21q-45 -41 -90 -77l-93 -72l-99 -79q-51 -42 -107 -93q-6 -6 -13 -4t-13.5 8t-8.5 13z" />
<glyph unicode="&#xf4;&#x301;" horiz-adv-x="780" d="M100 156v23q0 86 26 166q30 91 85 162t129 116t160 47q4 25 8 56.5t33 37.5q14 4 29.5 7t25.5 9q3 3 8 4q4 0 9 -3q11 -5 7 -17q-6 -16 -11 -42t-3 -52q2 -51 14.5 -98.5t36 -84t59.5 -59t85 -22.5q31 0 61.5 12t60 32.5t54 48t41.5 58.5q2 6 13 4t21.5 -8t17.5 -14 q4 -4 4 -9q0 -3 -3 -6q-18 -35 -46 -67.5t-62.5 -59t-76.5 -42t-91 -15.5q-51 0 -104.5 20.5t-94.5 71.5q-8 -61 -28.5 -139t-58.5 -147.5t-97.5 -117.5t-145.5 -48q-80 0 -122 53t-44 123zM219 186q0 -14 4 -35.5t11.5 -40t20.5 -31.5t34 -13q53 0 99 57t79 135t50 157 q14 64 14 104q0 9 -1 18q-2 6 -4 10t-3 9t-4 13.5t-7 26.5q0 14 -12 14q-55 0 -106.5 -42t-91.5 -104.5t-62 -136.5q-21 -69 -21 -130v-11zM323 872q-4 16 15 41l57 73l62 78q32 40 65 77t63 67q8 8 20.5 6t16.5 -10l58 -166q29 -80 39 -131q6 -39 -2 -47q-4 -6 -23.5 -21.5 t-30.5 -15.5q-6 0 -10 23q-14 61 -30.5 118.5t-39.5 116.5q-4 14 -11 17.5t-17 -8.5l-75 -102l-71 -97q-20 -33 -28 -33q-2 0 -12 1l-18 2q-9 1 -17.5 4t-10.5 7zM751 1131q-2 7 0 9l176 178l166 179q4 6 10 6h7q4 0 13 -6l21 -14q11 -7 21 -15t12 -12q4 -14 -2 -21 q-45 -41 -90 -77l-93 -72l-99 -79q-51 -42 -107 -93q-6 -6 -13 -4t-13.5 8t-8.5 13z" />
<glyph unicode="&#xd4;&#x300;" horiz-adv-x="1507" d="M240 510q-1 22 -1 43q0 148 37 266q43 135 127 228.5t208 141.5t280 48q115 0 211 -38t167.5 -107.5t113.5 -167t47 -213.5q1 -22 0 -45q0 -129 -30 -243q-36 -134 -115 -233.5t-199.5 -158t-284.5 -58.5q-123 0 -223.5 36t-174 103.5t-116.5 168t-47 229.5zM348 502 q4 -94 41 -175t97.5 -140.5t135 -94.5t154.5 -35q143 0 247.5 47.5t173.5 132.5t99 200q27 102 27 221v32q-2 92 -35 176t-89 149.5t-132 104.5t-166 39q-147 0 -254.5 -48t-175.5 -135t-98 -208q-26 -101 -26 -218q0 -24 1 -48zM743 1386q-4 16 15 41l57 73l62 78 q32 40 65 77t63 67q8 8 20.5 6t16.5 -10l58 -166q29 -80 39 -131q6 -39 -2 -47q-4 -6 -23.5 -21.5t-30.5 -15.5q-6 0 -10 23q-14 61 -30.5 118.5t-39.5 116.5q-4 14 -11 17.5t-17 -8.5l-75 -102l-71 -97q-20 -33 -28 -33q-2 0 -12 1l-18 2q-9 1 -17.5 4t-10.5 7zM1038 1903 q0 6 6 18.5t14.5 23.5t16.5 20t10 9h11q7 0 12 -6l38 -70l43 -78q24 -42 55.5 -91t76.5 -111q0 -12 -17.5 -20.5t-21.5 0.5l-130 153q-67 76 -114 152z" />
<glyph unicode="&#xf4;&#x300;" horiz-adv-x="780" d="M100 156v23q0 86 26 166q30 91 85 162t129 116t160 47q4 25 8 56.5t33 37.5q14 4 29.5 7t25.5 9q3 3 8 4q4 0 9 -3q11 -5 7 -17q-6 -16 -11 -42t-3 -52q2 -51 14.5 -98.5t36 -84t59.5 -59t85 -22.5q31 0 61.5 12t60 32.5t54 48t41.5 58.5q2 6 13 4t21.5 -8t17.5 -14 q4 -4 4 -9q0 -3 -3 -6q-18 -35 -46 -67.5t-62.5 -59t-76.5 -42t-91 -15.5q-51 0 -104.5 20.5t-94.5 71.5q-8 -61 -28.5 -139t-58.5 -147.5t-97.5 -117.5t-145.5 -48q-80 0 -122 53t-44 123zM219 186q0 -14 4 -35.5t11.5 -40t20.5 -31.5t34 -13q53 0 99 57t79 135t50 157 q14 64 14 104q0 9 -1 18q-2 6 -4 10t-3 9t-4 13.5t-7 26.5q0 14 -12 14q-55 0 -106.5 -42t-91.5 -104.5t-62 -136.5q-21 -69 -21 -130v-11zM307 872q-4 16 15 41l57 73l62 78q32 40 65 77t63 67q8 8 20.5 6t16.5 -10l58 -166q29 -80 39 -131q6 -39 -2 -47q-4 -6 -23.5 -21.5 t-30.5 -15.5q-6 0 -10 23q-14 61 -30.5 118.5t-39.5 116.5q-4 14 -11 17.5t-17 -8.5l-75 -102l-71 -97q-20 -33 -28 -33q-2 0 -12 1l-18 2q-9 1 -17.5 4t-10.5 7zM588 1438q0 6 6 18.5t14.5 23.5t16.5 20t10 9h11q7 0 12 -6l38 -70l43 -78q24 -42 55.5 -91t76.5 -111 q0 -12 -17.5 -20.5t-21.5 0.5l-130 153q-67 76 -114 152z" />
<glyph unicode="&#xd4;&#x309;" horiz-adv-x="1507" d="M240 510q-1 22 -1 43q0 148 37 266q43 135 127 228.5t208 141.5t280 48q115 0 211 -38t167.5 -107.5t113.5 -167t47 -213.5q1 -22 0 -45q0 -129 -30 -243q-36 -134 -115 -233.5t-199.5 -158t-284.5 -58.5q-123 0 -223.5 36t-174 103.5t-116.5 168t-47 229.5zM348 502 q4 -94 41 -175t97.5 -140.5t135 -94.5t154.5 -35q143 0 247.5 47.5t173.5 132.5t99 200q27 102 27 221v32q-2 92 -35 176t-89 149.5t-132 104.5t-166 39q-147 0 -254.5 -48t-175.5 -135t-98 -208q-26 -101 -26 -218q0 -24 1 -48zM805 1382q-4 16 15 41l57 73l62 78 q32 40 65 77t63 67q8 8 20.5 6t16.5 -10l58 -166q29 -80 39 -131q6 -39 -2 -47q-4 -6 -23.5 -21.5t-30.5 -15.5q-6 0 -10 23q-14 61 -30.5 118.5t-39.5 116.5q-4 14 -11 17.5t-17 -8.5l-75 -102l-71 -97q-20 -33 -28 -33q-2 0 -12 1l-18 2q-9 1 -17.5 4t-10.5 7zM1251 1634 q0 4 2 13.5t6 11.5q80 33 127 80t47 88q-4 47 -27.5 60t-70.5 13q-23 0 -40.5 -3t-27.5 -3q-6 0 -8 9.5t-2 19.5t3 20.5t9 12.5q25 6 45.5 10t53.5 4q66 0 109.5 -29.5t45.5 -76.5q2 -49 -29.5 -95.5t-74.5 -81t-88 -55t-72 -20.5q-4 0 -6 9t-2 13z" />
<glyph unicode="&#xf4;&#x309;" horiz-adv-x="780" d="M100 156v23q0 86 26 166q30 91 85 162t129 116t160 47q4 25 8 56.5t33 37.5q14 4 29.5 7t25.5 9q3 3 8 4q4 0 9 -3q11 -5 7 -17q-6 -16 -11 -42t-3 -52q2 -51 14.5 -98.5t36 -84t59.5 -59t85 -22.5q31 0 61.5 12t60 32.5t54 48t41.5 58.5q2 6 13 4t21.5 -8t17.5 -14 q4 -4 4 -9q0 -3 -3 -6q-18 -35 -46 -67.5t-62.5 -59t-76.5 -42t-91 -15.5q-51 0 -104.5 20.5t-94.5 71.5q-8 -61 -28.5 -139t-58.5 -147.5t-97.5 -117.5t-145.5 -48q-80 0 -122 53t-44 123zM219 186q0 -14 4 -35.5t11.5 -40t20.5 -31.5t34 -13q53 0 99 57t79 135t50 157 q14 64 14 104q0 9 -1 18q-2 6 -4 10t-3 9t-4 13.5t-7 26.5q0 14 -12 14q-55 0 -106.5 -42t-91.5 -104.5t-62 -136.5q-21 -69 -21 -130v-11zM305 872q-4 16 15 41l57 73l62 78q32 40 65 77t63 67q8 8 20.5 6t16.5 -10l58 -166q29 -80 39 -131q6 -39 -2 -47q-4 -6 -23.5 -21.5 t-30.5 -15.5q-6 0 -10 23q-14 61 -30.5 118.5t-39.5 116.5q-4 14 -11 17.5t-17 -8.5l-75 -102l-71 -97q-20 -33 -28 -33q-2 0 -12 1l-18 2q-9 1 -17.5 4t-10.5 7zM707 1161q0 4 2 13.5t6 11.5q80 33 127 80t47 88q-4 47 -27.5 60t-70.5 13q-23 0 -40.5 -3t-27.5 -3 q-6 0 -8 9.5t-2 19.5t3 20.5t9 12.5q25 6 45.5 10t53.5 4q66 0 109.5 -29.5t45.5 -76.5q2 -49 -29.5 -95.5t-74.5 -81t-88 -55t-72 -20.5q-4 0 -6 9t-2 13z" />
<glyph unicode="&#xd4;&#x303;" horiz-adv-x="1507" d="M240 510q-1 22 -1 43q0 148 37 266q43 135 127 228.5t208 141.5t280 48q115 0 211 -38t167.5 -107.5t113.5 -167t47 -213.5q1 -22 0 -45q0 -129 -30 -243q-36 -134 -115 -233.5t-199.5 -158t-284.5 -58.5q-123 0 -223.5 36t-174 103.5t-116.5 168t-47 229.5zM348 502 q4 -94 41 -175t97.5 -140.5t135 -94.5t154.5 -35q143 0 247.5 47.5t173.5 132.5t99 200q27 102 27 221v32q-2 92 -35 176t-89 149.5t-132 104.5t-166 39q-147 0 -254.5 -48t-175.5 -135t-98 -208q-26 -101 -26 -218q0 -24 1 -48zM813 1370q-4 16 15 41l57 73l62 78 q32 40 65 77t63 67q8 8 20.5 6t16.5 -10l58 -166q29 -80 39 -131q6 -39 -2 -47q-4 -6 -23.5 -21.5t-30.5 -15.5q-6 0 -10 23q-14 61 -30.5 118.5t-39.5 116.5q-4 14 -11 17.5t-17 -8.5l-75 -102l-71 -97q-20 -33 -28 -33q-2 0 -12 1l-18 2q-9 1 -17.5 4t-10.5 7zM846 1810 q4 20 19 51t38.5 61t57.5 51.5t75 21.5q35 0 73 -25t75.5 -54.5t75.5 -54t73 -24.5t55.5 35t5.5 84q-2 6 8.5 13t22.5 9t24.5 -2t14.5 -20q4 -37 -5 -71t-27.5 -60.5t-46 -43t-62.5 -16.5q-43 0 -85 23.5t-82 51.5t-77 50.5t-68 22.5q-23 0 -37 -12.5t-23 -31t-15 -40 t-15 -37.5q-6 -10 -19 -14.5t-26.5 -2t-22.5 11.5t-7 23z" />
<glyph unicode="&#xf4;&#x303;" horiz-adv-x="780" d="M100 156v23q0 86 26 166q30 91 85 162t129 116t160 47q4 25 8 56.5t33 37.5q14 4 29.5 7t25.5 9q3 3 8 4q4 0 9 -3q11 -5 7 -17q-6 -16 -11 -42t-3 -52q2 -51 14.5 -98.5t36 -84t59.5 -59t85 -22.5q31 0 61.5 12t60 32.5t54 48t41.5 58.5q2 6 13 4t21.5 -8t17.5 -14 q4 -4 4 -9q0 -3 -3 -6q-18 -35 -46 -67.5t-62.5 -59t-76.5 -42t-91 -15.5q-51 0 -104.5 20.5t-94.5 71.5q-8 -61 -28.5 -139t-58.5 -147.5t-97.5 -117.5t-145.5 -48q-80 0 -122 53t-44 123zM219 186q0 -14 4 -35.5t11.5 -40t20.5 -31.5t34 -13q53 0 99 57t79 135t50 157 q14 64 14 104q0 9 -1 18q-2 6 -4 10t-3 9t-4 13.5t-7 26.5q0 14 -12 14q-55 0 -106.5 -42t-91.5 -104.5t-62 -136.5q-21 -69 -21 -130v-11zM307 872q-4 16 15 41l57 73l62 78q32 40 65 77t63 67q8 8 20.5 6t16.5 -10l58 -166q29 -80 39 -131q6 -39 -2 -47q-4 -6 -23.5 -21.5 t-30.5 -15.5q-6 0 -10 23q-14 61 -30.5 118.5t-39.5 116.5q-4 14 -11 17.5t-17 -8.5l-75 -102l-71 -97q-20 -33 -28 -33q-2 0 -12 1l-18 2q-9 1 -17.5 4t-10.5 7zM338 1321q4 20 19 51t38.5 61t57.5 51.5t75 21.5q35 0 73 -25t75.5 -54.5t75.5 -54t73 -24.5t55.5 35t5.5 84 q-2 6 8.5 13t22.5 9t24.5 -2t14.5 -20q4 -37 -5 -71t-27.5 -60.5t-46 -43t-62.5 -16.5q-43 0 -85 23.5t-82 51.5t-77 50.5t-68 22.5q-23 0 -37 -12.5t-23 -31t-15 -40t-15 -37.5q-6 -10 -19 -14.5t-26.5 -2t-22.5 11.5t-7 23z" />
<glyph unicode="&#xd4;&#x323;" horiz-adv-x="1507" d="M240 510q-1 22 -1 43q0 148 37 266q43 135 127 228.5t208 141.5t280 48q115 0 211 -38t167.5 -107.5t113.5 -167t47 -213.5q1 -22 0 -45q0 -129 -30 -243q-36 -134 -115 -233.5t-199.5 -158t-284.5 -58.5q-123 0 -223.5 36t-174 103.5t-116.5 168t-47 229.5zM348 502 q4 -94 41 -175t97.5 -140.5t135 -94.5t154.5 -35q143 0 247.5 47.5t173.5 132.5t99 200q27 102 27 221v32q-2 92 -35 176t-89 149.5t-132 104.5t-166 39q-147 0 -254.5 -48t-175.5 -135t-98 -208q-26 -101 -26 -218q0 -24 1 -48zM688 -236q-2 29 15.5 53.5t54.5 24.5 q25 0 47.5 -16t22.5 -57q2 -29 -20.5 -52.5t-51.5 -23.5q-27 0 -47.5 19t-20.5 52zM837 1366q-4 16 15 41l57 73l62 78q32 40 65 77t63 67q8 8 20.5 6t16.5 -10l58 -166q29 -80 39 -131q6 -39 -2 -47q-4 -6 -23.5 -21.5t-30.5 -15.5q-6 0 -10 23q-14 61 -30.5 118.5 t-39.5 116.5q-4 14 -11 17.5t-17 -8.5l-75 -102l-71 -97q-20 -33 -28 -33q-2 0 -12 1l-18 2q-9 1 -17.5 4t-10.5 7z" />
<glyph unicode="&#xf4;&#x323;" horiz-adv-x="780" d="M100 156v23q0 86 26 166q30 91 85 162t129 116t160 47q4 25 8 56.5t33 37.5q14 4 29.5 7t25.5 9q3 3 8 4q4 0 9 -3q11 -5 7 -17q-6 -16 -11 -42t-3 -52q2 -51 14.5 -98.5t36 -84t59.5 -59t85 -22.5q31 0 61.5 12t60 32.5t54 48t41.5 58.5q2 6 13 4t21.5 -8t17.5 -14 q4 -4 4 -9q0 -3 -3 -6q-18 -35 -46 -67.5t-62.5 -59t-76.5 -42t-91 -15.5q-51 0 -104.5 20.5t-94.5 71.5q-8 -61 -28.5 -139t-58.5 -147.5t-97.5 -117.5t-145.5 -48q-80 0 -122 53t-44 123zM219 186q0 -14 4 -35.5t11.5 -40t20.5 -31.5t34 -13q53 0 99 57t79 135t50 157 q14 64 14 104q0 9 -1 18q-2 6 -4 10t-3 9t-4 13.5t-7 26.5q0 14 -12 14q-55 0 -106.5 -42t-91.5 -104.5t-62 -136.5q-21 -69 -21 -130v-11zM190 -236q-2 29 15.5 53.5t54.5 24.5q25 0 47.5 -16t22.5 -57q2 -29 -20.5 -52.5t-51.5 -23.5q-27 0 -47.5 19t-20.5 52zM309 872 q-4 16 15 41l57 73l62 78q32 40 65 77t63 67q8 8 20.5 6t16.5 -10l58 -166q29 -80 39 -131q6 -39 -2 -47q-4 -6 -23.5 -21.5t-30.5 -15.5q-6 0 -10 23q-14 61 -30.5 118.5t-39.5 116.5q-4 14 -11 17.5t-17 -8.5l-75 -102l-71 -97q-20 -33 -28 -33q-2 0 -12 1l-18 2 q-9 1 -17.5 4t-10.5 7z" />
<glyph unicode="&#x1a0;&#x301;" horiz-adv-x="1589" d="M240 510q-6 174 43 309t141 228.5t222 141.5t286 48q115 0 217 -38t182 -107.5t128 -167t52 -213.5q6 -154 -36.5 -288t-128.5 -233.5t-213 -158t-291 -58.5q-123 0 -230.5 36t-188.5 103.5t-130 168t-53 229.5zM358 502q4 -94 46 -174t106.5 -138.5t144.5 -92.5t160 -34 q143 0 253 46.5t184.5 129.5t110.5 198.5t32 252.5q-2 92 -40 175t-99.5 147.5t-142.5 102.5t-171 38q-147 0 -259 -47t-185.5 -133t-109.5 -206t-30 -265zM1397 907l45 17q10 -16 24.5 -27.5t44.5 -11.5q29 0 54.5 18.5t23.5 52.5q0 27 -15 55.5t-38 51.5q0 4 7 8t16.5 7 t18.5 4t11 -1q37 -23 59.5 -61.5t26.5 -91.5q0 -31 -10 -52.5t-27.5 -36t-38 -21.5t-40.5 -7q-70 0 -104.5 25.5t-57.5 70.5zM915 1392q-2 7 0 9l176 178l166 179q4 6 10 6h7q4 0 13 -6l21 -14q11 -7 21 -15t12 -12q4 -14 -2 -21q-45 -41 -90 -77l-93 -72l-99 -79 q-51 -42 -107 -93q-6 -6 -13 -4t-13.5 8t-8.5 13z" />
<glyph unicode="&#x1a1;&#x301;" horiz-adv-x="780" d="M100 156q-4 98 26 189t85 162t129 116t160 47q4 25 8 56.5t33 37.5q14 4 29.5 7t25.5 9q4 4 10 4q16 0 17 -14l-2 -6q-6 -16 -11.5 -42t-3.5 -52q2 -51 14.5 -98.5t36 -84t59.5 -59t85 -22.5q31 0 61.5 12t60 32.5t54 48t41.5 58.5q4 6 10 6q12 0 27.5 -11t15.5 -22v-6 q-18 -35 -46 -67.5t-62.5 -59t-76.5 -42t-91 -15.5q-51 0 -104.5 20.5t-94.5 71.5q-8 -61 -28.5 -139t-58.5 -147.5t-97.5 -117.5t-145.5 -48q-80 0 -122 53t-44 123zM219 186q0 -14 4 -35.5t11.5 -40t20.5 -31.5t34 -13q51 0 96 55t78 130t51 153.5t16 123.5v9q-2 6 -4 10 t-3 9t-4 13.5t-7 26.5q0 14 -12 14q-55 0 -106.5 -42t-91.5 -104.5t-62.5 -137t-20.5 -140.5zM561 606l27 58q10 -29 29.5 -38.5t52.5 -9.5q43 0 64.5 33t19.5 90q0 10 -2 22.5t-4 22.5q4 4 10 4q12 0 29.5 -5t21.5 -9q18 -31 22 -76q0 -27 -11 -52t-30.5 -45.5t-46 -34 t-57.5 -13.5q-61 0 -86 18.5t-39 34.5zM344 857q-2 7 0 9l176 178l166 179q4 6 10 6h7q4 0 13 -6l21 -14q11 -7 21 -15t12 -12q4 -14 -2 -21q-45 -41 -90 -77l-93 -72l-99 -79q-51 -42 -107 -93q-6 -6 -13 -4t-13.5 8t-8.5 13z" />
<glyph unicode="&#x1a0;&#x300;" horiz-adv-x="1589" d="M240 510q-6 174 43 309t141 228.5t222 141.5t286 48q115 0 217 -38t182 -107.5t128 -167t52 -213.5q6 -154 -36.5 -288t-128.5 -233.5t-213 -158t-291 -58.5q-123 0 -230.5 36t-188.5 103.5t-130 168t-53 229.5zM358 502q4 -94 46 -174t106.5 -138.5t144.5 -92.5t160 -34 q143 0 253 46.5t184.5 129.5t110.5 198.5t32 252.5q-2 92 -40 175t-99.5 147.5t-142.5 102.5t-171 38q-147 0 -259 -47t-185.5 -133t-109.5 -206t-30 -265zM1397 907l45 17q10 -16 24.5 -27.5t44.5 -11.5q29 0 54.5 18.5t23.5 52.5q0 27 -15 55.5t-38 51.5q0 4 7 8t16.5 7 t18.5 4t11 -1q37 -23 59.5 -61.5t26.5 -91.5q0 -31 -10 -52.5t-27.5 -36t-38 -21.5t-40.5 -7q-70 0 -104.5 25.5t-57.5 70.5zM797 1653q0 6 6 18.5t14.5 23.5t16.5 20t10 9h11q7 0 12 -6l38 -70l43 -78q24 -42 55.5 -91t76.5 -111q0 -12 -17.5 -20.5t-21.5 0.5l-130 153 q-67 76 -114 152z" />
<glyph unicode="&#x1a1;&#x300;" horiz-adv-x="780" d="M100 156q-4 98 26 189t85 162t129 116t160 47q4 25 8 56.5t33 37.5q14 4 29.5 7t25.5 9q4 4 10 4q16 0 17 -14l-2 -6q-6 -16 -11.5 -42t-3.5 -52q2 -51 14.5 -98.5t36 -84t59.5 -59t85 -22.5q31 0 61.5 12t60 32.5t54 48t41.5 58.5q4 6 10 6q12 0 27.5 -11t15.5 -22v-6 q-18 -35 -46 -67.5t-62.5 -59t-76.5 -42t-91 -15.5q-51 0 -104.5 20.5t-94.5 71.5q-8 -61 -28.5 -139t-58.5 -147.5t-97.5 -117.5t-145.5 -48q-80 0 -122 53t-44 123zM219 186q0 -14 4 -35.5t11.5 -40t20.5 -31.5t34 -13q51 0 96 55t78 130t51 153.5t16 123.5v9q-2 6 -4 10 t-3 9t-4 13.5t-7 26.5q0 14 -12 14q-55 0 -106.5 -42t-91.5 -104.5t-62.5 -137t-20.5 -140.5zM561 606l27 58q10 -29 29.5 -38.5t52.5 -9.5q43 0 64.5 33t19.5 90q0 10 -2 22.5t-4 22.5q4 4 10 4q12 0 29.5 -5t21.5 -9q18 -31 22 -76q0 -27 -11 -52t-30.5 -45.5t-46 -34 t-57.5 -13.5q-61 0 -86 18.5t-39 34.5zM385 1143q0 6 6 18.5t14.5 23.5t16.5 20t10 9h11q7 0 12 -6l38 -70l43 -78q24 -42 55.5 -91t76.5 -111q0 -12 -17.5 -20.5t-21.5 0.5l-130 153q-67 76 -114 152z" />
<glyph unicode="&#x1a0;&#x309;" horiz-adv-x="1589" d="M240 510q-6 174 43 309t141 228.5t222 141.5t286 48q115 0 217 -38t182 -107.5t128 -167t52 -213.5q6 -154 -36.5 -288t-128.5 -233.5t-213 -158t-291 -58.5q-123 0 -230.5 36t-188.5 103.5t-130 168t-53 229.5zM358 502q4 -94 46 -174t106.5 -138.5t144.5 -92.5t160 -34 q143 0 253 46.5t184.5 129.5t110.5 198.5t32 252.5q-2 92 -40 175t-99.5 147.5t-142.5 102.5t-171 38q-147 0 -259 -47t-185.5 -133t-109.5 -206t-30 -265zM1397 907l45 17q10 -16 24.5 -27.5t44.5 -11.5q29 0 54.5 18.5t23.5 52.5q0 27 -15 55.5t-38 51.5q0 4 7 8t16.5 7 t18.5 4t11 -1q37 -23 59.5 -61.5t26.5 -91.5q0 -31 -10 -52.5t-27.5 -36t-38 -21.5t-40.5 -7q-70 0 -104.5 25.5t-57.5 70.5zM942 1401q0 4 2 13.5t6 11.5q80 33 127 80t47 88q-4 47 -27.5 60t-70.5 13q-23 0 -40.5 -3t-27.5 -3q-6 0 -8 9.5t-2 19.5t3 20.5t9 12.5 q25 6 45.5 10t53.5 4q66 0 109.5 -29.5t45.5 -76.5q2 -49 -29.5 -95.5t-74.5 -81t-88 -55t-72 -20.5q-4 0 -6 9t-2 13z" />
<glyph unicode="&#x1a1;&#x309;" horiz-adv-x="780" d="M100 156q-4 98 26 189t85 162t129 116t160 47q4 25 8 56.5t33 37.5q14 4 29.5 7t25.5 9q4 4 10 4q16 0 17 -14l-2 -6q-6 -16 -11.5 -42t-3.5 -52q2 -51 14.5 -98.5t36 -84t59.5 -59t85 -22.5q31 0 61.5 12t60 32.5t54 48t41.5 58.5q4 6 10 6q12 0 27.5 -11t15.5 -22v-6 q-18 -35 -46 -67.5t-62.5 -59t-76.5 -42t-91 -15.5q-51 0 -104.5 20.5t-94.5 71.5q-8 -61 -28.5 -139t-58.5 -147.5t-97.5 -117.5t-145.5 -48q-80 0 -122 53t-44 123zM219 186q0 -14 4 -35.5t11.5 -40t20.5 -31.5t34 -13q51 0 96 55t78 130t51 153.5t16 123.5v9q-2 6 -4 10 t-3 9t-4 13.5t-7 26.5q0 14 -12 14q-55 0 -106.5 -42t-91.5 -104.5t-62.5 -137t-20.5 -140.5zM561 606l27 58q10 -29 29.5 -38.5t52.5 -9.5q43 0 64.5 33t19.5 90q0 10 -2 22.5t-4 22.5q4 4 10 4q12 0 29.5 -5t21.5 -9q18 -31 22 -76q0 -27 -11 -52t-30.5 -45.5t-46 -34 t-57.5 -13.5q-61 0 -86 18.5t-39 34.5zM432 862q0 4 2 13.5t6 11.5q80 33 127 80t47 88q-4 47 -27.5 60t-70.5 13q-23 0 -40.5 -3t-27.5 -3q-6 0 -8 9.5t-2 19.5t3 20.5t9 12.5q25 6 45.5 10t53.5 4q66 0 109.5 -29.5t45.5 -76.5q2 -49 -29.5 -95.5t-74.5 -81t-88 -55 t-72 -20.5q-4 0 -6 9t-2 13z" />
<glyph unicode="&#x1a0;&#x303;" horiz-adv-x="1589" d="M240 510q-6 174 43 309t141 228.5t222 141.5t286 48q115 0 217 -38t182 -107.5t128 -167t52 -213.5q6 -154 -36.5 -288t-128.5 -233.5t-213 -158t-291 -58.5q-123 0 -230.5 36t-188.5 103.5t-130 168t-53 229.5zM358 502q4 -94 46 -174t106.5 -138.5t144.5 -92.5t160 -34 q143 0 253 46.5t184.5 129.5t110.5 198.5t32 252.5q-2 92 -40 175t-99.5 147.5t-142.5 102.5t-171 38q-147 0 -259 -47t-185.5 -133t-109.5 -206t-30 -265zM1397 907l45 17q10 -16 24.5 -27.5t44.5 -11.5q29 0 54.5 18.5t23.5 52.5q0 27 -15 55.5t-38 51.5q0 4 7 8t16.5 7 t18.5 4t11 -1q37 -23 59.5 -61.5t26.5 -91.5q0 -31 -10 -52.5t-27.5 -36t-38 -21.5t-40.5 -7q-70 0 -104.5 25.5t-57.5 70.5zM682 1462q4 20 19 51t38.5 61t57.5 51.5t75 21.5q35 0 73 -25t75.5 -54.5t75.5 -54t73 -24.5t55.5 35t5.5 84q-2 6 8.5 13t22.5 9t24.5 -2 t14.5 -20q4 -37 -5 -71t-27.5 -60.5t-46 -43t-62.5 -16.5q-43 0 -85 23.5t-82 51.5t-77 50.5t-68 22.5q-23 0 -37 -12.5t-23 -31t-15 -40t-15 -37.5q-6 -10 -19 -14.5t-26.5 -2t-22.5 11.5t-7 23z" />
<glyph unicode="&#x1a1;&#x303;" horiz-adv-x="780" d="M100 156q-4 98 26 189t85 162t129 116t160 47q4 25 8 56.5t33 37.5q14 4 29.5 7t25.5 9q4 4 10 4q16 0 17 -14l-2 -6q-6 -16 -11.5 -42t-3.5 -52q2 -51 14.5 -98.5t36 -84t59.5 -59t85 -22.5q31 0 61.5 12t60 32.5t54 48t41.5 58.5q4 6 10 6q12 0 27.5 -11t15.5 -22v-6 q-18 -35 -46 -67.5t-62.5 -59t-76.5 -42t-91 -15.5q-51 0 -104.5 20.5t-94.5 71.5q-8 -61 -28.5 -139t-58.5 -147.5t-97.5 -117.5t-145.5 -48q-80 0 -122 53t-44 123zM219 186q0 -14 4 -35.5t11.5 -40t20.5 -31.5t34 -13q51 0 96 55t78 130t51 153.5t16 123.5v9q-2 6 -4 10 t-3 9t-4 13.5t-7 26.5q0 14 -12 14q-55 0 -106.5 -42t-91.5 -104.5t-62.5 -137t-20.5 -140.5zM561 606l27 58q10 -29 29.5 -38.5t52.5 -9.5q43 0 64.5 33t19.5 90q0 10 -2 22.5t-4 22.5q4 4 10 4q12 0 29.5 -5t21.5 -9q18 -31 22 -76q0 -27 -11 -52t-30.5 -45.5t-46 -34 t-57.5 -13.5q-61 0 -86 18.5t-39 34.5zM232 952q4 20 19 51t38.5 61t57.5 51.5t75 21.5q35 0 73 -25t75.5 -54.5t75.5 -54t73 -24.5t55.5 35t5.5 84q-2 6 8.5 13t22.5 9t24.5 -2t14.5 -20q4 -37 -5 -71t-27.5 -60.5t-46 -43t-62.5 -16.5q-43 0 -85 23.5t-82 51.5t-77 50.5 t-68 22.5q-23 0 -37 -12.5t-23 -31t-15 -40t-15 -37.5q-6 -10 -19 -14.5t-26.5 -2t-22.5 11.5t-7 23z" />
<glyph unicode="&#x1a0;&#x323;" horiz-adv-x="1589" d="M240 510q-6 174 43 309t141 228.5t222 141.5t286 48q115 0 217 -38t182 -107.5t128 -167t52 -213.5q6 -154 -36.5 -288t-128.5 -233.5t-213 -158t-291 -58.5q-123 0 -230.5 36t-188.5 103.5t-130 168t-53 229.5zM358 502q4 -94 46 -174t106.5 -138.5t144.5 -92.5t160 -34 q143 0 253 46.5t184.5 129.5t110.5 198.5t32 252.5q-2 92 -40 175t-99.5 147.5t-142.5 102.5t-171 38q-147 0 -259 -47t-185.5 -133t-109.5 -206t-30 -265zM1397 907l45 17q10 -16 24.5 -27.5t44.5 -11.5q29 0 54.5 18.5t23.5 52.5q0 27 -15 55.5t-38 51.5q0 4 7 8t16.5 7 t18.5 4t11 -1q37 -23 59.5 -61.5t26.5 -91.5q0 -31 -10 -52.5t-27.5 -36t-38 -21.5t-40.5 -7q-70 0 -104.5 25.5t-57.5 70.5zM719 -236q-2 29 15.5 53.5t54.5 24.5q25 0 47.5 -16t22.5 -57q2 -29 -20.5 -52.5t-51.5 -23.5q-27 0 -47.5 19t-20.5 52z" />
<glyph unicode="&#x1a1;&#x323;" horiz-adv-x="780" d="M100 156q-4 98 26 189t85 162t129 116t160 47q4 25 8 56.5t33 37.5q14 4 29.5 7t25.5 9q4 4 10 4q16 0 17 -14l-2 -6q-6 -16 -11.5 -42t-3.5 -52q2 -51 14.5 -98.5t36 -84t59.5 -59t85 -22.5q31 0 61.5 12t60 32.5t54 48t41.5 58.5q4 6 10 6q12 0 27.5 -11t15.5 -22v-6 q-18 -35 -46 -67.5t-62.5 -59t-76.5 -42t-91 -15.5q-51 0 -104.5 20.5t-94.5 71.5q-8 -61 -28.5 -139t-58.5 -147.5t-97.5 -117.5t-145.5 -48q-80 0 -122 53t-44 123zM219 186q0 -14 4 -35.5t11.5 -40t20.5 -31.5t34 -13q51 0 96 55t78 130t51 153.5t16 123.5v9q-2 6 -4 10 t-3 9t-4 13.5t-7 26.5q0 14 -12 14q-55 0 -106.5 -42t-91.5 -104.5t-62.5 -137t-20.5 -140.5zM561 606l27 58q10 -29 29.5 -38.5t52.5 -9.5q43 0 64.5 33t19.5 90q0 10 -2 22.5t-4 22.5q4 4 10 4q12 0 29.5 -5t21.5 -9q18 -31 22 -76q0 -27 -11 -52t-30.5 -45.5t-46 -34 t-57.5 -13.5q-61 0 -86 18.5t-39 34.5zM207 -236q-2 29 15.5 53.5t54.5 24.5q25 0 47.5 -16t22.5 -57q2 -29 -20.5 -52.5t-51.5 -23.5q-27 0 -47.5 19t-20.5 52z" />
<glyph unicode="U&#x323;" horiz-adv-x="1644" d="M264 254q-2 86 35 194.5t86 219.5l96 213q47 102 64 174q6 29 -2 43t-43 14h-156q-10 0 -17.5 13.5t-9.5 31t1.5 30.5t15.5 13q199 0 316.5 7t125.5 7q4 0 6 -9t4 -21.5l3.5 -22.5t1.5 -12q-2 -12 -8.5 -13t-14.5 -3q-23 -6 -50.5 -10.5t-41.5 -32.5l-53 -113l-64 -141 l-65 -156q-33 -80 -57.5 -153.5t-40.5 -135.5q-14 -54 -13 -91q0 -116 61 -175q57 -55 197 -55q96 0 184 52t167 138t145.5 196.5t123 226.5t101.5 227.5t76 201.5q10 31 25.5 50.5t47.5 35.5q10 2 31 9l41 15q20 7 38.5 12t27.5 5q6 0 12 -10t8 -22.5t1 -22.5t-9 -10 q-10 -2 -32.5 -9.5t-33.5 -23.5q-61 -92 -121.5 -216t-107.5 -256t-76 -260q-27 -119 -27 -217q0 -7 1 -14q4 -78 41.5 -103.5t119.5 -25.5q35 0 72 12.5t66.5 25.5t50 25.5t22.5 12.5q8 0 17.5 -11.5t15.5 -24.5q9 -19 9 -30q0 -9 -7 -12q-72 -37 -139.5 -63.5 t-155.5 -26.5q-66 0 -107.5 16.5t-66 42t-35 58t-12.5 63.5q0 35 6 71t13.5 65.5t14.5 49t7 21.5q-6 6 -10 6q-74 -111 -142.5 -184.5t-139 -117.5t-150.5 -61.5t-176 -17.5q-59 0 -114.5 16.5t-98.5 52.5t-70 89t-31 127zM553 -236q-2 29 15.5 53.5t54.5 24.5 q25 0 47.5 -16t22.5 -57q2 -29 -20.5 -52.5t-51.5 -23.5q-27 0 -47.5 19t-20.5 52z" />
<glyph unicode="u&#x323;" horiz-adv-x="790" d="M100 84q-1 8 0 18q0 20 2 46q4 40 21.5 107t47.5 164l75 236q10 31 22 31q6 0 19.5 -7t27 -16.5t23.5 -19.5t10 -18t-12 -37q-31 -74 -55.5 -144.5t-43 -130t-28.5 -107.5t-10 -77q8 -23 22.5 -31t30.5 -8t39.5 23.5t51.5 62.5t55.5 90t50.5 107l29 87l24 67l19 55l18 49 q6 20 16 20t24.5 -14t25.5 -35.5t16.5 -44t-0.5 -41.5q-23 -45 -46.5 -86t-44 -82t-31.5 -88q-10 -40 -10 -90v-18q2 -47 22.5 -70t51.5 -23q33 0 79 20.5t99.5 64.5t109.5 114t107 168q4 2 13.5 -1t19.5 -8t18.5 -11.5t10.5 -12.5q-37 -74 -87 -147.5t-110.5 -133t-128 -96 t-139.5 -36.5q-74 0 -108.5 41.5t-38.5 101.5v24q0 12 2 25q-10 -20 -31 -50t-48.5 -57.5t-60 -46t-67.5 -18.5q-76 0 -103 84zM162 -236q-2 29 15.5 53.5t54.5 24.5q25 0 47.5 -16t22.5 -57q2 -29 -20.5 -52.5t-51.5 -23.5q-27 0 -47.5 19t-20.5 52z" />
<glyph unicode="U&#x309;" horiz-adv-x="1644" d="M264 254q-2 86 35 194.5t86 219.5l96 213q47 102 64 174q6 29 -2 43t-43 14h-156q-10 0 -17.5 13.5t-9.5 31t1.5 30.5t15.5 13q199 0 316.5 7t125.5 7q4 0 6 -9t4 -21.5l3.5 -22.5t1.5 -12q-2 -12 -8.5 -13t-14.5 -3q-23 -6 -50.5 -10.5t-41.5 -32.5l-53 -113l-64 -141 l-65 -156q-33 -80 -57.5 -153.5t-40.5 -135.5q-14 -54 -13 -91q0 -116 61 -175q57 -55 197 -55q96 0 184 52t167 138t145.5 196.5t123 226.5t101.5 227.5t76 201.5q10 31 25.5 50.5t47.5 35.5q10 2 31 9l41 15q20 7 38.5 12t27.5 5q6 0 12 -10t8 -22.5t1 -22.5t-9 -10 q-10 -2 -32.5 -9.5t-33.5 -23.5q-61 -92 -121.5 -216t-107.5 -256t-76 -260q-27 -119 -27 -217q0 -7 1 -14q4 -78 41.5 -103.5t119.5 -25.5q35 0 72 12.5t66.5 25.5t50 25.5t22.5 12.5q8 0 17.5 -11.5t15.5 -24.5q9 -19 9 -30q0 -9 -7 -12q-72 -37 -139.5 -63.5 t-155.5 -26.5q-66 0 -107.5 16.5t-66 42t-35 58t-12.5 63.5q0 35 6 71t13.5 65.5t14.5 49t7 21.5q-6 6 -10 6q-74 -111 -142.5 -184.5t-139 -117.5t-150.5 -61.5t-176 -17.5q-59 0 -114.5 16.5t-98.5 52.5t-70 89t-31 127zM1077 1331q0 4 2 13.5t6 11.5q80 33 127 80t47 88 q-4 47 -27.5 60t-70.5 13q-23 0 -40.5 -3t-27.5 -3q-6 0 -8 9.5t-2 19.5t3 20.5t9 12.5q25 6 45.5 10t53.5 4q66 0 109.5 -29.5t45.5 -76.5q2 -49 -29.5 -95.5t-74.5 -81t-88 -55t-72 -20.5q-4 0 -6 9t-2 13z" />
<glyph unicode="u&#x309;" horiz-adv-x="790" d="M100 84q-1 8 0 18q0 20 2 46q4 40 21.5 107t47.5 164l75 236q10 31 22 31q6 0 19.5 -7t27 -16.5t23.5 -19.5t10 -18t-12 -37q-31 -74 -55.5 -144.5t-43 -130t-28.5 -107.5t-10 -77q8 -23 22.5 -31t30.5 -8t39.5 23.5t51.5 62.5t55.5 90t50.5 107l29 87l24 67l19 55l18 49 q6 20 16 20t24.5 -14t25.5 -35.5t16.5 -44t-0.5 -41.5q-23 -45 -46.5 -86t-44 -82t-31.5 -88q-10 -40 -10 -90v-18q2 -47 22.5 -70t51.5 -23q33 0 79 20.5t99.5 64.5t109.5 114t107 168q4 2 13.5 -1t19.5 -8t18.5 -11.5t10.5 -12.5q-37 -74 -87 -147.5t-110.5 -133t-128 -96 t-139.5 -36.5q-74 0 -108.5 41.5t-38.5 101.5v24q0 12 2 25q-10 -20 -31 -50t-48.5 -57.5t-60 -46t-67.5 -18.5q-76 0 -103 84zM406 862q0 4 2 13.5t6 11.5q80 33 127 80t47 88q-4 47 -27.5 60t-70.5 13q-23 0 -40.5 -3t-27.5 -3q-6 0 -8 9.5t-2 19.5t3 20.5t9 12.5 q25 6 45.5 10t53.5 4q66 0 109.5 -29.5t45.5 -76.5q2 -49 -29.5 -95.5t-74.5 -81t-88 -55t-72 -20.5q-4 0 -6 9t-2 13z" />
<glyph unicode="&#x1af;&#x301;" horiz-adv-x="1644" d="M264 254q-2 86 35 194.5t86 219.5l96 213q47 102 64 174q0 6 1 13t1 11q0 33 -47 33h-156q-12 0 -20.5 16.5t-8.5 34.5q-2 14 3.5 25.5t15.5 11.5q199 0 316.5 7t125.5 7q4 0 6 -9t4 -21.5l3.5 -22.5t1.5 -12q-2 -12 -8.5 -13t-14.5 -3q-23 -6 -50.5 -10.5t-41.5 -32.5 l-53 -113l-64 -141l-65 -156q-33 -80 -57.5 -153.5t-40 -135t-13.5 -100.5q4 -111 61.5 -166t196.5 -55q96 0 184 52t167 138t145.5 196.5t123 226.5t101.5 227.5t76 201.5q10 31 25.5 50.5t47.5 35.5q10 2 31 9l41 15q20 7 38.5 12t27.5 5q10 0 16 -15.5t6 -29.5 q0 -20 -10 -20q-10 -2 -32.5 -9.5t-33.5 -23.5q-61 -92 -121.5 -216t-107.5 -256t-75.5 -260t-26.5 -231q4 -78 41.5 -103.5t119.5 -25.5q35 0 72 12.5t66.5 25.5t50 25.5t22.5 12.5q12 0 25.5 -23.5t13.5 -40.5q4 -10 -4 -14q-72 -37 -139.5 -63.5t-155.5 -26.5 q-66 0 -107.5 16.5t-66 42t-35 58t-12.5 63.5q0 35 6 71t13.5 65.5t14.5 49t7 21.5q-6 6 -10 6q-74 -111 -142.5 -184.5t-139 -117.5t-150.5 -61.5t-176 -17.5q-59 0 -114.5 16.5t-98.5 52.5t-70 89t-31 127zM1382 920l35 26q-6 -27 19.5 -64.5t91.5 -54.5q33 -8 57.5 1.5 t42 27.5t25.5 46t8 56q0 23 -12 48q16 10 36.5 5t24.5 -10q10 -16 13 -40.5t6 -45.5q0 -27 -13.5 -62.5t-41 -66t-70.5 -48t-103 -3.5q-55 12 -91 65.5t-28 119.5zM1060 1383q-2 7 0 9l176 178l166 179q4 6 10 6h7q4 0 13 -6l21 -14q11 -7 21 -15t12 -12q4 -14 -2 -21 q-45 -41 -90 -77l-93 -72l-99 -79q-51 -42 -107 -93q-6 -6 -13 -4t-13.5 8t-8.5 13z" />
<glyph unicode="&#x1b0;&#x301;" horiz-adv-x="790" d="M100 84q-2 25 2 64.5t21.5 106.5t47.5 164l75 236q10 31 22 31q6 0 19.5 -7t27 -16.5t23.5 -19.5t10 -18t-12 -37q-31 -74 -55.5 -144.5t-43 -130t-28.5 -107.5t-10 -77q8 -23 22.5 -31t30.5 -8t39.5 23.5t51.5 62.5t55.5 90t50.5 107l29 87l24 67l19 55l18 49 q6 20 16 20t24.5 -14t25.5 -35.5t16.5 -44t-0.5 -41.5q-23 -45 -46.5 -86t-44 -82t-32 -88t-9.5 -108q2 -47 22.5 -70t51.5 -23q33 0 79 20.5t99.5 64.5t109.5 114t107 168q4 2 13.5 -1t19.5 -8t18.5 -11.5t10.5 -12.5q-37 -74 -87 -147.5t-110.5 -133t-128 -96 t-139.5 -36.5q-74 0 -108.5 41.5t-38.5 101.5v24q0 12 2 25q-10 -20 -31 -50t-48.5 -57.5t-60 -46t-67.5 -18.5q-76 0 -103 84zM545 487l26 58q10 -29 26.5 -38t49.5 -9q41 0 66.5 32.5t23.5 90.5q0 10 -2 22l-4 23q4 4 10 4q12 0 29.5 -5.5t22.5 -9.5q18 -31 22 -75 q0 -31 -12 -57.5t-33.5 -46t-48.5 -31t-51 -11.5q-51 0 -81 18.5t-44 34.5zM475 857q-2 7 0 9l176 178l166 179q4 6 10 6h7q4 0 13 -6l21 -14q11 -7 21 -15t12 -12q4 -14 -2 -21q-45 -41 -90 -77l-93 -72l-99 -79q-51 -42 -107 -93q-6 -6 -13 -4t-13.5 8t-8.5 13z" />
<glyph unicode="&#x1af;&#x300;" horiz-adv-x="1644" d="M264 254q-2 86 35 194.5t86 219.5l96 213q47 102 64 174q0 6 1 13t1 11q0 33 -47 33h-156q-12 0 -20.5 16.5t-8.5 34.5q-2 14 3.5 25.5t15.5 11.5q199 0 316.5 7t125.5 7q4 0 6 -9t4 -21.5l3.5 -22.5t1.5 -12q-2 -12 -8.5 -13t-14.5 -3q-23 -6 -50.5 -10.5t-41.5 -32.5 l-53 -113l-64 -141l-65 -156q-33 -80 -57.5 -153.5t-40 -135t-13.5 -100.5q4 -111 61.5 -166t196.5 -55q96 0 184 52t167 138t145.5 196.5t123 226.5t101.5 227.5t76 201.5q10 31 25.5 50.5t47.5 35.5q10 2 31 9l41 15q20 7 38.5 12t27.5 5q10 0 16 -15.5t6 -29.5 q0 -20 -10 -20q-10 -2 -32.5 -9.5t-33.5 -23.5q-61 -92 -121.5 -216t-107.5 -256t-75.5 -260t-26.5 -231q4 -78 41.5 -103.5t119.5 -25.5q35 0 72 12.5t66.5 25.5t50 25.5t22.5 12.5q12 0 25.5 -23.5t13.5 -40.5q4 -10 -4 -14q-72 -37 -139.5 -63.5t-155.5 -26.5 q-66 0 -107.5 16.5t-66 42t-35 58t-12.5 63.5q0 35 6 71t13.5 65.5t14.5 49t7 21.5q-6 6 -10 6q-74 -111 -142.5 -184.5t-139 -117.5t-150.5 -61.5t-176 -17.5q-59 0 -114.5 16.5t-98.5 52.5t-70 89t-31 127zM1382 920l35 26q-6 -27 19.5 -64.5t91.5 -54.5q33 -8 57.5 1.5 t42 27.5t25.5 46t8 56q0 23 -12 48q16 10 36.5 5t24.5 -10q10 -16 13 -40.5t6 -45.5q0 -27 -13.5 -62.5t-41 -66t-70.5 -48t-103 -3.5q-55 12 -91 65.5t-28 119.5zM903 1684q0 6 6 18.5t14.5 23.5t16.5 20t10 9h11q7 0 12 -6l38 -70l43 -78q24 -42 55.5 -91t76.5 -111 q0 -12 -17.5 -20.5t-21.5 0.5l-130 153q-67 76 -114 152z" />
<glyph unicode="&#x1b0;&#x300;" horiz-adv-x="790" d="M100 84q-2 25 2 64.5t21.5 106.5t47.5 164l75 236q10 31 22 31q6 0 19.5 -7t27 -16.5t23.5 -19.5t10 -18t-12 -37q-31 -74 -55.5 -144.5t-43 -130t-28.5 -107.5t-10 -77q8 -23 22.5 -31t30.5 -8t39.5 23.5t51.5 62.5t55.5 90t50.5 107l29 87l24 67l19 55l18 49 q6 20 16 20t24.5 -14t25.5 -35.5t16.5 -44t-0.5 -41.5q-23 -45 -46.5 -86t-44 -82t-32 -88t-9.5 -108q2 -47 22.5 -70t51.5 -23q33 0 79 20.5t99.5 64.5t109.5 114t107 168q4 2 13.5 -1t19.5 -8t18.5 -11.5t10.5 -12.5q-37 -74 -87 -147.5t-110.5 -133t-128 -96 t-139.5 -36.5q-74 0 -108.5 41.5t-38.5 101.5v24q0 12 2 25q-10 -20 -31 -50t-48.5 -57.5t-60 -46t-67.5 -18.5q-76 0 -103 84zM545 487l26 58q10 -29 26.5 -38t49.5 -9q41 0 66.5 32.5t23.5 90.5q0 10 -2 22l-4 23q4 4 10 4q12 0 29.5 -5.5t22.5 -9.5q18 -31 22 -75 q0 -31 -12 -57.5t-33.5 -46t-48.5 -31t-51 -11.5q-51 0 -81 18.5t-44 34.5zM268 1143q0 6 6 18.5t14.5 23.5t16.5 20t10 9h11q7 0 12 -6l38 -70l43 -78q24 -42 55.5 -91t76.5 -111q0 -12 -17.5 -20.5t-21.5 0.5l-130 153q-67 76 -114 152z" />
<glyph unicode="&#x1af;&#x309;" horiz-adv-x="1644" d="M264 254q-2 86 35 194.5t86 219.5l96 213q47 102 64 174q0 6 1 13t1 11q0 33 -47 33h-156q-12 0 -20.5 16.5t-8.5 34.5q-2 14 3.5 25.5t15.5 11.5q199 0 316.5 7t125.5 7q4 0 6 -9t4 -21.5l3.5 -22.5t1.5 -12q-2 -12 -8.5 -13t-14.5 -3q-23 -6 -50.5 -10.5t-41.5 -32.5 l-53 -113l-64 -141l-65 -156q-33 -80 -57.5 -153.5t-40 -135t-13.5 -100.5q4 -111 61.5 -166t196.5 -55q96 0 184 52t167 138t145.5 196.5t123 226.5t101.5 227.5t76 201.5q10 31 25.5 50.5t47.5 35.5q10 2 31 9l41 15q20 7 38.5 12t27.5 5q10 0 16 -15.5t6 -29.5 q0 -20 -10 -20q-10 -2 -32.5 -9.5t-33.5 -23.5q-61 -92 -121.5 -216t-107.5 -256t-75.5 -260t-26.5 -231q4 -78 41.5 -103.5t119.5 -25.5q35 0 72 12.5t66.5 25.5t50 25.5t22.5 12.5q12 0 25.5 -23.5t13.5 -40.5q4 -10 -4 -14q-72 -37 -139.5 -63.5t-155.5 -26.5 q-66 0 -107.5 16.5t-66 42t-35 58t-12.5 63.5q0 35 6 71t13.5 65.5t14.5 49t7 21.5q-6 6 -10 6q-74 -111 -142.5 -184.5t-139 -117.5t-150.5 -61.5t-176 -17.5q-59 0 -114.5 16.5t-98.5 52.5t-70 89t-31 127zM1382 920l35 26q-6 -27 19.5 -64.5t91.5 -54.5q33 -8 57.5 1.5 t42 27.5t25.5 46t8 56q0 23 -12 48q16 10 36.5 5t24.5 -10q10 -16 13 -40.5t6 -45.5q0 -27 -13.5 -62.5t-41 -66t-70.5 -48t-103 -3.5q-55 12 -91 65.5t-28 119.5zM1133 1403q0 4 2 13.5t6 11.5q80 33 127 80t47 88q-4 47 -27.5 60t-70.5 13q-23 0 -40.5 -3t-27.5 -3 q-6 0 -8 9.5t-2 19.5t3 20.5t9 12.5q25 6 45.5 10t53.5 4q66 0 109.5 -29.5t45.5 -76.5q2 -49 -29.5 -95.5t-74.5 -81t-88 -55t-72 -20.5q-4 0 -6 9t-2 13z" />
<glyph unicode="&#x1b0;&#x309;" horiz-adv-x="790" d="M100 84q-2 25 2 64.5t21.5 106.5t47.5 164l75 236q10 31 22 31q6 0 19.5 -7t27 -16.5t23.5 -19.5t10 -18t-12 -37q-31 -74 -55.5 -144.5t-43 -130t-28.5 -107.5t-10 -77q8 -23 22.5 -31t30.5 -8t39.5 23.5t51.5 62.5t55.5 90t50.5 107l29 87l24 67l19 55l18 49 q6 20 16 20t24.5 -14t25.5 -35.5t16.5 -44t-0.5 -41.5q-23 -45 -46.5 -86t-44 -82t-32 -88t-9.5 -108q2 -47 22.5 -70t51.5 -23q33 0 79 20.5t99.5 64.5t109.5 114t107 168q4 2 13.5 -1t19.5 -8t18.5 -11.5t10.5 -12.5q-37 -74 -87 -147.5t-110.5 -133t-128 -96 t-139.5 -36.5q-74 0 -108.5 41.5t-38.5 101.5v24q0 12 2 25q-10 -20 -31 -50t-48.5 -57.5t-60 -46t-67.5 -18.5q-76 0 -103 84zM545 487l26 58q10 -29 26.5 -38t49.5 -9q41 0 66.5 32.5t23.5 90.5q0 10 -2 22l-4 23q4 4 10 4q12 0 29.5 -5.5t22.5 -9.5q18 -31 22 -75 q0 -31 -12 -57.5t-33.5 -46t-48.5 -31t-51 -11.5q-51 0 -81 18.5t-44 34.5zM436 862q0 4 2 13.5t6 11.5q80 33 127 80t47 88q-4 47 -27.5 60t-70.5 13q-23 0 -40.5 -3t-27.5 -3q-6 0 -8 9.5t-2 19.5t3 20.5t9 12.5q25 6 45.5 10t53.5 4q66 0 109.5 -29.5t45.5 -76.5 q2 -49 -29.5 -95.5t-74.5 -81t-88 -55t-72 -20.5q-4 0 -6 9t-2 13z" />
<glyph unicode="&#x1af;&#x303;" horiz-adv-x="1644" d="M264 254q-2 86 35 194.5t86 219.5l96 213q47 102 64 174q0 6 1 13t1 11q0 33 -47 33h-156q-12 0 -20.5 16.5t-8.5 34.5q-2 14 3.5 25.5t15.5 11.5q199 0 316.5 7t125.5 7q4 0 6 -9t4 -21.5l3.5 -22.5t1.5 -12q-2 -12 -8.5 -13t-14.5 -3q-23 -6 -50.5 -10.5t-41.5 -32.5 l-53 -113l-64 -141l-65 -156q-33 -80 -57.5 -153.5t-40 -135t-13.5 -100.5q4 -111 61.5 -166t196.5 -55q96 0 184 52t167 138t145.5 196.5t123 226.5t101.5 227.5t76 201.5q10 31 25.5 50.5t47.5 35.5q10 2 31 9l41 15q20 7 38.5 12t27.5 5q10 0 16 -15.5t6 -29.5 q0 -20 -10 -20q-10 -2 -32.5 -9.5t-33.5 -23.5q-61 -92 -121.5 -216t-107.5 -256t-75.5 -260t-26.5 -231q4 -78 41.5 -103.5t119.5 -25.5q35 0 72 12.5t66.5 25.5t50 25.5t22.5 12.5q12 0 25.5 -23.5t13.5 -40.5q4 -10 -4 -14q-72 -37 -139.5 -63.5t-155.5 -26.5 q-66 0 -107.5 16.5t-66 42t-35 58t-12.5 63.5q0 35 6 71t13.5 65.5t14.5 49t7 21.5q-6 6 -10 6q-74 -111 -142.5 -184.5t-139 -117.5t-150.5 -61.5t-176 -17.5q-59 0 -114.5 16.5t-98.5 52.5t-70 89t-31 127zM1382 920l35 26q-6 -27 19.5 -64.5t91.5 -54.5q33 -8 57.5 1.5 t42 27.5t25.5 46t8 56q0 23 -12 48q16 10 36.5 5t24.5 -10q10 -16 13 -40.5t6 -45.5q0 -27 -13.5 -62.5t-41 -66t-70.5 -48t-103 -3.5q-55 12 -91 65.5t-28 119.5zM875 1433q4 20 19 51t38.5 61t57.5 51.5t75 21.5q35 0 73 -25t75.5 -54.5t75.5 -54t73 -24.5t55.5 35t5.5 84 q-2 6 8.5 13t22.5 9t24.5 -2t14.5 -20q4 -37 -5 -71t-27.5 -60.5t-46 -43t-62.5 -16.5q-43 0 -85 23.5t-82 51.5t-77 50.5t-68 22.5q-23 0 -37 -12.5t-23 -31t-15 -40t-15 -37.5q-6 -10 -19 -14.5t-26.5 -2t-22.5 11.5t-7 23z" />
<glyph unicode="&#x1b0;&#x303;" horiz-adv-x="790" d="M100 84q-2 25 2 64.5t21.5 106.5t47.5 164l75 236q10 31 22 31q6 0 19.5 -7t27 -16.5t23.5 -19.5t10 -18t-12 -37q-31 -74 -55.5 -144.5t-43 -130t-28.5 -107.5t-10 -77q8 -23 22.5 -31t30.5 -8t39.5 23.5t51.5 62.5t55.5 90t50.5 107l29 87l24 67l19 55l18 49 q6 20 16 20t24.5 -14t25.5 -35.5t16.5 -44t-0.5 -41.5q-23 -45 -46.5 -86t-44 -82t-32 -88t-9.5 -108q2 -47 22.5 -70t51.5 -23q33 0 79 20.5t99.5 64.5t109.5 114t107 168q4 2 13.5 -1t19.5 -8t18.5 -11.5t10.5 -12.5q-37 -74 -87 -147.5t-110.5 -133t-128 -96 t-139.5 -36.5q-74 0 -108.5 41.5t-38.5 101.5v24q0 12 2 25q-10 -20 -31 -50t-48.5 -57.5t-60 -46t-67.5 -18.5q-76 0 -103 84zM545 487l26 58q10 -29 26.5 -38t49.5 -9q41 0 66.5 32.5t23.5 90.5q0 10 -2 22l-4 23q4 4 10 4q12 0 29.5 -5.5t22.5 -9.5q18 -31 22 -75 q0 -31 -12 -57.5t-33.5 -46t-48.5 -31t-51 -11.5q-51 0 -81 18.5t-44 34.5zM211 952q4 20 19 51t38.5 61t57.5 51.5t75 21.5q35 0 73 -25t75.5 -54.5t75.5 -54t73 -24.5t55.5 35t5.5 84q-2 6 8.5 13t22.5 9t24.5 -2t14.5 -20q4 -37 -5 -71t-27.5 -60.5t-46 -43t-62.5 -16.5 q-43 0 -85 23.5t-82 51.5t-77 50.5t-68 22.5q-23 0 -37 -12.5t-23 -31t-15 -40t-15 -37.5q-6 -10 -19 -14.5t-26.5 -2t-22.5 11.5t-7 23z" />
<glyph unicode="&#x1af;&#x323;" horiz-adv-x="1644" d="M264 254q-2 86 35 194.5t86 219.5l96 213q47 102 64 174q0 6 1 13t1 11q0 33 -47 33h-156q-12 0 -20.5 16.5t-8.5 34.5q-2 14 3.5 25.5t15.5 11.5q199 0 316.5 7t125.5 7q4 0 6 -9t4 -21.5l3.5 -22.5t1.5 -12q-2 -12 -8.5 -13t-14.5 -3q-23 -6 -50.5 -10.5t-41.5 -32.5 l-53 -113l-64 -141l-65 -156q-33 -80 -57.5 -153.5t-40 -135t-13.5 -100.5q4 -111 61.5 -166t196.5 -55q96 0 184 52t167 138t145.5 196.5t123 226.5t101.5 227.5t76 201.5q10 31 25.5 50.5t47.5 35.5q10 2 31 9l41 15q20 7 38.5 12t27.5 5q10 0 16 -15.5t6 -29.5 q0 -20 -10 -20q-10 -2 -32.5 -9.5t-33.5 -23.5q-61 -92 -121.5 -216t-107.5 -256t-75.5 -260t-26.5 -231q4 -78 41.5 -103.5t119.5 -25.5q35 0 72 12.5t66.5 25.5t50 25.5t22.5 12.5q12 0 25.5 -23.5t13.5 -40.5q4 -10 -4 -14q-72 -37 -139.5 -63.5t-155.5 -26.5 q-66 0 -107.5 16.5t-66 42t-35 58t-12.5 63.5q0 35 6 71t13.5 65.5t14.5 49t7 21.5q-6 6 -10 6q-74 -111 -142.5 -184.5t-139 -117.5t-150.5 -61.5t-176 -17.5q-59 0 -114.5 16.5t-98.5 52.5t-70 89t-31 127zM1382 920l35 26q-6 -27 19.5 -64.5t91.5 -54.5q33 -8 57.5 1.5 t42 27.5t25.5 46t8 56q0 23 -12 48q16 10 36.5 5t24.5 -10q10 -16 13 -40.5t6 -45.5q0 -27 -13.5 -62.5t-41 -66t-70.5 -48t-103 -3.5q-55 12 -91 65.5t-28 119.5zM452 -236q-2 29 15.5 53.5t54.5 24.5q25 0 47.5 -16t22.5 -57q2 -29 -20.5 -52.5t-51.5 -23.5 q-27 0 -47.5 19t-20.5 52z" />
<glyph unicode="&#x1b0;&#x323;" horiz-adv-x="790" d="M100 84q-2 25 2 64.5t21.5 106.5t47.5 164l75 236q10 31 22 31q6 0 19.5 -7t27 -16.5t23.5 -19.5t10 -18t-12 -37q-31 -74 -55.5 -144.5t-43 -130t-28.5 -107.5t-10 -77q8 -23 22.5 -31t30.5 -8t39.5 23.5t51.5 62.5t55.5 90t50.5 107l29 87l24 67l19 55l18 49 q6 20 16 20t24.5 -14t25.5 -35.5t16.5 -44t-0.5 -41.5q-23 -45 -46.5 -86t-44 -82t-32 -88t-9.5 -108q2 -47 22.5 -70t51.5 -23q33 0 79 20.5t99.5 64.5t109.5 114t107 168q4 2 13.5 -1t19.5 -8t18.5 -11.5t10.5 -12.5q-37 -74 -87 -147.5t-110.5 -133t-128 -96 t-139.5 -36.5q-74 0 -108.5 41.5t-38.5 101.5v24q0 12 2 25q-10 -20 -31 -50t-48.5 -57.5t-60 -46t-67.5 -18.5q-76 0 -103 84zM545 487l26 58q10 -29 26.5 -38t49.5 -9q41 0 66.5 32.5t23.5 90.5q0 10 -2 22l-4 23q4 4 10 4q12 0 29.5 -5.5t22.5 -9.5q18 -31 22 -75 q0 -31 -12 -57.5t-33.5 -46t-48.5 -31t-51 -11.5q-51 0 -81 18.5t-44 34.5zM243 -236q-2 29 15.5 53.5t54.5 24.5q25 0 47.5 -16t22.5 -57q2 -29 -20.5 -52.5t-51.5 -23.5q-27 0 -47.5 19t-20.5 52z" />
<glyph unicode="Y&#x300;" horiz-adv-x="1110" d="M-61 993q55 106 143 167t217 61q119 0 195.5 -56.5t122 -142.5t64.5 -188.5t24 -194.5q0 -12 10 -18.5t14 2.5q70 96 164 212.5t202.5 220t228.5 173t241 69.5q16 0 38.5 -10t44 -23.5t40 -27.5t26.5 -25q0 -2 -3 -10t-9 -15l-11 -13q-5 -6 -8 -5q-6 2 -35 17 q-19 9 -39 9q-12 0 -24 -3q-139 -31 -263 -101.5t-230.5 -168t-192.5 -213t-146.5 -235.5t-93 -236.5t-32.5 -214.5q0 -10 -5.5 -18.5t-27.5 -4.5q-31 4 -51.5 5t-35.5 -2t-29 -10l-34 -18q-2 -1 -3 0q-7 0 -18 11q-13 14 -9 24q37 43 74.5 118t67.5 163t47 179 q16 82 16 151q0 8 -1 16q-2 86 -26.5 172t-68.5 153.5t-110.5 109.5t-156.5 42q-80 0 -144.5 -43t-111.5 -110q-2 -6 -13.5 -5.5t-22.5 5t-20 13.5q-6 6 -7 13zM666 1587q0 6 6 18.5t14.5 23.5t16.5 20t10 9h11q7 0 12 -6l38 -70l43 -78q24 -42 55.5 -91t76.5 -111 q0 -12 -17.5 -20.5t-21.5 0.5l-130 153q-67 76 -114 152z" />
<glyph unicode="y&#x300;" horiz-adv-x="712" d="M-809 -498q31 -113 107.5 -180t222.5 -67q150 0 272.5 45t226 145t191.5 258t166 385q6 12 0 9t-8 -5q-29 -29 -78 -60.5t-111 -31.5q-53 0 -81.5 33t-30.5 76q0 5 -1 10q0 31 10 81q11 58 31.5 129.5t49 150.5t59.5 155q4 16 12.5 23.5t14.5 13.5q16 4 47 5t37 1 q12 0 12 -12q-33 -78 -65 -162l-58 -157q-27 -73 -42 -129t-15 -79q2 -23 12 -40t45 -17q18 0 48 18.5t58.5 43t54 51t38.5 41.5q20 27 42.5 101.5t67.5 211.5q23 68 41.5 113t38.5 45q20 -6 46 -31t30 -49q-43 -117 -97.5 -243t-95.5 -243l-72.5 -197.5t-98 -221t-129 -218 t-167 -188.5t-212 -132t-263.5 -50q-104 0 -179 35.5t-119 90t-58 118.5q-7 32 -7 63t7 61zM301 1143q0 6 6 18.5t14.5 23.5t16.5 20t10 9h11q7 0 12 -6l38 -70l43 -78q24 -42 55.5 -91t76.5 -111q0 -12 -17.5 -20.5t-21.5 0.5l-130 153q-67 76 -114 152z" />
<glyph unicode="Y&#x323;" horiz-adv-x="1110" d="M-61 993q55 106 143 167t217 61q119 0 195.5 -56.5t122 -142.5t64.5 -188.5t24 -194.5q0 -12 10 -18.5t14 2.5q70 96 164 212.5t202.5 220t228.5 173t241 69.5q16 0 38.5 -10t44 -23.5t40 -27.5t26.5 -25q0 -2 -3 -10t-9 -15l-11 -13q-5 -6 -8 -5q-6 2 -35 17 q-19 9 -39 9q-12 0 -24 -3q-139 -31 -263 -101.5t-230.5 -168t-192.5 -213t-146.5 -235.5t-93 -236.5t-32.5 -214.5q0 -10 -5.5 -18.5t-27.5 -4.5q-31 4 -51.5 5t-35.5 -2t-29 -10l-34 -18q-2 -1 -3 0q-7 0 -18 11q-13 14 -9 24q37 43 74.5 118t67.5 163t47 179 q16 82 16 151q0 8 -1 16q-2 86 -26.5 172t-68.5 153.5t-110.5 109.5t-156.5 42q-80 0 -144.5 -43t-111.5 -110q-2 -6 -13.5 -5.5t-22.5 5t-20 13.5q-6 6 -7 13zM426 -236q-2 29 15.5 53.5t54.5 24.5q25 0 47.5 -16t22.5 -57q2 -29 -20.5 -52.5t-51.5 -23.5q-27 0 -47.5 19 t-20.5 52z" />
<glyph unicode="y&#x323;" horiz-adv-x="712" d="M-809 -498q31 -113 107.5 -180t222.5 -67q150 0 272.5 45t226 145t191.5 258t166 385q6 12 0 9t-8 -5q-29 -29 -78 -60.5t-111 -31.5q-53 0 -81.5 33t-30.5 76q0 5 -1 10q0 31 10 81q11 58 31.5 129.5t49 150.5t59.5 155q4 16 12.5 23.5t14.5 13.5q16 4 47 5t37 1 q12 0 12 -12q-33 -78 -65 -162l-58 -157q-27 -73 -42 -129t-15 -79q2 -23 12 -40t45 -17q18 0 48 18.5t58.5 43t54 51t38.5 41.5q20 27 42.5 101.5t67.5 211.5q23 68 41.5 113t38.5 45q20 -6 46 -31t30 -49q-43 -117 -97.5 -243t-95.5 -243l-72.5 -197.5t-98 -221t-129 -218 t-167 -188.5t-212 -132t-263.5 -50q-104 0 -179 35.5t-119 90t-58 118.5q-7 32 -7 63t7 61zM436 -236q-2 29 15.5 53.5t54.5 24.5q25 0 47.5 -16t22.5 -57q2 -29 -20.5 -52.5t-51.5 -23.5q-27 0 -47.5 19t-20.5 52z" />
<glyph unicode="Y&#x309;" horiz-adv-x="1110" d="M-61 993q55 106 143 167t217 61q119 0 195.5 -56.5t122 -142.5t64.5 -188.5t24 -194.5q0 -12 10 -18.5t14 2.5q70 96 164 212.5t202.5 220t228.5 173t241 69.5q16 0 38.5 -10t44 -23.5t40 -27.5t26.5 -25q0 -2 -3 -10t-9 -15l-11 -13q-5 -6 -8 -5q-6 2 -35 17 q-19 9 -39 9q-12 0 -24 -3q-139 -31 -263 -101.5t-230.5 -168t-192.5 -213t-146.5 -235.5t-93 -236.5t-32.5 -214.5q0 -10 -5.5 -18.5t-27.5 -4.5q-31 4 -51.5 5t-35.5 -2t-29 -10l-34 -18q-2 -1 -3 0q-7 0 -18 11q-13 14 -9 24q37 43 74.5 118t67.5 163t47 179 q16 82 16 151q0 8 -1 16q-2 86 -26.5 172t-68.5 153.5t-110.5 109.5t-156.5 42q-80 0 -144.5 -43t-111.5 -110q-2 -6 -13.5 -5.5t-22.5 5t-20 13.5q-6 6 -7 13zM840 1231q0 4 2 13.5t6 11.5q80 33 127 80t47 88q-4 47 -27.5 60t-70.5 13q-23 0 -40.5 -3t-27.5 -3 q-6 0 -8 9.5t-2 19.5t3 20.5t9 12.5q25 6 45.5 10t53.5 4q66 0 109.5 -29.5t45.5 -76.5q2 -49 -29.5 -95.5t-74.5 -81t-88 -55t-72 -20.5q-4 0 -6 9t-2 13z" />
<glyph unicode="y&#x309;" horiz-adv-x="712" d="M-809 -498q31 -113 107.5 -180t222.5 -67q150 0 272.5 45t226 145t191.5 258t166 385q6 12 0 9t-8 -5q-29 -29 -78 -60.5t-111 -31.5q-53 0 -81.5 33t-30.5 76q0 5 -1 10q0 31 10 81q11 58 31.5 129.5t49 150.5t59.5 155q4 16 12.5 23.5t14.5 13.5q16 4 47 5t37 1 q12 0 12 -12q-33 -78 -65 -162l-58 -157q-27 -73 -42 -129t-15 -79q2 -23 12 -40t45 -17q18 0 48 18.5t58.5 43t54 51t38.5 41.5q20 27 42.5 101.5t67.5 211.5q23 68 41.5 113t38.5 45q20 -6 46 -31t30 -49q-43 -117 -97.5 -243t-95.5 -243l-72.5 -197.5t-98 -221t-129 -218 t-167 -188.5t-212 -132t-263.5 -50q-104 0 -179 35.5t-119 90t-58 118.5q-7 32 -7 63t7 61zM402 866q0 4 2 13.5t6 11.5q80 33 127 80t47 88q-4 47 -27.5 60t-70.5 13q-23 0 -40.5 -3t-27.5 -3q-6 0 -8 9.5t-2 19.5t3 20.5t9 12.5q25 6 45.5 10t53.5 4q66 0 109.5 -29.5 t45.5 -76.5q2 -49 -29.5 -95.5t-74.5 -81t-88 -55t-72 -20.5q-4 0 -6 9t-2 13z" />
<glyph unicode="Y&#x303;" horiz-adv-x="1110" d="M-61 993q55 106 143 167t217 61q119 0 195.5 -56.5t122 -142.5t64.5 -188.5t24 -194.5q0 -12 10 -18.5t14 2.5q70 96 164 212.5t202.5 220t228.5 173t241 69.5q16 0 38.5 -10t44 -23.5t40 -27.5t26.5 -25q0 -2 -3 -10t-9 -15l-11 -13q-5 -6 -8 -5q-6 2 -35 17 q-19 9 -39 9q-12 0 -24 -3q-139 -31 -263 -101.5t-230.5 -168t-192.5 -213t-146.5 -235.5t-93 -236.5t-32.5 -214.5q0 -10 -5.5 -18.5t-27.5 -4.5q-31 4 -51.5 5t-35.5 -2t-29 -10l-34 -18q-2 -1 -3 0q-7 0 -18 11q-13 14 -9 24q37 43 74.5 118t67.5 163t47 179 q16 82 16 151q0 8 -1 16q-2 86 -26.5 172t-68.5 153.5t-110.5 109.5t-156.5 42q-80 0 -144.5 -43t-111.5 -110q-2 -6 -13.5 -5.5t-22.5 5t-20 13.5q-6 6 -7 13zM621 1384q4 20 19 51t38.5 61t57.5 51.5t75 21.5q35 0 73 -25t75.5 -54.5t75.5 -54t73 -24.5t55.5 35t5.5 84 q-2 6 8.5 13t22.5 9t24.5 -2t14.5 -20q4 -37 -5 -71t-27.5 -60.5t-46 -43t-62.5 -16.5q-43 0 -85 23.5t-82 51.5t-77 50.5t-68 22.5q-23 0 -37 -12.5t-23 -31t-15 -40t-15 -37.5q-6 -10 -19 -14.5t-26.5 -2t-22.5 11.5t-7 23z" />
<glyph unicode="y&#x303;" horiz-adv-x="712" d="M-809 -498q31 -113 107.5 -180t222.5 -67q150 0 272.5 45t226 145t191.5 258t166 385q6 12 0 9t-8 -5q-29 -29 -78 -60.5t-111 -31.5q-53 0 -81.5 33t-30.5 76q0 5 -1 10q0 31 10 81q11 58 31.5 129.5t49 150.5t59.5 155q4 16 12.5 23.5t14.5 13.5q16 4 47 5t37 1 q12 0 12 -12q-33 -78 -65 -162l-58 -157q-27 -73 -42 -129t-15 -79q2 -23 12 -40t45 -17q18 0 48 18.5t58.5 43t54 51t38.5 41.5q20 27 42.5 101.5t67.5 211.5q23 68 41.5 113t38.5 45q20 -6 46 -31t30 -49q-43 -117 -97.5 -243t-95.5 -243l-72.5 -197.5t-98 -221t-129 -218 t-167 -188.5t-212 -132t-263.5 -50q-104 0 -179 35.5t-119 90t-58 118.5q-7 32 -7 63t7 61zM201 952q4 20 19 51t38.5 61t57.5 51.5t75 21.5q35 0 73 -25t75.5 -54.5t75.5 -54t73 -24.5t55.5 35t5.5 84q-2 6 8.5 13t22.5 9t24.5 -2t14.5 -20q4 -37 -5 -71t-27.5 -60.5 t-46 -43t-62.5 -16.5q-43 0 -85 23.5t-82 51.5t-77 50.5t-68 22.5q-23 0 -37 -12.5t-23 -31t-15 -40t-15 -37.5q-6 -10 -19 -14.5t-26.5 -2t-22.5 11.5t-7 23z" />
<glyph unicode="&#xe4f;&#x22;" horiz-adv-x="985" d="M113 432q0 84 31.5 153.5t84 119t121 77t144.5 27.5q74 0 142.5 -27.5t120.5 -77t83.5 -119t31.5 -153.5q0 -82 -31.5 -150.5t-83.5 -117.5t-121 -77t-142 -28q-76 0 -144.5 28t-121 77t-84 117.5t-31.5 150.5zM201 432q0 -61 22.5 -114.5t62.5 -93.5t93 -62.5t115 -22.5 q59 0 112 22.5t93 62.5t62.5 93.5t22.5 114.5t-22.5 115.5t-62.5 94.5t-93 63.5t-112 23.5q-61 0 -114.5 -23.5t-93.5 -63.5t-62.5 -94.5t-22.5 -115.5zM315 438q0 74 53.5 126t127.5 52t127 -52t53 -126q0 -78 -53.5 -129t-126.5 -51q-74 0 -127.5 51t-53.5 129zM348 1114 h105l-9 -235h-63zM391 438q0 -45 31 -75.5t74 -30.5t73.5 30.5t30.5 75.5q0 41 -30.5 72t-73.5 31t-74 -31t-31 -72zM524 1114h105l-33 -235h-64z" />
<glyph unicode="&#xe24;&#xe32;" horiz-adv-x="770" d="M-461 -504q242 -25 422 22.5t303 141.5t189.5 223t85.5 271q8 61 20 131l25 133l21 112q9 49 9 70q0 14 -16 38t-37.5 46.5t-45 38.5t-36.5 16q-86 0 -159.5 -24.5t-137.5 -63.5q27 -10 40.5 -27.5t17.5 -39.5q4 4 18 15t27 11q12 0 18 -14q-41 -51 -69.5 -100.5 t-47 -103.5t-27.5 -115.5t-9 -139.5q0 -18 7 -48t27 -30q16 0 26.5 13.5t16.5 33t9.5 41t3.5 39.5q0 63 -39 115q20 -4 49 -21.5t43 -39.5q18 -37 18 -74q0 -33 -10 -64.5t-27.5 -56.5t-40 -40t-49.5 -15q-29 0 -50 17.5t-34.5 43t-19.5 56t-6 55.5q0 66 12 123t31.5 105 t42 87t41.5 66q0 23 -23.5 47t-71.5 24l-22 39q92 74 193.5 111t224.5 37q18 0 49 -19.5t61.5 -49.5t53 -64.5t22.5 -65.5q0 -20 -8 -71l-18 -114q-10 -65 -22.5 -134.5t-18.5 -130.5q-16 -135 -75 -256t-145 -215.5t-192.5 -161t-221 -93t-230.5 -12.5t-218 82z" />
<glyph unicode="&#xe26;&#xe32;" horiz-adv-x="770" d="M-477 -504q242 -25 424 21.5t305 140.5t191.5 223t82.5 273q6 61 22 131l30 133l25 112q11 49 11 70q0 14 -16 38t-37.5 46.5t-45 38.5t-36.5 16q-94 0 -159.5 -24.5t-137.5 -63.5q23 -6 35 -23.5t18.5 -41t7.5 -49t1 -45.5q0 -25 -5.5 -71t-15.5 -101.5t-27.5 -112.5 t-42 -103.5t-56 -76t-72.5 -29.5q-25 0 -58 22.5t-33 81.5q0 31 18.5 73t65.5 61q29 10 48.5 9t35.5 -12q-43 -23 -71.5 -54.5t-28.5 -78.5q0 -23 9 -30t22 -7q23 0 41 27t34.5 69t29 93t21.5 99t13 89t4 62q0 16 -2 36.5t-9 38t-20.5 28.5t-38.5 11l-22 37q49 37 96 64.5 t97.5 46t104.5 28t120 9.5q18 0 49 -19.5t61.5 -49.5t53 -64.5t22.5 -65.5q0 -20 -11 -70l-26 -113q-14 -65 -27.5 -135.5t-19.5 -131.5q-12 -133 -68.5 -252t-142.5 -214.5t-194.5 -162t-224 -94t-232.5 -14.5t-219 81z" />
<glyph unicode="&#xfb01;" horiz-adv-x="1277" d="M-786 -506q0 16 8 39t22.5 45.5t31.5 41t36 26.5q10 4 18 -1t17 -10q-8 -14 -15 -32l-9 -36q-5 -19 -3 -44q2 -55 17.5 -126t48 -132.5t81 -103.5t115.5 -42q80 0 165 49.5t166 147.5t155.5 245.5t136.5 344.5l46 147l53 174l55 181l51 165q-66 0 -117 1t-93 4.5t-78 9.5 t-69 16q-4 29 1 50.5t20 27.5q20 -4 46.5 -11t67.5 -13.5t97.5 -11.5t136.5 -5q33 115 73 239t94 240.5t126.5 215t171.5 161.5q41 29 94 47.5t104 18.5q70 0 113 -27t53 -45q4 -6 4 -27v-45q0 -25 -2 -49t-4 -37q-2 -10 -22 -6q-8 2 -21 6q-6 35 -15 60.5t-29.5 43 t-54.5 27t-89 9.5q-86 0 -154.5 -60.5t-129 -170t-113 -263.5t-105.5 -342q12 0 64.5 1t125 5t153.5 15.5t151 29.5q27 8 52 5t30 -9q4 -10 2 -27.5t-9 -23.5q-27 -53 -54 -121t-50 -134.5t-37 -125.5t-12 -96q2 -47 30.5 -61.5t63.5 -14.5q59 0 121.5 38t119 93 t102.5 116.5t71 106.5q4 8 13 7t17.5 -7t14.5 -15t4 -16q-39 -72 -92.5 -143.5t-116.5 -129.5t-137 -94t-156 -36q-25 0 -53.5 4t-53 17.5t-41 37t-18.5 62.5q0 41 15.5 103.5t38 129t48.5 128.5l44 106q6 10 1 20t-30 4q-57 -12 -121.5 -20t-124 -13.5t-110 -7.5t-82.5 -2 l-43 -152l-40 -135l-37 -124l-36 -121q-70 -246 -169 -433.5t-210.5 -313.5t-227.5 -190.5t-218 -64.5q-55 0 -110.5 38t-99.5 101.5t-70.5 146.5t-24.5 173zM1083 1014q12 -37 47 -37q41 0 65 37t13 73q-10 41 -49 41q-43 0 -64.5 -36.5t-11.5 -77.5z" />
<glyph unicode="&#xfb02;" horiz-adv-x="1392" d="M-1182 -647q23 -55 57.5 -101.5t97 -79t158 -51t236.5 -18.5q164 0 294 54.5t231.5 156.5t178 251.5t134.5 340.5l46 147l53 174l55 181l51 165q-66 0 -117 1t-93 4.5t-78 9.5t-69 16q-4 29 1 50.5t20 27.5q20 -4 46.5 -11t67.5 -13.5t97.5 -11.5t136.5 -5q33 115 73 239 t94 240.5t126.5 215t171.5 161.5q41 29 94 47.5t104 18.5q72 0 110 -15.5t65 -62.5q2 -6 8 -22.5t12 -36.5l12 -38q6 -19 8 -32l86 166l80 145q31 55 55.5 86t46 47.5t42 20.5t45.5 4q45 0 68.5 -53.5t25.5 -120.5q4 -111 -25.5 -224.5t-82 -220t-122 -202t-144.5 -171 t-149.5 -127t-140.5 -69.5l-51 -133q-27 -70 -48 -133.5t-35.5 -115.5t-12.5 -81q2 -59 39 -82.5t90 -23.5q74 0 152.5 42t149.5 102t128 129t90 122q8 12 21.5 9t25 -11t18.5 -19.5t3 -17.5q-43 -70 -112.5 -146.5t-153.5 -141t-179.5 -106.5t-187.5 -42q-86 0 -135 48 t-51 114q-2 39 10 93t32.5 116.5t45.5 126.5l49 126q-57 -12 -126 -21t-135.5 -13.5t-121.5 -6.5t-90 -2l-43 -152l-40 -135l-37 -124l-36 -121q-76 -264 -181.5 -461t-235.5 -327t-282.5 -194.5t-320.5 -64.5q-104 0 -193 21.5t-157 65.5t-109 113t-47 163zM516 637 q12 0 63.5 1t123 5t152.5 14.5t151 28.5l36 89l27 69q12 35 36 88l53 120l66 141l74 150q-49 51 -133 90.5t-170 39.5q-78 0 -142.5 -60.5t-121.5 -170t-109.5 -263.5t-105.5 -342zM1098 715q98 45 201.5 145.5t187.5 228.5t135 269t47 266q-2 39 -10 68.5t-35 29.5 q-12 0 -26.5 -10t-35 -37.5t-51 -79l-75.5 -133.5q-25 -43 -51 -96l-52 -111l-53 -116q-27 -59 -49 -115l-109 -266z" />
<glyph unicode="B&#x35;&#x31;&#x33;DS&#x21;GN" horiz-adv-x="9580" d="M178 31q16 12 30.5 30.5l27 36t21.5 32.5t11 22l90 262l80 236l80 234l88 255q2 6 0 14t-18 8q-37 0 -82 -5t-89 -12t-82 -12.5t-61 -5.5q-43 0 -49 27q-2 16 2 49t9 43q2 0 10 -8q4 -4 10 -7t17.5 -4t32 -2t54.5 -1q43 0 80 1t75 3t82 3t101 1q127 0 226.5 -8.5t167 -36 t103.5 -79.5t36 -138q0 -41 -9.5 -89.5t-36 -93.5t-73.5 -83.5t-123 -61.5q-6 -2 -6 -6q0 -6 6 -6q45 -4 88 -20.5t77 -47.5t55.5 -80t21.5 -116q0 -72 -33 -142.5t-97.5 -126t-161.5 -90.5t-224 -35q-88 0 -149.5 16.5t-104.5 36t-68.5 36t-44.5 16.5q-10 0 -18 -10.5 t-15.5 -23.5l-16.5 -28.5t-22 -23.5q-23 0 -39 6t-30 14q-17 9 -29 21zM401 193q4 -16 28 -42t62.5 -49.5t91 -40t109.5 -16.5q84 0 160 22.5t135.5 66.5t94 107.5t34.5 145.5q0 84 -68.5 139.5t-201.5 55.5q-39 0 -79 -4.5t-89 -4.5q-6 2 -12.5 20.5t-6.5 35.5 q0 14 4.5 32.5t20.5 18.5q29 0 57.5 -5t59.5 -5q25 0 55.5 4t54.5 12q82 23 143.5 96.5t61.5 182.5q0 59 -22.5 97t-62.5 59.5t-94 29.5t-116 8q-41 0 -68.5 -16.5t-47 -44t-33 -60t-25.5 -67.5q-59 -158 -116 -340l-121 -389q-11 -33 -9 -49zM1417 131q0 10 9.5 22.5 t21.5 23.5t26.5 19.5t22.5 8.5q25 0 44 -20l43 -42q24 -23 52.5 -42t71.5 -19q45 0 109.5 28.5t123 73.5t99.5 97.5t41 101.5q0 45 -46 77t-109.5 53.5t-129 35.5t-104.5 24q-16 6 -27.5 18.5t-18 28t-6.5 31t2 25.5q12 41 35 90l45 98q23 49 42.5 97.5t25.5 87.5 q4 20 21.5 37.5t35.5 27.5q27 12 47 -6q20 -16 49 -22.5t82 -6.5q39 0 95.5 -2t110 -3t96.5 -3t55 -2q166 0 315.5 14.5t265.5 63.5h3q23 0 33 -22.5t14 -45.5q4 -16 -4.5 -29.5t-18.5 -23.5q-31 -27 -46 -55.5l-38 -75.5l-38 -86l-56 -131q-31 -74 -61.5 -160t-55.5 -172 l-18 -66q-10 -36 -14.5 -69t-0.5 -54.5t23 -23.5q6 -6 48 -11t91 -9t95.5 -6.5t62.5 -2.5q211 0 351 33t224 80t119 97.5t35 84.5q0 43 -34 76t-82 55.5t-98 35t-85 12.5q-33 0 -33 40q0 45 23 46q18 0 76.5 21.5t121 58t110.5 86t48 104.5q0 47 -48 85t-124 38 q-31 0 -59.5 -18.5t-42.5 -47.5q-6 -23 -26.5 -40t-29.5 -17q-8 0 -19 7t-21.5 16.5t-17.5 21.5t-7 20q0 23 22.5 47.5t58.5 44t82 33t93 13.5q53 0 96 -16.5t74 -42t47 -58.5t16 -66q0 -61 -28.5 -106t-69.5 -80t-87 -58l-81 -42q-41 -23 -10 -35q39 -14 79 -31.5t72.5 -42 t53 -57.5t20.5 -78q0 -76 -38 -149.5t-129 -132t-242.5 -93.5t-380.5 -35q-23 0 -85.5 2t-142.5 5.5t-166 8.5t-157.5 12t-118.5 16.5t-47 19.5q-2 0 -3 18.5t4 39t19.5 34.5t40.5 4q16 -6 48 -15t63 -16.5t55.5 -10.5t24.5 5q10 84 46 194.5t79 225.5l87 222q44 108 70 186 q20 55 -6 55q-20 0 -64 -7l-106.5 -16.5t-138.5 -16.5t-162 -7q-37 0 -88 2t-108.5 5t-116 5t-109.5 2q-33 0 -53.5 -10t-40.5 -45q-14 -25 -29.5 -57.5t-29 -64.5t-21.5 -58.5t-8 -38.5q0 -33 32.5 -54.5t81 -39t104.5 -35t104.5 -41t81 -58t32.5 -86.5q-6 -70 -59 -142.5 t-128 -133t-158 -98t-148 -37.5q-31 0 -78 17.5t-90 40t-74 47t-31 38.5zM3953 8l30 40l33 43q16 22 28.5 41.5t18.5 33.5l37 97l61 164l71 199l73 203l61 179q27 80 37 122q-2 8 -9 9.5t-13 -0.5q-25 -4 -45.5 -9.5t-44 -9.5t-54 -8t-73.5 -4q-12 0 -22.5 18.5t-15.5 41 t-4 41t7 18.5q2 0 14 -5t29.5 -11.5t39 -11.5t40.5 -5q78 0 124 3t82.5 8t77.5 8.5t109 3.5q125 0 242.5 -19.5t210 -73t147.5 -148.5t55 -249q0 -180 -62.5 -319.5t-170 -234.5t-252 -145.5t-305.5 -50.5q-84 0 -146.5 13.5t-108.5 29t-79 28.5t-55 13q-23 0 -41 -18 l-52 -51zM4196 213q-18 -43 19 -72q55 -47 131 -68.5t162 -21.5q135 0 257 48t215 136.5t148 209t55 266.5q0 104 -23.5 186t-86 138.5t-175 87t-290.5 30.5q-33 0 -53.5 -4t-30.5 -29l-172 -461zM5327 59q2 23 4 53.5t3 62.5t2 60.5t3 47.5q0 4 15 4h20q4 0 20.5 -3 t16.5 -12q-2 -12 -1 -33.5t3 -33.5q14 -78 76.5 -114t146.5 -36q61 0 126 15.5t116 47.5t83.5 80t32.5 111q0 49 -30.5 122t-120.5 167q-41 41 -71.5 76t-50 69.5t-30 72.5t-10.5 85q0 68 18.5 125t58.5 99t101.5 67t147.5 25q45 0 84 -11.5t68.5 -28t49 -36t25.5 -37.5 q-2 -37 -7 -80t-15 -74q-4 -4 -29 -2t-29 10q2 8 2 28t-4 32q-8 51 -47 80.5t-143 29.5q-35 0 -69 -13t-61.5 -37.5t-45 -58.5t-17.5 -77q0 -45 14.5 -83t38 -72.5t54.5 -68.5l61 -69l83 -93t53.5 -75t28.5 -68.5t9 -76.5q0 -90 -47 -157.5t-118.5 -111.5t-158.5 -65.5 t-167 -21.5q-66 0 -129.5 12t-118.5 37q-41 18 -45 30zM6330 41q-8 43 23 79t80 36q35 0 58.5 -23.5t27.5 -56.5q4 -43 -31 -68.5t-74 -25.5q-29 0 -53.5 15t-30.5 44zM6431 377q20 133 40.5 240.5t41 200.5t44 175t50.5 162q25 96 127 96q25 0 52.5 -6t45.5 -12 q12 -6 12 -15.5t-8 -9.5q-20 0 -39.5 -14t-29.5 -31q-43 -55 -76 -136t-60.5 -183.5t-54.5 -220.5l-57 -252q-2 -6 -16.5 -8.5t-30 -1.5t-28.5 5.5t-13 10.5zM6822 360q0 145 63.5 299t182 280t285.5 207t372 81q47 0 102.5 -6.5t109.5 -19.5t103.5 -34.5t81.5 -50.5 q-4 -49 -15 -115.5t-24 -117.5q-2 0 -8 -2q-4 -2 -9 -3t-15 -1q-8 0 -21 4q-6 2 -8 4q0 16 1 32.5t-1 36.5q-4 51 -32.5 86t-78 56.5t-114 32t-137.5 10.5q-137 0 -267.5 -73t-230.5 -187.5t-160.5 -255t-60.5 -277.5q0 -141 93 -223t259 -82q82 0 162 25.5t150.5 65.5 t130 90t103.5 97.5t69.5 88.5t29.5 63q6 31 1 43t-34 12q-45 0 -109.5 -6t-142.5 -10l2 70q55 0 130 1t153 5t148.5 12t115.5 23q4 -4 5 -29t-3 -33q-20 -6 -44.5 -12t-45 -14.5t-36 -20.5t-21.5 -31q-66 -205 -132.5 -361.5t-162.5 -281.5q-51 -66 -114.5 -123t-141.5 -98 t-175 -64.5t-216 -23.5q-39 0 -77 5t-89 22q-2 23 -2 43q0 16 2 31.5t6 23.5q35 -16 76 -30.5t80 -14.5q141 0 264 58.5t220 148.5t166 197.5t101 207.5q-2 20 -16 6q-20 -23 -68.5 -66.5t-119 -86.5t-160.5 -76t-199 -35q-229 0 -353 106.5t-124 290.5zM8266 51 q-2 49 20.5 128t57 170t76.5 190l78 188q36 90 60.5 167t24.5 124q0 33 -10 54.5t-51 21.5q-33 0 -66 -2t-61 -5q-6 0 -10.5 10.5t-8.5 25t-7 27.5t-7 21q0 10 10 11q29 -10 68 -13.5t80 -3.5q53 0 94 8.5t72 20.5q16 0 26 -27l98 -222l111 -240l115 -244l108 -232 q10 -23 16.5 -28.5t18.5 -5.5q6 0 11.5 5t9.5 21q25 84 56 207l70 258q38 135 82 269.5t96 242t112.5 174t127.5 66.5q8 0 32 -11l47 -21q24 -11 38 -21.5t4 -10.5q-80 0 -146.5 -63.5t-123.5 -170t-105.5 -245.5t-92.5 -294t-84 -313l-79 -302q-16 -8 -36.5 -9.5t-40.5 9.5 l-98 227l-121 283l-122 277q-60 132 -104 212q-16 29 -30.5 24t-24.5 -36l-105 -271q-47 -125 -82.5 -243.5t-61.5 -240.5t-40 -261h-8q-8 4 -23 16l-28 26q-14 13 -26.5 27.5t-16.5 24.5z" />
<glyph unicode=" "  horiz-adv-x="512" />
<glyph unicode="&#x09;" horiz-adv-x="512" />
<glyph unicode="&#xa0;" horiz-adv-x="512" />
<glyph unicode="!" horiz-adv-x="675" d="M219 41q-10 43 19.5 79t78.5 36q35 0 59.5 -23.5t29.5 -56.5q6 -43 -28 -68.5t-73 -25.5q-29 0 -54.5 15t-31.5 44zM307 377q16 133 32.5 240.5t34 200.5t38 175t45.5 162q23 96 123 96q25 0 52 -6t46 -12q14 -6 14 -15.5t-8 -9.5q-20 0 -38.5 -14t-29.5 -31 q-41 -55 -70.5 -136t-54 -183.5t-47.5 -220.5l-49 -252q-2 -6 -16 -8.5t-29.5 -1.5t-29 5.5t-13.5 10.5z" />
<glyph unicode="&#x22;" horiz-adv-x="1005" d="M207 854l61 138l53 119l52 120l61 141q12 29 43 29q12 0 24.5 -5t21.5 -14.5t13.5 -20.5t-4.5 -26l-82 -146l-63 -115l-58 -112q-30 -58 -67 -143q-2 -6 -14 -6t-22.5 4t-17.5 13.5t-1 23.5zM446 836l51 115l43 106l49 125l70 170q10 25 48 24q18 0 43.5 -15t13.5 -40 l-82 -151l-56 -104l-55 -104q-29 -56 -73 -153q-4 -6 -14.5 -7t-19.5 3t-15.5 12.5t-2.5 18.5z" />
<glyph unicode="#" horiz-adv-x="944" d="M108.5 379q2.5 27 6.5 39q6 16 15 19t20 5q16 2 41.5 4.5t46.5 6.5q23 72 43 124t43 123q-31 -4 -61 -7t-58 -7q-10 0 -10 8q-2 6 4 26.5t14 37.5q4 16 29 16q23 0 47 1t53 1q20 59 36.5 116.5l29.5 104.5q6 18 23.5 26.5t33.5 9.5t28.5 -4t8.5 -13q-27 -55 -47 -118 l-41 -122q43 4 86 4t86 4l36 94q17 46 30 85l24 68l14 42q4 14 29.5 18.5t36.5 0.5q10 -4 13 -9.5t-3 -21.5q0 -4 -11.5 -28.5t-26.5 -63.5l-34 -86q-18 -47 -35 -99q41 2 67 4l52 5q12 0 13 -15q-10 -16 -15.5 -33.5t-13.5 -29.5q-6 -10 -23.5 -6t-58.5 4h-22q-11 0 -21 -2 l-37 -121l-37 -121q55 0 100.5 -6t49.5 -33q4 -12 -3.5 -29.5l-17.5 -40.5q-16 16 -48 21.5t-109 5.5l-39 -177l-31 -153q-8 -23 -19 -22q-4 0 -15 4t-22.5 10t-20.5 12.5t-9 8.5q-4 8 -3 15t3 15q23 68 43 139l41 148q-39 0 -84 -3t-90 -7q-29 -100 -49.5 -180t-30.5 -154 q-6 -33 -23 -33q-10 0 -36.5 11.5t-32.5 23.5q-4 12 2 25q25 72 43 143.5t49 157.5q-41 -4 -65.5 -11.5t-34.5 -7.5q-5 0 -2.5 27zM315 459q39 6 86.5 6t87.5 4l19 66l15 55q7 27 16.5 55.5t19.5 65.5h-88q-43 0 -74 -6l-43 -119q-19 -53 -39 -127z" />
<glyph unicode="$" horiz-adv-x="1089" d="M47 59q2 23 3 53.5t1 62.5t1 60.5t1 47.5q0 4 16 4h19q4 0 20.5 -3t16.5 -12q-2 -12 0 -33.5t4 -33.5q16 -78 80.5 -114t148.5 -36h31q27 141 60.5 281.5t72.5 281.5q-37 37 -64.5 69t-46 64.5t-27.5 69.5t-11 80q-2 68 15.5 125t55 99t98 67t146.5 25q14 0 23 -3l57 163 l59 165q6 6 16.5 8t22 0t20.5 -7t11 -13l-61 -167l-58 -161q55 -16 93 -45t49 -53q0 -37 -4.5 -80t-14.5 -74q-4 -4 -28.5 -2t-28.5 10q2 8 1 28t-5 32q-8 35 -27.5 59.5t-64.5 38.5q-39 -115 -72 -223l-64 -217q6 -6 12.5 -13.5t12.5 -13.5q51 -53 86 -93t56.5 -75 t31.5 -68.5t12 -76.5q2 -76 -28.5 -134.5t-81.5 -101.5t-118 -70.5t-136 -39.5q-20 -111 -36.5 -224.5t-31.5 -236.5q-2 -12 -13 -14t-24.5 2t-26 13t-16.5 21q12 109 27.5 215.5t36.5 215.5q-10 -2 -31 -2q-66 0 -129 12t-121 37q-41 16 -47 30zM459 942q4 -61 30.5 -110.5 t67.5 -96.5l58 196q30 97 65 195q-10 2 -17 2h-18q-35 0 -68.5 -13t-60.5 -37.5t-42 -58.5t-15 -77zM473 68q47 12 90 32.5t76 50t51.5 69.5t16.5 89q-2 43 -28 106.5t-97 143.5l-59 -244q-27 -120 -50 -247z" />
<glyph unicode="%" horiz-adv-x="1337" d="M236 727q-2 66 35.5 130.5t92 116.5t109.5 84t86 32q37 0 67.5 -19.5t53 -50.5t36 -70t15.5 -76q2 -63 -30.5 -117.5t-84 -92t-114 -59t-121.5 -21.5q-61 0 -101 36.5t-44 106.5zM322 -12q14 23 69 96l133 173l168 212l173 214l150 180l95 110q23 27 35 40t29 13h2 q23 0 46 -10t27 -27q4 -14 -4 -27.5t-22 -21.5q-41 -20 -99.5 -80.5t-126 -140.5l-138.5 -172l-135 -177l-116 -154q-51 -69 -82 -103q-16 -18 -31.5 -44t-27.5 -52.5t-21 -48.5l-12 -31q-4 -8 -25.5 -7.5t-44 9t-36.5 22t-6 27.5zM334 731q2 -29 21.5 -48t54.5 -19 q37 0 77.5 15t74.5 43t56.5 64.5t20.5 79.5q-2 41 -18.5 81t-57.5 40h-2q-47 4 -89 -26.5t-72.5 -73.5t-48 -87t-17.5 -69zM831 145q0 33 26 89.5t67 109.5t92 93t100 40q41 0 81 -13t70.5 -37t51 -53.5t20.5 -64.5q2 -53 -35.5 -111.5t-92 -107.5t-115 -81t-103.5 -32 q-16 0 -42.5 8.5t-53.5 29t-45.5 52t-20.5 78.5zM922 156q2 -35 20.5 -60.5t52.5 -25.5q39 0 83 25.5t81 62.5t61.5 79t22.5 74q0 12 -11 28.5t-26.5 30t-34 22.5t-34.5 9q-37 0 -76 -27.5t-71 -65.5t-51 -79.5t-17 -72.5z" />
<glyph unicode="&#x26;" horiz-adv-x="1634" d="M135 401q-6 137 42 259t140.5 213.5t223.5 143.5t293 52q4 12 16 29.5t28.5 33t36 26.5t39.5 11q25 0 41.5 -12t26.5 -30.5t13 -40t-1 -39.5q68 -18 125.5 -56.5t99 -93.5t66.5 -122.5t27 -143.5q4 -125 -47.5 -238.5t-141.5 -183.5q70 -41 156 -41q37 0 79 14.5t77.5 42 t58 66.5t20.5 88q-2 43 -15 83t-34.5 70.5t-50.5 49t-61 18.5q-4 0 -5.5 12.5t1.5 12.5q18 0 39.5 6t33.5 6q37 0 65.5 -21.5t49 -55.5t31 -76t12.5 -81q2 -55 -17.5 -107t-59.5 -94t-102.5 -67.5t-148.5 -25.5q-47 0 -98 15t-92 40q-63 -39 -133 -60.5t-156 -21.5 q-68 0 -129 16.5t-108.5 52t-76 91t-32.5 133.5q-2 76 29.5 135t81 108.5t108.5 91.5t113 85q2 53 6 108t14 109q-117 0 -225.5 -45t-191.5 -126t-132 -190.5t-45 -238.5q4 -127 50.5 -225.5t126 -166t187 -102.5t234.5 -35q106 0 225 36t218 124q6 4 14 -4t15.5 -22.5 t10.5 -29t-1 -20.5q-20 -27 -66.5 -55.5t-111 -52t-143.5 -39t-165 -15.5q-145 0 -268 40t-214 116t-144.5 187.5t-57.5 252.5zM559 356q2 -51 24.5 -91t56.5 -66.5t78 -40t89 -13.5q53 0 116.5 11.5t116.5 46.5q-115 84 -173 219t-68 291q-41 -47 -84 -86t-78 -79 t-57.5 -86.5t-20.5 -105.5zM850 752q6 -80 21.5 -154t45 -138.5t75.5 -118.5t116 -97q98 82 137 172t35 188q-2 63 -19.5 123.5t-49 112t-80 90.5t-109.5 57q-12 -49 -60.5 -115.5t-111.5 -119.5zM852 831q37 29 70.5 77t44.5 93l-48 9q-24 4 -51 4q-14 -51 -13 -91.5 t-3 -91.5zM881 1071q27 0 51 -2t51 -8q4 27 -2 48t-31 21q-20 0 -39.5 -18t-29.5 -41z" />
<glyph unicode="'" horiz-adv-x="669" d="M143 789.5q-4 7.5 2 19.5q55 164 97.5 314.5t109.5 306.5q14 27 43 26q12 0 35 -10t25 -27q-23 -68 -59 -145l-74 -159l-76 -163q-37 -82 -66 -161q-2 -8 -10 -11.5t-15.5 -0.5t-11.5 10.5z" />
<glyph unicode="(" horiz-adv-x="890" d="M213 379q-6 172 23.5 344t97 328.5t176 290t260.5 225.5q14 0 43 -29q33 -27 21 -33q-100 -53 -177 -136t-134.5 -181t-96.5 -207t-62.5 -215.5t-31.5 -203.5t-6 -175q2 -63 16 -137t43 -143.5t72 -126t100 -86.5q14 -6 2 -37q-8 -33 -18 -23q-84 37 -144.5 95.5 t-100.5 129t-59.5 152.5t-23.5 168z" />
<glyph unicode=")" horiz-adv-x="1247" d="M403 -100q143 63 247 183t169.5 267.5t94 308t22.5 308.5q-4 150 -61.5 290t-161.5 228q-10 8 8 41q20 33 31 26q70 -45 124 -115.5t91 -152.5t56 -170t21 -172q4 -102 -11 -215t-49 -224.5t-85 -217t-118.5 -194.5t-150.5 -155.5t-181 -99.5q-20 0 -39 29q-23 29 -7 35z " />
<glyph unicode="*" horiz-adv-x="780" d="M96 956q-2 6 6.5 18.5t14.5 14.5q18 0 65 3t88 3h49q18 0 9 17q-10 10 -29 26l-43 39l-78 78q-10 12 -3 27.5t24 15.5q20 0 34 -24q29 -29 64 -78l30 -42q11 -15 15 -24q12 -16 13 -13t5 13q12 20 27 78q6 29 12.5 54.5t10.5 47.5q4 25 12 31t24 6q14 0 26.5 -16.5 t2.5 -32.5q-12 -18 -25.5 -43t-24.5 -49l-22 -47q-10 -23 -16 -35q-8 -27 25 -18q14 2 37 6l47 8q25 4 46 8t31 8q51 8 58 -22q2 -12 -3 -25.5t-30 -11.5q-23 2 -46.5 3t-49.5 1h-92q-23 0 -2 -18l41 -38l47 -44q27 -23 42 -41.5t23 -30.5q18 -35 -8 -43q-25 -6 -41 18 q-4 6 -17 24l-36 46l-41 53l-35 45q-12 16 -23 -8q-4 -18 -10 -40.5t-11 -47.5l-9 -46q-4 -22 -6 -38q-6 -37 -23 -37q-14 0 -30.5 4t-18.5 17q-2 10 8 41l15 30l24 50q12 27 23.5 48t13.5 27q14 20 -10 19q-6 0 -30 -6l-54 -15q-31 -8 -61.5 -15t-47.5 -9q-16 0 -26.5 10 t-10.5 20z" />
<glyph unicode="+" horiz-adv-x="819" d="M59 307l4 72q20 -4 92 -3t171 -3q10 66 17 130t15 122h76q-12 -47 -21.5 -116l-19.5 -136h81q42 0 82 -1t74 -3t54 -7l-6 -71q-59 12 -138 16t-155 4q-12 -88 -16 -152.5t-11 -125.5h-86l11 58q6 36 11 75t11 78t10 69h-55q-35 0 -74 -1t-74 -2t-53 -3z" />
<glyph unicode="," horiz-adv-x="645" d="M35 -381q-2 14 6 25q98 154 185 315l175 328q6 20 29 20q10 0 22.5 -16.5t28.5 -77.5q10 -31 -12 -55l-113 -151l-97 -129l-91 -126l-96 -139q-2 -6 -15.5 -11.5t-21.5 17.5z" />
<glyph unicode="-" horiz-adv-x="970" d="M211 403q-4 41 29 41q43 0 110.5 1t136 1t130 1.5t94.5 1.5q37 0 41 -39q0 -33 -37 -35l-471 -4q-33 -1 -33 32z" />
<glyph unicode="." horiz-adv-x="706" d="M266 66q-2 49 24.5 76.5t71.5 27.5q29 0 49.5 -24.5t22.5 -57.5t-17.5 -68.5t-74.5 -35.5q-35 0 -54.5 24.5t-21.5 57.5z" />
<glyph unicode="/" horiz-adv-x="1130" d="M360 -483q8 49 30 151.5l53 238.5l70 298l78 333l81 340l77 319l66 274l51 204q0 18 45 29q47 10 54 -21q0 20 -20.5 -48t-53.5 -198l-75 -308l-87 -370l-89 -390l-81 -366q-37 -169 -62.5 -297t-33.5 -185q-6 -20 -53 -25q-48 -4 -50 21z" />
<glyph unicode="0" horiz-adv-x="819" d="M41 211q-2 61 16.5 137t51 150.5t75.5 143.5t90 118q31 33 65 62.5t66.5 53t60.5 37t46 13.5q10 0 18.5 -5.5t14.5 -11.5q10 -6 37 -6q35 0 64.5 -19.5t51 -51t33.5 -71.5t14 -83v-2q-2 -61 -20 -138t-53 -155t-82 -151.5t-104.5 -131t-123 -92.5t-135.5 -35 q-43 0 -76.5 23.5t-57 59.5t-37 77t-15.5 78zM152 223q2 -49 13 -81.5t26.5 -52t32 -27t26.5 -7.5q53 0 102 34t92 88t79 123t61.5 138.5t41 134t15.5 109.5v2q0 23 -5 51.5t-16.5 53t-30 41t-46.5 16.5q-23 0 -31 -19q-4 -16 -14.5 -28.5t-38.5 -14.5q-29 -2 -57.5 -18 t-69.5 -64q-31 -35 -65 -90t-59.5 -119.5t-41.5 -134t-14 -135.5z" />
<glyph unicode="1" horiz-adv-x="819" d="M129 688q0 14 31 23q20 6 53 17l73 26q40 14 84 32.5t83 40.5q18 12 34.5 31t33 35l31.5 29.5t32 15.5h2q20 0 31.5 -20.5t15.5 -43.5q4 -16 -4 -28t-19 -23q-29 -25 -41 -51l-32 -74q-12 -27 -31 -74l-42 -112q-24 -63 -47.5 -138t-43.5 -157q-8 -29 -7 -53.5t5 -45 t9 -33.5t5 -19q0 -12 -14.5 -31t-35 -35t-41 -28.5t-32.5 -12.5q-6 0 -14 16.5t-4 61.5q6 80 25.5 159.5t45 158.5t53 156t50.5 151q10 25 7 38t-13 13q-20 0 -43 -13.5t-43.5 -30t-39 -29.5t-28.5 -13t-31.5 6t-43 15t-38 19.5t-16.5 20.5z" />
<glyph unicode="2" horiz-adv-x="819" d="M41 55q-2 10 11.5 23.5t27.5 21.5q59 33 127.5 93.5t135.5 128t125 134.5l95 109q47 55 64.5 94t15.5 74q-2 49 -31.5 75t-68.5 26q-29 0 -65 -16.5t-68.5 -43t-58 -57.5t-32.5 -62q-2 -14 -17 -16t-32.5 5t-30 20.5t-12.5 27.5q-2 39 32 80t85 74t109.5 53.5t107.5 20.5 q78 0 131 -46.5t58 -130.5q0 -35 -12.5 -69.5t-33 -67.5t-42.5 -61l-41 -51q-33 -39 -89 -96l-111 -111l-100 -102q-44 -46 -57 -64q-8 -18 62 -25q18 -2 42.5 -3t51.5 -1h50h38q72 0 116 12.5t66 12.5q12 0 21.5 -11.5t9.5 -15.5q0 -10 -10.5 -27.5t-24.5 -35t-31.5 -29.5 t-31.5 -12t-27.5 4t-36 8t-58.5 8t-98 4q-102 0 -150 1t-77 1q-35 -2 -53.5 -11t-24.5 -9t-16 8t-19.5 19.5t-15.5 21.5t-6 14z" />
<glyph unicode="3" horiz-adv-x="819" d="M61 43q0 6 8.5 16.5t22.5 20.5t34.5 17t41.5 7q10 0 23 -10l29 -22q15 -12 32.5 -22.5t32.5 -10.5q51 0 111.5 23.5t111.5 58.5t85 75t34 72q-2 41 -31 72t-71 53.5t-86 33.5t-77 11q-14 0 -23 8.5t-11 30.5q0 18 5 30.5t17 12.5q18 0 65.5 20.5t96.5 51.5t87 68.5 t36 74.5q-2 47 -46 82t-116 35q-29 0 -56.5 -16.5t-39.5 -44.5q-6 -20 -24.5 -38t-26.5 -18q-14 0 -39 22.5t-25 41.5q0 20 20.5 43.5t54.5 43t77 32t88 12.5q49 0 91 -15.5t71.5 -41t46 -56.5t18.5 -61q0 -39 -17.5 -75t-46 -65.5t-63.5 -53t-67 -40.5q-41 -20 -9 -33 q37 -14 71 -30.5t60.5 -39t43 -54t18.5 -74.5q2 -74 -49.5 -135.5t-128 -106.5t-164.5 -70.5t-160 -25.5q-66 0 -111 29.5t-45 60.5z" />
<glyph unicode="4" horiz-adv-x="819" d="M45 379q-2 29 26.5 72t73.5 90t101.5 96t112 91t105.5 76t83 50q25 12 35 21.5l20 19.5l31 30q14 13 31 13q8 0 15 -10t13 -23.5t8 -27t2 -19.5q0 -16 -8 -21.5t-16 -9.5q-25 -16 -44.5 -75.5t-34.5 -130t-26.5 -138t-21.5 -98.5q-8 -23 8 -23q41 0 84 12.5t78 12.5 q16 0 21.5 -13.5t3 -28.5t-8.5 -29.5t-10 -18.5q-8 -8 -30.5 -10t-49 -1t-51.5 3t-39 0q-39 -6 -49 -29q-16 -68 -27.5 -142.5t-9.5 -119.5q0 -20 -17.5 -33.5t-38 -18.5t-39 -2t-18.5 15q-2 47 17.5 119t42.5 174q4 10 3 17t-18 7q-143 0 -217.5 13.5t-97.5 27.5 q-43 23 -43 62zM162 385q10 -10 70.5 -20.5t189.5 -10.5q25 0 33 31q10 33 21 80l22 94l19 89q9 42 15 65q12 29 1 33t-33 -9q-14 -8 -48 -32.5t-75 -59.5l-84 -75q-43 -40 -76 -76.5t-49 -65.5t-6 -43z" />
<glyph unicode="5" horiz-adv-x="819" d="M-14 104q0 8 7 20.5t19.5 23t24.5 18.5t20 8q25 0 41 -18l35 -40q18 -22 43 -40.5t66 -18.5q43 0 91 19.5t88 52.5t66.5 76t24.5 88q-2 43 -27.5 72.5t-64.5 50t-83 35t-81 24.5q-33 10 -44 44t-5 52q10 41 26 81l33 80q16 40 29.5 79t17.5 76q4 18 20.5 34.5t33.5 26.5 q25 10 45 -6q20 -14 47.5 -20.5t79.5 -6.5q37 0 75.5 8.5t72.5 18.5l61 19q27 8 38 8q10 0 10.5 -13.5t-6 -30t-17.5 -31.5t-28 -20q-68 -20 -131 -33.5t-161 -13.5q-31 0 -49.5 -9t-38.5 -44q-25 -47 -41.5 -94t-16.5 -74q0 -31 23.5 -51t57.5 -36.5t73 -33t72.5 -39 t56 -55.5t24.5 -82q-2 -68 -39.5 -129t-94 -108t-123 -76t-130.5 -29q-31 0 -71.5 16.5t-78.5 39t-64.5 45t-26.5 36.5z" />
<glyph unicode="6" horiz-adv-x="819" d="M23 295q-2 53 17 122.5t55 143.5t90.5 144.5t122 127t149.5 90t174 33.5q18 0 39.5 -8t39 -19t30 -24.5t12.5 -23.5q2 -16 -21.5 -35t-52.5 -29q-18 -6 -27.5 -2t-21.5 16q-29 33 -72 33q-29 0 -73 -23.5t-92 -61.5t-95 -88t-83 -102t-57.5 -103.5t-17.5 -92.5 q0 -8 4 -15t15 1q49 41 113.5 74.5t123.5 33.5q43 0 82 -15t68.5 -40.5t47 -61.5t19.5 -77q2 -59 -28.5 -115.5t-77.5 -100.5t-104.5 -70.5t-110.5 -26.5q-63 0 -112.5 27.5t-83.5 72.5t-52 101.5t-20 113.5zM135 227q0 -31 15.5 -60.5t39 -51t51 -34.5t54.5 -13 q29 0 64.5 18t68.5 48t55.5 69t20.5 82q-2 37 -34 76.5t-91 39.5q-33 -4 -75 -21.5t-81 -42t-64.5 -53t-23.5 -57.5z" />
<glyph unicode="7" horiz-adv-x="819" d="M63 -20q0 18 12.5 41.5t32 49l42 52.5t40.5 51l123 168l113 166l87 135l48 76q25 35 29 52t4 34q0 18 -53 22q-12 0 -30.5 1t-40.5 1h-42h-35q-68 0 -104.5 -6t-57 -14t-28.5 -14.5t-21 -6.5q-8 0 -20 10.5t-24.5 26t-22 34t-9.5 32.5q0 16 22 20t52 4q14 0 57.5 -5 t104.5 -5q29 0 76 1l96 2q49 1 91 2t59 1q16 0 29.5 -12t21.5 -28.5t9 -34t-5 -29.5q-47 -86 -111 -183l-129 -193l-126 -185q-60 -90 -101 -162q-25 -43 -34 -77t-12 -57.5t-5 -36.5t-13 -13q-8 0 -28.5 5t-42 15t-38 26t-16.5 34z" />
<glyph unicode="8" horiz-adv-x="819" d="M37 188q-2 43 19.5 78t56 65.5t76.5 57.5l81 53q27 14 -2 35q-49 43 -67.5 82t-18.5 70q-2 47 22.5 88t61.5 74.5t78 60.5t74 43q29 12 22 23q-6 10 1.5 20t20.5 19.5t28.5 14.5t23.5 5q25 0 57 -25q29 -20 60 -44.5t56.5 -54.5t41.5 -63.5t19 -76.5q2 -39 -24 -75 t-62.5 -68.5t-77.5 -59.5l-70 -45q-27 -18 -6 -35q55 -47 76.5 -92t23.5 -80q2 -63 -32.5 -114.5t-89 -85t-116 -52t-114.5 -18.5q-33 0 -71 17.5t-70.5 45t-54 64t-23.5 73.5zM135 190q0 -25 15.5 -45t39 -35.5t50 -23.5t49.5 -8h2q29 0 67.5 12t74.5 33.5t59.5 51.5 t21.5 63q0 31 -24.5 68.5t-47.5 60.5q-29 29 -47 37t-26 8t-36 -14.5t-61 -37.5q-53 -39 -96 -84t-41 -86zM270 645q2 -18 29 -58t80 -81q12 -10 24.5 -8t22.5 6q25 10 63.5 32.5t76.5 51t64.5 60.5t24.5 61q0 18 -12 36.5t-29.5 37t-38 33.5t-36.5 24q-20 12 -62 -6 q-31 -12 -67.5 -34t-67.5 -47.5t-51.5 -53t-20.5 -52.5v-2z" />
<glyph unicode="9" horiz-adv-x="819" d="M61 45q0 10 18.5 13t45.5 3h56q30 0 48 7q86 25 156 76t121 116.5t80.5 135t34.5 130.5q-2 27 -33 2q-20 -18 -51 -37.5t-65 -36t-69.5 -27.5t-68.5 -11q-66 0 -112 38t-50 124q-2 66 27.5 127t79 110t113 79t126.5 30q57 0 95 -15.5t62.5 -45t37 -70.5t18.5 -91v-2 q2 -66 -10 -139.5t-35 -130.5q-59 -154 -160.5 -269.5t-246.5 -170.5q-66 -23 -96.5 -37t-53.5 -14q-10 0 -22.5 11t-22.5 27.5t-16.5 35t-6.5 32.5zM272 598q2 -41 22.5 -66.5t49.5 -25.5q31 0 81 19.5t98 50t83 70.5t33 81q-2 59 -37 86t-88 27q-43 0 -87 -20.5t-79 -54.5 t-56.5 -78t-19.5 -89z" />
<glyph unicode=":" horiz-adv-x="735" d="M168 35q-16 61 15.5 107t82.5 46q16 0 40 -11t32 -42q0 -14 -4 -40.5t-19.5 -51.5t-36 -42t-45.5 -17q-20 0 -41.5 13t-23.5 38zM322 541q-14 61 18.5 107t83.5 46q16 0 38.5 -10t31.5 -41q2 -16 -3.5 -42t-20.5 -50.5t-35.5 -41.5t-45.5 -17q-20 0 -41.5 12t-25.5 37z " />
<glyph unicode=";" horiz-adv-x="710" d="M-74 -381q-2 14 8 25l314 589q6 20 31 21q8 0 21 -16.5t30 -77.5q8 -29 -13 -56l-71 -97l-107 -146l-104 -148q-49 -70 -68 -100q-2 -6 -17.5 -11.5t-23.5 17.5zM314 603q5 28 19.5 49.5t37 33.5t47.5 12q16 0 38.5 -11t28.5 -42q4 -16 -3 -41.5t-20 -49.5t-34.5 -41 t-46.5 -17q-20 0 -41 12t-25 37q-6 30 -1 58z" />
<glyph unicode="&#x3c;" horiz-adv-x="1228" d="M319 424q16 2 59.5 15.5t102.5 33.5l130 45l139 50l129 50l104 41l27 -90q-39 -14 -115 -39l-161 -51l-169 -53l-139 -45q51 -14 120 -39l138 -51q70 -27 130 -52.5t97 -43.5l-18 -82q-47 25 -123 59.5l-158 68.5l-159 63q-78 30 -129 44z" />
<glyph unicode="=" horiz-adv-x="819" d="M92 250l8 69h537l-2 -69h-543zM113 473l6 70h520l-6 -70h-520z" />
<glyph unicode="&#x3e;" horiz-adv-x="1228" d="M336 201l123 40l164 55l169 58l138 47q-47 8 -119 29t-143 45l-133 46q-61 22 -91 30l33 78q45 -18 116 -44t149 -51l157 -51q78 -25 133 -39l4 -96q-14 0 -58 -13t-104 -34l-130 -46l-140 -51l-132 -51l-107 -44z" />
<glyph unicode="?" horiz-adv-x="722" d="M203 55q0 35 23.5 57.5t52.5 22.5q35 0 64.5 -24.5t31.5 -65.5q0 -18 -8.5 -32.5t-22.5 -25t-29.5 -15.5t-29.5 -5h-2q-23 0 -50.5 18.5t-29.5 69.5zM223 444q-2 43 25.5 77t68.5 62.5t89.5 53.5t90.5 50.5t69.5 52t25.5 59.5q-2 25 -31 41t-47 16q-20 0 -37.5 -10 t-31 -22.5t-22.5 -22.5t-15 -10q-12 0 -30 5t-33 14t-26.5 21.5t-11.5 26.5q0 12 23.5 26.5t56.5 27t65.5 19.5t49.5 7q29 0 61.5 -9t61 -25.5t48 -41t21.5 -55.5q2 -41 -32.5 -82t-77.5 -72q-35 -23 -83 -46t-92 -49t-75 -53.5t-29 -58.5q2 -41 29.5 -66.5t44.5 -25.5 q25 0 38 14.5t23 14.5q20 0 45 -14.5t27 -30.5q0 -8 -16.5 -19.5t-39 -20.5t-47 -15.5t-40.5 -6.5q-27 0 -53.5 14.5t-46 38t-33 53t-13.5 62.5z" />
<glyph unicode="@" horiz-adv-x="1298" d="M229 268q-6 147 55.5 274.5t163 221.5t228.5 147.5t256 53.5h2q90 0 162.5 -32t125 -85t83 -123t32.5 -145q2 -80 -26.5 -155t-78.5 -133.5t-116.5 -94t-140.5 -35.5q-35 0 -70 28.5t-45 65.5q-4 23 -5 43t-1 33q0 10 -4 14t-10 -4l-52 -50q-33 -32 -71.5 -62.5 t-79.5 -53t-76 -22.5q-12 0 -32.5 17t-22.5 62q-2 57 37 140.5t100.5 161t136 133t144.5 55.5q14 0 25.5 -11.5t15.5 -21.5q6 -12 24 -2q6 6 11.5 8t17.5 -6q14 -10 22.5 -20.5t-2.5 -28.5q-43 -76 -70.5 -148.5t-31.5 -136.5q-4 -47 14.5 -83.5t53.5 -36.5q43 0 87 26.5 t80.5 71.5t59 106.5t20.5 130.5q-2 74 -30.5 132.5t-76.5 98.5t-112.5 61.5t-140.5 21.5q-104 0 -208.5 -49.5t-188.5 -132t-135.5 -188t-47.5 -220.5q6 -172 108.5 -267.5t299.5 -95.5q39 0 87 10.5t93 25t82 29.5t53 26q6 4 12.5 -1.5t10.5 -13.5t5 -16t-3 -12 q-98 -76 -203.5 -96.5t-212.5 -20.5q-84 0 -157.5 33.5t-130 89t-89.5 129t-37 153.5zM600 273.5q4 -15.5 16 -15.5q35 0 76 34t81 81t74 95t52 79q6 10 12.5 24.5t1.5 24.5q-2 12 -12 23.5t-29 11.5h-2q-43 -12 -87 -56.5t-81.5 -97.5t-64.5 -100t-33 -66q-8 -22 -4 -37.5z " />
<glyph unicode="A" horiz-adv-x="1658" d="M-109 311v18q0 76 31 144q35 76 84 127q4 2 25.5 -6t27.5 -12q-16 -20 -29.5 -51t-22.5 -64t-14 -67q-4 -24 -4 -46q0 -9 1 -18q2 -55 16 -104.5t43 -87.5t76 -60.5t113 -22.5q84 0 151.5 20.5t131 64.5t129 112t141.5 162q-94 0 -99 18q0 6 3 18.5t8.5 26t10.5 24.5 t7 11q20 -10 55 -14t70 -6l110 146l102 137l102 143l114 161q-20 -6 -68.5 -18t-99.5 -12q-61 0 -126 18.5t-128.5 40t-123.5 38.5t-116 17q-61 0 -109 -17t-79 -56t-43 -103q-7 -35 -7 -77q0 -35 5 -76q0 -6 -8.5 -7.5t-19.5 -1.5t-20 2.5t-9 4.5q-14 58 -15 112q0 24 3 47 q9 76 49 133.5t109 92t165 34.5q74 0 144.5 -20t139 -45t134 -45.5t131.5 -20.5q27 0 60.5 10.5t53.5 39.5l55 71q28 35 66 35q43 0 75 -14.5t38 -36.5q2 -10 -15.5 -32.5t-27.5 -45.5q-12 12 -39 22.5t-39 10.5q-41 0 -50 -40t-13 -102q-12 -131 -18 -257q-4 -105 -4 -198 v-37q1 -110 10 -199t24 -150q12 -53 44 -83t58 -30q12 0 32.5 9.5t42 21.5t40 26.5t29.5 24.5q4 0 7 -7t6 -17q4 -13 4 -23q0 -5 -1 -6q-14 -18 -40 -41t-54.5 -42.5t-59 -32.5t-57.5 -13q-39 0 -78 30.5t-51 77.5q-12 49 -18.5 109.5t-12.5 157.5q0 18 -19.5 38.5 t-41.5 20.5q-14 0 -47 -1t-75 -1t-90 -1t-95 -1q-74 -106 -139.5 -189.5t-138.5 -140.5t-159 -87t-198 -30q-86 0 -150.5 29t-109.5 76t-69 108.5t-26 124.5zM932 492q41 -2 92 -3.5t97 -1.5t81 2.5t43 2.5q4 98 10.5 213.5t28.5 255.5q0 6 -3 11q-1 2 -3 1q-4 0 -10 -6 l-176 -252q-78 -117 -160 -223z" />
<glyph unicode="B" horiz-adv-x="1386" d="M174 6q14 18 29 42l26 44l22 37q9 16 11 23l80 262l72 236l71 234l80 255q2 6 0 14t-18 8q-37 0 -82 -5t-89 -12t-82 -12.5t-61 -5.5q-43 0 -49 27q-4 16 -1 49t7 43q2 0 11 -8q6 -4 11 -7t17.5 -4t33 -2t54.5 -1q43 0 80 1t75 3t82 3t101 1q127 0 226.5 -8.5t168 -36 t106.5 -79.5t40 -138v-17q0 -34 -6 -72q-8 -48 -32.5 -93.5t-71 -84t-119.5 -61.5q-6 -2 -6 -6q0 -6 6 -6q45 -4 88 -20.5t78.5 -47.5t58 -80t25.5 -116v-17q0 -63 -27 -126q-31 -71 -93.5 -126t-158.5 -90t-223 -35q-88 0 -150.5 16.5t-105.5 36t-70 36t-45 16.5 q-23 0 -44 -27l-46 -59zM393 193q4 -16 30 -42t65.5 -49.5t92 -40t109.5 -16.5q84 0 160 22.5t132 66.5t90 108q30 57 30 128v17q-4 84 -74 139.5t-203 55.5q-39 0 -78.5 -4.5t-89.5 -4.5q-6 2 -13 20.5t-7 35.5q-2 14 2 32.5t20 18.5q29 0 57.5 -5t59.5 -5q25 0 55.5 4 t55.5 12q41 10 76.5 34.5t62.5 61.5t42 83q14 41 14 87q0 6 -1 13q-2 59 -26.5 97t-64.5 59.5t-94 29.5t-116 8q-41 0 -68.5 -16.5t-46 -44t-30.5 -60t-23 -67.5q-53 -158 -103 -340l-110 -389q-4 -14 -6 -27q-1 -6 -1 -11.5t1 -10.5z" />
<glyph unicode="C" horiz-adv-x="1427" d="M215 424q-1 16 -1 32q0 141 49 272q54 146 152.5 259t233.5 179.5t291 66.5q98 0 207.5 -20.5t208.5 -73.5q23 -8 33 -33q-6 -16 -12.5 -42t-16.5 -60q-6 -35 -10 -67t-7 -60l-43 -9q0 16 -1 44t-9 51q-8 43 -29.5 79.5t-63.5 63.5t-106.5 42t-162.5 15 q-111 0 -219.5 -63.5t-193.5 -167t-136 -235.5q-47 -122 -48 -247q0 -10 1 -20q4 -88 36.5 -156.5t87 -116.5t122 -74t137.5 -26q219 0 378.5 101.5t278.5 335.5q2 6 6 7t8 1q10 0 22.5 -24.5t12.5 -43.5q0 -29 -6 -53q-88 -190 -270 -300t-432 -110q-98 0 -186.5 28 t-156 84t-109.5 141t-46 200z" />
<glyph unicode="D" horiz-adv-x="1585" d="M158 8q12 18 28 40l32 43l27.5 41.5t18.5 33.5q8 27 33 97l55 164l65 199l64 203l56 179q25 80 32 122q-2 8 -10 11.5t-14 3.5q-88 0 -169 -17.5t-169 -19.5q-12 0 -22.5 18.5t-16.5 41t-6 41t6 18.5q2 0 14.5 -5l29.5 -11.5t38.5 -11.5t40.5 -5q78 0 143.5 3t126 8 t120.5 8.5t128 3.5q125 0 242.5 -19.5t212 -73t153 -148.5t64.5 -249q1 -17 0 -34q0 -159 -51 -285q-57 -139 -162 -234.5t-247 -146t-304 -50.5q-84 0 -147.5 13.5t-110.5 29t-80 28.5t-55 13q-23 0 -40 -18l-48 -51zM395 213q-5 -13 -5 -25q0 -27 26 -47q57 -47 134 -68.5 t163 -21.5q135 0 254.5 48t210 136.5t141.5 208.5q46 108 46 236q0 15 -1 31q-2 104 -28.5 186t-91 138.5t-178.5 87t-292 30.5q-33 0 -53.5 -4t-30.5 -29l-155 -461q-79 -237 -140 -446z" />
<glyph unicode="E" horiz-adv-x="1259" d="M204 1139q1 16 5 33.5t9 31t9 17.5q86 -6 181.5 -9.5t181.5 -3.5q29 0 101.5 3t160.5 7l179 6q91 3 155 3q14 0 18 -17l-8 -24l-13 -40l-14 -44l-10 -37l-10 2q-14 39 -33 47q-92 12 -197.5 18.5t-205.5 6.5q-23 0 -35 -6.5t-21 -22.5q-29 -49 -49 -96t-37.5 -96.5 t-34 -102.5l-36.5 -113q-6 -25 22 -24q59 -4 136 -5h31q62 0 125 3q79 4 151.5 12t121.5 23l11 -9q-2 -6 -7.5 -18t-9.5 -26.5t-7 -28t-3 -19.5q-2 -10 -22 -10q-41 0 -123 1t-169 1h-163q-76 0 -107 -2q-20 0 -26 -16q-41 -104 -79 -215q-34 -100 -34 -200v-22 q2 -63 50 -77.5t134 -14.5q76 0 182.5 9.5t214 30t202 54t149.5 82.5q8 8 14 -10q-8 -8 -14 -24.5t-11 -35t-8.5 -34.5l-5.5 -25q-16 -35 -69 -49q-66 -16 -142.5 -29.5t-156.5 -23.5t-160 -16.5t-149 -6.5q-111 0 -179.5 10.5t-106.5 28t-51.5 42t-13.5 57.5q0 29 17 91 q18 69 43 145l49 148l35 101q2 6 -7.5 9t-41.5 3q-16 0 -17 11q0 10 11.5 31.5t27.5 25.5q20 4 32.5 5t21 7t14.5 18.5t14 37.5l25 75l37 121q19 63 33 117q10 41 10 57q0 18 -19 19q-84 0 -166 -6.5t-135 -22.5l-6 2q-1 8 -2 18q1 6 1 11z" />
<glyph unicode="F" horiz-adv-x="968" d="M166 76q49 127 98 269l96 280l90 261l74 216q4 14 -6 26.5t-22 14.5q-18 2 -53 3t-58 1q-20 0 -20 8q0 4 3 14.5t8 20.5t10 18.5t7 8.5q88 -5 184 -6h32q114 1 220.5 9.5t193.5 24t134 37.5q8 4 10 4q14 0 15 -10q-10 -14 -19 -46l-12 -48q-6 -29 -27 -29 q-47 -2 -106.5 -4t-119.5 -3l-118 -2q-57 -1 -98 -5q-23 -2 -32 -10.5t-15 -24.5l-35 -94l-42 -120l-41 -122l-34 -102q-2 -8 4.5 -16.5t27 -14.5t59 -10t102.5 -4q98 0 190 10t168 33l6 -7q0 -2 -2 -18t-7 -35.5t-10 -36t-11 -20.5q-20 0 -88 -1t-150 -2t-165 -1t-134 6 q-27 0 -33 -23l-86 -236q-41 -108 -59 -167q-6 -23 -6 -37t12 -23.5t40 -12.5t77 -3q10 0 16 -8t7 -18.5t-1 -19.5t-12 -11q-55 -11 -102 -12h-8q-50 1 -91 6q-37 4 -54 33q-11 19 -11 37q0 11 4 22z" />
<glyph unicode="G" horiz-adv-x="1574" d="M231 360v20q0 136 55 279q58 154 171.5 280t278.5 207t370 81q47 0 102.5 -6.5t109.5 -19.5t103 -34.5t84 -50.5q-2 -49 -11 -115.5t-19 -117.5q-2 0 -7 -2q-8 -4 -24 -4q-8 0 -21 4q-6 2 -10 4q0 16 1 32.5t-3 36.5q-6 51 -35.5 86t-79 56.5t-115 32t-139.5 10.5 q-137 0 -265 -73t-224 -187.5t-152 -254.5q-50 -126 -49 -250v-28q4 -141 100.5 -223t262.5 -82q82 0 160.5 25.5t147.5 65.5t127 90t100 97.5t66.5 88.5t26.5 63q6 31 1 43t-33 12q-45 0 -109.5 -6t-142.5 -10v70q55 0 121.5 2t133 6t128 12t106.5 23q4 -4 6 -29 q1 -8 1 -15q0 -13 -3 -18q-43 -12 -61 -26.5t-29 -53.5q-29 -102 -69.5 -231t-86.5 -256t-91.5 -238.5t-84.5 -179.5q-20 -37 -57 -90t-96 -100.5t-144 -81t-204 -33.5q-39 0 -77 5t-91 22l-4 24q-4 20 6 37q35 -16 79 -24.5t83 -8.5q94 0 174 48t145.5 125t118.5 174.5 t94 196.5t71 192l50 159q-6 20 -16 6q-20 -23 -66.5 -66.5t-115 -86.5t-159 -76t-198.5 -35q-229 0 -356.5 106.5t-135.5 290.5z" />
<glyph unicode="H" horiz-adv-x="1581" d="M166 -8q10 27 27 59l44 92l70 156q43 96 105 250l-41 46q-18 22 -27 34q0 6 6 16t19 10h55q18 0 31 23q12 23 29.5 81t32.5 123.5t27 123.5q8 42 8 65q0 8 -1 14q-8 35 -16.5 42.5t-47.5 7.5q-29 0 -69.5 -1t-69.5 -6q-8 0 -12 13.5t-6 21.5q-4 8 1 21.5t15 13.5 q33 0 76 1t90 4t96 7t92 11q31 0 15 -37q-23 -39 -41.5 -82t-34.5 -103l-45 -154l-43 -157q-6 -29 10 -31q63 -4 115 -4h96q25 0 83 1t126 3t131.5 6.5t95.5 12.5q27 6 33 33q59 156 101 283l79 245q6 16 29 29q27 16 71 38.5t90 42t89 33t67 13.5q6 0 17.5 -8.5t11.5 -24.5 q2 -12 -3 -20.5t-11 -8.5q-12 0 -35 -3t-50.5 -12t-55 -24.5t-50.5 -38.5q-55 -59 -94 -128.5t-67.5 -145.5t-51.5 -154l-47 -155q-29 -102 -45 -182t-23 -142q-6 -54 -7 -93v-11q1 -43 6 -74q10 -53 34.5 -70.5t79.5 -17.5q18 0 46 5t55.5 13t52 19.5t39.5 21.5q6 0 9 -7 t5 -17.5t0 -20.5t-6 -16l-52 -27q-28 -14 -64 -26.5t-83 -22.5t-110 -12q-59 0 -88 43t-31 94q0 39 5 85t14 93l19 91q9 44 17 75q8 27 2 47q-4 20 -18 33.5t-34.5 21t-43.5 10.5t-41 3h-138q-73 0 -143.5 -2t-135 -6.5t-111.5 -12.5q-16 -4 -23.5 -14t-15.5 -29 q-51 -106 -101.5 -230t-72.5 -251q0 -16 -4.5 -22.5t-26.5 -6.5q-27 0 -40 1t-24.5 0t-22.5 -7t-36 -18z" />
<glyph unicode="I" horiz-adv-x="677" d="M90 14q47 4 72 41q25 43 60 119l77 169q41 93 82 196.5t76 201t59.5 181.5t30.5 139q6 39 -11.5 50t-70.5 11q-35 0 -76 -3t-74 -9q-4 20 4.5 46t12.5 34q115 6 215 8t172 14q10 -4 13 -23.5t1 -29.5q0 -2 -8 -6t-19.5 -9t-20.5 -12.5t-13 -17.5q-41 -104 -85 -236 l-92 -272l-101 -278q-52 -139 -111 -258q-16 -35 -35 -52.5t-40 -22.5q-18 -4 -39 -4h-8q-26 1 -57 3q-2 2 -6 8z" />
<glyph unicode="J" horiz-adv-x="954" d="M-317 -53l36 6q14 -37 35 -68.5t53.5 -55.5t79.5 -37t113 -13q133 0 240.5 69.5t194.5 183t154.5 258t119 294t88.5 290t61 246.5q8 29 -20 29q-57 0 -125 -5t-133.5 -16.5t-124 -29t-99.5 -41.5q-31 -20 -44 -55q-12 -29 -11 -65v-11q0 -18 7 -49t18 -48q2 -4 -16.5 -15 t-22.5 -11q-10 4 -22.5 19.5t-24 37t-18.5 47t-7 49.5v14q0 69 38 117q42 53 140 78q39 10 89 21.5t129 22t197 16.5t292 6q6 0 10 -10.5t5 -21.5q1 -6 1 -11q0 -19 -8 -19q-10 0 -21.5 1t-48.5 1q-23 0 -39 -8t-26 -28q-14 -31 -25.5 -63t-27.5 -85l-76 -265 q-39 -142 -91.5 -283.5t-121 -272.5t-162.5 -232.5t-219 -162t-289 -60.5q-63 0 -116.5 12.5t-100.5 28.5q-12 6 -23.5 19.5t-13.5 31.5l-11 64q-7 41 -13 80z" />
<glyph unicode="K" horiz-adv-x="1388" d="M188 -8q68 127 124.5 266t105.5 284.5t92 292.5l82 285q4 8 -1 15.5t-16 7.5q-78 0 -155.5 -8.5t-138.5 -8.5q-35 0 -35 19q0 12 4 30.5t11 36t16.5 29.5t19.5 12q2 -25 31 -30q70 -12 136 -17q38 -2 76 -2l57 1q67 3 135.5 8.5l137.5 11.5q4 -4 3 -14.5t-4 -22.5 t-7 -21.5t-6 -13.5h-49q-33 0 -55 -4q-18 0 -31 -23q-25 -55 -43 -104l-37 -102l-42 -116l-56 -149q-4 -10 4 -16t16 -2q115 74 214 149l197 151l200 150q102 76 223 152h10l46 -22q30 -14 50 -21q2 -6 -2 -14h-2q-11 0 -60 -28q-56 -32 -140 -85l-182 -121l-192 -133 l-169 -123q-76 -57 -115 -90q-12 -10 -8 -16q92 -174 245.5 -327t340 -265.5t393.5 -177t405 -64.5q113 0 210 27.5t155 73.5q10 8 21.5 4t11.5 -9v-38q0 -27 -5 -31q-70 -51 -184.5 -82t-247.5 -31q-176 0 -378.5 59.5t-400.5 170t-372 270.5t-292 360q-6 8 -13.5 10.5 t-13.5 -16.5q-27 -68 -47 -126l-38 -112l-34 -108l-35 -108q-6 -27 -7 -41.5t-5 -19.5t-14 -5h-37q-39 0 -53.5 -4t-32.5 -16q-17 0 -17 12z" />
<glyph unicode="L" horiz-adv-x="1216" d="M26 52q0 11 17 11q100 0 175 61.5t130 160t94 220.5t70 244l56 231q26 110 53 181q4 16 17 25.5t26 13.5q53 23 122.5 34t141.5 11q8 -2 12 -14t6 -24.5t1 -24t-5 -13.5q-18 4 -38.5 7.5t-53.5 3.5q-51 0 -96 -32t-56 -73l-35 -126l-55 -183l-67.5 -207.5t-75.5 -200 t-78 -159t-74 -86.5q-4 -4 -4 -11.5t10 -7.5q70 0 173.5 10.5t214 19.5t217.5 13q24 1 45 1q77 0 135 -11q45 -6 53 -39q0 -6 1 -26.5t1 -45t-2 -48t-6 -34.5q-4 0 -10 2.5t-13 6.5q0 12 -5 29.5t-21 21.5q-57 20 -142.5 30.5t-182.5 14.5q-49 2 -99 2t-103 -2 q-104 -4 -200 -12.5t-177 -21.5t-135 -28q-6 0 -12 9.5t-10 20.5l-8 23q-7 18 -7 22z" />
<glyph unicode="M" horiz-adv-x="1964" d="M-68 313q-1 10 0 20q0 68 25 133q29 75 86 126q2 4 10 2t17.5 -7t16.5 -11.5t5 -12.5q-41 -51 -60 -105q-18 -49 -18 -96q0 -130 70 -208q66 -74 203 -74q92 0 189 54t184.5 132t159 164t110.5 150q-12 96 -21 176q-7 71 -7 132v15q1 68 13.5 126t38.5 110q20 41 44 66.5 t45.5 42t38 22.5t22.5 6q49 0 78.5 -42t31.5 -85q1 -17 1 -34q0 -62 -12 -122q-15 -76 -42.5 -148.5t-66.5 -142.5l-82 -141q2 -29 8 -77l13 -99q7 -51 12.5 -97t7.5 -71l77 114l103 143l115 158l116 156l107 140l84 106q61 74 101 128l69 91q29 37 50 54.5t46 17.5 q16 0 28.5 -13.5t21.5 -32.5t14.5 -39.5t7.5 -33.5q0 -6 -6.5 -6t-14.5 2t-15 4t-9 2q-51 0 -99.5 -45t-88.5 -118.5t-72.5 -169t-55 -196.5t-33.5 -201q-9 -83 -8 -155v-28q2 -45 12.5 -92t30 -86t52 -62.5t79.5 -23.5q37 0 74 18.5t70 48t59.5 68.5t42.5 82q2 2 9.5 -5 t15.5 -16.5t14 -18.5t6 -13q-8 -29 -33.5 -72t-66.5 -82t-95.5 -66.5t-119.5 -27.5q-61 0 -107.5 29.5t-76 78.5t-45 112.5t-17.5 129.5v14q0 76 19 187q22 121 81 280q6 12 -1 19.5t-15 -2.5q-53 -61 -116 -142l-125 -165l-119 -169q-57 -84 -101 -155q-12 -18 -26.5 -43 t-18.5 -43q-2 -16 4 -27.5t-8 -15.5l-45 -8q-23 -4 -39 -27q-2 -4 -15.5 3t-15.5 11q0 4 3.5 7.5t7.5 11.5t8 25.5t4 47.5q0 74 -9.5 161t-27.5 206q-61 -94 -139 -182t-168 -155.5t-190.5 -107.5t-206.5 -40q-57 0 -110.5 22.5t-95.5 64.5t-69 102t-29 136zM979 885 q-1 -16 -1 -34q0 -78 15 -175q84 152 116 257q30 99 30 152q0 23 -10 50q-7 20 -35 20q-27 0 -52.5 -30.5t-42 -90t-20.5 -149.5z" />
<glyph unicode="N" horiz-adv-x="1531" d="M215 51q-1 9 -1 18q0 45 16 110q19 79 51 170l70 190l72 188q34 90 55 167q20 70 20 115q0 37 -13 63q-10 22 -51 22q-33 0 -65.5 -2t-61.5 -5q-6 0 -10 10.5t-9 25t-8.5 27.5t-7.5 21q-4 10 9 11q29 -10 68.5 -13.5t80.5 -3.5q53 0 93 8.5t71 20.5q16 0 29 -27l106 -222 l119 -240l123 -244l116 -232q10 -23 16.5 -28.5t18.5 -5.5q6 0 11.5 5t9.5 21q23 84 49.5 207t59 258t72.5 269.5t89 242t106.5 174t125.5 66.5q8 0 32.5 -10.5t47 -21.5t37.5 -22q9 -6 10 -8q0 -2 -5 -2q-80 0 -144 -63.5t-117.5 -170t-97.5 -245.5t-82 -294t-71.5 -313.5 t-68.5 -301.5q-16 -8 -37 -9.5t-41 9.5l-67 142l-80 176l-90 192l-90 189l-83 169q-39 78 -69 131q-16 29 -30.5 24t-25.5 -36l-94 -271q-43 -125 -74.5 -243.5t-53 -240.5t-32.5 -261h-8q-8 4 -22 16l-30 26q-15 13 -27.5 27.5t-16.5 24.5z" />
<glyph unicode="O" horiz-adv-x="1507" d="M240 510q-1 22 -1 43q0 148 37 266q43 135 127 228.5t208 141.5t280 48q115 0 211 -38t167.5 -107.5t113.5 -167t47 -213.5q1 -22 0 -45q0 -129 -30 -243q-36 -134 -115 -233.5t-199.5 -158t-284.5 -58.5q-123 0 -223.5 36t-174 103.5t-116.5 168t-47 229.5zM348 502 q4 -94 41 -175t97.5 -140.5t135 -94.5t154.5 -35q143 0 247.5 47.5t173.5 132.5t99 200q27 102 27 221v32q-2 92 -35 176t-89 149.5t-132 104.5t-166 39q-147 0 -254.5 -48t-175.5 -135t-98 -208q-26 -101 -26 -218q0 -24 1 -48z" />
<glyph unicode="P" horiz-adv-x="1165" d="M133 1135v17q0 15 2 33.5t4 33t6 14.5t14.5 -14.5t35.5 -18.5q55 -6 123 -6q26 0 53 1q100 3 196 12l175 18q79 8 112 8q78 0 146.5 -13.5t121 -47t84 -89t33.5 -141.5q1 -9 1 -17q0 -59 -25 -122q-28 -72 -88 -130.5t-155 -96t-229 -37.5q-70 0 -122 18q-2 0 -5.5 12.5 t-4.5 26.5t-1 25.5t4 9.5q16 -6 55.5 -12.5t71.5 -6.5q96 0 170 27t125 73t77 107q22 53 22 114v19q-2 66 -26 105t-61.5 60.5t-90 28.5t-113.5 7q-20 0 -53 -1t-65 -6t-57.5 -17.5t-31.5 -36.5q-23 -55 -53 -142l-66 -185l-67 -202l-60 -191q-27 -89 -43 -154.5t-16 -92.5 q2 -27 10 -39t27.5 -17.5t50.5 -5.5h78q6 0 12 -8t9 -19t3 -20.5t-4 -9.5q-43 -8 -82 -14t-98 -6q-14 0 -35.5 3t-43 11t-37 23.5t-17.5 39.5q0 14 6 39l151 461l154 455l8 24q6 18 9.5 37t0 34t-17.5 15q-45 0 -84 -4t-78 -9t-77.5 -8t-83.5 -3q-54 0 -60 31z" />
<glyph unicode="Q" horiz-adv-x="1513" d="M170 -45q35 55 83 106.5t89 90.5q-23 23 -45.5 55.5t-41.5 73.5t-31.5 87t-14.5 95q-1 17 -1 34q0 139 45 264q50 140 142 244.5t219 165t273 60.5q12 0 18 -11.5t8 -24.5t1 -24.5t-3 -11.5q-12 1 -23 1q-100 0 -198 -47q-109 -52 -191.5 -145.5t-130.5 -218.5 q-44 -116 -45 -246q0 -11 1 -22q4 -109 29.5 -174t49.5 -100q82 66 171.5 90.5t144.5 24.5q25 0 59.5 -6.5t72.5 -25t78 -52t75 -88.5q76 43 138 107.5t106 142t68 164.5q20 74 20 148q0 13 -1 25q-2 72 -27.5 141.5t-68.5 127t-100.5 96.5t-124.5 51q-10 8 -13.5 33.5 t9.5 30.5q16 4 48 4h60q37 0 88 -33t99.5 -91.5t83 -137t36.5 -168.5q1 -17 1 -35q0 -71 -13 -149q-16 -97 -58 -194.5t-115 -184.5t-185 -150q33 -49 82 -110.5t109.5 -115t127 -89t135.5 -35.5q29 0 61 5t64.5 25.5t62 62.5t52.5 116q2 4 11 -1.5t20 -14.5l20 -18 q10 -9 12 -16q-14 -59 -40.5 -110t-66.5 -89t-93 -60.5t-119 -22.5q-86 0 -164 45t-143.5 110.5t-118.5 141t-90 135.5q-59 -29 -121.5 -40t-128.5 -11q-92 0 -176 27.5t-166 90.5q-43 -35 -86 -93t-74 -111q-4 0 -12 7l-17.5 16t-17.5 18.5t-8 13.5zM446 158 q70 -53 133.5 -72.5t147.5 -19.5q113 0 203 45q-41 61 -93.5 94t-144.5 33q-137 0 -246 -80z" />
<glyph unicode="R" horiz-adv-x="1415" d="M205 877v30v42v42v33q0 31 24 47q133 84 300 120t325 36q223 0 347 -66q128 -68 128 -208q0 -52 -25 -111q-28 -63 -84.5 -119.5t-141.5 -96.5t-197 -51q-25 -2 -9 -22l142 -182q78 -98 167 -197.5t189 -191t210 -162t228.5 -113.5t243.5 -43q84 0 161 22.5t148 63.5 q14 12 19 -4l10 -29q5 -15 5 -20q0 -3 -1 -2q-80 -47 -169 -77t-200 -30q-141 0 -270 41t-245.5 114t-223 170t-208 211t-196.5 238l-190 250q0 10 8 11q111 0 207.5 20.5t168 60t111.5 98.5q38 56 38 125q0 55 -19 100q-16 40 -55 65.5t-102.5 38t-159.5 12.5 q-29 0 -52.5 -7.5t-39.5 -29.5q-23 -35 -59 -116l-80 -184l-91 -222l-87 -229l-71 -202q-32 -93 -44 -147q-22 2 -38 2t-27 -2q-22 -4 -40 -29q-4 0 -20.5 3.5t-12.5 7.5l147 339l116 281q52 131 93.5 249t78.5 239q4 23 -3.5 27.5t-19.5 4.5q-82 -6 -147.5 -24.5 t-131.5 -56.5q-45 -29 -74.5 -75t-45.5 -102q-4 -2 -19.5 -0.5t-15.5 7.5z" />
<glyph unicode="S" horiz-adv-x="911" d="M49 59q2 23 3 53.5t1 62.5t1 60.5t1 47.5q0 4 16 4h19q4 0 20.5 -3t16.5 -12q-2 -12 0 -33.5t4 -33.5q16 -78 80.5 -114t148.5 -36q61 0 125 15.5t114 47.5t81 80q29 45 29 103q0 52 -36 130q-34 73 -126 167q-43 41 -74 76t-52.5 69.5t-32.5 72.5t-13 85v14q0 60 15 111 q17 57 55 99t98.5 67t146.5 25q45 0 84 -11.5t69.5 -28t51 -36t27.5 -37.5q0 -37 -4.5 -80t-14.5 -74q-4 -4 -28.5 -2t-28.5 10q2 8 1 28t-5 32q-10 51 -50 80.5t-145 29.5q-35 0 -68.5 -13t-60 -37.5t-42 -58.5t-15.5 -77q2 -45 17.5 -83t41 -72.5t55.5 -68.5l64 -69 q51 -53 86 -93t56.5 -75t31.5 -68.5t12 -76.5q0 -8 1 -15q0 -81 -42 -143q-45 -68 -115.5 -111.5t-156.5 -65t-166 -21.5q-66 0 -129 12t-121 37q-41 16 -47 30z" />
<glyph unicode="T" horiz-adv-x="1044" d="M12 801q8 76 22.5 153.5t41 144t66.5 112.5t100 57q37 6 79 6q38 0 79 -5q87 -11 184.5 -29.5t204 -36t217.5 -17.5q20 0 58 -1q19 -1 39.5 -1t43.5 1q45 1 90 6t82 19.5t60 39.5q22 24 22 59q0 28 -20.5 49.5t-43.5 38.5q0 2 12.5 9t27 14l26.5 12.5t14 5.5 q39 -20 73 -57q36 -38 36 -91q0 -90 -85 -143q-89 -55 -235 -55q-29 0 -64.5 3t-71.5 7t-68.5 6t-57.5 2q-45 0 -57 -31l-84 -229l-73 -195l-66 -180l-68 -188q-14 -35 -25 -77q-9 -35 -8 -61q0 -50 45 -62q43 -11 94 -11q39 0 80 9t49 11q2 -2 3.5 -16t1.5 -31v-31 q0 -14 -2 -18q-49 -6 -97.5 -11t-99.5 -5q-80 0 -127 9t-69 32q-20 21 -19 55q0 40 22 108q82 250 171.5 472.5t158.5 441.5q4 16 1 21t-19 5l-140 17q-160 20 -253 19h-10q-95 -1 -146 -37.5t-74.5 -117.5t-50.5 -223q-4 -10 -32 -5.5t-38 20.5z" />
<glyph unicode="U" horiz-adv-x="1644" d="M264 254q-2 86 35 194.5t86 219.5l96 213q47 102 64 174q6 29 -2 43t-43 14h-156q-10 0 -17.5 13.5t-9.5 31t1.5 30.5t15.5 13q199 0 316.5 7t125.5 7q4 0 6 -9t4 -21.5l3.5 -22.5t1.5 -12q-2 -12 -8.5 -13t-14.5 -3q-23 -6 -50.5 -10.5t-41.5 -32.5l-53 -113l-64 -141 l-65 -156q-33 -80 -57.5 -153.5t-40.5 -135.5q-14 -54 -13 -91q0 -116 61 -175q57 -55 197 -55q96 0 184 52t167 138t145.5 196.5t123 226.5t101.5 227.5t76 201.5q10 31 25.5 50.5t47.5 35.5q10 2 31 9l41 15q20 7 38.5 12t27.5 5q6 0 12 -10t8 -22.5t1 -22.5t-9 -10 q-10 -2 -32.5 -9.5t-33.5 -23.5q-61 -92 -121.5 -216t-107.5 -256t-76 -260q-27 -119 -27 -217q0 -7 1 -14q4 -78 41.5 -103.5t119.5 -25.5q35 0 72 12.5t66.5 25.5t50 25.5t22.5 12.5q8 0 17.5 -11.5t15.5 -24.5q9 -19 9 -30q0 -9 -7 -12q-72 -37 -139.5 -63.5 t-155.5 -26.5q-66 0 -107.5 16.5t-66 42t-35 58t-12.5 63.5q0 35 6 71t13.5 65.5t14.5 49t7 21.5q-6 6 -10 6q-74 -111 -142.5 -184.5t-139 -117.5t-150.5 -61.5t-176 -17.5q-59 0 -114.5 16.5t-98.5 52.5t-70 89t-31 127z" />
<glyph unicode="V" horiz-adv-x="1220" d="M-51 1098q70 55 170 92t198 37q102 0 149.5 -57.5t68.5 -145.5q16 -76 23 -191.5t10 -235.5t4 -229.5t8 -174.5q0 -12 8 -13q8 0 10 6q117 145 231.5 304l213 308.5t174 280.5t112.5 219q16 33 18.5 54.5t-6.5 44.5q-4 10 -8 26q-3 12 8 12q4 0 11 -1q10 -2 28.5 -12.5 t38 -23t33.5 -23.5t14 -19q1 -7 1 -16q0 -53 -46 -141q-53 -101 -140 -227t-192 -264l-203 -268q-97 -129 -170 -237.5t-93 -175.5q-12 -37 -48 -37q-25 -2 -40 -6t-24 -8.5l-15.5 -7.5t-14.5 -3q-10 0 -16 12q14 70 20.5 158t6.5 182.5t-4.5 188.5t-10.5 174t-13 139.5 t-13 85.5q-8 49 -19.5 91t-35 73t-65.5 48.5t-110 17.5q-27 0 -58.5 -7.5t-60 -19.5t-53 -29.5t-39.5 -36.5q-6 -4 -17 2.5t-21.5 16.5t-17.5 20.5t-5 16.5z" />
<glyph unicode="W" horiz-adv-x="2002" d="M214 1111q0 11 2 21q3 13 11 13q125 25 190.5 41t95.5 25.5t35 12.5t11 3q12 0 15.5 -10.5t-5.5 -18.5q-6 -6 -13 -25.5t-13 -45l-12.5 -55.5t-10.5 -60q-23 -193 -44 -395.5t-32 -407.5q-2 -29 5.5 -32t11.5 7l174 227l165 222l164 220l171 216q4 0 21.5 -2t36.5 -5 t33.5 -6t12.5 -5q-14 -20 -15 -117v-20q0 -90 8 -207q9 -131 27.5 -273.5t40.5 -253.5q6 -18 15 -18q10 0 16 12q35 59 89 168l122 237l145.5 261t158.5 240.5t163 176t156 68.5q6 0 22.5 -3t33.5 -8t32.5 -10.5t19.5 -9.5q12 -10 12 -14t-6 -5q-14 -3 -32 -5 q-47 -4 -120 -67.5t-158 -165t-174 -230.5t-170 -266.5t-147.5 -270.5t-103.5 -243q-4 -12 -10 -22.5t-23 -14.5q-35 -4 -46 -10.5t-40 -18.5q-10 -4 -17 6t-5 27q1 7 1 20q0 19 -2 51q-3 52 -10 126l-17 166q-9 91 -21.5 183.5l-25.5 180.5t-28 160q-4 27 -20 24.5 t-37 -22.5l-45 -56l-78 -97l-98 -126l-107 -142l-104 -145l-91 -132q-40 -60 -64.5 -106t-26.5 -69q0 -12 -7.5 -19t-17.5 -7q-41 0 -74.5 -10.5t-60.5 -22.5q-18 0 -12 22q14 23 30.5 93.5t34 169t32.5 215t25.5 229.5t14.5 210q2 39 2 72q0 50 -4 87q-6 39 -49 38 q-39 0 -77 -11t-63 -11q-8 0 -13 12q-6 16 -6 34z" />
<glyph unicode="X" horiz-adv-x="1482" d="M23 -74q-2 8 -2 17q0 24 12 51q16 37 49 78t79 85l95 87l261 217l271 213q-37 86 -67 165l-70 171q-35 80 -90 100t-123 20q-55 0 -108.5 -17t-100.5 -56q-8 -6 -16 1t-14 17t-7.5 21.5t5.5 15.5q78 47 156.5 73.5t183.5 26.5q47 0 80.5 -12t59 -36.5t44 -60.5t35.5 -83 q10 -31 26 -69l34 -77l33 -74q15 -36 23 -61q160 125 305 251l291 261q27 20 7 49q-2 4 3 10.5t15 6.5q4 0 16.5 -15.5t24.5 -35.5l24 -39q11 -18 11 -25q2 -6 1 -10q0 -13 -11 -23l-148 -109l-170 -126l-177 -134l-171 -132l79 -208q38 -97 83 -196q47 -109 95 -149.5 t114 -40.5q49 0 104 27.5t102 76.5q6 6 15.5 1t17.5 -14t12.5 -19.5t-2.5 -12.5l-66 -51q-36 -27 -78 -50.5t-86 -39t-91 -15.5q-88 0 -141.5 70t-106.5 203l-64 167q-32 85 -73 183l-280 -233q-134 -117 -265 -244q-20 -20 -49 -54t-52.5 -74t-37.5 -83q-9 -27 -9 -53 q0 -15 3 -29q6 -16 -2 -18q-10 6 -25.5 21t-30 32.5t-24.5 34t-12 26.5z" />
<glyph unicode="Y" horiz-adv-x="1110" d="M-61 993q55 106 143 167t217 61q119 0 195.5 -56.5t122 -142.5t64.5 -188.5t24 -194.5q0 -12 10 -18.5t14 2.5q70 96 164 212.5t202.5 220t228.5 173t241 69.5q16 0 38.5 -10t44 -23.5t40 -27.5t26.5 -25q0 -2 -3 -10t-9 -15l-11 -13q-5 -6 -8 -5q-6 2 -35 17 q-19 9 -39 9q-12 0 -24 -3q-139 -31 -263 -101.5t-230.5 -168t-192.5 -213t-146.5 -235.5t-93 -236.5t-32.5 -214.5q0 -10 -5.5 -18.5t-27.5 -4.5q-31 4 -51.5 5t-35.5 -2t-29 -10l-34 -18q-2 -1 -3 0q-7 0 -18 11q-13 14 -9 24q37 43 74.5 118t67.5 163t47 179 q16 82 16 151q0 8 -1 16q-2 86 -26.5 172t-68.5 153.5t-110.5 109.5t-156.5 42q-80 0 -144.5 -43t-111.5 -110q-2 -6 -13.5 -5.5t-22.5 5t-20 13.5q-6 6 -7 13z" />
<glyph unicode="Z" horiz-adv-x="1208" d="M61 46q-1 6 0 12q0 8 1 16q3 12 14 12q37 0 69.5 12.5t53.5 34.5l99 105l143 152l167 179l171 187l156 173l122 138q23 31 7.5 46t-56.5 15q-76 0 -181 4q-39 1 -78 1l-131 -4q-104 -5 -193 -25.5t-130 -69.5q-10 -14 -25.5 -13t-19.5 17q6 25 10 50.5t10 46t17.5 36 t29.5 17.5q57 4 140.5 7t177.5 6l192 6q98 3 188.5 5t166 3.5t121.5 1.5q14 0 21 -10.5t9 -23t-2 -22.5t-14 -10q-12 -4 -36 -15.5t-34 -27.5l-199 -219l-239 -255l-239 -266q-116 -134 -199 -251q-12 -18 -8 -32.5t26 -18.5q66 -18 184.5 -45t262 -50.5t295 -41 t282.5 -17.5q109 0 175.5 10t104.5 40t51 82q12 45 11 113v21q0 10 11.5 13.5t15.5 3.5t26.5 -5.5t26.5 -15.5q0 -80 -18.5 -151.5t-59.5 -133.5q-43 -66 -105.5 -83t-146.5 -17q-139 2 -305 33t-348 69.5t-377.5 72.5t-394.5 40q-6 0 -11.5 13.5t-7.5 28.5z" />
<glyph unicode="[" horiz-adv-x="1038" d="M68 -207q0 4 3 20.5t8 36t11 40t12 32.5l142 422q61 193 111 367l94 336l88 329q4 10 2 21.5t-3 20.5t2 15.5t15 6.5q43 0 72.5 -3t72.5 -3q25 0 58 1l64 2l63 2q31 1 51 1q10 0 11 -13.5t3 -19.5q0 -8 -10 -20.5t-16 -12.5h-107q-59 0 -94 -1t-52.5 -4t-22.5 -9t-7 -19 l-88 -259l-72 -230q-33 -111 -61 -218l-59 -220l-61 -236l-73 -268q-6 -18 2 -31q4 -31 45 -31h123q49 0 81 2.5t50 2.5h35q12 0 20.5 -12.5t9.5 -26t-4 -25.5t-18 -12q-55 0 -118.5 2t-124.5 2q-68 0 -118 -2t-118 -2q-22 0 -22 16z" />
<glyph unicode="\" horiz-adv-x="1130" d="M104 1683q0 6 10.5 10.5t25 7.5t28.5 3h20q29 -4 35 -16q4 -6 17.5 -32t40.5 -73l113 -209l156 -287l179 -332l185 -347l175 -329l147 -279l102 -197q38 -76 40 -84q2 -10 -13 -15.5t-32 -5.5q-23 0 -46 7.5t-27 15.5l-1090 2040q-66 120 -66 122z" />
<glyph unicode="]" horiz-adv-x="1081" d="M281 -192.5q0 10.5 1 20.5t4 17.5t7 7.5h178q45 0 70.5 1t39 4t18.5 9t7 18q74 211 125 379t95 328l88 331l102 388q10 18 6 30q-8 31 -51 31q-98 0 -151.5 -5t-94.5 -5q-8 0 -13 10t-5 19q-2 16 7 29.5t21 13.5q78 0 137.5 1t107.5 2t89 2t84 1q6 0 15.5 -3t9.5 -12 q6 -10 -6.5 -23t-28.5 -67q-74 -219 -129.5 -409.5t-101.5 -365.5l-88 -341l-89 -336q-2 -12 1 -29.5t4 -35t-2 -29.5t-15 -12q-41 0 -75 3t-85 3q-72 0 -142.5 -3t-119.5 -3q-18 0 -18 16q-2 4 -2 14.5z" />
<glyph unicode="^" horiz-adv-x="1228" d="M242 692l115 126l118 135l111 137q53 68 96 129h78q4 -45 15 -121t25.5 -156t30 -151.5t27.5 -112.5l-86 -14l-22 106q-12 57 -23 117l-19 117q-9 57 -14 106l-151 -199q-92 -119 -205 -243z" />
<glyph unicode="_" horiz-adv-x="1536" d="M2 -113l18 113h1536l-18 -113h-1536z" />
<glyph unicode="`" horiz-adv-x="706" d="M170 1143q0 6 6 18.5t14.5 23.5t16.5 20t10 9h11q7 0 12 -6l38 -70l43 -78q24 -42 55.5 -91t76.5 -111q0 -12 -17.5 -20.5t-21.5 0.5l-130 153q-67 76 -114 152z" />
<glyph unicode="a" horiz-adv-x="876" d="M47 152v20q0 95 34 182q38 96 110.5 169t174 116t224.5 43q6 31 15 40t22 15l80 25l6 -2q-14 -16 -19.5 -35.5t-17.5 -44.5q12 0 31.5 -3t37 -8t32 -11.5t16.5 -14.5q0 -2 -4.5 -12l-9.5 -21.5t-10 -20.5t-7 -9q-18 10 -54 22t-55 12q-39 -109 -62.5 -183.5t-37.5 -129.5 t-18.5 -95t-4.5 -79q4 -53 19.5 -66.5t52.5 -13.5q41 0 100.5 32t125 86t129 128t108.5 156q4 6 8 6t22 -17l21 -20q-51 -88 -116.5 -168t-137 -139.5t-147.5 -95t-148 -35.5q-68 0 -98.5 33.5t-32.5 76.5q0 14 2 46t15 65q-57 -98 -128 -154.5t-149 -56.5q-20 0 -42.5 15 t-41 40t-32 53.5t-13.5 53.5zM174 98q12 -31 31 -30q23 0 54.5 19t68.5 55t73.5 88.5t67.5 115.5q29 74 50.5 141.5t49.5 130.5l-2 5q-98 0 -176 -45.5t-130 -113t-78 -146.5q-24 -73 -23 -136q0 -48 14 -84z" />
<glyph unicode="b" horiz-adv-x="858" d="M174 268q-1 24 -1 47q0 168 39 330q44 184 123 348t184.5 303.5t218 244t225 168t207.5 76.5q23 3 44 3q68 0 120 -33q69 -43 93 -151q-90 23 -176 23q-67 0 -132 -14q-148 -32 -279 -119t-237.5 -220t-182.5 -295t-114 -342q-33 -155 -32 -312v-51q2 -70 13.5 -109.5 t27 -61t35 -27.5t37.5 -6q27 0 56.5 18t54 54t41.5 90q13 43 13 98q0 14 -1 28q0 29 -5 63t-12.5 66.5t-16.5 59t-21 41.5q0 18 18 48t47 44q10 0 12 -6q14 -61 45 -100t70 -62t81 -32t79 -9q51 0 110.5 18.5t114.5 59.5q4 2 10 2q4 0 14.5 -14.5t10.5 -18.5q0 -8 -6 -12 q-43 -33 -78 -53.5t-68.5 -32.5t-72.5 -17.5t-92 -5.5q-51 0 -109.5 27t-89.5 68q27 -59 26 -119q1 -21 1 -41q0 -164 -60 -253q-68 -99 -207 -99q-23 0 -52.5 10t-56 41.5t-46 88t-23.5 148.5z" />
<glyph unicode="c" horiz-adv-x="657" d="M121 188v12q0 80 26 161q29 87 79 157t116 114t133 44q133 0 137 -121q2 -25 -13 -48.5t-42 -41.5l-8 2v12q0 16 -4 38t-15.5 41.5t-31 33.5t-49.5 14q-41 0 -83 -37t-76 -93t-54 -123q-19 -61 -19 -117v-11q2 -57 11.5 -92t26.5 -53.5t42 -24.5t55 -6q86 0 208 98.5 t245 303.5q6 8 14 8q4 0 23.5 -13.5t19.5 -17.5q0 -8 -8 -16q-47 -82 -104.5 -160t-125 -137.5t-143 -96t-157.5 -36.5q-98 0 -148.5 56t-54.5 150z" />
<glyph unicode="d" horiz-adv-x="679" d="M-360 1638q81 48 173 48h21q104 -6 207.5 -63.5t201 -161t174.5 -246t126 -318.5t55 -379q1 -18 1 -35q0 -79 -15 -157q-18 -96 -59.5 -172t-106 -123t-154.5 -47q-70 0 -121 51q-55 55 -55 158q0 63 27 132q29 73 83 140t127.5 122.5t161.5 88.5q14 8 15 24 q-2 33 -21.5 108t-62.5 170t-109.5 200.5t-162 198.5t-221 163.5t-285.5 97.5zM221 80q31 -25 62 -25q57 0 103 39t78 101.5t48 143.5q13 65 13 133q0 17 -1 34q-2 43 -8 76.5t-12 33.5q-59 -20 -117.5 -68t-102.5 -108.5t-72 -128.5q-26 -63 -26 -120q0 -83 35 -111z" />
<glyph unicode="e" horiz-adv-x="616" d="M94 176v14q0 78 22 158q24 88 67.5 161t109 120t145.5 47q47 0 76 -25q33 -28 33 -90q0 -83 -78 -140q-82 -60 -254 -61q-4 -23 -13 -67q-8 -37 -8 -78q0 -9 1 -18q4 -76 33.5 -105t101.5 -29q70 0 137.5 33t126.5 82t106.5 107.5t73.5 109.5q6 6 26.5 -7t22.5 -21 q-37 -66 -92 -134.5t-125.5 -126t-152.5 -93.5t-170 -36q-72 0 -128.5 53.5t-60.5 145.5zM225 418q8 -2 23.5 -4t25.5 -2q31 0 66 10t62.5 29.5t45 46t17.5 57.5q0 20 -10.5 34.5t-40.5 14.5q-61 0 -113.5 -52t-75.5 -134z" />
<glyph unicode="f" horiz-adv-x="667" d="M-827 -389q47 -111 142 -180.5t212 -69.5q63 0 159.5 26.5t196 89t186.5 167t136 262.5l46 147l53 174l55 181l51 165q-117 -4 -192 -12t-120 -26.5t-67.5 -52t-36.5 -89.5l-23 6q18 100 56.5 150.5t72.5 62.5q20 6 61.5 11.5t88.5 9.5t93 6t79 2l70 251q37 136 87 266 t119.5 240.5t167.5 174.5q41 29 94.5 47t104.5 18q72 0 102.5 -15t32.5 -56q0 -8 -3 -21.5t-10 -26t-19.5 -20.5t-30.5 -8q-23 0 -40 9l-36 20q-18 10 -37.5 19t-48.5 9q-78 0 -139.5 -70.5t-114.5 -193.5t-101 -288l-102 -353h40q28 0 78 1t126 1h184q4 -2 7 -10t4 -18.5 t0 -20.5t-5 -14q-119 0 -240.5 -3.5t-209.5 -3.5l-85 -290l-73 -248q-57 -201 -154.5 -345.5t-214 -236.5t-241.5 -136t-238 -44q-209 0 -292 87q-51 54 -51 136q0 51 20 113z" />
<glyph unicode="g" horiz-adv-x="729" d="M-1051 -606q27 -68 74 -129.5t112.5 -108.5t149.5 -75.5t185 -28.5q164 0 289.5 52t221 141t161 207t108.5 249l73 222l41 127l27 84l33 91q-45 -84 -78 -135t-60.5 -78.5t-53 -37t-54.5 -9.5q-43 0 -77.5 44t-39.5 118v13q0 49 14 111q15 71 47 141.5t82 133t118 101.5 q16 10 41.5 20t54 18.5t56.5 14.5t46 6t35 -4q8 23 13 34t8.5 22.5l7.5 24.5t10 38q6 41 31 41q12 0 29.5 -28t21.5 -52q5 -13 5 -27t-5 -28l-97 -312l-65 -200l-45 -135q-18 -54 -41 -113l-52 -141l-79 -212q-33 -88 -94.5 -200.5t-165 -214t-256 -171t-367.5 -69.5 q-123 0 -211 40t-144 104.5t-83 145.5t-27 165zM174 143q2 -23 11.5 -51.5t31.5 -28.5q16 0 56 42t88.5 115t95.5 170t75 208q-12 4 -24 4q-59 0 -105.5 -20.5t-68.5 -42.5q-100 -117 -132 -222q-28 -93 -28 -157v-17z" />
<glyph unicode="h" horiz-adv-x="817" d="M55 59l152 441q74 205 158 403q86 213 179 385t193.5 294t209 186.5t227.5 64.5q59 0 112 -18.5t92 -57.5t60 -101q16 -48 15 -113q0 -19 -1 -40q-43 121 -124 168t-189 47q-90 0 -177.5 -55t-169 -148.5t-155.5 -218.5t-137.5 -264t-114.5 -284.5t-88 -282.5 q14 18 48 53t77 71t88 61.5t80 25.5q6 0 15 -7t17.5 -16.5t14.5 -18.5t6 -16q0 -20 -21 -77l-49 -126q-27 -69 -48 -136q-20 -62 -19 -102q0 -44 15 -72q13 -24 65 -23q35 0 78 14.5t94 52t108.5 107.5t120.5 180q4 6 10 6q4 0 21.5 -12t19.5 -18q-43 -82 -99 -160 t-119.5 -138.5t-133.5 -97t-139 -36.5q-63 0 -101 40.5t-43 100.5v14q0 52 14 103q15 57 35 109l35 94q16 42 17 71q-6 14 -15 14q-12 0 -42.5 -22.5t-68.5 -59t-77 -86t-68 -102.5l-21 -66l-17 -50l-15 -47l-14 -54q-14 -51 -37 -51q-14 0 -38.5 8t-33.5 31q-2 9 -2 32z " />
<glyph unicode="i" horiz-adv-x="552" d="M98 119q0 43 18 110q19 74 44.5 150t53.5 142.5t44 99.5q12 25 46 41t46 16q16 0 19 -8q0 -6 -1 -18.5t-8 -18.5q-27 -53 -54 -122t-50 -138.5t-37 -129.5q-13 -53 -12 -88v-10q2 -47 30.5 -61t63.5 -14q59 0 121.5 40t119 97t102.5 119.5t71 107.5q4 8 13 7t17.5 -7 t14.5 -15q5 -7 4 -12v-4q-39 -72 -92.5 -146.5t-116.5 -136t-137 -101t-156 -39.5q-25 0 -53.5 6t-53 20t-41 40t-16.5 73zM346 1014q-3 13 -3 26q0 27 14 52q22 37 65 36q39 0 49 -41q3 -11 3 -22q0 -26 -16 -51q-24 -37 -65 -37q-35 0 -47 37z" />
<glyph unicode="j" horiz-adv-x="602" d="M-307 -891q-3 13 -3 23q0 14 5 22q25 49 48.5 79t45.5 51l43 40q20 18 42 44t42.5 63t40.5 96l70 229l65 226l67 240l72 274q2 16 2 26v17q-6 27 -30 26q-2 0 -15.5 -3t-32 -6t-38 -7t-35.5 -4q-6 0 -8 11t-2 24.5t4 25.5t10 12q66 12 106.5 23.5t67.5 21.5l42 14 q15 5 30 5q31 0 39 -33q4 -14 -2 -43l-91 -290l-84 -257l-88 -260l-100 -299q37 59 95 122l123 128l129 135q65 70 115 144.5t82 155.5q28 72 28 148v19q-2 72 -20.5 107l-29.5 57q33 -6 59.5 -23.5t47 -42t32 -54t13.5 -58.5v-21q0 -92 -32 -167q-36 -84 -96 -160 t-139 -150l-165 -155q-86 -82 -171 -178.5t-155 -219.5l-61.5 -105.5t-102.5 -139.5q-6 -6 -18 -7q-16 0 -28.5 29t-18.5 45zM311 1029q0 33 19 58q20 29 57 29q23 0 38 -15.5t15 -37.5v-6q0 -32 -19 -61q-22 -32 -56 -31q-27 0 -39 17q-15 21 -15 47z" />
<glyph unicode="k" horiz-adv-x="921" d="M61 66q-2 4 2 12q18 43 42 113l58 171l83 234.5t119 306.5q86 213 179 385t193.5 294t209 186.5t227.5 64.5q59 0 112 -18.5t92 -57.5t60 -101q16 -48 15 -113q0 -19 -1 -40q-43 121 -124 168t-189 47q-106 0 -205.5 -72.5t-189 -193.5t-169 -276.5t-147.5 -319.5 t-124 -325l-101 -291q-2 -25 0 -25q6 0 24 18q16 27 33 49l33 42q16 20 37 43l45 51q-6 12 -13 41q-6 25 29 47q16 10 26.5 13t20.5 7q8 0 11 -12q0 -8 6 -14q10 12 44 49l70 77q37 40 71 71.5t44 31.5q8 0 25.5 -24.5t27.5 -49.5q4 -10 -2 -14l-20 -14 q-72 -47 -129.5 -104.5t-104.5 -112.5q16 -63 37 -127t47.5 -113t58 -80t70.5 -31q78 0 141.5 36t112.5 93.5t84 130t53 146.5q4 6 15.5 3t25 -10t23.5 -16.5t8 -13.5q-33 -88 -79 -170t-101 -143.5t-119.5 -98t-134.5 -36.5q-39 0 -80 8t-81 44t-78 106.5t-72 195.5 l-151 -179q-73 -85 -109 -161q-10 -16 -25 -17q-23 0 -40 27t-24 49z" />
<glyph unicode="l" horiz-adv-x="616" d="M115 150v11q0 59 19 131q22 79 52 157l62 148q31 71 49 120q20 53 68 153l106 220l123 239q63 121 117 213q31 55 63.5 86t59 46.5t45 19.5t24.5 4q23 0 37 -14.5t22.5 -39t11.5 -55t5 -65.5v-22q0 -100 -33 -202q-37 -113 -97.5 -220t-138 -204.5t-154.5 -178.5 t-146.5 -141t-116.5 -93l-41 -106q-16 -42 -24.5 -73.5t-10.5 -56t0 -53.5q2 -59 39 -82.5t90 -23.5q74 0 140.5 42t122 102t99.5 129l76 122q8 12 21.5 9t25 -11t18.5 -19.5t3 -17.5q-43 -70 -99.5 -146.5t-126 -141t-151.5 -106.5t-174 -42q-86 0 -135 48t-51 114z M330 592q66 43 133 110.5t131.5 148.5t120 169t97.5 174t65 165q21 72 20 128q0 41 -10 79q-8 30 -35 29q-12 0 -24.5 -9t-30 -36.5t-44.5 -79.5l-73 -133q-25 -43 -52 -98l-57 -116l-58 -123l-56 -121z" />
<glyph unicode="m" horiz-adv-x="1081" d="M59 82q-1 6 0 11q0 16 4 30q53 131 102 269l95 274q10 29 33 28q14 0 30.5 -18.5t22.5 -32.5q-4 -18 -11 -35.5t-16.5 -45l-23.5 -66.5t-33 -101q45 72 85 118t76 73.5t64.5 39t49.5 11.5q23 0 36 -21.5t15 -46.5q0 -10 -3 -29.5t-7.5 -41t-9.5 -40t-9 -28.5 q-4 -12 0 -12t8 8q53 86 125 148.5t137 89.5q16 6 34 2t31 -15.5t20.5 -26t3.5 -30.5q-8 -31 -30 -86t-43.5 -119.5t-37.5 -129.5q-15 -57 -15 -102q0 -6 1 -12q2 -39 14 -61.5t51 -22.5q55 0 102.5 22.5t87 57.5t73.5 78t63 86q6 10 18 10t24.5 -6t20.5 -18q5 -7 5 -15 q0 -6 -3 -12q-33 -49 -76 -99t-95 -92t-112.5 -67.5t-127.5 -25.5q-59 0 -95 33.5t-38 92.5q0 8 -1 15q0 60 15 117q16 63 36 118l37 103q16 42 15 73q0 17 -7 21t-16 4q-16 0 -54 -34t-79 -80t-78.5 -94t-54.5 -79q-12 -31 -23.5 -73.5t-23.5 -82.5t-25.5 -69t-27.5 -29 t-29.5 16.5t-19.5 30.5q-2 4 -2 11q0 24 22 80q25 61 44 121l34 108q14 47 21.5 80t7.5 39q-2 25 -15 24q-18 0 -59 -36.5t-85 -89t-85 -112t-59 -108.5q-29 -63 -48.5 -113.5t-35.5 -50.5q-25 0 -33 23z" />
<glyph unicode="n" horiz-adv-x="833" d="M100 80q-2 6 -1 14q0 25 22 62q29 47 59 106q29 98 54 207l47 195q4 16 22 16t37 -15q27 -22 27 -36q0 -12 -27 -84q-14 -35 -19 -55l-18 -66q49 51 100.5 99t97.5 85t81.5 58.5t56.5 21.5q12 0 24.5 -14.5t16.5 -26.5q4 -8 -6 -37l-47 -108q-27 -63 -50.5 -132 t-38.5 -134q-14 -58 -14 -103v-12q2 -31 14.5 -48.5t45.5 -17.5q47 0 104 37t113.5 94.5t103.5 128t74 138.5q2 4 17.5 1t30.5 -9.5t26 -15.5q6 -6 6 -12q0 -4 -2 -7q-37 -76 -92.5 -153t-122 -138.5t-142 -100t-153.5 -38.5q-51 0 -84 26q-35 28 -35 94q0 46 17 109 q19 70 44 137l45 121q19 53 19 72q0 10 -7 15t-20 -1q-27 -23 -64 -59l-78 -79q-40 -42 -76 -86t-56 -79l-27 -62q-10 -25 -18 -48l-18 -50l-23 -67q-8 -20 -12 -21q-6 0 -15.5 10.5t-18.5 23.5t-14.5 26.5t-5.5 17.5z" />
<glyph unicode="o" horiz-adv-x="776" d="M96 156v23q0 86 26 166q30 91 85 162t129 116t160 47q4 25 8 56.5t33 37.5q14 4 29.5 7t25.5 9q3 3 8 4q4 0 9 -3q11 -5 7 -17q-6 -16 -11 -42t-3 -52q2 -51 14.5 -98.5t36 -84t59.5 -59t85 -22.5q31 0 61.5 12t60 32.5t54 48t41.5 58.5q2 6 13 4t21.5 -8t17.5 -14 q4 -4 4 -9q0 -3 -3 -6q-18 -35 -46 -67.5t-62.5 -59t-76.5 -42t-91 -15.5q-51 0 -104.5 20.5t-94.5 71.5q-8 -61 -28.5 -139t-58.5 -147.5t-97.5 -117.5t-145.5 -48q-80 0 -122 53t-44 123zM215 186q0 -14 4 -35.5t11.5 -40t20.5 -31.5t34 -13q53 0 99 57t79 135t50 157 q14 64 14 104q0 9 -1 18q-2 6 -4 10t-3 9t-4 13.5t-7 26.5q0 14 -12 14q-55 0 -106.5 -42t-91.5 -104.5t-62 -136.5q-21 -69 -21 -130v-11z" />
<glyph unicode="p" horiz-adv-x="729" d="M-559 -1099q-2 3 -2 6q0 9 14 14q72 31 120 60.5t84 69.5t64.5 95t61.5 137l36 100l30 81l31 83l37 103l50 141l70 201q-20 6 -27 35q-6 18 13.5 27t31.5 12l86 215l127 326q66 167 142 302l16 15.5t18 13.5q6 2 25 5l38 6q19 3 34.5 5t17.5 2q14 0 14 -14q4 -6 0 -14 l-73 -94q-33 -43 -59.5 -85t-50 -86.5t-48.5 -99.5q16 25 44 45.5t57.5 34.5t56 22.5t41.5 8.5q18 0 37.5 -11.5t35 -29t26.5 -40.5q11 -24 11 -58q0 -43 -15 -97q-17 -59 -60.5 -122.5t-114 -128t-178.5 -119.5q63 12 150 41.5t179.5 82t177 129t142.5 183.5q2 4 11 0 t18.5 -12.5t17.5 -17.5t10 -15q-74 -129 -169 -214t-207.5 -137.5t-236.5 -79t-253 -36.5q-43 -115 -71.5 -199t-48.5 -151l-36 -126l-35 -123q-18 -65 -43.5 -143.5t-64.5 -187.5q-12 -37 -44 -56.5t-78 -33.5t-106.5 -30.5t-130.5 -45.5q-7 -3 -12 -3q-8 0 -12 8zM141 66 q90 27 165 82t127 121.5t81 134.5q27 64 27 117q0 28 -16.5 41t-39.5 13q-12 0 -39.5 -10t-59.5 -33.5t-64.5 -60.5t-57.5 -90q-33 -74 -61 -149z" />
<glyph unicode="q" horiz-adv-x="790" d="M4 -838q0 31 15.5 85.5t42 124t61.5 149.5l70 160l67 156q33 77 55 140q-4 4 -6 10.5t-6 10.5q4 4 11.5 8l15.5 8q10 23 16 44.5t12 39.5q-45 -47 -90 -77.5t-98 -30.5q-80 0 -98 84q-5 20 -5 44t5 52q10 55 35.5 114.5t63.5 119t84 110.5t98.5 88t103.5 51 q33 10 64.5 12.5t64.5 2.5q12 29 19 50l12 38q5 16 12.5 24t21.5 8t41 -5t31 -19q4 -4 -2 -14q-8 -18 -15.5 -29.5t-11.5 -22.5l-8 -21q-4 -11 -10 -30q43 -4 79 -24.5t60 -49.5q-2 -23 -23.5 -46t-37.5 -27q-23 37 -51.5 56t-53.5 22q-8 -20 -29 -69l-51 -115l-63 -146 l-70 -164l232 153l297 201q4 8 13 2t18.5 -17t14.5 -25q2 -6 2 -10q0 -5 -3 -7l-213 -142l-153 -98l-124 -76l-127 -81q0 -6 -4 -11q47 -76 64 -172q10 -59 10 -120q0 -38 -4 -76q-10 -100 -42 -196.5t-80 -172.5t-110.5 -122t-132.5 -46q-25 0 -56.5 20.5t-33.5 73.5z M96 -788q0 -16 8.5 -32t32.5 -16q27 0 64 33t72.5 87t67.5 128t47 155q12 61 12 123q0 21 -2 43q-5 85 -40 165l-90 -221l-85 -206q-38 -95 -62.5 -164.5t-24.5 -94.5zM184 117q4 -14 14.5 -20.5t20.5 -6.5q12 0 32.5 13.5t44 35t47.5 50t42 59.5l41 65q18 29 37.5 64t42 84 t53.5 127q-18 5 -36 5q-16 0 -33 -4q-34 -9 -58 -22q-49 -25 -97 -84t-85 -128.5t-56 -135.5q-13 -43 -13 -73q-1 -16 3 -29z" />
<glyph unicode="r" horiz-adv-x="630" d="M55 35q-3 8 -3 18q0 17 9 37l62 174l57 164l47 133q20 57 27 84q6 29 16 29q6 0 34 -15.5t36 -44.5q0 -4 -11 -32l-25 -63l-23 -60q-10 -27 -9 -27q10 0 15 4q25 31 63.5 71t82.5 77t90 61.5t85 24.5q27 0 50.5 -13.5t27.5 -29.5l-15 -27l-18.5 -34.5t-15.5 -35t-8 -24.5 q-6 -8 -13 -8q-4 0 -5 7t-8 14t-22.5 14.5t-45.5 7.5q-20 0 -50 -15.5t-61 -37t-57.5 -44t-40.5 -38.5q-47 -53 -74 -98.5t-46.5 -91.5t-35.5 -98t-41 -122q-6 -8 -18 -8q-2 0 -11.5 5t-19.5 13t-17.5 15.5t-7.5 13.5z" />
<glyph unicode="s" horiz-adv-x="569" d="M-57 100q-2 20 19.5 49t39.5 39q43 -78 103.5 -111.5t117.5 -33.5q33 0 59.5 11.5t44 28.5t26.5 36.5t9 38.5q-2 35 -31 75l-65 85q-35 44 -64 88q-32 46 -32 88q0 36 16 68q18 36 50 63.5t73 44t84 16.5q12 0 30.5 -6t37 -14.5t32 -17.5t15.5 -17q-2 -14 -11.5 -50 t-15.5 -51q0 -20 -12 -4l-20 26q-12 15 -27.5 28.5t-32 23.5t-31.5 10q-39 0 -70 -29q-30 -28 -30 -66q0 -43 32 -86q30 -40 64.5 -81t64.5 -83q32 -45 32 -94q0 -38 -16 -73q-17 -39 -50 -67.5t-79 -46t-105 -17.5q-82 0 -150.5 38t-107.5 91z" />
<glyph unicode="t" horiz-adv-x="608" d="M66 582q4 10 17 34.5t23 34.5l156 4q41 94 81 206t77 202q31 16 86 40.5t96 39.5q6 0 14.5 -18.5t-2.5 -24.5q-25 -6 -61.5 -25.5t-46.5 -44.5l-42 -94l-36 -89l-34 -91l-36 -101h381q10 -6 15 -16q0 -4 -6.5 -17.5t-10.5 -15.5q-25 0 -74 -1t-107 -3t-117.5 -6 t-106.5 -8l-74 -231q-33 -103 -31 -177q4 -59 30 -85.5t81 -26.5q25 0 68 16t91 41t94 52.5l77 47.5q4 4 12 -3t15 -18t11.5 -21.5t0.5 -14.5l-101 -67q-53 -34 -107.5 -59.5t-106.5 -41.5t-99 -16q-61 0 -109.5 46t-52.5 128q-1 9 0 19q0 63 22 153q26 104 83 252 q-18 -2 -40 -3t-49 -6l-41 -3q-14 -1 -18 -1q-16 1 -22 13z" />
<glyph unicode="u" horiz-adv-x="790" d="M100 84q-1 8 0 18q0 20 2 46q4 40 21.5 107t47.5 164l75 236q10 31 22 31q6 0 19.5 -7t27 -16.5t23.5 -19.5t10 -18t-12 -37q-31 -74 -55.5 -144.5t-43 -130t-28.5 -107.5t-10 -77q8 -23 22.5 -31t30.5 -8t39.5 23.5t51.5 62.5t55.5 90t50.5 107l29 87l24 67l19 55l18 49 q6 20 16 20t24.5 -14t25.5 -35.5t16.5 -44t-0.5 -41.5q-23 -45 -46.5 -86t-44 -82t-31.5 -88q-10 -40 -10 -90v-18q2 -47 22.5 -70t51.5 -23q33 0 79 20.5t99.5 64.5t109.5 114t107 168q4 2 13.5 -1t19.5 -8t18.5 -11.5t10.5 -12.5q-37 -74 -87 -147.5t-110.5 -133t-128 -96 t-139.5 -36.5q-74 0 -108.5 41.5t-38.5 101.5v24q0 12 2 25q-10 -20 -31 -50t-48.5 -57.5t-60 -46t-67.5 -18.5q-76 0 -103 84z" />
<glyph unicode="v" horiz-adv-x="724" d="M135 61q29 -2 54.5 8.5t45 36t28.5 69.5q6 30 7 70q0 18 -2 38q-5 65 -4 127v42q1 41 1 72.5t-1 53.5q-2 35 -39 24l-84 -27q-4 4 -7 29t7 37l64 13l68 15q34 7 66 15l56 14q6 -4 8.5 -26.5t-2.5 -26.5q-10 -8 -24.5 -23.5t-18.5 -37.5q-7 -29 -7 -70v-10q1 -47 5 -93 t8.5 -84t2.5 -53q-8 -53 -18.5 -91t-45.5 -70q-6 -6 -3 -11.5t9 -1.5q57 23 114.5 73t101.5 115.5t72 143.5q24 68 24 137v21q0 29 -6.5 58.5t-16.5 56t-23.5 46t-29.5 27.5q-6 2 -5 5q1 2 7 2q5 0 12 -1q76 -8 113 -70.5t41 -144.5v-16q0 -112 -54 -209q-57 -104 -140 -181 t-174 -123t-157 -48l-59 49q-1 4 -1 9q-1 11 7 11z" />
<glyph unicode="w" horiz-adv-x="1177" d="M96 131v13q0 50 15 110q16 68 40.5 132.5t53 117.5t49.5 80l20 25q12 15 27 22l52 14q30 8 48 12q6 0 11.5 -11t5.5 -15q0 -6 -25.5 -15.5t-48.5 -35.5q-29 -49 -58.5 -107.5t-53 -116t-37.5 -111.5q-13 -47 -13 -87v-11q2 -27 18.5 -46t45.5 -19q18 0 42.5 12t54.5 34 t62.5 48.5t65.5 56.5q-12 53 -14 106q-1 13 -1 26q0 38 5 73q6 47 19.5 86t29.5 66q6 8 22.5 19.5t39 22.5t48 18t50.5 7q20 0 35.5 -13t24.5 -32.5t13.5 -40t4.5 -36.5q2 -27 -1.5 -64t-21.5 -80t-55 -92t-103 -100q35 -84 75 -111t91 -27q41 0 77 26t62.5 70t40.5 102 q13 51 13 109v17q-2 33 -9.5 75t-20.5 78.5t-32.5 61.5t-48.5 25q-18 12 -2 18q18 0 50 13.5t44 13.5q8 0 13.5 -7.5t24 -15.5t57 -15t114.5 -7q33 0 74 2t83 8t80 14t64 21h2q3 0 7 -6q5 -8 8 -21q1 -6 1 -12t-1 -11q-2 -11 -13 -14q-141 -35 -249 -42q-50 -3 -93 -3 q-49 0 -88 4q-14 2 -10 -8t6 -25q6 -31 10 -61.5t7 -60.5q1 -17 0 -33q0 -175 -61 -282q-67 -116 -208 -115q-70 0 -137.5 40.5t-101.5 122.5q-51 -53 -121 -98t-156 -45q-53 0 -87 39t-36 92zM538 403q-2 -18 -2 -38q0 -40 7 -86q43 41 68.5 71.5t39 56t16.5 48t3 47.5 q-2 76 -43 76q-16 0 -36 -20.5t-34 -60t-19 -94.5z" />
<glyph unicode="x" horiz-adv-x="808" d="M-190 -472q8 112 56 246t136 277.5t219 272.5q-14 82 -16 143q0 10 -1 20q0 50 9 97q2 45 27 55q20 10 51 35q1 3 3 2q2 0 6 -4q7 -8 3 -15q-23 -74 -23 -130q0 -5 -1 -10q0 -53 10 -126q61 61 124.5 113.5t115 90.5t85 59.5t39.5 21.5q10 0 13 -8q4 -12 3 -46t-7 -47 q-92 -53 -182.5 -119.5t-168.5 -146.5q20 -111 58.5 -180.5t111.5 -69.5q33 0 68 14.5t67.5 39t62.5 56.5t54 69q4 4 14.5 -0.5t21.5 -11.5t19.5 -15t8.5 -14q-20 -27 -53 -64t-76 -70.5t-95.5 -57t-113.5 -23.5q-55 0 -91 16t-58.5 47t-38 75t-29.5 101 q-121 -119 -195 -268.5t-104 -295.5q-24 -116 -25 -217q0 -27 2 -52q8 -123 49 -189q-53 35 -90 75t-51 77q-20 50 -20 127q0 24 2 50z" />
<glyph unicode="y" horiz-adv-x="712" d="M-809 -498q31 -113 107.5 -180t222.5 -67q150 0 272.5 45t226 145t191.5 258t166 385q6 12 0 9t-8 -5q-29 -29 -78 -60.5t-111 -31.5q-53 0 -81.5 33t-30.5 76q0 5 -1 10q0 31 10 81q11 58 31.5 129.5t49 150.5t59.5 155q4 16 12.5 23.5t14.5 13.5q16 4 47 5t37 1 q12 0 12 -12q-33 -78 -65 -162l-58 -157q-27 -73 -42 -129t-15 -79q2 -23 12 -40t45 -17q18 0 48 18.5t58.5 43t54 51t38.5 41.5q20 27 42.5 101.5t67.5 211.5q23 68 41.5 113t38.5 45q20 -6 46 -31t30 -49q-43 -117 -97.5 -243t-95.5 -243l-72.5 -197.5t-98 -221t-129 -218 t-167 -188.5t-212 -132t-263.5 -50q-104 0 -179 35.5t-119 90t-58 118.5q-7 32 -7 63t7 61z" />
<glyph unicode="z" horiz-adv-x="747" d="M-8 20q-2 5 -2 9q0 8 8 12q96 55 186 123.5t161 128t114 103.5t43 50q-2 12 -15 13q-25 -12 -62.5 -16.5t-70.5 -4.5q-20 0 -43.5 7.5t-45 24.5t-38 48t-24.5 80q4 25 24.5 61.5t61.5 67.5q6 0 20.5 -15.5t18.5 -21.5q-10 -10 -20.5 -30.5t-8.5 -36.5q2 -66 38 -87.5 t101 -21.5q35 0 58.5 6t45 20.5t43.5 38.5l52 56q4 6 18.5 3t28.5 -11.5t23.5 -19.5t3.5 -21q-41 -53 -95.5 -114.5l-115.5 -124.5l-125 -122q-63 -59 -123 -106q-20 -12 20 -39q352 -205 607.5 -327t420.5 -122q137 0 237.5 68t150.5 209q2 2 11 -2t21.5 -10.5t23.5 -13.5 t13 -11q0 -61 -31.5 -118.5t-90 -101.5t-139.5 -72t-183 -28q-137 0 -263 36t-258.5 100.5t-278.5 153.5l-325 194q-14 6 -20 8t-18 -8l-39 -27q-18 -12 -35 -33q-12 -6 -29.5 0.5t-33 18.5t-21.5 26z" />
<glyph unicode="{" horiz-adv-x="815" d="M78 729q-2 16 5 29.5t23 13.5q14 0 26.5 -3t35.5 -3q37 0 67.5 6t53.5 29q59 59 88 127.5t50 145.5l45 161q24 84 71 172q35 61 87 83.5t120 33.5q29 4 55 7t69 3q10 0 21.5 -10.5t13.5 -26.5q2 -35 -14 -35q-10 0 -20.5 4t-30.5 4h-51q-25 0 -46.5 -8t-41 -27.5 t-39.5 -58.5q-57 -104 -88 -206.5t-61 -188.5t-72 -149.5t-126 -90.5q-10 -2 -10 -12q4 -8 8 -10q39 -23 67 -49.5t40 -67.5q14 -41 6 -98.5t-25.5 -124t-39 -139t-38 -143t-22.5 -135t10 -116.5q18 -55 54.5 -73.5t97.5 -18.5q10 0 16 -10t8.5 -22.5t-2 -22.5t-16.5 -10 q-43 0 -87 14t-84 40t-69.5 62.5t-46.5 79.5q-14 49 -5 111.5t30.5 129.5t49.5 136.5t49.5 133t31.5 118.5t-2 92q-14 43 -58 62.5t-81 19.5q-25 0 -39.5 -4t-44.5 -4q-14 0 -25.5 17.5t-13.5 31.5z" />
<glyph unicode="|" horiz-adv-x="681" d="M295 -768v2816h86v-2816h-86z" />
<glyph unicode="}" horiz-adv-x="815" d="M-28 -261q1 7 12 9q80 16 139 51t98 123q33 68 49.5 132.5t27.5 129t23.5 126t35 120.5t62.5 115.5t105 109.5q6 10 4 15q0 6 -8 12t-19.5 18.5t-24.5 34t-23 58.5q-14 45 -9 92t19 95t34.5 98t35 98.5t19.5 96.5t-11 93q-25 80 -107 92q-12 4 -20 15.5t-10.5 23.5 t1 22.5t9.5 10.5q35 0 69.5 -21.5t65.5 -53.5t54.5 -68.5t31.5 -67.5q18 -70 -0.5 -152t-47 -159.5t-50 -146t-9.5 -109.5q6 -31 37 -31q27 0 60.5 4t66.5 4q14 0 22.5 -12t10.5 -27.5t-4 -29t-23 -13.5q-43 0 -67.5 -4t-52.5 -27q-51 -43 -77 -114.5t-48 -169.5l-37 -195 q-18 -100 -68 -192q-23 -43 -61.5 -88t-85.5 -83t-100.5 -62.5t-104.5 -24.5q-8 0 -14.5 8t-8.5 18q-2 19 -1 26z" />
<glyph unicode="~" horiz-adv-x="1228" d="M313 381q6 27 18.5 56.5t33 54t51 40t73.5 15.5q49 0 103.5 -21.5t105.5 -46.5l99 -46q47 -22 80 -21q51 0 74.5 38.5t45.5 84.5l72 -62l-30 -57q-15 -29 -34.5 -52.5t-47 -39t-66.5 -15.5q-51 0 -98.5 21.5t-93.5 47t-95 47t-104 21.5q-27 0 -46.5 -11t-32.5 -28.5 t-21.5 -40t-12.5 -47.5z" />
<glyph horiz-adv-x="1208" d="M61 46q-1 6 0 12q0 8 1 16q3 12 14 12q37 0 69.5 12.5t53.5 34.5l99 105l143 152l167 179l171 187l156 173l122 138q23 31 7.5 46t-56.5 15q-76 0 -181 4q-39 1 -78 1l-131 -4q-104 -5 -193 -25.5t-130 -69.5q-10 -14 -25.5 -13t-19.5 17q6 25 10 50.5t10 46t17.5 36 t29.5 17.5q57 4 140.5 7t177.5 6l192 6q98 3 188.5 5t166 3.5t121.5 1.5q14 0 21 -10.5t9 -23t-2 -22.5t-14 -10q-12 -4 -36 -15.5t-34 -27.5l-199 -219l-239 -255l-239 -266q-116 -134 -199 -251q-12 -18 -8 -32.5t26 -18.5q66 -18 184.5 -45t262 -50.5t295 -41 t282.5 -17.5q109 0 175.5 10t104.5 40t51 82q12 45 11 113v21q0 10 11.5 13.5t15.5 3.5t26.5 -5.5t26.5 -15.5q0 -80 -18.5 -151.5t-59.5 -133.5q-43 -66 -105.5 -83t-146.5 -17q-139 2 -305 33t-348 69.5t-377.5 72.5t-394.5 40q-6 0 -11.5 13.5t-7.5 28.5zM826 1677 q-8 25 6 37l22 22q16 15 23 15q8 0 12 -22q8 -47 26 -107l31 -109q6 -18 21 -18q6 0 16 10l73 87l79 91q14 18 19 27.5t12 9.5q6 0 29.5 -8t23.5 -14q6 -20 -17 -37q-25 -25 -54 -60l-60 -74l-60 -75l-49 -61q-18 -23 -24.5 -28t-24.5 -5q-16 0 -18 14q-2 18 -16 61l-27 88 l-27 89q-12 42 -16 67z" />
<glyph unicode="&#x17d;" horiz-adv-x="1208" d="M61 46q-1 6 0 12q0 8 1 16q3 12 14 12q37 0 69.5 12.5t53.5 34.5l99 105l143 152l167 179l171 187l156 173l122 138q23 31 7.5 46t-56.5 15q-76 0 -181 4q-39 1 -78 1l-131 -4q-104 -5 -193 -25.5t-130 -69.5q-10 -14 -25.5 -13t-19.5 17q6 25 10 50.5t10 46t17.5 36 t29.5 17.5q57 4 140.5 7t177.5 6l192 6q98 3 188.5 5t166 3.5t121.5 1.5q14 0 21 -10.5t9 -23t-2 -22.5t-14 -10q-12 -4 -36 -15.5t-34 -27.5l-199 -219l-239 -255l-239 -266q-116 -134 -199 -251q-12 -18 -8 -32.5t26 -18.5q66 -18 184.5 -45t262 -50.5t295 -41 t282.5 -17.5q109 0 175.5 10t104.5 40t51 82q12 45 11 113v21q0 10 11.5 13.5t15.5 3.5t26.5 -5.5t26.5 -15.5q0 -80 -18.5 -151.5t-59.5 -133.5q-43 -66 -105.5 -83t-146.5 -17q-139 2 -305 33t-348 69.5t-377.5 72.5t-394.5 40q-6 0 -11.5 13.5t-7.5 28.5zM826 1677 q-8 25 6 37l22 22q16 15 23 15q8 0 12 -22q8 -47 26 -107l31 -109q6 -18 21 -18q6 0 16 10l73 87l79 91q14 18 19 27.5t12 9.5q6 0 29.5 -8t23.5 -14q6 -20 -17 -37q-25 -25 -54 -60l-60 -74l-60 -75l-49 -61q-18 -23 -24.5 -28t-24.5 -5q-16 0 -18 14q-2 18 -16 61l-27 88 l-27 89q-12 42 -16 67z" />
<glyph horiz-adv-x="747" d="M-8 20q-2 5 -2 9q0 8 8 12q96 55 186 123.5t161 128t114 103.5t43 50q-2 12 -15 13q-25 -12 -62.5 -16.5t-70.5 -4.5q-20 0 -43.5 7.5t-45 24.5t-38 48t-24.5 80q4 25 24.5 61.5t61.5 67.5q6 0 20.5 -15.5t18.5 -21.5q-10 -10 -20.5 -30.5t-8.5 -36.5q2 -66 38 -87.5 t101 -21.5q35 0 58.5 6t45 20.5t43.5 38.5l52 56q4 6 18.5 3t28.5 -11.5t23.5 -19.5t3.5 -21q-41 -53 -95.5 -114.5l-115.5 -124.5l-125 -122q-63 -59 -123 -106q-20 -12 20 -39q352 -205 607.5 -327t420.5 -122q137 0 237.5 68t150.5 209q2 2 11 -2t21.5 -10.5t23.5 -13.5 t13 -11q0 -61 -31.5 -118.5t-90 -101.5t-139.5 -72t-183 -28q-137 0 -263 36t-258.5 100.5t-278.5 153.5l-325 194q-14 6 -20 8t-18 -8l-39 -27q-18 -12 -35 -33q-12 -6 -29.5 0.5t-33 18.5t-21.5 26zM379 1165q-8 25 6 37l22 22q16 15 23 15q8 0 12 -22q8 -47 26 -107 l31 -109q6 -18 21 -18q6 0 16 10l73 87l79 91q14 18 19 27.5t12 9.5q6 0 29.5 -8t23.5 -14q6 -20 -17 -37q-25 -25 -54 -60l-60 -74l-60 -75l-49 -61q-18 -23 -24.5 -28t-24.5 -5q-16 0 -18 14q-2 18 -16 61l-27 88l-27 89q-12 42 -16 67z" />
<glyph unicode="&#x17e;" horiz-adv-x="747" d="M-8 20q-2 5 -2 9q0 8 8 12q96 55 186 123.5t161 128t114 103.5t43 50q-2 12 -15 13q-25 -12 -62.5 -16.5t-70.5 -4.5q-20 0 -43.5 7.5t-45 24.5t-38 48t-24.5 80q4 25 24.5 61.5t61.5 67.5q6 0 20.5 -15.5t18.5 -21.5q-10 -10 -20.5 -30.5t-8.5 -36.5q2 -66 38 -87.5 t101 -21.5q35 0 58.5 6t45 20.5t43.5 38.5l52 56q4 6 18.5 3t28.5 -11.5t23.5 -19.5t3.5 -21q-41 -53 -95.5 -114.5l-115.5 -124.5l-125 -122q-63 -59 -123 -106q-20 -12 20 -39q352 -205 607.5 -327t420.5 -122q137 0 237.5 68t150.5 209q2 2 11 -2t21.5 -10.5t23.5 -13.5 t13 -11q0 -61 -31.5 -118.5t-90 -101.5t-139.5 -72t-183 -28q-137 0 -263 36t-258.5 100.5t-278.5 153.5l-325 194q-14 6 -20 8t-18 -8l-39 -27q-18 -12 -35 -33q-12 -6 -29.5 0.5t-33 18.5t-21.5 26zM379 1165q-8 25 6 37l22 22q16 15 23 15q8 0 12 -22q8 -47 26 -107 l31 -109q6 -18 21 -18q6 0 16 10l73 87l79 91q14 18 19 27.5t12 9.5q6 0 29.5 -8t23.5 -14q6 -20 -17 -37q-25 -25 -54 -60l-60 -74l-60 -75l-49 -61q-18 -23 -24.5 -28t-24.5 -5q-16 0 -18 14q-2 18 -16 61l-27 88l-27 89q-12 42 -16 67z" />
</font>
</defs>
</svg>
