<?xml version="1.0" standalone="no"?>
<!DOCTYPE svg PUBLIC "-//W3C//DTD SVG 1.1//EN" "http://www.w3.org/Graphics/SVG/1.1/DTD/svg11.dtd" >
<svg xmlns="http://www.w3.org/2000/svg">
<metadata>
This is a custom SVG webfont generated by Font Squirrel.
Copyright   : Copyright c 20102011 by Software Industry Promotion Agency Public Organization SIPA All rights reservedCreated by  Suppakit CHALERMLARP
Designer    : MrSuppakit CHALERMLARP
Foundry     : MrSuppakit Chalermlarp RSADDesign LTD
Foundry URL : httpwwwfacebookcomsuppakitchalermlarp
</metadata>
<defs>
<font id="THSarabunNewBold" horiz-adv-x="0" >
<font-face units-per-em="2048" ascent="1638" descent="-410" />
<missing-glyph horiz-adv-x="462" />
<glyph unicode="A&#x300;" horiz-adv-x="923" d="M-2 0l410 989h110l408 -989h-142l-129 326h-391l-127 -326h-139zM311 436h295l-143 406zM326 1266l117 37l153 -236h-98z" />
<glyph unicode="A&#x301;" horiz-adv-x="923" d="M-2 0l410 989h110l408 -989h-142l-129 326h-391l-127 -326h-139zM311 436h295l-143 406zM326 1067l154 236l116 -37l-172 -199h-98z" />
<glyph unicode="A&#x303;" horiz-adv-x="923" d="M-2 0l410 989h110l408 -989h-142l-129 326h-391l-127 -326h-139zM311 436h295l-143 406zM256 1067q0 61 29.5 103.5t85.5 42.5q18 0 41.5 -8t46 -19.5t44 -19.5t36.5 -8q39 0 38 55h89q-2 -72 -32 -114t-89 -42q-16 0 -40 9.5t-49.5 20.5t-48 20.5t-36.5 9.5 q-16 0 -20.5 -15.5t-4.5 -34.5h-90z" />
<glyph unicode="E&#x300;" horiz-adv-x="733" d="M102 0v975h580v-111h-451v-295h402v-110h-402v-348h451v-111h-580zM231 1266l117 37l153 -236h-98z" />
<glyph unicode="E&#x301;" horiz-adv-x="733" d="M102 0v975h580v-111h-451v-295h402v-110h-402v-348h451v-111h-580zM231 1067l154 236l116 -37l-172 -199h-98z" />
<glyph unicode="I&#x300;" horiz-adv-x="333" d="M102 0v975h129v-975h-129zM31 1266l117 37l153 -236h-98z" />
<glyph unicode="I&#x301;" horiz-adv-x="333" d="M102 0v975h129v-975h-129zM31 1067l154 236l116 -37l-172 -199h-98z" />
<glyph unicode="O&#x300;" horiz-adv-x="1060" d="M53 485q0 215 133 361.5t344 146.5t344.5 -146.5t133.5 -361.5t-133.5 -360t-344.5 -145t-344 145t-133 360zM180 487q0 -168 96.5 -281.5t253.5 -113.5q158 0 254.5 113.5t96.5 281.5t-96.5 282t-254.5 114t-254 -114t-96 -282zM395 1266l117 37l153 -236h-98z" />
<glyph unicode="O&#x301;" horiz-adv-x="1060" d="M53 485q0 215 133 361.5t344 146.5t344.5 -146.5t133.5 -361.5t-133.5 -360t-344.5 -145t-344 145t-133 360zM180 487q0 -168 96.5 -281.5t253.5 -113.5q158 0 254.5 113.5t96.5 281.5t-96.5 282t-254.5 114t-254 -114t-96 -282zM395 1067l154 236l116 -37l-172 -199h-98 z" />
<glyph unicode="O&#x303;" horiz-adv-x="1060" d="M53 485q0 215 133 361.5t344 146.5t344.5 -146.5t133.5 -361.5t-133.5 -360t-344.5 -145t-344 145t-133 360zM180 487q0 -168 96.5 -281.5t253.5 -113.5q158 0 254.5 113.5t96.5 281.5t-96.5 282t-254.5 114t-254 -114t-96 -282zM326 1067q0 61 29.5 103.5t85.5 42.5 q18 0 41.5 -8t46 -19.5t44 -19.5t36.5 -8q39 0 38 55h89q-2 -72 -32 -114t-89 -42q-16 0 -40 9.5t-49.5 20.5t-48 20.5t-36.5 9.5q-16 0 -20.5 -15.5t-4.5 -34.5h-90z" />
<glyph unicode="U&#x300;" horiz-adv-x="987" d="M102 416v559h131v-559q0 -324 261 -324q260 0 260 324v559h131v-559q0 -434 -391 -434q-392 0 -392 434zM358 1266l117 37l153 -236h-98z" />
<glyph unicode="U&#x301;" horiz-adv-x="987" d="M102 416v559h131v-559q0 -324 261 -324q260 0 260 324v559h131v-559q0 -434 -391 -434q-392 0 -392 434zM358 1067l154 236l116 -37l-172 -199h-98z" />
<glyph unicode="Y&#x301;" horiz-adv-x="811" d="M-12 975h149l271 -438l268 438h147l-352 -547v-428h-127v426zM270 1067l154 236l116 -37l-172 -199h-98z" />
<glyph unicode="a&#x300;" horiz-adv-x="751" d="M53 190q0 260 465 267q-20 154 -168 153q-111 0 -244 -51l-14 117q139 41 264 41q291 0 291 -299v-232q0 -78 29 -180l-121 -24l-20 90q-104 -90 -236 -90q-104 0 -174 56t-72 152zM184 203q0 -109 121 -109q68 0 135 33q78 39 78 94v123q-334 -6 -334 -141zM239 987 l117 37l153 -236h-98z" />
<glyph unicode="a&#x301;" horiz-adv-x="751" d="M53 190q0 260 465 267q-20 154 -168 153q-111 0 -244 -51l-14 117q139 41 264 41q291 0 291 -299v-232q0 -78 29 -180l-121 -24l-20 90q-104 -90 -236 -90q-104 0 -174 56t-72 152zM184 203q0 -109 121 -109q68 0 135 33q78 39 78 94v123q-334 -6 -334 -141zM240 788 l154 236l116 -37l-172 -199h-98z" />
<glyph unicode="a&#x303;" horiz-adv-x="751" d="M53 190q0 260 465 267q-20 154 -168 153q-111 0 -244 -51l-14 117q139 41 264 41q291 0 291 -299v-232q0 -78 29 -180l-121 -24l-20 90q-104 -90 -236 -90q-104 0 -174 56t-72 152zM184 203q0 -109 121 -109q68 0 135 33q78 39 78 94v123q-334 -6 -334 -141zM170 788 q0 61 29.5 103.5t85.5 42.5q18 0 41.5 -8t46 -19.5t44 -19.5t36.5 -8q39 0 38 55h89q-2 -72 -32 -114t-89 -42q-16 0 -40 9.5t-49.5 20.5t-48 20.5t-36.5 9.5q-16 0 -20.5 -15.5t-4.5 -34.5h-90z" />
<glyph unicode="e&#x300;" horiz-adv-x="800" d="M53 338q0 174 107 283q104 102 266 102q315 0 322 -395h-568q8 -111 79 -171.5t183 -60.5q115 0 263 54l14 -113q-150 -55 -285 -55q-166 0 -273.5 99t-107.5 257zM188 436h433q-10 80 -65.5 130t-141.5 50q-82 0 -147 -50t-79 -130zM264 987l117 37l153 -236h-98z" />
<glyph unicode="e&#x301;" horiz-adv-x="800" d="M53 338q0 174 107 283q104 102 266 102q315 0 322 -395h-568q8 -111 79 -171.5t183 -60.5q115 0 263 54l14 -113q-150 -55 -285 -55q-166 0 -273.5 99t-107.5 257zM188 436h433q-10 80 -65.5 130t-141.5 50q-82 0 -147 -50t-79 -130zM264 788l154 236l116 -37l-172 -199 h-98z" />
<glyph unicode="i&#x300;" horiz-adv-x="333" d="M102 0v696h129v-696h-129zM31 987l117 37l153 -236h-98z" />
<glyph unicode="i&#x301;" horiz-adv-x="333" d="M102 0v696h129v-696h-129zM31 788l154 236l116 -37l-172 -199h-98z" />
<glyph unicode="o&#x300;" horiz-adv-x="843" d="M53 352q0 156 104.5 263.5t264.5 107.5t264.5 -107.5t104.5 -263.5t-104.5 -262t-264.5 -106t-264.5 106t-104.5 262zM180 352q0 -111 67.5 -185.5t174.5 -74.5q106 0 174 75t68 185q0 111 -68 185.5t-174 74.5t-174 -74.5t-68 -185.5zM287 987l117 37l153 -236h-98z" />
<glyph unicode="o&#x301;" horiz-adv-x="843" d="M53 352q0 156 104.5 263.5t264.5 107.5t264.5 -107.5t104.5 -263.5t-104.5 -262t-264.5 -106t-264.5 106t-104.5 262zM180 352q0 -111 67.5 -185.5t174.5 -74.5q106 0 174 75t68 185q0 111 -68 185.5t-174 74.5t-174 -74.5t-68 -185.5zM287 788l154 236l116 -37 l-172 -199h-98z" />
<glyph unicode="o&#x303;" horiz-adv-x="843" d="M53 352q0 156 104.5 263.5t264.5 107.5t264.5 -107.5t104.5 -263.5t-104.5 -262t-264.5 -106t-264.5 106t-104.5 262zM180 352q0 -111 67.5 -185.5t174.5 -74.5q106 0 174 75t68 185q0 111 -68 185.5t-174 74.5t-174 -74.5t-68 -185.5zM217 788q0 61 29.5 103.5 t85.5 42.5q18 0 41.5 -8t46 -19.5t44 -19.5t36.5 -8q39 0 38 55h89q-2 -72 -32 -114t-89 -42q-16 0 -40 9.5t-49.5 20.5t-48 20.5t-36.5 9.5q-16 0 -20.5 -15.5t-4.5 -34.5h-90z" />
<glyph unicode="u&#x300;" horiz-adv-x="856" d="M102 315v381h129v-368q0 -231 177 -232q74 0 145.5 56.5t71.5 132.5v411h129v-510q0 -70 43 -178l-125 -24q-20 49 -37 118q-123 -121 -244 -120q-289 -1 -289 333zM293 987l117 37l153 -236h-98z" />
<glyph unicode="u&#x301;" horiz-adv-x="856" d="M102 315v381h129v-368q0 -231 177 -232q74 0 145.5 56.5t71.5 132.5v411h129v-510q0 -70 43 -178l-125 -24q-20 49 -37 118q-123 -121 -244 -120q-289 -1 -289 333zM293 788l154 236l116 -37l-172 -199h-98z" />
<glyph unicode="y&#x301;" horiz-adv-x="739" d="M-8 696h141l242 -516l229 516h141l-319 -682q-129 -272 -360 -323l-33 106q182 41 268 254zM233 788l154 236l116 -37l-172 -199h-98z" />
<glyph unicode="I&#x303;" horiz-adv-x="333" d="M102 0v975h129v-975h-129zM-37 1067q0 61 29.5 103.5t85.5 42.5q18 0 41.5 -8t46 -19.5t44 -19.5t36.5 -8q39 0 38 55h89q-2 -72 -32 -114t-89 -42q-16 0 -40 9.5t-49.5 20.5t-48 20.5t-36.5 9.5q-16 0 -20.5 -15.5t-4.5 -34.5h-90z" />
<glyph unicode="i&#x303;" horiz-adv-x="333" d="M102 0v696h129v-696h-129zM-39 788q0 61 29.5 103.5t85.5 42.5q18 0 41.5 -8t46 -19.5t44 -19.5t36.5 -8q39 0 38 55h89q-2 -72 -32 -114t-89 -42q-16 0 -40 9.5t-49.5 20.5t-48 20.5t-36.5 9.5q-16 0 -20.5 -15.5t-4.5 -34.5h-90z" />
<glyph unicode="U&#x303;" horiz-adv-x="987" d="M102 416v559h131v-559q0 -324 261 -324q260 0 260 324v559h131v-559q0 -434 -391 -434q-392 0 -392 434zM289 1067q0 61 29.5 103.5t85.5 42.5q18 0 41.5 -8t46 -19.5t44 -19.5t36.5 -8q39 0 38 55h89q-2 -72 -32 -114t-89 -42q-16 0 -40 9.5t-49.5 20.5t-48 20.5 t-36.5 9.5q-16 0 -20.5 -15.5t-4.5 -34.5h-90z" />
<glyph unicode="u&#x303;" horiz-adv-x="856" d="M102 315v381h129v-368q0 -231 177 -232q74 0 145.5 56.5t71.5 132.5v411h129v-510q0 -70 43 -178l-125 -24q-20 49 -37 118q-123 -121 -244 -120q-289 -1 -289 333zM223 788q0 61 29.5 103.5t85.5 42.5q18 0 41.5 -8t46 -19.5t44 -19.5t36.5 -8q39 0 38 55h89 q-2 -72 -32 -114t-89 -42q-16 0 -40 9.5t-49.5 20.5t-48 20.5t-36.5 9.5q-16 0 -20.5 -15.5t-4.5 -34.5h-90z" />
<glyph unicode="A&#x323;" horiz-adv-x="923" d="M-2 0l410 989h110l408 -989h-142l-129 326h-391l-127 -326h-139zM311 436h295l-143 406zM365 -197q0 41 28.5 70t67.5 29t67.5 -29t28.5 -70t-28.5 -69.5t-67.5 -28.5t-67.5 28.5t-28.5 69.5z" />
<glyph unicode="a&#x323;" horiz-adv-x="751" d="M53 190q0 260 465 267q-20 154 -168 153q-111 0 -244 -51l-14 117q139 41 264 41q291 0 291 -299v-232q0 -78 29 -180l-121 -24l-20 90q-104 -90 -236 -90q-104 0 -174 56t-72 152zM184 203q0 -109 121 -109q68 0 135 33q78 39 78 94v123q-334 -6 -334 -141zM279 -197 q0 41 28.5 70t67.5 29t67.5 -29t28.5 -70t-28.5 -69.5t-67.5 -28.5t-67.5 28.5t-28.5 69.5z" />
<glyph unicode="A&#x309;" horiz-adv-x="923" d="M-2 0l410 989h110l408 -989h-142l-129 326h-391l-127 -326h-139zM311 436h295l-143 406zM328 1291q16 33 55 62.5t105 29.5q59 0 97 -31t38 -96q0 -35 -18.5 -62.5t-40 -52t-39 -48t-17.5 -50.5h-92q0 33 18.5 59.5t41 50t41 46t18.5 47.5q0 35 -15.5 46t-41.5 11 q-35 0 -61.5 -22.5t-35.5 -34.5z" />
<glyph unicode="a&#x309;" horiz-adv-x="751" d="M53 190q0 260 465 267q-20 154 -168 153q-111 0 -244 -51l-14 117q139 41 264 41q291 0 291 -299v-232q0 -78 29 -180l-121 -24l-20 90q-104 -90 -236 -90q-104 0 -174 56t-72 152zM184 203q0 -109 121 -109q68 0 135 33q78 39 78 94v123q-334 -6 -334 -141zM227 1012 q16 33 55 62.5t105 29.5q59 0 97 -31t38 -96q0 -35 -18.5 -62.5t-40 -52t-39 -48t-17.5 -50.5h-92q0 33 18.5 59.5t41 50t41 46t18.5 47.5q0 35 -15.5 46t-41.5 11q-35 0 -61.5 -22.5t-35.5 -34.5z" />
<glyph unicode="&#xc2;&#x301;" horiz-adv-x="923" d="M-2 0l410 989h110l408 -989h-142l-129 326h-391l-127 -326h-139zM311 436h295l-143 406zM267 1067l159 236h72l158 -236h-111l-84 146l-82 -146h-112zM602 1239l154 236l116 -37l-172 -199h-98z" />
<glyph unicode="&#xe2;&#x301;" horiz-adv-x="751" d="M53 190q0 260 465 267q-20 154 -168 153q-111 0 -244 -51l-14 117q139 41 264 41q291 0 291 -299v-232q0 -78 29 -180l-121 -24l-20 90q-104 -90 -236 -90q-104 0 -174 56t-72 152zM184 203q0 -109 121 -109q68 0 135 33q78 39 78 94v123q-334 -6 -334 -141zM181 788 l159 236h72l158 -236h-111l-84 146l-82 -146h-112zM522 976l154 236l116 -37l-172 -199h-98z" />
<glyph unicode="&#xc2;&#x300;" horiz-adv-x="923" d="M-2 0l410 989h110l408 -989h-142l-129 326h-391l-127 -326h-139zM311 436h295l-143 406zM267 1067l159 236h72l158 -236h-111l-84 146l-82 -146h-112zM551 1438l117 37l153 -236h-98z" />
<glyph unicode="&#xe2;&#x300;" horiz-adv-x="751" d="M53 190q0 260 465 267q-20 154 -168 153q-111 0 -244 -51l-14 117q139 41 264 41q291 0 291 -299v-232q0 -78 29 -180l-121 -24l-20 90q-104 -90 -236 -90q-104 0 -174 56t-72 152zM184 203q0 -109 121 -109q68 0 135 33q78 39 78 94v123q-334 -6 -334 -141zM181 788 l159 236h72l158 -236h-111l-84 146l-82 -146h-112zM428 1175l117 37l153 -236h-98z" />
<glyph unicode="&#xc2;&#x309;" horiz-adv-x="923" d="M-2 0l410 989h110l408 -989h-142l-129 326h-391l-127 -326h-139zM311 436h295l-143 406zM267 1067l159 236h72l158 -236h-111l-84 146l-82 -146h-112zM571 1471q16 33 55 62.5t105 29.5q59 0 97 -31t38 -96q0 -35 -18.5 -62.5t-40 -52t-39 -48t-17.5 -50.5h-92 q0 33 18.5 59.5t41 50t41 46t18.5 47.5q0 35 -15.5 46t-41.5 11q-35 0 -61.5 -22.5t-35.5 -34.5z" />
<glyph unicode="&#xe2;&#x309;" horiz-adv-x="751" d="M53 190q0 260 465 267q-20 154 -168 153q-111 0 -244 -51l-14 117q139 41 264 41q291 0 291 -299v-232q0 -78 29 -180l-121 -24l-20 90q-104 -90 -236 -90q-104 0 -174 56t-72 152zM184 203q0 -109 121 -109q68 0 135 33q78 39 78 94v123q-334 -6 -334 -141zM181 788 l159 236h72l158 -236h-111l-84 146l-82 -146h-112zM465 1205q16 33 55 62.5t105 29.5q59 0 97 -31t38 -96q0 -35 -18.5 -62.5t-40 -52t-39 -48t-17.5 -50.5h-92q0 33 18.5 59.5t41 50t41 46t18.5 47.5q0 35 -15.5 46t-41.5 11q-35 0 -61.5 -22.5t-35.5 -34.5z" />
<glyph unicode="&#xc2;&#x303;" horiz-adv-x="923" d="M-2 0l410 989h110l408 -989h-142l-129 326h-391l-127 -326h-139zM311 436h295l-143 406zM267 1067l159 236h72l158 -236h-111l-84 146l-82 -146h-112zM256 1386q0 61 29.5 103.5t85.5 42.5q18 0 41.5 -8t46 -19.5t44 -19.5t36.5 -8q39 0 38 55h89q-2 -72 -32 -114 t-89 -42q-16 0 -40 9.5t-49.5 20.5t-48 20.5t-36.5 9.5q-16 0 -20.5 -15.5t-4.5 -34.5h-90z" />
<glyph unicode="&#xe2;&#x303;" horiz-adv-x="751" d="M53 190q0 260 465 267q-20 154 -168 153q-111 0 -244 -51l-14 117q139 41 264 41q291 0 291 -299v-232q0 -78 29 -180l-121 -24l-20 90q-104 -90 -236 -90q-104 0 -174 56t-72 152zM184 203q0 -109 121 -109q68 0 135 33q78 39 78 94v123q-334 -6 -334 -141zM181 788 l159 236h72l158 -236h-111l-84 146l-82 -146h-112zM170 1083q0 61 29.5 103.5t85.5 42.5q18 0 41.5 -8t46 -19.5t44 -19.5t36.5 -8q39 0 38 55h89q-2 -72 -32 -114t-89 -42q-16 0 -40 9.5t-49.5 20.5t-48 20.5t-36.5 9.5q-16 0 -20.5 -15.5t-4.5 -34.5h-90z" />
<glyph unicode="&#xc2;&#x323;" horiz-adv-x="923" d="M-2 0l410 989h110l408 -989h-142l-129 326h-391l-127 -326h-139zM311 436h295l-143 406zM365 -197q0 41 28.5 70t67.5 29t67.5 -29t28.5 -70t-28.5 -69.5t-67.5 -28.5t-67.5 28.5t-28.5 69.5zM267 1067l159 236h72l158 -236h-111l-84 146l-82 -146h-112z" />
<glyph unicode="&#xe2;&#x323;" horiz-adv-x="751" d="M53 190q0 260 465 267q-20 154 -168 153q-111 0 -244 -51l-14 117q139 41 264 41q291 0 291 -299v-232q0 -78 29 -180l-121 -24l-20 90q-104 -90 -236 -90q-104 0 -174 56t-72 152zM184 203q0 -109 121 -109q68 0 135 33q78 39 78 94v123q-334 -6 -334 -141zM279 -197 q0 41 28.5 70t67.5 29t67.5 -29t28.5 -70t-28.5 -69.5t-67.5 -28.5t-67.5 28.5t-28.5 69.5zM181 788l159 236h72l158 -236h-111l-84 146l-82 -146h-112z" />
<glyph unicode="&#x102;&#x301;" horiz-adv-x="923" d="M-2 0l410 989h110l408 -989h-142l-129 326h-391l-127 -326h-139zM311 436h295l-143 406zM220 1285h110q10 -51 42 -91.5t89 -40.5t90 40t43 92h109q-20 -117 -81.5 -173.5t-160.5 -56.5q-98 0 -159.5 56.5t-81.5 173.5zM405 1325l154 236l116 -37l-172 -199h-98z" />
<glyph unicode="&#x103;&#x301;" horiz-adv-x="751" d="M53 190q0 260 465 267q-20 154 -168 153q-111 0 -244 -51l-14 117q139 41 264 41q291 0 291 -299v-232q0 -78 29 -180l-121 -24l-20 90q-104 -90 -236 -90q-104 0 -174 56t-72 152zM184 203q0 -109 121 -109q68 0 135 33q78 39 78 94v123q-334 -6 -334 -141zM134 1006 h110q10 -51 42 -91.5t89 -40.5t90 40t43 92h109q-20 -117 -81.5 -173.5t-160.5 -56.5q-98 0 -159.5 56.5t-81.5 173.5zM317 1046l154 236l116 -37l-172 -199h-98z" />
<glyph unicode="&#x102;&#x300;" horiz-adv-x="923" d="M-2 0l410 989h110l408 -989h-142l-129 326h-391l-127 -326h-139zM311 436h295l-143 406zM220 1285h110q10 -51 42 -91.5t89 -40.5t90 40t43 92h109q-20 -117 -81.5 -173.5t-160.5 -56.5q-98 0 -159.5 56.5t-81.5 173.5zM248 1501l117 37l153 -236h-98z" />
<glyph unicode="&#x103;&#x300;" horiz-adv-x="751" d="M53 190q0 260 465 267q-20 154 -168 153q-111 0 -244 -51l-14 117q139 41 264 41q291 0 291 -299v-232q0 -78 29 -180l-121 -24l-20 90q-104 -90 -236 -90q-104 0 -174 56t-72 152zM184 203q0 -109 121 -109q68 0 135 33q78 39 78 94v123q-334 -6 -334 -141zM134 1006 h110q10 -51 42 -91.5t89 -40.5t90 40t43 92h109q-20 -117 -81.5 -173.5t-160.5 -56.5q-98 0 -159.5 56.5t-81.5 173.5zM164 1227l117 37l153 -236h-98z" />
<glyph unicode="&#x102;&#x309;" horiz-adv-x="923" d="M-2 0l410 989h110l408 -989h-142l-129 326h-391l-127 -326h-139zM311 436h295l-143 406zM220 1285h110q10 -51 42 -91.5t89 -40.5t90 40t43 92h109q-20 -117 -81.5 -173.5t-160.5 -56.5q-98 0 -159.5 56.5t-81.5 173.5zM321 1540q16 33 55 62.5t105 29.5q59 0 97 -31 t38 -96q0 -35 -18.5 -62.5t-40 -52t-39 -48t-17.5 -50.5h-92q0 33 18.5 59.5t41 50t41 46t18.5 47.5q0 35 -15.5 46t-41.5 11q-35 0 -61.5 -22.5t-35.5 -34.5z" />
<glyph unicode="&#x103;&#x309;" horiz-adv-x="751" d="M53 190q0 260 465 267q-20 154 -168 153q-111 0 -244 -51l-14 117q139 41 264 41q291 0 291 -299v-232q0 -78 29 -180l-121 -24l-20 90q-104 -90 -236 -90q-104 0 -174 56t-72 152zM184 203q0 -109 121 -109q68 0 135 33q78 39 78 94v123q-334 -6 -334 -141zM134 1006 h110q10 -51 42 -91.5t89 -40.5t90 40t43 92h109q-20 -117 -81.5 -173.5t-160.5 -56.5q-98 0 -159.5 56.5t-81.5 173.5zM242 1250q16 33 55 62.5t105 29.5q59 0 97 -31t38 -96q0 -35 -18.5 -62.5t-40 -52t-39 -48t-17.5 -50.5h-92q0 33 18.5 59.5t41 50t41 46t18.5 47.5 q0 35 -15.5 46t-41.5 11q-35 0 -61.5 -22.5t-35.5 -34.5z" />
<glyph unicode="&#x102;&#x303;" horiz-adv-x="923" d="M-2 0l410 989h110l408 -989h-142l-129 326h-391l-127 -326h-139zM311 436h295l-143 406zM220 1285h110q10 -51 42 -91.5t89 -40.5t90 40t43 92h109q-20 -117 -81.5 -173.5t-160.5 -56.5q-98 0 -159.5 56.5t-81.5 173.5zM256 1386q0 61 29.5 103.5t85.5 42.5q18 0 41.5 -8 t46 -19.5t44 -19.5t36.5 -8q39 0 38 55h89q-2 -72 -32 -114t-89 -42q-16 0 -40 9.5t-49.5 20.5t-48 20.5t-36.5 9.5q-16 0 -20.5 -15.5t-4.5 -34.5h-90z" />
<glyph unicode="&#x103;&#x303;" horiz-adv-x="751" d="M53 190q0 260 465 267q-20 154 -168 153q-111 0 -244 -51l-14 117q139 41 264 41q291 0 291 -299v-232q0 -78 29 -180l-121 -24l-20 90q-104 -90 -236 -90q-104 0 -174 56t-72 152zM184 203q0 -109 121 -109q68 0 135 33q78 39 78 94v123q-334 -6 -334 -141zM134 1006 h110q10 -51 42 -91.5t89 -40.5t90 40t43 92h109q-20 -117 -81.5 -173.5t-160.5 -56.5q-98 0 -159.5 56.5t-81.5 173.5zM170 1075q0 61 29.5 103.5t85.5 42.5q18 0 41.5 -8t46 -19.5t44 -19.5t36.5 -8q39 0 38 55h89q-2 -72 -32 -114t-89 -42q-16 0 -40 9.5t-49.5 20.5 t-48 20.5t-36.5 9.5q-16 0 -20.5 -15.5t-4.5 -34.5h-90z" />
<glyph unicode="&#x102;&#x323;" horiz-adv-x="923" d="M-2 0l410 989h110l408 -989h-142l-129 326h-391l-127 -326h-139zM311 436h295l-143 406zM365 -197q0 41 28.5 70t67.5 29t67.5 -29t28.5 -70t-28.5 -69.5t-67.5 -28.5t-67.5 28.5t-28.5 69.5zM220 1285h110q10 -51 42 -91.5t89 -40.5t90 40t43 92h109 q-20 -117 -81.5 -173.5t-160.5 -56.5q-98 0 -159.5 56.5t-81.5 173.5z" />
<glyph unicode="&#x103;&#x323;" horiz-adv-x="751" d="M53 190q0 260 465 267q-20 154 -168 153q-111 0 -244 -51l-14 117q139 41 264 41q291 0 291 -299v-232q0 -78 29 -180l-121 -24l-20 90q-104 -90 -236 -90q-104 0 -174 56t-72 152zM184 203q0 -109 121 -109q68 0 135 33q78 39 78 94v123q-334 -6 -334 -141zM279 -197 q0 41 28.5 70t67.5 29t67.5 -29t28.5 -70t-28.5 -69.5t-67.5 -28.5t-67.5 28.5t-28.5 69.5zM134 1006h110q10 -51 42 -91.5t89 -40.5t90 40t43 92h109q-20 -117 -81.5 -173.5t-160.5 -56.5q-98 0 -159.5 56.5t-81.5 173.5z" />
<glyph unicode="E&#x323;" horiz-adv-x="733" d="M102 0v975h580v-111h-451v-295h402v-110h-402v-348h451v-111h-580zM271 -197q0 41 28.5 70t67.5 29t67.5 -29t28.5 -70t-28.5 -69.5t-67.5 -28.5t-67.5 28.5t-28.5 69.5z" />
<glyph unicode="e&#x323;" horiz-adv-x="800" d="M53 338q0 174 107 283q104 102 266 102q315 0 322 -395h-568q8 -111 79 -171.5t183 -60.5q115 0 263 54l14 -113q-150 -55 -285 -55q-166 0 -273.5 99t-107.5 257zM188 436h433q-10 80 -65.5 130t-141.5 50q-82 0 -147 -50t-79 -130zM304 -197q0 41 28.5 70t67.5 29 t67.5 -29t28.5 -70t-28.5 -69.5t-67.5 -28.5t-67.5 28.5t-28.5 69.5z" />
<glyph unicode="E&#x309;" horiz-adv-x="733" d="M102 0v975h580v-111h-451v-295h402v-110h-402v-348h451v-111h-580zM237 1291q16 33 55 62.5t105 29.5q59 0 97 -31t38 -96q0 -35 -18.5 -62.5t-40 -52t-39 -48t-17.5 -50.5h-92q0 33 18.5 59.5t41 50t41 46t18.5 47.5q0 35 -15.5 46t-41.5 11q-35 0 -61.5 -22.5 t-35.5 -34.5z" />
<glyph unicode="e&#x309;" horiz-adv-x="800" d="M53 338q0 174 107 283q104 102 266 102q315 0 322 -395h-568q8 -111 79 -171.5t183 -60.5q115 0 263 54l14 -113q-150 -55 -285 -55q-166 0 -273.5 99t-107.5 257zM188 436h433q-10 80 -65.5 130t-141.5 50q-82 0 -147 -50t-79 -130zM272 1012q16 33 55 62.5t105 29.5 q59 0 97 -31t38 -96q0 -35 -18.5 -62.5t-40 -52t-39 -48t-17.5 -50.5h-92q0 33 18.5 59.5t41 50t41 46t18.5 47.5q0 35 -15.5 46t-41.5 11q-35 0 -61.5 -22.5t-35.5 -34.5z" />
<glyph unicode="E&#x303;" horiz-adv-x="733" d="M102 0v975h580v-111h-451v-295h402v-110h-402v-348h451v-111h-580zM162 1067q0 61 29.5 103.5t85.5 42.5q18 0 41.5 -8t46 -19.5t44 -19.5t36.5 -8q39 0 38 55h89q-2 -72 -32 -114t-89 -42q-16 0 -40 9.5t-49.5 20.5t-48 20.5t-36.5 9.5q-16 0 -20.5 -15.5t-4.5 -34.5 h-90z" />
<glyph unicode="e&#x303;" horiz-adv-x="800" d="M53 338q0 174 107 283q104 102 266 102q315 0 322 -395h-568q8 -111 79 -171.5t183 -60.5q115 0 263 54l14 -113q-150 -55 -285 -55q-166 0 -273.5 99t-107.5 257zM188 436h433q-10 80 -65.5 130t-141.5 50q-82 0 -147 -50t-79 -130zM195 788q0 61 29.5 103.5t85.5 42.5 q18 0 41.5 -8t46 -19.5t44 -19.5t36.5 -8q39 0 38 55h89q-2 -72 -32 -114t-89 -42q-16 0 -40 9.5t-49.5 20.5t-48 20.5t-36.5 9.5q-16 0 -20.5 -15.5t-4.5 -34.5h-90z" />
<glyph unicode="&#xca;&#x301;" horiz-adv-x="733" d="M102 0v975h580v-111h-451v-295h402v-110h-402v-348h451v-111h-580zM172 1067l159 236h72l158 -236h-111l-84 146l-82 -146h-112zM506 1269l154 236l116 -37l-172 -199h-98z" />
<glyph unicode="&#xea;&#x301;" horiz-adv-x="800" d="M53 338q0 174 107 283q104 102 266 102q315 0 322 -395h-568q8 -111 79 -171.5t183 -60.5q115 0 263 54l14 -113q-150 -55 -285 -55q-166 0 -273.5 99t-107.5 257zM188 436h433q-10 80 -65.5 130t-141.5 50q-82 0 -147 -50t-79 -130zM205 788l159 236h72l158 -236h-111 l-84 146l-82 -146h-112zM539 997l154 236l116 -37l-172 -199h-98z" />
<glyph unicode="&#xca;&#x300;" horiz-adv-x="733" d="M102 0v975h580v-111h-451v-295h402v-110h-402v-348h451v-111h-580zM172 1067l159 236h72l158 -236h-111l-84 146l-82 -146h-112zM412 1501l117 37l153 -236h-98z" />
<glyph unicode="&#xea;&#x300;" horiz-adv-x="800" d="M53 338q0 174 107 283q104 102 266 102q315 0 322 -395h-568q8 -111 79 -171.5t183 -60.5q115 0 263 54l14 -113q-150 -55 -285 -55q-166 0 -273.5 99t-107.5 257zM188 436h433q-10 80 -65.5 130t-141.5 50q-82 0 -147 -50t-79 -130zM205 788l159 236h72l158 -236h-111 l-84 146l-82 -146h-112zM477 1173l117 37l153 -236h-98z" />
<glyph unicode="&#xca;&#x309;" horiz-adv-x="733" d="M102 0v975h580v-111h-451v-295h402v-110h-402v-348h451v-111h-580zM172 1067l159 236h72l158 -236h-111l-84 146l-82 -146h-112zM455 1469q16 33 55 62.5t105 29.5q59 0 97 -31t38 -96q0 -35 -18.5 -62.5t-40 -52t-39 -48t-17.5 -50.5h-92q0 33 18.5 59.5t41 50t41 46 t18.5 47.5q0 35 -15.5 46t-41.5 11q-35 0 -61.5 -22.5t-35.5 -34.5z" />
<glyph unicode="&#xea;&#x309;" horiz-adv-x="800" d="M53 338q0 174 107 283q104 102 266 102q315 0 322 -395h-568q8 -111 79 -171.5t183 -60.5q115 0 263 54l14 -113q-150 -55 -285 -55q-166 0 -273.5 99t-107.5 257zM188 436h433q-10 80 -65.5 130t-141.5 50q-82 0 -147 -50t-79 -130zM205 788l159 236h72l158 -236h-111 l-84 146l-82 -146h-112zM520 1180q16 33 55 62.5t105 29.5q59 0 97 -31t38 -96q0 -35 -18.5 -62.5t-40 -52t-39 -48t-17.5 -50.5h-92q0 33 18.5 59.5t41 50t41 46t18.5 47.5q0 35 -15.5 46t-41.5 11q-35 0 -61.5 -22.5t-35.5 -34.5z" />
<glyph unicode="&#xca;&#x303;" horiz-adv-x="733" d="M102 0v975h580v-111h-451v-295h402v-110h-402v-348h451v-111h-580zM172 1067l159 236h72l158 -236h-111l-84 146l-82 -146h-112zM162 1384q0 61 29.5 103.5t85.5 42.5q18 0 41.5 -8t46 -19.5t44 -19.5t36.5 -8q39 0 38 55h89q-2 -72 -32 -114t-89 -42q-16 0 -40 9.5 t-49.5 20.5t-48 20.5t-36.5 9.5q-16 0 -20.5 -15.5t-4.5 -34.5h-90z" />
<glyph unicode="&#xea;&#x303;" horiz-adv-x="800" d="M53 338q0 174 107 283q104 102 266 102q315 0 322 -395h-568q8 -111 79 -171.5t183 -60.5q115 0 263 54l14 -113q-150 -55 -285 -55q-166 0 -273.5 99t-107.5 257zM188 436h433q-10 80 -65.5 130t-141.5 50q-82 0 -147 -50t-79 -130zM205 788l159 236h72l158 -236h-111 l-84 146l-82 -146h-112zM195 1069q0 61 29.5 103.5t85.5 42.5q18 0 41.5 -8t46 -19.5t44 -19.5t36.5 -8q39 0 38 55h89q-2 -72 -32 -114t-89 -42q-16 0 -40 9.5t-49.5 20.5t-48 20.5t-36.5 9.5q-16 0 -20.5 -15.5t-4.5 -34.5h-90z" />
<glyph unicode="&#xca;&#x323;" horiz-adv-x="733" d="M102 0v975h580v-111h-451v-295h402v-110h-402v-348h451v-111h-580zM271 -197q0 41 28.5 70t67.5 29t67.5 -29t28.5 -70t-28.5 -69.5t-67.5 -28.5t-67.5 28.5t-28.5 69.5zM172 1067l159 236h72l158 -236h-111l-84 146l-82 -146h-112z" />
<glyph unicode="&#xea;&#x323;" horiz-adv-x="800" d="M53 338q0 174 107 283q104 102 266 102q315 0 322 -395h-568q8 -111 79 -171.5t183 -60.5q115 0 263 54l14 -113q-150 -55 -285 -55q-166 0 -273.5 99t-107.5 257zM188 436h433q-10 80 -65.5 130t-141.5 50q-82 0 -147 -50t-79 -130zM304 -197q0 41 28.5 70t67.5 29 t67.5 -29t28.5 -70t-28.5 -69.5t-67.5 -28.5t-67.5 28.5t-28.5 69.5zM205 788l159 236h72l158 -236h-111l-84 146l-82 -146h-112z" />
<glyph unicode="I&#x309;" horiz-adv-x="333" d="M102 0v975h129v-975h-129zM29 1291q16 33 55 62.5t105 29.5q59 0 97 -31t38 -96q0 -35 -18.5 -62.5t-40 -52t-39 -48t-17.5 -50.5h-92q0 33 18.5 59.5t41 50t41 46t18.5 47.5q0 35 -15.5 46t-41.5 11q-35 0 -61.5 -22.5t-35.5 -34.5z" />
<glyph unicode="i&#x309;" horiz-adv-x="333" d="M31 1012q16 33 55 62.5t105 29.5q59 0 97 -31t38 -96q0 -35 -18.5 -62.5t-40 -52t-39 -48t-17.5 -50.5h-92q0 33 18.5 59.5t41 50t41 46t18.5 47.5q0 35 -15.5 46t-41.5 11q-35 0 -61.5 -22.5t-35.5 -34.5zM102 0v696h129v-696h-129z" />
<glyph unicode="I&#x323;" horiz-adv-x="333" d="M102 0v975h129v-975h-129zM84 -197q0 41 28.5 70t67.5 29t67.5 -29t28.5 -70t-28.5 -69.5t-67.5 -28.5t-67.5 28.5t-28.5 69.5z" />
<glyph unicode="i&#x323;" horiz-adv-x="333" d="M66 901q0 41 28.5 69.5t69.5 28.5t69.5 -28.5t28.5 -69.5t-28.5 -69.5t-69.5 -28.5t-69.5 28.5t-28.5 69.5zM102 0v696h129v-696h-129zM84 -197q0 41 28.5 70t67.5 29t67.5 -29t28.5 -70t-28.5 -69.5t-67.5 -28.5t-67.5 28.5t-28.5 69.5z" />
<glyph unicode="O&#x323;" horiz-adv-x="1060" d="M53 485q0 215 133 361.5t344 146.5t344.5 -146.5t133.5 -361.5t-133.5 -360t-344.5 -145t-344 145t-133 360zM180 487q0 -168 96.5 -281.5t253.5 -113.5q158 0 254.5 113.5t96.5 281.5t-96.5 282t-254.5 114t-254 -114t-96 -282zM435 -197q0 41 28.5 70t67.5 29t67.5 -29 t28.5 -70t-28.5 -69.5t-67.5 -28.5t-67.5 28.5t-28.5 69.5z" />
<glyph unicode="o&#x323;" horiz-adv-x="843" d="M53 352q0 156 104.5 263.5t264.5 107.5t264.5 -107.5t104.5 -263.5t-104.5 -262t-264.5 -106t-264.5 106t-104.5 262zM180 352q0 -111 67.5 -185.5t174.5 -74.5q106 0 174 75t68 185q0 111 -68 185.5t-174 74.5t-174 -74.5t-68 -185.5zM326 -197q0 41 28.5 70t67.5 29 t67.5 -29t28.5 -70t-28.5 -69.5t-67.5 -28.5t-67.5 28.5t-28.5 69.5z" />
<glyph unicode="O&#x309;" horiz-adv-x="1060" d="M53 485q0 215 133 361.5t344 146.5t344.5 -146.5t133.5 -361.5t-133.5 -360t-344.5 -145t-344 145t-133 360zM180 487q0 -168 96.5 -281.5t253.5 -113.5q158 0 254.5 113.5t96.5 281.5t-96.5 282t-254.5 114t-254 -114t-96 -282zM383 1291q16 33 55 62.5t105 29.5 q59 0 97 -31t38 -96q0 -35 -18.5 -62.5t-40 -52t-39 -48t-17.5 -50.5h-92q0 33 18.5 59.5t41 50t41 46t18.5 47.5q0 35 -15.5 46t-41.5 11q-35 0 -61.5 -22.5t-35.5 -34.5z" />
<glyph unicode="o&#x309;" horiz-adv-x="843" d="M53 352q0 156 104.5 263.5t264.5 107.5t264.5 -107.5t104.5 -263.5t-104.5 -262t-264.5 -106t-264.5 106t-104.5 262zM180 352q0 -111 67.5 -185.5t174.5 -74.5q106 0 174 75t68 185q0 111 -68 185.5t-174 74.5t-174 -74.5t-68 -185.5zM274 1012q16 33 55 62.5t105 29.5 q59 0 97 -31t38 -96q0 -35 -18.5 -62.5t-40 -52t-39 -48t-17.5 -50.5h-92q0 33 18.5 59.5t41 50t41 46t18.5 47.5q0 35 -15.5 46t-41.5 11q-35 0 -61.5 -22.5t-35.5 -34.5z" />
<glyph unicode="&#xd4;&#x301;" horiz-adv-x="1060" d="M53 485q0 215 133 361.5t344 146.5t344.5 -146.5t133.5 -361.5t-133.5 -360t-344.5 -145t-344 145t-133 360zM180 487q0 -168 96.5 -281.5t253.5 -113.5q158 0 254.5 113.5t96.5 281.5t-96.5 282t-254.5 114t-254 -114t-96 -282zM336 1067l159 236h72l158 -236h-111 l-84 146l-82 -146h-112zM737 1210l154 236l116 -37l-172 -199h-98z" />
<glyph unicode="&#xf4;&#x301;" horiz-adv-x="884" d="M73 352q0 156 104.5 263.5t264.5 107.5t264.5 -107.5t104.5 -263.5t-104.5 -262t-264.5 -106t-264.5 106t-104.5 262zM200 352q0 -111 67.5 -185.5t174.5 -74.5q106 0 174 75t68 185q0 111 -68 185.5t-174 74.5t-174 -74.5t-68 -185.5zM248 788l159 236h72l158 -236h-111 l-84 146l-82 -146h-112zM608 964l154 236l116 -37l-172 -199h-98z" />
<glyph unicode="&#xd4;&#x300;" horiz-adv-x="1060" d="M53 485q0 215 133 361.5t344 146.5t344.5 -146.5t133.5 -361.5t-133.5 -360t-344.5 -145t-344 145t-133 360zM180 487q0 -168 96.5 -281.5t253.5 -113.5q158 0 254.5 113.5t96.5 281.5t-96.5 282t-254.5 114t-254 -114t-96 -282zM336 1067l159 236h72l158 -236h-111 l-84 146l-82 -146h-112zM651 1409l117 37l153 -236h-98z" />
<glyph unicode="&#xf4;&#x300;" horiz-adv-x="884" d="M73 352q0 156 104.5 263.5t264.5 107.5t264.5 -107.5t104.5 -263.5t-104.5 -262t-264.5 -106t-264.5 106t-104.5 262zM200 352q0 -111 67.5 -185.5t174.5 -74.5q106 0 174 75t68 185q0 111 -68 185.5t-174 74.5t-174 -74.5t-68 -185.5zM248 788l159 236h72l158 -236h-111 l-84 146l-82 -146h-112zM541 1163l117 37l153 -236h-98z" />
<glyph unicode="&#xd4;&#x309;" horiz-adv-x="1060" d="M53 485q0 215 133 361.5t344 146.5t344.5 -146.5t133.5 -361.5t-133.5 -360t-344.5 -145t-344 145t-133 360zM180 487q0 -168 96.5 -281.5t253.5 -113.5q158 0 254.5 113.5t96.5 281.5t-96.5 282t-254.5 114t-254 -114t-96 -282zM336 1067l159 236h72l158 -236h-111 l-84 146l-82 -146h-112zM643 1471q16 33 55 62.5t105 29.5q59 0 97 -31t38 -96q0 -35 -18.5 -62.5t-40 -52t-39 -48t-17.5 -50.5h-92q0 33 18.5 59.5t41 50t41 46t18.5 47.5q0 35 -15.5 46t-41.5 11q-35 0 -61.5 -22.5t-35.5 -34.5z" />
<glyph unicode="&#xf4;&#x309;" horiz-adv-x="884" d="M73 352q0 156 104.5 263.5t264.5 107.5t264.5 -107.5t104.5 -263.5t-104.5 -262t-264.5 -106t-264.5 106t-104.5 262zM200 352q0 -111 67.5 -185.5t174.5 -74.5q106 0 174 75t68 185q0 111 -68 185.5t-174 74.5t-174 -74.5t-68 -185.5zM248 788l159 236h72l158 -236h-111 l-84 146l-82 -146h-112zM549 1205q16 33 55 62.5t105 29.5q59 0 97 -31t38 -96q0 -35 -18.5 -62.5t-40 -52t-39 -48t-17.5 -50.5h-92q0 33 18.5 59.5t41 50t41 46t18.5 47.5q0 35 -15.5 46t-41.5 11q-35 0 -61.5 -22.5t-35.5 -34.5z" />
<glyph unicode="&#xd4;&#x303;" horiz-adv-x="1060" d="M53 485q0 215 133 361.5t344 146.5t344.5 -146.5t133.5 -361.5t-133.5 -360t-344.5 -145t-344 145t-133 360zM180 487q0 -168 96.5 -281.5t253.5 -113.5q158 0 254.5 113.5t96.5 281.5t-96.5 282t-254.5 114t-254 -114t-96 -282zM336 1067l159 236h72l158 -236h-111 l-84 146l-82 -146h-112zM326 1386q0 61 29.5 103.5t85.5 42.5q18 0 41.5 -8t46 -19.5t44 -19.5t36.5 -8q39 0 38 55h89q-2 -72 -32 -114t-89 -42q-16 0 -40 9.5t-49.5 20.5t-48 20.5t-36.5 9.5q-16 0 -20.5 -15.5t-4.5 -34.5h-90z" />
<glyph unicode="&#xf4;&#x303;" horiz-adv-x="884" d="M73 352q0 156 104.5 263.5t264.5 107.5t264.5 -107.5t104.5 -263.5t-104.5 -262t-264.5 -106t-264.5 106t-104.5 262zM200 352q0 -111 67.5 -185.5t174.5 -74.5q106 0 174 75t68 185q0 111 -68 185.5t-174 74.5t-174 -74.5t-68 -185.5zM248 788l159 236h72l158 -236h-111 l-84 146l-82 -146h-112zM238 1083q0 61 29.5 103.5t85.5 42.5q18 0 41.5 -8t46 -19.5t44 -19.5t36.5 -8q39 0 38 55h89q-2 -72 -32 -114t-89 -42q-16 0 -40 9.5t-49.5 20.5t-48 20.5t-36.5 9.5q-16 0 -20.5 -15.5t-4.5 -34.5h-90z" />
<glyph unicode="&#xd4;&#x323;" horiz-adv-x="1060" d="M53 485q0 215 133 361.5t344 146.5t344.5 -146.5t133.5 -361.5t-133.5 -360t-344.5 -145t-344 145t-133 360zM180 487q0 -168 96.5 -281.5t253.5 -113.5q158 0 254.5 113.5t96.5 281.5t-96.5 282t-254.5 114t-254 -114t-96 -282zM435 -197q0 41 28.5 70t67.5 29t67.5 -29 t28.5 -70t-28.5 -69.5t-67.5 -28.5t-67.5 28.5t-28.5 69.5zM336 1067l159 236h72l158 -236h-111l-84 146l-82 -146h-112z" />
<glyph unicode="&#xf4;&#x323;" horiz-adv-x="843" d="M53 352q0 156 104.5 263.5t264.5 107.5t264.5 -107.5t104.5 -263.5t-104.5 -262t-264.5 -106t-264.5 106t-104.5 262zM180 352q0 -111 67.5 -185.5t174.5 -74.5q106 0 174 75t68 185q0 111 -68 185.5t-174 74.5t-174 -74.5t-68 -185.5zM326 -197q0 41 28.5 70t67.5 29 t67.5 -29t28.5 -70t-28.5 -69.5t-67.5 -28.5t-67.5 28.5t-28.5 69.5zM228 788l159 236h72l158 -236h-111l-84 146l-82 -146h-112z" />
<glyph unicode="&#x1a0;&#x301;" horiz-adv-x="1060" d="M53 485q0 215 133 361.5t344 146.5q147 0 263 -75q53 68 53 161h110q0 -119 -88 -227q139 -145 140 -367q0 -215 -133.5 -360t-344.5 -145t-344 145t-133 360zM180 487q0 -168 96.5 -281.5t253.5 -113.5q158 0 254.5 113.5t96.5 281.5t-96.5 282t-254.5 114t-254 -114 t-96 -282zM395 1067l154 236l116 -37l-172 -199h-98z" />
<glyph unicode="&#x1a1;&#x301;" horiz-adv-x="884" d="M53 352q0 156 104.5 263.5t264.5 107.5q143 0 246 -92q41 68 41 145h110q0 -113 -86 -223q57 -90 58 -201q0 -156 -104.5 -262t-264.5 -106t-264.5 106t-104.5 262zM180 352q0 -111 67.5 -185.5t174.5 -74.5q106 0 174 75t68 185q0 111 -68 185.5t-174 74.5t-174 -74.5 t-68 -185.5zM307 788l154 236l116 -37l-172 -199h-98z" />
<glyph unicode="&#x1a0;&#x300;" horiz-adv-x="1060" d="M53 485q0 215 133 361.5t344 146.5q147 0 263 -75q53 68 53 161h110q0 -119 -88 -227q139 -145 140 -367q0 -215 -133.5 -360t-344.5 -145t-344 145t-133 360zM180 487q0 -168 96.5 -281.5t253.5 -113.5q158 0 254.5 113.5t96.5 281.5t-96.5 282t-254.5 114t-254 -114 t-96 -282zM395 1266l117 37l153 -236h-98z" />
<glyph unicode="&#x1a1;&#x300;" horiz-adv-x="884" d="M53 352q0 156 104.5 263.5t264.5 107.5q143 0 246 -92q41 68 41 145h110q0 -113 -86 -223q57 -90 58 -201q0 -156 -104.5 -262t-264.5 -106t-264.5 106t-104.5 262zM180 352q0 -111 67.5 -185.5t174.5 -74.5q106 0 174 75t68 185q0 111 -68 185.5t-174 74.5t-174 -74.5 t-68 -185.5zM307 987l117 37l153 -236h-98z" />
<glyph unicode="&#x1a0;&#x309;" horiz-adv-x="1060" d="M53 485q0 215 133 361.5t344 146.5q147 0 263 -75q53 68 53 161h110q0 -119 -88 -227q139 -145 140 -367q0 -215 -133.5 -360t-344.5 -145t-344 145t-133 360zM180 487q0 -168 96.5 -281.5t253.5 -113.5q158 0 254.5 113.5t96.5 281.5t-96.5 282t-254.5 114t-254 -114 t-96 -282zM383 1299q16 33 55 62.5t105 29.5q59 0 97 -31t38 -96q0 -35 -18.5 -62.5t-40 -52t-39 -48t-17.5 -50.5h-92q0 33 18.5 59.5t41 50t41 46t18.5 47.5q0 35 -15.5 46t-41.5 11q-35 0 -61.5 -22.5t-35.5 -34.5z" />
<glyph unicode="&#x1a1;&#x309;" horiz-adv-x="884" d="M53 352q0 156 104.5 263.5t264.5 107.5q143 0 246 -92q41 68 41 145h110q0 -113 -86 -223q57 -90 58 -201q0 -156 -104.5 -262t-264.5 -106t-264.5 106t-104.5 262zM180 352q0 -111 67.5 -185.5t174.5 -74.5q106 0 174 75t68 185q0 111 -68 185.5t-174 74.5t-174 -74.5 t-68 -185.5zM295 1020q16 33 55 62.5t105 29.5q59 0 97 -31t38 -96q0 -35 -18.5 -62.5t-40 -52t-39 -48t-17.5 -50.5h-92q0 33 18.5 59.5t41 50t41 46t18.5 47.5q0 35 -15.5 46t-41.5 11q-35 0 -61.5 -22.5t-35.5 -34.5z" />
<glyph unicode="&#x1a0;&#x303;" horiz-adv-x="1060" d="M53 485q0 215 133 361.5t344 146.5q147 0 263 -75q53 68 53 161h110q0 -119 -88 -227q139 -145 140 -367q0 -215 -133.5 -360t-344.5 -145t-344 145t-133 360zM180 487q0 -168 96.5 -281.5t253.5 -113.5q158 0 254.5 113.5t96.5 281.5t-96.5 282t-254.5 114t-254 -114 t-96 -282zM326 1067q0 61 29.5 103.5t85.5 42.5q18 0 41.5 -8t46 -19.5t44 -19.5t36.5 -8q39 0 38 55h89q-2 -72 -32 -114t-89 -42q-16 0 -40 9.5t-49.5 20.5t-48 20.5t-36.5 9.5q-16 0 -20.5 -15.5t-4.5 -34.5h-90z" />
<glyph unicode="&#x1a1;&#x303;" horiz-adv-x="884" d="M53 352q0 156 104.5 263.5t264.5 107.5q143 0 246 -92q41 68 41 145h110q0 -113 -86 -223q57 -90 58 -201q0 -156 -104.5 -262t-264.5 -106t-264.5 106t-104.5 262zM180 352q0 -111 67.5 -185.5t174.5 -74.5q106 0 174 75t68 185q0 111 -68 185.5t-174 74.5t-174 -74.5 t-68 -185.5zM238 788q0 61 29.5 103.5t85.5 42.5q18 0 41.5 -8t46 -19.5t44 -19.5t36.5 -8q39 0 38 55h89q-2 -72 -32 -114t-89 -42q-16 0 -40 9.5t-49.5 20.5t-48 20.5t-36.5 9.5q-16 0 -20.5 -15.5t-4.5 -34.5h-90z" />
<glyph unicode="&#x1a0;&#x323;" horiz-adv-x="1060" d="M53 485q0 215 133 361.5t344 146.5q147 0 263 -75q53 68 53 161h110q0 -119 -88 -227q139 -145 140 -367q0 -215 -133.5 -360t-344.5 -145t-344 145t-133 360zM180 487q0 -168 96.5 -281.5t253.5 -113.5q158 0 254.5 113.5t96.5 281.5t-96.5 282t-254.5 114t-254 -114 t-96 -282zM435 -197q0 41 28.5 70t67.5 29t67.5 -29t28.5 -70t-28.5 -69.5t-67.5 -28.5t-67.5 28.5t-28.5 69.5z" />
<glyph unicode="&#x1a1;&#x323;" horiz-adv-x="884" d="M53 352q0 156 104.5 263.5t264.5 107.5q143 0 246 -92q41 68 41 145h110q0 -113 -86 -223q57 -90 58 -201q0 -156 -104.5 -262t-264.5 -106t-264.5 106t-104.5 262zM180 352q0 -111 67.5 -185.5t174.5 -74.5q106 0 174 75t68 185q0 111 -68 185.5t-174 74.5t-174 -74.5 t-68 -185.5zM347 -197q0 41 28.5 70t67.5 29t67.5 -29t28.5 -70t-28.5 -69.5t-67.5 -28.5t-67.5 28.5t-28.5 69.5z" />
<glyph unicode="U&#x323;" horiz-adv-x="987" d="M102 416v559h131v-559q0 -324 261 -324q260 0 260 324v559h131v-559q0 -434 -391 -434q-392 0 -392 434zM398 -197q0 41 28.5 70t67.5 29t67.5 -29t28.5 -70t-28.5 -69.5t-67.5 -28.5t-67.5 28.5t-28.5 69.5z" />
<glyph unicode="u&#x323;" horiz-adv-x="856" d="M102 315v381h129v-368q0 -231 177 -232q74 0 145.5 56.5t71.5 132.5v411h129v-510q0 -70 43 -178l-125 -24q-20 49 -37 118q-123 -121 -244 -120q-289 -1 -289 333zM332 -197q0 41 28.5 70t67.5 29t67.5 -29t28.5 -70t-28.5 -69.5t-67.5 -28.5t-67.5 28.5t-28.5 69.5z " />
<glyph unicode="U&#x309;" horiz-adv-x="987" d="M102 416v559h131v-559q0 -324 261 -324q260 0 260 324v559h131v-559q0 -434 -391 -434q-392 0 -392 434zM346 1291q16 33 55 62.5t105 29.5q59 0 97 -31t38 -96q0 -35 -18.5 -62.5t-40 -52t-39 -48t-17.5 -50.5h-92q0 33 18.5 59.5t41 50t41 46t18.5 47.5q0 35 -15.5 46 t-41.5 11q-35 0 -61.5 -22.5t-35.5 -34.5z" />
<glyph unicode="u&#x309;" horiz-adv-x="856" d="M102 315v381h129v-368q0 -231 177 -232q74 0 145.5 56.5t71.5 132.5v411h129v-510q0 -70 43 -178l-125 -24q-20 49 -37 118q-123 -121 -244 -120q-289 -1 -289 333zM281 1012q16 33 55 62.5t105 29.5q59 0 97 -31t38 -96q0 -35 -18.5 -62.5t-40 -52t-39 -48t-17.5 -50.5 h-92q0 33 18.5 59.5t41 50t41 46t18.5 47.5q0 35 -15.5 46t-41.5 11q-35 0 -61.5 -22.5t-35.5 -34.5z" />
<glyph unicode="&#x1af;&#x301;" horiz-adv-x="987" d="M102 416v559h131v-559q0 -324 261 -324q260 0 260 324v559h131v-82q45 25 72.5 79t27.5 107h111q-6 -96 -66.5 -185t-144.5 -120v-358q0 -434 -391 -434q-392 0 -392 434zM358 1067l154 236l116 -37l-172 -199h-98z" />
<glyph unicode="&#x1b0;&#x301;" horiz-adv-x="847" d="M96 315v381h129v-368q0 -231 176 -232q74 0 145.5 56.5t71.5 132.5v411h130v-125q41 23 72.5 79.5t31.5 109.5h111q0 -80 -60 -172q-66 -100 -155 -133v-269q0 -70 43 -178l-125 -24q-18 39 -31 98q-129 -100 -250 -100q-289 -1 -289 333zM289 788l154 236l116 -37 l-172 -199h-98z" />
<glyph unicode="&#x1af;&#x300;" horiz-adv-x="987" d="M102 416v559h131v-559q0 -324 261 -324q260 0 260 324v559h131v-82q45 25 72.5 79t27.5 107h111q-6 -96 -66.5 -185t-144.5 -120v-358q0 -434 -391 -434q-392 0 -392 434zM358 1266l117 37l153 -236h-98z" />
<glyph unicode="&#x1b0;&#x300;" horiz-adv-x="847" d="M96 315v381h129v-368q0 -231 176 -232q74 0 145.5 56.5t71.5 132.5v411h130v-125q41 23 72.5 79.5t31.5 109.5h111q0 -80 -60 -172q-66 -100 -155 -133v-269q0 -70 43 -178l-125 -24q-18 39 -31 98q-129 -100 -250 -100q-289 -1 -289 333zM289 987l117 37l153 -236h-98z " />
<glyph unicode="&#x1af;&#x309;" horiz-adv-x="987" d="M102 416v559h131v-559q0 -324 261 -324q260 0 260 324v559h131v-82q45 25 72.5 79t27.5 107h111q-6 -96 -66.5 -185t-144.5 -120v-358q0 -434 -391 -434q-392 0 -392 434zM346 1291q16 33 55 62.5t105 29.5q59 0 97 -31t38 -96q0 -35 -18.5 -62.5t-40 -52t-39 -48 t-17.5 -50.5h-92q0 33 18.5 59.5t41 50t41 46t18.5 47.5q0 35 -15.5 46t-41.5 11q-35 0 -61.5 -22.5t-35.5 -34.5z" />
<glyph unicode="&#x1b0;&#x309;" horiz-adv-x="847" d="M96 315v381h129v-368q0 -231 176 -232q74 0 145.5 56.5t71.5 132.5v411h130v-125q41 23 72.5 79.5t31.5 109.5h111q0 -80 -60 -172q-66 -100 -155 -133v-269q0 -70 43 -178l-125 -24q-18 39 -31 98q-129 -100 -250 -100q-289 -1 -289 333zM276 1012q16 33 55 62.5 t105 29.5q59 0 97 -31t38 -96q0 -35 -18.5 -62.5t-40 -52t-39 -48t-17.5 -50.5h-92q0 33 18.5 59.5t41 50t41 46t18.5 47.5q0 35 -15.5 46t-41.5 11q-35 0 -61.5 -22.5t-35.5 -34.5z" />
<glyph unicode="&#x1af;&#x303;" horiz-adv-x="987" d="M102 416v559h131v-559q0 -324 261 -324q260 0 260 324v559h131v-82q45 25 72.5 79t27.5 107h111q-6 -96 -66.5 -185t-144.5 -120v-358q0 -434 -391 -434q-392 0 -392 434zM289 1067q0 61 29.5 103.5t85.5 42.5q18 0 41.5 -8t46 -19.5t44 -19.5t36.5 -8q39 0 38 55h89 q-2 -72 -32 -114t-89 -42q-16 0 -40 9.5t-49.5 20.5t-48 20.5t-36.5 9.5q-16 0 -20.5 -15.5t-4.5 -34.5h-90z" />
<glyph unicode="&#x1b0;&#x303;" horiz-adv-x="847" d="M96 315v381h129v-368q0 -231 176 -232q74 0 145.5 56.5t71.5 132.5v411h130v-125q41 23 72.5 79.5t31.5 109.5h111q0 -80 -60 -172q-66 -100 -155 -133v-269q0 -70 43 -178l-125 -24q-18 39 -31 98q-129 -100 -250 -100q-289 -1 -289 333zM219 788q0 61 29.5 103.5 t85.5 42.5q18 0 41.5 -8t46 -19.5t44 -19.5t36.5 -8q39 0 38 55h89q-2 -72 -32 -114t-89 -42q-16 0 -40 9.5t-49.5 20.5t-48 20.5t-36.5 9.5q-16 0 -20.5 -15.5t-4.5 -34.5h-90z" />
<glyph unicode="&#x1af;&#x323;" horiz-adv-x="987" d="M102 416v559h131v-559q0 -324 261 -324q260 0 260 324v559h131v-82q45 25 72.5 79t27.5 107h111q-6 -96 -66.5 -185t-144.5 -120v-358q0 -434 -391 -434q-392 0 -392 434zM398 -197q0 41 28.5 70t67.5 29t67.5 -29t28.5 -70t-28.5 -69.5t-67.5 -28.5t-67.5 28.5 t-28.5 69.5z" />
<glyph unicode="&#x1b0;&#x323;" horiz-adv-x="847" d="M96 315v381h129v-368q0 -231 176 -232q74 0 145.5 56.5t71.5 132.5v411h130v-125q41 23 72.5 79.5t31.5 109.5h111q0 -80 -60 -172q-66 -100 -155 -133v-269q0 -70 43 -178l-125 -24q-18 39 -31 98q-129 -100 -250 -100q-289 -1 -289 333zM328 -197q0 41 28.5 70t67.5 29 t67.5 -29t28.5 -70t-28.5 -69.5t-67.5 -28.5t-67.5 28.5t-28.5 69.5z" />
<glyph unicode="Y&#x300;" horiz-adv-x="811" d="M-12 975h149l271 -438l268 438h147l-352 -547v-428h-127v426zM270 1266l117 37l153 -236h-98z" />
<glyph unicode="y&#x300;" horiz-adv-x="739" d="M-8 696h141l242 -516l229 516h141l-319 -682q-129 -272 -360 -323l-33 106q182 41 268 254zM233 987l117 37l153 -236h-98z" />
<glyph unicode="Y&#x323;" horiz-adv-x="811" d="M-12 975h149l271 -438l268 438h147l-352 -547v-428h-127v426zM310 -197q0 41 28.5 70t67.5 29t67.5 -29t28.5 -70t-28.5 -69.5t-67.5 -28.5t-67.5 28.5t-28.5 69.5z" />
<glyph unicode="y&#x323;" horiz-adv-x="739" d="M-8 696h141l242 -516l229 516h141l-319 -682q-129 -272 -360 -323l-33 106q182 41 268 254zM496 -197q0 41 28.5 70t67.5 29t67.5 -29t28.5 -70t-28.5 -69.5t-67.5 -28.5t-67.5 28.5t-28.5 69.5z" />
<glyph unicode="Y&#x309;" horiz-adv-x="811" d="M-12 975h149l271 -438l268 438h147l-352 -547v-428h-127v426zM258 1291q16 33 55 62.5t105 29.5q59 0 97 -31t38 -96q0 -35 -18.5 -62.5t-40 -52t-39 -48t-17.5 -50.5h-92q0 33 18.5 59.5t41 50t41 46t18.5 47.5q0 35 -15.5 46t-41.5 11q-35 0 -61.5 -22.5t-35.5 -34.5z " />
<glyph unicode="y&#x309;" horiz-adv-x="739" d="M-8 696h141l242 -516l229 516h141l-319 -682q-129 -272 -360 -323l-33 106q182 41 268 254zM221 1012q16 33 55 62.5t105 29.5q59 0 97 -31t38 -96q0 -35 -18.5 -62.5t-40 -52t-39 -48t-17.5 -50.5h-92q0 33 18.5 59.5t41 50t41 46t18.5 47.5q0 35 -15.5 46t-41.5 11 q-35 0 -61.5 -22.5t-35.5 -34.5z" />
<glyph unicode="Y&#x303;" horiz-adv-x="811" d="M-12 975h149l271 -438l268 438h147l-352 -547v-428h-127v426zM201 1067q0 61 29.5 103.5t85.5 42.5q18 0 41.5 -8t46 -19.5t44 -19.5t36.5 -8q39 0 38 55h89q-2 -72 -32 -114t-89 -42q-16 0 -40 9.5t-49.5 20.5t-48 20.5t-36.5 9.5q-16 0 -20.5 -15.5t-4.5 -34.5h-90z " />
<glyph unicode="y&#x303;" horiz-adv-x="739" d="M-8 696h141l242 -516l229 516h141l-319 -682q-129 -272 -360 -323l-33 106q182 41 268 254zM164 788q0 61 29.5 103.5t85.5 42.5q18 0 41.5 -8t46 -19.5t44 -19.5t36.5 -8q39 0 38 55h89q-2 -72 -32 -114t-89 -42q-16 0 -40 9.5t-49.5 20.5t-48 20.5t-36.5 9.5 q-16 0 -20.5 -15.5t-4.5 -34.5h-90z" />
<glyph unicode="&#xe4f;&#x22;" horiz-adv-x="919" d="M115 334q0 143 101 244.5t245 101.5q139 0 242.5 -103.5t103.5 -242.5q0 -143 -101.5 -244.5t-244.5 -101.5t-244.5 101.5t-101.5 244.5zM186 334q0 -115 81 -196t194 -81t193.5 82t80.5 195q0 115 -80 194.5t-194 79.5q-113 0 -194 -79.5t-81 -194.5zM258 334 q0 84 59.5 143.5t143.5 59.5t143.5 -59.5t59.5 -143.5t-59.5 -144.5t-143.5 -60.5t-143.5 60.5t-59.5 144.5zM330 334q0 -55 38 -93t93 -38t93 38t38 93q0 53 -38 92t-93 39t-93 -39t-38 -92zM300.999 1066.59h116.798l-21.5996 -315.995h-73.5986zM499.396 1066.59h116.799 l-20 -315.995h-75.1992z" />
<glyph unicode="&#xe24;&#xe32;" horiz-adv-x="1224" d="M61 549q4 127 99 209q86 76 219 76q147 0 232 -79t85 -214v-828h-127v830q0 84 -51 133t-135 49q-123 0 -186 -104q96 -18 137 -93q-104 -61 -105 -147v-96q14 8 39 8q63 0 107.5 -44t44.5 -110t-45 -110.5t-111 -44.5q-68 0 -115 47t-47 119v239q0 86 84 135 q-51 35 -125 25zM199 137q0 -29 20.5 -49t48.5 -20q29 0 49.5 20.5t20.5 48.5q0 29 -20.5 49.5t-49.5 20.5t-49 -20.5t-20 -49.5zM570 565q6 123 80.5 196t197.5 73q115 0 194 -58.5t79 -177.5v-885h-127v883q0 57 -39 93t-107 36t-110.5 -45t-44.5 -115h-123z" />
<glyph unicode="&#xe26;&#xe32;" horiz-adv-x="1288" d="M16 139q0 63 45 108.5t107 45.5q25 0 31 -6l-13 127q0 72 70 110q-55 35 -125 25q2 127 94 209q88 76 221 76q143 0 231.5 -80t88.5 -213v-828h-127v830q0 82 -54.5 132t-135.5 50q-125 0 -183 -104q100 -20 137 -93q-55 -31 -73 -51q-27 -33 -27 -88q0 -45 10.5 -130 t10.5 -120q0 -66 -44 -110.5t-108 -44.5q-66 0 -111 44.5t-45 110.5zM102 139q0 -29 20.5 -49t49.5 -20t49.5 20.5t20.5 48.5q0 29 -20.5 49.5t-49.5 20.5t-49.5 -20.5t-20.5 -49.5zM633 565q6 123 80.5 196t197.5 73q115 0 194 -58.5t79 -177.5v-885h-127v883q0 57 -39 93 t-107 36t-110.5 -45t-44.5 -115h-123z" />
<glyph unicode="&#xfb01;" horiz-adv-x="829" d="M35 590v106h119q0 166 88 258.5t229 92.5q147 0 242 -111l-68 -92q-80 92 -178 92q-74 0 -127 -62q-59 -68 -59 -178h452v-696h-129v590h-323v-590h-129v590h-117z" />
<glyph unicode="&#xfb02;" horiz-adv-x="931" d="M35 590v106h119q0 166 88 258.5t229 92.5q164 0 262 -132v-528q0 -158 49 -223q43 -55 142 -64l-15 -116q-305 14 -305 374v527q-61 51 -137 51q-74 0 -127 -62q-59 -68 -59 -178h241v-106h-241v-590h-129v590h-117z" />
<glyph unicode="PSK&#x2e;Design&#x28;c&#x29;" horiz-adv-x="1953" d="M119 408v51h1657v-51h-1657zM135 250q0 86 101 86q76 0 83 -62h-53q-2 27 -35 27q-47 0 -47 -51t45 -51q35 0 37 24h53q-6 -61 -88 -61q-96 0 -96 88zM147 750v460h226q182 0 182 -147q0 -150 -205 -150h-84v-163h-119zM266 1006h78q90 0 90 59q0 57 -90 57h-78v-116z M332 0l41 88h30l37 -88h-26l-8 18h-41l-9 -18h-24zM332 248q0 84 102 84q100 0 101 -84q0 -86 -105 -86q-98 0 -98 86zM371 35h30l-14 35zM379 248q0 -51 55 -51q51 0 51 49q0 53 -51 53q-55 0 -55 -51zM444 0v88h21v-70h45v-18h-66zM516 0v88h21v-70h45v-18h-66zM524 735 q0 33 8 64h78q-2 -14 -2 -35q0 -162 203 -162q90 0 162 43q92 55 92 158q0 78 -107 119q-96 33 -194 65q-106 45 -107 131q0 139 107 213q94 63 244 64q102 0 162.5 -43t60.5 -121q0 -31 -10 -68h-74q4 29 4 39q0 123 -135 123q-123 0 -195.5 -47t-72.5 -127q0 -53 36.5 -80 t154.5 -60.5t165 -73.5t47 -106q0 -162 -119 -237q-94 -61 -241 -62q-125 0 -196 53.5t-71 149.5zM557 170v162h84q72 0 72 -56q0 -55 -78 -55h-35v-51h-43zM600 254h31q35 0 35 22q0 20 -35 21h-31v-43zM629 0v88h43q35 0 35 -22q0 -16 -17 -23q12 -4 21 -43h-27q0 8 -2 16 q-6 18 -18 19h-13v-35h-22zM651 53h13q16 0 16 8q0 10 -16 11h-13v-19zM707 332h53l49 -70q6 8 45 70h47l-74 -107v-55h-47v57zM721 0v88h18v-88h-18zM752 43q0 47 51 47q39 0 41 -33h-23q-2 14 -18 15q-27 0 -27 -27q0 -29 29 -29q10 0 16 2v15h-18v16h41v-43 q-18 -8 -39 -8q-53 0 -53 45zM856 0v88h23v-35h45v35h22v-88h-22v37h-45v-37h-23zM922 170v162h92q70 0 69 -43q0 -27 -34 -39q31 -6 30 -39l8 -41h-45l-10 41q-2 20 -35 20h-28v-61h-47zM952 70v18h84v-18h-28v-70h-25v70h-31zM969 258h30q37 0 37 23q0 16 -37 16h-30v-39z M1087 0v88h46q33 0 32 -22q0 -16 -16 -23q12 -4 20 -43h-24q0 8 -2 16q-6 18 -17 19h-14v-35h-25zM1106 170v162h51v-162h-51zM1112 53h14q14 0 15 8q0 10 -15 11h-14v-19zM1176 0v88h67v-18h-45v-17h43v-16h-43v-19h47v-18h-69zM1180 250q0 84 100 84q82 0 88 -55h-53 q-4 23 -37 22q-49 0 -49 -49q0 -53 55 -53l33 4v28h-39v27h90v-82q-37 -10 -84 -10q-104 0 -104 84zM1253 31h23q0 -14 16 -15q14 0 15 9q0 2 -26 11t-26 25q0 29 37 29t37 -29h-22q0 12 -15 13q-14 0 -14 -11q0 -8 26.5 -14t26.5 -22q0 -29 -41 -29q-37 0 -37 33zM1305 750 v460h122v-196l168 196h144l-183 -204l197 -256h-158l-168 233v-233h-122zM1341 0v88h70v-18h-47v-17h43v-16h-43v-19h47v-18h-70zM1395 170v162h49v-64h82v64h47v-162h-47v66h-82v-66h-49zM1417 0v88h43q31 0 31 -22q0 -16 -16 -23q12 -4 20 -43h-25q0 8 -2 16q-6 18 -16 19 h-14v-35h-21zM1438 53h14q14 0 14 8q0 10 -14 11h-14v-19zM1489 88h24l25 -65l25 65h22l-35 -88h-24zM1589 0v88h68v-18h-43v-17h41v-16h-41v-19h43v-18h-68zM1591 295v37h178v-37h-67v-125h-47v125h-64zM1667 0v88h41q49 0 49 -45q0 -43 -49 -43h-41zM1692 20h16 q27 0 27 23q0 27 -27 27h-16v-50zM1698 1382q0 53 33.5 87t85.5 34q53 0 87.5 -33.5t34.5 -87.5q0 -53 -34.5 -85.5t-87.5 -32.5q-51 0 -85 32.5t-34 85.5zM1718 1380q0 -43 29 -71.5t70 -28.5q43 0 73.5 28.5t30.5 71.5t-30.5 73t-73.5 30q-41 0 -70 -30t-29 -73z M1751 1384q0 74 64 74q55 0 59 -49h-33q-6 20 -26 21q-27 0 -27 -44q0 -49 29 -49q23 0 24 27h35q-10 -53 -61 -53q-64 -1 -64 73z" />
<glyph horiz-adv-x="442" />
<glyph unicode=" "  horiz-adv-x="462" />
<glyph unicode="&#x09;" horiz-adv-x="462" />
<glyph unicode="&#xa0;" horiz-adv-x="462" />
<glyph unicode="!" horiz-adv-x="344" d="M74 80q0 41 28.5 69.5t69.5 28.5t69.5 -28.5t28.5 -69.5t-28.5 -69.5t-69.5 -28.5t-69.5 28.5t-28.5 69.5zM98 975h148l-19 -690h-114z" />
<glyph unicode="&#x22;" horiz-adv-x="595" d="M100 1077h146l-27 -395h-92zM348 1077h146l-25 -395h-94z" />
<glyph unicode="#" horiz-adv-x="946" d="M68 291v108h141l24 183h-139v110h152l39 281h116l-34 -281h260l35 281h120l-34 -281h129v-110h-146l-22 -183h137v-108h-148l-39 -291h-120l41 291h-265l-34 -291h-121l35 291h-127zM330 399h260l24 183h-262z" />
<glyph unicode="$" horiz-adv-x="751" d="M88 115l55 98q90 -72 215 -72q82 0 131.5 38t49.5 100q0 96 -166 165q-260 111 -260 261q0 88 58 151.5t161 83.5v152h119v-150q96 -12 196 -68l-61 -100q-70 59 -191 60q-68 0 -112.5 -32t-44.5 -87q0 -78 180 -158q135 -59 190.5 -120.5t55.5 -153.5q0 -86 -61.5 -156 t-166.5 -92v-148h-121v144q-135 12 -227 84z" />
<glyph unicode="%" horiz-adv-x="1409" d="M80 692q0 301 242 301q244 0 243 -301q0 -299 -243 -299q-242 0 -242 299zM203 692q0 -188 119 -188q123 0 122 188q0 193 -122 193q-119 0 -119 -193zM319 -18l625 993h125l-625 -993h-125zM840 285q0 299 243 299q246 0 246 -299q0 -301 -246 -301q-243 0 -243 301z M963 285q0 -190 120 -191q123 0 123 191q0 193 -123 192q-120 1 -120 -192z" />
<glyph unicode="&#x26;" horiz-adv-x="995" d="M72 274q0 182 194 289q-76 98 -76 191q0 106 75 180t192 74q100 0 164.5 -60.5t64.5 -154.5q0 -162 -233 -271q92 -102 260 -264q100 131 114 287h109q-29 -221 -137 -363q96 -88 172 -153l-111 -58l-139 127q-162 -117 -328 -116q-139 0 -230 85.5t-91 206.5zM201 283 q0 -84 59 -137.5t150 -53.5q135 0 229 82l-297 303q-141 -79 -141 -194zM315 762q0 -59 76 -152q176 88 176 176q0 117 -116 117q-61 0 -98.5 -41t-37.5 -100z" />
<glyph unicode="'" horiz-adv-x="346" d="M100 1077h146l-27 -395h-92z" />
<glyph unicode="(" horiz-adv-x="499" d="M90 481q0 322 236 604h151q-260 -285 -260 -604q0 -303 258 -594h-143q-242 250 -242 594z" />
<glyph unicode=")" horiz-adv-x="499" d="M23 1085h141q244 -260 244 -598q0 -336 -242 -600h-141q256 305 256 600q0 297 -258 598z" />
<glyph unicode="*" horiz-adv-x="702" d="M80 707v106l203 -16l-127 157l104 62l90 -176l90 176l105 -62l-127 -157l203 16v-104l-203 16l127 -158l-105 -61l-90 176l-90 -176l-104 61l127 158z" />
<glyph unicode="+" horiz-adv-x="854" d="M59 322v112h303v309h130v-309h303v-112h-303v-322h-130v322h-303z" />
<glyph unicode="," horiz-adv-x="352" d="M51 -160q109 66 125 144q-98 6 -98 102q0 43 29.5 72.5t70.5 29.5q43 0 73 -31.5t30 -80.5q0 -203 -187 -295z" />
<glyph unicode="-" horiz-adv-x="462" d="M27 322v110h409v-110h-409z" />
<glyph unicode="." horiz-adv-x="352" d="M78 80q0 41 28.5 69.5t69.5 28.5t69.5 -28.5t28.5 -69.5t-28.5 -69.5t-69.5 -28.5t-69.5 28.5t-28.5 69.5z" />
<glyph unicode="/" horiz-adv-x="565" d="M-61 -57l546 1065h131l-546 -1065h-131z" />
<glyph unicode="0" horiz-adv-x="774" d="M57 481q0 207 86 353.5t240 146.5q160 0 246 -146.5t86 -353.5t-86 -353t-246 -146q-154 0 -240 146t-86 353zM188 481q0 -172 49.5 -279.5t147.5 -107.5q100 0 149.5 107.5t49.5 279.5t-49.5 279.5t-147.5 107.5q-100 0 -149.5 -107.5t-49.5 -279.5z" />
<glyph unicode="1" horiz-adv-x="774" d="M143 760l260 219q76 0 76 -98v-777h150v-104h-432v104h151v680l-129 -108z" />
<glyph unicode="2" horiz-adv-x="774" d="M49 0q16 90 35 147q53 66 326 320q168 158 168 258q0 135 -160 135q-158 0 -189 -182l-120 31q14 131 102 202q82 68 209 68q125 0 207 -74t82 -186q0 -100 -107 -227q-66 -76 -219 -211q-137 -121 -168 -166h522l-24 -115h-664z" />
<glyph unicode="3" horiz-adv-x="774" d="M53 70l58 104q92 -66 204 -65q106 0 184.5 67.5t78.5 157.5q0 66 -42 110.5t-106 44.5q-76 0 -145 -59l-56 90q100 57 179 129q92 86 92 139q0 80 -113 80q-74 0 -136.5 -47t-88.5 -110l-92 47q39 102 126 161.5t197 59.5q98 0 164 -51t66 -137q0 -84 -127 -193 q96 -18 153.5 -88t57.5 -172q0 -160 -114 -257t-298 -97q-140 0 -242 86z" />
<glyph unicode="4" horiz-adv-x="774" d="M57 217q0 256 162 511t381 273v-673h131l-14 -111h-117v-217h-131v217h-412zM186 328h283v499q-98 -63 -177 -206t-106 -293z" />
<glyph unicode="5" horiz-adv-x="774" d="M53 72l56 94q115 -72 210 -72q106 0 182.5 71t76.5 177q0 88 -57.5 136t-153.5 48t-125 -67l-82 -4l35 520h487l-23 -111h-340l-14 -237q37 16 88 16q135 0 225.5 -84t90.5 -215q0 -160 -113 -260t-291 -100q-152 0 -252 88z" />
<glyph unicode="6" horiz-adv-x="774" d="M74 350q0 236 155.5 416t405.5 229l12 -102q-129 -35 -245.5 -126t-168.5 -204q63 63 175 64q123 0 206.5 -92.5t83.5 -227.5q0 -137 -83 -230t-212 -93q-143 0 -236 100t-93 266zM213 307q0 -86 54.5 -147.5t131.5 -61.5q74 0 127.5 63.5t53.5 145.5t-53.5 145.5 t-127.5 63.5q-78 0 -132 -60.5t-54 -148.5z" />
<glyph unicode="7" horiz-adv-x="774" d="M57 864l31 111h637l-18 -111q-158 -197 -226 -377q-78 -207 -78 -487h-133q16 571 289 864h-502z" />
<glyph unicode="8" horiz-adv-x="774" d="M63 274q0 82 46.5 152t117.5 102q-133 72 -133 193q0 113 83 186.5t210 73.5t210 -73.5t83 -186.5q0 -121 -133 -193q72 -33 118 -102.5t46 -151.5q0 -135 -88 -212.5t-238 -77.5q-147 0 -234.5 77.5t-87.5 212.5zM188 268q0 -80 55.5 -127t143.5 -47t143.5 47t55.5 127 q0 76 -51.5 137.5t-147.5 67.5q-96 -6 -147.5 -67.5t-51.5 -137.5zM217 727q0 -100 168 -147q172 47 172 147q0 61 -47 102t-123 41t-123 -41t-47 -102z" />
<glyph unicode="9" horiz-adv-x="774" d="M74 655q0 137 83 230.5t212 93.5q143 0 236 -100.5t93 -266.5q0 -236 -155.5 -416t-405.5 -229l-12 103q125 33 249 131t173 200q-59 -66 -182 -65q-123 0 -207 92t-84 227zM193 655q0 -82 53 -145.5t127 -63.5q78 0 132 60.5t54 148.5q0 86 -54 147.5t-132 61.5 q-74 0 -127 -63.5t-53 -145.5z" />
<glyph unicode=":" horiz-adv-x="352" d="M78 80q0 41 28.5 69.5t69.5 28.5t69.5 -28.5t28.5 -69.5t-28.5 -69.5t-69.5 -28.5t-69.5 28.5t-28.5 69.5zM78 584q0 41 28.5 69.5t69.5 28.5t69.5 -28.5t28.5 -69.5t-28.5 -70t-69.5 -29t-69.5 29t-28.5 70z" />
<glyph unicode=";" horiz-adv-x="352" d="M51 -160q109 66 125 144q-98 6 -98 102q0 43 29.5 72.5t70.5 29.5q43 0 73 -31.5t30 -80.5q0 -203 -187 -295zM78 584q0 41 28.5 69.5t69.5 28.5t69.5 -28.5t28.5 -69.5t-28.5 -70t-69.5 -29t-69.5 29t-28.5 70z" />
<glyph unicode="&#x3c;" horiz-adv-x="854" d="M74 348v84l706 367v-129l-542 -281l542 -280v-129z" />
<glyph unicode="=" horiz-adv-x="854" d="M94 199v108h666v-108h-666zM94 457v106h666v-106h-666z" />
<glyph unicode="&#x3e;" horiz-adv-x="854" d="M74 -20v129l544 282l-544 279v129l706 -367v-84z" />
<glyph unicode="?" horiz-adv-x="591" d="M49 913q121 76 236 76q117 0 187.5 -62.5t70.5 -166.5q0 -111 -135 -248q-92 -92 -95 -186q0 -31 15 -86h-117q-20 61 -21 92q0 100 112 229t112 195q0 117 -144 116q-88 0 -170 -59zM178 80q0 41 29 69.5t69 28.5q41 0 70 -28.5t29 -69.5t-29 -69.5t-70 -28.5 t-69.5 28.5t-28.5 69.5z" />
<glyph unicode="@" horiz-adv-x="1171" d="M61 272q0 231 162 385t406 154q209 0 343 -126t134 -323q0 -164 -119 -262q-104 -86 -248 -86l-12 74q-96 -86 -219 -86q-88 0 -150.5 50t-62.5 126q0 223 407 234q0 156 -147 155q-80 0 -147 -43l-35 72q98 57 215 57q109 0 167 -71.5t58 -194.5v-213q0 -47 2 -65h25 q72 20 121 92.5t49 156.5q0 158 -106.5 263.5t-285.5 105.5q-201 0 -326.5 -128t-125.5 -320q0 -168 111.5 -279t275.5 -111q125 0 250 66l39 -82q-143 -68 -295 -68q-201 0 -340 132q-146 132 -146 335zM397 188q0 -96 113 -96q76 0 133 33q66 37 66 94v115 q-312 -13 -312 -146z" />
<glyph unicode="A" horiz-adv-x="923" d="M-2 0l410 989h110l408 -989h-142l-129 326h-391l-127 -326h-139zM311 436h295l-143 406z" />
<glyph unicode="B" horiz-adv-x="811" d="M102 14v942q127 31 234 31q375 0 375 -258q0 -131 -123 -207q162 -76 162 -239q0 -295 -435 -295q-92 -1 -213 26zM231 104q35 -6 103 -6q133 0 211 47.5t78 135.5q0 98 -95 145q-72 35 -178 35h-119v-357zM231 569h146q90 0 147.5 42t57.5 116q0 147 -246 147 q-43 0 -105 -6v-299z" />
<glyph unicode="C" horiz-adv-x="884" d="M53 485q0 221 115 357q127 147 354 147q174 0 318 -59l-41 -103q-123 51 -273 52q-188 0 -276 -140q-66 -102 -66 -258q0 -143 72 -250q90 -135 254 -135q170 0 295 62l35 -107q-150 -66 -357 -65q-195 0 -312.5 138t-117.5 361z" />
<glyph unicode="D" horiz-adv-x="940" d="M102 12v946q233 27 316 27q250 0 370 -149q98 -121 99 -328q0 -221 -107 -354q-131 -162 -403 -162q-85 0 -275 20zM231 109q68 -6 170 -7q199 0 289 142q66 104 66 264q0 367 -344 366q-57 0 -181 -12v-753z" />
<glyph unicode="E" horiz-adv-x="733" d="M102 0v975h580v-111h-451v-295h402v-110h-402v-348h451v-111h-580z" />
<glyph unicode="F" horiz-adv-x="733" d="M102 0v975h600v-111h-471v-307h443v-108h-443v-449h-129z" />
<glyph unicode="G" horiz-adv-x="929" d="M53 485q0 221 115 357q127 147 354 147q174 0 318 -59l-41 -103q-123 51 -273 52q-188 0 -276 -140q-66 -102 -66 -258q0 -143 72 -250q90 -135 254 -135q121 0 209 33v277h-246v108h375v-491l-66 16q-119 -53 -299 -53q-195 0 -312.5 138t-117.5 361z" />
<glyph unicode="H" horiz-adv-x="966" d="M102 0v975h129v-402h504v402h129v-975h-129v463h-504v-463h-129z" />
<glyph unicode="I" horiz-adv-x="333" d="M102 0v975h129v-975h-129z" />
<glyph unicode="J" horiz-adv-x="577" d="M-12 20l35 107q59 -35 139 -35q96 0 140 57.5t44 198.5v627h129v-647q0 -346 -313 -346q-80 -1 -174 38z" />
<glyph unicode="K" horiz-adv-x="841" d="M102 0v975h129v-430l465 446l125 -33l-422 -403l457 -524l-123 -45l-422 483l-80 -78v-391h-129z" />
<glyph unicode="L" horiz-adv-x="735" d="M102 0v975h129v-864h478v-111h-607z" />
<glyph unicode="M" horiz-adv-x="1175" d="M59 0l70 975h135l324 -811l323 811h136l69 -975h-125l-53 756l-307 -756h-86l-307 756l-54 -756h-125z" />
<glyph unicode="N" horiz-adv-x="966" d="M102 0v975h129l504 -770v770h129v-975h-123l-510 791v-791h-129z" />
<glyph unicode="O" horiz-adv-x="1060" d="M53 485q0 215 133 361.5t344 146.5t344.5 -146.5t133.5 -361.5t-133.5 -360t-344.5 -145t-344 145t-133 360zM180 487q0 -168 96.5 -281.5t253.5 -113.5q158 0 254.5 113.5t96.5 281.5t-96.5 282t-254.5 114t-254 -114t-96 -282z" />
<glyph unicode="P" horiz-adv-x="798" d="M102 0v961q147 25 260 24q180 0 283 -81t103 -210q0 -141 -114 -228t-300 -87q-47 0 -103 6v-385h-129zM231 502q70 -12 117 -13q270 0 270 199q0 186 -258 186q-70 0 -129 -6v-366z" />
<glyph unicode="Q" horiz-adv-x="1060" d="M53 485q0 215 133 361.5t344 146.5t344.5 -146.5t133.5 -361.5q0 -164 -77 -283.5t-212 -166.5v-8q164 -41 297 -62l-41 -110q-156 41 -391 116q-10 4 -54 9q-211 0 -344 145t-133 360zM180 487q0 -168 96.5 -281.5t253.5 -113.5q158 0 254.5 113.5t96.5 281.5t-96.5 282 t-254.5 114t-254 -114t-96 -282z" />
<glyph unicode="R" horiz-adv-x="808" d="M102 0v958q147 27 265 27q174 0 276 -73.5t102 -200.5q0 -168 -159 -242q76 -51 117.5 -149.5t74.5 -319.5h-129q-55 424 -254 424h-164v-424h-129zM231 530h158q231 0 232 172q0 170 -254 170q-82 0 -136 -6v-336z" />
<glyph unicode="S" horiz-adv-x="747" d="M39 70l55 116q117 -88 254 -88q100 0 157.5 44t57.5 118q0 123 -196 186q-289 92 -289 283q0 115 91 189.5t237 74.5q145 0 251 -65l-55 -103q-102 51 -199 52q-88 0 -142 -40t-54 -98q0 -113 196 -176q160 -51 225.5 -118.5t65.5 -178.5q0 -127 -101 -205.5t-253 -78.5 q-162 0 -301 88z" />
<glyph unicode="T" horiz-adv-x="862" d="M8 864v111h846v-111h-356v-864h-129v864h-361z" />
<glyph unicode="U" horiz-adv-x="987" d="M102 416v559h131v-559q0 -324 261 -324q260 0 260 324v559h131v-559q0 -434 -391 -434q-392 0 -392 434z" />
<glyph unicode="V" horiz-adv-x="864" d="M-2 975h139l295 -799l295 799h139l-374 -975h-119z" />
<glyph unicode="W" horiz-adv-x="1253" d="M-8 975h141l191 -778l241 778h123l242 -778l190 778h142l-271 -975h-119l-245 797l-246 -797h-119z" />
<glyph unicode="X" horiz-adv-x="872" d="M-2 0l362 500l-348 475h158l270 -381l265 381h159l-348 -475l361 -500h-154l-283 395l-286 -395h-156z" />
<glyph unicode="Y" horiz-adv-x="811" d="M-12 975h149l271 -438l268 438h147l-352 -547v-428h-127v426z" />
<glyph unicode="Z" horiz-adv-x="923" d="M55 0v82l633 782h-600l23 111h755v-84l-633 -780h664l-25 -111h-817z" />
<glyph unicode="[" horiz-adv-x="479" d="M94 -158v1239h324v-106h-203v-1028h203v-105h-324z" />
<glyph unicode="\" horiz-adv-x="548" d="M-45 989h133l530 -1044h-131z" />
<glyph unicode="]" horiz-adv-x="479" d="M61 -53h203v1028h-203v106h324v-1239h-324v105z" />
<glyph unicode="^" horiz-adv-x="856" d="M66 311l319 672h104l318 -672h-133l-238 518l-237 -518h-133z" />
<glyph unicode="_" horiz-adv-x="770" d="M0 -250h770v-108h-770v108z" />
<glyph unicode="`" horiz-adv-x="430" d="M70 967l116 37l154 -236h-98z" />
<glyph unicode="a" horiz-adv-x="751" d="M53 190q0 260 465 267q-20 154 -168 153q-111 0 -244 -51l-14 117q139 41 264 41q291 0 291 -299v-232q0 -78 29 -180l-121 -24l-20 90q-104 -90 -236 -90q-104 0 -174 56t-72 152zM184 203q0 -109 121 -109q68 0 135 33q78 39 78 94v123q-334 -6 -334 -141z" />
<glyph unicode="b" horiz-adv-x="890" d="M102 0q8 100 9 186v846h129v-405q96 96 249 96q150 0 249.5 -103.5t99.5 -257.5q0 -166 -103.5 -273t-255.5 -107t-248 94q0 -53 -6 -76h-123zM240 264q0 -78 63.5 -124t165.5 -46q115 0 178.5 72t63.5 196q0 111 -63.5 182.5t-170.5 71.5q-86 0 -161.5 -57t-75.5 -135 v-160z" />
<glyph unicode="c" horiz-adv-x="710" d="M53 352q0 166 100.5 268.5t266.5 102.5q139 0 239 -61l-45 -107q-96 59 -198 59q-104 0 -168 -72.5t-64 -189.5q0 -119 63.5 -190.5t168.5 -71.5q102 0 198 60l45 -107q-98 -61 -239 -61q-166 0 -266.5 103t-100.5 267z" />
<glyph unicode="d" horiz-adv-x="890" d="M53 362q0 154 99.5 257.5t248.5 103.5q154 0 250 -96v405h129v-846q0 -86 8 -186h-122q-6 23 -7 76q-96 -94 -247 -94q-152 0 -255.5 107t-103.5 273zM180 362q0 -125 63.5 -196.5t178.5 -71.5q102 0 165.5 46t63.5 124v160q0 78 -75.5 135t-161.5 57q-106 0 -170 -71.5 t-64 -182.5z" />
<glyph unicode="e" horiz-adv-x="800" d="M53 338q0 174 107 283q104 102 266 102q315 0 322 -395h-568q8 -111 79 -171.5t183 -60.5q115 0 263 54l14 -113q-150 -55 -285 -55q-166 0 -273.5 99t-107.5 257zM188 436h433q-10 80 -65.5 130t-141.5 50q-82 0 -147 -50t-79 -130z" />
<glyph unicode="f" horiz-adv-x="520" d="M35 590v106h119q0 350 272 351q86 0 145 -46l-36 -96q-72 31 -113 31q-141 0 -141 -240h198v-106h-198v-590h-129v590h-117z" />
<glyph unicode="g" horiz-adv-x="679" d="M66 455q0 113 75.5 184.5t182.5 71.5h294v-88h-102q37 -14 59 -68q18 -43 19 -86q0 -121 -66.5 -191.5t-191.5 -70.5q-45 0 -88 14q-10 -10 -10 -26q0 -31 147 -72q213 -59 213 -215q0 -96 -69.5 -155.5t-202.5 -59.5q-111 0 -228 69l45 103q109 -63 191 -64q63 0 105 30 t42 71q0 61 -114 108q-86 35 -166 78t-80 113q0 33 18 84q-73 80 -73 170zM186 459q0 -61 44 -103.5t106 -42.5q74 0 111.5 42t37.5 104q0 61 -44 104t-105 43t-105.5 -43t-44.5 -104z" />
<glyph unicode="h" horiz-adv-x="866" d="M102 0v1032h129v-411q94 94 236 94q139 0 218 -87t79 -235v-393h-129v391q0 92 -50 152.5t-136 60.5t-152 -61.5t-66 -134.5v-408h-129z" />
<glyph unicode="i" horiz-adv-x="333" d="M66 901q0 41 28.5 69.5t69.5 28.5t69.5 -28.5t28.5 -69.5t-28.5 -69.5t-69.5 -28.5t-69.5 28.5t-28.5 69.5zM102 0v696h129v-696h-129z" />
<glyph unicode="j" horiz-adv-x="350" d="M-98 -184q139 10 178 61t39 213v606h129v-659q0 -317 -332 -326zM84 901q0 41 28.5 69.5t69.5 28.5t70 -28.5t29 -69.5t-29 -69.5t-70 -28.5t-69.5 28.5t-28.5 69.5z" />
<glyph unicode="k" horiz-adv-x="696" d="M102 0v1032h129v-588l312 267l141 -25l-313 -276l362 -398l-133 -32l-319 356l-50 -41v-295h-129z" />
<glyph unicode="l" horiz-adv-x="436" d="M102 358v674h129v-645q0 -158 50 -223q43 -55 141 -64l-14 -116q-306 16 -306 374z" />
<glyph unicode="m" horiz-adv-x="1302" d="M86 698h121q14 -35 14 -80q29 41 94.5 70t128.5 29q135 0 218 -115q109 115 262 115q121 0 198.5 -91t77.5 -239v-387h-129v385q0 94 -43 156q-49 68 -129 67q-68 0 -126 -53t-58 -115v-440h-129v420q0 188 -158 188q-70 0 -133.5 -62.5t-63.5 -129.5v-416h-129v512 q0 127 -16 186z" />
<glyph unicode="n" horiz-adv-x="866" d="M86 698h121q14 -35 14 -84q98 102 238 103q139 0 222 -86t83 -236v-395h-129v395q0 213 -195 213q-72 0 -140.5 -64.5t-68.5 -127.5v-416h-129v512q0 127 -16 186z" />
<glyph unicode="o" horiz-adv-x="843" d="M53 352q0 156 104.5 263.5t264.5 107.5t264.5 -107.5t104.5 -263.5t-104.5 -262t-264.5 -106t-264.5 106t-104.5 262zM180 352q0 -111 67.5 -185.5t174.5 -74.5q106 0 174 75t68 185q0 111 -68 185.5t-174 74.5t-174 -74.5t-68 -185.5z" />
<glyph unicode="p" horiz-adv-x="882" d="M94 709h127l15 -76q109 90 245 90q152 0 250 -102.5t98 -253.5q0 -170 -104 -277.5t-260 -107.5q-143 0 -234 84v-359h-129v764q0 170 -8 238zM231 291q0 -80 67 -138.5t163 -58.5q115 0 179.5 73t64.5 198q0 106 -67 178.5t-169 72.5q-82 0 -160 -65.5t-78 -144.5v-115z " />
<glyph unicode="q" horiz-adv-x="882" d="M53 367q0 152 98.5 254t249.5 102q137 0 246 -90l15 76h126q-8 -68 -8 -238v-764h-129v359q-90 -84 -233 -84q-156 0 -260.5 107.5t-104.5 277.5zM178 365q0 -125 64.5 -198t179.5 -73q96 0 162.5 58.5t66.5 138.5v115q0 80 -77.5 145t-159.5 65q-102 0 -169 -72.5 t-67 -178.5z" />
<glyph unicode="r" horiz-adv-x="503" d="M78 707h115q23 -37 22 -99q18 39 76.5 74t116.5 35q41 0 65 -6v-111q-16 4 -47 4q-195 0 -195 -233v-371h-129v461q1 164 -24 246z" />
<glyph unicode="s" horiz-adv-x="606" d="M53 49l51 103q84 -57 181 -58q143 0 143 99q0 76 -139 118q-205 63 -205 195q0 88 68.5 148.5t185.5 60.5q119 0 201 -60l-47 -94q-72 53 -162 53q-53 0 -89 -27.5t-36 -70.5q0 -53 149 -104q201 -70 201 -213q0 -96 -74.5 -156.5t-201.5 -60.5q-105 -1 -226 67z" />
<glyph unicode="t" horiz-adv-x="528" d="M18 590v106h140v191l129 55v-246h223v-106h-223v-369q0 -125 80 -125q51 0 114 23l15 -109q-68 -29 -136 -28q-94 0 -148 63.5t-54 173.5v371h-140z" />
<glyph unicode="u" horiz-adv-x="856" d="M102 315v381h129v-368q0 -231 177 -232q74 0 145.5 56.5t71.5 132.5v411h129v-510q0 -70 43 -178l-125 -24q-20 49 -37 118q-123 -121 -244 -120q-289 -1 -289 333z" />
<glyph unicode="v" horiz-adv-x="733" d="M-8 696h135l240 -536l239 536h135l-323 -696h-103z" />
<glyph unicode="w" horiz-adv-x="983" d="M-8 696h133l104 -526l209 526h107l209 -526l104 526h133l-174 -696h-108l-217 559l-218 -559h-108z" />
<glyph unicode="x" horiz-adv-x="714" d="M-23 0l304 356l-285 340h156l206 -245l205 245h156l-285 -340l303 -356h-157l-224 268l-221 -268h-158z" />
<glyph unicode="y" horiz-adv-x="739" d="M-8 696h141l242 -516l229 516h141l-319 -682q-129 -272 -360 -323l-33 106q182 41 268 254z" />
<glyph unicode="z" horiz-adv-x="733" d="M41 0v78l463 510h-443l25 108h594v-84l-461 -503h475l-18 -109h-635z" />
<glyph unicode="{" horiz-adv-x="522" d="M61 367v106q127 4 127 76q0 43 -14 134t-14 128q0 209 246 209h47v-107h-54q-113 0 -118 -106q29 -174 28 -252q0 -45 -25.5 -85t-60.5 -50q86 -35 86 -137q0 -76 -28 -250q4 -109 118 -109h54v-104h-47q-246 0 -246 209q0 41 14 132t14 128q0 74 -127 78z" />
<glyph unicode="|" horiz-adv-x="362" d="M123 -340v1417h117v-1417h-117z" />
<glyph unicode="}" horiz-adv-x="522" d="M76 -76h53q119 0 119 101q0 47 -14.5 132t-14.5 126q0 102 86 137q-35 10 -60.5 50t-25.5 85t14.5 131t14.5 129q0 98 -119 98h-53v107h47q246 0 246 -209q0 -37 -14.5 -128t-14.5 -134q0 -72 127 -76v-106q-127 -4 -127 -78q0 -37 14.5 -128t14.5 -132q0 -209 -246 -209 h-47v104z" />
<glyph unicode="~" horiz-adv-x="864" d="M45 295v39q0 90 54.5 143t133.5 53q55 0 219 -60t203 -60q63 0 70 120h111v-32q0 -94 -51.5 -148.5t-133.5 -54.5q-49 0 -216 63.5t-202 63.5q-72 0 -75 -127h-113z" />
<glyph unicode="&#xa1;" horiz-adv-x="344" d="M74 606q0 41 28.5 70t69.5 29t69.5 -29t28.5 -70t-28.5 -69.5t-69.5 -28.5t-69.5 28.5t-28.5 69.5zM98 -289l15 690h114l19 -690h-148z" />
<glyph unicode="&#xa2;" horiz-adv-x="983" d="M125 469q0 168 93 279.5t253 140.5v164h113v-158q164 -4 272 -64l-43 -98q-51 23 -106.5 35t-114.5 12q-162 0 -253 -82t-91 -229t91 -229t253 -82q59 0 114.5 12t106.5 35l43 -99q-109 -59 -272 -63v-158h-113v164q-160 29 -253 140.5t-93 279.5z" />
<glyph unicode="&#xa3;" horiz-adv-x="983" d="M182 0v76q168 104 168 254q0 16 -2 42.5t-6 55.5h-158v94h146q-4 43 -7.5 79t-3.5 71q0 287 269 286q82 0 186 -47l-37 -86q-90 37 -153 37q-164 0 -164 -190q0 -78 14 -150h228v-94h-211q2 -16 3 -39.5t1 -44.5q0 -150 -86 -248h432v-96h-619z" />
<glyph unicode="&#xa4;" horiz-adv-x="983" d="M102 166l76 80q-70 96 -69 217q0 121 69 217l-76 80l88 94l80 -84q90 72 219 72q133 0 224 -72l80 84l88 -94l-76 -80q70 -96 69 -217q0 -121 -69 -217l76 -80l-88 -94l-80 84q-90 -72 -224 -72q-129 0 -219 72l-80 -84zM236 463q0 -109 73.5 -182.5t182.5 -73.5 q104 0 180 73.5t76 182.5q0 104 -76 180t-180 76q-109 0 -182.5 -76t-73.5 -180z" />
<glyph unicode="&#xa5;" horiz-adv-x="983" d="M115 944h143l231 -389l234 389h145l-299 -485h217v-105h-235v-65h235v-103h-235v-149h-119v149h-235v103h235v65h-235v103h215z" />
<glyph unicode="&#xa6;" horiz-adv-x="329" d="M115 -244v527h98v-527h-98zM115 451v524h98v-524h-98z" />
<glyph unicode="&#xa7;" horiz-adv-x="778" d="M111 510q0 88 79 160q-37 47 -36 106q0 92 69.5 149.5t184.5 57.5q53 0 107 -16.5t108 -44.5l-52 -88q-82 59 -174 59q-59 0 -100 -29.5t-41 -75.5q0 -23 13.5 -41t35.5 -34q16 -10 53 -25.5t86 -32.5q104 -37 163 -93t59 -128q0 -47 -20.5 -89t-55.5 -81q39 -47 39 -119 q0 -104 -75 -163.5t-189 -59.5q-129 0 -226 78l47 86q41 -39 86 -55.5t97 -16.5q74 0 117.5 34t43.5 87q0 72 -98 121q-51 20 -106.5 41.5t-106.5 44.5q-108 53 -108 168zM209 514q0 -25 16.5 -44t44.5 -40q20 -10 54 -25.5t88 -33.5q39 -14 65.5 -25.5t44.5 -23.5 q23 27 31 51t8 51q0 35 -40 70.5t-101 58.5q-53 18 -93 34.5t-67 28.5q-51 -45 -51 -102z" />
<glyph unicode="&#xa8;" horiz-adv-x="698" d="M109 870q0 37 26.5 64t63.5 27q35 0 61.5 -27t26.5 -64q0 -39 -27 -64.5t-61 -25.5q-37 0 -63.5 25.5t-26.5 64.5zM412 870q0 37 27.5 64t62.5 27t61.5 -27t26.5 -64q0 -39 -26.5 -64.5t-61.5 -25.5t-62.5 25.5t-27.5 64.5z" />
<glyph unicode="&#xa9;" horiz-adv-x="1105" d="M55 492q0 205 146.5 351t351.5 146t351.5 -146.5t146.5 -350.5q0 -205 -146.5 -351.5t-351.5 -146.5t-351.5 146.5t-146.5 351.5zM141 492q0 -170 121 -291t291 -121t291 121t121 291t-121 290.5t-291 120.5t-291 -120.5t-121 -290.5zM252 477q0 143 84 226t223 83 q125 0 191 -49l-25 -73q-78 45 -166 45q-213 0 -213 -222q0 -223 215 -223q100 0 172 51l27 -75q-78 -59 -211 -60q-137 0 -217 86t-80 211z" />
<glyph unicode="&#xaa;" horiz-adv-x="516" d="M53 649q0 164 301 170q-4 51 -35.5 72.5t-72.5 21.5q-35 0 -71 -8t-71 -33l-28 70q43 29 90 41t94 12q184 0 184 -225v-172q0 -10 3.5 -33.5t13.5 -56.5h-88q-4 10 -6 23.5t-7 29.5q-57 -59 -143 -59q-164 0 -164 147zM143 649q0 -72 86 -71q18 0 40 6t41.5 17t31.5 26.5 t12 36.5v79q-111 0 -161 -23.5t-50 -70.5z" />
<glyph unicode="&#xab;" horiz-adv-x="729" d="M61 367l228 278h127l-234 -278l236 -271h-125zM311 367l234 276h121l-232 -274l234 -273h-123z" />
<glyph unicode="&#xac;" horiz-adv-x="917" d="M70 479v92h755v-391h-98v299h-657z" />
<glyph unicode="&#xad;" horiz-adv-x="462" d="M27 322v110h409v-110h-409z" />
<glyph unicode="&#xae;" horiz-adv-x="1105" d="M55 492q0 205 146.5 351t351.5 146t351.5 -146.5t146.5 -350.5q0 -205 -146.5 -351.5t-351.5 -146.5t-351.5 146.5t-146.5 351.5zM141 492q0 -170 121 -291t291 -121t291 121t121 291t-121 290.5t-291 120.5t-291 -120.5t-121 -290.5zM350 182v604q94 16 168 17 q109 0 173.5 -46t64.5 -126q0 -106 -101 -152q49 -35 75 -96t46 -201h-80q-37 268 -159 269h-103v-269h-84zM434 518h96q150 0 150 107q0 106 -162 106q-51 0 -84 -4v-209z" />
<glyph unicode="&#xaf;" horiz-adv-x="770" d="M0 1081v109h770v-109h-770z" />
<glyph unicode="&#xb0;" horiz-adv-x="567" d="M100 813q0 76 53.5 129t129.5 53t129 -53t53 -129t-53.5 -129t-128.5 -53q-76 0 -129.5 53t-53.5 129zM166 813q0 -47 35 -82t82 -35t81.5 35t34.5 82t-34.5 82t-81.5 35t-82 -35t-35 -82z" />
<glyph unicode="&#xb1;" horiz-adv-x="901" d="M74 0v113h755v-113h-755zM84 444v113h303v309h129v-309h303v-113h-303v-284h-129v284h-303z" />
<glyph unicode="&#xb2;" horiz-adv-x="532" d="M55 389q0 63 46 121.5t100.5 112t100.5 103.5t46 97q0 35 -19.5 53.5t-49.5 18.5q-39 0 -70 -28.5t-35 -84.5l-86 17q10 92 59.5 140t124.5 48q78 0 126 -44t48 -120q0 -43 -26.5 -94t-83.5 -111l-133 -137h254l-13 -92h-389z" />
<glyph unicode="&#xb3;" horiz-adv-x="532" d="M74 434l41 86q29 -25 57.5 -33t56.5 -8q66 0 104 34t38 87q0 35 -21.5 53.5t-50.5 18.5q-25 0 -49.5 -9.5t-40.5 -21.5l-33 61q80 37 120 77t40 73q0 45 -57 45q-35 0 -68 -23.5t-49 -70.5l-76 39q63 147 199 147q141 0 141 -121q0 -70 -66 -127q106 -31 107 -139 q0 -98 -64.5 -157.5t-175.5 -61.5q-83 0 -153 51z" />
<glyph unicode="&#xb4;" horiz-adv-x="530" d="M109 750l153 235h160l-217 -235h-96z" />
<glyph unicode="&#xb5;" horiz-adv-x="847" d="M96 -289v989h129v-372q0 -231 176 -232q76 0 146.5 52.5t70.5 136.5v415h130v-514q0 -37 11 -82t32 -96l-125 -24q-10 23 -17.5 46t-13.5 52q-57 -45 -117.5 -72.5t-132.5 -27.5q-47 0 -89 16t-71 51v-338h-129z" />
<glyph unicode="&#xb6;" horiz-adv-x="778" d="M98 657q0 315 406 316q109 0 160 -10v-1092h-70v1036h-98v-1036h-72v498h-8q-123 0 -220.5 76.5t-97.5 211.5z" />
<glyph unicode="&#xb7;" horiz-adv-x="352" d="M78 373q0 41 28.5 69.5t69.5 28.5t69.5 -28.5t28.5 -69.5t-28.5 -70t-69.5 -29t-69.5 29t-28.5 70z" />
<glyph unicode="&#xb8;" horiz-adv-x="509" d="M109 -289l28 66q29 -14 58.5 -22.5t46.5 -8.5q66 0 65 61q0 57 -131 80l88 136h88l-57 -80q55 -16 80.5 -48t25.5 -79q0 -66 -43 -104t-120 -38q-29 0 -63.5 9.5t-65.5 27.5z" />
<glyph unicode="&#xb9;" horiz-adv-x="532" d="M111 840l170 151q31 0 47 -19.5t16 -49.5v-443h86v-80h-274v80h88v369l-82 -78z" />
<glyph unicode="&#xba;" horiz-adv-x="602" d="M39 735q0 109 74.5 185.5t185.5 76.5q109 0 185.5 -76.5t76.5 -185.5q0 -111 -76.5 -185.5t-185.5 -74.5q-111 0 -185.5 74.5t-74.5 185.5zM129 735q0 -70 50 -120t120 -50t121 50.5t51 119.5q0 70 -51 121t-121 51t-120 -51t-50 -121z" />
<glyph unicode="&#xbb;" horiz-adv-x="729" d="M61 96l234 273l-232 274h121l234 -276l-234 -271h-123zM311 96l236 271l-234 278h127l228 -278l-232 -271h-125z" />
<glyph unicode="&#xbc;" horiz-adv-x="1110" d="M47 803l172 151q63 -4 64 -71v-443h86v-80h-275v80h88v357l-78 -68zM221 -18l588 989h102l-587 -989h-103zM621 123q0 66 20.5 147.5t61 154.5t105 123t142.5 52v-379h86l-4 -98h-82v-123h-100v123h-229zM727 221h123v242q-47 -41 -81 -110t-42 -132z" />
<glyph unicode="&#xbd;" horiz-adv-x="1110" d="M47 803l172 151q63 -4 64 -71v-443h86v-80h-275v80h88v357l-78 -68zM221 -18l588 989h102l-587 -989h-103zM676 0q6 78 52 137.5t97 106.5q25 25 50.5 48t46 48t34 48.5t13.5 45.5q0 29 -17.5 49.5t-52.5 20.5q-84 0 -98 -111l-92 17q8 92 58 140t126 48q78 0 127 -43 t49 -121q0 -51 -29.5 -96t-69.5 -87t-81 -81t-66 -76h254l-12 -94h-389z" />
<glyph unicode="&#xbe;" horiz-adv-x="1110" d="M63 416l41 88q29 -23 57.5 -34t57.5 -11q66 0 103.5 34.5t37.5 88.5q0 72 -67 71q-51 0 -94 -37l-33 62q90 47 121.5 84t31.5 78q0 16 -12 27.5t-39 11.5q-82 0 -116 -101l-76 39q61 147 198 148q72 0 106 -33t34 -78q0 -70 -64 -127q55 -8 81 -47t26 -96 q0 -53 -20.5 -94t-53.5 -69t-77 -42t-89 -14q-84 0 -154 51zM221 -18l588 989h102l-587 -989h-103zM621 123q0 66 20.5 147.5t61 154.5t105 123t142.5 52v-379h86l-4 -98h-82v-123h-100v123h-229zM727 221h123v242q-47 -41 -81 -110t-42 -132z" />
<glyph unicode="&#xbf;" horiz-adv-x="591" d="M49 -80q0 109 135 248q47 47 69.5 95t25.5 91q0 35 -15 86h117q10 -29 15 -52t5 -40q0 -113 -118 -237q-104 -111 -105 -187q0 -117 144 -117q88 0 170 60l51 -100q-121 -76 -236 -76q-117 0 -187.5 62.5t-70.5 166.5zM219 600q0 41 28.5 69.5t67.5 28.5t68 -28.5 t29 -69.5t-29 -69.5t-68 -28.5t-67.5 28.5t-28.5 69.5z" />
<glyph unicode="&#xc2;" horiz-adv-x="923" d="M-2 0l410 989h110l408 -989h-142l-129 326h-391l-127 -326h-139zM311 436h295l-143 406zM267 1067l159 236h72l158 -236h-111l-84 146l-82 -146h-112z" />
<glyph unicode="&#xc4;" horiz-adv-x="923" d="M-2 0l410 989h110l408 -989h-142l-129 326h-391l-127 -326h-139zM311 436h295l-143 406zM222 1149q0 37 26.5 64t63.5 27q35 0 61.5 -27t26.5 -64q0 -39 -27 -64.5t-61 -25.5q-37 0 -63.5 25.5t-26.5 64.5zM525 1149q0 37 27.5 64t62.5 27t61.5 -27t26.5 -64 q0 -39 -26.5 -64.5t-61.5 -25.5t-62.5 25.5t-27.5 64.5z" />
<glyph unicode="&#xc5;" horiz-adv-x="923" d="M-2 0l410 989h110l408 -989h-142l-129 326h-391l-127 -326h-139zM311 436h295l-143 406zM297 1229q0 68 48 116t115 48q68 0 116 -48t48 -116t-48 -116t-116 -48t-115.5 48t-47.5 116zM381 1229q0 -33 23.5 -56.5t55.5 -23.5q33 0 55.5 24t22.5 56q0 33 -22.5 55.5 t-55.5 22.5t-56 -22.5t-23 -55.5z" />
<glyph unicode="&#xc6;" horiz-adv-x="1193" d="M-20 0l530 989h602v-112h-446l39 -302h387v-112h-369l53 -350h361v-113h-469l-56 389h-286l-207 -389h-139zM381 500h215l-39 329z" />
<glyph unicode="&#xc7;" horiz-adv-x="884" d="M53 485q0 221 115 357q127 147 354 147q174 0 318 -59l-41 -103q-123 51 -273 52q-188 0 -276 -140q-66 -102 -66 -258q0 -143 72 -250q90 -135 254 -135q170 0 295 62l35 -107q-150 -66 -357 -65q-195 0 -312.5 138t-117.5 361zM295 -289l28 66q29 -14 58.5 -22.5 t46.5 -8.5q66 0 65 61q0 57 -131 80l88 136h88l-57 -80q55 -16 80.5 -48t25.5 -79q0 -66 -43 -104t-120 -38q-29 0 -63.5 9.5t-65.5 27.5z" />
<glyph unicode="&#xca;" horiz-adv-x="733" d="M102 0v975h580v-111h-451v-295h402v-110h-402v-348h451v-111h-580zM172 1067l159 236h72l158 -236h-111l-84 146l-82 -146h-112z" />
<glyph unicode="&#xcb;" horiz-adv-x="733" d="M102 0v975h580v-111h-451v-295h402v-110h-402v-348h451v-111h-580zM125 1149q0 37 26.5 64t63.5 27q35 0 61.5 -27t26.5 -64q0 -39 -27 -64.5t-61 -25.5q-37 0 -63.5 25.5t-26.5 64.5zM428 1149q0 37 27.5 64t62.5 27t61.5 -27t26.5 -64q0 -39 -26.5 -64.5t-61.5 -25.5 t-62.5 25.5t-27.5 64.5z" />
<glyph unicode="&#xce;" horiz-adv-x="333" d="M102 0v975h129v-975h-129zM-14 1067l159 236h72l158 -236h-111l-84 146l-82 -146h-112z" />
<glyph unicode="&#xcf;" horiz-adv-x="333" d="M102 0v975h129v-975h-129zM-61 1149q0 37 26.5 64t63.5 27q35 0 61.5 -27t26.5 -64q0 -39 -27 -64.5t-61 -25.5q-37 0 -63.5 25.5t-26.5 64.5zM242 1149q0 37 27.5 64t62.5 27t61.5 -27t26.5 -64q0 -39 -26.5 -64.5t-61.5 -25.5t-62.5 25.5t-27.5 64.5z" />
<glyph unicode="&#xd0;" horiz-adv-x="940" d="M18 422v110h84v426q233 27 316 27q250 0 370 -149q98 -121 99 -328q0 -221 -107 -354q-131 -162 -403 -162q-84 0 -275 20v410h-84zM231 109q68 -6 170 -7q199 0 289 142q66 104 66 264q0 367 -344 366q-57 0 -181 -12v-330h328v-110h-328v-313z" />
<glyph unicode="&#xd1;" horiz-adv-x="966" d="M102 0v975h129l504 -770v770h129v-975h-123l-510 791v-791h-129zM279 1067q0 61 29.5 103.5t85.5 42.5q18 0 41.5 -8t46 -19.5t44 -19.5t36.5 -8q39 0 38 55h89q-2 -72 -32 -114t-89 -42q-16 0 -40 9.5t-49.5 20.5t-48 20.5t-36.5 9.5q-16 0 -20.5 -15.5t-4.5 -34.5h-90z " />
<glyph unicode="&#xd4;" horiz-adv-x="1060" d="M53 485q0 215 133 361.5t344 146.5t344.5 -146.5t133.5 -361.5t-133.5 -360t-344.5 -145t-344 145t-133 360zM180 487q0 -168 96.5 -281.5t253.5 -113.5q158 0 254.5 113.5t96.5 281.5t-96.5 282t-254.5 114t-254 -114t-96 -282zM336 1067l159 236h72l158 -236h-111 l-84 146l-82 -146h-112z" />
<glyph unicode="&#xd6;" horiz-adv-x="1060" d="M53 485q0 215 133 361.5t344 146.5t344.5 -146.5t133.5 -361.5t-133.5 -360t-344.5 -145t-344 145t-133 360zM180 487q0 -168 96.5 -281.5t253.5 -113.5q158 0 254.5 113.5t96.5 281.5t-96.5 282t-254.5 114t-254 -114t-96 -282zM289 1149q0 37 26.5 64t63.5 27 q35 0 61.5 -27t26.5 -64q0 -39 -27 -64.5t-61 -25.5q-37 0 -63.5 25.5t-26.5 64.5zM592 1149q0 37 27.5 64t62.5 27t61.5 -27t26.5 -64q0 -39 -26.5 -64.5t-61.5 -25.5t-62.5 25.5t-27.5 64.5z" />
<glyph unicode="&#xd7;" horiz-adv-x="854" d="M55 70l291 303q-72 76 -145.5 154.5t-145.5 154.5l82 80l291 -303q70 74 145.5 152.5t143.5 150.5l82 -80l-293 -307l293 -305l-82 -80l-291 303q-72 -72 -145.5 -152t-143.5 -151z" />
<glyph unicode="&#xd8;" horiz-adv-x="1060" d="M53 485q0 215 133 361.5t344 146.5q100 0 183 -32l24 47h131l-55 -107q33 -25 61 -55q133 -145 134 -361q0 -215 -133.5 -360t-344.5 -145q-96 0 -176 28l-32 -65h-132l62 120q-35 27 -66 62q-133 145 -133 360zM180 487q0 -168 96 -282q14 -18 31 -33l355 686 q-59 25 -132 25q-158 0 -254 -114t-96 -282zM408 113q55 -20 122 -21q158 0 254.5 113.5t96.5 281.5t-97 281q-12 14 -24 27z" />
<glyph unicode="&#xdb;" horiz-adv-x="987" d="M102 416v559h131v-559q0 -324 261 -324q260 0 260 324v559h131v-559q0 -434 -391 -434q-392 0 -392 434zM299 1067l159 236h72l158 -236h-111l-84 146l-82 -146h-112z" />
<glyph unicode="&#xdc;" horiz-adv-x="987" d="M102 416v559h131v-559q0 -324 261 -324q260 0 260 324v559h131v-559q0 -434 -391 -434q-392 0 -392 434zM252 1149q0 37 26.5 64t63.5 27q35 0 61.5 -27t26.5 -64q0 -39 -27 -64.5t-61 -25.5q-37 0 -63.5 25.5t-26.5 64.5zM555 1149q0 37 27.5 64t62.5 27t61.5 -27 t26.5 -64q0 -39 -26.5 -64.5t-61.5 -25.5t-62.5 25.5t-27.5 64.5z" />
<glyph unicode="&#xde;" horiz-adv-x="806" d="M109 0v975h120v-150q41 8 107 9q186 0 290.5 -83t104.5 -241t-104.5 -241t-290.5 -83q-66 0 -107 9v-195h-120zM229 309q47 -16 111 -16q272 0 272 217t-272 217q-63 0 -111 -16v-402z" />
<glyph unicode="&#xdf;" horiz-adv-x="870" d="M94 -262q27 51 38 95t11 85v690q0 399 310 400q111 0 181.5 -67t70.5 -183q0 -47 -20.5 -85t-44.5 -69t-44.5 -53.5t-20.5 -40.5q0 -20 31 -48t67 -65t66.5 -80t30.5 -94q0 -113 -70.5 -177t-189.5 -64q-53 0 -101.5 13t-95.5 38l41 110q92 -49 158 -49t102.5 34t36.5 83 q0 45 -30.5 80t-68.5 68.5t-68.5 70.5t-30.5 86q0 27 20.5 58.5t46 63.5t46 61.5t20.5 54.5q0 137 -148 137q-172 0 -172 -316v-657q0 -53 -13 -106.5t-42 -104.5z" />
<glyph unicode="&#xe2;" horiz-adv-x="751" d="M53 190q0 260 465 267q-20 154 -168 153q-111 0 -244 -51l-14 117q139 41 264 41q291 0 291 -299v-232q0 -78 29 -180l-121 -24l-20 90q-104 -90 -236 -90q-104 0 -174 56t-72 152zM184 203q0 -109 121 -109q68 0 135 33q78 39 78 94v123q-334 -6 -334 -141zM156 788 l159 236h72l158 -236h-111l-84 146l-82 -146h-112z" />
<glyph unicode="&#xe4;" horiz-adv-x="751" d="M53 190q0 260 465 267q-20 154 -168 153q-111 0 -244 -51l-14 117q139 41 264 41q291 0 291 -299v-232q0 -78 29 -180l-121 -24l-20 90q-104 -90 -236 -90q-104 0 -174 56t-72 152zM184 203q0 -109 121 -109q68 0 135 33q78 39 78 94v123q-334 -6 -334 -141zM136 870 q0 37 26.5 64t63.5 27q35 0 61.5 -27t26.5 -64q0 -39 -27 -64.5t-61 -25.5q-37 0 -63.5 25.5t-26.5 64.5zM439 870q0 37 27.5 64t62.5 27t61.5 -27t26.5 -64q0 -39 -26.5 -64.5t-61.5 -25.5t-62.5 25.5t-27.5 64.5z" />
<glyph unicode="&#xe5;" horiz-adv-x="751" d="M53 190q0 260 465 267q-20 154 -168 153q-111 0 -244 -51l-14 117q139 41 264 41q291 0 291 -299v-232q0 -78 29 -180l-121 -24l-20 90q-104 -90 -236 -90q-104 0 -174 56t-72 152zM184 203q0 -109 121 -109q68 0 135 33q78 39 78 94v123q-334 -6 -334 -141zM211 950 q0 68 48 116t115 48q68 0 116 -48t48 -116t-48 -116t-116 -48t-115.5 48t-47.5 116zM295 950q0 -33 23.5 -56.5t55.5 -23.5q33 0 55.5 24t22.5 56q0 33 -22.5 55.5t-55.5 22.5t-56 -22.5t-23 -55.5z" />
<glyph unicode="&#xe6;" horiz-adv-x="1271" d="M53 190q0 266 467 271q-4 70 -47 113.5t-121 43.5q-66 0 -241 -53l-17 117q143 43 266 43q92 0 152.5 -27.5t95.5 -97.5q98 125 285 125q315 0 326 -397h-572q10 -113 81 -172.5t181 -59.5q119 0 269 54l10 -113q-139 -55 -287 -55q-201 0 -307 143q-76 -143 -293 -143 q-51 0 -96 14t-79 40.5t-53.5 65.5t-19.5 88zM188 203q0 -53 34 -81t83 -28q98 0 156.5 55.5t58.5 153.5v45q-174 -2 -253 -37.5t-79 -107.5zM659 436h433q-14 76 -67.5 129t-139.5 53q-90 0 -149 -48t-77 -134z" />
<glyph unicode="&#xe7;" horiz-adv-x="710" d="M53 352q0 166 100.5 268.5t266.5 102.5q139 0 239 -61l-45 -107q-96 59 -198 59q-104 0 -168 -72.5t-64 -189.5q0 -119 63.5 -190.5t168.5 -71.5q102 0 198 60l45 -107q-98 -61 -239 -61q-166 0 -266.5 103t-100.5 267zM209 -289l28 66q29 -14 58.5 -22.5t46.5 -8.5 q66 0 65 61q0 57 -131 80l88 136h88l-57 -80q55 -16 80.5 -48t25.5 -79q0 -66 -43 -104t-120 -38q-29 0 -63.5 9.5t-65.5 27.5z" />
<glyph unicode="&#xea;" horiz-adv-x="800" d="M53 338q0 174 107 283q104 102 266 102q315 0 322 -395h-568q8 -111 79 -171.5t183 -60.5q115 0 263 54l14 -113q-150 -55 -285 -55q-166 0 -273.5 99t-107.5 257zM188 436h433q-10 80 -65.5 130t-141.5 50q-82 0 -147 -50t-79 -130zM205 788l159 236h72l158 -236h-111 l-84 146l-82 -146h-112z" />
<glyph unicode="&#xeb;" horiz-adv-x="800" d="M53 338q0 174 107 283q104 102 266 102q315 0 322 -395h-568q8 -111 79 -171.5t183 -60.5q115 0 263 54l14 -113q-150 -55 -285 -55q-166 0 -273.5 99t-107.5 257zM188 436h433q-10 80 -65.5 130t-141.5 50q-82 0 -147 -50t-79 -130zM160 870q0 37 26.5 64t63.5 27 q35 0 61.5 -27t26.5 -64q0 -39 -27 -64.5t-61 -25.5q-37 0 -63.5 25.5t-26.5 64.5zM463 870q0 37 27.5 64t62.5 27t61.5 -27t26.5 -64q0 -39 -26.5 -64.5t-61.5 -25.5t-62.5 25.5t-27.5 64.5z" />
<glyph unicode="&#xee;" horiz-adv-x="333" d="M102 0v696h129v-696h-129zM-14 788l159 236h72l158 -236h-111l-84 146l-82 -146h-112z" />
<glyph unicode="&#xef;" horiz-adv-x="333" d="M102 0v696h129v-696h-129zM-61 870q0 37 26.5 64t63.5 27q35 0 61.5 -27t26.5 -64q0 -39 -27 -64.5t-61 -25.5q-37 0 -63.5 25.5t-26.5 64.5zM242 870q0 37 27.5 64t62.5 27t61.5 -27t26.5 -64q0 -39 -26.5 -64.5t-61.5 -25.5t-62.5 25.5t-27.5 64.5z" />
<glyph unicode="&#xf0;" horiz-adv-x="774" d="M74 291q0 135 84 227t207 92t182 -65q-49 102 -174 200q-2 2 -4 3l-207 -107l-56 90l164 84q-74 41 -145 62l12 102q143 -29 256 -100l187 96l45 -94l-140 -72q213 -205 213 -475q0 -166 -93 -266.5t-236 -100.5q-129 0 -212 93.5t-83 230.5zM193 291q0 -82 53 -145.5 t127 -63.5q78 0 132 61.5t54 147.5q0 88 -54 148.5t-132 60.5q-74 0 -127 -63.5t-53 -145.5z" />
<glyph unicode="&#xf1;" horiz-adv-x="866" d="M86 698h121q14 -35 14 -84q98 102 238 103q139 0 222 -86t83 -236v-395h-129v395q0 213 -195 213q-72 0 -140.5 -64.5t-68.5 -127.5v-416h-129v512q0 127 -16 186zM227 788q0 61 29.5 103.5t85.5 42.5q18 0 41.5 -8t46 -19.5t44 -19.5t36.5 -8q39 0 38 55h89 q-2 -72 -32 -114t-89 -42q-16 0 -40 9.5t-49.5 20.5t-48 20.5t-36.5 9.5q-16 0 -20.5 -15.5t-4.5 -34.5h-90z" />
<glyph unicode="&#xf4;" horiz-adv-x="843" d="M53 352q0 156 104.5 263.5t264.5 107.5t264.5 -107.5t104.5 -263.5t-104.5 -262t-264.5 -106t-264.5 106t-104.5 262zM180 352q0 -111 67.5 -185.5t174.5 -74.5q106 0 174 75t68 185q0 111 -68 185.5t-174 74.5t-174 -74.5t-68 -185.5zM228 788l159 236h72l158 -236h-111 l-84 146l-82 -146h-112z" />
<glyph unicode="&#xf6;" horiz-adv-x="843" d="M53 352q0 156 104.5 263.5t264.5 107.5t264.5 -107.5t104.5 -263.5t-104.5 -262t-264.5 -106t-264.5 106t-104.5 262zM180 352q0 -111 67.5 -185.5t174.5 -74.5q106 0 174 75t68 185q0 111 -68 185.5t-174 74.5t-174 -74.5t-68 -185.5zM181 870q0 37 26.5 64t63.5 27 q35 0 61.5 -27t26.5 -64q0 -39 -27 -64.5t-61 -25.5q-37 0 -63.5 25.5t-26.5 64.5zM484 870q0 37 27.5 64t62.5 27t61.5 -27t26.5 -64q0 -39 -26.5 -64.5t-61.5 -25.5t-62.5 25.5t-27.5 64.5z" />
<glyph unicode="&#xf7;" horiz-adv-x="854" d="M53 322v110h748v-110h-748zM334 115q0 41 28.5 69.5t67.5 28.5t67.5 -28.5t28.5 -69.5t-28.5 -70t-67.5 -29t-67.5 29t-28.5 70zM334 641q0 41 28.5 69.5t67.5 28.5t67.5 -28.5t28.5 -69.5t-28.5 -69.5t-67.5 -28.5t-67.5 28.5t-28.5 69.5z" />
<glyph unicode="&#xf8;" horiz-adv-x="843" d="M53 352q0 156 104.5 263.5t264.5 107.5q57 0 108 -14l35 65h131l-59 -117q25 -18 49 -43q104 -106 105 -262q0 -156 -104.5 -262t-264.5 -106q-68 0 -125 18l-31 -59h-131l60 114q-20 14 -37 33q-105 106 -105 262zM180 352q0 -111 68 -186l2 -2l227 442q-27 6 -55 6 q-106 0 -174 -74.5t-68 -185.5zM348 102q35 -10 74 -10q106 0 174 75t68 185q0 111 -68 185l-14 14z" />
<glyph unicode="&#xfb;" horiz-adv-x="856" d="M102 315v381h129v-368q0 -231 177 -232q74 0 145.5 56.5t71.5 132.5v411h129v-510q0 -70 43 -178l-125 -24q-20 49 -37 118q-123 -121 -244 -120q-289 -1 -289 333zM234 788l159 236h72l158 -236h-111l-84 146l-82 -146h-112z" />
<glyph unicode="&#xfc;" horiz-adv-x="856" d="M102 315v381h129v-368q0 -231 177 -232q74 0 145.5 56.5t71.5 132.5v411h129v-510q0 -70 43 -178l-125 -24q-20 49 -37 118q-123 -121 -244 -120q-289 -1 -289 333zM187 870q0 37 26.5 64t63.5 27q35 0 61.5 -27t26.5 -64q0 -39 -27 -64.5t-61 -25.5q-37 0 -63.5 25.5 t-26.5 64.5zM490 870q0 37 27.5 64t62.5 27t61.5 -27t26.5 -64q0 -39 -26.5 -64.5t-61.5 -25.5t-62.5 25.5t-27.5 64.5z" />
<glyph unicode="&#xfe;" horiz-adv-x="897" d="M113 -274v1249h120v-346q102 96 248 96q150 0 246 -101.5t96 -256.5q0 -172 -101 -278.5t-261 -106.5q-137 0 -228 84v-340h-120zM233 285q0 -78 71 -134.5t163 -56.5q106 0 172 72t66 199q0 111 -66 182t-170 71q-96 0 -166 -60t-70 -157v-116z" />
<glyph unicode="&#xff;" horiz-adv-x="739" d="M-8 696h141l242 -516l229 516h141l-319 -682q-129 -272 -360 -323l-33 106q182 41 268 254zM129 870q0 37 26.5 64t63.5 27q35 0 61.5 -27t26.5 -64q0 -39 -27 -64.5t-61 -25.5q-37 0 -63.5 25.5t-26.5 64.5zM432 870q0 37 27.5 64t62.5 27t61.5 -27t26.5 -64 q0 -39 -26.5 -64.5t-61.5 -25.5t-62.5 25.5t-27.5 64.5z" />
<glyph unicode="&#x102;" horiz-adv-x="923" d="M-2 0l410 989h110l408 -989h-142l-129 326h-391l-127 -326h-139zM311 436h295l-143 406zM220 1285h110q10 -51 42 -91.5t89 -40.5t90 40t43 92h109q-20 -117 -81.5 -173.5t-160.5 -56.5q-98 0 -159.5 56.5t-81.5 173.5z" />
<glyph unicode="&#x103;" horiz-adv-x="751" d="M53 190q0 260 465 267q-20 154 -168 153q-111 0 -244 -51l-14 117q139 41 264 41q291 0 291 -299v-232q0 -78 29 -180l-121 -24l-20 90q-104 -90 -236 -90q-104 0 -174 56t-72 152zM184 203q0 -109 121 -109q68 0 135 33q78 39 78 94v123q-334 -6 -334 -141zM134 1006 h110q10 -51 42 -91.5t89 -40.5t90 40t43 92h109q-20 -117 -81.5 -173.5t-160.5 -56.5q-98 0 -159.5 56.5t-81.5 173.5z" />
<glyph unicode="&#x106;" horiz-adv-x="884" d="M53 485q0 221 115 357q127 147 354 147q174 0 318 -59l-41 -103q-123 51 -273 52q-188 0 -276 -140q-66 -102 -66 -258q0 -143 72 -250q90 -135 254 -135q170 0 295 62l35 -107q-150 -66 -357 -65q-195 0 -312.5 138t-117.5 361zM307 1067l154 236l116 -37l-172 -199h-98 z" />
<glyph unicode="&#x107;" horiz-adv-x="710" d="M53 352q0 166 100.5 268.5t266.5 102.5q139 0 239 -61l-45 -107q-96 59 -198 59q-104 0 -168 -72.5t-64 -189.5q0 -119 63.5 -190.5t168.5 -71.5q102 0 198 60l45 -107q-98 -61 -239 -61q-166 0 -266.5 103t-100.5 267zM219 788l154 236l116 -37l-172 -199h-98z" />
<glyph unicode="&#x10c;" horiz-adv-x="884" d="M53 485q0 221 115 357q127 147 354 147q174 0 318 -59l-41 -103q-123 51 -273 52q-188 0 -276 -140q-66 -102 -66 -258q0 -143 72 -250q90 -135 254 -135q170 0 295 62l35 -107q-150 -66 -357 -65q-195 0 -312.5 138t-117.5 361zM248 1303h110l84 -145l82 145h113 l-160 -236h-71z" />
<glyph unicode="&#x10d;" horiz-adv-x="710" d="M53 352q0 166 100.5 268.5t266.5 102.5q139 0 239 -61l-45 -107q-96 59 -198 59q-104 0 -168 -72.5t-64 -189.5q0 -119 63.5 -190.5t168.5 -71.5q102 0 198 60l45 -107q-98 -61 -239 -61q-166 0 -266.5 103t-100.5 267zM160 1024h110l84 -145l82 145h113l-160 -236h-71z " />
<glyph unicode="&#x110;" horiz-adv-x="940" d="M18 422v110h84v426q233 27 316 27q250 0 370 -149q98 -121 99 -328q0 -221 -107 -354q-131 -162 -403 -162q-84 0 -275 20v410h-84zM231 109q68 -6 170 -7q199 0 289 142q66 104 66 264q0 367 -344 366q-57 0 -181 -12v-330h328v-110h-328v-313z" />
<glyph unicode="&#x111;" horiz-adv-x="890" d="M53 362q0 154 99.5 257.5t248.5 103.5q154 0 250 -96v213h-200v90h200v102h129v-102h119v-90h-119v-654q0 -86 8 -186h-122q-6 23 -7 76q-96 -94 -247 -94q-152 0 -255.5 107t-103.5 273zM180 362q0 -125 63.5 -196.5t178.5 -71.5q102 0 165.5 46t63.5 124v160 q0 78 -75.5 135t-161.5 57q-106 0 -170 -71.5t-64 -182.5z" />
<glyph unicode="&#x11e;" horiz-adv-x="929" d="M53 485q0 221 115 357q127 147 354 147q174 0 318 -59l-41 -103q-123 51 -273 52q-188 0 -276 -140q-66 -102 -66 -258q0 -143 72 -250q90 -135 254 -135q121 0 209 33v277h-246v108h375v-491l-66 16q-119 -53 -299 -53q-195 0 -312.5 138t-117.5 361zM224 1285h110 q10 -51 42 -91.5t89 -40.5t90 40t43 92h109q-20 -117 -81.5 -173.5t-160.5 -56.5q-98 0 -159.5 56.5t-81.5 173.5z" />
<glyph unicode="&#x11f;" horiz-adv-x="679" d="M66 455q0 113 75.5 184.5t182.5 71.5h294v-88h-102q37 -14 59 -68q18 -43 19 -86q0 -121 -66.5 -191.5t-191.5 -70.5q-45 0 -88 14q-10 -10 -10 -26q0 -31 147 -72q213 -59 213 -215q0 -96 -69.5 -155.5t-202.5 -59.5q-111 0 -228 69l45 103q109 -63 191 -64q63 0 105 30 t42 71q0 61 -114 108q-86 35 -166 78t-80 113q0 33 18 84q-73 80 -73 170zM186 459q0 -61 44 -103.5t106 -42.5q74 0 111.5 42t37.5 104q0 61 -44 104t-105 43t-105.5 -43t-44.5 -104zM109 1006h110q10 -51 42 -91.5t89 -40.5t90 40t43 92h109q-20 -117 -81.5 -173.5 t-160.5 -56.5q-98 0 -159.5 56.5t-81.5 173.5z" />
<glyph unicode="&#x130;" horiz-adv-x="333" d="M102 0v975h129v-975h-129zM91 1116q0 37 27.5 63.5t62.5 26.5t61.5 -26.5t26.5 -63.5q0 -39 -27 -64.5t-61 -25.5q-35 0 -62.5 25.5t-27.5 64.5z" />
<glyph unicode="&#x131;" horiz-adv-x="333" d="M102 0v696h129v-696h-129z" />
<glyph unicode="&#x141;" horiz-adv-x="735" d="M43 291v127l59 14v543h129v-512l461 108v-127l-461 -108v-225h478v-111h-607v305z" />
<glyph unicode="&#x142;" horiz-adv-x="444" d="M16 459v110l88 25v438h129v-399l191 57v-110l-191 -58v-135q0 -158 50 -223q43 -55 141 -64l-14 -116q-305 16 -306 374v125z" />
<glyph unicode="&#x152;" horiz-adv-x="1480" d="M53 487q0 215 145.5 361.5t372.5 146.5q156 0 279 -77v57h580v-111h-451v-295h401v-110h-401v-348h451v-111h-580v55q-123 -76 -279 -75q-227 0 -372.5 145t-145.5 362zM182 487q0 -160 116 -278.5t273 -118.5q174 0 279 123v543q-104 127 -279 127q-156 0 -272.5 -120 t-116.5 -276z" />
<glyph unicode="&#x153;" horiz-adv-x="1411" d="M53 352q0 156 104.5 263.5t264.5 107.5q199 0 303 -158q123 158 311 158q315 0 322 -395h-567q8 -109 78.5 -170.5t183.5 -61.5t262 54l14 -113q-150 -55 -285 -55q-207 0 -321 151q-109 -150 -301 -149q-160 0 -264.5 106t-104.5 262zM180 352q0 -111 67.5 -185.5 t174.5 -74.5q106 0 174 75t68 185q0 111 -68 185.5t-174 74.5t-174 -74.5t-68 -185.5zM799 436h432q-10 82 -66.5 131t-140.5 49q-82 0 -146.5 -50t-78.5 -130z" />
<glyph unicode="&#x15e;" horiz-adv-x="747" d="M39 70l55 116q117 -88 254 -88q100 0 157.5 44t57.5 118q0 123 -196 186q-289 92 -289 283q0 115 91 189.5t237 74.5q145 0 251 -65l-55 -103q-102 51 -199 52q-88 0 -142 -40t-54 -98q0 -113 196 -176q160 -51 225.5 -118.5t65.5 -178.5q0 -127 -101 -205.5t-253 -78.5 q-162 0 -301 88zM228 -289l28 66q29 -14 58.5 -22.5t46.5 -8.5q66 0 65 61q0 57 -131 80l88 136h88l-57 -80q55 -16 80.5 -48t25.5 -79q0 -66 -43 -104t-120 -38q-29 0 -63.5 9.5t-65.5 27.5z" />
<glyph unicode="&#x15f;" horiz-adv-x="606" d="M53 49l51 103q84 -57 181 -58q143 0 143 99q0 76 -139 118q-205 63 -205 195q0 88 68.5 148.5t185.5 60.5q119 0 201 -60l-47 -94q-72 53 -162 53q-53 0 -89 -27.5t-36 -70.5q0 -53 149 -104q201 -70 201 -213q0 -96 -74.5 -156.5t-201.5 -60.5q-105 -1 -226 67z M156 -289l28 66q29 -14 58.5 -22.5t46.5 -8.5q66 0 65 61q0 57 -131 80l88 136h88l-57 -80q55 -16 80.5 -48t25.5 -79q0 -66 -43 -104t-120 -38q-29 0 -63.5 9.5t-65.5 27.5z" />
<glyph unicode="&#x160;" horiz-adv-x="747" d="M39 70l55 116q117 -88 254 -88q100 0 157.5 44t57.5 118q0 123 -196 186q-289 92 -289 283q0 115 91 189.5t237 74.5q145 0 251 -65l-55 -103q-102 51 -199 52q-88 0 -142 -40t-54 -98q0 -113 196 -176q160 -51 225.5 -118.5t65.5 -178.5q0 -127 -101 -205.5t-253 -78.5 q-162 0 -301 88zM178 1303h110l84 -145l82 145h113l-160 -236h-71z" />
<glyph unicode="&#x161;" horiz-adv-x="606" d="M53 49l51 103q84 -57 181 -58q143 0 143 99q0 76 -139 118q-205 63 -205 195q0 88 68.5 148.5t185.5 60.5q119 0 201 -60l-47 -94q-72 53 -162 53q-53 0 -89 -27.5t-36 -70.5q0 -53 149 -104q201 -70 201 -213q0 -96 -74.5 -156.5t-201.5 -60.5q-105 -1 -226 67z M121 1024h110l84 -145l82 145h113l-160 -236h-71z" />
<glyph unicode="&#x178;" horiz-adv-x="811" d="M-12 975h149l271 -438l268 438h147l-352 -547v-428h-127v426zM164 1149q0 37 26.5 64t63.5 27q35 0 61.5 -27t26.5 -64q0 -39 -27 -64.5t-61 -25.5q-37 0 -63.5 25.5t-26.5 64.5zM467 1149q0 37 27.5 64t62.5 27t61.5 -27t26.5 -64q0 -39 -26.5 -64.5t-61.5 -25.5 t-62.5 25.5t-27.5 64.5z" />
<glyph unicode="&#x17d;" horiz-adv-x="923" d="M55 0v82l633 782h-600l23 111h755v-84l-633 -780h664l-25 -111h-817zM266 1303h110l84 -145l82 145h113l-160 -236h-71z" />
<glyph unicode="&#x17e;" horiz-adv-x="733" d="M41 0v78l463 510h-443l25 108h594v-84l-461 -503h475l-18 -109h-635zM172 1024h110l84 -145l82 145h113l-160 -236h-71z" />
<glyph unicode="&#x192;" horiz-adv-x="827" d="M-55 -90l53 90q49 -29 100 -29q133 0 185 230l69 319h-110l20 107h115l6 32q41 160 123 246t205 86q80 0 133 -51l-53 -90q-49 29 -101 29q-135 0 -184 -230l-6 -22h190l-20 -107h-193l-71 -330q-72 -332 -328 -331q-80 0 -133 51z" />
<glyph unicode="&#x1a0;" horiz-adv-x="1060" d="M53 485q0 215 133 361.5t344 146.5q147 0 263 -75q53 68 53 161h110q0 -119 -88 -227q139 -145 140 -367q0 -215 -133.5 -360t-344.5 -145t-344 145t-133 360zM180 487q0 -168 96.5 -281.5t253.5 -113.5q158 0 254.5 113.5t96.5 281.5t-96.5 282t-254.5 114t-254 -114 t-96 -282z" />
<glyph unicode="&#x1a1;" horiz-adv-x="843" d="M53 352q0 156 104.5 263.5t264.5 107.5q143 0 246 -92q41 68 41 145h110q0 -113 -86 -223q57 -90 58 -201q0 -156 -104.5 -262t-264.5 -106t-264.5 106t-104.5 262zM180 352q0 -111 67.5 -185.5t174.5 -74.5q106 0 174 75t68 185q0 111 -68 185.5t-174 74.5t-174 -74.5 t-68 -185.5z" />
<glyph unicode="&#x1af;" horiz-adv-x="987" d="M102 416v559h131v-559q0 -324 261 -324q260 0 260 324v559h131v-82q45 25 72.5 79t27.5 107h111q-6 -96 -66.5 -185t-144.5 -120v-358q0 -434 -391 -434q-392 0 -392 434z" />
<glyph unicode="&#x1b0;" horiz-adv-x="847" d="M96 315v381h129v-368q0 -231 176 -232q74 0 145.5 56.5t71.5 132.5v411h130v-125q41 23 72.5 79.5t31.5 109.5h111q0 -80 -60 -172q-66 -100 -155 -133v-269q0 -70 43 -178l-125 -24q-18 39 -31 98q-129 -100 -250 -100q-289 -1 -289 333z" />
<glyph unicode="&#x2c6;" horiz-adv-x="446" d="M29 788l159 236h72l158 -236h-111l-84 146l-82 -146h-112z" />
<glyph unicode="&#x2c7;" horiz-adv-x="630" d="M121 1024h110l84 -145l82 145h113l-160 -236h-71z" />
<glyph unicode="&#x2d8;" horiz-adv-x="700" d="M109 1006h110q10 -51 42 -91.5t89 -40.5t90 40t43 92h109q-20 -117 -81.5 -173.5t-160.5 -56.5q-98 0 -159.5 56.5t-81.5 173.5z" />
<glyph unicode="&#x2d9;" horiz-adv-x="395" d="M109 1116q0 37 27.5 63.5t62.5 26.5t61.5 -26.5t26.5 -63.5q0 -39 -27 -64.5t-61 -25.5q-35 0 -62.5 25.5t-27.5 64.5z" />
<glyph unicode="&#x2da;" horiz-adv-x="544" d="M109 950q0 68 48 116t115 48q68 0 116 -48t48 -116t-48 -116t-116 -48t-115.5 48t-47.5 116zM193 950q0 -33 23.5 -56.5t55.5 -23.5q33 0 55.5 24t22.5 56q0 33 -22.5 55.5t-55.5 22.5t-56 -22.5t-23 -55.5z" />
<glyph unicode="&#x2db;" horiz-adv-x="522" d="M109 -156q0 39 11 88.5t27 106.5h121q-43 -109 -43 -166q0 -66 58 -72q23 0 58.5 11.5t72.5 27.5v-119q-84 -35 -150 -34q-80 0 -117.5 47t-37.5 110z" />
<glyph unicode="&#x2dc;" horiz-adv-x="530" d="M57 762q0 61 30 103t85 42q18 0 42 -8t46.5 -19.5t44 -19.5t35.5 -8q39 0 39 55h88q-2 -72 -31.5 -113.5t-89.5 -41.5q-16 0 -39.5 9t-49.5 20.5t-48.5 20.5t-36.5 9q-16 0 -20.5 -15.5t-4.5 -33.5h-90z" />
<glyph unicode="&#x2dd;" horiz-adv-x="735" d="M109 655l129 351h129l-172 -351h-86zM367 655l129 351h131l-174 -351h-86z" />
<glyph unicode="&#x300;" d="M-379 987l117 37l153 -236h-98z" />
<glyph unicode="&#x301;" d="M-424 788l154 236l116 -37l-172 -199h-98z" />
<glyph unicode="&#x303;" d="M-471 788q0 61 29.5 103.5t85.5 42.5q18 0 41.5 -8t46 -19.5t44 -19.5t36.5 -8q39 0 38 55h89q-2 -72 -32 -114t-89 -42q-16 0 -40 9.5t-49.5 20.5t-48 20.5t-36.5 9.5q-16 0 -20.5 -15.5t-4.5 -34.5h-90z" />
<glyph unicode="&#x309;" d="M-381 1012q16 33 55 62.5t105 29.5q59 0 97 -31t38 -96q0 -35 -18.5 -62.5t-40 -52t-39 -48t-17.5 -50.5h-92q0 33 18.5 59.5t41 50t41 46t18.5 47.5q0 35 -15.5 46t-41.5 11q-35 0 -61.5 -22.5t-35.5 -34.5z" />
<glyph unicode="&#x323;" horiz-adv-x="409" d="M109 -197q0 41 28.5 70t67.5 29t67.5 -29t28.5 -70t-28.5 -69.5t-67.5 -28.5t-67.5 28.5t-28.5 69.5z" />
<glyph unicode="&#xe00;" />
<glyph unicode="&#xe01;" horiz-adv-x="800" d="M61 549q4 127 99 209q86 76 219 76q147 0 232 -79t85 -214v-541h-127v543q0 84 -51 133t-135 49q-123 0 -186 -104q96 -18 137 -93q-104 -61 -105 -147v-381h-127v389q0 86 84 135q-51 35 -125 25z" />
<glyph unicode="&#xe02;" horiz-adv-x="849" d="M41 616q0 94 74.5 156t173.5 62q102 0 166.5 -49.5t64.5 -143.5q0 -61 -51 -172t-51 -156v-149q0 -35 31.5 -53.5t68.5 -18.5q39 0 69.5 19.5t30.5 52.5v653h127v-624q0 -100 -62 -154.5t-165 -54.5q-102 0 -164.5 54t-62.5 155v133q0 59 54 158.5t54 156.5 q0 47 -32.5 78t-75.5 31q-66 0 -88 -27q61 -2 99 -39t38 -94q0 -61 -43 -103.5t-102 -42.5q-70 0 -112 50t-42 122zM131 586q0 -27 18.5 -45.5t45.5 -18.5t45 18.5t18 45.5t-18.5 45t-44.5 18q-27 0 -45.5 -18t-18.5 -45z" />
<glyph unicode="&#xe03;" horiz-adv-x="882" d="M41 539q0 109 58.5 197.5t150.5 97.5l67 -70l64 72q184 -41 184 -218q0 -63 -57 -161.5t-57 -155.5v-137q0 -35 31.5 -53.5t68.5 -18.5q39 0 69.5 19.5t30.5 52.5v653h127v-624q0 -100 -62.5 -154.5t-164.5 -54.5t-164.5 54t-62.5 155v92q0 66 68.5 173t68.5 169 q-10 78 -66 108l-76 -78l-90 82q-20 -12 -43.5 -43.5t-25.5 -56.5q31 6 43 6q61 0 104 -43t43 -104t-42 -104.5t-105 -43.5q-72 0 -117 59.5t-45 129.5zM139 498q0 -27 18.5 -45.5t45.5 -18.5t45 18.5t18 45.5t-18.5 45t-44.5 18q-27 0 -45.5 -18t-18.5 -45z" />
<glyph unicode="&#xe04;" horiz-adv-x="825" d="M63 520q0 141 103 230q96 84 237 84q129 0 218 -68q100 -78 100 -211v-555h-127v559q0 74 -64 123q-59 43 -137 43q-92 0 -147.5 -62.5t-55.5 -144.5q0 -23 9.5 -75t9.5 -91v-57q0 2 7 44t9 64q20 86 64 144q53 74 123 74q55 0 96 -39t41 -95q0 -53 -41 -93t-96 -40 q-51 0 -93 37q-61 -186 -61 -391h-127v131q0 96 -34 209.5t-34 179.5zM348 487q0 -27 17.5 -44t44.5 -17t45 17.5t18 43.5q0 27 -18.5 45.5t-44.5 18.5q-27 0 -44.5 -18.5t-17.5 -45.5z" />
<glyph unicode="&#xe05;" horiz-adv-x="825" d="M63 530q0 109 54.5 192t156.5 118l138 -80l145 80q164 -68 164 -248v-592h-127v559q0 125 -55 164l-127 -80l-142 80q-80 -55 -80 -186q0 -39 11.5 -110t13.5 -138v-19q0 4 5 32t9 58q14 86 56 144q51 74 127 74q55 0 95 -39t40 -95q0 -55 -40 -94t-95 -39q-51 0 -93 35 q-61 -182 -61 -346h-127v131q0 100 -34 220t-34 179zM348 442q0 -27 17.5 -44t44.5 -17t45 17.5t18 43.5q0 27 -18.5 45.5t-44.5 18.5q-27 0 -44.5 -18.5t-17.5 -45.5z" />
<glyph unicode="&#xe06;" horiz-adv-x="927" d="M49 545q0 106 59.5 195t145.5 94l68 -70l65 72q184 -45 184 -205q0 -72 -57 -173.5t-57 -156.5v-31q121 -43 239 -135v682h127v-817h-116q-121 125 -226 160v-21q0 -66 -49 -110.5t-117 -44.5t-115.5 48t-47.5 118q0 68 48 115.5t115 47.5q14 0 25 -2q0 57 63 156 q59 92 60 154q0 80 -66 116l-71 -78l-88 80q-23 -10 -45.5 -42.5t-26.5 -59.5q16 6 43 6q61 0 105 -43t44 -102q0 -61 -44 -104.5t-105 -43.5q-72 0 -116 53.5t-44 141.5zM147 498q0 -27 18.5 -45.5t45.5 -18.5t45 18.5t18 45.5t-18 45t-45 18t-45.5 -18t-18.5 -45zM248 147 q0 -27 20.5 -47t46.5 -20q29 0 48.5 20.5t19.5 46.5q0 29 -19.5 48.5t-48.5 19.5q-27 0 -47 -19.5t-20 -48.5z" />
<glyph unicode="&#xe07;" horiz-adv-x="651" d="M39 432l76 88l305 -344v352q-6 -2 -39 -2q-63 0 -107.5 42t-44.5 108t45 112t107 46q72 0 119 -46.5t47 -119.5v-668h-125zM311 680q0 -29 20.5 -49.5t49.5 -20.5t49.5 20.5t20.5 49.5t-20.5 49.5t-49.5 20.5t-49.5 -20.5t-20.5 -49.5z" />
<glyph unicode="&#xe08;" horiz-adv-x="798" d="M39 625q27 207 323 209q137 0 226 -52q106 -66 106 -196v-443q0 -76 -49 -117.5t-127 -41.5q-150 0 -174 133l-31 162q-23 -8 -51 -9q-59 0 -102 43t-43 103q0 59 43 102t102 43q53 0 94 -33.5t52 -85.5l57 -313q6 -37 51 -37q51 0 51 41v461q0 68 -63 102 q-53 29 -131 29q-176 0 -211 -100h-123zM199 416q0 -27 18.5 -45.5t44.5 -18.5q27 0 45.5 18.5t18.5 45.5t-18.5 45t-45.5 18t-45 -18t-18 -45z" />
<glyph unicode="&#xe09;" horiz-adv-x="829" d="M51 578q31 256 344 256q135 0 223 -54q106 -66 107 -196v-195q0 -78 -45 -115q80 -45 80 -135q0 -66 -45 -110.5t-111 -44.5q-59 0 -104 39.5t-49 99.5q-72 -27 -144 -123h-117v160q0 57 21 78q-20 0 -29 2q-113 25 -112 137q0 59 42 100t101 41t100 -41t41 -100 q0 -29 -18.5 -77t-18.5 -79v-86q33 33 123 83t127 89q31 41 31 96v189q0 68 -66 104q-55 29 -135 29q-86 0 -145 -33q-72 -39 -78 -114h-123zM150 377q0 -27 17 -44.5t44 -17.5t44 17.5t17 44.5t-17 44t-44 17t-44 -17t-17 -44zM543 137q0 -27 18.5 -45t44.5 -18 q27 0 45.5 18.5t18.5 44.5q0 27 -18.5 45.5t-45.5 18.5t-45 -18.5t-18 -45.5z" />
<glyph unicode="&#xe0a;" horiz-adv-x="849" d="M41 616q0 94 74.5 156t173.5 62q102 0 166.5 -49.5t64.5 -143.5q0 -61 -51 -172t-51 -156v-149q0 -35 31.5 -53.5t68.5 -18.5q39 0 69.5 19.5t30.5 52.5v338q0 76 -59 94q8 37 2 72q104 39 105 196h127q-14 -158 -109 -231q61 -49 61 -129v-311q0 -100 -62 -154.5 t-165 -54.5q-102 0 -164.5 54t-62.5 155v133q0 59 54 158.5t54 156.5q0 47 -32.5 78t-75.5 31q-66 0 -88 -27q61 -2 99 -39t38 -94q0 -61 -43 -103.5t-102 -42.5q-70 0 -112 50t-42 122zM131 586q0 -27 18.5 -45.5t45.5 -18.5t45 18.5t18 45.5t-18.5 45t-44.5 18 q-27 0 -45.5 -18t-18.5 -45z" />
<glyph unicode="&#xe0b;" horiz-adv-x="882" d="M41 539q0 109 58.5 197.5t150.5 97.5l67 -70l64 72q184 -41 184 -218q0 -63 -57 -161.5t-57 -155.5v-137q0 -35 31.5 -53.5t68.5 -18.5q39 0 69.5 19.5t30.5 52.5v338q0 76 -59 94q8 37 2 72q104 39 104 196h127q-14 -158 -108 -231q61 -49 61 -129v-311 q0 -100 -62.5 -154.5t-164.5 -54.5t-164.5 54t-62.5 155v92q0 66 68.5 173t68.5 169q-10 78 -66 108l-76 -78l-90 82q-20 -12 -43.5 -43.5t-25.5 -56.5q31 6 43 6q61 0 104 -43t43 -104t-42 -104.5t-105 -43.5q-72 0 -117 59.5t-45 129.5zM139 498q0 -27 18.5 -45.5 t45.5 -18.5t45 18.5t18 45.5t-18.5 45t-44.5 18q-27 0 -45.5 -18t-18.5 -45z" />
<glyph unicode="&#xe0c;" horiz-adv-x="1157" d="M61 549q4 127 95 209q84 76 215 76q137 0 222 -78t85 -215v-250q162 -51 248 -144v670h127v-817h-113q-47 100 -168 160q4 -29 4 -35q0 -66 -46 -103.5t-105 -37.5q-63 0 -109.5 45t-46.5 110q0 94 82 142v262q0 80 -50 130t-124 50q-125 0 -178 -102q94 -18 135 -93 q-104 -57 -105 -147v-88q66 0 111 -45t45 -111q0 -63 -45 -108t-111 -45q-63 0 -108 45t-45 108q0 53 26 88v164q0 86 84 135q-51 35 -125 25zM158 137q0 -29 20.5 -49t48.5 -20q29 0 49.5 20.5t20.5 48.5q0 29 -20.5 49.5t-49.5 20.5t-49 -20.5t-20 -49.5zM555 137 q0 -29 20.5 -49t49.5 -20t49 20.5t20 48.5q0 29 -20.5 49.5t-48.5 20.5q-29 0 -49.5 -20.5t-20.5 -49.5z" />
<glyph unicode="&#xe0d;" horiz-adv-x="1157" d="M61 549q4 127 95 209q84 76 215 76q137 0 222 -78t85 -215v-367q0 -43 37 -62.5t86 -19.5q47 0 86 19.5t39 62.5v643h127v-624q0 -102 -80 -160q-70 -49 -174 -49q-106 0 -172 49q-76 55 -76 160v350q0 80 -50 130t-124 50q-125 0 -178 -102q88 -16 135 -93 q-104 -57 -105 -147v-96q14 8 39 8q63 0 107.5 -44t44.5 -110t-45 -110.5t-111 -44.5q-68 0 -115 47t-47 119v239q0 86 84 135q-51 35 -125 25zM199 137q0 -29 20.5 -49t48.5 -20q29 0 49.5 20.5t20.5 48.5q0 29 -20.5 49.5t-49.5 20.5t-49 -20.5t-20 -49.5zM512 -217 q0 61 42 103t103 42q59 0 99.5 -43t40.5 -104q0 -80 -64 -103q29 -4 39 -4q172 0 182 244h111q0 -152 -68 -242q-76 -100 -231 -100q-100 0 -172 51q-82 60 -82 156zM592 -215q0 -27 17.5 -46.5t45.5 -19.5q29 0 47.5 19.5t18.5 46.5t-18.5 45t-47.5 18t-46 -18t-17 -45z " />
<glyph unicode="&#xe0e;" horiz-adv-x="870" d="M16 139q0 63 45 108.5t107 45.5q25 0 31 -6l-13 127q0 72 70 110q-55 35 -125 25q2 127 94 209q88 76 221 76q143 0 231.5 -80t88.5 -213v-1012h-129q-27 109 -188 172q-14 -180 -160 -180q-68 0 -116 43t-48 108q0 145 192 146q29 0 48 -2q10 39 22 57q20 33 64 59 l84 -45q-63 -35 -76 -92q117 -41 180 -102v850q0 82 -54.5 132t-135.5 50q-125 0 -183 -104q100 -20 137 -93q-55 -31 -73 -51q-27 -33 -27 -88q0 -45 10.5 -130t10.5 -120q0 -66 -44 -110.5t-108 -44.5q-66 0 -111 44.5t-45 110.5zM102 139q0 -29 20.5 -49t49.5 -20 t49.5 20.5t20.5 48.5q0 29 -20.5 49.5t-49.5 20.5t-49.5 -20.5t-20.5 -49.5zM219 -319q-2 -66 66 -66q39 4 55 30.5t14 78.5q-18 6 -49 6q-84 0 -86 -49z" />
<glyph unicode="&#xe0f;" horiz-adv-x="870" d="M16 139q0 63 45 108.5t107 45.5q25 0 31 -6l-13 127q0 72 70 110q-55 35 -125 25q2 127 94 209q88 76 221 76q143 0 231.5 -80t88.5 -213v-1014h-115l-106 139l-101 -139l-94 129q-8 -57 -53 -97t-98 -40q-68 0 -113 44t-45 109q0 152 174 152q39 0 55 -6q25 76 107 119 l72 -87q-76 -20 -84 -83l79 -99l99 125l96 -110v860q0 82 -54.5 132t-135.5 50q-125 0 -183 -104q100 -20 137 -93q-55 -31 -73 -51q-27 -33 -27 -88q0 -45 10.5 -130t10.5 -120q0 -66 -44 -110.5t-108 -44.5q-66 0 -111 44.5t-45 110.5zM102 139q0 -29 20.5 -49t49.5 -20 t49.5 20.5t20.5 48.5q0 29 -20.5 49.5t-49.5 20.5t-49.5 -20.5t-20.5 -49.5zM135 -326q0 -51 53 -51q70 0 70 96q-20 10 -57 11q-66 -1 -66 -56z" />
<glyph unicode="&#xe10;" horiz-adv-x="761" d="M-29 -322q0 63 43 103.5t115 40.5q41 0 57 -10q6 68 74 104l64 -37q-61 -29 -62 -115l100 -135h107q66 0 66 35v27h-25q-55 0 -93 33.5t-38 82.5q0 47 38 82t93 35q53 0 93 -34.5t40 -82.5v-141q0 -137 -137 -137h-168l-90 123q-4 -49 -43 -84t-88 -35q-68 0 -107 41 t-39 104zM51 -324q0 -51 53 -51q72 0 72 94q-27 10 -47 11q-78 -1 -78 -54zM70 580q12 131 96 198q70 55 172 56q39 0 115.5 -20.5t119.5 -20.5q31 0 39 49l105 -27q-37 -141 -150 -141q-39 0 -113.5 25.5t-115.5 25.5q-31 0 -71 -16.5t-52 -38.5q236 -39 348 -90 q80 -37 80 -109v-301q0 -186 -194 -186q-188 0 -189 176v67q-16 -4 -29 -4q-59 0 -98 40t-39 97q0 59 44 98.5t100 39.5q61 0 105 -38t44 -98v-198q0 -74 64 -74q66 0 65 74v295q0 43 -192 86q-166 35 -254 35zM172 360q0 -25 17.5 -42t41.5 -17q25 0 42.5 17.5t17.5 41.5 q0 25 -17.5 42.5t-42.5 17.5t-42 -17.5t-17 -42.5zM461 -193q0 -18 12 -31.5t33 -13.5q20 0 33.5 13.5t13.5 31.5t-13.5 30.5t-33.5 12.5t-32.5 -12.5t-12.5 -30.5z" />
<glyph unicode="&#xe11;" horiz-adv-x="1007" d="M41 547q0 106 57.5 192t147.5 95l67 -70l66 72q152 -33 151 -197q0 -66 -46 -189.5t-46 -203.5q-16 -98 -16 -117l203 582q43 123 135 123q143 0 143 -172v-662h-127v657q0 55 -33 56q-29 0 -38 -29l-240 -684h-143v219q0 82 54 216t54 206q0 70 -41 96l-76 -80l-86 82 q-20 -10 -43.5 -42.5t-27.5 -57.5q14 6 45 6q61 0 104 -44t43 -103q0 -61 -43 -104.5t-104 -43.5q-68 0 -114 57.5t-46 139.5zM139 498q0 -27 18.5 -45.5t45.5 -18.5t45 18.5t18 45.5t-18.5 45t-44.5 18q-27 0 -45.5 -18t-18.5 -45z" />
<glyph unicode="&#xe12;" horiz-adv-x="1128" d="M63 520q0 115 56.5 201t163.5 115l108 -93l101 93q213 -31 213 -295v-273q41 -12 105 -49t87 -63v661h127v-817h-119q-51 88 -129 133q0 -63 -42 -106t-113 -43q-66 0 -109 46t-43 113q0 47 31.5 88t77.5 54v252q0 139 -62 186l-125 -90l-115 90q-88 -45 -88 -201 q0 -31 30 -134t30 -155q0 -31 -10 -57q45 102 135 158q-55 4 -87 43t-32 88q0 55 39 93t94 38q53 0 93 -39t40 -92q0 -100 -122 -236.5t-122 -228.5h-133q2 57 2 131q0 119 -24 180q-58 143 -58 209zM324 465q0 -27 18 -45.5t45 -18.5t45.5 18.5t18.5 45.5t-18.5 45 t-45.5 18t-45 -18t-18 -45zM557 137q0 -29 17.5 -46t46.5 -17t47 17.5t18 45.5q0 29 -18.5 47.5t-46.5 18.5q-29 0 -46.5 -18.5t-17.5 -47.5z" />
<glyph unicode="&#xe13;" horiz-adv-x="1179" d="M61 549q4 127 95 209q84 76 215 76q137 0 222 -77t85 -214v-414q31 37 110 100q111 86 132 105q29 37 28 96v387h127v-430q0 -80 -43 -113q80 -45 80 -135q0 -63 -41 -109t-108 -46q-59 0 -104.5 37.5t-55.5 95.5q-55 -37 -123 -117h-129v543q0 80 -50 130t-124 50 q-125 0 -178 -102q80 -6 135 -93q-104 -57 -105 -147v-96q14 8 39 8q63 0 107.5 -44t44.5 -110t-45 -110.5t-111 -44.5q-68 0 -115 47t-47 119v239q0 86 84 135q-51 35 -125 25zM199 137q0 -29 20.5 -49t48.5 -20q29 0 49.5 20.5t20.5 48.5q0 29 -20.5 49.5t-49.5 20.5 t-49 -20.5t-20 -49.5zM889 141q0 -29 20.5 -49t48.5 -20q29 0 49.5 20.5t20.5 48.5q0 29 -20.5 49.5t-49.5 20.5t-49 -20.5t-20 -49.5z" />
<glyph unicode="&#xe14;" horiz-adv-x="829" d="M63 518q0 139 97.5 227.5t236.5 88.5q141 0 232 -74q96 -80 96 -219v-541h-127v549q0 78 -58.5 127t-138.5 49q-86 0 -149.5 -58.5t-63.5 -140.5q0 -51 34 -145t34 -141q0 -14 -4 -39q59 96 133 161q-57 4 -90 46q-31 35 -31 86q0 53 40 93t95 40t94 -40t39 -93 q0 -92 -90 -205q-125 -154 -141 -185q-31 -53 -31 -104h-129q2 76 2 139q0 111 -24 170q-18 53 -37 109.5t-19 99.5zM338 494q0 -27 17.5 -44.5t43.5 -17.5q27 0 44.5 17.5t17.5 44.5t-17.5 44t-44.5 17t-44 -17t-17 -44z" />
<glyph unicode="&#xe15;" horiz-adv-x="829" d="M63 530q0 113 56.5 195t161.5 111l116 -88l109 88q219 -33 219 -295v-541h-127v537q0 131 -72 188l-127 -92l-125 92q-86 -43 -86 -195q0 -49 30 -145t30 -143q0 -33 -12 -68q12 29 59 80t90 78q-55 4 -87 43t-32 86q0 55 38 94t93 39t94 -39t39 -94q0 -88 -92 -187 q-123 -131 -143 -170q-31 -59 -31 -104h-129q4 78 4 158q0 82 -24 151q-52 147 -52 221zM336 463q0 -27 17.5 -44.5t43.5 -17.5q27 0 44.5 17.5t17.5 44.5t-17.5 44t-44.5 17t-44 -17t-17 -44z" />
<glyph unicode="&#xe16;" horiz-adv-x="800" d="M61 549q4 127 99 209q86 76 219 76q147 0 232 -79t85 -214v-541h-127v543q0 84 -51 133t-135 49q-123 0 -186 -104q96 -18 137 -93q-104 -61 -105 -147v-96q14 8 39 8q63 0 107.5 -44t44.5 -110t-45 -110.5t-111 -44.5q-68 0 -115 47t-47 119v239q0 86 84 135 q-51 35 -125 25zM199 137q0 -29 20.5 -49t48.5 -20q29 0 49.5 20.5t20.5 48.5q0 29 -20.5 49.5t-49.5 20.5t-49 -20.5t-20 -49.5z" />
<glyph unicode="&#xe17;" horiz-adv-x="897" d="M20 680q0 63 45.5 108.5t110.5 45.5q70 0 116 -47.5t46 -118.5v-306q0 -70 -25 -217q23 90 58 201l114 365q39 125 154 123q154 -2 154 -175v-659h-127v662q0 63 -31 63q-27 0 -37 -31l-244 -694h-143v526q-20 -4 -35 -4q-66 0 -111 46t-45 112zM106 678 q0 -29 20.5 -49.5t49.5 -20.5t49.5 20.5t20.5 49.5t-20.5 49.5t-49.5 20.5t-49.5 -20.5t-20.5 -49.5z" />
<glyph unicode="&#xe18;" horiz-adv-x="733" d="M51 578q12 131 64 190q59 66 186 66q45 0 127 -19.5t115 -19.5q35 0 39 45l100 -27q-23 -68 -53.5 -97.5t-93.5 -29.5q-37 0 -113 20.5t-117 20.5q-111 0 -119 -68q201 -43 314.5 -81.5t113.5 -133.5v-270q0 -190 -256 -190q-254 0 -254 190v268h127v-276q0 -74 129 -74 q127 0 127 74v270q0 47 -159.5 83t-276.5 59z" />
<glyph unicode="&#xe19;" horiz-adv-x="886" d="M20 680q0 63 45.5 108.5t110.5 45.5q70 0 116 -47.5t46 -118.5v-521q33 25 147 72q102 43 142 86q29 31 28 98v414h127v-430q0 -82 -43 -113q80 -45 80 -137q0 -66 -45 -109.5t-108 -43.5q-59 0 -102.5 37.5t-51.5 95.5q-66 -33 -94 -49q-49 -31 -78 -68h-129v526 q-20 -4 -35 -4q-66 0 -111 46t-45 112zM106 678q0 -29 20.5 -49.5t49.5 -20.5t49.5 20.5t20.5 49.5t-20.5 49.5t-49.5 20.5t-49.5 -20.5t-20.5 -49.5zM594 137q0 -29 20.5 -49t49.5 -20t49 20.5t20 48.5q0 29 -20.5 49.5t-48.5 20.5q-29 0 -49.5 -20.5t-20.5 -49.5z" />
<glyph unicode="&#xe1a;" horiz-adv-x="911" d="M20 680q0 63 45.5 108.5t110.5 45.5q70 0 116 -47.5t46 -118.5v-486q0 -41 55.5 -65.5t116.5 -24.5q59 0 114.5 24.5t55.5 65.5v635h127v-633q0 -201 -297 -200q-299 0 -299 200v342q-20 -4 -35 -4q-66 0 -111 46t-45 112zM106 678q0 -29 20.5 -49.5t49.5 -20.5 t49.5 20.5t20.5 49.5t-20.5 49.5t-49.5 20.5t-49.5 -20.5t-20.5 -49.5z" />
<glyph unicode="&#xe1b;" horiz-adv-x="911" d="M20 680q0 63 45.5 108.5t110.5 45.5q70 0 116 -47.5t46 -118.5v-486q0 -41 55.5 -65.5t116.5 -24.5q59 0 114.5 24.5t55.5 65.5v963h127v-961q0 -201 -297 -200q-299 0 -299 200v342q-20 -4 -35 -4q-66 0 -111 46t-45 112zM106 678q0 -29 20.5 -49.5t49.5 -20.5 t49.5 20.5t20.5 49.5t-20.5 49.5t-49.5 20.5t-49.5 -20.5t-20.5 -49.5z" />
<glyph unicode="&#xe1c;" horiz-adv-x="847" d="M82 0v668q0 72 48 119t116 47q66 0 110.5 -46.5t44.5 -109.5q0 -66 -45 -111t-110 -45q-29 0 -37 2v-350l162 252h82l163 -254v645h127v-817h-127l-204 328l-205 -328h-125zM176 678q0 -29 20.5 -49.5t49.5 -20.5t49 20.5t20 49.5t-20.5 49.5t-48.5 20.5 q-29 0 -49.5 -20.5t-20.5 -49.5z" />
<glyph unicode="&#xe1d;" horiz-adv-x="847" d="M82 0v668q0 72 48 119t116 47q66 0 110.5 -46.5t44.5 -109.5q0 -66 -45 -111t-110 -45q-29 0 -37 2v-350l162 252h82l163 -254v973h127v-1145h-127l-204 328l-205 -328h-125zM176 678q0 -29 20.5 -49.5t49.5 -20.5t49 20.5t20 49.5t-20.5 49.5t-48.5 20.5 q-29 0 -49.5 -20.5t-20.5 -49.5z" />
<glyph unicode="&#xe1e;" horiz-adv-x="987" d="M20 680q0 63 45.5 108.5t110.5 45.5q70 0 116 -47.5t46 -118.5v-306q0 -53 -25 -217q45 186 52 201l143 436h78l143 -436q4 -12 51 -201q-25 164 -24 217v455h127v-817h-144l-192 635l-199 -635h-137v526q-20 -4 -35 -4q-66 0 -111 46t-45 112zM106 678q0 -29 20.5 -49.5 t49.5 -20.5t49.5 20.5t20.5 49.5t-20.5 49.5t-49.5 20.5t-49.5 -20.5t-20.5 -49.5z" />
<glyph unicode="&#xe1f;" horiz-adv-x="987" d="M20 680q0 63 45.5 108.5t110.5 45.5q70 0 116 -47.5t46 -118.5v-306q0 -53 -25 -217q45 186 52 201l143 436h78l143 -436q4 -12 51 -201q-25 164 -24 217v783h127v-1145h-144l-192 635l-199 -635h-137v526q-20 -4 -35 -4q-66 0 -111 46t-45 112zM106 678 q0 -29 20.5 -49.5t49.5 -20.5t49.5 20.5t20.5 49.5t-20.5 49.5t-49.5 20.5t-49.5 -20.5t-20.5 -49.5z" />
<glyph unicode="&#xe20;" horiz-adv-x="870" d="M16 139q0 63 45 108.5t107 45.5q25 0 31 -6l-13 127q0 72 70 110q-55 35 -125 25q2 127 94 209q88 76 221 76q143 0 231.5 -80t88.5 -213v-541h-127v543q0 82 -54.5 132t-135.5 50q-125 0 -183 -104q100 -20 137 -93q-55 -31 -73 -51q-27 -33 -27 -88q0 -45 10.5 -130 t10.5 -120q0 -66 -44 -110.5t-108 -44.5q-66 0 -111 44.5t-45 110.5zM102 139q0 -29 20.5 -49t49.5 -20t49.5 20.5t20.5 48.5q0 29 -20.5 49.5t-49.5 20.5t-49.5 -20.5t-20.5 -49.5z" />
<glyph unicode="&#xe21;" horiz-adv-x="854" d="M43 680q0 63 45 108.5t111 45.5q70 0 115.5 -47.5t45.5 -118.5v-389q162 -55 263 -146v684h127v-817h-127q-119 106 -240 150v-11q0 -66 -50 -110.5t-114 -44.5q-68 0 -117 49t-49 117t49.5 115.5t116.5 47.5h14v213q-20 -4 -34 -4q-66 0 -111 46t-45 112zM129 678 q0 -29 20.5 -49.5t49.5 -20.5t49 20.5t20 49.5t-20.5 49.5t-48.5 20.5q-29 0 -49.5 -20.5t-20.5 -49.5zM150 150q0 -29 20 -49.5t49 -20.5t49.5 20.5t20.5 49.5t-20.5 49t-49.5 20t-49 -20t-20 -49z" />
<glyph unicode="&#xe22;" horiz-adv-x="790" d="M72 627q0 90 50 148.5t138 58.5q61 0 104.5 -38t43.5 -100q0 -55 -39 -96t-103 -41q-33 0 -57 10q16 -78 74 -77h145v-101h-145q-33 0 -53.5 -28.5t-20.5 -65.5v-94q0 -111 174 -111q176 0 176 111v614h127v-610q0 -223 -303 -223q-301 0 -301 223v94q0 98 84 139 q-94 64 -94 187zM201 694q0 -29 18.5 -47t46.5 -18q29 0 47.5 18.5t18.5 46.5q0 29 -18.5 47.5t-47.5 18.5t-47 -18.5t-18 -47.5z" />
<glyph unicode="&#xe23;" horiz-adv-x="673" d="M45 584q4 113 59.5 181.5t159.5 68.5q43 0 118 -19.5t107 -19.5q35 0 39 45l101 -27q-37 -125 -135 -125q-37 0 -106 18.5t-103 18.5q-90 0 -103 -70q158 -33 265.5 -69.5t107.5 -126.5v-322q0 -66 -46 -109.5t-112 -43.5t-111.5 45t-45.5 110q0 66 46 111t111 45 q25 0 31 -2v176q0 33 -136 65t-247 50zM328 139q0 -29 20.5 -49t48.5 -20q29 0 49.5 20.5t20.5 48.5q0 29 -20.5 49.5t-49.5 20.5t-49 -20.5t-20 -49.5z" />
<glyph unicode="&#xe24;" horiz-adv-x="800" d="M61 549q4 127 99 209q86 76 219 76q147 0 232 -79t85 -214v-828h-127v830q0 84 -51 133t-135 49q-123 0 -186 -104q96 -18 137 -93q-104 -61 -105 -147v-96q14 8 39 8q63 0 107.5 -44t44.5 -110t-45 -110.5t-111 -44.5q-68 0 -115 47t-47 119v239q0 86 84 135 q-51 35 -125 25zM199 137q0 -29 20.5 -49t48.5 -20q29 0 49.5 20.5t20.5 48.5q0 29 -20.5 49.5t-49.5 20.5t-49 -20.5t-20 -49.5z" />
<glyph unicode="&#xe25;" horiz-adv-x="817" d="M47 578q12 125 109 192q90 63 231 64q127 0 219 -60q106 -68 107 -188v-586h-127v354q0 61 -70 95q-53 25 -119 24q-63 0 -108 -31q-55 -37 -56 -98v-51q16 4 37 4q66 0 113 -46t47 -110q0 -66 -49 -110.5t-113 -44.5q-68 0 -115 44t-47 111v189q0 121 91 188 q80 59 198 60q127 0 191 -70v92q0 63 -74 98q-57 27 -129 27q-80 0 -137 -37q-63 -41 -76 -110h-123zM201 141q0 -29 20.5 -49t48.5 -20q29 0 49.5 20.5t20.5 48.5q0 29 -20.5 49.5t-49.5 20.5t-49 -20.5t-20 -49.5z" />
<glyph unicode="&#xe26;" horiz-adv-x="870" d="M16 139q0 63 45 108.5t107 45.5q25 0 31 -6l-13 127q0 72 70 110q-55 35 -125 25q2 127 94 209q88 76 221 76q143 0 231.5 -80t88.5 -213v-828h-127v830q0 82 -54.5 132t-135.5 50q-125 0 -183 -104q100 -20 137 -93q-55 -31 -73 -51q-27 -33 -27 -88q0 -45 10.5 -130 t10.5 -120q0 -66 -44 -110.5t-108 -44.5q-66 0 -111 44.5t-45 110.5zM102 139q0 -29 20.5 -49t49.5 -20t49.5 20.5t20.5 48.5q0 29 -20.5 49.5t-49.5 20.5t-49.5 -20.5t-20.5 -49.5z" />
<glyph unicode="&#xe27;" horiz-adv-x="776" d="M47 549q6 135 89 210t220 75q135 0 217 -54q98 -63 99 -194v-436q0 -72 -47 -118t-117 -46q-66 0 -111 45t-45 108q0 66 45 111t111 45q23 0 37 -2v301q0 131 -189 131q-78 0 -132 -48t-54 -128h-123zM438 141q0 -29 20.5 -49t49.5 -20t49.5 20.5t20.5 48.5 q0 29 -20.5 49.5t-49.5 20.5t-49.5 -20.5t-20.5 -49.5z" />
<glyph unicode="&#xe28;" horiz-adv-x="825" d="M63 520q0 141 103 230q96 84 237 84q80 0 156 -33q47 35 47 98h144q-25 -113 -95 -166q66 -76 66 -178v-555h-127v559q0 74 -64 123q-59 43 -137 43q-92 0 -147.5 -62.5t-55.5 -144.5q0 -23 9.5 -75t9.5 -91v-53q0 8 5 41t11 63q20 86 62 146q55 72 125 72q55 0 96 -39 t41 -95q0 -53 -41 -93t-96 -40q-51 0 -93 37q-61 -186 -61 -391h-127v131q0 96 -34 209.5t-34 179.5zM348 487q0 -27 17.5 -44t44.5 -17t45 17.5t18 43.5q0 27 -18.5 45.5t-44.5 18.5q-27 0 -44.5 -18.5t-17.5 -45.5z" />
<glyph unicode="&#xe29;" horiz-adv-x="944" d="M20 680q0 63 45.5 108.5t110.5 45.5q70 0 116 -47.5t46 -118.5v-478q0 -41 48 -69.5t138 -28.5q92 0 140.5 29t48.5 69v123q-47 -10 -86 -10q-250 0 -250 170q0 57 38 97t101 40q59 0 96 -37.5t37 -91.5q0 -66 -43 -96q55 4 107 21v411h127v-340q33 31 51 76l67 -68 q-39 -66 -118 -118v-183q0 -201 -314 -200q-315 0 -315 200v342q-20 -4 -35 -4q-66 0 -111 46t-45 112zM106 678q0 -29 20.5 -49.5t49.5 -20.5t49.5 20.5t20.5 49.5t-20.5 49.5t-49.5 20.5t-49.5 -20.5t-20.5 -49.5zM451 479q0 -27 17 -45t44 -18t44 18.5t17 44.5 q0 27 -17 45.5t-44 18.5t-44 -18.5t-17 -45.5z" />
<glyph unicode="&#xe2a;" horiz-adv-x="817" d="M47 578q12 125 109 192q90 63 231 64q92 0 166 -33q43 39 43 98h143q-25 -104 -88 -162q61 -66 62 -151v-586h-127v354q0 61 -70 95q-53 25 -119 24q-63 0 -108 -31q-55 -37 -56 -98v-51q29 4 37 4q66 0 113 -46t47 -110q0 -66 -49 -110.5t-113 -44.5q-68 0 -115 44 t-47 111v189q0 121 91 188q80 59 198 60q127 0 191 -70v92q0 63 -74 98q-57 27 -129 27q-80 0 -137 -37q-63 -41 -76 -110h-123zM201 141q0 -29 20.5 -49t48.5 -20q29 0 49.5 20.5t20.5 48.5q0 29 -20.5 49.5t-49.5 20.5t-49 -20.5t-20 -49.5z" />
<glyph unicode="&#xe2b;" horiz-adv-x="897" d="M20 680q0 63 45.5 108.5t110.5 45.5q70 0 116 -47.5t46 -118.5v-306q0 -53 -25 -217q20 88 62 162l112 195q37 61 66 69q-41 51 -41 107q0 66 45 111t111 45t110.5 -45.5t44.5 -110.5q0 -68 -57 -119q27 -51 27 -110v-449h-127v455q0 55 -23 55q-16 0 -47 -51l-266 -459 h-119v526q-20 -4 -35 -4q-66 0 -111 46t-45 112zM106 678q0 -29 20.5 -49.5t49.5 -20.5t49.5 20.5t20.5 49.5t-20.5 49.5t-49.5 20.5t-49.5 -20.5t-20.5 -49.5zM598 678q0 -29 20.5 -49.5t49.5 -20.5t49 20.5t20 49.5t-20.5 49.5t-48.5 20.5q-29 0 -49.5 -20.5t-20.5 -49.5z " />
<glyph unicode="&#xe2c;" horiz-adv-x="958" d="M20 680q0 63 45.5 108.5t110.5 45.5q70 0 116 -47.5t46 -118.5v-328q0 -63 -25 -201q18 49 45 99l129 215h91l129 -215q27 -49 45 -99q-25 137 -25 201v186q-20 -4 -35 -4q-66 0 -110.5 46t-44.5 112q0 63 45 108.5t110 45.5q47 0 82 -23q39 33 49 88h111 q-14 -104 -96 -158q16 -33 16 -73v-668h-129l-193 365l-190 -365h-131v526q-20 -4 -35 -4q-66 0 -111 46t-45 112zM106 678q0 -29 20.5 -49.5t49.5 -20.5t49.5 20.5t20.5 49.5t-20.5 49.5t-49.5 20.5t-49.5 -20.5t-20.5 -49.5zM623 678q0 -29 20.5 -49.5t48.5 -20.5 q29 0 49.5 20.5t20.5 49.5t-20.5 49.5t-49.5 20.5t-49 -20.5t-20 -49.5z" />
<glyph unicode="&#xe2d;" horiz-adv-x="806" d="M47 625q27 207 324 209q137 0 225 -52q106 -66 106 -196v-402q0 -106 -96 -157q-78 -43 -200 -43q-123 0 -199 43q-92 51 -92 157v207q0 74 41 124t116 50q66 0 111 -44t45 -109q0 -63 -45 -108.5t-111 -45.5q-18 0 -30 4v-63q0 -106 166 -107q168 0 167 109v393 q0 68 -63 102q-53 29 -131 29q-195 0 -211 -100h-123zM203 412q0 -29 20.5 -49.5t48.5 -20.5q29 0 49.5 20.5t20.5 49.5t-20.5 49t-49.5 20t-49 -20t-20 -49z" />
<glyph unicode="&#xe2e;" horiz-adv-x="788" d="M68 684q0 152 301 152q147 0 241 -80q16 31 27 80h123q-25 -123 -84 -187q8 -27 8 -69v-396q0 -106 -96 -157q-78 -43 -201 -43t-199 43q-92 51 -92 157v168q0 74 41 124t117 50q66 0 111 -44t45 -109q0 -63 -45.5 -108.5t-110.5 -45.5q-18 0 -31 4v-24q0 -106 166 -107 q168 0 168 109v405q-94 -31 -229 -31q-260 0 -260 109zM184 373q0 -29 20.5 -49.5t49.5 -20.5t49.5 20.5t20.5 49.5t-20.5 49t-49.5 20t-49.5 -20t-20.5 -49zM186 692q0 -33 152 -33q123 0 192 29q-61 55 -180 55q-164 0 -164 -51z" />
<glyph unicode="&#xe2f;" horiz-adv-x="778" d="M49 676q0 66 45 112t111 46t111.5 -46.5t45.5 -111.5q0 -10 -4 -31q68 51 82 172h92q139 0 140 -147v-670h-127v645q0 74 -23 78q-8 -96 -93 -154.5t-185 -58.5q-80 0 -133 41q-62 45 -62 125zM135 676q0 -29 20.5 -49.5t49.5 -20.5t49 20.5t20 49.5t-20.5 49t-48.5 20 q-29 0 -49.5 -20t-20.5 -49z" />
<glyph unicode="&#xe30;" horiz-adv-x="696" d="M59 201q0 59 41 100t101 41q63 0 103 -42t40 -99q0 -55 -31 -82q190 8 191 229h114q-10 -326 -305 -325q-123 0 -188.5 50t-65.5 128zM59 666q0 59 41 100t101 41q63 0 103 -42t40 -99q0 -55 -31 -82q190 8 191 229h114q-10 -326 -305 -326q-123 0 -188.5 50.5 t-65.5 128.5zM137 201q0 -27 17.5 -44.5t44.5 -17.5t45 17.5t18 44.5t-18.5 45t-44.5 18q-27 0 -44.5 -18t-17.5 -45zM137 666q0 -27 17.5 -44.5t44.5 -17.5t45 17.5t18 44.5t-18.5 45t-44.5 18q-27 0 -44.5 -18t-17.5 -45z" />
<glyph unicode="&#xe31;" d="M-520 1155q0 59 41 100t100 41q63 0 103 -42t40 -99q0 -55 -30 -82q213 8 248 244h120q-53 -340 -368 -340q-123 0 -188.5 50t-65.5 128zM-442 1155q0 -27 17 -44t44 -17t45.5 17t18.5 44t-18.5 45.5t-45.5 18.5t-44 -18.5t-17 -45.5z" />
<glyph unicode="&#xe32;" horiz-adv-x="688" d="M33 565q6 123 80.5 196t197.5 73q115 0 194 -58.5t79 -177.5v-598h-127v596q0 57 -39 93t-107 36t-110.5 -45t-44.5 -115h-123z" />
<glyph unicode="&#xe33;" horiz-adv-x="688" d="M-369 1124q0 72 51.5 123t122.5 51q72 0 122 -50t50 -124q0 -72 -50 -122t-122 -50q-74 0 -124 50t-50 122zM-279 1124q0 -35 25 -58.5t59 -23.5q35 0 58.5 24t23.5 58q0 35 -23.5 59.5t-58.5 24.5t-59.5 -24.5t-24.5 -59.5zM33 565q6 123 80.5 196t197.5 73 q115 0 194 -58.5t79 -177.5v-598h-127v596q0 57 -39 93t-107 36t-110.5 -45t-44.5 -115h-123z" />
<glyph unicode="&#xe34;" d="M-760 991q25 274 299 275q158 0 250 -95.5t111 -248.5q-254 82 -465 82q-97 -1 -195 -13zM-639 1075q35 8 109 8q152 0 299 -41q-12 51 -74 96.5t-139 45.5q-74 0 -127.5 -30t-67.5 -79z" />
<glyph unicode="&#xe35;" d="M-760 991q25 274 299 275q145 0 234 -80v141h123v-377l4 -28q-254 82 -465 82q-97 -1 -195 -13zM-639 1075q35 8 109 8q152 0 299 -41q-12 51 -74 96.5t-139 45.5q-74 0 -127.5 -30t-67.5 -79z" />
<glyph unicode="&#xe36;" d="M-760 991q25 274 299 275q80 0 144 -25q6 45 38.5 76t79.5 31q51 0 86 -36t35 -87q0 -41 -23.5 -74t-60.5 -43q49 -80 62 -186q-254 82 -465 82q-97 -1 -195 -13zM-639 1075q35 8 109 8q152 0 299 -41q-12 51 -74 96.5t-139 45.5q-74 0 -127.5 -30t-67.5 -79zM-258 1225 q0 -25 18.5 -41.5t40.5 -16.5q23 0 40.5 16.5t17.5 41.5t-17.5 42t-40.5 17t-41 -17t-18 -42z" />
<glyph unicode="&#xe37;" d="M-760 991q25 274 299 275q31 0 58 -4v65h92v-86q45 -18 84 -55v141h123v-377l4 -28q-254 82 -465 82q-97 -1 -195 -13zM-639 1075q35 8 109 8q152 0 299 -41q-12 51 -74 96.5t-139 45.5q-74 0 -127.5 -30t-67.5 -79z" />
<glyph unicode="&#xe38;" d="M-358 -205q0 51 35.5 88t89.5 37q51 0 90 -32.5t39 -90.5v-278h-123v155h-9q-51 0 -86.5 36t-35.5 85zM-289 -199q0 -23 17.5 -40t40.5 -17t39 17.5t16 39.5q0 23 -16.5 39.5t-38.5 16.5q-23 0 -40.5 -16.5t-17.5 -39.5z" />
<glyph unicode="&#xe39;" d="M-604 -205q0 51 36 88t89 37q51 0 90 -32.5t39 -90.5v-184q0 -31 61 -31q66 0 66 31v289h119v-275q0 -68 -58 -102q-49 -31 -129 -31q-70 0 -121 29q-57 33 -57 90v61h-12q-51 0 -87 36t-36 85zM-535 -199q0 -23 17.5 -40t40.5 -17t39 17.5t16 39.5q0 23 -16.5 39.5 t-38.5 16.5q-23 0 -40.5 -16.5t-17.5 -39.5z" />
<glyph unicode="&#xe3a;" d="M-219 -156q0 29 21.5 50.5t50.5 21.5t50 -21.5t21 -50.5t-21.5 -50t-49.5 -21q-29 0 -50.5 21t-21.5 50z" />
<glyph unicode="&#xe3f;" horiz-adv-x="796" d="M131 63v842q119 27 191 29v135h112v-141q219 -35 219 -228q0 -113 -96 -184q129 -76 129 -207q0 -219 -252 -258v-166h-112v158q-72 0 -191 20zM252 158q35 -6 78 -6q96 0 162 34q78 41 77 121q0 150 -225 150h-92v-299zM252 569h113q78 0 122.5 37t44.5 92 q0 127 -200 127q-12 0 -80 -10v-246z" />
<glyph unicode="&#xe40;" horiz-adv-x="425" d="M98 150v667h127v-526q10 4 37 4q63 0 109.5 -45t46.5 -111t-46 -110.5t-110 -44.5q-70 0 -117 47t-47 119zM193 139q0 -29 20 -49t49 -20t49.5 20.5t20.5 48.5q0 29 -20.5 49.5t-49.5 20.5t-49 -20.5t-20 -49.5z" />
<glyph unicode="&#xe41;" horiz-adv-x="808" d="M98 150v667h127v-526q10 4 37 4q63 0 109.5 -45t46.5 -111t-46 -110.5t-110 -44.5q-70 0 -117 47t-47 119zM193 139q0 -29 20 -49t49 -20t49.5 20.5t20.5 48.5q0 29 -20.5 49.5t-49.5 20.5t-49 -20.5t-20 -49.5zM481 150v667h127v-526q10 4 37 4q63 0 109.5 -45 t46.5 -111t-46 -110.5t-110 -44.5q-70 0 -117 47t-47 119zM575 139q0 -29 20.5 -49t49.5 -20t49.5 20.5t20.5 48.5q0 29 -20.5 49.5t-49.5 20.5t-49.5 -20.5t-20.5 -49.5z" />
<glyph unicode="&#xe42;" horiz-adv-x="516" d="M-68 1110q10 233 209 233q53 0 120 -33.5t93 -33.5q23 0 45 61l95 -24q-39 -139 -123 -139q-39 0 -111 33.5t-119 33.5q-72 0 -94 -51q268 -70 268 -238v-661q10 4 37 4q63 0 109.5 -45t46.5 -111t-46 -110.5t-110 -44.5q-70 0 -117 47t-47 119v813q-10 70 -102 112 q-76 35 -154 35zM283 139q0 -29 20.5 -49t48.5 -20q29 0 49.5 20.5t20.5 48.5q0 29 -20.5 49.5t-49.5 20.5t-49 -20.5t-20 -49.5z" />
<glyph unicode="&#xe43;" horiz-adv-x="550" d="M-70 1122q0 111 74 172q68 55 178 56q90 0 158 -47q76 -53 76 -138q0 -47 -33 -132t-33 -128v-614q10 4 37 4q63 0 109.5 -45t46.5 -111t-46 -110.5t-110 -44.5q-70 0 -117 47t-47 119v772q0 47 36 123.5t36 115.5q0 45 -32 72t-77 27q-70 0 -102 -25q51 0 86 -39 q29 -35 29 -82q0 -55 -39 -95t-97 -40q-59 0 -96 43t-37 100zM0 1112q0 -27 18.5 -45t44.5 -18q27 0 45.5 18t18.5 45t-18.5 45.5t-45.5 18.5t-45 -18.5t-18 -45.5zM317 139q0 -29 20.5 -49t49.5 -20t49.5 20.5t20.5 48.5q0 29 -20.5 49.5t-49.5 20.5t-49.5 -20.5 t-20.5 -49.5z" />
<glyph unicode="&#xe44;" horiz-adv-x="516" d="M-74 1364h111q25 -162 26 -244l146 228q41 -6 73.5 -39t32.5 -78v-940q10 4 37 4q63 0 109.5 -45t46.5 -111t-46 -110.5t-110 -44.5q-70 0 -117 47t-47 119v1011l-122 -180l-82 25q-9 192 -58 358zM283 139q0 -29 20.5 -49t48.5 -20q29 0 49.5 20.5t20.5 48.5 q0 29 -20.5 49.5t-49.5 20.5t-49 -20.5t-20 -49.5z" />
<glyph unicode="&#xe45;" horiz-adv-x="428" d="M-227 565q6 123 80.5 196t197.5 73q115 0 194 -58.5t79 -177.5v-885h-127v883q0 57 -39 93t-107 36t-110.5 -45t-44.5 -115h-123z" />
<glyph unicode="&#xe46;" horiz-adv-x="894" d="M147 561q0 102 64.5 181t165.5 104l98 -78l88 78q98 -25 157.5 -91.5t59.5 -160.5v-881h-127v879q0 84 -80 135l-94 -74l-121 76q-35 -23 -49 -63h15q66 0 111.5 -46.5t45.5 -111.5q0 -66 -46 -112t-111 -46q-82 0 -129.5 63.5t-47.5 147.5zM244 508q0 -31 22.5 -53.5 t52.5 -22.5q31 0 53.5 22.5t22.5 53.5t-22.5 53.5t-53.5 22.5t-53 -22.5t-22 -53.5z" />
<glyph unicode="&#xe47;" d="M-668 1124q0 80 64 125q55 41 143 41h139q100 0 101 90v47h98v-45q0 -84 -55 -129t-141 -45h-150q-33 0 -59.5 -21.5t-26.5 -56.5q0 -33 12 -53q31 47 92 51q47 -31 113 -53q0 41 32 70t70 29q45 0 76 -32t31 -75t-30.5 -74.5t-76.5 -31.5q-100 0 -229 86 q-27 -8 -58.5 -40t-35.5 -57q-109 72 -109 174zM-281 1067q0 -18 13.5 -31.5t31.5 -13.5t32 13.5t14 31.5t-13.5 31.5t-32.5 13.5q-18 0 -31.5 -13.5t-13.5 -31.5z" />
<glyph unicode="&#xe48;" d="M-227 1386v234h123v-234h-123z" />
<glyph unicode="&#xe49;" d="M-442 1614q0 49 34.5 82t83.5 33q55 0 87 -34t32 -87q0 -80 -90 -170q100 20 163.5 95t70.5 177h106q-37 -195 -136 -269.5t-290 -74.5h-57v68q82 6 100 59q-104 27 -104 121zM-379 1610q0 -23 15.5 -38.5t37.5 -15.5q23 0 38.5 15.5t15.5 38.5t-15.5 38t-38.5 15 t-38 -15t-15 -38z" />
<glyph unicode="&#xe4a;" d="M-518 1487q0 37 12 73.5t36 69.5t59.5 54.5t84.5 27.5l47 -53l48 53q63 -2 105 -43t42 -104q0 -57 -25 -103q96 59 97 236h86q-8 -322 -312 -322v60q80 39 80 123q0 59 -59 75l-64 -65l-65 69q-35 -8 -62 -45q49 0 83 -32.5t34 -81.5q0 -45 -32.5 -78t-79.5 -33 q-49 0 -82 32t-33 87zM-459 1479q0 -23 15.5 -37.5t37.5 -14.5q23 0 37.5 14.5t14.5 37.5t-14.5 38t-37.5 15t-38 -15t-15 -38z" />
<glyph unicode="&#xe4b;" d="M-319 1477v84h98v86h112v-86h107v-84h-107v-91h-112v91h-98z" />
<glyph unicode="&#xe4c;" d="M-367 1434q0 129 140 174q63 20 82 32q41 25 41 70h84q-6 -76 -52 -115q-35 -33 -116 -55q68 -33 67 -108q0 -51 -36 -87t-87 -36t-87 37t-36 88zM-295 1432q0 -23 15.5 -37.5t37.5 -14.5q23 0 37.5 14.5t14.5 37.5t-14.5 38t-37.5 15t-38 -15t-15 -38z" />
<glyph unicode="&#xe4d;" d="M-369 1124q0 72 51.5 123t122.5 51q72 0 122 -50t50 -124q0 -72 -50 -122t-122 -50q-74 0 -124 50t-50 122zM-279 1124q0 -35 25 -58.5t59 -23.5q35 0 58.5 24t23.5 58q0 35 -23.5 59.5t-58.5 24.5t-59.5 -24.5t-24.5 -59.5z" />
<glyph unicode="&#xe4e;" d="M-449 1053q0 49 32 85t79 44q-20 31 -20 63q0 68 53 103q47 29 115 28q57 0 110 -20l-31 -76q-41 14 -82 14q-76 0 -75 -49q0 -55 106 -65l-33 -78q-39 14 -65 14q-102 0 -102 -65q0 -41 77 -41q31 0 76 18v-78q-41 -18 -102 -18q-55 0 -96.5 34t-41.5 87z" />
<glyph unicode="&#xe4f;" horiz-adv-x="921" d="M115 334q0 143 101 244.5t245 101.5q139 0 242.5 -103.5t103.5 -242.5q0 -143 -101.5 -244.5t-244.5 -101.5t-244.5 101.5t-101.5 244.5zM186 334q0 -115 81 -196t194 -81t193.5 82t80.5 195q0 115 -80 194.5t-194 79.5q-113 0 -194 -79.5t-81 -194.5zM258 334 q0 84 59.5 143.5t143.5 59.5t143.5 -59.5t59.5 -143.5t-59.5 -144.5t-143.5 -60.5t-143.5 60.5t-59.5 144.5zM330 334q0 -55 38 -93t93 -38t93 38t38 93q0 53 -38 92t-93 39t-93 -39t-38 -92z" />
<glyph unicode="&#xe50;" horiz-adv-x="933" d="M104 299q0 141 117 233q106 84 246 84q137 0 244 -84q117 -92 116 -233q0 -141 -116 -233q-106 -84 -244 -84q-139 0 -246 84q-117 92 -117 233zM242 299q0 -94 66.5 -149.5t158.5 -55.5t158.5 55.5t66.5 149.5t-66.5 149.5t-158.5 55.5t-158.5 -55.5t-66.5 -149.5z" />
<glyph unicode="&#xe51;" horiz-adv-x="933" d="M96 281q0 145 110.5 239t258.5 94q164 0 267.5 -108.5t103.5 -261.5q0 -164 -109 -285h-152q139 133 140 285q0 117 -68.5 187.5t-185.5 70.5q-100 0 -171 -62.5t-71 -154.5q0 -82 45 -138.5t121 -56.5q31 0 61 10q-72 0 -114 50q-39 43 -39 100q0 63 47 107t109 44 q76 0 120.5 -51t44.5 -127q0 -104 -70.5 -170.5t-178.5 -66.5q-119 0 -194 87t-75 208zM381 250q0 -29 20.5 -49.5t49.5 -20.5t49 20.5t20 49.5t-20.5 49t-48.5 20q-29 0 -49.5 -20t-20.5 -49z" />
<glyph unicode="&#xe52;" horiz-adv-x="933" d="M23 752v104q90 0 131 -27q51 -33 51 -118v-539q0 -66 57 -66h422q53 0 53 50v276q0 74 -45 74q-66 0 -65 -119h-82q-23 123 -96 123q-31 0 -50.5 -26.5t-21.5 -59.5h16q59 0 99 -40t40 -97q0 -59 -39.5 -99.5t-99.5 -40.5q-160 0 -160 185q0 121 52 198q57 88 164 88 q100 0 131 -79q35 80 120 79q76 0 119 -55t43 -127v-293q0 -143 -137 -143h-530q-115 0 -115 133v580q0 27 -21 35q-1 0 -36 4zM334 285q0 -27 16.5 -43.5t42.5 -16.5q27 0 44.5 16.5t17.5 43.5t-17.5 44t-44.5 17t-43 -17t-16 -44z" />
<glyph unicode="&#xe53;" horiz-adv-x="933" d="M53 264q0 139 60 238q70 115 194 114q121 0 182 -92q57 94 166 92q94 0 145.5 -64.5t51.5 -160.5v-391h-119v389q0 117 -82 117q-41 0 -69.5 -39t-28.5 -84v-383h-121v383q0 121 -131 121q-74 0 -108 -88q-25 -63 -25 -148q33 18 72 19q63 0 108 -42t45 -108 q0 -61 -41 -102q-43 -47 -114 -49q-98 -2 -148 94q-37 75 -37 184zM174 131q0 -29 18.5 -47t47.5 -18t48 18t19 47t-19.5 48.5t-47.5 19.5q-29 0 -47.5 -19.5t-18.5 -48.5z" />
<glyph unicode="&#xe54;" horiz-adv-x="933" d="M39 283q0 338 438 338q174 0 248 26q121 43 147 209h117q-45 -223 -172 -297q-88 -51 -311 -51q-158 0 -227 -29q-113 -49 -113 -188q0 -80 54 -140.5t116 -60.5q12 0 156 23q-188 49 -189 196q0 68 45 111t107 43q66 0 106.5 -46t40.5 -106q0 -72 -61 -121 q33 -16 88 -26q57 -8 113.5 -21.5t140.5 -64.5l-60 -96q-115 55 -190 55q-51 0 -147.5 -25.5t-145.5 -25.5q-135 0 -219 88q-82 82 -82 209zM389 313q0 -27 17.5 -44t44.5 -17t44 17.5t17 43.5q0 27 -17.5 44.5t-43.5 17.5q-27 0 -44.5 -17.5t-17.5 -44.5z" />
<glyph unicode="&#xe55;" horiz-adv-x="933" d="M39 283q0 309 364 335q-39 39 -38 99q0 59 40.5 99t98.5 40q59 0 99 -40t40 -99q0 -53 -35 -94q68 6 117 24q121 45 147 209h117q-45 -223 -172 -297q-88 -51 -311 -51q-158 0 -227 -29q-113 -49 -113 -188q0 -80 54 -140.5t116 -60.5q12 0 156 23q-188 49 -189 196 q0 68 45 111t107 43q66 0 106.5 -46t40.5 -106q0 -72 -61 -121q33 -16 88 -26q66 -10 118 -22.5t136 -63.5l-60 -96q-115 55 -190 55q-51 0 -147.5 -25.5t-145.5 -25.5q-135 0 -219 88q-82 82 -82 209zM389 313q0 -27 17.5 -44t44.5 -17t44 17.5t17 43.5q0 27 -17.5 44.5 t-43.5 17.5q-27 0 -44.5 -17.5t-17.5 -44.5zM442 715q0 -27 17.5 -44.5t44.5 -17.5t44 17.5t17 44.5t-17.5 44t-43.5 17q-27 0 -44.5 -17t-17.5 -44z" />
<glyph unicode="&#xe56;" horiz-adv-x="933" d="M23 856h139q74 -133 84 -295q88 55 258 55q156 0 256 -71q115 -82 114 -232q0 -164 -126 -254q-109 -78 -267 -77q-133 0 -202 28q-137 55 -138 174q0 68 42 113t110 45t113 -45t45 -109q0 -57 -27 -90q14 -2 47 -2q115 0 191 49q90 55 90 164q0 96 -78 148 q-68 45 -166 45q-223 0 -318 -129h-43q-6 168 -22 252q-28 135 -102 231zM231 188q0 -29 18.5 -47t47.5 -18t48.5 18.5t19.5 46.5q0 29 -19.5 48.5t-48.5 19.5t-47.5 -19.5t-18.5 -48.5z" />
<glyph unicode="&#xe57;" horiz-adv-x="933" d="M29 289q0 125 43 213q57 115 170 114q111 0 155 -79q47 80 131 79q100 0 152 -79q43 -66 43 -170q0 -106 -31 -222q86 57 86 304q0 319 41 407h125q-51 -76 -50 -219t1 -164q0 -244 -74 -352q-88 -127 -301 -127q84 227 84 391q0 39 -14 76q-20 49 -53 49q-37 0 -60 -47 q-16 -39 -16 -80v-82h-123v78q0 131 -92 131q-49 0 -76 -70q-20 -55 -20 -131v-22q37 16 65 16q63 0 110.5 -46t47.5 -114q0 -66 -45 -108.5t-113 -42.5q-100 0 -149 102q-37 78 -37 195zM141 147q0 -29 20.5 -49t49.5 -20t50.5 20.5t21.5 48.5q0 29 -21.5 50.5t-50.5 21.5 t-49.5 -21.5t-20.5 -50.5z" />
<glyph unicode="&#xe58;" horiz-adv-x="933" d="M47 307q0 188 111 256q88 53 305 53q158 0 219 29q82 41 82 162v18h119q2 -16 2 -45q0 -180 -148 -237q-88 -35 -319 -35q-254 0 -254 -205q0 -123 57 -160q23 47 84.5 83t112.5 36q47 -61 112 -90q2 68 53.5 115t114.5 47q74 0 124 -51.5t50 -122.5q0 -70 -51 -123 t-123 -53q-147 0 -315 155q-45 -16 -97.5 -72.5t-60.5 -99.5q-178 121 -178 340zM625 160q0 -31 21.5 -52.5t51.5 -21.5q31 0 52.5 21.5t21.5 52.5q0 29 -21.5 51t-52.5 22t-52 -22t-21 -51z" />
<glyph unicode="&#xe59;" horiz-adv-x="933" d="M49 301q0 133 87 224t212 91q115 0 189 -67q23 66 86 65q29 0 77 -29.5t76 -29.5q39 0 39 117q0 102 -24 178h100q23 -102 22 -199q0 -207 -118 -207q-27 0 -75 31t-67 31q-37 0 -37 -39q0 -72 109 -225.5t174 -184.5l-84 -77q-150 117 -280 376q-12 27 -24.5 54.5 t-37.5 46.5q-63 47 -137 47t-120 -63.5t-46 -137.5q0 -72 35 -131q31 109 143 109q59 0 102.5 -43t43.5 -105q0 -59 -43 -103t-103 -44q-131 0 -217 96q-82 90 -82 219zM281 131q0 -29 18 -47t47 -18t48.5 18t19.5 47t-19.5 48.5t-48.5 19.5t-47 -19.5t-18 -48.5z" />
<glyph unicode="&#xe5a;" horiz-adv-x="1075" d="M49 676q0 66 45 112t111 46t111.5 -46.5t45.5 -111.5q0 -10 -4 -31q68 51 82 172h92q139 0 140 -147v-23q66 53 78 170h92q139 0 139 -147v-670h-127v645q0 74 -23 78q-12 -135 -159 -191v-532h-127v645q0 74 -23 78q-8 -96 -93 -154.5t-185 -58.5q-80 0 -137.5 43 t-57.5 123zM135 676q0 -29 20.5 -49.5t49.5 -20.5t49 20.5t20 49.5t-20.5 49t-48.5 20q-29 0 -49.5 -20t-20.5 -49z" />
<glyph unicode="&#xe5b;" horiz-adv-x="1427" d="M158 375q0 154 63.5 237.5t177.5 83.5q92 0 145.5 -56t53.5 -155q0 -88 -35 -147q-43 -74 -125 -74q-45 0 -77.5 34t-32.5 79q0 47 31.5 79.5t78.5 32.5q53 0 88 -40v4l4 49q10 131 -124 131q-84 0 -129.5 -72t-45.5 -196q0 -113 56.5 -180.5t144.5 -67.5q121 0 185.5 88 t64.5 250q0 63 -6 96q115 -23 153 -217q18 59 19 115q0 39 -17 98q86 -25 150 -178q10 51 10 75q0 18 -10 76q88 -25 131 -172q20 27 21 72q0 25 -7 55q10 -2 88 -57q70 -51 146 -51h10q-41 -23 -84 -23q-68 0 -119 51q-12 -98 -57 -112q-18 0 -41 67q-29 86 -43 101 q0 -188 -55 -189q-12 0 -35 74q-25 82 -43 104q-12 -201 -78 -200q-12 0 -35 79q-29 102 -43 121q0 -391 -305 -391q-127 0 -200.5 88t-73.5 238zM301 655q0 -14 12 -14t13 10h-4q0 -8 -9 -8q-8 0 -8 12t8 13q6 0 9 -9h4q-4 10 -13 11q-12 -1 -12 -15zM330 641h4v14h14v-14 h4v29h-4v-13h-14v13h-4v-29zM358 641h19v4h-15v25h-4v-29zM381 377q0 -57 57 -58q57 0 58 58q0 57 -58 57q-57 0 -57 -57zM381 641h4v12h6q10 0 10 9q0 8 -10 8h-10v-29zM385 655v13h6q6 0 6 -6t-6 -7h-6zM416 651q0 -10 10 -10t10 8q-6 6 -16 13q0 6 6 6q4 -4 4 -6h4 q0 8 -8 8q-10 0 -10 -8q6 -6 16 -13q0 -6 -6 -6t-6 8h-4zM440 641h4v12h7q10 0 10 9q0 8 -10 8h-11v-29zM444 655v13h7q6 0 6 -6t-6 -7h-7zM467 641h4v10l4 4l6 -14h6l-10 16l10 13h-6l-10 -15v15h-4v-29z" />
<glyph unicode="&#x2000;" horiz-adv-x="864" />
<glyph unicode="&#x2001;" horiz-adv-x="1728" />
<glyph unicode="&#x2002;" horiz-adv-x="864" />
<glyph unicode="&#x2003;" horiz-adv-x="1728" />
<glyph unicode="&#x2004;" horiz-adv-x="575" />
<glyph unicode="&#x2005;" horiz-adv-x="432" />
<glyph unicode="&#x2006;" horiz-adv-x="286" />
<glyph unicode="&#x2007;" horiz-adv-x="286" />
<glyph unicode="&#x2008;" horiz-adv-x="215" />
<glyph unicode="&#x2009;" horiz-adv-x="344" />
<glyph unicode="&#x200a;" horiz-adv-x="94" />
<glyph unicode="&#x200c;" d="M-35 -512v1100h72v-1100h-72z" />
<glyph unicode="&#x200d;" d="M-111 399l76 76l-76 80l37 33l74 -76l76 76l37 -33l-76 -80l76 -76l-37 -34l-39 41v-918h-72v918l-41 -41z" />
<glyph unicode="&#x200e;" d="M-35 -512v1028h271l-35 37l32 33l107 -107l-107 -106l-32 35l35 36h-199v-956h-72z" />
<glyph unicode="&#x200f;" d="M-338 479l107 107q4 -6 14 -16.5t18 -16.5l-34 -37h270v-1028h-72v956h-198l34 -36l-32 -35z" />
<glyph unicode="&#x2010;" horiz-adv-x="462" d="M27 322v110h409v-110h-409z" />
<glyph unicode="&#x2011;" horiz-adv-x="462" d="M27 322v110h409v-110h-409z" />
<glyph unicode="&#x2012;" horiz-adv-x="462" d="M27 322v110h409v-110h-409z" />
<glyph unicode="&#x2013;" horiz-adv-x="686" d="M18 322v110h650v-110h-650z" />
<glyph unicode="&#x2014;" horiz-adv-x="1419" d="M18 322v110h1383v-110h-1383z" />
<glyph unicode="&#x2018;" horiz-adv-x="518" d="M147 764q2 123 60.5 197.5t105.5 93.5l31 -35q-104 -68 -121 -164q4 0 9.5 1t9.5 1q39 0 66.5 -27.5t27.5 -66.5t-27.5 -65.5t-66.5 -26.5t-66 26.5t-29 65.5z" />
<glyph unicode="&#x2019;" horiz-adv-x="518" d="M174 678q104 68 121 164q-4 0 -9 -1t-10 -1q-39 0 -66.5 27.5t-27.5 66.5t28 65.5t66 26.5q39 0 66 -26.5t29 -65.5q-2 -123 -60.5 -197.5t-105.5 -93.5z" />
<glyph unicode="&#x201a;" horiz-adv-x="518" d="M174 -170q104 68 121 164q-4 0 -9 -1t-10 -1q-39 0 -66.5 27.5t-27.5 66.5t28 65.5t66 26.5q39 0 66 -26.5t29 -65.5q-2 -123 -60.5 -197.5t-105.5 -93.5z" />
<glyph unicode="&#x201c;" horiz-adv-x="786" d="M147 764q2 123 60.5 197.5t105.5 93.5l31 -35q-104 -68 -121 -164q4 0 9.5 1t9.5 1q39 0 66.5 -27.5t27.5 -66.5t-27.5 -65.5t-66.5 -26.5t-66 26.5t-29 65.5zM416 764q2 123 60.5 197.5t105.5 93.5l30 -35q-104 -68 -120 -164q4 0 9 1t9 1q39 0 66.5 -27.5t27.5 -66.5 t-27.5 -65.5t-66.5 -26.5t-65.5 26.5t-28.5 65.5z" />
<glyph unicode="&#x201d;" horiz-adv-x="786" d="M174 678q104 68 121 164q-4 0 -9 -1t-10 -1q-39 0 -66.5 27.5t-27.5 66.5t28 65.5t66 26.5q39 0 66 -26.5t29 -65.5q-2 -123 -60.5 -197.5t-105.5 -93.5zM442 678q104 68 121 164q-4 0 -9 -1t-9 -1q-39 0 -66.5 27.5t-27.5 66.5t27.5 65.5t66.5 26.5t65.5 -26.5 t28.5 -65.5q-2 -123 -60.5 -197.5t-105.5 -93.5z" />
<glyph unicode="&#x201e;" horiz-adv-x="786" d="M174 -170q104 68 121 164q-4 0 -9 -1t-10 -1q-39 0 -66.5 27.5t-27.5 66.5t28 65.5t66 26.5q39 0 66 -26.5t29 -65.5q-2 -123 -60.5 -197.5t-105.5 -93.5zM442 -170q104 68 121 164q-4 0 -9 -1t-9 -1q-39 0 -66.5 27.5t-27.5 66.5t27.5 65.5t66.5 26.5t65.5 -26.5 t28.5 -65.5q-2 -123 -60.5 -197.5t-105.5 -93.5z" />
<glyph unicode="&#x2020;" horiz-adv-x="778" d="M80 573v99l258 -8v309h102v-309l258 8v-99l-258 9v-650h-102v650z" />
<glyph unicode="&#x2021;" horiz-adv-x="778" d="M80 223v96l258 -8v271l-258 -9v99l258 -8v309h102v-309l258 8v-99l-258 9v-271l258 8v-96l-258 6v-297h-102v297z" />
<glyph unicode="&#x2022;" horiz-adv-x="462" d="M59 410q0 72 49.5 122t122.5 50q72 0 122 -51.5t50 -120.5q0 -72 -50 -122t-122 -50t-122 50t-50 122z" />
<glyph unicode="&#x2026;" horiz-adv-x="1032" d="M78 80q0 41 28.5 69.5t69.5 28.5t69.5 -28.5t28.5 -69.5t-28.5 -69.5t-69.5 -28.5t-69.5 28.5t-28.5 69.5zM418 80q0 41 28.5 69.5t69.5 28.5t69.5 -28.5t28.5 -69.5t-28.5 -69.5t-69.5 -28.5t-69.5 28.5t-28.5 69.5zM758 80q0 41 28.5 69.5t69.5 28.5t69.5 -28.5 t28.5 -69.5t-28.5 -69.5t-69.5 -28.5t-69.5 28.5t-28.5 69.5z" />
<glyph unicode="&#x202f;" horiz-adv-x="344" />
<glyph unicode="&#x2030;" horiz-adv-x="1990" d="M80 692q0 301 242 301q244 0 243 -301q0 -299 -243 -299q-242 0 -242 299zM203 692q0 -188 119 -188q123 0 122 188q0 193 -122 193q-119 0 -119 -193zM319 -18l625 993h125l-625 -993h-125zM840 285q0 299 243 299q246 0 246 -299q0 -301 -246 -301q-243 0 -243 301z M963 285q0 -190 120 -191q123 0 123 191q0 193 -123 192q-120 1 -120 -192zM1421 285q0 299 244 299q246 0 246 -299q0 -301 -246 -301q-244 0 -244 301zM1544 285q0 -190 121 -191q123 0 123 191q0 193 -123 192q-121 1 -121 -192z" />
<glyph unicode="&#x2032;" horiz-adv-x="268" d="M37 760l78 215h112l-135 -215h-55z" />
<glyph unicode="&#x2033;" horiz-adv-x="450" d="M37 760l78 215h112l-135 -215h-55zM219 760l78 215h113l-136 -215h-55z" />
<glyph unicode="&#x2039;" horiz-adv-x="479" d="M61 367l230 278h125l-232 -278l234 -271h-123z" />
<glyph unicode="&#x203a;" horiz-adv-x="479" d="M61 96l234 273l-232 276h123l232 -278l-234 -271h-123z" />
<glyph unicode="&#x2044;" horiz-adv-x="301" d="M-111 0l408 977h121l-406 -977h-123z" />
<glyph unicode="&#x205f;" horiz-adv-x="432" />
<glyph unicode="&#x20a3;" horiz-adv-x="804" d="M12 184v107h144v686h571v-111h-448v-307h419v-110h-419v-158h262v-107h-262v-184h-123v184h-144z" />
<glyph unicode="&#x20ab;" horiz-adv-x="890" d="M53 362q0 154 99.5 257.5t248.5 103.5q154 0 250 -96v213h-200v90h200v102h129v-102h119v-90h-119v-654q0 -86 8 -186h-122q-6 23 -7 76q-96 -94 -247 -94q-152 0 -255.5 107t-103.5 273zM70 -92h780v-119h-780v119zM180 362q0 -125 63.5 -196.5t178.5 -71.5 q102 0 165.5 46t63.5 124v160q0 78 -75.5 135t-161.5 57q-106 0 -170 -71.5t-64 -182.5z" />
<glyph unicode="&#x20ac;" horiz-adv-x="1060" d="M59 293v110h97q-6 76 0 150h-97v109h125q72 154 209 241.5t309 87.5q139 0 291 -61l-39 -115q-115 63 -247 64q-143 0 -242.5 -56.5t-149.5 -160.5h504v-109h-538q-8 -74 2 -150h536v-110h-500q51 -86 146.5 -141.5t226.5 -55.5q68 0 132.5 13.5t125.5 42.5l49 -101 q-70 -33 -157.5 -51t-173.5 -18q-74 0 -145.5 22.5t-136 64.5t-117 99t-85.5 125h-125z" />
<glyph unicode="&#x2113;" horiz-adv-x="520" d="M20 410l119 73v252q0 94 47 140.5t111 46.5q66 0 112 -46.5t46 -125.5q0 -53 -18.5 -100.5t-47.5 -86.5t-64.5 -69.5t-68.5 -55.5v-276q0 -18 6 -42t35 -24q18 0 45 18.5t61 59.5l33 -84q-41 -47 -89 -73.5t-91 -26.5q-49 0 -83 39t-34 125v221l-69 -47zM256 573 q27 23 55.5 71t28.5 93q0 33 -9 55.5t-38 22.5q-25 0 -31 -19.5t-6 -60.5v-162z" />
<glyph unicode="&#x2122;" horiz-adv-x="1245" d="M43 887v86h502v-86h-205v-518h-92v518h-205zM549 369l37 604h100l184 -475l185 475h98l39 -604h-94l-25 432l-170 -432h-69l-164 432l-31 -432h-90z" />
<glyph unicode="&#x2126;" horiz-adv-x="974" d="M66 0v111h241v79q-84 41 -149.5 140.5t-65.5 214.5q0 186 108.5 286.5t288.5 100.5q178 0 287 -101.5t109 -285.5q0 -125 -64.5 -221.5t-150.5 -133.5v-79h241v-111h-354v268q199 88 199 283q0 117 -76 193.5t-191 76.5t-191.5 -76.5t-76.5 -193.5q0 -195 199 -283v-268 h-354z" />
<glyph unicode="&#x212e;" horiz-adv-x="714" d="M78 414q0 190 77.5 283.5t200.5 93.5q135 0 204 -106.5t73 -305.5h-434q8 -150 47 -218.5t110 -68.5q53 0 92 42t62 114h117q-59 -262 -271 -262q-278 0 -278 428zM203 483h305q-23 203 -152 203q-128 0 -153 -203z" />
<glyph unicode="&#x2153;" horiz-adv-x="1110" d="M47 803l172 151q63 -4 64 -71v-443h86v-80h-275v80h88v357l-78 -68zM190 -18l584 976h100l-583 -976h-101zM662 35l40 88q29 -23 57.5 -34t57.5 -11q66 0 103.5 34.5t37.5 88.5q0 72 -67 71q-51 0 -94 -36l-33 61q90 47 122 84t32 78q0 16 -12.5 27.5t-39.5 11.5 q-82 0 -116 -101l-76 39q61 147 198 148q72 0 106 -33t34 -78q0 -70 -64 -127q55 -8 81 -47t26 -96q0 -53 -20.5 -94t-53.5 -69t-77 -42t-89 -14q-83 0 -153 51z" />
<glyph unicode="&#x2154;" horiz-adv-x="1110" d="M16 373q2 47 37 105.5t107 123.5q27 25 53.5 50.5t49 51t36.5 51t14 52.5q0 76 -69 76q-41 0 -69 -29t-32 -82l-94 14q10 86 62.5 133.5t126.5 47.5q80 0 131 -37t51 -123q0 -41 -23.5 -82t-62.5 -83t-87 -88t-97 -97h243l-12 -84h-365zM190 -18l584 976h100l-583 -976 h-101zM662 35l40 88q29 -23 57.5 -34t57.5 -11q66 0 103.5 34.5t37.5 88.5q0 72 -67 71q-51 0 -94 -36l-33 61q90 47 122 84t32 78q0 16 -12.5 27.5t-39.5 11.5q-82 0 -116 -101l-76 39q61 147 198 148q72 0 106 -33t34 -78q0 -70 -64 -127q55 -8 81 -47t26 -96 q0 -53 -20.5 -94t-53.5 -69t-77 -42t-89 -14q-83 0 -153 51z" />
<glyph unicode="&#x2155;" horiz-adv-x="1110" d="M47 803l172 151q63 -4 64 -71v-443h86v-80h-275v80h88v357l-78 -68zM190 -18l584 976h100l-583 -976h-101zM647 43l45 78q29 -16 58.5 -31.5t68.5 -15.5q55 0 97 35.5t42 93.5q0 45 -31.5 71.5t-84.5 26.5q-16 0 -41 -11t-35 -34h-68l19 330h332l-19 -90h-217l-6 -117 q12 6 30.5 10t30.5 4q80 0 137.5 -51t57.5 -137q0 -98 -69.5 -159.5t-180.5 -61.5q-90 0 -166 59z" />
<glyph unicode="&#x2156;" horiz-adv-x="1110" d="M16 373q2 47 37 105.5t107 123.5q27 25 53.5 50.5t49 51t36.5 51t14 52.5q0 76 -69 76q-41 0 -69 -29t-32 -82l-94 14q10 86 62.5 133.5t126.5 47.5q80 0 131 -37t51 -123q0 -41 -23.5 -82t-62.5 -83t-87 -88t-97 -97h243l-12 -84h-365zM190 -18l584 976h100l-583 -976 h-101zM647 43l45 78q29 -16 58.5 -31.5t68.5 -15.5q55 0 97 35.5t42 93.5q0 45 -31.5 71.5t-84.5 26.5q-16 0 -41 -11t-35 -34h-68l19 330h332l-19 -90h-217l-6 -117q12 6 30.5 10t30.5 4q80 0 137.5 -51t57.5 -137q0 -98 -69.5 -159.5t-180.5 -61.5q-90 0 -166 59z" />
<glyph unicode="&#x2157;" horiz-adv-x="1110" d="M63 416l41 88q29 -23 57.5 -34t57.5 -11q66 0 103.5 34.5t37.5 88.5q0 72 -67 71q-51 0 -94 -37l-33 62q90 47 121.5 84t31.5 78q0 16 -12 27.5t-39 11.5q-82 0 -116 -101l-76 39q61 147 198 148q72 0 106 -33t34 -78q0 -70 -64 -127q55 -8 81 -47t26 -96 q0 -53 -20.5 -94t-53.5 -69t-77 -42t-89 -14q-84 0 -154 51zM190 -18l584 976h100l-583 -976h-101zM647 43l45 78q29 -16 58.5 -31.5t68.5 -15.5q55 0 97 35.5t42 93.5q0 45 -31.5 71.5t-84.5 26.5q-16 0 -41 -11t-35 -34h-68l19 330h332l-19 -90h-217l-6 -117q12 6 30.5 10 t30.5 4q80 0 137.5 -51t57.5 -137q0 -98 -69.5 -159.5t-180.5 -61.5q-90 0 -166 59z" />
<glyph unicode="&#x2158;" horiz-adv-x="1110" d="M49 492q4 145 63.5 259.5t123 160.5t141.5 49v-383h88l-4 -86h-84v-125h-103v125h-225zM156 578h118v256q-45 -59 -78.5 -130t-39.5 -126zM190 -18l584 976h100l-583 -976h-101zM647 43l45 78q29 -16 58.5 -31.5t68.5 -15.5q55 0 97 35.5t42 93.5q0 45 -31.5 71.5 t-84.5 26.5q-16 0 -41 -11t-35 -34h-68l19 330h332l-19 -90h-217l-6 -117q12 6 30.5 10t30.5 4q80 0 137.5 -51t57.5 -137q0 -98 -69.5 -159.5t-180.5 -61.5q-90 0 -166 59z" />
<glyph unicode="&#x2159;" horiz-adv-x="1110" d="M47 803l172 151q63 -4 64 -71v-443h86v-80h-275v80h88v357l-78 -68zM190 -18l584 976h100l-583 -976h-101zM637 209q0 66 24.5 130t69.5 118.5t109.5 92.5t146.5 50l2 -72q-66 -23 -124 -62.5t-93 -100.5q16 6 36.5 9t43.5 3q72 0 124 -49t52 -146q0 -84 -48 -138 t-134 -54q-102 0 -155.5 64.5t-53.5 154.5zM741 182q0 -47 27 -78.5t70 -31.5q45 0 68.5 31.5t23.5 78.5q0 51 -25.5 84t-66.5 33q-43 0 -70 -33t-27 -84z" />
<glyph unicode="&#x215a;" horiz-adv-x="1110" d="M41 426l45 78q29 -16 58.5 -31.5t68.5 -15.5q55 0 97 35.5t42 93.5q0 45 -31.5 71.5t-84.5 26.5q-16 0 -41 -11t-35 -34h-68l19 330h331l-18 -90h-217l-6 -117q12 6 30.5 10t30.5 4q80 0 137.5 -51t57.5 -137q0 -98 -70 -159.5t-180 -61.5q-90 0 -166 59zM190 -18 l584 976h100l-583 -976h-101zM637 209q0 66 24.5 130t69.5 118.5t109.5 92.5t146.5 50l2 -72q-66 -23 -124 -62.5t-93 -100.5q16 6 36.5 9t43.5 3q72 0 124 -49t52 -146q0 -84 -48 -138t-134 -54q-102 0 -155.5 64.5t-53.5 154.5zM741 182q0 -47 27 -78.5t70 -31.5 q45 0 68.5 31.5t23.5 78.5q0 51 -25.5 84t-66.5 33q-43 0 -70 -33t-27 -84z" />
<glyph unicode="&#x215b;" horiz-adv-x="1110" d="M47 803l172 151q63 -4 64 -71v-443h86v-80h-275v80h88v357l-78 -68zM190 -18l584 976h100l-583 -976h-101zM645 164q0 45 21.5 86t56.5 63q-27 20 -44 49t-17 62q0 72 52 118t132 46q78 0 131 -46t53 -118q0 -66 -61 -111q37 -23 57.5 -62.5t20.5 -86.5q0 -84 -54.5 -132 t-148.5 -48q-92 0 -145.5 48t-53.5 132zM743 162q0 -41 29 -63.5t74 -22.5q47 0 73.5 22.5t26.5 63.5q0 35 -23.5 67.5t-76.5 36.5q-53 -4 -78 -36.5t-25 -67.5zM762 428q0 -25 22.5 -43t59.5 -29q41 12 63.5 31t22.5 41q0 29 -21.5 48.5t-62.5 19.5t-62.5 -19.5 t-21.5 -48.5z" />
<glyph unicode="&#x215c;" horiz-adv-x="1110" d="M63 416l41 88q29 -23 57.5 -34t57.5 -11q66 0 103.5 34.5t37.5 88.5q0 72 -67 71q-51 0 -94 -37l-33 62q90 47 121.5 84t31.5 78q0 16 -12 27.5t-39 11.5q-82 0 -116 -101l-76 39q61 147 198 148q72 0 106 -33t34 -78q0 -70 -64 -127q55 -8 81 -47t26 -96 q0 -53 -20.5 -94t-53.5 -69t-77 -42t-89 -14q-84 0 -154 51zM190 -18l584 976h100l-583 -976h-101zM645 164q0 45 21.5 86t56.5 63q-27 20 -44 49t-17 62q0 72 52 118t132 46q78 0 131 -46t53 -118q0 -66 -61 -111q37 -23 57.5 -62.5t20.5 -86.5q0 -84 -54.5 -132 t-148.5 -48q-92 0 -145.5 48t-53.5 132zM743 162q0 -41 29 -63.5t74 -22.5q47 0 73.5 22.5t26.5 63.5q0 35 -23.5 67.5t-76.5 36.5q-53 -4 -78 -36.5t-25 -67.5zM762 428q0 -25 22.5 -43t59.5 -29q41 12 63.5 31t22.5 41q0 29 -21.5 48.5t-62.5 19.5t-62.5 -19.5 t-21.5 -48.5z" />
<glyph unicode="&#x215d;" horiz-adv-x="1110" d="M41 426l45 78q29 -16 58.5 -31.5t68.5 -15.5q55 0 97 35.5t42 93.5q0 45 -31.5 71.5t-84.5 26.5q-16 0 -41 -11t-35 -34h-68l19 330h331l-18 -90h-217l-6 -117q12 6 30.5 10t30.5 4q80 0 137.5 -51t57.5 -137q0 -98 -70 -159.5t-180 -61.5q-90 0 -166 59zM190 -18 l584 976h100l-583 -976h-101zM645 164q0 45 21.5 86t56.5 63q-27 20 -44 49t-17 62q0 72 52 118t132 46q78 0 131 -46t53 -118q0 -66 -61 -111q37 -23 57.5 -62.5t20.5 -86.5q0 -84 -54.5 -132t-148.5 -48q-92 0 -145.5 48t-53.5 132zM743 162q0 -41 29 -63.5t74 -22.5 q47 0 73.5 22.5t26.5 63.5q0 35 -23.5 67.5t-76.5 36.5q-53 -4 -78 -36.5t-25 -67.5zM762 428q0 -25 22.5 -43t59.5 -29q41 12 63.5 31t22.5 41q0 29 -21.5 48.5t-62.5 19.5t-62.5 -19.5t-21.5 -48.5z" />
<glyph unicode="&#x215e;" horiz-adv-x="1110" d="M57 872l25 93h401l-12 -82q-43 -53 -76 -105.5t-54.5 -112t-32.5 -130t-11 -160.5h-109q4 152 40 278.5t112 218.5h-283zM190 -18l584 976h100l-583 -976h-101zM645 164q0 45 21.5 86t56.5 63q-27 20 -44 49t-17 62q0 72 52 118t132 46q78 0 131 -46t53 -118 q0 -66 -61 -111q37 -23 57.5 -62.5t20.5 -86.5q0 -84 -54.5 -132t-148.5 -48q-92 0 -145.5 48t-53.5 132zM743 162q0 -41 29 -63.5t74 -22.5q47 0 73.5 22.5t26.5 63.5q0 35 -23.5 67.5t-76.5 36.5q-53 -4 -78 -36.5t-25 -67.5zM762 428q0 -25 22.5 -43t59.5 -29 q41 12 63.5 31t22.5 41q0 29 -21.5 48.5t-62.5 19.5t-62.5 -19.5t-21.5 -48.5z" />
<glyph unicode="&#x2202;" horiz-adv-x="714" d="M70 221q0 180 139 287q123 92 293 92h18q-10 211 -88 211q-76 0 -125 -147l-112 61q94 207 235 207q215 0 215 -357q0 -199 -86 -370q-106 -215 -289 -215q-82 0 -141 60t-59 171zM209 221q0 -104 84 -104q94 0 160 139q47 98 63 229h-14q-137 0 -219 -86 q-74 -74 -74 -178z" />
<glyph unicode="&#x2206;" horiz-adv-x="983" d="M6 0l486 967l485 -967h-971zM178 96h627l-313 643z" />
<glyph unicode="&#x220f;" horiz-adv-x="1009" d="M109 -154v1129h790v-1129h-129v1018h-530v-1018h-131z" />
<glyph unicode="&#x2211;" horiz-adv-x="854" d="M51 -33l379 469l-379 420v119h750v-111h-619l369 -385v-71l-369 -451h649v-111h-780v121z" />
<glyph unicode="&#x2212;" horiz-adv-x="854" d="M129 322v110h594v-110h-594z" />
<glyph unicode="&#x221a;" horiz-adv-x="792" d="M49 453v98h201l112 -393l293 809h125l-377 -987h-96l-147 473h-111z" />
<glyph unicode="&#x221e;" horiz-adv-x="1294" d="M96 457q0 94 63.5 159.5t194.5 65.5q137 0 297 -160q125 160 285 160q119 0 190.5 -66.5t71.5 -181.5q0 -94 -64.5 -159.5t-195.5 -65.5q-145 0 -297 162q-123 -162 -285 -162q-117 0 -188.5 66.5t-71.5 181.5zM211 453q0 -139 147 -140q113 0 213 138q-123 129 -215 129 q-72 0 -108.5 -38t-36.5 -89zM723 440q125 -129 213 -129q72 0 109.5 38t37.5 89q0 139 -149 140q-119 -1 -211 -138z" />
<glyph unicode="&#x222b;" horiz-adv-x="507" d="M-113 -186l23 108q33 -8 57 -8q98 0 115 94l137 785q33 199 207 196q49 0 100 -12l-20 -105q-37 10 -70 11q-86 0 -102 -99l-133 -786q-33 -199 -201 -199q-43 1 -113 15z" />
<glyph unicode="&#x2248;" horiz-adv-x="854" d="M78 27v39q0 90 54 143t134 53q55 0 170 -60.5t154 -60.5q63 0 69 121h111v-33q0 -94 -51 -148t-133 -54q-49 0 -167 63.5t-153 63.5q-72 0 -76 -127h-112zM80 336v39q0 90 54 143t134 53q55 0 170 -60t154 -60q63 0 70 120h110v-32q0 -94 -51 -148.5t-133 -54.5 q-49 0 -167 63.5t-153 63.5q-72 0 -75 -127h-113z" />
<glyph unicode="&#x2260;" horiz-adv-x="854" d="M92 199v108h217q23 41 40.5 73t39.5 77h-297v108h350l119 228h137l-116 -228h178v-108h-236q-18 -39 -36.5 -73t-41.5 -77h314v-108h-369q-25 -47 -51.5 -99.5t-48.5 -99.5h-133l98 199h-164z" />
<glyph unicode="&#x2264;" horiz-adv-x="854" d="M63 31v106h725v-106h-725zM96 434v123l637 254v-127l-495 -190l495 -189v-125z" />
<glyph unicode="&#x2265;" horiz-adv-x="854" d="M63 31v106h725v-106h-725zM96 180v125l496 189l-496 190v127l637 -254v-123z" />
<glyph unicode="&#x25ca;" horiz-adv-x="829" d="M57 451l301 452h113l301 -452l-301 -451h-113zM180 451l236 -351l233 351l-233 350z" />
<glyph unicode="&#x25cc;" horiz-adv-x="831" d="M41 420q0 16 10 27.5t27 11.5q16 0 27.5 -11.5t11.5 -27.5t-11.5 -26.5t-27.5 -10.5t-26.5 10.5t-10.5 26.5zM68 293q0 16 10 26.5t26 10.5t27.5 -10.5t11.5 -26.5t-11 -27.5t-28 -11.5q-16 0 -26 11.5t-10 27.5zM68 545q0 16 10 27.5t26 11.5t27.5 -11.5t11.5 -27.5 t-11 -26.5t-28 -10.5q-16 0 -26 10.5t-10 26.5zM139 180q0 16 10.5 26.5t26.5 10.5t27.5 -10t11.5 -27q0 -16 -11 -27.5t-28 -11.5q-16 0 -26.5 11.5t-10.5 27.5zM139 657q0 16 10.5 27.5t26.5 11.5t27.5 -11t11.5 -28q0 -16 -11 -26t-28 -10q-16 0 -26.5 10t-10.5 26z M248 109q0 16 10 26t27 10q16 0 27.5 -10t11.5 -26t-11.5 -27.5t-27.5 -11.5t-26.5 11.5t-10.5 27.5zM248 729q0 16 10 27.5t27 11.5q16 0 27.5 -11.5t11.5 -27.5t-11.5 -26.5t-27.5 -10.5t-26.5 10.5t-10.5 26.5zM375 84q0 16 11 27.5t28 11.5q16 0 27.5 -11.5t11.5 -27.5 t-11.5 -27.5t-27.5 -11.5t-27.5 11.5t-11.5 27.5zM375 754q0 16 11 27.5t28 11.5q16 0 27.5 -11.5t11.5 -27.5t-11.5 -27.5t-27.5 -11.5t-27.5 11.5t-11.5 27.5zM504 729q0 16 11 27.5t28 11.5q16 0 26.5 -11.5t10.5 -27.5t-10.5 -26.5t-26.5 -10.5t-27.5 10.5t-11.5 26.5z M506 109q0 16 11 26t28 10q16 0 26.5 -10t10.5 -26t-11 -29q-10 -10 -26 -10t-27.5 11.5t-11.5 27.5zM612 657q0 16 11.5 27.5t27.5 11.5t26.5 -11t10.5 -28q0 -16 -10 -26t-27 -10q-16 0 -27.5 10t-11.5 26zM614 180q0 16 11.5 26.5t27.5 10.5t26.5 -10t10.5 -27 q0 -16 -10 -28q-10 -10 -27 -11q-16 0 -27.5 11.5t-11.5 27.5zM684 545q0 16 11.5 27.5t27.5 11.5t26.5 -11.5t10.5 -27.5t-10.5 -26.5t-26.5 -10.5t-27.5 10.5t-11.5 26.5zM686 293q0 16 11.5 26.5t27.5 10.5t26.5 -10.5t10.5 -26.5t-10 -29q-10 -10 -27 -10 q-16 0 -27.5 11.5t-11.5 27.5zM713 420q0 16 10 27.5t27 11.5q16 0 27 -11.5t11 -27.5t-11 -26.5t-27 -10.5t-26.5 10.5t-10.5 26.5z" />
<glyph unicode="&#xe000;" horiz-adv-x="695" d="M0 695h695v-695h-695v695z" />
<glyph unicode="&#xf700;" horiz-adv-x="761" d="M70 580q12 131 96 198q70 55 172 56q39 0 115.5 -20.5t119.5 -20.5q31 0 39 49l105 -27q-37 -141 -150 -141q-39 0 -113.5 25.5t-115.5 25.5q-31 0 -71 -16.5t-52 -38.5q236 -39 348 -90q80 -37 80 -109v-301q0 -186 -194 -186q-188 0 -189 176v67q-16 -4 -29 -4 q-59 0 -98 40t-39 97q0 59 44 98.5t100 39.5q61 0 105 -38t44 -98v-198q0 -74 64 -74q66 0 65 74v295q0 43 -192 86q-166 35 -254 35zM172 360q0 -25 17.5 -42t41.5 -17q25 0 42.5 17.5t17.5 41.5q0 25 -17.5 42.5t-42.5 17.5t-42 -17.5t-17 -42.5z" />
<glyph unicode="&#xf701;" d="M-954 991q25 274 299 275q158 0 250 -95.5t110 -248.5q-254 82 -465 82q-96 -1 -194 -13zM-834 1075q35 8 109 8q152 0 299 -41q-12 51 -73.5 96.5t-139.5 45.5q-74 0 -127.5 -30t-67.5 -79z" />
<glyph unicode="&#xf702;" d="M-954 991q25 274 299 275q145 0 233 -80v141h123v-377l4 -28q-254 82 -465 82q-96 -1 -194 -13zM-834 1075q35 8 109 8q152 0 299 -41q-12 51 -73.5 96.5t-139.5 45.5q-74 0 -127.5 -30t-67.5 -79z" />
<glyph unicode="&#xf703;" d="M-954 991q25 274 299 275q80 0 143 -25q6 45 39 76t80 31q51 0 86 -36t35 -87q0 -41 -23.5 -74t-60.5 -43q49 -80 61 -186q-254 82 -465 82q-96 -1 -194 -13zM-834 1075q35 8 109 8q152 0 299 -41q-12 51 -73.5 96.5t-139.5 45.5q-74 0 -127.5 -30t-67.5 -79zM-453 1225 q0 -25 18.5 -41.5t41.5 -16.5t40 16.5t17 41.5t-17.5 42t-39.5 17q-23 0 -41.5 -17t-18.5 -42z" />
<glyph unicode="&#xf704;" d="M-954 991q25 274 299 275q31 0 57 -4v65h92v-86q45 -18 84 -55v141h123v-377l4 -28q-254 82 -465 82q-96 -1 -194 -13zM-834 1075q35 8 109 8q152 0 299 -41q-12 51 -73.5 96.5t-139.5 45.5q-74 0 -127.5 -30t-67.5 -79z" />
<glyph unicode="&#xf705;" d="M-477 950v289h127v-289h-127z" />
<glyph unicode="&#xf706;" d="M-676 1208q0 53 37 88t88 35q59 0 93 -37t34 -94q0 -51 -28.5 -105.5t-57.5 -84.5q98 20 158.5 97t64.5 179h121q-8 -100 -43 -168.5t-92 -111.5t-136 -62.5t-173 -19.5h-62v77q41 2 66.5 28t32.5 50q-45 10 -74 46t-29 83zM-602 1204q0 -20 14.5 -34.5t34.5 -14.5 q23 0 37 14.5t14 34.5q0 23 -14 37t-37 14q-20 0 -34.5 -14t-14.5 -37z" />
<glyph unicode="&#xf707;" d="M-809 1059q0 41 10.5 82t35 74.5t64.5 58t99 31.5l51 -60l51 60q72 -2 116 -47.5t44 -114.5q0 -63 -27 -111q47 29 76 96.5t29 159.5h94q-10 -350 -338 -350v66q86 43 86 133q0 66 -63 82l-70 -70l-72 76q-16 -4 -35.5 -19.5t-29.5 -29.5q53 0 90 -36t37 -89 q0 -51 -37 -86t-86 -35q-51 0 -88 34t-37 95zM-743 1051q0 -23 17 -39.5t40 -16.5t39 16.5t16 39.5t-16.5 40t-38.5 17q-23 0 -40 -17t-17 -40z" />
<glyph unicode="&#xf708;" d="M-647 1053v84h117v98h114v-98h117v-84h-117v-103h-114v103h-117z" />
<glyph unicode="&#xf709;" d="M-598 1065q0 147 152 190q86 23 109.5 58t23.5 53h92q-8 -86 -55.5 -124t-126.5 -60q33 -16 52 -48t19 -71q0 -55 -39 -94t-94 -39t-94 39t-39 96zM-520 1063q0 -23 17.5 -40t39.5 -17q23 0 40 17t17 40t-17 40t-40 17t-40 -17t-17 -40z" />
<glyph unicode="&#xf70a;" d="M-231 950v289h127v-289h-127z" />
<glyph unicode="&#xf70b;" d="M-514 1223q0 55 40 92t93 37q61 0 96 -39t35 -99q0 -59 -28.5 -114.5t-59.5 -85.5q102 18 167 99t69 192h122q-20 -109 -57 -182.5t-94 -117.5t-134 -62.5t-177 -18.5h-68v82q41 2 68.5 28.5t38.5 52.5q-51 8 -81 45.5t-30 90.5zM-434 1219q0 -23 14 -38.5t37 -15.5 t38 15.5t15 38.5t-15 38t-38 15t-37 -15t-14 -38z" />
<glyph unicode="&#xf70c;" d="M-686 1059q0 41 10 82t35 74.5t64.5 58t99.5 31.5l51 -60l51 60q72 -2 116 -47.5t44 -114.5q0 -63 -27 -111q47 29 76 96.5t29 159.5h94q-10 -350 -338 -350v66q86 43 86 133q0 66 -63 82l-70 -70l-72 76q-16 -4 -35.5 -19.5t-29.5 -29.5q53 0 90 -36t37 -89 q0 -51 -37 -86t-86 -35q-51 0 -88 34t-37 95zM-621 1051q0 -23 17.5 -39.5t40.5 -16.5t39 16.5t16 39.5t-16.5 40t-38.5 17q-23 0 -40.5 -17t-17.5 -40z" />
<glyph unicode="&#xf70d;" d="M-342 1053v84h117v98h114v-98h117v-84h-117v-103h-114v103h-117z" />
<glyph unicode="&#xf70e;" d="M-397 1065q0 147 151 190q86 23 109.5 58t23.5 53h93q-8 -86 -55.5 -124t-127.5 -60q33 -16 52.5 -48t19.5 -71q0 -55 -39 -94t-94 -39t-94 39t-39 96zM-319 1063q0 -23 17 -40t40 -17t40 17t17 40t-17.5 40t-39.5 17q-23 0 -40 -17t-17 -40z" />
<glyph unicode="&#xf70f;" horiz-adv-x="1157" d="M61 541q4 135 95 217q84 76 215 76q137 0 222 -78t85 -215v-367q0 -43 37 -62.5t86 -19.5q47 0 86 19.5t39 62.5v643h127v-624q0 -102 -80 -160q-70 -49 -174 -49q-106 0 -172 49q-76 55 -76 160v350q0 80 -50 130t-124 50q-125 0 -178 -102q80 -6 135 -93 q-104 -57 -105 -147v-88q16 2 35 2q66 0 111 -45t45 -111t-45 -110.5t-111 -44.5q-68 0 -115 47t-47 119v239q0 86 84 135q-51 35 -125 17zM197 141q0 -29 20.5 -49t48.5 -20q29 0 49.5 20.5t20.5 48.5q0 29 -20.5 49.5t-49.5 20.5t-49 -20.5t-20 -49.5z" />
<glyph unicode="&#xf710;" d="M-733 1155q0 59 41 100t100 41q63 0 103 -42t40 -99q0 -55 -30 -82q213 8 248 244h120q-53 -340 -368 -340q-123 0 -188.5 50t-65.5 128zM-655 1155q0 -27 17 -44t44 -17t45.5 17t18.5 44t-18.5 45.5t-45.5 18.5t-44 -18.5t-17 -45.5z" />
<glyph unicode="&#xf711;" d="M-668 1124q0 72 51.5 123t122.5 51q72 0 122 -50t50 -124q0 -72 -50 -122t-122 -50q-74 0 -124 50t-50 122zM-578 1124q0 -35 25 -58.5t59 -23.5q35 0 58.5 24t23.5 58q0 35 -23.5 59.5t-58.5 24.5t-59.5 -24.5t-24.5 -59.5z" />
<glyph unicode="&#xf712;" d="M-825 1124q0 80 63 125q55 41 144 41h139q100 0 100 90v47h98v-45q0 -84 -55 -129t-141 -45h-150q-33 0 -59.5 -21.5t-26.5 -56.5q0 -33 13 -53q31 47 92 51q47 -31 112 -53q0 41 32 70t71 29q45 0 75.5 -32t30.5 -75t-30.5 -74.5t-75.5 -31.5q-100 0 -230 86 q-27 -8 -58.5 -40t-35.5 -57q-108 72 -108 174zM-438 1067q0 -18 13 -31.5t32 -13.5q18 0 31.5 13.5t13.5 31.5t-13.5 31.5t-31.5 13.5t-31.5 -13.5t-13.5 -31.5z" />
<glyph unicode="&#xf713;" d="M-422 1386v234h123v-234h-123z" />
<glyph unicode="&#xf714;" d="M-637 1614q0 49 35 82t84 33q55 0 87 -34t32 -87q0 -80 -90 -170q100 20 163.5 95t69.5 177h106q-37 -195 -136 -269.5t-289 -74.5h-58v68q82 6 101 59q-105 27 -105 121zM-573 1610q0 -23 15 -38.5t38 -15.5t38 15.5t15 38.5t-15.5 38t-37.5 15q-23 0 -38 -15t-15 -38z " />
<glyph unicode="&#xf715;" d="M-727 1487q0 37 12.5 73.5t36 69.5t59 54.5t84.5 27.5l48 -53l47 53q63 -2 105 -43t42 -104q0 -57 -24 -103q96 59 96 236h86q-8 -322 -311 -322v60q80 39 79 123q0 59 -59 75l-63 -65l-66 69q-35 -8 -61 -45q49 0 82.5 -32.5t33.5 -81.5q0 -45 -32.5 -78t-79.5 -33 q-49 0 -82 32t-33 87zM-668 1479q0 -23 15.5 -37.5t38.5 -14.5t37 14.5t14 37.5t-14.5 38t-36.5 15q-23 0 -38.5 -15t-15.5 -38z" />
<glyph unicode="&#xf716;" d="M-514 1477v84h98v86h113v-86h106v-84h-106v-91h-113v91h-98z" />
<glyph unicode="&#xf717;" d="M-561 1434q0 129 139 174q63 20 82 32q41 25 41 70h84q-6 -76 -51 -115q-35 -33 -117 -55q68 -33 68 -108q0 -51 -36 -87t-87 -36t-87 37t-36 88zM-489 1432q0 -23 15 -37.5t38 -14.5t37 14.5t14 37.5t-14.5 38t-36.5 15q-23 0 -38 -15t-15 -38z" />
<glyph unicode="&#xf718;" d="M-358 -635q0 51 35.5 88t89.5 37q47 0 88 -31.5t41 -91.5v-278h-123v155h-9q-51 0 -86.5 36t-35.5 85zM-289 -629q0 -23 16.5 -39t39.5 -16t40 16.5t17 38.5q0 23 -17.5 39.5t-39.5 16.5q-23 0 -39.5 -16.5t-16.5 -39.5z" />
<glyph unicode="&#xf719;" d="M-604 -635q0 51 36 88t89 37q51 0 90 -32.5t39 -90.5v-184q0 -31 61 -31q66 0 66 31v289h119v-275q0 -68 -58 -102q-49 -31 -129 -31q-70 0 -121 29q-57 33 -57 90v61h-12q-51 0 -87 36t-36 85zM-535 -629q0 -23 17.5 -40t40.5 -17t39 17.5t16 39.5q0 23 -16.5 39.5 t-38.5 16.5q-23 0 -40.5 -16.5t-17.5 -39.5z" />
<glyph unicode="&#xf71a;" d="M-236 -586q0 29 21.5 50.5t50.5 21.5t50.5 -21.5t21.5 -50.5t-21.5 -50t-50.5 -21t-50.5 21t-21.5 50z" />
<glyph unicode="&#xf71b;" horiz-adv-x="870" d="M16 139q0 63 45 108.5t107 45.5q25 0 31 -6l-13 127q0 72 70 110q-55 35 -125 25q2 127 94 209q88 76 221 76q143 0 231.5 -80t88.5 -213v-1012h-129q-27 109 -188 172q-14 -180 -160 -180q-68 0 -116 43t-48 108q0 145 192 146q29 0 48 -2q10 39 22 57q20 33 64 59 l84 -45q-63 -35 -76 -92q117 -41 180 -102v850q0 82 -54.5 132t-135.5 50q-125 0 -183 -104q100 -20 137 -93q-55 -31 -73 -51q-27 -33 -27 -88q0 -45 10.5 -130t10.5 -120q0 -66 -44 -110.5t-108 -44.5q-66 0 -111 44.5t-45 110.5zM102 139q0 -29 20.5 -49t49.5 -20 t49.5 20.5t20.5 48.5q0 29 -20.5 49.5t-49.5 20.5t-49.5 -20.5t-20.5 -49.5zM219 -319q-2 -66 66 -66q39 4 55 30.5t14 78.5q-18 6 -49 6q-84 0 -86 -49z" />
<glyph unicode="&#xf71c;" horiz-adv-x="870" d="M16 139q0 63 45 108.5t107 45.5q25 0 31 -6l-13 127q0 72 70 110q-55 35 -125 25q2 127 94 209q88 76 221 76q143 0 231.5 -80t88.5 -213v-1014h-115l-106 139l-101 -139l-94 129q-8 -57 -53 -97t-98 -40q-68 0 -113 44t-45 109q0 152 174 152q39 0 55 -6q25 76 107 119 l72 -87q-76 -20 -84 -83l79 -99l99 125l96 -110v860q0 82 -54.5 132t-135.5 50q-125 0 -183 -104q100 -20 137 -93q-55 -31 -73 -51q-27 -33 -27 -88q0 -45 10.5 -130t10.5 -120q0 -66 -44 -110.5t-108 -44.5q-66 0 -111 44.5t-45 110.5zM102 139q0 -29 20.5 -49t49.5 -20 t49.5 20.5t20.5 48.5q0 29 -20.5 49.5t-49.5 20.5t-49.5 -20.5t-20.5 -49.5zM135 -326q0 -51 53 -51q70 0 70 96q-20 10 -57 11q-66 -1 -66 -56z" />
<glyph unicode="&#xf71d;" horiz-adv-x="972" d="M20 680q0 63 45.5 108.5t110.5 45.5q70 0 116 -47.5t46 -118.5v-328q0 -63 -25 -201q18 49 45 99l129 215h91l129 -215q27 -49 45 -99q-25 137 -25 201v186q-20 -4 -35 -4q-66 0 -110.5 46t-44.5 112q0 63 45 108.5t110 45.5q47 0 82 -23q39 33 49 88h111 q-14 -104 -96 -158q16 -33 16 -73v-668h-129l-193 365l-190 -365h-131v526q-20 -4 -35 -4q-66 0 -111 46t-45 112zM106 678q0 -29 20.5 -49.5t49.5 -20.5t49.5 20.5t20.5 49.5t-20.5 49.5t-49.5 20.5t-49.5 -20.5t-20.5 -49.5zM623 678q0 -29 20.5 -49.5t48.5 -20.5 q29 0 49.5 20.5t20.5 49.5t-20.5 49.5t-49.5 20.5t-49 -20.5t-20 -49.5z" />
<glyph horiz-adv-x="688" d="M-668 1124q0 72 51.5 123t122.5 51q72 0 122 -50t50 -124q0 -72 -50 -122t-122 -50q-74 0 -124 50t-50 122zM-578 1124q0 -35 25 -58.5t59 -23.5q35 0 58.5 24t23.5 58q0 35 -23.5 59.5t-58.5 24.5t-59.5 -24.5t-24.5 -59.5zM33 565q6 123 80.5 196t197.5 73 q115 0 194 -58.5t79 -177.5v-598h-127v596q0 57 -39 93t-107 36t-110.5 -45t-44.5 -115h-123z" />
<glyph d="M-592 1057q0 51 41 86t92 35q-41 27 -41 77q0 119 158 119q55 0 92 -14l-18 -51q-35 10 -76 10q-94 0 -94 -64q0 -68 102 -79l-18 -48q-25 8 -49 9q-57 0 -93 -26t-36 -56q0 -55 92 -56q27 0 65 17l2 -51q-39 -16 -94 -17q-51 0 -88 30t-37 79z" />
</font>
</defs>
</svg>
